<?xml version="1.0" standalone="no"?>
<!DOCTYPE svg PUBLIC "-//W3C//DTD SVG 1.1//EN" "http://www.w3.org/Graphics/SVG/1.1/DTD/svg11.dtd" >
<svg>
<metadata>
Created by FontForge 20120731 at Thu Nov  7 09:18:00 2019
 By www
Copyright 2012 (c) Okay Type Foundry. All rights reserved.
</metadata>
<defs>
<font id="HarrietDisplay-Regular" horiz-adv-x="550" >
  <font-face 
    font-family="Harriet Display"
    font-weight="400"
    font-stretch="normal"
    units-per-em="1000"
    panose-1="2 0 0 0 0 0 0 0 0 0"
    ascent="800"
    descent="-200"
    x-height="484"
    cap-height="679"
    bbox="-102 -337 1246 1045"
    underline-thickness="0"
    underline-position="0"
    unicode-range="U+0020-FB06"
  />
<missing-glyph horiz-adv-x="500" 
d="M10 -230v995h480v-995h-480zM193 84h115q20 0 26.5 7t6.5 26q0 35 11.5 50.5t42.5 21.5q29 5 29 39q0 13 -3.5 23t-3.5 15q0 26 7 37q26 42 26 78q0 78 -53.5 123.5t-142.5 45.5q-95 0 -149.5 -47.5t-54.5 -130.5q0 -8 1.5 -15.5t2.5 -12t4.5 -11.5t4.5 -9.5t6.5 -11
t6.5 -9.5q7 -11 7 -37q0 -5 -3.5 -15t-3.5 -23q0 -34 28 -39q32 -6 43.5 -21t11.5 -51q0 -19 7 -26t27 -7zM335 222q-10 0 -17 4t-12.5 11.5t-6.5 8.5q-2 2 -6.5 6t-8 7t-6 6.5t-2.5 5.5q0 18 12 28.5t31 10.5q20 0 38 -18.5t18 -33.5q0 -12 -13.5 -24t-26.5 -12zM166 222
q-13 0 -26.5 12t-13.5 24q0 15 18 33.5t38 18.5q19 0 31 -10.5t12 -28.5q0 -5 -23 -25q-1 -1 -6.5 -8.5t-12.5 -11.5t-17 -4zM275 182q0 -4 -0.5 -7t-2 -5t-3 -3t-4.5 -1.5t-4.5 -0.5h-5.5h-5h-5h-5.5t-4.5 0.5t-4.5 1.5t-3 3t-2 5t-0.5 7q0 16 7 31.5t18 15.5t18 -15.5
t7 -31.5z" />
    <glyph glyph-name="ff" unicode="ff" horiz-adv-x="678" 
d="M202 484h227v82l1 21l-12 -1q-27 0 -44.5 16t-17.5 41q0 18 6 30.5t14 17.5t14 11.5t6 13.5q0 15 -19.5 26t-52.5 11q-64 0 -93 -42t-29 -134v-93zM622 15v-15q-24 0 -72 0.5t-72 0.5q-23 0 -66 -0.5t-67 -0.5v15l35 6q31 5 40 16t9 41v376l-227 -3v-369q0 -32 11 -44.5
t43 -16.5l41 -6v-15q-24 0 -72 0.5t-72 0.5q-23 0 -66 -0.5t-67 -0.5v15l35 6q30 5 39 16t9 41v366l-96 14v17l96 13v41q0 64 19 112.5t52 75t70 39t79 12.5q101 0 146 -60q51 70 149 70q67 0 104 -29.5t37 -72.5q0 -31 -18 -50.5t-49 -19.5q-27 0 -44.5 16t-17.5 41
q0 18 7.5 30.5t16 17.5t16 11.5t7.5 13.5q0 11 -15.5 19t-42.5 8q-50 0 -71.5 -35t-21.5 -112q0 -21 0.5 -67t0.5 -65h128v-27l-128 -2v-373q0 -32 11 -44.5t43 -16.5z" />
    <glyph glyph-name="fi" unicode="fi" horiz-adv-x="614" 
d="M602 0q-24 0 -66.5 0.5t-66.5 0.5t-67 -0.5t-67 -0.5v15l35 6q31 5 40 16t9 41v317q0 32 -11 47t-40 15q-64 0 -166 -6v-369q0 -32 11 -44.5t43 -16.5l41 -6v-15q-24 0 -72 0.5t-72 0.5q-23 0 -66 -0.5t-67 -0.5v15l35 6q30 5 39 16t9 41v366l-96 14v17l96 13v59
q0 116 65.5 173.5t159.5 57.5q78 0 121.5 -32.5t43.5 -81.5q0 -34 -19.5 -54.5t-51.5 -20.5q-29 0 -47.5 17t-18.5 44q0 26 19.5 48t19.5 31q0 34 -71 34q-59 0 -90.5 -42.5t-31.5 -122.5v-114h217l87 6l19 -6q-7 -55 -7 -112v-294q0 -30 9 -41t39 -16l36 -6v-15z" />
    <glyph glyph-name="fl" unicode="fl" horiz-adv-x="626" 
d="M429 484v115q-9 -3 -21 -3q-27 0 -44.5 16t-17.5 41q0 18 6.5 31t14 18t14 11.5t6.5 13.5q0 14 -19 25t-52 11q-61 0 -87.5 -41.5t-26.5 -133.5v-104h227zM429 462l-227 -11v-369q0 -32 11 -44.5t43 -16.5l41 -6v-15q-24 0 -72 0.5t-72 0.5q-23 0 -66 -0.5t-67 -0.5v15
l35 6q30 5 39 16t9 41v366l-96 14v17l96 13v53q0 124 61.5 180.5t150.5 56.5q94 0 140 -54l67 50l13 -5q-8 -53 -8 -119v-572q0 -30 9.5 -41t39.5 -16l35 -6v-15q-24 0 -66.5 0.5t-66.5 0.5q-23 0 -66 -0.5t-67 -0.5v15l35 6q30 5 39.5 16t9.5 41v384z" />
    <glyph glyph-name="ffi" unicode="ffi" horiz-adv-x="939" 
d="M202 484h227v63l1 19q0 4 0.5 11t0.5 10l-13 -1q-27 0 -44.5 16t-17.5 41q0 18 6 30.5t14 17.5t14 11.5t6 13.5q0 15 -19.5 26t-52.5 11q-64 0 -93 -42t-29 -134v-93zM927 0q-24 0 -66.5 0.5t-66.5 0.5t-67 -0.5t-67 -0.5v15l36 6q30 5 39 16t9 41v317q0 32 -11 47
t-40 15q-5 0 -63 -0.5t-103 -0.5v-374q0 -32 11 -44.5t43 -16.5l41 -6v-15q-24 0 -72 0.5t-72 0.5q-23 0 -66 -0.5t-67 -0.5v15l35 6q31 5 40 16t9 41v376q-180 -2 -227 -3v-369q0 -32 11 -44.5t43 -16.5l41 -6v-15q-24 0 -72 0.5t-72 0.5q-23 0 -66 -0.5t-67 -0.5v15l35 6
q30 5 39 16t9 41v366l-96 14v17l96 13v41q0 64 19 112.5t52 75t70 39t79 12.5q53 0 93 -19t59 -50q60 79 177 79q79 0 122.5 -32.5t43.5 -81.5q0 -34 -19.5 -54.5t-51.5 -20.5q-29 0 -47.5 17t-18.5 44q0 26 19.5 48t19.5 31q0 34 -71 34q-59 0 -90.5 -42.5t-31.5 -122.5
v-114h217l87 6l19 -6q-7 -55 -7 -112v-294q0 -30 9 -41t39 -16l36 -6v-15z" />
    <glyph glyph-name="ffl" unicode="ffl" horiz-adv-x="951" 
d="M202 484h227v57l1 21q0 11 2 25l-14 -1q-27 0 -44.5 16t-17.5 41q0 18 6 30.5t14 17.5t14 11.5t6 13.5q0 15 -19.5 26t-52.5 11q-64 0 -93 -42t-29 -134v-93zM754 484v115q-9 -3 -21 -3q-27 0 -44.5 16t-17.5 41q0 23 10.5 37t20.5 21.5t10 15.5q0 14 -19 25t-52 11
q-61 0 -87.5 -41.5t-26.5 -133.5v-104h227zM754 464l-227 -5v-377q0 -32 11 -44.5t43 -16.5l41 -6v-15q-24 0 -72 0.5t-72 0.5q-23 0 -66 -0.5t-67 -0.5v15l35 6q31 5 40 16t9 41v378l-227 -5v-369q0 -32 11 -44.5t43 -16.5l41 -6v-15q-24 0 -72 0.5t-72 0.5q-23 0 -66 -0.5
t-67 -0.5v15l35 6q30 5 39 16t9 41v366l-96 14v17l96 13v41q0 64 19 112.5t52 75t70 39t79 12.5q52 0 91.5 -18.5t58.5 -47.5q57 76 167 76q94 0 140 -54l68 50l13 -5q-9 -59 -9 -119v-572q0 -30 9.5 -41t39.5 -16l35 -6v-15q-24 0 -66 0.5t-66 0.5t-67 -0.5t-67 -0.5v15
l35 6q31 5 40 16t9 41v386z" />
    <glyph glyph-name=".notdef" horiz-adv-x="500" 
d="M10 -230v995h480v-995h-480zM193 84h115q20 0 26.5 7t6.5 26q0 35 11.5 50.5t42.5 21.5q29 5 29 39q0 13 -3.5 23t-3.5 15q0 26 7 37q26 42 26 78q0 78 -53.5 123.5t-142.5 45.5q-95 0 -149.5 -47.5t-54.5 -130.5q0 -8 1.5 -15.5t2.5 -12t4.5 -11.5t4.5 -9.5t6.5 -11
t6.5 -9.5q7 -11 7 -37q0 -5 -3.5 -15t-3.5 -23q0 -34 28 -39q32 -6 43.5 -21t11.5 -51q0 -19 7 -26t27 -7zM335 222q-10 0 -17 4t-12.5 11.5t-6.5 8.5q-2 2 -6.5 6t-8 7t-6 6.5t-2.5 5.5q0 18 12 28.5t31 10.5q20 0 38 -18.5t18 -33.5q0 -12 -13.5 -24t-26.5 -12zM166 222
q-13 0 -26.5 12t-13.5 24q0 15 18 33.5t38 18.5q19 0 31 -10.5t12 -28.5q0 -5 -23 -25q-1 -1 -6.5 -8.5t-12.5 -11.5t-17 -4zM275 182q0 -4 -0.5 -7t-2 -5t-3 -3t-4.5 -1.5t-4.5 -0.5h-5.5h-5h-5h-5.5t-4.5 0.5t-4.5 1.5t-3 3t-2 5t-0.5 7q0 16 7 31.5t18 15.5t18 -15.5
t7 -31.5z" />
    <glyph glyph-name=".null" horiz-adv-x="0" 
 />
    <glyph glyph-name="nonmarkingreturn" horiz-adv-x="333" 
 />
    <glyph glyph-name="space" unicode=" " horiz-adv-x="195" 
 />
    <glyph glyph-name="exclam" unicode="!" horiz-adv-x="318" 
d="M165 196h-12q-4 150 -23 237q-9 41 -27 92.5t-18 82.5q0 40 21 62.5t53 22.5t53 -22.5t21 -62.5q0 -31 -18 -82.5t-27 -92.5q-19 -97 -23 -237zM159 -9q-29 0 -49 19t-20 50q0 32 20 50.5t49 18.5q30 0 49.5 -18.5t19.5 -50.5q0 -31 -20 -50t-49 -19z" />
    <glyph glyph-name="quotedbl" unicode="&#x22;" horiz-adv-x="405" 
d="M283 488h-15q-5 41 -13.5 95t-14 90t-5.5 48q0 19 10.5 31.5t29.5 12.5q20 0 30.5 -12.5t10.5 -31.5q0 -15 -5.5 -50.5t-14 -89t-13.5 -93.5zM138 488h-15q-5 41 -13.5 95t-14 90t-5.5 48q0 19 10.5 31.5t29.5 12.5q20 0 30.5 -12.5t10.5 -31.5q0 -15 -5.5 -50.5t-14 -89
t-13.5 -93.5z" />
    <glyph glyph-name="numbersign" unicode="#" horiz-adv-x="514" 
d="M325 237l18 162h-151l-18 -162h151zM166 165l-18 -165h-25l18 165h-93l-15 72h116l18 162h-111l-15 72h134l17 160h25l-17 -160h151l17 160h25l-17 -160h90l15 -72h-113l-18 -162h107l16 -72h-131l-18 -165h-25l18 165h-151z" />
    <glyph glyph-name="dollar" unicode="$" horiz-adv-x="521" 
d="M261 382l35 248l-11 1q-75 0 -114.5 -34.5t-39.5 -83.5q0 -51 30.5 -77.5t99.5 -53.5zM241 0q81 0 120.5 33.5t39.5 89.5q0 55 -33.5 83.5t-101.5 52.5l-37 -259h12zM477 171q0 -83 -67 -134.5t-168 -51.5h-15l-15 -106h-23l15 108q-86 7 -134.5 47t-48.5 101
q0 30 18.5 51t48.5 21q26 0 41.5 -15t15.5 -40q0 -23 -11.5 -36.5t-22.5 -21t-11 -17.5q0 -25 29 -47t78 -28l37 265q-97 35 -142.5 78.5t-45.5 115.5q0 85 65 134.5t164 49.5h13l9 60h23l-9 -62q74 -8 118 -45.5t44 -86.5q0 -31 -18 -51t-47 -20q-26 0 -42 15.5t-16 39.5
q0 23 11 36.5t22 21.5t11 18q0 18 -23 34.5t-62 22.5l-36 -254q3 -1 9 -3.5t9 -3.5q44 -17 70.5 -30.5t53.5 -36t39.5 -54.5t12.5 -75z" />
    <glyph glyph-name="percent" unicode="%" horiz-adv-x="673" 
d="M351 498q0 -69 -44 -110t-115 -41t-115 40.5t-44 109.5t44 109.5t114 40.5q72 0 116 -40t44 -109zM42 0l280 322l257 309h40l-279 -322l-258 -309h-40zM192 364q43 0 65.5 35t22.5 99q0 63 -23 97.5t-66 34.5q-42 0 -64.5 -34.5t-22.5 -98.5q0 -63 23 -98t65 -35z
M480 -10q-72 0 -115.5 40t-43.5 110q0 69 43.5 109.5t114.5 40.5q72 0 116.5 -40t44.5 -109t-44.5 -110t-115.5 -41zM480 7q42 0 65 35t23 99q0 63 -23 97.5t-66 34.5q-42 0 -64.5 -34.5t-22.5 -98.5t22.5 -98.5t65.5 -34.5z" />
    <glyph glyph-name="ampersand" unicode="&#x26;" horiz-adv-x="744" 
d="M729 157q-15 -99 -55 -135t-108 -36q-86 0 -154 67q-64 -67 -172 -67q-96 0 -160.5 50.5t-64.5 139.5q0 150 196 217q-26 75 -26 129q0 88 49 131t113 43q58 0 99.5 -30.5t41.5 -86.5q0 -102 -183 -168q24 -66 62 -134q48 -86 80 -132q12 34 16 52q11 45 19.5 74.5
t24.5 65.5t34.5 57t47 36t64.5 15q41 0 64 -21t23 -53q0 -31 -17.5 -49t-43.5 -18q-27 0 -42.5 15t-15.5 41q0 7 2 16.5t2 12.5q0 14 -17 14q-77 0 -126 -210q-10 -40 -22 -67q77 -101 141 -101q44 0 71.5 28.5t41.5 105.5zM300 423l7 3q59 25 87 60.5t28 91.5q0 51 -17 76
t-58 25q-83 0 -83 -102q0 -55 36 -154zM270 12q79 0 130 54q-49 52 -115 165q-42 73 -69 147q-96 -42 -96 -190q0 -82 39.5 -129t110.5 -47z" />
    <glyph glyph-name="quotesingle" unicode="'" horiz-adv-x="261" 
d="M138 488h-15q-5 41 -13.5 95t-14 90t-5.5 48q0 19 10.5 31.5t29.5 12.5q20 0 30.5 -12.5t10.5 -31.5q0 -15 -5.5 -50.5t-14 -89t-13.5 -93.5z" />
    <glyph glyph-name="parenleft" unicode="(" horiz-adv-x="381" 
d="M352 -171l-8 -11q-34 25 -66 54.5t-68.5 74.5t-63 94.5t-44 115t-17.5 134.5v4q0 85 25.5 163t67.5 137.5t82 100.5t84 73l8 -11q-168 -157 -168 -463v-4q0 -305 168 -462z" />
    <glyph glyph-name="parenright" unicode=")" horiz-adv-x="381" 
d="M37 -182l-8 11q168 157 168 462v4q0 306 -168 463l8 11q44 -32 84 -73t82 -100.5t67.5 -137.5t25.5 -163v-4q0 -69 -17.5 -134.5t-44 -115t-63 -94.5t-68.5 -74.5t-66 -54.5z" />
    <glyph glyph-name="asterisk" unicode="*" horiz-adv-x="419" 
d="M210 423q-10 -37 -44 -27q-16 4 -23 16.5t-3 29.5q3 13 26.5 39t38.5 72q-33 -11 -53.5 -25.5t-32.5 -25.5t-25 -15q-17 -5 -30 2t-17 23q-10 35 27 45q11 3 48 -3t82 6q-34 32 -68.5 45t-43.5 22q-12 11 -12 26t12 27q11 11 26 10.5t26 -12.5q9 -10 21 -44.5t43 -68.5
q9 49 2 82t-3 46q10 37 46 27q16 -4 23 -16.5t3 -29.5q-3 -12 -26.5 -38.5t-38.5 -72.5q43 15 70.5 39t40.5 28q16 5 29 -2t18 -23q5 -17 -3 -29.5t-24 -16.5q-11 -3 -48.5 3t-81.5 -6q33 -32 67.5 -45t44.5 -22q12 -11 12 -26t-12 -27q-25 -26 -53 2q-9 10 -20.5 44.5
t-42.5 68.5q-9 -49 -3.5 -82t2.5 -46z" />
    <glyph glyph-name="plus" unicode="+" 
d="M291 227v-203h-32v203h-203v32h203v201h32v-201h203v-32h-203z" />
    <glyph glyph-name="comma" unicode="," horiz-adv-x="264" 
d="M70 -191l-10 19q51 26 81 71t30 89q0 16 -13 16q-5 0 -17.5 -5.5t-25.5 -5.5q-28 0 -46 18.5t-18 49.5q0 33 21 53t51 20q39 0 62.5 -27.5t23.5 -84.5q0 -72 -38.5 -127.5t-100.5 -85.5z" />
    <glyph glyph-name="hyphen" unicode="-" horiz-adv-x="298" 
d="M25 226v32h248v-32h-248z" />
    <glyph glyph-name="period" unicode="." horiz-adv-x="254" 
d="M199 62q0 -32 -21 -51.5t-51 -19.5t-51 20t-21 51q0 33 21 52.5t51 19.5q31 0 51.5 -19.5t20.5 -52.5z" />
    <glyph glyph-name="slash" unicode="/" horiz-adv-x="318" 
d="M15 -50l258 779h30l-258 -779h-30z" />
    <glyph glyph-name="zero" unicode="0" horiz-adv-x="627" 
d="M580 262q0 -122 -77 -199.5t-190 -77.5q-112 0 -189 77.5t-77 199.5q0 123 77 200t189 77q113 0 190 -77t77 -200zM164 262q0 -118 37 -190t112 -72t112 72t37 190q0 119 -37 190.5t-112 71.5t-112 -71.5t-37 -190.5z" />
    <glyph glyph-name="one" unicode="1" horiz-adv-x="477" 
d="M84 0v16l47 7q43 7 56.5 22.5t13.5 53.5v290q0 43 -14.5 60t-55.5 19l-53 3v18l52 3q141 8 156 32h18q-4 -63 -4 -131v-294q0 -39 12.5 -54.5t57.5 -21.5l46 -7v-16q-32 0 -86 0.5t-79 0.5t-80 -0.5t-87 -0.5z" />
    <glyph glyph-name="two" unicode="2" horiz-adv-x="554" 
d="M469 -71h-17v23q0 26 -11 37t-36 11h-358v29q171 107 231 160q104 93 104 200q0 135 -107 135q-61 0 -98 -44.5t-37 -101.5q0 -76 52 -76q47 0 59 80l14 -2q-8 -60 -39 -92t-77 -32q-45 0 -72.5 28t-27.5 75q0 75 64.5 127.5t162.5 52.5q92 0 152.5 -43.5t60.5 -116.5
q0 -64 -43 -110.5t-135 -97.5q-119 -66 -170 -96q61 11 122 11h234z" />
    <glyph glyph-name="three" unicode="3" horiz-adv-x="543" 
d="M513 58q0 -72 -49 -126t-114 -78t-130 -24q-96 0 -145.5 36t-49.5 90q0 32 19 55t52 23q28 0 44.5 -15.5t16.5 -40.5q0 -24 -12.5 -37.5t-24.5 -21t-12 -17.5q0 -21 30 -39t80 -18q82 0 135 57t53 149q0 88 -24.5 124t-81.5 36q-31 0 -57.5 -16t-47 -32t-37.5 -16
q-36 0 -36 40q15 8 73.5 23.5t86.5 32.5q92 56 92 162q0 119 -104 119q-64 0 -97 -39t-33 -93q0 -66 52 -66q46 0 60 76l13 -2q-18 -121 -112 -121q-45 0 -72 26.5t-27 73.5q0 70 63 115t154 45q90 0 149 -33t59 -101q0 -28 -11 -50.5t-26 -38.5t-52.5 -36.5t-67.5 -34
t-94 -40.5q53 23 112 23q72 0 122.5 -41t50.5 -129z" />
    <glyph glyph-name="four" unicode="4" horiz-adv-x="559" 
d="M41 85h251v164v14q0 116 7 200zM482 -140v-15q-24 0 -70.5 0.5t-70.5 0.5t-75 -0.5t-75 -0.5v15l46 6q33 4 44 16.5t11 44.5v133h-267l-7 25l299 439h74v-439h31q37 0 53.5 14.5t32.5 64.5l15 47h14l-21 -153q-62 2 -97 2h-28v-137q0 -30 9.5 -41.5t41.5 -15.5z" />
    <glyph glyph-name="five" unicode="5" horiz-adv-x="537" 
d="M217 -170q-90 0 -140 35t-50 93q0 34 20 55.5t53 21.5q27 0 43 -15t16 -41q0 -19 -7.5 -31.5t-16.5 -17.5t-16.5 -12.5t-7.5 -16.5q0 -21 28.5 -38.5t77.5 -17.5q80 0 126 56.5t46 149.5q0 103 -31.5 151.5t-98.5 48.5q-85 0 -131 -84l-48 4l33 358h23q78 -22 177 -22
q55 0 104 8.5t66 21.5l7 -2q-35 -84 -141.5 -111t-225.5 -4l-20 -215q67 62 161 62q97 0 164.5 -51.5t67.5 -157.5q0 -72 -45 -126t-106.5 -78t-127.5 -24z" />
    <glyph glyph-name="six" unicode="6" horiz-adv-x="585" 
d="M149 206q0 102 47 159.5t128 57.5q96 0 157.5 -56.5t61.5 -156.5q0 -98 -73 -161.5t-171 -63.5q-112 0 -182 80.5t-70 239.5q0 95 25.5 171.5t68.5 123t96 70.5t111 24q86 0 133 -33.5t47 -82.5q0 -33 -19 -54t-52 -21q-26 0 -43 15.5t-17 40.5q0 28 22 47.5t22 30.5
q0 17 -23.5 29.5t-67.5 12.5q-105 0 -153 -112t-48 -361zM164 206q0 -92 33.5 -149t102.5 -57t101 57t32 150q0 192 -127 192q-66 0 -104 -55t-38 -138z" />
    <glyph glyph-name="seven" unicode="7" horiz-adv-x="521" 
d="M231 -171q-65 0 -65 69q0 146 151 372q15 23 127 172h-284q-39 0 -59 -13t-33 -51l-16 -47h-18l32 213h15q0 -11 4.5 -15.5t18.5 -4.5h392v-34q-8 -11 -32 -42.5t-35.5 -47.5t-29.5 -43.5t-31.5 -52.5t-24.5 -52q-27 -66 -36.5 -143t-9.5 -206q0 -34 -18 -54t-48 -20z
" />
    <glyph glyph-name="eight" unicode="8" horiz-adv-x="606" 
d="M303 -15q-112 0 -186.5 50t-74.5 142q0 75 59.5 124.5t151.5 61.5q-75 11 -124.5 53.5t-49.5 106.5q0 82 64 126.5t160 44.5t159.5 -44.5t63.5 -126.5q0 -64 -49.5 -106t-123.5 -54q91 -12 151 -61.5t60 -124.5q0 -92 -74.5 -142t-186.5 -50zM183 525q0 -74 31.5 -113.5
t88.5 -39.5t88.5 39.5t31.5 113.5q0 73 -33 113.5t-87 40.5t-87 -40.5t-33 -113.5zM156 175q0 -83 40 -129t107 -46t107 46t40 129t-39 129.5t-108 46.5t-108 -46t-39 -130z" />
    <glyph glyph-name="nine" unicode="9" horiz-adv-x="590" 
d="M427 318q0 92 -34 149t-103 57t-101 -57t-32 -150q0 -192 127 -192q66 0 104.5 55t38.5 138zM441 318q0 -102 -47 -159.5t-128 -57.5q-96 0 -157.5 56.5t-61.5 156.5q0 98 73 161.5t171 63.5q112 0 182 -80.5t70 -239.5q0 -95 -25.5 -171.5t-68.5 -123t-96 -70.5
t-111 -24q-85 0 -132 33.5t-47 82.5q0 34 19 54.5t51 20.5q26 0 43 -15.5t17 -40.5q0 -28 -22 -48t-22 -31q0 -17 23.5 -29t68.5 -12q104 0 152 112t48 361z" />
    <glyph glyph-name="colon" unicode=":" horiz-adv-x="274" 
d="M209 421q0 -32 -21 -51.5t-51 -19.5t-51 20t-21 51q0 33 21 52.5t51 19.5q31 0 51.5 -19.5t20.5 -52.5zM209 62q0 -32 -21 -51.5t-51 -19.5t-51 20t-21 51q0 33 21 52.5t51 19.5q31 0 51.5 -19.5t20.5 -52.5z" />
    <glyph glyph-name="semicolon" unicode=";" horiz-adv-x="288" 
d="M213 421q0 -32 -21 -51.5t-51 -19.5t-51 20t-21 51q0 33 21 52.5t51 19.5q31 0 51.5 -19.5t20.5 -52.5zM84 -191l-10 19q51 26 81 71t30 89q0 16 -13 16q-5 0 -17.5 -5.5t-25.5 -5.5q-28 0 -46 18.5t-18 49.5q0 33 21 53t51 20q39 0 62.5 -27.5t23.5 -84.5
q0 -72 -38.5 -127.5t-100.5 -85.5z" />
    <glyph glyph-name="less" unicode="&#x3c;" 
d="M462 23l-399 205v28l399 205l14 -26l-383 -193l383 -193z" />
    <glyph glyph-name="equal" unicode="=" 
d="M56 321v32h438v-32h-438zM494 131h-438v32h438v-32z" />
    <glyph glyph-name="greater" unicode="&#x3e;" 
d="M487 228l-399 -205l-14 26l383 193l-383 193l14 26l399 -205v-28z" />
    <glyph glyph-name="question" unicode="?" horiz-adv-x="544" 
d="M515 508q0 -50 -23 -88.5t-59.5 -59t-75 -31t-76.5 -10.5q-12 0 -38 2l-17 -125h-13l-20 150l13 5q32 -16 69 -16q55 0 90.5 42.5t35.5 130.5q0 83 -34 127t-93 44q-70 0 -103.5 -41.5t-33.5 -95.5q0 -34 14 -53t38 -19q22 0 37 18t27 63l13 -2q-23 -124 -119 -124
q-45 0 -73.5 27.5t-28.5 74.5q0 68 63 117.5t166 49.5q62 0 115 -18.5t89.5 -62t36.5 -105.5zM292 60q0 -31 -20 -50t-49 -19q-30 0 -49.5 19t-19.5 50q0 32 19.5 50.5t49.5 18.5q29 0 49 -19t20 -50z" />
    <glyph glyph-name="at" unicode="@" horiz-adv-x="903" 
d="M466 -239q-182 0 -299 112t-117 285q0 129 65.5 239.5t171 173.5t222.5 63q150 0 247 -81t97 -223q0 -126 -77.5 -219.5t-172.5 -93.5q-111 0 -111 87q0 26 9 51q-28 -75 -56.5 -105.5t-71.5 -30.5q-52 0 -82.5 35t-30.5 93q0 106 72.5 192.5t175.5 86.5q70 0 106 -44
l57 44h13l-42 -93l-62 -183q-10 -32 -10 -48q0 -60 61 -60q62 0 114.5 68t52.5 183q0 134 -89 219t-234 85q-163 0 -259.5 -104.5t-96.5 -279.5q0 -163 108 -268t274 -105q173 0 239 66l8 -7q-101 -138 -282 -138zM397 48q26 0 47.5 26t45.5 94l73 208q-17 33 -52 33
q-44 0 -82.5 -49.5t-57.5 -113.5t-19 -118q0 -80 45 -80z" />
    <glyph glyph-name="A" unicode="A" horiz-adv-x="715" 
d="M721 0q-29 0 -81 0.5t-80 0.5t-80 -0.5t-81 -0.5v16l57 7q38 5 44.5 25.5t-9.5 53.5l-45 118h-263l-21 -54q-30 -74 -25 -103t55 -38l50 -9v-16q-22 0 -60.5 0.5t-59.5 0.5q-22 0 -63.5 -0.5t-63.5 -0.5v15l33 9q39 10 61 39t53 110l153 396l40 115h52l217 -560
q24 -61 38.5 -80t44.5 -23l34 -5v-16zM315 567l-124 -326h247z" />
    <glyph glyph-name="B" unicode="B" horiz-adv-x="655" 
d="M20 0v16l52 7q40 6 51 19.5t11 47.5v499q0 34 -11 47.5t-51 19.5l-52 7v16h308q70 0 125 -13.5t94 -50t39 -93.5q0 -68 -55 -108.5t-147 -53.5v-4q234 -15 234 -166q0 -93 -74.5 -141.5t-204.5 -48.5h-319zM245 365h71q80 0 116 38.5t36 118.5q0 82 -34.5 110.5
t-114.5 28.5h-74v-296zM245 347v-270q0 -31 14.5 -45t48.5 -14h28q80 0 117.5 40.5t37.5 132.5q0 83 -44.5 119.5t-131.5 36.5h-70z" />
    <glyph glyph-name="C" unicode="C" horiz-adv-x="699" 
d="M612 -10l-39 71q-74 -76 -201 -76q-64 0 -122.5 23t-106 66t-75.5 111.5t-28 152.5t28.5 153t75.5 112.5t106 67t123 23.5q127 0 199 -77l40 72h10v-277h-19q-49 153 -101 210t-127 57q-101 0 -155 -85.5t-54 -254.5q0 -162 54 -250.5t155 -88.5q77 0 130 59t98 195h19
v-264h-10z" />
    <glyph glyph-name="D" unicode="D" horiz-adv-x="736" 
d="M20 0v16l52 7q40 6 51 19.5t11 47.5v499q0 34 -11 47.5t-51 19.5l-52 7v16h312q73 0 137 -19.5t115.5 -58.5t81.5 -106.5t30 -155.5t-29.5 -155t-81.5 -106.5t-116 -58.5t-138 -19h-311zM308 18h23q118 0 178.5 76t60.5 245t-60.5 245.5t-177.5 76.5h-87v-584
q0 -31 14.5 -45t48.5 -14z" />
    <glyph glyph-name="E" unicode="E" horiz-adv-x="642" 
d="M245 359h73q45 0 68 32t50 117h17q-1 -53 -1 -159t1 -159h-17q-29 91 -50.5 121t-67.5 30h-73v-264q0 -31 14.5 -45t48.5 -14h64q84 0 121.5 41t88.5 178h20l-11 -237h-571v16l52 7q40 6 51 19.5t11 47.5v499q0 34 -11 47.5t-51 19.5l-52 7v16h541l11 -217h-20
q-47 121 -81.5 160t-104.5 39h-121v-302z" />
    <glyph glyph-name="F" unicode="F" horiz-adv-x="609" 
d="M245 357h72q46 0 68.5 31.5t49.5 117.5h17q-1 -53 -1 -159t1 -159h-17q-29 91 -50.5 121t-67.5 30h-72v-243q0 -35 13.5 -51t54.5 -22l52 -7v-16q-30 0 -88 0.5t-87 0.5q-30 0 -85 -0.5t-85 -0.5v16l52 7q40 6 51 18.5t11 46.5v501q0 34 -11 47.5t-51 19.5l-52 7v16h544
l10 -227h-19q-23 56 -35 83t-29.5 57t-33 41.5t-37 19.5t-51.5 8h-124v-304z" />
    <glyph glyph-name="G" unicode="G" horiz-adv-x="732" 
d="M617 -13l-47 83q-68 -85 -203 -85t-231 94t-96 259q0 84 28.5 153t76 112.5t106.5 67t123 23.5q126 0 198 -77l40 72h10v-277h-19q-49 153 -100.5 210t-126.5 57q-101 0 -155.5 -85.5t-54.5 -254.5q0 -168 53.5 -253.5t151.5 -85.5q75 0 112 43.5t37 114.5v66
q0 29 -12 43.5t-47 19.5l-61 9v16q57 -1 162 -1q113 0 170 1v-16l-58 -9q-30 -5 -41 -19.5t-11 -43.5v-96l4 -141h-9z" />
    <glyph glyph-name="H" unicode="H" horiz-adv-x="807" 
d="M562 358v231q0 34 -11 47.5t-51 19.5l-52 7v16q30 0 85 -0.5t85 -0.5q29 0 84 0.5t85 0.5v-16l-52 -7q-40 -6 -51 -19.5t-11 -47.5v-499q0 -34 11 -47.5t51 -19.5l52 -7v-16q-30 0 -85 0.5t-84 0.5q-30 0 -85 -0.5t-85 -0.5v16l52 7q40 6 51 19.5t11 47.5v247h-317v-247
q0 -34 11 -47.5t51 -19.5l51 -7v-16q-29 0 -84 0.5t-85 0.5q-29 0 -84 -0.5t-85 -0.5v16l52 7q40 6 51 19.5t11 47.5v499q0 34 -11 47.5t-51 19.5l-52 7v16q30 0 85 -0.5t84 -0.5q30 0 85 0.5t84 0.5v-16l-51 -7q-40 -6 -51 -19.5t-11 -47.5v-231h317z" />
    <glyph glyph-name="I" unicode="I" horiz-adv-x="379" 
d="M359 16v-16q-30 0 -85 0.5t-85 0.5q-29 0 -84 -0.5t-85 -0.5v16l52 7q40 6 51 19.5t11 47.5v499q0 34 -11 47.5t-51 19.5l-52 7v16q30 0 85 -0.5t84 -0.5q30 0 85 0.5t85 0.5v-16l-52 -7q-40 -6 -51 -19.5t-11 -47.5v-499q0 -34 11 -47.5t51 -19.5z" />
    <glyph glyph-name="J" unicode="J" horiz-adv-x="528" 
d="M170 -15q-76 0 -123 37t-47 99q0 37 20.5 61t53.5 24q28 0 44.5 -16.5t16.5 -42.5t-16 -41t-43 -17q-20 -1 -20 -19q0 -25 30.5 -47.5t79.5 -22.5q133 0 133 181v402q0 35 -13.5 51t-54.5 22l-52 7v16q30 0 85 -0.5t85 -0.5q29 0 84 0.5t85 0.5v-16l-51 -7
q-40 -6 -51 -19.5t-11 -47.5v-350q0 -123 -66.5 -188.5t-168.5 -65.5z" />
    <glyph glyph-name="K" unicode="K" horiz-adv-x="751" 
d="M751 16v-16q-29 0 -84.5 0.5t-84.5 0.5t-86.5 -0.5t-86.5 -0.5v16l32 5q50 8 50 28q0 16 -40 61l-206 234l198 194q39 38 52.5 56t13.5 31q0 25 -50 32l-38 6v16q49 -1 147 -1q101 0 151 1v-16l-32 -6q-61 -11 -110.5 -39t-118.5 -95l-122 -117l242 -273q57 -63 82 -82.5
t64 -28.5zM359 16v-16q-30 0 -85 0.5t-85 0.5q-29 0 -84 -0.5t-85 -0.5v16l52 7q40 6 51 19.5t11 47.5v499q0 34 -11 47.5t-51 19.5l-52 7v16q30 0 85 -0.5t84 -0.5q30 0 85 0.5t85 0.5v-16l-52 -7q-40 -6 -51 -19.5t-11 -47.5v-499q0 -34 11 -47.5t51 -19.5z" />
    <glyph glyph-name="L" unicode="L" horiz-adv-x="639" 
d="M595 0h-575v16l52 7q40 6 51 19.5t11 47.5v499q0 34 -11 47.5t-51 19.5l-52 7v16q30 0 85 -0.5t85 -0.5q29 0 84 0.5t85 0.5v-16l-52 -7q-40 -6 -51 -19.5t-11 -47.5v-512q0 -31 14.5 -45t48.5 -14h76q70 0 114 51t88 187h18z" />
    <glyph glyph-name="M" unicode="M" horiz-adv-x="942" 
d="M697 637l-255 -639h-31l-253 628v-482q0 -64 15.5 -89t56.5 -32l41 -7v-16q-23 0 -63 0.5t-62 0.5t-63 -0.5t-63 -0.5v16l41 7q42 7 57.5 32t15.5 89v445q0 34 -11 47.5t-51 19.5l-52 7v16h239l216 -543l215 543h232v-16l-52 -7q-40 -6 -51 -19.5t-11 -47.5v-499
q0 -34 11 -47.5t51 -19.5l52 -7v-16q-30 0 -85 0.5t-85 0.5q-29 0 -84 -0.5t-85 -0.5v16l52 7q40 6 51 19.5t11 47.5v547z" />
    <glyph glyph-name="N" unicode="N" horiz-adv-x="757" 
d="M563 -2l-405 599v-453q0 -64 15.5 -89t56.5 -32l41 -7v-16q-23 0 -63 0.5t-62 0.5t-63 -0.5t-63 -0.5v16l41 7q42 7 57.5 32t15.5 89v445q0 34 -11 47.5t-51 19.5l-52 7v16h218l364 -537v393q0 64 -15.5 89t-57.5 32l-41 7v16q22 0 63 -0.5t63 -0.5t62 0.5t63 0.5v-16
l-41 -7q-41 -7 -56.5 -32t-15.5 -89v-537h-63z" />
    <glyph glyph-name="O" unicode="O" horiz-adv-x="756" 
d="M716 339q0 -157 -97 -255.5t-240 -98.5t-241 98.5t-98 255.5q0 158 97.5 256.5t241.5 98.5q143 0 240 -98.5t97 -256.5zM164 339q0 -151 52.5 -245t162.5 -94q108 0 160.5 94.5t52.5 244.5q0 98 -20.5 172t-69.5 121t-123 47q-110 0 -162.5 -94t-52.5 -246z" />
    <glyph glyph-name="P" unicode="P" horiz-adv-x="635" 
d="M245 661v-332q57 -3 82 -3q76 0 119.5 41.5t43.5 123.5q0 90 -42 130t-133 40h-70zM365 16v-16q-30 0 -88 0.5t-87 0.5q-30 0 -85 -0.5t-85 -0.5v16l52 7q40 6 51 18.5t11 46.5v501q0 34 -11 47.5t-51 19.5l-52 7v16h294q294 0 294 -187q0 -90 -79 -137t-202 -47
q-38 0 -82 4v-216q0 -36 13.5 -51.5t54.5 -21.5z" />
    <glyph glyph-name="Q" unicode="Q" horiz-adv-x="756" 
d="M754 -272q-49 0 -92 19t-75 46t-63 54.5t-70.5 46.5t-83.5 19q-41 0 -76.5 -15.5t-55.5 -34t-42 -34t-40 -15.5q-34 -1 -50 28q54 52 157 71q86 45 197 92q-50 -19 -93 -19q-133 0 -230 98t-97 255q0 153 92.5 254t246.5 101q153 0 245 -101t92 -254q0 -118 -55.5 -200
t-138.5 -121q-28 -13 -75 -33t-83.5 -37t-73.5 -37q52 18 106 18q61 0 119 -15.5t96 -34t85.5 -34t89.5 -15.5q65 0 99.5 22.5t46.5 74.5h13q-9 -91 -57.5 -145t-133.5 -54zM164 339q0 -151 52.5 -245t162.5 -94q108 0 160.5 94.5t52.5 244.5q0 98 -20.5 172t-69.5 121
t-123 47q-110 0 -162.5 -94t-52.5 -246z" />
    <glyph glyph-name="R" unicode="R" horiz-adv-x="696" 
d="M701 0h-130q-44 0 -59 11t-34 47l-135 264q-8 -1 -23 -1q-33 0 -75 2v-233q0 -34 11 -47.5t51 -19.5l52 -7v-16q-30 0 -85 0.5t-84 0.5q-30 0 -85 -0.5t-85 -0.5v16l52 7q40 6 51 19.5t11 47.5v499q0 34 -11 47.5t-51 19.5l-52 7v16h295q291 0 291 -177q0 -67 -48 -107.5
t-117 -54.5q22 -25 46 -68l90 -163q25 -46 40.5 -62t47.5 -23l36 -8v-16zM245 662v-321q56 -2 76 -2q84 0 125 38t41 122q0 91 -41 127t-131 36h-70z" />
    <glyph glyph-name="S" unicode="S" horiz-adv-x="581" 
d="M526 183q0 -94 -65 -146t-157 -52q-127 0 -192 68l-32 -64h-10v274h21q29 -143 80.5 -203t132.5 -60q67 0 104.5 35.5t37.5 99.5q0 61 -43.5 94t-128.5 63q-99 36 -149 87t-50 126q0 86 61.5 137.5t150.5 51.5q108 0 168 -66l32 62h10v-263h-20q-34 134 -75.5 193
t-113.5 59q-65 0 -99 -35.5t-34 -86.5q0 -60 43.5 -94.5t134.5 -68.5q45 -17 75 -32.5t59.5 -40t44 -59t14.5 -79.5z" />
    <glyph glyph-name="T" unicode="T" horiz-adv-x="673" 
d="M508 16v-16q-30 0 -86 0.5t-85 0.5q-30 0 -86 -0.5t-86 -0.5v16l52 7q40 6 52 20.5t12 48.5v569h-66q-63 0 -97.5 -42t-76.5 -168h-16l7 228h609l7 -228h-16q-42 126 -76.5 168t-97.5 42h-66v-569q0 -34 12 -48.5t52 -20.5z" />
    <glyph glyph-name="U" unicode="U" horiz-adv-x="771" 
d="M648 237q0 -118 -64 -185t-196 -67q-123 0 -191 56.5t-68 195.5v352q0 34 -11.5 47.5t-51.5 19.5l-51 7v16q30 0 85 -0.5t84 -0.5q30 0 85 0.5t84 0.5v-16l-51 -7q-40 -6 -51 -19.5t-11 -47.5v-353q0 -117 47 -164.5t139 -47.5q100 0 149 55.5t49 157.5v298
q0 64 -15.5 89t-57.5 32l-41 7v16q22 0 63 -0.5t63 -0.5t62 0.5t63 0.5v-16l-41 -7q-42 -7 -57 -31.5t-15 -89.5v-298z" />
    <glyph glyph-name="V" unicode="V" horiz-adv-x="725" 
d="M337 -3l-213 558q-21 56 -40 77t-52 26l-37 5v16q57 -1 172 -1q114 0 172 1v-16l-57 -7q-39 -5 -48.5 -25.5t4.5 -53.5l168 -463l146 398q28 73 19.5 103.5t-59.5 38.5l-49 9v16q45 -1 133 -1q89 0 134 1v-15l-38 -10q-42 -10 -65.5 -39.5t-54.5 -110.5l-148 -392
l-40 -115h-47z" />
    <glyph glyph-name="W" unicode="W" horiz-adv-x="1031" 
d="M301 -5l-182 562q-18 55 -36 76t-52 25l-36 5v16q57 -1 172 -1q114 0 172 1v-16l-57 -7q-72 -9 -50 -79l134 -443l156 549h52l181 -549l112 377q19 53 15 83.5t-19 42.5t-50 18l-43 8v16q45 -1 134 -1t133 1v-15l-35 -8q-44 -10 -67 -40.5t-47 -111.5l-115 -384l-33 -125
h-51l-185 545l-120 -418l-33 -127h-50z" />
    <glyph glyph-name="X" unicode="X" horiz-adv-x="772" 
d="M772 16v-16q-30 0 -90 0.5t-90 0.5t-90 -0.5t-91 -0.5v16l53 7q72 9 26 76l-135 205l-120 -156q-46 -60 -46 -88t59 -37l45 -7v-16q-25 0 -73 0.5t-73 0.5t-74 -0.5t-73 -0.5v15l34 7q56 11 88.5 35.5t95.5 103.5l126 160l-161 227q-45 63 -69 84t-56 26l-35 5v16
q58 -1 172 -1t172 1v-16l-47 -6q-67 -8 -21 -77l123 -183l102 134q48 63 48 87q0 17 -13 25t-44 13l-46 7v16q47 -1 141 -1t141 1v-15l-33 -7q-50 -10 -82 -35t-95 -104l-108 -137l169 -241q49 -70 76.5 -92.5t62.5 -27.5z" />
    <glyph glyph-name="Y" unicode="Y" horiz-adv-x="711" 
d="M523 0q-29 0 -85 0.5t-86 0.5t-86 -0.5t-86 -0.5v16l52 7q40 6 52 20.5t12 48.5v174l-176 317q-22 39 -41 55t-47 20l-36 5v16q57 -1 173 -1q114 0 172 1v-16l-57 -7q-71 -8 -35 -76l151 -278l118 210q37 67 37 98q0 36 -57 46l-40 7v16q43 -1 129 -1t129 1v-15l-31 -7
q-38 -9 -68 -39.5t-78 -112.5l-132 -227v-186q0 -34 12.5 -48.5t52.5 -20.5l51 -7v-16z" />
    <glyph glyph-name="Z" unicode="Z" horiz-adv-x="636" 
d="M582 0h-547v18l421 643h-186q-68 0 -110 -42.5t-85 -168.5h-21l9 229h527v-18l-422 -643h193q74 0 119.5 45.5t90.5 180.5h21z" />
    <glyph glyph-name="bracketleft" unicode="[" horiz-adv-x="407" 
d="M120 -189v963l267 -10v-17l-173 -11v-887l173 -11v-17z" />
    <glyph glyph-name="backslash" unicode="\" horiz-adv-x="318" 
d="M45 729l258 -779h-30l-258 779h30z" />
    <glyph glyph-name="bracketright" unicode="]" horiz-adv-x="407" 
d="M287 774v-963l-267 10v17l173 11v887l-173 11v17z" />
    <glyph glyph-name="asciicircum" unicode="^" horiz-adv-x="549" 
d="M275 727l-195 -279h-25l183 317h74l182 -317h-25z" />
    <glyph glyph-name="underscore" unicode="_" horiz-adv-x="518" 
d="M0 -55v32h518v-32h-518z" />
    <glyph glyph-name="grave" unicode="`" horiz-adv-x="525" 
d="M324 578h-6q-120 75 -173 169v3h96q21 -70 83 -172z" />
    <glyph glyph-name="a" unicode="a" horiz-adv-x="507" 
d="M213 21q42 0 70.5 30.5t28.5 90.5v103q-95 -14 -136.5 -41.5t-41.5 -94.5q0 -40 21 -64t58 -24zM505 118q-2 -70 -22.5 -100t-67.5 -30q-43 0 -64 24t-25 82q-16 -49 -58.5 -79t-99.5 -30q-64 0 -100 29t-36 83q0 134 281 163v102q0 66 -19.5 93t-71.5 27
q-40 0 -65.5 -15t-25.5 -34q0 -12 12.5 -21t25 -21.5t12.5 -33.5q0 -24 -18 -39.5t-45 -15.5q-30 0 -47 19.5t-17 52.5q0 53 49.5 88t119.5 35q88 0 136.5 -40t48.5 -119l-1 -263q0 -56 35 -56q21 0 32.5 22t14.5 77h16z" />
    <glyph glyph-name="b" unicode="b" horiz-adv-x="547" 
d="M520 247q0 -118 -71 -190t-174 -72q-104 0 -158 67l-46 -64h-11l8 144v532q0 30 -10 41t-42 15l-46 5v11l188 38l17 -7q-8 -53 -8 -117v-97q0 -41 -6.5 -132t-6.5 -152q0 105 40.5 167.5t112.5 62.5q97 0 155 -71.5t58 -180.5zM275 0q136 0 136 246q0 229 -116 229
q-58 0 -93 -55.5t-35 -150.5v-202q37 -67 108 -67z" />
    <glyph glyph-name="c" unicode="c" horiz-adv-x="496" 
d="M445 113q-67 -127 -192 -127q-93 0 -159.5 67.5t-66.5 186.5t75.5 189t177.5 70q72 0 116.5 -34t44.5 -84q0 -30 -18.5 -50.5t-49.5 -20.5q-27 0 -44 15t-17 40q0 23 11 37t22.5 22.5t11.5 17.5q0 16 -21.5 29t-55.5 13q-68 0 -105.5 -61t-37.5 -183q0 -102 37.5 -160
t110.5 -58q91 0 146 98z" />
    <glyph glyph-name="d" unicode="d" horiz-adv-x="578" 
d="M258 9q53 0 87.5 50.5t34.5 154.5v207q-36 63 -112 63q-131 0 -131 -246q0 -229 121 -229zM394 214q0 -229 -159 -229q-84 0 -146 67.5t-62 185.5q0 125 75.5 193t165.5 68q66 0 112 -26v187q0 31 -12.5 43.5t-47.5 16.5l-47 5v11l197 38l17 -7q-8 -53 -8 -117v-571
q0 -31 9 -42t40 -16l35 -6v-15h-156l-13 10v204z" />
    <glyph glyph-name="e" unicode="e" horiz-adv-x="485" 
d="M340 301l2 13q20 170 -80 170q-111 0 -124 -197l202 13v1zM445 113q-67 -127 -192 -127q-92 0 -159 68.5t-67 185.5q0 119 69.5 189t164.5 70q82 0 133 -46t51 -126q0 -29 -5 -56l-302 2q-1 -11 -1 -33q0 -102 37.5 -160t110.5 -58q91 0 146 98z" />
    <glyph glyph-name="f" unicode="f" horiz-adv-x="353" 
d="M297 15v-15q-24 0 -72 0.5t-72 0.5q-23 0 -66 -0.5t-67 -0.5v15l35 6q30 5 39 16t9 41v366l-96 14v17l96 13v78q0 110 56 161t133 51q68 0 105 -29.5t37 -72.5q0 -31 -18 -50.5t-49 -19.5q-27 0 -44.5 16t-17.5 41q0 18 7 30.5t16 17.5t16 11.5t7 13.5q0 11 -15 19t-43 8
q-49 0 -70.5 -35t-21.5 -111q0 -21 0.5 -68t0.5 -65h128v-27l-128 -6v-369q0 -32 11 -44.5t43 -16.5z" />
    <glyph glyph-name="g" unicode="g" horiz-adv-x="519" 
d="M131 331q0 -69 21.5 -111t64.5 -42q85 0 85 153t-86 153q-85 0 -85 -153zM248 -243q-106 0 -173.5 34.5t-67.5 97.5q0 39 21.5 61t56.5 22q21 0 32 -10t9 -26q-27 0 -42 -15t-15 -41q0 -50 44.5 -79t134.5 -29q89 0 140.5 32.5t51.5 87.5q0 41 -41.5 56t-139.5 19
q-204 7 -204 112q0 91 154 91q-74 0 -126 47t-52 119q0 71 50 117t132 46q77 0 129 -44q49 46 108 46q33 0 52 -17t19 -46q0 -27 -16 -41.5t-40 -14.5q-23 0 -36.5 13t-13.5 34q0 7 2 17t2 14q0 9 -12 9q-23 0 -52 -26q45 -47 45 -116q0 -75 -51.5 -122t-141.5 -47
q-98 0 -98 -40q0 -27 35.5 -37t125.5 -14q111 -4 168 -35t57 -110t-68.5 -122t-178.5 -43z" />
    <glyph glyph-name="h" unicode="h" horiz-adv-x="605" 
d="M20 0v15l35 6q30 5 39 16t9 42v586q0 30 -9.5 40.5t-42.5 14.5l-46 5v11l188 38l17 -7q-8 -53 -8 -117v-96q0 -50 -7 -149t-7 -171q0 121 47 193t129 72q67 0 107.5 -37.5t40.5 -111.5v-271q0 -31 9 -42t39 -16l35 -6v-15q-23 0 -65.5 0.5t-66.5 0.5t-67 -0.5t-67 -0.5
v15l35 6q31 5 40 16t9 42v271q0 63 -19 90t-61 27q-53 0 -92 -63.5t-39 -169.5v-155q0 -30 9.5 -41.5t39.5 -16.5l35 -6v-15q-24 0 -66.5 0.5t-66.5 0.5q-23 0 -66 -0.5t-67 -0.5z" />
    <glyph glyph-name="i" unicode="i" horiz-adv-x="301" 
d="M215 677q0 -32 -20 -50.5t-52 -18.5q-29 0 -50 19.5t-21 49.5q0 31 20.5 50t50.5 19q32 0 52 -18.5t20 -50.5zM23 0v15l35 6q30 5 39 16t9 42v296q0 37 -12.5 49t-51.5 15l-35 3v13l186 43l19 -6q-7 -55 -7 -117v-297q0 -30 9 -41t40 -16l35 -6v-15q-24 0 -66.5 0.5
t-66.5 0.5t-67 -0.5t-66 -0.5z" />
    <glyph glyph-name="j" unicode="j" horiz-adv-x="324" 
d="M242 677q0 -32 -20.5 -50.5t-51.5 -18.5q-30 0 -50.5 19.5t-20.5 49.5q0 32 20 50.5t51 18.5t51.5 -18.5t20.5 -50.5zM232 -47q0 -52 -18 -92t-47 -62t-60 -32.5t-62 -10.5q-62 0 -95.5 26t-33.5 66q0 30 18.5 50t49.5 20q28 0 44.5 -16t16.5 -41q0 -21 -9.5 -34
t-19.5 -20.5t-10 -15.5t11.5 -14t29.5 -6q43 0 65 35.5t22 121.5v445q0 37 -15 50t-55 16l-37 3v13l193 43l19 -6q-7 -55 -7 -117v-422z" />
    <glyph glyph-name="k" unicode="k" horiz-adv-x="578" 
d="M20 0v15l35 6q30 5 39 16t9 42v585q0 31 -10 41.5t-42 14.5l-46 5v11l188 38l17 -7q-8 -53 -8 -117v-572q0 -30 8.5 -41t39.5 -16l32 -6v-15q-24 0 -64.5 0.5t-64.5 0.5q-23 0 -66 -0.5t-67 -0.5zM279 306l175 -209q37 -43 54.5 -57.5t41.5 -19.5l23 -5v-15
q-23 0 -64.5 0.5t-63.5 0.5q-23 0 -66 -0.5t-65 -0.5v15l20 3q32 5 32 20q0 10 -22 38l-141 176l129 127q35 34 35 54q0 23 -46 30l-32 5v16q45 -1 130 -1q87 0 133 1v-15l-35 -6q-87 -15 -169 -93z" />
    <glyph glyph-name="l" unicode="l" horiz-adv-x="301" 
d="M20 0v15l35 6q30 5 39 16t9 42v585q0 31 -10 41.5t-42 14.5l-46 5v11l188 38l17 -7q-8 -53 -8 -117v-571q0 -31 9 -42t40 -16l35 -6v-15q-24 0 -66.5 0.5t-66.5 0.5q-23 0 -66 -0.5t-67 -0.5z" />
    <glyph glyph-name="m" unicode="m" horiz-adv-x="899" 
d="M889 0q-24 0 -66.5 0.5t-65.5 0.5q-24 0 -67 -0.5t-67 -0.5v15l35 6q30 5 39.5 16.5t9.5 41.5v270q0 118 -76 118q-53 0 -90 -64t-37 -169v-155q0 -30 9.5 -41.5t39.5 -16.5l35 -6v-15q-24 0 -66.5 0.5t-66.5 0.5q-23 0 -66 -0.5t-67 -0.5v15l35 6q30 5 39.5 16.5
t9.5 41.5v270q0 118 -74 118q-53 0 -91 -63.5t-38 -169.5v-155q0 -30 9.5 -41.5t39.5 -16.5l35 -6v-15q-24 0 -66.5 0.5t-66.5 0.5t-67 -0.5t-66 -0.5v15l35 6q30 5 39 16t9 42v296q0 37 -12.5 49t-51.5 15l-35 3v13l173 41l18 -6q-7 -128 -7 -256q0 120 45 192.5t124 72.5
q63 0 99.5 -37t36.5 -113q0 -29 -2 -63q10 98 54.5 155.5t114.5 57.5q64 0 104 -38t40 -112v-270q0 -30 9.5 -41.5t39.5 -16.5l35 -6v-15z" />
    <glyph glyph-name="n" unicode="n" horiz-adv-x="606" 
d="M21 0v15l35 6q30 5 39 16.5t9 41.5v296q0 37 -12.5 49t-51.5 15l-35 3v13l173 41l18 -6q-7 -128 -7 -256q0 118 46.5 191.5t129.5 73.5q67 0 107.5 -38t40.5 -112v-270q0 -31 9 -42t39 -16l35 -6v-15q-24 0 -66 0.5t-66 0.5t-67 -0.5t-67 -0.5v15l35 6q31 5 40 16t9 42
v270q0 63 -19 90.5t-61 27.5q-54 0 -92.5 -64.5t-38.5 -168.5v-156q0 -30 9.5 -41t39.5 -16l35 -6v-15q-24 0 -66.5 0.5t-66.5 0.5t-67 -0.5t-66 -0.5z" />
    <glyph glyph-name="o" unicode="o" horiz-adv-x="519" 
d="M492 242q0 -115 -66 -186t-167 -71q-99 0 -165.5 71t-66.5 186t66.5 186t165.5 71q101 0 167 -71t66 -186zM136 242q0 -242 123 -242q124 0 124 242t-124 242q-123 0 -123 -242z" />
    <glyph glyph-name="p" unicode="p" horiz-adv-x="573" 
d="M308 0q62 0 95.5 63.5t33.5 182.5q0 229 -116 229q-63 0 -95.5 -56.5t-32.5 -149.5v-203q36 -66 115 -66zM277 -215v-15q-24 0 -66.5 0.5t-66.5 0.5t-67 -0.5t-67 -0.5v15l36 6q30 5 39 16t9 42v526q0 37 -13 49t-51 15l-35 3v13l172 41l19 -6q-7 -102 -7 -221
q0 102 37 166t120 64q92 0 151 -69.5t59 -183.5q0 -81 -36.5 -142.5t-89.5 -90t-112 -28.5q-66 0 -115 26v-162q0 -31 9 -42t40 -16z" />
    <glyph glyph-name="q" unicode="q" horiz-adv-x="558" 
d="M563 -230q-24 0 -66.5 0.5t-66.5 0.5t-67 -0.5t-67 -0.5v15l36 6q30 5 39 16.5t9 41.5v79q0 52 7 149t7 137q0 -229 -159 -229q-84 0 -146 67.5t-62 185.5q0 121 72.5 191t168.5 70q111 0 165 -67l46 67h11l-11 -150v-500q0 -31 9 -42t40 -16l35 -6v-15zM258 9
q53 0 87.5 50.5t34.5 154.5v205q-39 65 -112 65q-64 0 -97.5 -63.5t-33.5 -182.5q0 -229 121 -229z" />
    <glyph glyph-name="r" unicode="r" horiz-adv-x="436" 
d="M296 15v-15q-24 0 -71 0.5t-71 0.5t-67 -0.5t-66 -0.5v15l35 6q30 5 39 16t9 42v297q0 37 -12.5 48.5t-51.5 14.5l-35 3v13l173 41l18 -6q-8 -117 -8 -297q0 71 12 143q13 76 48.5 121t91.5 45q38 0 59.5 -20.5t21.5 -54.5q0 -32 -19 -50.5t-48 -18.5q-28 0 -43.5 16
t-15.5 42q0 4 1 12t1 10q0 12 -10 12q-20 0 -41 -30.5t-32 -87.5q-13 -68 -13 -139v-111q0 -32 11 -44.5t43 -16.5z" />
    <glyph glyph-name="s" unicode="s" horiz-adv-x="433" 
d="M393 134q0 -69 -50 -109t-125 -40q-91 0 -143 49l-27 -48h-8v204h19q26 -101 65 -145.5t94 -44.5q45 0 72 23t27 65q0 43 -27.5 66.5t-99.5 49.5q-66 23 -103 57.5t-37 96.5q0 60 48 100.5t120 40.5q73 0 119 -44l24 43h8v-183h-19q-23 88 -55 128.5t-77 40.5
q-46 0 -69.5 -23t-23.5 -59q0 -40 27 -62.5t98 -47.5q143 -50 143 -158z" />
    <glyph glyph-name="t" unicode="t" horiz-adv-x="378" 
d="M353 120q-15 -70 -46.5 -101t-90.5 -31q-57 0 -90.5 30.5t-33.5 94.5v331l-97 14v17l68 10q33 4 49 19t23 51l15 77h47l-6 -148h161v-26l-161 -7v-338q0 -52 15.5 -72t46.5 -20q58 0 82 102z" />
    <glyph glyph-name="u" unicode="u" horiz-adv-x="562" 
d="M381 216q0 -108 -40 -169.5t-124 -61.5q-65 0 -104 39.5t-39 117.5v263q0 28 -7.5 41t-33.5 17l-43 6v15h186l-3 -85v-262q0 -69 20 -95t59 -26q48 0 81.5 51.5t33.5 148.5v189q0 29 -7.5 41.5t-33.5 16.5l-43 6v15h187l-4 -89v-316q0 -29 7.5 -41.5t34.5 -16.5l42 -6
v-15h-156l-13 10v206z" />
    <glyph glyph-name="v" unicode="v" horiz-adv-x="541" 
d="M243 -5l-150 394q-15 39 -30 55.5t-41 20.5l-27 4v15q46 -1 136 -1q91 0 137 1v-15l-32 -4q-34 -4 -42 -26.5t7 -63.5l100 -289l103 267q17 44 17 69q0 19 -12.5 28t-39.5 13l-34 5v16q36 -1 105 -1q70 0 106 1v-15l-23 -5q-38 -8 -57 -30.5t-46 -90.5l-138 -348h-39z
" />
    <glyph glyph-name="w" unicode="w" horiz-adv-x="758" 
d="M226 -5l-133 393q-14 40 -30 57t-40 20l-28 4v15q46 -1 136 -1q91 0 136 1v-15l-37 -5q-31 -4 -37 -27.5t7 -61.5l80 -264l110 377h42l116 -377l75 232q14 45 14 72q0 40 -57 48l-31 5v16q36 -1 107 -1t107 1v-15l-29 -6q-32 -7 -51 -32.5t-42 -95.5l-112 -340h-40
l-117 367l-107 -367h-39z" />
    <glyph glyph-name="x" unicode="x" horiz-adv-x="552" 
d="M552 0q-24 0 -71.5 0.5t-70.5 0.5q-24 0 -71.5 -0.5t-71.5 -0.5v15l28 3q36 4 40 25.5t-23 65.5l-65 110l-82 -115q-24 -31 -24 -53q0 -23 42 -31l30 -5v-15q-18 0 -53.5 0.5t-52.5 0.5q-18 0 -53.5 -0.5t-53.5 -0.5v15l25 5q35 7 61.5 26.5t61.5 65.5l91 121l-102 155
q-28 43 -45 57.5t-45 19.5l-25 4v15q46 -1 136 -1q91 0 137 1v-15l-24 -3q-35 -4 -36.5 -27.5t23.5 -63.5l53 -89l67 93q26 37 26 58q0 22 -37 27l-32 5v15q35 -1 104 -1t103 1v-15l-23 -5q-38 -8 -64.5 -28t-62.5 -68l-72 -96l114 -176q27 -42 46.5 -57.5t46.5 -19.5l25 -4
v-15z" />
    <glyph glyph-name="y" unicode="y" horiz-adv-x="531" 
d="M296 31q-33 -89 -61 -145t-53.5 -83t-46 -36t-47.5 -9q-41 0 -66 22t-25 59q0 30 19.5 49.5t50.5 19.5q27 0 43.5 -16t16.5 -40q0 -23 -14.5 -39.5t-14.5 -20.5q0 -9 12 -9q70 0 144 197l6 16l-167 392q-18 40 -31.5 56t-36.5 20l-30 5v15q46 -1 135 -1q85 0 131 1v-15
l-36 -4q-21 -2 -29 -14t-6 -29t12 -44l104 -269l90 244q16 45 16 67q0 19 -11 29t-40 14l-33 5v16q35 -1 104 -1q68 0 104 1v-15l-24 -5q-36 -7 -55 -31t-43 -87z" />
    <glyph glyph-name="z" unicode="z" horiz-adv-x="486" 
d="M35 0v18l291 447h-104q-56 0 -89.5 -36.5t-66.5 -143.5h-17l8 199h382v-19l-288 -447h111q62 0 94 37t73 151h17l-8 -206h-403z" />
    <glyph glyph-name="braceleft" unicode="{" horiz-adv-x="413" 
d="M393 -180h-79q-86 0 -129 36t-43 103q0 27 14 96t14 89q0 78 -26.5 104t-118.5 28v33q92 2 118.5 28t26.5 104q0 20 -14 89t-14 96q0 67 43 103t129 36h79v-18l-76 -5q-46 -4 -62.5 -27t-16.5 -78q0 -25 8 -94.5t8 -95.5q0 -127 -156 -146v-16q156 -21 156 -147
q0 -26 -8 -95.5t-8 -94.5q0 -55 16.5 -78t62.5 -27l76 -5v-18z" />
    <glyph glyph-name="bar" unicode="|" horiz-adv-x="258" 
d="M110 -100v829h38v-829h-38z" />
    <glyph glyph-name="braceright" unicode="}" horiz-adv-x="413" 
d="M99 -180h-79v18l76 5q46 4 62.5 27t16.5 78q0 25 -8 94.5t-8 95.5q0 126 156 147v16q-156 19 -156 146q0 26 8 95.5t8 94.5q0 55 -16.5 78t-62.5 27l-76 5v18h79q86 0 129 -36t43 -103q0 -27 -14 -96t-14 -89q0 -78 26.5 -104t118.5 -28v-33q-92 -2 -118.5 -28
t-26.5 -104q0 -20 14 -89t14 -96q0 -67 -43 -103t-129 -36z" />
    <glyph glyph-name="asciitilde" unicode="~" horiz-adv-x="535" 
d="M90 179h-20q-2 20 -2 29q0 42 25 71t69 29q45 0 119.5 -40t100.5 -40q33 0 48 16t15 52h22q0 -51 -23 -82.5t-70 -31.5q-49 0 -122 40t-100 40q-62 0 -62 -83z" />
    <glyph glyph-name="nbspace" unicode="&#xa0;" horiz-adv-x="500" 
 />
    <glyph glyph-name="exclamdown" unicode="&#xa1;" horiz-adv-x="318" 
d="M159 496q29 0 49 -19t20 -50q0 -32 -19.5 -50.5t-49.5 -18.5q-29 0 -49 18.5t-20 50.5q0 31 20 50t49 19zM153 291h12q4 -140 23 -237q9 -41 27 -92.5t18 -82.5q0 -40 -21 -62.5t-53 -22.5t-53 22.5t-21 62.5q0 31 18 82.5t27 92.5q19 87 23 237z" />
    <glyph glyph-name="cent" unicode="&#xa2;" horiz-adv-x="529" 
d="M209 82l93 402q-76 -5 -121 -70.5t-45 -154.5q0 -117 73 -177zM474 97q-67 -111 -192 -111q-34 0 -70 11l-34 -148h-23l36 155q-63 27 -102 86t-39 142q0 120 78 193.5t178 73.5l26 114h22l-26 -114q71 -4 113.5 -37t42.5 -81q0 -30 -18.5 -50.5t-49.5 -20.5
q-27 0 -44 15t-17 40q0 23 11.5 36.5t22.5 22t11 17.5q0 16 -23.5 29.5t-52.5 12.5l-96 -416q42 -24 86 -24q52 0 86.5 12.5t64.5 48.5z" />
    <glyph glyph-name="sterling" unicode="&#xa3;" horiz-adv-x="599" 
d="M111 -1q90 0 119 91q-63 52 -118 52q-36 0 -57.5 -20.5t-21.5 -53.5q0 -32 22.5 -50.5t55.5 -18.5zM504 200q35 -78 9 -145.5t-98 -67.5q-34 0 -67.5 15.5t-49.5 28t-50 43.5q-47 -90 -136 -90q-43 0 -71 24t-28 64q0 45 34 75.5t98 30.5q46 0 98 -22q2 16 2 45
q0 40 -11 106l-140 11v13l134 10q-12 76 -12 120q0 97 56 142.5t141 45.5q59 0 96 -28t37 -74q0 -30 -17.5 -52t-47.5 -22q-26 0 -43 16t-17 40q0 28 22 48.5t22 28.5q0 28 -47 28q-42 0 -63 -44t-29 -142q-9 -96 -11 -110h138v-21l-141 -5q-9 -67 -20 -113q-10 -38 -15 -56
q10 -5 32.5 -16t35 -16.5t30.5 -13t33.5 -10.5t30.5 -3q39 0 54 32t-2 84h13z" />
    <glyph glyph-name="currency" unicode="&#xa4;" horiz-adv-x="531" 
d="M467 25l-76 76q-53 -50 -126 -50q-74 0 -126 50l-75 -76l-19 19l76 76q-41 52 -41 122q0 68 41 122l-76 76l19 19l75 -76q52 50 126 50q75 0 126 -51l76 77l19 -19l-78 -76q42 -53 42 -122q0 -70 -41 -122l77 -76zM129 242q0 -61 38.5 -103t97.5 -42t97.5 42t38.5 103
t-38.5 103t-97.5 42t-97.5 -42t-38.5 -103z" />
    <glyph glyph-name="yen" unicode="&#xa5;" horiz-adv-x="711" 
d="M527 16v-16q-30 0 -86 0.5t-85 0.5q-30 0 -86 -0.5t-86 -0.5v16l52 7q40 6 52 20.5t12 48.5v71h-180v25h180v53l-11 19h-169v25h155l-145 249q-23 41 -42 56.5t-47 19.5l-32 5v16q57 -1 169 -1q115 0 173 1v-16l-57 -7q-37 -4 -44.5 -26t10.5 -51l138 -246h4l106 179
q40 68 40 98q0 36 -60 46l-40 7v16q43 -1 129 -1q82 0 125 1v-15l-27 -7q-38 -9 -68.5 -39.5t-77.5 -112.5l-104 -172h140v-25h-154v-72h154v-25h-154v-71q0 -34 12 -48.5t52 -20.5z" />
    <glyph glyph-name="brokenbar" unicode="&#xa6;" horiz-adv-x="258" 
d="M110 385v344h38v-344h-38zM110 -100v345h38v-345h-38z" />
    <glyph glyph-name="section" unicode="&#xa7;" horiz-adv-x="535" 
d="M386 112l-8 8q43 34 43 83q0 37 -33.5 69t-81 56.5t-95 51.5t-81 66.5t-33.5 88.5q0 74 55.5 116.5t138.5 42.5q73 0 124.5 -32.5t51.5 -84.5q0 -31 -17.5 -52t-48.5 -21q-27 0 -45 15.5t-18 39.5t12.5 38.5t25 23t12.5 17.5q0 16 -30.5 28.5t-65.5 12.5q-63 0 -95 -27
t-32 -71q0 -43 31.5 -76.5t76.5 -56.5t89.5 -47.5t76 -63t31.5 -88.5q0 -74 -84 -137zM439 -36q0 -74 -56 -116.5t-138 -42.5q-73 0 -125 32.5t-52 84.5q0 31 18 52t48 21q27 0 45 -15.5t18 -39.5t-12.5 -38.5t-24.5 -23t-12 -17.5q0 -16 30 -28.5t66 -12.5q62 0 94 27
t32 71q0 43 -31.5 76.5t-76 56.5t-89.5 47.5t-76.5 63t-31.5 88.5q0 72 84 137l8 -8q-43 -34 -43 -83q0 -37 33.5 -69t81 -56.5t95.5 -51.5t81.5 -66.5t33.5 -88.5z" />
    <glyph glyph-name="dieresis" unicode="&#xa8;" horiz-adv-x="525" 
d="M424 672q0 -25 -16.5 -42t-41.5 -17t-41.5 17t-16.5 42q0 24 17 40.5t41 16.5t41 -16.5t17 -40.5zM222 672q0 -25 -17 -42t-41 -17q-25 0 -42 17t-17 42q0 23 17 40t42 17q24 0 41 -17t17 -40z" />
    <glyph glyph-name="copyright" unicode="&#xa9;" horiz-adv-x="834" 
d="M764 259q0 -145 -101.5 -245t-245.5 -100t-245.5 100t-101.5 245t101.5 245t245.5 100t245.5 -100t101.5 -245zM98 259q0 -136 92.5 -228t226.5 -92t226.5 92t92.5 228t-92.5 228t-226.5 92t-226.5 -92t-92.5 -228zM554 62l-17 45q-44 -47 -115 -47q-85 0 -140.5 52
t-55.5 147t55.5 149.5t139.5 54.5q75 0 117 -45l16 42h14v-154h-19l-15 39q-17 46 -41 70.5t-68 24.5q-50 0 -78.5 -51t-28.5 -129t28.5 -128t78.5 -50q42 0 65.5 23.5t42.5 68.5l16 40h19v-152h-14z" />
    <glyph glyph-name="ordfeminine" unicode="&#xaa;" horiz-adv-x="371" 
d="M241 530q-65 -8 -95 -32t-30 -77q0 -31 15 -48t42 -17q30 0 49 27t19 65v82zM394 426q-5 -47 -22 -69t-51 -22q-56 0 -67 55q-17 -27 -47 -43t-66 -16q-47 0 -76.5 23t-29.5 60q0 109 206 132v58q0 74 -67 74q-51 0 -75 -37l7 1q15 0 24.5 -11.5t9.5 -27.5
q0 -19 -12.5 -31t-33.5 -12q-18 0 -30 12t-12 34q0 36 35 62.5t95 26.5q136 0 136 -112v-172q0 -25 5 -35t19 -10t21.5 14t12.5 47zM59 229v26h293v-26h-293z" />
    <glyph glyph-name="guillemotleft" unicode="&#xab;" horiz-adv-x="508" 
d="M423 47l-195 183v24l195 183h16l-111 -195l111 -195h-16zM245 47l-195 183v24l195 183h16l-111 -195l111 -195h-16z" />
    <glyph glyph-name="logicalnot" unicode="&#xac;" 
d="M462 302h-406v32h438v-195h-32v163z" />
    <glyph glyph-name="registered" unicode="&#xae;" horiz-adv-x="834" 
d="M764 259q0 -145 -101.5 -245t-245.5 -100t-245.5 100t-101.5 245t101.5 245t245.5 100t245.5 -100t101.5 -245zM98 259q0 -136 92.5 -228t226.5 -92t226.5 92t92.5 228t-92.5 228t-226.5 92t-226.5 -92t-92.5 -228zM412 261q38 0 57.5 23t19.5 63q0 41 -19 64t-53 23
q-18 0 -40 -2v-170q15 -1 35 -1zM435 81v-12h-196v12l44 11q10 1 10 13v311q0 11 -10 14l-44 10v13h25q32 0 84 1t68 1q72 0 112.5 -27t40.5 -77q0 -70 -82 -94q16 -18 25 -37l50 -105q10 -19 25 -26l22 -8v-12h-114l-71 172h-15h-32v-136q0 -12 9 -13z" />
    <glyph glyph-name="macron" unicode="&#xaf;" horiz-adv-x="525" 
d="M123 651v37q72 -4 139 -4q69 0 139 4v-37q-70 4 -138 4t-140 -4z" />
    <glyph glyph-name="degree" unicode="&#xb0;" horiz-adv-x="334" 
d="M167 469q-50 0 -83.5 32.5t-33.5 82.5q0 51 33.5 83.5t83.5 31.5q50 0 83 -32t34 -83q0 -50 -33.5 -82.5t-83.5 -32.5zM167 499q35 0 59 24t24 61t-23.5 61t-59.5 25q-35 0 -58.5 -24.5t-23.5 -61.5t23.5 -61t58.5 -24z" />
    <glyph glyph-name="plusminus" unicode="&#xb1;" 
d="M494 0h-438v32h203v195h-203v32h203v201h32v-201h203v-32h-203v-195h203v-32z" />
    <glyph glyph-name="two.sups" unicode="&#xb2;" horiz-adv-x="352" 
d="M295 500h-255l-2 33q97 73 133 120q48 59 48 120q0 43 -15 60.5t-49 17.5q-27 0 -51 -15t-32 -37q8 5 18 5q16 0 26 -10.5t10 -26.5q0 -17 -11.5 -28.5t-29.5 -11.5q-19 0 -31 12t-12 33q0 39 34.5 66.5t92.5 27.5q57 0 96 -25t39 -74q0 -41 -29 -72t-87 -70
q-46 -29 -89 -60h144q29 0 36 21l13 32h15z" />
    <glyph glyph-name="three.sups" unicode="&#xb3;" horiz-adv-x="358" 
d="M147 491q-53 0 -82 19.5t-29 50.5q0 20 13 33t31 13q19 0 30.5 -12t11.5 -28q0 -17 -11.5 -27.5t-25.5 -9.5q20 -24 58 -24q42 0 67.5 27.5t25.5 76.5q0 42 -13 59.5t-39 17.5q-18 0 -39 -11.5t-32 -11.5q-23 0 -23 25q27 12 83 14q51 31 51 89q0 59 -57 59
q-46 0 -68 -31l2 1q16 0 27 -10t11 -27t-12 -29t-30 -12q-17 0 -29.5 13t-12.5 32q0 34 33.5 56t86.5 22q58 0 94 -21.5t36 -57.5q0 -15 -7.5 -27.5t-16 -20.5t-28 -16t-30.5 -11.5t-37 -11.5v-2q8 1 23 1q50 0 82 -23t32 -67q0 -57 -55 -87.5t-121 -30.5z" />
    <glyph glyph-name="acute" unicode="&#xb4;" horiz-adv-x="525" 
d="M223 578h-6q61 103 83 172h95v-3q-50 -92 -172 -169z" />
    <glyph glyph-name="mu" unicode="&#xb5;" horiz-adv-x="616" 
d="M173 -191v-39h-99v635q0 28 -7.5 41t-33.5 17l-43 6v15h186l-3 -85v-262q0 -69 20 -95t59 -26q48 0 81.5 51.5t33.5 148.5v189q0 29 -7.5 41.5t-33.5 16.5l-43 6v15h187l-4 -89v-316q0 -29 7.5 -41.5t34.5 -16.5l42 -6v-15h-156l-13 10v206q0 -106 -39 -168t-114 -62
q-50 0 -77 41q1 -10 6.5 -46t8 -54.5t5 -52t2.5 -65.5z" />
    <glyph glyph-name="paragraph" unicode="&#xb6;" horiz-adv-x="647" 
d="M364 -180h-30v460q-34 -10 -77 -10q-101 0 -159 51.5t-58 144.5q0 95 58.5 154.5t172.5 59.5q44 0 93 -1v-859zM450 -180v859h167v-16l-65 -9q-40 -6 -55.5 -22t-15.5 -50v-762h-31z" />
    <glyph glyph-name="periodcentered" unicode="&#xb7;" horiz-adv-x="304" 
d="M224 242q0 -32 -21 -51.5t-51 -19.5t-51 20t-21 51q0 33 21 52.5t51 19.5q31 0 51.5 -19.5t20.5 -52.5z" />
    <glyph glyph-name="cedilla" unicode="&#xb8;" horiz-adv-x="499" 
d="M270 -244q-52 0 -96 27l8 12q30 -15 62 -15q30 0 48 20t18 56q0 58 -45 58q-17 0 -35 -8l-10 7l26 83h15l-15 -73q25 10 52 10q38 0 64 -20.5t26 -60.5q0 -45 -34.5 -70.5t-83.5 -25.5z" />
    <glyph glyph-name="one.sups" unicode="&#xb9;" horiz-adv-x="319" 
d="M56 500v16l62 10q10 1 10 10v256q0 11 -5 16t-18 6l-50 6v13l53 6q61 7 79 21h25q-3 -42 -3 -84v-240q0 -9 10 -10l59 -10v-16h-222z" />
    <glyph glyph-name="ordmasculine" unicode="&#xba;" horiz-adv-x="385" 
d="M363 513q0 -85 -44.5 -133.5t-116.5 -48.5t-117 48.5t-45 133.5t45 133.5t117 48.5t116.5 -48.5t44.5 -133.5zM127 514q0 -166 75 -166t75 166q0 164 -75 164t-75 -164zM61 229v26h285v-26h-285z" />
    <glyph glyph-name="guillemotright" unicode="&#xbb;" horiz-adv-x="508" 
d="M458 230l-195 -183h-16l111 195l-111 195h16l195 -183v-24zM281 230l-195 -183h-16l111 195l-111 195h16l195 -183v-24z" />
    <glyph glyph-name="onequarter" unicode="&#xbc;" horiz-adv-x="856" 
d="M195 -15l-29 18l250 343l236 348l29 -18l-250 -342zM86 323v16l62 10q10 1 10 10v256q0 11 -5 16t-18 6l-50 6v13l53 6q61 7 79 21h25q-3 -42 -3 -84v-240q0 -9 10 -10l59 -10v-16h-222zM759 0h-255l-2 33q97 73 133 120q48 59 48 120q0 43 -15 60.5t-49 17.5
q-27 0 -51 -15t-32 -37q8 5 18 5q16 0 26 -10.5t10 -26.5q0 -17 -11.5 -28.5t-29.5 -11.5q-19 0 -31 12t-12 33q0 39 34.5 66.5t92.5 27.5q57 0 96 -25t39 -74q0 -41 -29 -72t-87 -70q-46 -29 -89 -60h144q29 0 36 21l13 32h15z" />
    <glyph glyph-name="onehalf" unicode="&#xbd;" horiz-adv-x="862" 
d="M196 -15l-29 18l250 343l236 348l29 -18l-250 -342zM86 323v16l62 10q10 1 10 10v256q0 11 -5 16t-18 6l-50 6v13l53 6q61 7 79 21h25q-3 -42 -3 -84v-240q0 -9 10 -10l59 -10v-16h-222zM621 127v121l2 63l-128 -183zM759 16v-16h-200v15l52 10q10 3 10 11v71h-147l-5 18
l163 231h68v-230h19q20 0 30 25l14 37h14l-11 -81h-66v-71q0 -10 10 -11z" />
    <glyph glyph-name="threequarters" unicode="&#xbe;" horiz-adv-x="905" 
d="M238 -15l-29 18l250 343l236 348l29 -18l-250 -342zM196 314q-53 0 -82 19.5t-29 50.5q0 20 13 33t31 13q19 0 30.5 -12t11.5 -28q0 -17 -11.5 -27.5t-25.5 -9.5q20 -24 58 -24q42 0 67.5 27.5t25.5 76.5q0 42 -13 59.5t-39 17.5q-18 0 -39 -11.5t-32 -11.5q-23 0 -23 25
q27 12 83 14q51 31 51 89q0 59 -57 59q-46 0 -68 -31l2 1q16 0 27 -10t11 -27t-12 -29t-30 -12q-17 0 -29.5 13t-12.5 32q0 34 33.5 56t86.5 22q58 0 94 -21.5t36 -57.5q0 -15 -7.5 -27.5t-16 -20.5t-28 -16t-30.5 -11.5t-37 -11.5v-2q8 1 23 1q50 0 82 -23t32 -67
q0 -57 -55 -87.5t-121 -30.5zM664 127v121l2 63l-128 -183zM802 16v-16h-200v15l52 10q10 3 10 11v71h-147l-5 18l163 231h68v-230h19q20 0 30 25l14 37h14l-11 -81h-66v-71q0 -10 10 -11z" />
    <glyph glyph-name="questiondown" unicode="&#xbf;" 
d="M258 429q0 31 20 50t49 19q30 0 49.5 -19t19.5 -50q0 -32 -19.5 -50.5t-49.5 -18.5q-29 0 -49 19t-20 50zM505 -38q0 -68 -63 -117.5t-166 -49.5q-62 0 -115 18.5t-89.5 62t-36.5 105.5q0 50 23 88.5t59.5 59t75 31t76.5 10.5q12 0 38 -2l17 125h13l20 -150l-13 -5
q-32 16 -69 16q-55 0 -90.5 -42.5t-35.5 -130.5q0 -83 34 -127t93 -44q70 0 103.5 41.5t33.5 95.5q0 34 -14 53t-38 19q-22 0 -37 -18t-27 -63l-13 2q23 124 119 124q45 0 73.5 -27.5t28.5 -74.5z" />
    <glyph glyph-name="Agrave" unicode="&#xc0;" horiz-adv-x="715" 
d="M418 747h-7q-54 22 -110 57t-82 65v3h109q33 -60 90 -125zM721 0q-29 0 -81 0.5t-80 0.5t-80 -0.5t-81 -0.5v16l57 7q38 5 44.5 25.5t-9.5 53.5l-45 118h-263l-21 -54q-30 -74 -25 -103t55 -38l50 -9v-16q-22 0 -60.5 0.5t-59.5 0.5q-22 0 -63.5 -0.5t-63.5 -0.5v15l33 9
q39 10 61 39t53 110l153 396l40 115h52l217 -560q24 -61 38.5 -80t44.5 -23l34 -5v-16zM315 567l-124 -326h247z" />
    <glyph glyph-name="Aacute" unicode="&#xc1;" horiz-adv-x="715" 
d="M305 747h-7q62 70 90 125h109v-3q-26 -30 -82 -65t-110 -57zM721 0q-29 0 -81 0.5t-80 0.5t-80 -0.5t-81 -0.5v16l57 7q38 5 44.5 25.5t-9.5 53.5l-45 118h-263l-21 -54q-30 -74 -25 -103t55 -38l50 -9v-16q-22 0 -60.5 0.5t-59.5 0.5q-22 0 -63.5 -0.5t-63.5 -0.5v15
l33 9q39 10 61 39t53 110l153 396l40 115h52l217 -560q24 -61 38.5 -80t44.5 -23l34 -5v-16zM315 567l-124 -326h247z" />
    <glyph glyph-name="Acircumflex" unicode="&#xc2;" horiz-adv-x="715" 
d="M345 822l-126 -75h-7l111 125h75l107 -125h-9zM721 0q-29 0 -81 0.5t-80 0.5t-80 -0.5t-81 -0.5v16l57 7q38 5 44.5 25.5t-9.5 53.5l-45 118h-263l-21 -54q-30 -74 -25 -103t55 -38l50 -9v-16q-22 0 -60.5 0.5t-59.5 0.5q-22 0 -63.5 -0.5t-63.5 -0.5v15l33 9
q39 10 61 39t53 110l153 396l40 115h52l217 -560q24 -61 38.5 -80t44.5 -23l34 -5v-16zM315 567l-124 -326h247z" />
    <glyph glyph-name="Atilde" unicode="&#xc3;" horiz-adv-x="715" 
d="M258 751l-4 -2q-17 25 -17 55q0 29 19 47.5t50 18.5q30 0 77.5 -30.5t64.5 -30.5q19 0 29 10.5t14 38.5h4q0 -110 -74 -110q-29 0 -75 30.5t-63 30.5q-29 0 -29 -29q0 -16 4 -29zM721 0q-29 0 -81 0.5t-80 0.5t-80 -0.5t-81 -0.5v16l57 7q38 5 44.5 25.5t-9.5 53.5
l-45 118h-263l-21 -54q-30 -74 -25 -103t55 -38l50 -9v-16q-22 0 -60.5 0.5t-59.5 0.5q-22 0 -63.5 -0.5t-63.5 -0.5v15l33 9q39 10 61 39t53 110l153 396l40 115h52l217 -560q24 -61 38.5 -80t44.5 -23l34 -5v-16zM315 567l-124 -326h247z" />
    <glyph glyph-name="Adieresis" unicode="&#xc4;" horiz-adv-x="715" 
d="M521 805q0 -24 -17 -41t-42 -17q-24 0 -41 17t-17 41t17 41t41 17q25 0 42 -17t17 -41zM318 805q0 -24 -16.5 -41t-41.5 -17t-41.5 17t-16.5 41t16.5 41t41.5 17t41.5 -17t16.5 -41zM721 0q-29 0 -81 0.5t-80 0.5t-80 -0.5t-81 -0.5v16l57 7q38 5 44.5 25.5t-9.5 53.5
l-45 118h-263l-21 -54q-30 -74 -25 -103t55 -38l50 -9v-16q-22 0 -60.5 0.5t-59.5 0.5q-22 0 -63.5 -0.5t-63.5 -0.5v15l33 9q39 10 61 39t53 110l153 396l40 115h52l217 -560q24 -61 38.5 -80t44.5 -23l34 -5v-16zM315 567l-124 -326h247z" />
    <glyph glyph-name="Aring" unicode="&#xc5;" horiz-adv-x="715" 
d="M460 822q0 -40 -28 -67t-72 -28q-43 0 -71 27.5t-28 67.5q0 39 28 66.5t71 27.5t71.5 -27.5t28.5 -66.5zM291 822q0 -34 18 -57.5t51 -23.5q34 0 52 23.5t18 57.5q0 33 -18 56.5t-52 23.5q-33 0 -51 -23.5t-18 -56.5zM721 0q-29 0 -81 0.5t-80 0.5t-80 -0.5t-81 -0.5v16
l57 7q38 5 44.5 25.5t-9.5 53.5l-45 118h-263l-21 -54q-30 -74 -25 -103t55 -38l50 -9v-16q-22 0 -60.5 0.5t-59.5 0.5q-22 0 -63.5 -0.5t-63.5 -0.5v15l33 9q39 10 61 39t53 110l153 396l40 115h52l217 -560q24 -61 38.5 -80t44.5 -23l34 -5v-16zM315 567l-124 -326h247z
" />
    <glyph glyph-name="AE" unicode="&#xc6;" horiz-adv-x="970" 
d="M462 279v378l-209 -378h209zM573 359h72q46 0 68.5 31.5t50.5 117.5h17q-1 -53 -1 -159t1 -159h-17q-29 91 -51 121t-68 30h-72v-264q0 -31 14.5 -45t48.5 -14h63q85 0 122.5 41t88.5 178h20l-11 -237h-581v16l65 9q35 5 47 19.5t12 43.5v170h-221l-82 -148
q-25 -43 -18 -62.5t55 -25.5l46 -6v-16q-22 0 -65.5 0.5t-65.5 0.5q-21 0 -65 -0.5t-66 -0.5v15l34 6q79 14 125 98l231 413q32 59 32 82q0 18 -11.5 27t-37.5 13l-65 9v16h601l11 -217h-20q-47 121 -81.5 160t-104.5 39h-121v-302z" />
    <glyph glyph-name="Ccedilla" unicode="&#xc7;" horiz-adv-x="699" 
d="M335 -244q-52 0 -96 27l8 12q30 -15 62 -15q30 0 48 20t18 56q0 58 -45 58q-17 0 -35 -8l-10 7l24 78q-115 21 -192 111.5t-77 235.5q0 84 28.5 153t75.5 112.5t106 67t123 23.5q127 0 199 -77l40 72h10v-277h-19q-49 153 -101 210t-127 57q-101 0 -155 -85.5t-54 -254.5
q0 -162 54 -250.5t155 -88.5q77 0 130 59t98 195h19v-264h-10l-39 71q-74 -76 -201 -76q-24 0 -48 3l-13 -65q25 10 52 10q38 0 64 -20.5t26 -60.5q0 -45 -34.5 -70.5t-83.5 -25.5z" />
    <glyph glyph-name="Egrave" unicode="&#xc8;" horiz-adv-x="642" 
d="M387 747h-7q-54 22 -110 57t-82 65v3h109q33 -60 90 -125zM602 237l-11 -237h-571v16l52 7q40 6 51 19.5t11 47.5v499q0 34 -11 47.5t-51 19.5l-52 7v16h541l11 -217h-20q-47 121 -81.5 160t-104.5 39h-121v-302h73q45 0 68 32t50 117h17q-1 -53 -1 -159t1 -159h-17
q-29 91 -50.5 121t-67.5 30h-73v-264q0 -31 14.5 -45t48.5 -14h64q84 0 121.5 41t88.5 178h20z" />
    <glyph glyph-name="Eacute" unicode="&#xc9;" horiz-adv-x="642" 
d="M307 747h-7q62 70 90 125h109v-3q-26 -30 -82 -65t-110 -57zM245 359h73q45 0 68 32t50 117h17q-1 -53 -1 -159t1 -159h-17q-29 91 -50.5 121t-67.5 30h-73v-264q0 -31 14.5 -45t48.5 -14h64q84 0 121.5 41t88.5 178h20l-11 -237h-571v16l52 7q40 6 51 19.5t11 47.5v499
q0 34 -11 47.5t-51 19.5l-52 7v16h541l11 -217h-20q-47 121 -81.5 160t-104.5 39h-121v-302z" />
    <glyph glyph-name="Ecircumflex" unicode="&#xca;" horiz-adv-x="642" 
d="M313 822l-126 -75h-7l111 125h75l107 -125h-9zM602 237l-11 -237h-571v16l52 7q40 6 51 19.5t11 47.5v499q0 34 -11 47.5t-51 19.5l-52 7v16h541l11 -217h-20q-47 121 -81.5 160t-104.5 39h-121v-302h73q45 0 68 32t50 117h17q-1 -53 -1 -159t1 -159h-17
q-29 91 -50.5 121t-67.5 30h-73v-264q0 -31 14.5 -45t48.5 -14h64q84 0 121.5 41t88.5 178h20z" />
    <glyph glyph-name="Edieresis" unicode="&#xcb;" horiz-adv-x="642" 
d="M295 805q0 -24 -16.5 -41t-41.5 -17t-41.5 17t-16.5 41t16.5 41t41.5 17t41.5 -17t16.5 -41zM498 805q0 -24 -17 -41t-42 -17q-24 0 -41 17t-17 41t17 41t41 17q25 0 42 -17t17 -41zM245 359h73q45 0 68 32t50 117h17q-1 -53 -1 -159t1 -159h-17q-29 91 -50.5 121
t-67.5 30h-73v-264q0 -31 14.5 -45t48.5 -14h64q84 0 121.5 41t88.5 178h20l-11 -237h-571v16l52 7q40 6 51 19.5t11 47.5v499q0 34 -11 47.5t-51 19.5l-52 7v16h541l11 -217h-20q-47 121 -81.5 160t-104.5 39h-121v-302z" />
    <glyph glyph-name="Igrave" unicode="&#xcc;" horiz-adv-x="379" 
d="M254 747h-7q-54 22 -110 57t-82 65v3h109q33 -60 90 -125zM359 16v-16q-30 0 -85 0.5t-85 0.5q-29 0 -84 -0.5t-85 -0.5v16l52 7q40 6 51 19.5t11 47.5v499q0 34 -11 47.5t-51 19.5l-52 7v16q30 0 85 -0.5t84 -0.5q30 0 85 0.5t85 0.5v-16l-52 -7q-40 -6 -51 -19.5
t-11 -47.5v-499q0 -34 11 -47.5t51 -19.5z" />
    <glyph glyph-name="Iacute" unicode="&#xcd;" horiz-adv-x="379" 
d="M125 747h-7q62 70 90 125h109v-3q-26 -30 -82 -65t-110 -57zM359 16v-16q-30 0 -85 0.5t-85 0.5q-29 0 -84 -0.5t-85 -0.5v16l52 7q40 6 51 19.5t11 47.5v499q0 34 -11 47.5t-51 19.5l-52 7v16q30 0 85 -0.5t84 -0.5q30 0 85 0.5t85 0.5v-16l-52 -7q-40 -6 -51 -19.5
t-11 -47.5v-499q0 -34 11 -47.5t51 -19.5z" />
    <glyph glyph-name="Icircumflex" unicode="&#xce;" horiz-adv-x="379" 
d="M328 747l-151 75l-126 -75h-7l111 125h75l107 -125h-9zM359 16v-16q-30 0 -85 0.5t-85 0.5q-29 0 -84 -0.5t-85 -0.5v16l52 7q40 6 51 19.5t11 47.5v499q0 34 -11 47.5t-51 19.5l-52 7v16q30 0 85 -0.5t84 -0.5q30 0 85 0.5t85 0.5v-16l-52 -7q-40 -6 -51 -19.5
t-11 -47.5v-499q0 -34 11 -47.5t51 -19.5z" />
    <glyph glyph-name="Idieresis" unicode="&#xcf;" horiz-adv-x="379" 
d="M351 805q0 -24 -17 -41t-42 -17q-24 0 -41 17t-17 41t17 41t41 17q25 0 42 -17t17 -41zM148 805q0 -24 -16.5 -41t-41.5 -17t-41.5 17t-16.5 41t16.5 41t41.5 17t41.5 -17t16.5 -41zM359 16v-16q-30 0 -85 0.5t-85 0.5q-29 0 -84 -0.5t-85 -0.5v16l52 7q40 6 51 19.5
t11 47.5v499q0 34 -11 47.5t-51 19.5l-52 7v16q30 0 85 -0.5t84 -0.5q30 0 85 0.5t85 0.5v-16l-52 -7q-40 -6 -51 -19.5t-11 -47.5v-499q0 -34 11 -47.5t51 -19.5z" />
    <glyph glyph-name="Eth" unicode="&#xd0;" horiz-adv-x="736" 
d="M134 352v237q0 34 -11 47.5t-51 19.5l-52 7v16h312q73 0 137 -19.5t115.5 -58.5t81.5 -106.5t30 -155.5t-29.5 -155t-81.5 -106.5t-116 -58.5t-138 -19h-311v16l52 7q40 6 51 19.5t11 47.5v239h-95v23h95zM308 18h23q118 0 178.5 76t60.5 245t-60.5 245.5t-177.5 76.5
h-87v-310h167v-21h-167v-253q0 -31 14.5 -45t48.5 -14z" />
    <glyph glyph-name="Ntilde" unicode="&#xd1;" horiz-adv-x="757" 
d="M294 751l-4 -2q-17 25 -17 55q0 29 19 47.5t50 18.5q30 0 77.5 -30.5t64.5 -30.5q19 0 29 10.5t14 38.5h4q0 -110 -74 -110q-29 0 -75 30.5t-63 30.5q-29 0 -29 -29q0 -16 4 -29zM626 -2h-63l-405 599v-453q0 -64 15.5 -89t56.5 -32l41 -7v-16q-23 0 -63 0.5t-62 0.5
t-63 -0.5t-63 -0.5v16l41 7q42 7 57.5 32t15.5 89v445q0 34 -11 47.5t-51 19.5l-52 7v16h218l364 -537v393q0 64 -15.5 89t-57.5 32l-41 7v16q22 0 63 -0.5t63 -0.5t62 0.5t63 0.5v-16l-41 -7q-41 -7 -56.5 -32t-15.5 -89v-537z" />
    <glyph glyph-name="Ograve" unicode="&#xd2;" horiz-adv-x="756" 
d="M454 747h-7q-54 22 -110 57t-82 65v3h109q33 -60 90 -125zM379 -15q-143 0 -241 98.5t-98 255.5q0 158 97.5 256.5t241.5 98.5q143 0 240 -98.5t97 -256.5q0 -157 -97 -255.5t-240 -98.5zM379 0q108 0 160.5 94.5t52.5 244.5q0 98 -20.5 172t-69.5 121t-123 47
q-110 0 -162.5 -94t-52.5 -246q0 -151 52.5 -245t162.5 -94z" />
    <glyph glyph-name="Oacute" unicode="&#xd3;" horiz-adv-x="756" 
d="M318 747h-7q62 70 90 125h109v-3q-26 -30 -82 -65t-110 -57zM379 -15q-143 0 -241 98.5t-98 255.5q0 158 97.5 256.5t241.5 98.5q143 0 240 -98.5t97 -256.5q0 -157 -97 -255.5t-240 -98.5zM379 0q108 0 160.5 94.5t52.5 244.5q0 98 -20.5 172t-69.5 121t-123 47
q-110 0 -162.5 -94t-52.5 -246q0 -151 52.5 -245t162.5 -94z" />
    <glyph glyph-name="Ocircumflex" unicode="&#xd4;" horiz-adv-x="756" 
d="M365 822l-126 -75h-7l111 125h75l107 -125h-9zM379 -15q-143 0 -241 98.5t-98 255.5q0 158 97.5 256.5t241.5 98.5q143 0 240 -98.5t97 -256.5q0 -157 -97 -255.5t-240 -98.5zM379 0q108 0 160.5 94.5t52.5 244.5q0 98 -20.5 172t-69.5 121t-123 47q-110 0 -162.5 -94
t-52.5 -246q0 -151 52.5 -245t162.5 -94z" />
    <glyph glyph-name="Otilde" unicode="&#xd5;" horiz-adv-x="756" 
d="M283 751l-4 -2q-17 25 -17 55q0 29 19 47.5t50 18.5q30 0 77.5 -30.5t64.5 -30.5q19 0 29 10.5t14 38.5h4q0 -110 -74 -110q-29 0 -75 30.5t-63 30.5q-29 0 -29 -29q0 -16 4 -29zM716 339q0 -157 -97 -255.5t-240 -98.5t-241 98.5t-98 255.5q0 158 97.5 256.5t241.5 98.5
q143 0 240 -98.5t97 -256.5zM164 339q0 -151 52.5 -245t162.5 -94q108 0 160.5 94.5t52.5 244.5q0 98 -20.5 172t-69.5 121t-123 47q-110 0 -162.5 -94t-52.5 -246z" />
    <glyph glyph-name="Odieresis" unicode="&#xd6;" horiz-adv-x="756" 
d="M540 805q0 -24 -17 -41t-42 -17q-24 0 -41 17t-17 41t17 41t41 17q25 0 42 -17t17 -41zM337 805q0 -24 -16.5 -41t-41.5 -17t-41.5 17t-16.5 41t16.5 41t41.5 17t41.5 -17t16.5 -41zM716 339q0 -157 -97 -255.5t-240 -98.5t-241 98.5t-98 255.5q0 158 97.5 256.5
t241.5 98.5q143 0 240 -98.5t97 -256.5zM164 339q0 -151 52.5 -245t162.5 -94q108 0 160.5 94.5t52.5 244.5q0 98 -20.5 172t-69.5 121t-123 47q-110 0 -162.5 -94t-52.5 -246z" />
    <glyph glyph-name="multiply" unicode="&#xd7;" 
d="M418 77l-143 143l-143 -143l-22 22l143 143l-143 143l22 22l143 -143l143 143l22 -22l-143 -143l143 -143z" />
    <glyph glyph-name="Oslash" unicode="&#xd8;" horiz-adv-x="756" 
d="M716 339q0 -157 -97 -255.5t-240 -98.5q-127 0 -219 78l-61 -73l-19 15l62 74q-102 100 -102 260q0 158 97.5 256.5t241.5 98.5q126 0 216 -76l59 71l19 -15l-60 -73q103 -100 103 -262zM379 679q-110 0 -162.5 -94t-52.5 -246q0 -121 31 -200l356 425q-56 115 -172 115z
M379 0q108 0 160.5 94.5t52.5 244.5q0 121 -32 202l-356 -425q56 -116 175 -116z" />
    <glyph glyph-name="Ugrave" unicode="&#xd9;" horiz-adv-x="771" 
d="M453 747h-7q-54 22 -110 57t-82 65v3h109q33 -60 90 -125zM388 -15q-123 0 -191 56.5t-68 195.5v352q0 34 -11.5 47.5t-51.5 19.5l-51 7v16q30 0 85 -0.5t84 -0.5q30 0 85 0.5t84 0.5v-16l-51 -7q-40 -6 -51 -19.5t-11 -47.5v-353q0 -117 47 -164.5t139 -47.5
q100 0 149 55.5t49 157.5v298q0 64 -15.5 89t-57.5 32l-41 7v16q22 0 63 -0.5t63 -0.5t62 0.5t63 0.5v-16l-41 -7q-42 -7 -57 -31.5t-15 -89.5v-298q0 -118 -64 -185t-196 -67z" />
    <glyph glyph-name="Uacute" unicode="&#xda;" horiz-adv-x="771" 
d="M387 747h-7q62 70 90 125h109v-3q-26 -30 -82 -65t-110 -57zM648 237q0 -118 -64 -185t-196 -67q-123 0 -191 56.5t-68 195.5v352q0 34 -11.5 47.5t-51.5 19.5l-51 7v16q30 0 85 -0.5t84 -0.5q30 0 85 0.5t84 0.5v-16l-51 -7q-40 -6 -51 -19.5t-11 -47.5v-353
q0 -117 47 -164.5t139 -47.5q100 0 149 55.5t49 157.5v298q0 64 -15.5 89t-57.5 32l-41 7v16q22 0 63 -0.5t63 -0.5t62 0.5t63 0.5v-16l-41 -7q-42 -7 -57 -31.5t-15 -89.5v-298z" />
    <glyph glyph-name="Ucircumflex" unicode="&#xdb;" horiz-adv-x="771" 
d="M388 822l-126 -75h-7l111 125h75l107 -125h-9zM388 -15q-123 0 -191 56.5t-68 195.5v352q0 34 -11.5 47.5t-51.5 19.5l-51 7v16q30 0 85 -0.5t84 -0.5q30 0 85 0.5t84 0.5v-16l-51 -7q-40 -6 -51 -19.5t-11 -47.5v-353q0 -117 47 -164.5t139 -47.5q100 0 149 55.5
t49 157.5v298q0 64 -15.5 89t-57.5 32l-41 7v16q22 0 63 -0.5t63 -0.5t62 0.5t63 0.5v-16l-41 -7q-42 -7 -57 -31.5t-15 -89.5v-298q0 -118 -64 -185t-196 -67z" />
    <glyph glyph-name="Udieresis" unicode="&#xdc;" horiz-adv-x="771" 
d="M369 805q0 -24 -16.5 -41t-41.5 -17t-41.5 17t-16.5 41t16.5 41t41.5 17t41.5 -17t16.5 -41zM572 805q0 -24 -17 -41t-42 -17q-24 0 -41 17t-17 41t17 41t41 17q25 0 42 -17t17 -41zM648 237q0 -118 -64 -185t-196 -67q-123 0 -191 56.5t-68 195.5v352q0 34 -11.5 47.5
t-51.5 19.5l-51 7v16q30 0 85 -0.5t84 -0.5q30 0 85 0.5t84 0.5v-16l-51 -7q-40 -6 -51 -19.5t-11 -47.5v-353q0 -117 47 -164.5t139 -47.5q100 0 149 55.5t49 157.5v298q0 64 -15.5 89t-57.5 32l-41 7v16q22 0 63 -0.5t63 -0.5t62 0.5t63 0.5v-16l-41 -7q-42 -7 -57 -31.5
t-15 -89.5v-298z" />
    <glyph glyph-name="Yacute" unicode="&#xdd;" horiz-adv-x="711" 
d="M338 747h-7q62 70 90 125h109v-3q-26 -30 -82 -65t-110 -57zM523 0q-29 0 -85 0.5t-86 0.5t-86 -0.5t-86 -0.5v16l52 7q40 6 52 20.5t12 48.5v174l-176 317q-22 39 -41 55t-47 20l-36 5v16q57 -1 173 -1q114 0 172 1v-16l-57 -7q-71 -8 -35 -76l151 -278l118 210
q37 67 37 98q0 36 -57 46l-40 7v16q43 -1 129 -1t129 1v-15l-31 -7q-38 -9 -68 -39.5t-78 -112.5l-132 -227v-186q0 -34 12.5 -48.5t52.5 -20.5l51 -7v-16z" />
    <glyph glyph-name="Thorn" unicode="&#xde;" horiz-adv-x="635" 
d="M245 513v-332q57 -3 82 -3q76 0 119.5 41.5t43.5 123.5q0 90 -42 130t-133 40h-70zM359 16v-16q-30 0 -85 0.5t-85 0.5q-29 0 -84 -0.5t-85 -0.5v16l52 7q40 6 51 19.5t11 47.5v499q0 34 -11 47.5t-51 19.5l-52 7v16q30 0 85 -0.5t84 -0.5q30 0 85 0.5t85 0.5v-16l-52 -7
q-40 -6 -51 -19.5t-11 -47.5v-58h69q294 0 294 -187q0 -90 -79 -137t-202 -47q-38 0 -82 4v-74q0 -34 11 -47.5t51 -19.5z" />
    <glyph glyph-name="germandbls" unicode="&#xdf;" horiz-adv-x="590" 
d="M398 -15q-66 0 -104 30.5t-38 73.5q0 34 17.5 53.5t47.5 19.5q26 0 42 -15t16 -38q0 -22 -11.5 -35.5t-22.5 -22t-11 -18.5q0 -13 16 -23t46 -10q45 0 74.5 25t29.5 71q0 40 -20 65t-81 74q-55 42 -83 76t-28 75q0 25 10.5 46t21.5 33t39 38q42 39 56.5 69.5t14.5 79.5
q0 50 -28.5 80.5t-74.5 30.5q-65 0 -95 -49t-30 -155v-559h-182v15l35 6q30 5 39 16t9 41v366l-96 14v17l96 13v25q0 71 20 124.5t53.5 83t71 43.5t78.5 14q72 0 121 -34.5t49 -93.5q0 -34 -17 -59t-55 -57q-34 -29 -51 -50t-17 -44q0 -19 13.5 -38.5t28 -32t61.5 -51.5
q62 -50 86 -86.5t24 -88.5q0 -74 -52.5 -116t-118.5 -42z" />
    <glyph glyph-name="agrave" unicode="&#xe0;" horiz-adv-x="507" 
d="M300 578h-6q-120 75 -173 169v3h96q21 -70 83 -172zM213 21q42 0 70.5 30.5t28.5 90.5v103q-95 -14 -136.5 -41.5t-41.5 -94.5q0 -40 21 -64t58 -24zM326 94q-16 -49 -58.5 -79t-99.5 -30q-64 0 -100 29t-36 83q0 134 281 163v102q0 66 -19.5 93t-71.5 27
q-40 0 -65.5 -15t-25.5 -34q0 -12 12.5 -21t25 -21.5t12.5 -33.5q0 -24 -18 -39.5t-45 -15.5q-30 0 -47 19.5t-17 52.5q0 53 49.5 88t119.5 35q88 0 136.5 -40t48.5 -119l-1 -263q0 -56 35 -56q21 0 32.5 22t14.5 77h16q-2 -70 -22.5 -100t-67.5 -30q-43 0 -64 24t-25 82z
" />
    <glyph glyph-name="aacute" unicode="&#xe1;" horiz-adv-x="507" 
d="M188 578h-6q61 103 83 172h95v-3q-50 -92 -172 -169zM213 21q42 0 70.5 30.5t28.5 90.5v103q-95 -14 -136.5 -41.5t-41.5 -94.5q0 -40 21 -64t58 -24zM326 94q-16 -49 -58.5 -79t-99.5 -30q-64 0 -100 29t-36 83q0 134 281 163v102q0 66 -19.5 93t-71.5 27
q-40 0 -65.5 -15t-25.5 -34q0 -12 12.5 -21t25 -21.5t12.5 -33.5q0 -24 -18 -39.5t-45 -15.5q-30 0 -47 19.5t-17 52.5q0 53 49.5 88t119.5 35q88 0 136.5 -40t48.5 -119l-1 -263q0 -56 35 -56q21 0 32.5 22t14.5 77h16q-2 -70 -22.5 -100t-67.5 -30q-43 0 -64 24t-25 82z
" />
    <glyph glyph-name="acircumflex" unicode="&#xe2;" horiz-adv-x="507" 
d="M374 578l-145 111l-125 -111h-7l113 172h63l110 -172h-9zM213 21q42 0 70.5 30.5t28.5 90.5v103q-95 -14 -136.5 -41.5t-41.5 -94.5q0 -40 21 -64t58 -24zM505 118q-2 -70 -22.5 -100t-67.5 -30q-43 0 -64 24t-25 82q-16 -49 -58.5 -79t-99.5 -30q-64 0 -100 29t-36 83
q0 134 281 163v102q0 66 -19.5 93t-71.5 27q-40 0 -65.5 -15t-25.5 -34q0 -12 12.5 -21t25 -21.5t12.5 -33.5q0 -24 -18 -39.5t-45 -15.5q-30 0 -47 19.5t-17 52.5q0 53 49.5 88t119.5 35q88 0 136.5 -40t48.5 -119l-1 -263q0 -56 35 -56q21 0 32.5 22t14.5 77h16z" />
    <glyph glyph-name="atilde" unicode="&#xe3;" horiz-adv-x="507" 
d="M129 613l-4 -2q-17 25 -17 55q0 28 19 47t50 19q30 0 77.5 -30.5t64.5 -30.5q19 0 29 10t14 38h4q0 -109 -74 -109q-29 0 -75 30.5t-63 30.5q-29 0 -29 -29q0 -16 4 -29zM213 21q42 0 70.5 30.5t28.5 90.5v103q-95 -14 -136.5 -41.5t-41.5 -94.5q0 -40 21 -64t58 -24z
M326 94q-16 -49 -58.5 -79t-99.5 -30q-64 0 -100 29t-36 83q0 134 281 163v102q0 66 -19.5 93t-71.5 27q-40 0 -65.5 -15t-25.5 -34q0 -12 12.5 -21t25 -21.5t12.5 -33.5q0 -24 -18 -39.5t-45 -15.5q-30 0 -47 19.5t-17 52.5q0 53 49.5 88t119.5 35q88 0 136.5 -40
t48.5 -119l-1 -263q0 -56 35 -56q21 0 32.5 22t14.5 77h16q-2 -70 -22.5 -100t-67.5 -30q-43 0 -64 24t-25 82z" />
    <glyph glyph-name="adieresis" unicode="&#xe4;" horiz-adv-x="507" 
d="M408 672q0 -25 -16.5 -42t-41.5 -17t-41.5 17t-16.5 42q0 24 17 40.5t41 16.5t41 -16.5t17 -40.5zM206 672q0 -25 -17 -42t-41 -17q-25 0 -42 17t-17 42q0 23 17 40t42 17q24 0 41 -17t17 -40zM213 21q42 0 70.5 30.5t28.5 90.5v103q-95 -14 -136.5 -41.5t-41.5 -94.5
q0 -40 21 -64t58 -24zM326 94q-16 -49 -58.5 -79t-99.5 -30q-64 0 -100 29t-36 83q0 134 281 163v102q0 66 -19.5 93t-71.5 27q-40 0 -65.5 -15t-25.5 -34q0 -12 12.5 -21t25 -21.5t12.5 -33.5q0 -24 -18 -39.5t-45 -15.5q-30 0 -47 19.5t-17 52.5q0 53 49.5 88t119.5 35
q88 0 136.5 -40t48.5 -119l-1 -263q0 -56 35 -56q21 0 32.5 22t14.5 77h16q-2 -70 -22.5 -100t-67.5 -30q-43 0 -64 24t-25 82z" />
    <glyph glyph-name="aring" unicode="&#xe5;" horiz-adv-x="507" 
d="M329 653q0 -40 -27.5 -67t-71.5 -28q-43 0 -71 27.5t-28 67.5t28 67t71 27q44 0 71.5 -27t27.5 -67zM160 653q0 -34 18 -57t52 -23t52 23t18 57q0 33 -18 56t-52 23q-33 0 -51.5 -23t-18.5 -56zM213 21q42 0 70.5 30.5t28.5 90.5v103q-95 -14 -136.5 -41.5t-41.5 -94.5
q0 -40 21 -64t58 -24zM505 118q-2 -70 -22.5 -100t-67.5 -30q-43 0 -64 24t-25 82q-16 -49 -58.5 -79t-99.5 -30q-64 0 -100 29t-36 83q0 134 281 163v102q0 66 -19.5 93t-71.5 27q-40 0 -65.5 -15t-25.5 -34q0 -12 12.5 -21t25 -21.5t12.5 -33.5q0 -24 -18 -39.5t-45 -15.5
q-30 0 -47 19.5t-17 52.5q0 53 49.5 88t119.5 35q88 0 136.5 -40t48.5 -119l-1 -263q0 -56 35 -56q21 0 32.5 22t14.5 77h16z" />
    <glyph glyph-name="ae" unicode="&#xe6;" horiz-adv-x="765" 
d="M620 301l2 13q20 170 -81 170q-111 0 -124 -197l203 13v1zM213 21q42 0 70.5 30.5t28.5 90.5v103q-95 -14 -136.5 -41.5t-41.5 -94.5q0 -40 21 -64t58 -24zM725 113q-67 -127 -193 -127q-59 0 -109 30t-79 86q-27 -52 -73 -84.5t-103 -32.5q-64 0 -100 29t-36 83
q0 134 281 163v102q0 66 -19.5 93t-71.5 27q-40 0 -65.5 -15t-25.5 -34q0 -10 8 -17.5t17 -12t17 -16.5t8 -30q0 -24 -18 -39.5t-45 -15.5q-30 0 -47 19t-17 52q0 53 49.5 88.5t120.5 35.5q114 0 155 -81q63 83 161 83q83 0 134 -46t51 -126q0 -29 -5 -56l-303 2
q-1 -11 -1 -33q0 -102 37.5 -160t110.5 -58q92 0 147 98z" />
    <glyph glyph-name="ccedilla" unicode="&#xe7;" horiz-adv-x="496" 
d="M226 -244q-52 0 -96 27l8 12q30 -15 62 -15q30 0 48 20t18 56q0 58 -45 58q-17 0 -35 -8l-10 7l25 79q-75 18 -124.5 82.5t-49.5 165.5q0 119 75.5 189t177.5 70q72 0 116.5 -34t44.5 -84q0 -30 -18.5 -50.5t-49.5 -20.5q-27 0 -44 15t-17 40q0 23 11 37t22.5 22.5
t11.5 17.5q0 16 -21.5 29t-55.5 13q-68 0 -105.5 -61t-37.5 -183q0 -102 37.5 -160t110.5 -58q91 0 146 98l14 -7q-67 -127 -192 -127q-19 0 -37 3l-14 -66q25 10 52 10q38 0 64 -20.5t26 -60.5q0 -45 -34.5 -70.5t-83.5 -25.5z" />
    <glyph glyph-name="egrave" unicode="&#xe8;" horiz-adv-x="485" 
d="M318 578h-6q-120 75 -173 169v3h96q21 -70 83 -172zM340 301l2 13q20 170 -80 170q-111 0 -124 -197l202 13v1zM445 113q-67 -127 -192 -127q-92 0 -159 68.5t-67 185.5q0 119 69.5 189t164.5 70q82 0 133 -46t51 -126q0 -29 -5 -56l-302 2q-1 -11 -1 -33
q0 -102 37.5 -160t110.5 -58q91 0 146 98z" />
    <glyph glyph-name="eacute" unicode="&#xe9;" horiz-adv-x="485" 
d="M212 578h-6q61 103 83 172h95v-3q-50 -92 -172 -169zM138 287l202 13v1l2 13q20 170 -80 170q-111 0 -124 -197zM445 113q-67 -127 -192 -127q-92 0 -159 68.5t-67 185.5q0 119 69.5 189t164.5 70q82 0 133 -46t51 -126q0 -29 -5 -56l-302 2q-1 -11 -1 -33
q0 -102 37.5 -160t110.5 -58q91 0 146 98z" />
    <glyph glyph-name="ecircumflex" unicode="&#xea;" horiz-adv-x="485" 
d="M384 578l-145 111l-125 -111h-7l113 172h63l110 -172h-9zM340 301l2 13q20 170 -80 170q-111 0 -124 -197l202 13v1zM445 113q-67 -127 -192 -127q-92 0 -159 68.5t-67 185.5q0 119 69.5 189t164.5 70q82 0 133 -46t51 -126q0 -29 -5 -56l-302 2q-1 -11 -1 -33
q0 -102 37.5 -160t110.5 -58q91 0 146 98z" />
    <glyph glyph-name="edieresis" unicode="&#xeb;" horiz-adv-x="485" 
d="M417 672q0 -25 -16.5 -42t-41.5 -17t-41.5 17t-16.5 42q0 24 16.5 40.5t41.5 16.5t41.5 -16.5t16.5 -40.5zM215 672q0 -25 -17 -42t-41 -17q-25 0 -42 17t-17 42q0 23 17 40t42 17q24 0 41 -17t17 -40zM340 301l2 13q20 170 -80 170q-111 0 -124 -197l202 13v1zM445 113
q-67 -127 -192 -127q-92 0 -159 68.5t-67 185.5q0 119 69.5 189t164.5 70q82 0 133 -46t51 -126q0 -29 -5 -56l-302 2q-1 -11 -1 -33q0 -102 37.5 -160t110.5 -58q91 0 146 98z" />
    <glyph glyph-name="igrave" unicode="&#xec;" horiz-adv-x="301" 
d="M202 578h-6q-120 75 -173 169v3h96q21 -70 83 -172zM23 0v15l35 6q30 5 39 16t9 42v296q0 37 -12.5 49t-51.5 15l-35 3v13l186 43l19 -6q-7 -55 -7 -117v-297q0 -30 9 -41t40 -16l35 -6v-15q-24 0 -66.5 0.5t-66.5 0.5t-67 -0.5t-66 -0.5z" />
    <glyph glyph-name="iacute" unicode="&#xed;" horiz-adv-x="301" 
d="M84 578h-6q61 103 83 172h95v-3q-50 -92 -172 -169zM289 0q-24 0 -66.5 0.5t-66.5 0.5t-67 -0.5t-66 -0.5v15l35 6q30 5 39 16t9 42v296q0 37 -12.5 49t-51.5 15l-35 3v13l186 43l19 -6q-7 -55 -7 -117v-297q0 -30 9 -41t40 -16l35 -6v-15z" />
    <glyph glyph-name="icircumflex" unicode="&#xee;" horiz-adv-x="301" 
d="M129 689l-125 -111h-7l113 172h63l110 -172h-9zM289 0q-24 0 -66.5 0.5t-66.5 0.5t-67 -0.5t-66 -0.5v15l35 6q30 5 39 16t9 42v296q0 37 -12.5 49t-51.5 15l-35 3v13l186 43l19 -6q-7 -55 -7 -117v-297q0 -30 9 -41t40 -16l35 -6v-15z" />
    <glyph glyph-name="idieresis" unicode="&#xef;" horiz-adv-x="301" 
d="M296 672q0 -25 -16.5 -42t-41.5 -17t-41.5 17t-16.5 42q0 24 17 40.5t41 16.5t41 -16.5t17 -40.5zM94 672q0 -25 -17 -42t-41 -17q-25 0 -42 17t-17 42q0 23 17 40t42 17q24 0 41 -17t17 -40zM289 0q-24 0 -66.5 0.5t-66.5 0.5t-67 -0.5t-66 -0.5v15l35 6q30 5 39 16
t9 42v296q0 37 -12.5 49t-51.5 15l-35 3v13l186 43l19 -6q-7 -55 -7 -117v-297q0 -30 9 -41t40 -16l35 -6v-15z" />
    <glyph glyph-name="eth" unicode="&#xf0;" horiz-adv-x="530" 
d="M263 -15q-105 0 -169 74.5t-64 190.5q0 111 62.5 181t151.5 70q100 0 132 -104q-33 133 -122 237l-139 -58l-11 24l132 55q-62 66 -143 113l6 10q113 -44 189 -101l128 53l11 -23l-116 -49q179 -146 179 -376q0 -140 -70.5 -218.5t-156.5 -78.5zM139 246q0 -70 10.5 -122
t39 -88t73.5 -36q60 0 88 69t28 177q0 106 -30.5 171.5t-94.5 65.5q-114 0 -114 -237z" />
    <glyph glyph-name="ntilde" unicode="&#xf1;" horiz-adv-x="606" 
d="M210 613l-4 -2q-17 25 -17 55q0 28 19 47t50 19q30 0 77.5 -30.5t64.5 -30.5q19 0 29 10t14 38h4q0 -109 -74 -109q-29 0 -75 30.5t-63 30.5q-29 0 -29 -29q0 -16 4 -29zM21 0v15l35 6q30 5 39 16.5t9 41.5v296q0 37 -12.5 49t-51.5 15l-35 3v13l173 41l18 -6
q-7 -128 -7 -256q0 118 46.5 191.5t129.5 73.5q67 0 107.5 -38t40.5 -112v-270q0 -31 9 -42t39 -16l35 -6v-15q-24 0 -66 0.5t-66 0.5t-67 -0.5t-67 -0.5v15l35 6q31 5 40 16t9 42v270q0 63 -19 90.5t-61 27.5q-54 0 -92.5 -64.5t-38.5 -168.5v-156q0 -30 9.5 -41t39.5 -16
l35 -6v-15q-24 0 -66.5 0.5t-66.5 0.5t-67 -0.5t-66 -0.5z" />
    <glyph glyph-name="ograve" unicode="&#xf2;" horiz-adv-x="519" 
d="M320 578h-6q-120 75 -173 169v3h96q21 -70 83 -172zM492 242q0 -115 -66 -186t-167 -71q-99 0 -165.5 71t-66.5 186t66.5 186t165.5 71q101 0 167 -71t66 -186zM259 0q124 0 124 242t-124 242q-123 0 -123 -242t123 -242z" />
    <glyph glyph-name="oacute" unicode="&#xf3;" horiz-adv-x="519" 
d="M200 578h-6q61 103 83 172h95v-3q-50 -92 -172 -169zM259 -15q-99 0 -165.5 71t-66.5 186t66.5 186t165.5 71q101 0 167 -71t66 -186t-66 -186t-167 -71zM259 0q124 0 124 242t-124 242q-123 0 -123 -242t123 -242z" />
    <glyph glyph-name="ocircumflex" unicode="&#xf4;" horiz-adv-x="519" 
d="M244 689l-125 -111h-7l113 172h63l110 -172h-9zM492 242q0 -115 -66 -186t-167 -71q-99 0 -165.5 71t-66.5 186t66.5 186t165.5 71q101 0 167 -71t66 -186zM136 242q0 -242 123 -242q124 0 124 242t-124 242q-123 0 -123 -242z" />
    <glyph glyph-name="otilde" unicode="&#xf5;" horiz-adv-x="519" 
d="M151 613l-4 -2q-17 25 -17 55q0 28 19 47t50 19q30 0 77.5 -30.5t64.5 -30.5q19 0 29 10t14 38h4q0 -109 -74 -109q-29 0 -75 30.5t-63 30.5q-29 0 -29 -29q0 -16 4 -29zM492 242q0 -115 -66 -186t-167 -71q-99 0 -165.5 71t-66.5 186t66.5 186t165.5 71q101 0 167 -71
t66 -186zM259 0q124 0 124 242t-124 242q-123 0 -123 -242t123 -242z" />
    <glyph glyph-name="odieresis" unicode="&#xf6;" horiz-adv-x="519" 
d="M418 672q0 -25 -16.5 -42t-41.5 -17t-41.5 17t-16.5 42q0 24 17 40.5t41 16.5t41 -16.5t17 -40.5zM216 672q0 -25 -17 -42t-41 -17q-25 0 -42 17t-17 42q0 23 17 40t42 17q24 0 41 -17t17 -40zM259 -15q-99 0 -165.5 71t-66.5 186t66.5 186t165.5 71q101 0 167 -71
t66 -186t-66 -186t-167 -71zM259 0q124 0 124 242t-124 242q-123 0 -123 -242t123 -242z" />
    <glyph glyph-name="divide" unicode="&#xf7;" 
d="M311 399q0 -16 -10.5 -26t-25.5 -10q-14 0 -25 10t-11 26t11 26t25 10q15 0 25.5 -9.5t10.5 -26.5zM56 226v32h438v-32h-438zM311 86q0 -17 -10.5 -26.5t-25.5 -9.5q-14 0 -25 10t-11 26t11 26t25 10q15 0 25.5 -9.5t10.5 -26.5z" />
    <glyph glyph-name="oslash" unicode="&#xf8;" horiz-adv-x="519" 
d="M492 242q0 -115 -66 -186t-167 -71q-91 0 -153 59l-46 -54l-19 15l48 56q-62 70 -62 181q0 115 66.5 186t165.5 71q92 0 154 -59l45 53l19 -15l-47 -55q62 -70 62 -181zM259 484q-123 0 -123 -242q0 -68 10 -117l221 261q-28 98 -108 98zM259 0q124 0 124 242
q0 65 -9 116l-222 -259q28 -99 107 -99z" />
    <glyph glyph-name="ugrave" unicode="&#xf9;" horiz-adv-x="562" 
d="M301 578h-6q-120 75 -173 169v3h96q21 -70 83 -172zM381 216q0 -108 -40 -169.5t-124 -61.5q-65 0 -104 39.5t-39 117.5v263q0 28 -7.5 41t-33.5 17l-43 6v15h186l-3 -85v-262q0 -69 20 -95t59 -26q48 0 81.5 51.5t33.5 148.5v189q0 29 -7.5 41.5t-33.5 16.5l-43 6v15
h187l-4 -89v-316q0 -29 7.5 -41.5t34.5 -16.5l42 -6v-15h-156l-13 10v206z" />
    <glyph glyph-name="uacute" unicode="&#xfa;" horiz-adv-x="562" 
d="M223 576h-6q61 103 83 172h95v-3q-50 -92 -172 -169zM381 216q0 -108 -40 -169.5t-124 -61.5q-65 0 -104 39.5t-39 117.5v263q0 28 -7.5 41t-33.5 17l-43 6v15h186l-3 -85v-262q0 -69 20 -95t59 -26q48 0 81.5 51.5t33.5 148.5v189q0 29 -7.5 41.5t-33.5 16.5l-43 6v15
h187l-4 -89v-316q0 -29 7.5 -41.5t34.5 -16.5l42 -6v-15h-156l-13 10v206z" />
    <glyph glyph-name="ucircumflex" unicode="&#xfb;" horiz-adv-x="562" 
d="M389 578l-145 111l-125 -111h-7l113 172h63l110 -172h-9zM381 216q0 -108 -40 -169.5t-124 -61.5q-65 0 -104 39.5t-39 117.5v263q0 28 -7.5 41t-33.5 17l-43 6v15h186l-3 -85v-262q0 -69 20 -95t59 -26q48 0 81.5 51.5t33.5 148.5v189q0 29 -7.5 41.5t-33.5 16.5l-43 6
v15h187l-4 -89v-316q0 -29 7.5 -41.5t34.5 -16.5l42 -6v-15h-156l-13 10v206z" />
    <glyph glyph-name="udieresis" unicode="&#xfc;" horiz-adv-x="562" 
d="M423 672q0 -25 -16.5 -42t-41.5 -17t-41.5 17t-16.5 42q0 24 16.5 40.5t41.5 16.5t41.5 -16.5t16.5 -40.5zM221 672q0 -25 -17 -42t-41 -17q-25 0 -42 17t-17 42q0 23 17 40t42 17q24 0 41 -17t17 -40zM381 216q0 -108 -40 -169.5t-124 -61.5q-65 0 -104 39.5t-39 117.5
v263q0 28 -7.5 41t-33.5 17l-43 6v15h186l-3 -85v-262q0 -69 20 -95t59 -26q48 0 81.5 51.5t33.5 148.5v189q0 29 -7.5 41.5t-33.5 16.5l-43 6v15h187l-4 -89v-316q0 -29 7.5 -41.5t34.5 -16.5l42 -6v-15h-156l-13 10v206z" />
    <glyph glyph-name="yacute" unicode="&#xfd;" horiz-adv-x="531" 
d="M240 578h-6q61 103 83 172h95v-3q-50 -92 -172 -169zM296 31q-33 -89 -61 -145t-53.5 -83t-46 -36t-47.5 -9q-41 0 -66 22t-25 59q0 30 19.5 49.5t50.5 19.5q27 0 43.5 -16t16.5 -40q0 -23 -14.5 -39.5t-14.5 -20.5q0 -9 12 -9q70 0 144 197l6 16l-167 392
q-18 40 -31.5 56t-36.5 20l-30 5v15q46 -1 135 -1q85 0 131 1v-15l-36 -4q-21 -2 -29 -14t-6 -29t12 -44l104 -269l90 244q16 45 16 67q0 19 -11 29t-40 14l-33 5v16q35 -1 104 -1q68 0 104 1v-15l-24 -5q-36 -7 -55 -31t-43 -87z" />
    <glyph glyph-name="thorn" unicode="&#xfe;" horiz-adv-x="553" 
d="M289 0q62 0 94.5 63t32.5 183q0 229 -115 229q-63 0 -95.5 -56.5t-32.5 -149.5v-205q36 -64 116 -64zM257 -215v-15q-24 0 -67 0.5t-66 0.5q-24 0 -67 -0.5t-67 -0.5v15l35 6q31 5 40 16t9 42v815q0 31 -10 41.5t-42 14.5l-47 5v11l189 38l17 -7q-8 -53 -8 -117v-97
q0 -45 -7 -133t-7 -151q0 101 37 165.5t120 64.5q92 0 151 -69.5t59 -183.5q0 -121 -72 -191t-165 -70q-65 0 -116 27v-163q0 -31 9 -42t39 -16z" />
    <glyph glyph-name="ydieresis" unicode="&#xff;" horiz-adv-x="531" 
d="M437 672q0 -25 -16.5 -42t-41.5 -17t-41.5 17t-16.5 42q0 24 16.5 40.5t41.5 16.5t41.5 -16.5t16.5 -40.5zM235 672q0 -25 -17 -42t-41 -17q-25 0 -42 17t-17 42q0 23 17 40t42 17q24 0 41 -17t17 -40zM296 31q-33 -89 -61 -145t-53.5 -83t-46 -36t-47.5 -9q-41 0 -66 22
t-25 59q0 30 19.5 49.5t50.5 19.5q27 0 43.5 -16t16.5 -40q0 -23 -14.5 -39.5t-14.5 -20.5q0 -9 12 -9q70 0 144 197l6 16l-167 392q-18 40 -31.5 56t-36.5 20l-30 5v15q46 -1 135 -1q85 0 131 1v-15l-36 -4q-21 -2 -29 -14t-6 -29t12 -44l104 -269l90 244q16 45 16 67
q0 19 -11 29t-40 14l-33 5v16q35 -1 104 -1q68 0 104 1v-15l-24 -5q-36 -7 -55 -31t-43 -87z" />
    <glyph glyph-name="Amacron" unicode="&#x100;" horiz-adv-x="715" 
d="M219 763v37q72 -4 139 -4q69 0 139 4v-37q-70 4 -138 4t-140 -4zM721 0q-29 0 -81 0.5t-80 0.5t-80 -0.5t-81 -0.5v16l57 7q38 5 44.5 25.5t-9.5 53.5l-45 118h-263l-21 -54q-30 -74 -25 -103t55 -38l50 -9v-16q-22 0 -60.5 0.5t-59.5 0.5q-22 0 -63.5 -0.5t-63.5 -0.5
v15l33 9q39 10 61 39t53 110l153 396l40 115h52l217 -560q24 -61 38.5 -80t44.5 -23l34 -5v-16zM315 567l-124 -326h247z" />
    <glyph glyph-name="amacron" unicode="&#x101;" horiz-adv-x="507" 
d="M93 651v37q72 -4 139 -4q69 0 139 4v-37q-70 4 -138 4t-140 -4zM213 21q42 0 70.5 30.5t28.5 90.5v103q-95 -14 -136.5 -41.5t-41.5 -94.5q0 -40 21 -64t58 -24zM505 118q-2 -70 -22.5 -100t-67.5 -30q-43 0 -64 24t-25 82q-16 -49 -58.5 -79t-99.5 -30q-64 0 -100 29
t-36 83q0 134 281 163v102q0 66 -19.5 93t-71.5 27q-40 0 -65.5 -15t-25.5 -34q0 -12 12.5 -21t25 -21.5t12.5 -33.5q0 -24 -18 -39.5t-45 -15.5q-30 0 -47 19.5t-17 52.5q0 53 49.5 88t119.5 35q88 0 136.5 -40t48.5 -119l-1 -263q0 -56 35 -56q21 0 32.5 22t14.5 77h16z
" />
    <glyph glyph-name="Abreve" unicode="&#x102;" horiz-adv-x="715" 
d="M489 874q-15 -127 -128 -127q-57 0 -89.5 33.5t-39.5 93.5h4q10 -27 42.5 -43.5t82.5 -16.5t82 16.5t42 43.5h4zM721 0q-29 0 -81 0.5t-80 0.5t-80 -0.5t-81 -0.5v16l57 7q38 5 44.5 25.5t-9.5 53.5l-45 118h-263l-21 -54q-30 -74 -25 -103t55 -38l50 -9v-16
q-22 0 -60.5 0.5t-59.5 0.5q-22 0 -63.5 -0.5t-63.5 -0.5v15l33 9q39 10 61 39t53 110l153 396l40 115h52l217 -560q24 -61 38.5 -80t44.5 -23l34 -5v-16zM315 567l-124 -326h247z" />
    <glyph glyph-name="abreve" unicode="&#x103;" horiz-adv-x="507" 
d="M370 736q-16 -135 -129 -135t-129 135h4q22 -68 125 -68t125 68h4zM213 21q42 0 70.5 30.5t28.5 90.5v103q-95 -14 -136.5 -41.5t-41.5 -94.5q0 -40 21 -64t58 -24zM326 94q-16 -49 -58.5 -79t-99.5 -30q-64 0 -100 29t-36 83q0 134 281 163v102q0 66 -19.5 93t-71.5 27
q-40 0 -65.5 -15t-25.5 -34q0 -12 12.5 -21t25 -21.5t12.5 -33.5q0 -24 -18 -39.5t-45 -15.5q-30 0 -47 19.5t-17 52.5q0 53 49.5 88t119.5 35q88 0 136.5 -40t48.5 -119l-1 -263q0 -56 35 -56q21 0 32.5 22t14.5 77h16q-2 -70 -22.5 -100t-67.5 -30q-43 0 -64 24t-25 82z
" />
    <glyph glyph-name="Aogonek" unicode="&#x104;" horiz-adv-x="715" 
d="M315 567l-124 -326h247zM552 -140q-27 -51 -57 -76.5t-78 -25.5t-76 23t-28 63q0 74 97 127q70 40 81 51q12 12 12 30q0 20 -12 50l-45 118h-263l-21 -54q-20 -53 -24 -79t8 -41t46 -21l50 -9v-16q-22 0 -60.5 0.5t-59.5 0.5q-22 0 -63.5 -0.5t-63.5 -0.5v15l33 9
q39 10 61 39t53 110l153 396l40 115h52l217 -560q24 -61 38.5 -80t44.5 -23l34 -5v-16q-29 0 -81 0.5t-80 0.5q-77 0 -127 -41t-50 -105q0 -30 16 -47.5t43 -17.5q51 0 96 77z" />
    <glyph glyph-name="aogonek" unicode="&#x105;" horiz-adv-x="507" 
d="M370 -242q-48 0 -76 23t-28 63q0 46 41.5 84.5t107.5 65.5l-3 -1q-42 0 -62 22t-24 79q-16 -49 -58.5 -79t-99.5 -30q-64 0 -100 29t-36 83q0 134 281 163v102q0 66 -19.5 93t-71.5 27q-40 0 -65.5 -15t-25.5 -34q0 -10 8 -17.5t17 -12t17 -16.5t8 -30q0 -24 -18 -39.5
t-45 -15.5q-30 0 -47 19t-17 52q0 53 49.5 88.5t120.5 35.5q87 0 135.5 -40t48.5 -119l-1 -263q0 -56 35 -56q21 0 32.5 22t14.5 77h16q-3 -80 -31 -108q-9 -9 -42.5 -22.5t-55.5 -35.5q-40 -42 -40 -95q0 -29 16 -48t44 -19t49.5 18.5t45.5 58.5l14 -7q-26 -50 -56 -76
t-79 -26zM213 21q42 0 70.5 30.5t28.5 90.5v103q-95 -14 -136.5 -41.5t-41.5 -94.5q0 -40 21 -64t58 -24z" />
    <glyph glyph-name="Cacute" unicode="&#x106;" horiz-adv-x="699" 
d="M307 747h-7q62 70 90 125h109v-3q-26 -30 -82 -65t-110 -57zM612 -10l-39 71q-74 -76 -201 -76q-64 0 -122.5 23t-106 66t-75.5 111.5t-28 152.5t28.5 153t75.5 112.5t106 67t123 23.5q127 0 199 -77l40 72h10v-277h-19q-49 153 -101 210t-127 57q-101 0 -155 -85.5
t-54 -254.5q0 -162 54 -250.5t155 -88.5q77 0 130 59t98 195h19v-264h-10z" />
    <glyph glyph-name="cacute" unicode="&#x107;" horiz-adv-x="496" 
d="M226 578h-6q61 103 83 172h95v-3q-50 -92 -172 -169zM445 113q-67 -127 -192 -127q-93 0 -159.5 67.5t-66.5 186.5t75.5 189t177.5 70q72 0 116.5 -34t44.5 -84q0 -30 -18.5 -50.5t-49.5 -20.5q-27 0 -44 15t-17 40q0 23 11 37t22.5 22.5t11.5 17.5q0 16 -21.5 29
t-55.5 13q-68 0 -105.5 -61t-37.5 -183q0 -102 37.5 -160t110.5 -58q91 0 146 98z" />
    <glyph glyph-name="Ccircumflex" unicode="&#x108;" horiz-adv-x="699" 
d="M357 822l-126 -75h-7l111 125h75l107 -125h-9zM612 -10l-39 71q-74 -76 -201 -76q-64 0 -122.5 23t-106 66t-75.5 111.5t-28 152.5t28.5 153t75.5 112.5t106 67t123 23.5q127 0 199 -77l40 72h10v-277h-19q-49 153 -101 210t-127 57q-101 0 -155 -85.5t-54 -254.5
q0 -162 54 -250.5t155 -88.5q77 0 130 59t98 195h19v-264h-10z" />
    <glyph glyph-name="ccircumflex" unicode="&#x109;" horiz-adv-x="496" 
d="M242 689l-125 -111h-7l113 172h63l110 -172h-9zM445 113q-67 -127 -192 -127q-93 0 -159.5 67.5t-66.5 186.5t75.5 189t177.5 70q72 0 116.5 -34t44.5 -84q0 -30 -18.5 -50.5t-49.5 -20.5q-27 0 -44 15t-17 40q0 23 11 37t22.5 22.5t11.5 17.5q0 16 -21.5 29t-55.5 13
q-68 0 -105.5 -61t-37.5 -183q0 -102 37.5 -160t110.5 -58q91 0 146 98z" />
    <glyph glyph-name="Cdotaccent" unicode="&#x10a;" horiz-adv-x="699" 
d="M432 805q0 -24 -17 -41t-41 -17q-25 0 -42 17t-17 41t17 41t42 17q24 0 41 -17t17 -41zM612 -10l-39 71q-74 -76 -201 -76q-64 0 -122.5 23t-106 66t-75.5 111.5t-28 152.5t28.5 153t75.5 112.5t106 67t123 23.5q127 0 199 -77l40 72h10v-277h-19q-49 153 -101 210
t-127 57q-101 0 -155 -85.5t-54 -254.5q0 -162 54 -250.5t155 -88.5q77 0 130 59t98 195h19v-264h-10z" />
    <glyph glyph-name="cdotaccent" unicode="&#x10b;" horiz-adv-x="496" 
d="M328 672q0 -25 -17 -42t-41 -17q-25 0 -42 17t-17 42q0 23 17 40t42 17q24 0 41 -17t17 -40zM445 113q-67 -127 -192 -127q-93 0 -159.5 67.5t-66.5 186.5t75.5 189t177.5 70q72 0 116.5 -34t44.5 -84q0 -30 -18.5 -50.5t-49.5 -20.5q-27 0 -44 15t-17 40q0 23 11 37
t22.5 22.5t11.5 17.5q0 16 -21.5 29t-55.5 13q-68 0 -105.5 -61t-37.5 -183q0 -102 37.5 -160t110.5 -58q91 0 146 98z" />
    <glyph glyph-name="Ccaron" unicode="&#x10c;" horiz-adv-x="699" 
d="M410 747h-75l-107 125h9l151 -74l127 74h7zM612 -10l-39 71q-74 -76 -201 -76q-64 0 -122.5 23t-106 66t-75.5 111.5t-28 152.5t28.5 153t75.5 112.5t106 67t123 23.5q127 0 199 -77l40 72h10v-277h-19q-49 153 -101 210t-127 57q-101 0 -155 -85.5t-54 -254.5
q0 -162 54 -250.5t155 -88.5q77 0 130 59t98 195h19v-264h-10z" />
    <glyph glyph-name="ccaron" unicode="&#x10d;" horiz-adv-x="496" 
d="M299 578h-62l-110 172h9l145 -111l125 111h7zM445 113q-67 -127 -192 -127q-93 0 -159.5 67.5t-66.5 186.5t75.5 189t177.5 70q72 0 116.5 -34t44.5 -84q0 -30 -18.5 -50.5t-49.5 -20.5q-27 0 -44 15t-17 40q0 23 11 37t22.5 22.5t11.5 17.5q0 16 -21.5 29t-55.5 13
q-68 0 -105.5 -61t-37.5 -183q0 -102 37.5 -160t110.5 -58q91 0 146 98z" />
    <glyph glyph-name="Dcaron" unicode="&#x10e;" horiz-adv-x="736" 
d="M415 747h-75l-107 125h9l151 -74l127 74h7zM20 0v16l52 7q40 6 51 19.5t11 47.5v499q0 34 -11 47.5t-51 19.5l-52 7v16h312q73 0 137 -19.5t115.5 -58.5t81.5 -106.5t30 -155.5t-29.5 -155t-81.5 -106.5t-116 -58.5t-138 -19h-311zM308 18h23q118 0 178.5 76t60.5 245
t-60.5 245.5t-177.5 76.5h-87v-584q0 -31 14.5 -45t48.5 -14z" />
    <glyph glyph-name="dcaron" unicode="&#x10f;" horiz-adv-x="595" 
d="M546 472l-9 14q76 42 76 103q-13 -20 -39 -20q-23 0 -37 14t-14 37q0 24 16.5 40.5t41.5 16.5q28 0 44.5 -18t16.5 -46q0 -90 -96 -141zM258 9q53 0 87.5 50.5t34.5 154.5v207q-36 63 -112 63q-131 0 -131 -246q0 -229 121 -229zM394 214q0 -229 -159 -229
q-84 0 -146 67.5t-62 185.5q0 125 75.5 193t165.5 68q66 0 112 -26v187q0 31 -12.5 43.5t-47.5 16.5l-47 5v11l197 38l17 -7q-8 -53 -8 -117v-571q0 -31 9 -42t40 -16l35 -6v-15h-156l-13 10v204z" />
    <glyph glyph-name="Dcroat" unicode="&#x110;" horiz-adv-x="736" 
d="M134 352v237q0 34 -11 47.5t-51 19.5l-52 7v16h312q73 0 137 -19.5t115.5 -58.5t81.5 -106.5t30 -155.5t-29.5 -155t-81.5 -106.5t-116 -58.5t-138 -19h-311v16l52 7q40 6 51 19.5t11 47.5v239h-95v23h95zM308 18h23q118 0 178.5 76t60.5 245t-60.5 245.5t-177.5 76.5
h-87v-310h167v-21h-167v-253q0 -31 14.5 -45t48.5 -14z" />
    <glyph glyph-name="dcroat" unicode="&#x111;" horiz-adv-x="578" 
d="M479 620h77v-23h-77v-518q0 -31 9 -42t40 -16l35 -6v-15h-156l-13 10v204q0 -229 -159 -229q-84 0 -146 67.5t-62 185.5q0 125 75.5 193t165.5 68q66 0 112 -26v124h-146v23h146v40q0 31 -12.5 43.5t-47.5 16.5l-47 5v11l197 38l17 -7q-8 -53 -8 -117v-30zM258 9
q53 0 87.5 50.5t34.5 154.5v207q-36 63 -112 63q-131 0 -131 -246q0 -229 121 -229z" />
    <glyph glyph-name="Emacron" unicode="&#x112;" horiz-adv-x="642" 
d="M193 763v37q72 -4 139 -4q69 0 139 4v-37q-70 4 -138 4t-140 -4zM245 359h73q45 0 68 32t50 117h17q-1 -53 -1 -159t1 -159h-17q-29 91 -50.5 121t-67.5 30h-73v-264q0 -31 14.5 -45t48.5 -14h64q84 0 121.5 41t88.5 178h20l-11 -237h-571v16l52 7q40 6 51 19.5t11 47.5
v499q0 34 -11 47.5t-51 19.5l-52 7v16h541l11 -217h-20q-47 121 -81.5 160t-104.5 39h-121v-302z" />
    <glyph glyph-name="emacron" unicode="&#x113;" horiz-adv-x="485" 
d="M124 651v37q72 -4 139 -4q69 0 139 4v-37q-70 4 -138 4t-140 -4zM340 301l2 13q20 170 -80 170q-111 0 -124 -197l202 13v1zM445 113q-67 -127 -192 -127q-92 0 -159 68.5t-67 185.5q0 119 69.5 189t164.5 70q82 0 133 -46t51 -126q0 -29 -5 -56l-302 2q-1 -11 -1 -33
q0 -102 37.5 -160t110.5 -58q91 0 146 98z" />
    <glyph glyph-name="Ebreve" unicode="&#x114;" horiz-adv-x="642" 
d="M464 874q-15 -127 -128 -127q-57 0 -89.5 33.5t-39.5 93.5h4q10 -27 42.5 -43.5t82.5 -16.5t82 16.5t42 43.5h4zM245 359h73q45 0 68 32t50 117h17q-1 -53 -1 -159t1 -159h-17q-29 91 -50.5 121t-67.5 30h-73v-264q0 -31 14.5 -45t48.5 -14h64q84 0 121.5 41t88.5 178h20
l-11 -237h-571v16l52 7q40 6 51 19.5t11 47.5v499q0 34 -11 47.5t-51 19.5l-52 7v16h541l11 -217h-20q-47 121 -81.5 160t-104.5 39h-121v-302z" />
    <glyph glyph-name="ebreve" unicode="&#x115;" horiz-adv-x="485" 
d="M386 736q-16 -135 -129 -135t-129 135h4q22 -68 125 -68t125 68h4zM340 301l2 13q20 170 -80 170q-111 0 -124 -197l202 13v1zM445 113q-67 -127 -192 -127q-92 0 -159 68.5t-67 185.5q0 119 69.5 189t164.5 70q82 0 133 -46t51 -126q0 -29 -5 -56l-302 2q-1 -11 -1 -33
q0 -102 37.5 -160t110.5 -58q91 0 146 98z" />
    <glyph glyph-name="Edotaccent" unicode="&#x116;" horiz-adv-x="642" 
d="M403 805q0 -24 -17 -41t-41 -17q-25 0 -42 17t-17 41t17 41t42 17q24 0 41 -17t17 -41zM245 359h73q45 0 68 32t50 117h17q-1 -53 -1 -159t1 -159h-17q-29 91 -50.5 121t-67.5 30h-73v-264q0 -31 14.5 -45t48.5 -14h64q84 0 121.5 41t88.5 178h20l-11 -237h-571v16l52 7
q40 6 51 19.5t11 47.5v499q0 34 -11 47.5t-51 19.5l-52 7v16h541l11 -217h-20q-47 121 -81.5 160t-104.5 39h-121v-302z" />
    <glyph glyph-name="edotaccent" unicode="&#x117;" horiz-adv-x="485" 
d="M317 672q0 -25 -17 -42t-41 -17q-25 0 -42 17t-17 42q0 23 17 40t42 17q24 0 41 -17t17 -40zM340 301l2 13q20 170 -80 170q-111 0 -124 -197l202 13v1zM445 113q-67 -127 -192 -127q-92 0 -159 68.5t-67 185.5q0 119 69.5 189t164.5 70q82 0 133 -46t51 -126
q0 -29 -5 -56l-302 2q-1 -11 -1 -33q0 -102 37.5 -160t110.5 -58q91 0 146 98z" />
    <glyph glyph-name="Eogonek" unicode="&#x118;" horiz-adv-x="642" 
d="M245 359h73q45 0 68 32t50 117h17q-1 -53 -1 -159t1 -159h-17q-29 91 -50.5 121t-67.5 30h-73v-264q0 -31 14.5 -45t48.5 -14h64q84 0 121.5 41t88.5 178h20l-11 -237q-71 0 -120 -41t-49 -104q0 -30 16 -47.5t43 -17.5q51 0 96 77l14 -7q-27 -51 -57 -76.5t-78 -25.5
t-76 23t-28 63q0 76 84 122q54 30 115 40q-86 -6 -148 -6h-383v16l52 7q40 6 51 19.5t11 47.5v499q0 34 -11 47.5t-51 19.5l-52 7v16h541l11 -217h-20q-47 121 -81.5 160t-104.5 39h-121v-302z" />
    <glyph glyph-name="eogonek" unicode="&#x119;" horiz-adv-x="485" 
d="M340 301l2 13q20 170 -80 170q-111 0 -124 -197l202 13v1zM440 -140q-26 -50 -56 -76t-79 -26q-48 0 -76 23t-28 63q0 25 15.5 49t29 36t47.5 40q39 30 74 63q-53 -44 -116 -44q-92 0 -158 67.5t-66 184.5q0 119 69.5 189t164.5 70q82 0 133 -46t51 -126q0 -29 -5 -56
l-302 2q-1 -11 -1 -33q0 -102 37.5 -160t110.5 -58q91 0 146 98l14 -7q-20 -39 -47 -67q-13 -14 -42 -40t-44 -42t-28 -45t-13 -64q0 -30 16 -47.5t44 -17.5t49.5 18.5t45.5 58.5z" />
    <glyph glyph-name="Ecaron" unicode="&#x11a;" horiz-adv-x="642" 
d="M376 747h-75l-107 125h9l151 -74l127 74h7zM245 359h73q45 0 68 32t50 117h17q-1 -53 -1 -159t1 -159h-17q-29 91 -50.5 121t-67.5 30h-73v-264q0 -31 14.5 -45t48.5 -14h64q84 0 121.5 41t88.5 178h20l-11 -237h-571v16l52 7q40 6 51 19.5t11 47.5v499q0 34 -11 47.5
t-51 19.5l-52 7v16h541l11 -217h-20q-47 121 -81.5 160t-104.5 39h-121v-302z" />
    <glyph glyph-name="ecaron" unicode="&#x11b;" horiz-adv-x="485" 
d="M282 578h-62l-110 172h9l145 -111l125 111h7zM340 301l2 13q20 170 -80 170q-111 0 -124 -197l202 13v1zM445 113q-67 -127 -192 -127q-92 0 -159 68.5t-67 185.5q0 119 69.5 189t164.5 70q82 0 133 -46t51 -126q0 -29 -5 -56l-302 2q-1 -11 -1 -33q0 -102 37.5 -160
t110.5 -58q91 0 146 98z" />
    <glyph glyph-name="Gcircumflex" unicode="&#x11c;" horiz-adv-x="732" 
d="M351 822l-126 -75h-7l111 125h75l107 -125h-9zM570 70q-68 -85 -203 -85t-231 94t-96 259q0 84 28.5 153t76 112.5t106.5 67t123 23.5q126 0 198 -77l40 72h10v-277h-19q-49 153 -100.5 210t-126.5 57q-101 0 -155.5 -85.5t-54.5 -254.5q0 -168 53.5 -253.5t151.5 -85.5
q75 0 112 43.5t37 114.5v66q0 29 -12 43.5t-47 19.5l-61 9v16q57 -1 162 -1q113 0 170 1v-16l-58 -9q-30 -5 -41 -19.5t-11 -43.5v-96l4 -141h-9z" />
    <glyph glyph-name="gcircumflex" unicode="&#x11d;" horiz-adv-x="519" 
d="M372 578l-145 111l-125 -111h-7l113 172h63l110 -172h-9zM131 331q0 -69 21.5 -111t64.5 -42q85 0 85 153t-86 153q-85 0 -85 -153zM248 -243q-106 0 -173.5 34.5t-67.5 97.5q0 39 21.5 61t56.5 22q21 0 32 -10t9 -26q-27 0 -42 -15t-15 -41q0 -50 44.5 -79t134.5 -29
q89 0 140.5 32.5t51.5 87.5q0 41 -41.5 56t-139.5 19q-204 7 -204 112q0 91 154 91q-74 0 -126 47t-52 119q0 71 50 117t132 46q77 0 129 -44q49 46 108 46q33 0 52 -17t19 -46q0 -27 -16 -41.5t-40 -14.5q-23 0 -36.5 13t-13.5 34q0 7 2 17t2 14q0 9 -12 9q-23 0 -52 -26
q45 -47 45 -116q0 -75 -51.5 -122t-141.5 -47q-98 0 -98 -40q0 -27 35.5 -37t125.5 -14q111 -4 168 -35t57 -110t-68.5 -122t-178.5 -43z" />
    <glyph glyph-name="Gbreve" unicode="&#x11e;" horiz-adv-x="732" 
d="M488 874q-15 -127 -128 -127q-57 0 -89.5 33.5t-39.5 93.5h4q10 -27 42.5 -43.5t82.5 -16.5t82 16.5t42 43.5h4zM617 -13l-47 83q-68 -85 -203 -85t-231 94t-96 259q0 84 28.5 153t76 112.5t106.5 67t123 23.5q126 0 198 -77l40 72h10v-277h-19q-49 153 -100.5 210
t-126.5 57q-101 0 -155.5 -85.5t-54.5 -254.5q0 -168 53.5 -253.5t151.5 -85.5q75 0 112 43.5t37 114.5v66q0 29 -12 43.5t-47 19.5l-61 9v16q57 -1 162 -1q113 0 170 1v-16l-58 -9q-30 -5 -41 -19.5t-11 -43.5v-96l4 -141h-9z" />
    <glyph glyph-name="gbreve" unicode="&#x11f;" horiz-adv-x="519" 
d="M370 736q-16 -135 -129 -135t-129 135h4q22 -68 125 -68t125 68h4zM131 331q0 -69 21.5 -111t64.5 -42q85 0 85 153t-86 153q-85 0 -85 -153zM248 -243q-106 0 -173.5 34.5t-67.5 97.5q0 39 21.5 61t56.5 22q21 0 32 -10t9 -26q-27 0 -42 -15t-15 -41q0 -50 44.5 -79
t134.5 -29q89 0 140.5 32.5t51.5 87.5q0 41 -41.5 56t-139.5 19q-204 7 -204 112q0 91 154 91q-74 0 -126 47t-52 119q0 71 50 117t132 46q77 0 129 -44q49 46 108 46q33 0 52 -17t19 -46q0 -27 -16 -41.5t-40 -14.5q-23 0 -36.5 13t-13.5 34q0 7 2 17t2 14q0 9 -12 9
q-23 0 -52 -26q45 -47 45 -116q0 -75 -51.5 -122t-141.5 -47q-98 0 -98 -40q0 -27 35.5 -37t125.5 -14q111 -4 168 -35t57 -110t-68.5 -122t-178.5 -43z" />
    <glyph glyph-name="Gdotaccent" unicode="&#x120;" horiz-adv-x="732" 
d="M433 805q0 -24 -17 -41t-41 -17q-25 0 -42 17t-17 41t17 41t42 17q24 0 41 -17t17 -41zM570 70q-68 -85 -203 -85t-231 94t-96 259q0 84 28.5 153t76 112.5t106.5 67t123 23.5q126 0 198 -77l40 72h10v-277h-19q-49 153 -100.5 210t-126.5 57q-101 0 -155.5 -85.5
t-54.5 -254.5q0 -168 53.5 -253.5t151.5 -85.5q75 0 112 43.5t37 114.5v66q0 29 -12 43.5t-47 19.5l-61 9v16q57 -1 162 -1q113 0 170 1v-16l-58 -9q-30 -5 -41 -19.5t-11 -43.5v-96l4 -141h-9z" />
    <glyph glyph-name="gdotaccent" unicode="&#x121;" horiz-adv-x="519" 
d="M297 672q0 -25 -17 -42t-41 -17q-25 0 -42 17t-17 42q0 23 17 40t42 17q24 0 41 -17t17 -40zM131 331q0 -69 21.5 -111t64.5 -42q85 0 85 153t-86 153q-85 0 -85 -153zM248 -243q-106 0 -173.5 34.5t-67.5 97.5q0 39 21.5 61t56.5 22q21 0 32 -10t9 -26q-27 0 -42 -15
t-15 -41q0 -50 44.5 -79t134.5 -29q89 0 140.5 32.5t51.5 87.5q0 41 -41.5 56t-139.5 19q-204 7 -204 112q0 91 154 91q-74 0 -126 47t-52 119q0 71 50 117t132 46q77 0 129 -44q49 46 108 46q33 0 52 -17t19 -46q0 -27 -16 -41.5t-40 -14.5q-23 0 -36.5 13t-13.5 34
q0 7 2 17t2 14q0 9 -12 9q-23 0 -52 -26q45 -47 45 -116q0 -75 -51.5 -122t-141.5 -47q-98 0 -98 -40q0 -27 35.5 -37t125.5 -14q111 -4 168 -35t57 -110t-68.5 -122t-178.5 -43z" />
    <glyph glyph-name="Gcommaaccent" unicode="&#x122;" horiz-adv-x="732" 
d="M617 -13l-47 83q-68 -85 -203 -85t-231 94t-96 259q0 84 28.5 153t76 112.5t106.5 67t123 23.5q126 0 198 -77l40 72h10v-277h-19q-49 153 -100.5 210t-126.5 57q-101 0 -155.5 -85.5t-54.5 -254.5q0 -168 53.5 -253.5t151.5 -85.5q75 0 112 43.5t37 114.5v66
q0 29 -12 43.5t-47 19.5l-61 9v16q57 -1 162 -1q113 0 170 1v-16l-58 -9q-30 -5 -41 -19.5t-11 -43.5v-96l4 -141h-9zM328 -257l-9 14q76 42 76 103q-13 -20 -39 -20q-23 0 -37 14t-14 37q0 24 16.5 40.5t41.5 16.5q28 0 44 -18t16 -46q0 -90 -95 -141z" />
    <glyph glyph-name="gcommaaccent" unicode="&#x123;" horiz-adv-x="519" 
d="M275 774l9 -14q-76 -42 -76 -103q13 20 39 20q23 0 37 -14t14 -37q0 -24 -16.5 -40.5t-41.5 -16.5q-28 0 -44.5 18t-16.5 46q0 90 96 141zM217 178q85 0 85 153t-86 153q-85 0 -85 -153q0 -69 21.5 -111t64.5 -42zM248 -243q-106 0 -173.5 34.5t-67.5 97.5q0 39 21.5 61
t56.5 22q21 0 32 -10t9 -26q-27 0 -42 -15t-15 -41q0 -50 44.5 -79t134.5 -29q89 0 140.5 32.5t51.5 87.5q0 41 -41.5 56t-139.5 19q-204 7 -204 112q0 91 154 91q-74 0 -126 47t-52 119q0 71 50 117t132 46q77 0 129 -44q49 46 108 46q33 0 52 -17t19 -46q0 -27 -16 -41.5
t-40 -14.5q-23 0 -36.5 13t-13.5 34q0 7 2 17t2 14q0 9 -12 9q-23 0 -52 -26q45 -47 45 -116q0 -75 -51.5 -122t-141.5 -47q-98 0 -98 -40q0 -27 35.5 -37t125.5 -14q111 -4 168 -35t57 -110t-68.5 -122t-178.5 -43z" />
    <glyph glyph-name="Hcircumflex" unicode="&#x124;" horiz-adv-x="807" 
d="M542 747l-151 75l-126 -75h-7l111 125h75l107 -125h-9zM562 358v231q0 34 -11 47.5t-51 19.5l-52 7v16q30 0 85 -0.5t85 -0.5q29 0 84 0.5t85 0.5v-16l-52 -7q-40 -6 -51 -19.5t-11 -47.5v-499q0 -34 11 -47.5t51 -19.5l52 -7v-16q-30 0 -85 0.5t-84 0.5q-30 0 -85 -0.5
t-85 -0.5v16l52 7q40 6 51 19.5t11 47.5v247h-317v-247q0 -34 11 -47.5t51 -19.5l51 -7v-16q-29 0 -84 0.5t-85 0.5q-29 0 -84 -0.5t-85 -0.5v16l52 7q40 6 51 19.5t11 47.5v499q0 34 -11 47.5t-51 19.5l-52 7v16q30 0 85 -0.5t84 -0.5q30 0 85 0.5t84 0.5v-16l-51 -7
q-40 -6 -51 -19.5t-11 -47.5v-231h317z" />
    <glyph glyph-name="hcircumflex" unicode="&#x125;" horiz-adv-x="605" 
d="M145 872l-126 -75h-7l111 125h75l107 -125h-9zM20 0v15l35 6q30 5 39 16t9 42v586q0 30 -9.5 40.5t-42.5 14.5l-46 5v11l188 38l17 -7q-8 -53 -8 -117v-96q0 -50 -7 -149t-7 -171q0 121 47 193t129 72q67 0 107.5 -37.5t40.5 -111.5v-271q0 -31 9 -42t39 -16l35 -6v-15
q-23 0 -65.5 0.5t-66.5 0.5t-67 -0.5t-67 -0.5v15l35 6q31 5 40 16t9 42v271q0 63 -19 90t-61 27q-53 0 -92 -63.5t-39 -169.5v-155q0 -30 9.5 -41.5t39.5 -16.5l35 -6v-15q-24 0 -66.5 0.5t-66.5 0.5q-23 0 -66 -0.5t-67 -0.5z" />
    <glyph glyph-name="Hbar" unicode="&#x126;" horiz-adv-x="807" 
d="M562 358v131h-317v-131h317zM562 337h-317v-247q0 -34 11 -47.5t51 -19.5l51 -7v-16q-29 0 -84 0.5t-85 0.5q-29 0 -84 -0.5t-85 -0.5v16l52 7q40 6 51 19.5t11 47.5v398h-94v24h94v77q0 34 -11 47.5t-51 19.5l-52 7v16q30 0 85 -0.5t84 -0.5q30 0 85 0.5t84 0.5v-16
l-51 -7q-40 -6 -51 -19.5t-11 -47.5v-78h317v78q0 34 -11 47.5t-51 19.5l-52 7v16q30 0 85 -0.5t85 -0.5q29 0 84 0.5t85 0.5v-16l-52 -7q-40 -6 -51 -19.5t-11 -47.5v-77h93v-24h-93v-398q0 -34 11 -47.5t51 -19.5l52 -7v-16q-30 0 -85 0.5t-84 0.5q-30 0 -85 -0.5
t-85 -0.5v16l52 7q40 6 51 19.5t11 47.5v247z" />
    <glyph glyph-name="hbar" unicode="&#x127;" horiz-adv-x="605" 
d="M595 15v-15q-23 0 -65.5 0.5t-66.5 0.5t-67 -0.5t-67 -0.5v15l35 6q31 5 40 16t9 42v271q0 63 -19 90t-61 27q-53 0 -92 -63.5t-39 -169.5v-155q0 -30 9.5 -41.5t39.5 -16.5l35 -6v-15q-24 0 -66.5 0.5t-66.5 0.5q-23 0 -66 -0.5t-67 -0.5v15l35 6q30 5 39 16t9 42v518
h-76v23h76v45q0 30 -9.5 40.5t-42.5 14.5l-46 5v11l188 38l17 -7q-8 -53 -8 -117v-30h147v-23h-147v-43q0 -50 -7 -149t-7 -171q0 121 47 193t129 72q67 0 107.5 -37.5t40.5 -111.5v-271q0 -31 9 -42t39 -16z" />
    <glyph glyph-name="Itilde" unicode="&#x128;" horiz-adv-x="379" 
d="M87 751l-4 -2q-17 25 -17 55q0 29 19 47.5t50 18.5q30 0 77.5 -30.5t64.5 -30.5q19 0 29 10.5t14 38.5h4q0 -110 -74 -110q-29 0 -75 30.5t-63 30.5q-29 0 -29 -29q0 -16 4 -29zM359 16v-16q-30 0 -85 0.5t-85 0.5q-29 0 -84 -0.5t-85 -0.5v16l52 7q40 6 51 19.5t11 47.5
v499q0 34 -11 47.5t-51 19.5l-52 7v16q30 0 85 -0.5t84 -0.5q30 0 85 0.5t85 0.5v-16l-52 -7q-40 -6 -51 -19.5t-11 -47.5v-499q0 -34 11 -47.5t51 -19.5z" />
    <glyph glyph-name="itilde" unicode="&#x129;" horiz-adv-x="301" 
d="M40 613l-4 -2q-17 25 -17 55q0 28 19 47t50 19q30 0 77.5 -30.5t64.5 -30.5q19 0 29 10t14 38h4q0 -109 -74 -109q-29 0 -75 30.5t-63 30.5q-29 0 -29 -29q0 -16 4 -29zM23 0v15l35 6q30 5 39 16t9 42v296q0 37 -12.5 49t-51.5 15l-35 3v13l186 43l19 -6q-7 -55 -7 -117
v-297q0 -30 9 -41t40 -16l35 -6v-15q-24 0 -66.5 0.5t-66.5 0.5t-67 -0.5t-66 -0.5z" />
    <glyph glyph-name="Imacron" unicode="&#x12a;" horiz-adv-x="379" 
d="M51 763v37q72 -4 139 -4q69 0 139 4v-37q-70 4 -138 4t-140 -4zM359 16v-16q-30 0 -85 0.5t-85 0.5q-29 0 -84 -0.5t-85 -0.5v16l52 7q40 6 51 19.5t11 47.5v499q0 34 -11 47.5t-51 19.5l-52 7v16q30 0 85 -0.5t84 -0.5q30 0 85 0.5t85 0.5v-16l-52 -7q-40 -6 -51 -19.5
t-11 -47.5v-499q0 -34 11 -47.5t51 -19.5z" />
    <glyph glyph-name="imacron" unicode="&#x12b;" horiz-adv-x="301" 
d="M2 651v37q72 -4 139 -4q69 0 139 4v-37q-70 4 -138 4t-140 -4zM23 0v15l35 6q30 5 39 16t9 42v296q0 37 -12.5 49t-51.5 15l-35 3v13l186 43l19 -6q-7 -55 -7 -117v-297q0 -30 9 -41t40 -16l35 -6v-15q-24 0 -66.5 0.5t-66.5 0.5t-67 -0.5t-66 -0.5z" />
    <glyph glyph-name="Ibreve" unicode="&#x12c;" horiz-adv-x="379" 
d="M321 874q-15 -127 -128 -127q-57 0 -89.5 33.5t-39.5 93.5h4q10 -27 42.5 -43.5t82.5 -16.5t82 16.5t42 43.5h4zM359 16v-16q-30 0 -85 0.5t-85 0.5q-29 0 -84 -0.5t-85 -0.5v16l52 7q40 6 51 19.5t11 47.5v499q0 34 -11 47.5t-51 19.5l-52 7v16q30 0 85 -0.5t84 -0.5
q30 0 85 0.5t85 0.5v-16l-52 -7q-40 -6 -51 -19.5t-11 -47.5v-499q0 -34 11 -47.5t51 -19.5z" />
    <glyph glyph-name="ibreve" unicode="&#x12d;" horiz-adv-x="301" 
d="M269 736q-16 -135 -129 -135t-129 135h4q22 -68 125 -68t125 68h4zM23 0v15l35 6q30 5 39 16t9 42v296q0 37 -12.5 49t-51.5 15l-35 3v13l186 43l19 -6q-7 -55 -7 -117v-297q0 -30 9 -41t40 -16l35 -6v-15q-24 0 -66.5 0.5t-66.5 0.5t-67 -0.5t-66 -0.5z" />
    <glyph glyph-name="Iogonek" unicode="&#x12e;" horiz-adv-x="379" 
d="M223 -242q-48 0 -76 23t-28 63q0 76 84 122q55 31 116 40q-68 -5 -139 -5q-30 0 -80 -0.5t-80 -0.5v16l52 7q40 6 51 19.5t11 47.5v499q0 34 -11 47.5t-51 19.5l-52 7v16q30 0 85 -0.5t84 -0.5q30 0 85 0.5t85 0.5v-16l-52 -7q-40 -6 -51 -19.5t-11 -47.5v-499
q0 -34 11 -47.5t51 -19.5l52 -7v-16q-72 -1 -121 -41.5t-49 -103.5q0 -30 16 -47.5t44 -17.5t49.5 18.5t45.5 58.5l14 -7q-26 -50 -56 -76t-79 -26z" />
    <glyph glyph-name="iogonek" unicode="&#x12f;" horiz-adv-x="301" 
d="M215 677q0 -32 -20 -50.5t-52 -18.5q-29 0 -50 19.5t-21 49.5q0 31 20.5 50t50.5 19q32 0 52 -18.5t20 -50.5zM156 -242q-48 0 -75.5 23t-27.5 63q0 76 84 123q58 33 123 41q-8 0 -45.5 -3.5t-59.5 -3.5q-24 0 -66.5 -0.5t-65.5 -0.5v15l35 6q30 5 39 16t9 42v296
q0 37 -12.5 49t-51.5 15l-35 3v13l186 43l19 -6q-7 -55 -7 -117v-297q0 -30 9 -41t40 -16l35 -6v-15q-69 0 -118 -41t-49 -104q0 -30 16 -47.5t44 -17.5t49.5 18.5t45.5 58.5l14 -7q-26 -50 -56 -76t-79 -26z" />
    <glyph glyph-name="Idotaccent" unicode="&#x130;" horiz-adv-x="379" 
d="M249 805q0 -24 -17 -41t-41 -17q-25 0 -42 17t-17 41t17 41t42 17q24 0 41 -17t17 -41zM359 16v-16q-30 0 -85 0.5t-85 0.5q-29 0 -84 -0.5t-85 -0.5v16l52 7q40 6 51 19.5t11 47.5v499q0 34 -11 47.5t-51 19.5l-52 7v16q30 0 85 -0.5t84 -0.5q30 0 85 0.5t85 0.5v-16
l-52 -7q-40 -6 -51 -19.5t-11 -47.5v-499q0 -34 11 -47.5t51 -19.5z" />
    <glyph glyph-name="dotlessi" unicode="&#x131;" horiz-adv-x="301" 
d="M23 0v15l35 6q30 5 39 16t9 42v296q0 37 -12.5 49t-51.5 15l-35 3v13l186 43l19 -6q-7 -55 -7 -117v-297q0 -30 9 -41t40 -16l35 -6v-15q-24 0 -66.5 0.5t-66.5 0.5t-67 -0.5t-66 -0.5z" />
    <glyph glyph-name="Jcircumflex" unicode="&#x134;" horiz-adv-x="528" 
d="M331 822l-126 -75h-7l111 125h75l107 -125h-9zM170 -15q-76 0 -123 37t-47 99q0 37 20.5 61t53.5 24q28 0 44.5 -16.5t16.5 -42.5t-16 -41t-43 -17q-20 -1 -20 -19q0 -25 30.5 -47.5t79.5 -22.5q133 0 133 181v402q0 35 -13.5 51t-54.5 22l-52 7v16q30 0 85 -0.5t85 -0.5
q29 0 84 0.5t85 0.5v-16l-51 -7q-40 -6 -51 -19.5t-11 -47.5v-350q0 -123 -66.5 -188.5t-168.5 -65.5z" />
    <glyph glyph-name="jcircumflex" unicode="&#x135;" horiz-adv-x="324" 
d="M148 689l-125 -111h-7l113 172h63l110 -172h-9zM232 -47q0 -52 -18 -92t-47 -62t-60 -32.5t-62 -10.5q-62 0 -95.5 26t-33.5 66q0 30 18.5 50t49.5 20q28 0 44.5 -16t16.5 -41q0 -21 -9.5 -34t-19.5 -20.5t-10 -15.5t11.5 -14t29.5 -6q43 0 65 35.5t22 121.5v445
q0 37 -15 50t-55 16l-37 3v13l193 43l19 -6q-7 -55 -7 -117v-422z" />
    <glyph glyph-name="Kcommaaccent" unicode="&#x136;" horiz-adv-x="751" 
d="M751 16v-16q-29 0 -84.5 0.5t-84.5 0.5t-86.5 -0.5t-86.5 -0.5v16l32 5q50 8 50 28q0 16 -40 61l-206 234l198 194q39 38 52.5 56t13.5 31q0 25 -50 32l-38 6v16q49 -1 147 -1q101 0 151 1v-16l-32 -6q-61 -11 -110.5 -39t-118.5 -95l-122 -117l242 -273q57 -63 82 -82.5
t64 -28.5zM359 16v-16q-30 0 -85 0.5t-85 0.5q-29 0 -84 -0.5t-85 -0.5v16l52 7q40 6 51 19.5t11 47.5v499q0 34 -11 47.5t-51 19.5l-52 7v16q30 0 85 -0.5t84 -0.5q30 0 85 0.5t85 0.5v-16l-52 -7q-40 -6 -51 -19.5t-11 -47.5v-499q0 -34 11 -47.5t51 -19.5zM344 -257
l-9 14q76 42 76 103q-13 -20 -39 -20q-23 0 -37 14t-14 37q0 24 16.5 40.5t41.5 16.5q28 0 44 -18t16 -46q0 -90 -95 -141z" />
    <glyph glyph-name="kcommaaccent" unicode="&#x137;" horiz-adv-x="578" 
d="M20 0v15l35 6q30 5 39 16t9 42v585q0 31 -10 41.5t-42 14.5l-46 5v11l188 38l17 -7q-8 -53 -8 -117v-572q0 -30 8.5 -41t39.5 -16l32 -6v-15q-24 0 -64.5 0.5t-64.5 0.5q-23 0 -66 -0.5t-67 -0.5zM279 306l175 -209q37 -43 54.5 -57.5t41.5 -19.5l23 -5v-15
q-23 0 -64.5 0.5t-63.5 0.5q-23 0 -66 -0.5t-65 -0.5v15l20 3q32 5 32 20q0 10 -22 38l-141 176l129 127q35 34 35 54q0 23 -46 30l-32 5v16q45 -1 130 -1q87 0 133 1v-15l-35 -6q-87 -15 -169 -93zM241 -257l-9 14q76 42 76 103q-13 -20 -39 -20q-23 0 -37 14t-14 37
q0 24 16.5 40.5t41.5 16.5q28 0 44.5 -18t16.5 -46q0 -90 -96 -141z" />
    <glyph glyph-name="Lacute" unicode="&#x139;" horiz-adv-x="639" 
d="M148 747h-7q62 70 90 125h109v-3q-26 -30 -82 -65t-110 -57zM595 0h-575v16l52 7q40 6 51 19.5t11 47.5v499q0 34 -11 47.5t-51 19.5l-52 7v16q30 0 85 -0.5t85 -0.5q29 0 84 0.5t85 0.5v-16l-52 -7q-40 -6 -51 -19.5t-11 -47.5v-512q0 -31 14.5 -45t48.5 -14h76
q70 0 114 51t88 187h18z" />
    <glyph glyph-name="lacute" unicode="&#x13a;" horiz-adv-x="301" 
d="M73 797h-7q62 70 90 125h109v-3q-26 -30 -82 -65t-110 -57zM286 0q-24 0 -66.5 0.5t-66.5 0.5q-23 0 -66 -0.5t-67 -0.5v15l35 6q30 5 39 16t9 42v585q0 31 -10 41.5t-42 14.5l-46 5v11l188 38l17 -7q-8 -53 -8 -117v-571q0 -31 9 -42t40 -16l35 -6v-15z" />
    <glyph glyph-name="Lcommaaccent" unicode="&#x13b;" horiz-adv-x="639" 
d="M595 0h-575v16l52 7q40 6 51 19.5t11 47.5v499q0 34 -11 47.5t-51 19.5l-52 7v16q30 0 85 -0.5t85 -0.5q29 0 84 0.5t85 0.5v-16l-52 -7q-40 -6 -51 -19.5t-11 -47.5v-512q0 -31 14.5 -45t48.5 -14h76q70 0 114 51t88 187h18zM299 -257l-9 14q76 42 76 103
q-13 -20 -39 -20q-23 0 -37 14t-14 37q0 24 16.5 40.5t41.5 16.5q28 0 44 -18t16 -46q0 -90 -95 -141z" />
    <glyph glyph-name="lcommaaccent" unicode="&#x13c;" horiz-adv-x="301" 
d="M20 0v15l35 6q30 5 39 16t9 42v585q0 31 -10 41.5t-42 14.5l-46 5v11l188 38l17 -7q-8 -53 -8 -117v-571q0 -31 9 -42t40 -16l35 -6v-15q-24 0 -66.5 0.5t-66.5 0.5q-23 0 -66 -0.5t-67 -0.5zM110 -257l-9 14q76 42 76 103q-13 -20 -39 -20q-23 0 -37 14t-14 37
q0 24 16.5 40.5t41.5 16.5q28 0 44.5 -18t16.5 -46q0 -90 -96 -141z" />
    <glyph glyph-name="Ldot" unicode="&#x13f;" horiz-adv-x="639" 
d="M595 0h-575v16l52 7q40 6 51 19.5t11 47.5v499q0 34 -11 47.5t-51 19.5l-52 7v16q30 0 85 -0.5t85 -0.5q29 0 84 0.5t85 0.5v-16l-52 -7q-40 -6 -51 -19.5t-11 -47.5v-512q0 -31 14.5 -45t48.5 -14h76q70 0 114 51t88 187h18zM567 383q0 -24 -17 -41t-41 -17
q-25 0 -42 17t-17 41t17 41t42 17q24 0 41 -17t17 -41z" />
    <glyph glyph-name="ldot" unicode="&#x140;" horiz-adv-x="310" 
d="M20 0v15l35 6q30 5 39 16t9 42v585q0 31 -10 41.5t-42 14.5l-46 5v11l188 38l17 -7q-8 -53 -8 -117v-571q0 -31 9 -42t40 -16l35 -6v-15q-24 0 -66.5 0.5t-66.5 0.5q-23 0 -66 -0.5t-67 -0.5zM307 338q-25 0 -42 17t-17 42q0 23 17 40t42 17q24 0 41 -17t17 -40
q0 -25 -17 -42t-41 -17z" />
    <glyph glyph-name="Lslash" unicode="&#x141;" horiz-adv-x="639" 
d="M595 0h-575v16l52 7q40 6 51 19.5t11 47.5v189l-112 -66v30l112 65v281q0 34 -11 47.5t-51 19.5l-52 7v16q30 0 85 -0.5t85 -0.5q29 0 84 0.5t85 0.5v-16l-52 -7q-40 -6 -51 -19.5t-11 -47.5v-224l198 119v-30l-198 -119v-258q0 -31 14.5 -45t48.5 -14h76q70 0 114 51
t88 187h18z" />
    <glyph glyph-name="lslash" unicode="&#x142;" horiz-adv-x="301" 
d="M286 0q-24 0 -66.5 0.5t-66.5 0.5q-23 0 -66 -0.5t-67 -0.5v15l35 6q30 5 39 16t9 42v274l-100 -59v29l100 59v282q0 31 -10 41.5t-42 14.5l-46 5v11l188 38l17 -7q-8 -53 -8 -117v-214l94 56v-28l-94 -56v-329q0 -31 9 -42t40 -16l35 -6v-15z" />
    <glyph glyph-name="Nacute" unicode="&#x143;" horiz-adv-x="757" 
d="M367 747h-7q62 70 90 125h109v-3q-26 -30 -82 -65t-110 -57zM626 -2h-63l-405 599v-453q0 -64 15.5 -89t56.5 -32l41 -7v-16q-23 0 -63 0.5t-62 0.5t-63 -0.5t-63 -0.5v16l41 7q42 7 57.5 32t15.5 89v445q0 34 -11 47.5t-51 19.5l-52 7v16h218l364 -537v393
q0 64 -15.5 89t-57.5 32l-41 7v16q22 0 63 -0.5t63 -0.5t62 0.5t63 0.5v-16l-41 -7q-41 -7 -56.5 -32t-15.5 -89v-537z" />
    <glyph glyph-name="nacute" unicode="&#x144;" horiz-adv-x="606" 
d="M269 578h-6q61 103 83 172h95v-3q-50 -92 -172 -169zM596 0q-24 0 -66 0.5t-66 0.5t-67 -0.5t-67 -0.5v15l35 6q31 5 40 16t9 42v270q0 63 -19 90.5t-61 27.5q-54 0 -92.5 -64.5t-38.5 -168.5v-156q0 -30 9.5 -41t39.5 -16l35 -6v-15q-24 0 -66.5 0.5t-66.5 0.5t-67 -0.5
t-66 -0.5v15l35 6q30 5 39 16.5t9 41.5v296q0 37 -12.5 49t-51.5 15l-35 3v13l173 41l18 -6q-7 -128 -7 -256q0 118 46.5 191.5t129.5 73.5q67 0 107.5 -38t40.5 -112v-270q0 -31 9 -42t39 -16l35 -6v-15z" />
    <glyph glyph-name="Ncommaaccent" unicode="&#x145;" horiz-adv-x="757" 
d="M563 -2l-405 599v-453q0 -64 15.5 -89t56.5 -32l41 -7v-16q-23 0 -63 0.5t-62 0.5t-63 -0.5t-63 -0.5v16l41 7q42 7 57.5 32t15.5 89v445q0 34 -11 47.5t-51 19.5l-52 7v16h218l364 -537v393q0 64 -15.5 89t-57.5 32l-41 7v16q22 0 63 -0.5t63 -0.5t62 0.5t63 0.5v-16
l-41 -7q-41 -7 -56.5 -32t-15.5 -89v-537h-63zM331 -257l-9 14q76 42 76 103q-13 -20 -39 -20q-23 0 -37 14t-14 37q0 24 16.5 40.5t41.5 16.5q28 0 44 -18t16 -46q0 -90 -95 -141z" />
    <glyph glyph-name="ncommaaccent" unicode="&#x146;" horiz-adv-x="606" 
d="M21 0v15l35 6q30 5 39 16.5t9 41.5v296q0 37 -12.5 49t-51.5 15l-35 3v13l173 41l18 -6q-7 -128 -7 -256q0 118 46.5 191.5t129.5 73.5q67 0 107.5 -38t40.5 -112v-270q0 -31 9 -42t39 -16l35 -6v-15q-24 0 -66 0.5t-66 0.5t-67 -0.5t-67 -0.5v15l35 6q31 5 40 16t9 42
v270q0 63 -19 90.5t-61 27.5q-54 0 -92.5 -64.5t-38.5 -168.5v-156q0 -30 9.5 -41t39.5 -16l35 -6v-15q-24 0 -66.5 0.5t-66.5 0.5t-67 -0.5t-66 -0.5zM266 -257l-9 14q76 42 76 103q-13 -20 -39 -20q-23 0 -37 14t-14 37q0 24 16.5 40.5t41.5 16.5q28 0 44.5 -18t16.5 -46
q0 -90 -96 -141z" />
    <glyph glyph-name="Ncaron" unicode="&#x147;" horiz-adv-x="757" 
d="M435 747h-75l-107 125h9l151 -74l127 74h7zM563 -2l-405 599v-453q0 -64 15.5 -89t56.5 -32l41 -7v-16q-23 0 -63 0.5t-62 0.5t-63 -0.5t-63 -0.5v16l41 7q42 7 57.5 32t15.5 89v445q0 34 -11 47.5t-51 19.5l-52 7v16h218l364 -537v393q0 64 -15.5 89t-57.5 32l-41 7v16
q22 0 63 -0.5t63 -0.5t62 0.5t63 0.5v-16l-41 -7q-41 -7 -56.5 -32t-15.5 -89v-537h-63z" />
    <glyph glyph-name="ncaron" unicode="&#x148;" horiz-adv-x="606" 
d="M350 578h-62l-110 172h9l145 -111l125 111h7zM21 0v15l35 6q30 5 39 16.5t9 41.5v296q0 37 -12.5 49t-51.5 15l-35 3v13l173 41l18 -6q-7 -128 -7 -256q0 118 46.5 191.5t129.5 73.5q67 0 107.5 -38t40.5 -112v-270q0 -31 9 -42t39 -16l35 -6v-15q-24 0 -66 0.5t-66 0.5
t-67 -0.5t-67 -0.5v15l35 6q31 5 40 16t9 42v270q0 63 -19 90.5t-61 27.5q-54 0 -92.5 -64.5t-38.5 -168.5v-156q0 -30 9.5 -41t39.5 -16l35 -6v-15q-24 0 -66.5 0.5t-66.5 0.5t-67 -0.5t-66 -0.5z" />
    <glyph glyph-name="Omacron" unicode="&#x14c;" horiz-adv-x="756" 
d="M239 763v37q72 -4 139 -4q69 0 139 4v-37q-70 4 -138 4t-140 -4zM716 339q0 -157 -97 -255.5t-240 -98.5t-241 98.5t-98 255.5q0 158 97.5 256.5t241.5 98.5q143 0 240 -98.5t97 -256.5zM379 0q108 0 160.5 94.5t52.5 244.5q0 98 -20.5 172t-69.5 121t-123 47
q-110 0 -162.5 -94t-52.5 -246q0 -151 52.5 -245t162.5 -94z" />
    <glyph glyph-name="omacron" unicode="&#x14d;" horiz-adv-x="519" 
d="M123 651v37q72 -4 139 -4q69 0 139 4v-37q-70 4 -138 4t-140 -4zM259 -15q-99 0 -165.5 71t-66.5 186t66.5 186t165.5 71q101 0 167 -71t66 -186t-66 -186t-167 -71zM259 0q124 0 124 242t-124 242q-123 0 -123 -242t123 -242z" />
    <glyph glyph-name="Obreve" unicode="&#x14e;" horiz-adv-x="756" 
d="M509 874q-15 -127 -128 -127q-57 0 -89.5 33.5t-39.5 93.5h4q10 -27 42.5 -43.5t82.5 -16.5t82 16.5t42 43.5h4zM716 339q0 -157 -97 -255.5t-240 -98.5t-241 98.5t-98 255.5q0 158 97.5 256.5t241.5 98.5q143 0 240 -98.5t97 -256.5zM164 339q0 -151 52.5 -245
t162.5 -94q108 0 160.5 94.5t52.5 244.5q0 98 -20.5 172t-69.5 121t-123 47q-110 0 -162.5 -94t-52.5 -246z" />
    <glyph glyph-name="obreve" unicode="&#x14f;" horiz-adv-x="519" 
d="M390 736q-16 -135 -129 -135t-129 135h4q22 -68 125 -68t125 68h4zM492 242q0 -115 -66 -186t-167 -71q-99 0 -165.5 71t-66.5 186t66.5 186t165.5 71q101 0 167 -71t66 -186zM136 242q0 -242 123 -242q124 0 124 242t-124 242q-123 0 -123 -242z" />
    <glyph glyph-name="Ohungarumlaut" unicode="&#x150;" horiz-adv-x="756" 
d="M256 747h-7q57 65 90 125h109v-3q-27 -30 -83 -65t-109 -57zM418 746h-7q57 65 90 125h109v-3q-26 -30 -82 -65t-110 -57zM379 -15q-143 0 -241 98.5t-98 255.5q0 158 97.5 256.5t241.5 98.5q143 0 240 -98.5t97 -256.5q0 -157 -97 -255.5t-240 -98.5zM379 0
q108 0 160.5 94.5t52.5 244.5q0 98 -20.5 172t-69.5 121t-123 47q-110 0 -162.5 -94t-52.5 -246q0 -151 52.5 -245t162.5 -94z" />
    <glyph glyph-name="ohungarumlaut" unicode="&#x151;" horiz-adv-x="519" 
d="M313 578h-6q61 103 83 172h95v-3q-50 -92 -172 -169zM154 578h-6q61 103 83 172h95v-3q-50 -92 -172 -169zM259 -15q-99 0 -165.5 71t-66.5 186t66.5 186t165.5 71q101 0 167 -71t66 -186t-66 -186t-167 -71zM259 0q124 0 124 242t-124 242q-123 0 -123 -242t123 -242z
" />
    <glyph glyph-name="OE" unicode="&#x152;" horiz-adv-x="1032" 
d="M164 339q0 -152 52.5 -246.5t162.5 -94.5q145 0 145 169v345q0 169 -145 169q-110 0 -162.5 -95t-52.5 -247zM635 359h73q45 0 67.5 31.5t50.5 117.5h17q-1 -53 -1 -159t1 -159h-17q-29 91 -50.5 121t-67.5 30h-73v-264q0 -31 14.5 -45t48.5 -14h64q84 0 121.5 41
t88.5 178h20l-11 -237h-491q-52 -18 -111 -18q-143 0 -241 99.5t-98 257.5t98 258t241 100q59 0 111 -18h461l11 -217h-20q-47 121 -81.5 160t-104.5 39h-121v-302z" />
    <glyph glyph-name="oe" unicode="&#x153;" horiz-adv-x="842" 
d="M136 242q0 -242 123 -242q124 0 124 242t-124 242q-123 0 -123 -242zM696 301l2 13q20 170 -80 170q-111 0 -124 -197l202 13v1zM802 113q-67 -127 -193 -127q-51 0 -96.5 26.5t-74.5 75.5q-30 -49 -77 -76t-102 -27q-99 0 -165.5 71t-66.5 186t66.5 186t165.5 71
q55 0 102.5 -27.5t77.5 -77.5q30 50 78 77.5t100 27.5q82 0 133 -46t51 -126q0 -29 -5 -56l-302 2q-1 -11 -1 -33q0 -102 37.5 -160t110.5 -58q92 0 147 98z" />
    <glyph glyph-name="Racute" unicode="&#x154;" horiz-adv-x="696" 
d="M308 747h-7q62 70 90 125h109v-3q-26 -30 -82 -65t-110 -57zM701 0h-130q-44 0 -59 11t-34 47l-135 264q-8 -1 -23 -1q-33 0 -75 2v-233q0 -34 11 -47.5t51 -19.5l52 -7v-16q-30 0 -85 0.5t-84 0.5q-30 0 -85 -0.5t-85 -0.5v16l52 7q40 6 51 19.5t11 47.5v499
q0 34 -11 47.5t-51 19.5l-52 7v16h295q291 0 291 -177q0 -67 -48 -107.5t-117 -54.5q22 -25 46 -68l90 -163q25 -46 40.5 -62t47.5 -23l36 -8v-16zM245 662v-321q56 -2 76 -2q84 0 125 38t41 122q0 91 -41 127t-131 36h-70z" />
    <glyph glyph-name="racute" unicode="&#x155;" horiz-adv-x="436" 
d="M215 578h-6q61 103 83 172h95v-3q-50 -92 -172 -169zM296 15v-15q-24 0 -71 0.5t-71 0.5t-67 -0.5t-66 -0.5v15l35 6q30 5 39 16t9 42v297q0 37 -12.5 48.5t-51.5 14.5l-35 3v13l173 41l18 -6q-8 -117 -8 -297q0 71 12 143q13 76 48.5 121t91.5 45q38 0 59.5 -20.5
t21.5 -54.5q0 -32 -19 -50.5t-48 -18.5q-28 0 -43.5 16t-15.5 42q0 4 1 12t1 10q0 12 -10 12q-20 0 -41 -30.5t-32 -87.5q-13 -68 -13 -139v-111q0 -32 11 -44.5t43 -16.5z" />
    <glyph glyph-name="Rcommaaccent" unicode="&#x156;" horiz-adv-x="696" 
d="M701 0h-130q-44 0 -59 11t-34 47l-135 264q-8 -1 -23 -1q-33 0 -75 2v-233q0 -34 11 -47.5t51 -19.5l52 -7v-16q-30 0 -85 0.5t-84 0.5q-30 0 -85 -0.5t-85 -0.5v16l52 7q40 6 51 19.5t11 47.5v499q0 34 -11 47.5t-51 19.5l-52 7v16h295q291 0 291 -177q0 -67 -48 -107.5
t-117 -54.5q22 -25 46 -68l90 -163q25 -46 40.5 -62t47.5 -23l36 -8v-16zM245 662v-321q56 -2 76 -2q84 0 125 38t41 122q0 91 -41 127t-131 36h-70zM337 -257l-9 14q76 42 76 103q-13 -20 -39 -20q-23 0 -37 14t-14 37q0 24 16.5 40.5t41.5 16.5q28 0 44 -18t16 -46
q0 -90 -95 -141z" />
    <glyph glyph-name="rcommaaccent" unicode="&#x157;" horiz-adv-x="436" 
d="M296 15v-15q-24 0 -71 0.5t-71 0.5t-67 -0.5t-66 -0.5v15l35 6q30 5 39 16t9 42v297q0 37 -12.5 48.5t-51.5 14.5l-35 3v13l173 41l18 -6q-8 -117 -8 -297q0 71 12 143q13 76 48.5 121t91.5 45q38 0 59.5 -20.5t21.5 -54.5q0 -32 -19 -50.5t-48 -18.5q-28 0 -43.5 16
t-15.5 42q0 4 1 12t1 10q0 12 -10 12q-20 0 -41 -30.5t-32 -87.5q-13 -68 -13 -139v-111q0 -32 11 -44.5t43 -16.5zM112 -257l-9 14q76 42 76 103q-13 -20 -39 -20q-23 0 -37 14t-14 37q0 24 16.5 40.5t41.5 16.5q28 0 44.5 -18t16.5 -46q0 -90 -96 -141z" />
    <glyph glyph-name="Rcaron" unicode="&#x158;" horiz-adv-x="696" 
d="M396 747h-75l-107 125h9l151 -74l127 74h7zM701 0h-130q-44 0 -59 11t-34 47l-135 264q-8 -1 -23 -1q-33 0 -75 2v-233q0 -34 11 -47.5t51 -19.5l52 -7v-16q-30 0 -85 0.5t-84 0.5q-30 0 -85 -0.5t-85 -0.5v16l52 7q40 6 51 19.5t11 47.5v499q0 34 -11 47.5t-51 19.5
l-52 7v16h295q291 0 291 -177q0 -67 -48 -107.5t-117 -54.5q22 -25 46 -68l90 -163q25 -46 40.5 -62t47.5 -23l36 -8v-16zM245 662v-321q56 -2 76 -2q84 0 125 38t41 122q0 91 -41 127t-131 36h-70z" />
    <glyph glyph-name="rcaron" unicode="&#x159;" horiz-adv-x="436" 
d="M267 578h-62l-110 172h9l145 -111l125 111h7zM296 15v-15q-24 0 -71 0.5t-71 0.5t-67 -0.5t-66 -0.5v15l35 6q30 5 39 16t9 42v297q0 37 -12.5 48.5t-51.5 14.5l-35 3v13l173 41l18 -6q-8 -117 -8 -297q0 71 12 143q13 76 48.5 121t91.5 45q38 0 59.5 -20.5t21.5 -54.5
q0 -32 -19 -50.5t-48 -18.5q-28 0 -43.5 16t-15.5 42q0 4 1 12t1 10q0 12 -10 12q-20 0 -41 -30.5t-32 -87.5q-13 -68 -13 -139v-111q0 -32 11 -44.5t43 -16.5z" />
    <glyph glyph-name="Sacute" unicode="&#x15a;" horiz-adv-x="581" 
d="M244 747h-7q62 70 90 125h109v-3q-26 -30 -82 -65t-110 -57zM526 183q0 -94 -65 -146t-157 -52q-127 0 -192 68l-32 -64h-10v274h21q29 -143 80.5 -203t132.5 -60q67 0 104.5 35.5t37.5 99.5q0 61 -43.5 94t-128.5 63q-99 36 -149 87t-50 126q0 86 61.5 137.5t150.5 51.5
q108 0 168 -66l32 62h10v-263h-20q-34 134 -75.5 193t-113.5 59q-65 0 -99 -35.5t-34 -86.5q0 -60 43.5 -94.5t134.5 -68.5q45 -17 75 -32.5t59.5 -40t44 -59t14.5 -79.5z" />
    <glyph glyph-name="sacute" unicode="&#x15b;" horiz-adv-x="433" 
d="M194 578h-6q61 103 83 172h95v-3q-50 -92 -172 -169zM393 134q0 -69 -50 -109t-125 -40q-91 0 -143 49l-27 -48h-8v204h19q26 -101 65 -145.5t94 -44.5q45 0 72 23t27 65q0 43 -27.5 66.5t-99.5 49.5q-66 23 -103 57.5t-37 96.5q0 60 48 100.5t120 40.5q73 0 119 -44
l24 43h8v-183h-19q-23 88 -55 128.5t-77 40.5q-46 0 -69.5 -23t-23.5 -59q0 -40 27 -62.5t98 -47.5q143 -50 143 -158z" />
    <glyph glyph-name="Scircumflex" unicode="&#x15c;" horiz-adv-x="581" 
d="M287 822l-126 -75h-7l111 125h75l107 -125h-9zM526 183q0 -94 -65 -146t-157 -52q-127 0 -192 68l-32 -64h-10v274h21q29 -143 80.5 -203t132.5 -60q67 0 104.5 35.5t37.5 99.5q0 61 -43.5 94t-128.5 63q-99 36 -149 87t-50 126q0 86 61.5 137.5t150.5 51.5
q108 0 168 -66l32 62h10v-263h-20q-34 134 -75.5 193t-113.5 59q-65 0 -99 -35.5t-34 -86.5q0 -60 43.5 -94.5t134.5 -68.5q45 -17 75 -32.5t59.5 -40t44 -59t14.5 -79.5z" />
    <glyph glyph-name="scircumflex" unicode="&#x15d;" horiz-adv-x="433" 
d="M211 689l-125 -111h-7l113 172h63l110 -172h-9zM218 -15q-91 0 -143 49l-27 -48h-8v204h19q26 -101 65 -145.5t94 -44.5q45 0 72 23t27 65q0 43 -27.5 66.5t-99.5 49.5q-66 23 -103 57.5t-37 96.5q0 60 48 100.5t120 40.5q73 0 119 -44l24 43h8v-183h-19
q-23 88 -55 128.5t-77 40.5q-46 0 -69.5 -23t-23.5 -59q0 -40 27 -62.5t98 -47.5q143 -50 143 -158q0 -69 -50 -109t-125 -40z" />
    <glyph glyph-name="Scedilla" unicode="&#x15e;" horiz-adv-x="581" 
d="M251 -244q-52 0 -96 27l8 12q30 -15 62 -15q30 0 48 20t18 56q0 58 -45 58q-17 0 -35 -8l-10 7l25 79q-69 15 -114 61l-32 -64h-10v274h21q29 -143 80.5 -203t132.5 -60q67 0 104.5 35.5t37.5 99.5q0 61 -43.5 94t-128.5 63q-99 36 -149 87t-50 126q0 86 61.5 137.5
t150.5 51.5q108 0 168 -66l32 62h10v-263h-20q-34 134 -75.5 193t-113.5 59q-65 0 -99 -35.5t-34 -86.5q0 -60 43.5 -94.5t134.5 -68.5q45 -17 75 -32.5t59.5 -40t44 -59t14.5 -79.5q0 -94 -65 -146t-157 -52q-31 0 -63 5l-14 -67q25 10 52 10q38 0 64 -20.5t26 -60.5
q0 -45 -34.5 -70.5t-83.5 -25.5z" />
    <glyph glyph-name="scedilla" unicode="&#x15f;" horiz-adv-x="433" 
d="M184 -244q-52 0 -96 27l8 12q30 -15 62 -15q30 0 48 20t18 56q0 58 -45 58q-17 0 -35 -8l-10 7l24 78q-48 10 -83 43l-27 -48h-8v204h19q26 -101 65 -145.5t94 -44.5q45 0 72 23t27 65q0 43 -27.5 66.5t-99.5 49.5q-66 23 -103 57.5t-37 96.5q0 60 48 100.5t120 40.5
q73 0 119 -44l24 43h8v-183h-19q-23 88 -55 128.5t-77 40.5q-46 0 -69.5 -23t-23.5 -59q0 -40 27 -62.5t98 -47.5q143 -50 143 -158q0 -69 -50 -109t-125 -40q-24 0 -45 3l-13 -65q25 10 52 10q38 0 64 -20.5t26 -60.5q0 -45 -34.5 -70.5t-83.5 -25.5z" />
    <glyph glyph-name="Scaron" unicode="&#x160;" horiz-adv-x="581" 
d="M339 747h-75l-107 125h9l151 -74l127 74h7zM526 183q0 -94 -65 -146t-157 -52q-127 0 -192 68l-32 -64h-10v274h21q29 -143 80.5 -203t132.5 -60q67 0 104.5 35.5t37.5 99.5q0 61 -43.5 94t-128.5 63q-99 36 -149 87t-50 126q0 86 61.5 137.5t150.5 51.5q108 0 168 -66
l32 62h10v-263h-20q-34 134 -75.5 193t-113.5 59q-65 0 -99 -35.5t-34 -86.5q0 -60 43.5 -94.5t134.5 -68.5q45 -17 75 -32.5t59.5 -40t44 -59t14.5 -79.5z" />
    <glyph glyph-name="scaron" unicode="&#x161;" horiz-adv-x="433" 
d="M251 578h-62l-110 172h9l145 -111l125 111h7zM393 134q0 -69 -50 -109t-125 -40q-91 0 -143 49l-27 -48h-8v204h19q26 -101 65 -145.5t94 -44.5q45 0 72 23t27 65q0 43 -27.5 66.5t-99.5 49.5q-66 23 -103 57.5t-37 96.5q0 60 48 100.5t120 40.5q73 0 119 -44l24 43h8
v-183h-19q-23 88 -55 128.5t-77 40.5q-46 0 -69.5 -23t-23.5 -59q0 -40 27 -62.5t98 -47.5q143 -50 143 -158z" />
    <glyph glyph-name="Tcommaaccent" unicode="&#x162;" horiz-adv-x="673" 
d="M508 16v-16q-30 0 -86 0.5t-85 0.5q-30 0 -86 -0.5t-86 -0.5v16l52 7q40 6 52 20.5t12 48.5v569h-66q-63 0 -97.5 -42t-76.5 -168h-16l7 228h609l7 -228h-16q-42 126 -76.5 168t-97.5 42h-66v-569q0 -34 12 -48.5t52 -20.5zM301 -257l-9 14q76 42 76 103q-13 -20 -39 -20
q-23 0 -37 14t-14 37q0 24 16.5 40.5t41.5 16.5q28 0 44 -18t16 -46q0 -90 -95 -141z" />
    <glyph glyph-name="tcommaaccent" unicode="&#x163;" horiz-adv-x="378" 
d="M353 120q-15 -70 -46.5 -101t-90.5 -31q-57 0 -90.5 30.5t-33.5 94.5v331l-97 14v17l68 10q33 4 49 19t23 51l15 77h47l-6 -148h161v-26l-161 -7v-338q0 -52 15.5 -72t46.5 -20q58 0 82 102zM171 -257l-9 14q76 42 76 103q-13 -20 -39 -20q-23 0 -37 14t-14 37
q0 24 16.5 40.5t41.5 16.5q28 0 44.5 -18t16.5 -46q0 -90 -96 -141z" />
    <glyph glyph-name="Tcaron" unicode="&#x164;" horiz-adv-x="673" 
d="M373 747h-75l-107 125h9l151 -74l127 74h7zM508 16v-16q-30 0 -86 0.5t-85 0.5q-30 0 -86 -0.5t-86 -0.5v16l52 7q40 6 52 20.5t12 48.5v569h-66q-63 0 -97.5 -42t-76.5 -168h-16l7 228h609l7 -228h-16q-42 126 -76.5 168t-97.5 42h-66v-569q0 -34 12 -48.5t52 -20.5z
" />
    <glyph glyph-name="tcaron" unicode="&#x165;" horiz-adv-x="378" 
d="M284 547l-9 14q76 42 76 103q-13 -20 -39 -20q-23 0 -37 14t-14 37q0 24 16.5 40.5t41.5 16.5q28 0 44.5 -18t16.5 -46q0 -90 -96 -141zM216 -12q-57 0 -90.5 30.5t-33.5 94.5v331l-97 14v17l68 10q33 4 49 19t23 51l15 77h47l-6 -148h161v-26l-161 -7v-338
q0 -52 15.5 -72t46.5 -20q58 0 82 102l18 -3q-15 -70 -46.5 -101t-90.5 -31z" />
    <glyph glyph-name="Tbar" unicode="&#x166;" horiz-adv-x="673" 
d="M508 16v-16q-30 0 -86 0.5t-85 0.5q-30 0 -86 -0.5t-86 -0.5v16l52 7q40 6 52 20.5t12 48.5v232h-126v27h126v310h-66q-63 0 -97.5 -42t-76.5 -168h-16l7 228h609l7 -228h-16q-42 126 -76.5 168t-97.5 42h-66v-310h126v-27h-126v-232q0 -34 12 -48.5t52 -20.5z" />
    <glyph glyph-name="tbar" unicode="&#x167;" horiz-adv-x="378" 
d="M92 277v167l-97 14v17l68 10q33 4 49 19t23 51l15 77h47l-6 -148h161v-26l-161 -7v-174h132v-22h-132v-142q0 -52 15.5 -72t46.5 -20q58 0 82 102l18 -3q-15 -70 -46.5 -101t-90.5 -31q-57 0 -90.5 30.5t-33.5 94.5v142h-73v22h73z" />
    <glyph glyph-name="Utilde" unicode="&#x168;" horiz-adv-x="771" 
d="M300 750l-4 -2q-17 25 -17 55q0 29 19 47.5t50 18.5q30 0 77.5 -30.5t64.5 -30.5q19 0 29 10.5t14 38.5h4q0 -110 -74 -110q-29 0 -75 30.5t-63 30.5q-29 0 -29 -29q0 -16 4 -29zM648 237q0 -118 -64 -185t-196 -67q-123 0 -191 56.5t-68 195.5v352q0 34 -11.5 47.5
t-51.5 19.5l-51 7v16q30 0 85 -0.5t84 -0.5q30 0 85 0.5t84 0.5v-16l-51 -7q-40 -6 -51 -19.5t-11 -47.5v-353q0 -117 47 -164.5t139 -47.5q100 0 149 55.5t49 157.5v298q0 64 -15.5 89t-57.5 32l-41 7v16q22 0 63 -0.5t63 -0.5t62 0.5t63 0.5v-16l-41 -7q-42 -7 -57 -31.5
t-15 -89.5v-298z" />
    <glyph glyph-name="utilde" unicode="&#x169;" horiz-adv-x="562" 
d="M149 613l-4 -2q-17 25 -17 55q0 28 19 47t50 19q30 0 77.5 -30.5t64.5 -30.5q19 0 29 10t14 38h4q0 -109 -74 -109q-29 0 -75 30.5t-63 30.5q-29 0 -29 -29q0 -16 4 -29zM381 216q0 -108 -40 -169.5t-124 -61.5q-65 0 -104 39.5t-39 117.5v263q0 28 -7.5 41t-33.5 17
l-43 6v15h186l-3 -85v-262q0 -69 20 -95t59 -26q48 0 81.5 51.5t33.5 148.5v189q0 29 -7.5 41.5t-33.5 16.5l-43 6v15h187l-4 -89v-316q0 -29 7.5 -41.5t34.5 -16.5l42 -6v-15h-156l-13 10v206z" />
    <glyph glyph-name="Umacron" unicode="&#x16a;" horiz-adv-x="771" 
d="M268 763v37q72 -4 139 -4q69 0 139 4v-37q-70 4 -138 4t-140 -4zM648 237q0 -118 -64 -185t-196 -67q-123 0 -191 56.5t-68 195.5v352q0 34 -11.5 47.5t-51.5 19.5l-51 7v16q30 0 85 -0.5t84 -0.5q30 0 85 0.5t84 0.5v-16l-51 -7q-40 -6 -51 -19.5t-11 -47.5v-353
q0 -117 47 -164.5t139 -47.5q100 0 149 55.5t49 157.5v298q0 64 -15.5 89t-57.5 32l-41 7v16q22 0 63 -0.5t63 -0.5t62 0.5t63 0.5v-16l-41 -7q-42 -7 -57 -31.5t-15 -89.5v-298z" />
    <glyph glyph-name="umacron" unicode="&#x16b;" horiz-adv-x="562" 
d="M122 651v37q72 -4 139 -4q69 0 139 4v-37q-70 4 -138 4t-140 -4zM381 216q0 -108 -40 -169.5t-124 -61.5q-65 0 -104 39.5t-39 117.5v263q0 28 -7.5 41t-33.5 17l-43 6v15h186l-3 -85v-262q0 -69 20 -95t59 -26q48 0 81.5 51.5t33.5 148.5v189q0 29 -7.5 41.5t-33.5 16.5
l-43 6v15h187l-4 -89v-316q0 -29 7.5 -41.5t34.5 -16.5l42 -6v-15h-156l-13 10v206z" />
    <glyph glyph-name="Ubreve" unicode="&#x16c;" horiz-adv-x="771" 
d="M542 874q-15 -127 -128 -127q-57 0 -89.5 33.5t-39.5 93.5h4q10 -27 42.5 -43.5t82.5 -16.5t82 16.5t42 43.5h4zM648 237q0 -118 -64 -185t-196 -67q-123 0 -191 56.5t-68 195.5v352q0 34 -11.5 47.5t-51.5 19.5l-51 7v16q30 0 85 -0.5t84 -0.5q30 0 85 0.5t84 0.5v-16
l-51 -7q-40 -6 -51 -19.5t-11 -47.5v-353q0 -117 47 -164.5t139 -47.5q100 0 149 55.5t49 157.5v298q0 64 -15.5 89t-57.5 32l-41 7v16q22 0 63 -0.5t63 -0.5t62 0.5t63 0.5v-16l-41 -7q-42 -7 -57 -31.5t-15 -89.5v-298z" />
    <glyph glyph-name="ubreve" unicode="&#x16d;" horiz-adv-x="562" 
d="M394 736q-16 -135 -129 -135t-129 135h4q22 -68 125 -68t125 68h4zM381 216q0 -108 -40 -169.5t-124 -61.5q-65 0 -104 39.5t-39 117.5v263q0 28 -7.5 41t-33.5 17l-43 6v15h186l-3 -85v-262q0 -69 20 -95t59 -26q48 0 81.5 51.5t33.5 148.5v189q0 29 -7.5 41.5
t-33.5 16.5l-43 6v15h187l-4 -89v-316q0 -29 7.5 -41.5t34.5 -16.5l42 -6v-15h-156l-13 10v206z" />
    <glyph glyph-name="Uring" unicode="&#x16e;" horiz-adv-x="771" 
d="M508 822q0 -40 -28 -67t-72 -28q-43 0 -71 27.5t-28 67.5q0 39 28 66.5t71 27.5t71.5 -27.5t28.5 -66.5zM408 741q34 0 52 23.5t18 57.5q0 33 -18 56.5t-52 23.5q-33 0 -51 -23.5t-18 -56.5q0 -34 18 -57.5t51 -23.5zM388 -15q-123 0 -191 56.5t-68 195.5v352
q0 34 -11.5 47.5t-51.5 19.5l-51 7v16q30 0 85 -0.5t84 -0.5q30 0 85 0.5t84 0.5v-16l-51 -7q-40 -6 -51 -19.5t-11 -47.5v-353q0 -117 47 -164.5t139 -47.5q100 0 149 55.5t49 157.5v298q0 64 -15.5 89t-57.5 32l-41 7v16q22 0 63 -0.5t63 -0.5t62 0.5t63 0.5v-16l-41 -7
q-42 -7 -57 -31.5t-15 -89.5v-298q0 -118 -64 -185t-196 -67z" />
    <glyph glyph-name="uring" unicode="&#x16f;" horiz-adv-x="562" 
d="M358 653q0 -40 -27.5 -67t-71.5 -28q-43 0 -71 27.5t-28 67.5t28 67t71 27q44 0 71.5 -27t27.5 -67zM259 573q34 0 52 23t18 57q0 33 -18 56t-52 23q-33 0 -51.5 -23t-18.5 -56q0 -34 18 -57t52 -23zM381 216q0 -108 -40 -169.5t-124 -61.5q-65 0 -104 39.5t-39 117.5
v263q0 28 -7.5 41t-33.5 17l-43 6v15h186l-3 -85v-262q0 -69 20 -95t59 -26q48 0 81.5 51.5t33.5 148.5v189q0 29 -7.5 41.5t-33.5 16.5l-43 6v15h187l-4 -89v-316q0 -29 7.5 -41.5t34.5 -16.5l42 -6v-15h-156l-13 10v206z" />
    <glyph glyph-name="Uhungarumlaut" unicode="&#x170;" horiz-adv-x="771" 
d="M303 747h-7q57 65 90 125h109v-3q-27 -30 -83 -65t-109 -57zM465 746h-7q57 65 90 125h109v-3q-26 -30 -82 -65t-110 -57zM388 -15q-123 0 -191 56.5t-68 195.5v352q0 34 -11.5 47.5t-51.5 19.5l-51 7v16q30 0 85 -0.5t84 -0.5q30 0 85 0.5t84 0.5v-16l-51 -7
q-40 -6 -51 -19.5t-11 -47.5v-353q0 -117 47 -164.5t139 -47.5q100 0 149 55.5t49 157.5v298q0 64 -15.5 89t-57.5 32l-41 7v16q22 0 63 -0.5t63 -0.5t62 0.5t63 0.5v-16l-41 -7q-42 -7 -57 -31.5t-15 -89.5v-298q0 -118 -64 -185t-196 -67z" />
    <glyph glyph-name="uhungarumlaut" unicode="&#x171;" horiz-adv-x="562" 
d="M313 578h-6q61 103 83 172h95v-3q-50 -92 -172 -169zM154 578h-6q61 103 83 172h95v-3q-50 -92 -172 -169zM381 216q0 -108 -40 -169.5t-124 -61.5q-65 0 -104 39.5t-39 117.5v263q0 28 -7.5 41t-33.5 17l-43 6v15h186l-3 -85v-262q0 -69 20 -95t59 -26q48 0 81.5 51.5
t33.5 148.5v189q0 29 -7.5 41.5t-33.5 16.5l-43 6v15h187l-4 -89v-316q0 -29 7.5 -41.5t34.5 -16.5l42 -6v-15h-156l-13 10v206z" />
    <glyph glyph-name="Uogonek" unicode="&#x172;" horiz-adv-x="771" 
d="M489 -242q-48 0 -76 23t-28 63q0 36 20.5 62.5t65.5 63.5q40 31 78 67q-61 -51 -162 -51q-122 0 -190 56.5t-68 194.5v352q0 34 -11.5 47.5t-51.5 19.5l-51 7v16q30 0 85 -0.5t84 -0.5q30 0 85 0.5t84 0.5v-16l-51 -7q-40 -6 -51 -19.5t-11 -47.5v-353q0 -117 47 -164.5
t139 -47.5q100 0 149 55.5t49 157.5v298q0 64 -15.5 89t-57.5 32l-41 7v16q22 0 63 -0.5t63 -0.5t62 0.5t63 0.5v-16l-41 -7q-42 -7 -57 -31.5t-15 -89.5v-298q0 -120 -69 -189q-9 -9 -41.5 -39t-44 -44t-25 -44.5t-13.5 -65.5q0 -30 16 -47.5t44 -17.5t49.5 18.5t45.5 58.5
l14 -7q-25 -50 -55.5 -76t-79.5 -26z" />
    <glyph glyph-name="uogonek" unicode="&#x173;" horiz-adv-x="562" 
d="M416 -242q-48 0 -76 23t-28 63q0 76 84 122q57 31 115 40q-111 -6 -117 -6l-13 10v206q0 -108 -40 -169.5t-124 -61.5q-65 0 -104 39.5t-39 117.5v263q0 28 -7.5 41t-33.5 17l-43 6v15h186l-3 -85v-262q0 -69 20 -95t59 -26q48 0 81.5 51.5t33.5 148.5v189
q0 29 -7.5 41.5t-33.5 16.5l-43 6v15h187l-4 -89v-316q0 -29 7.5 -41.5t34.5 -16.5l42 -6v-15q-70 0 -119 -41t-49 -104q0 -30 16 -47.5t43 -17.5q29 0 50.5 18.5t45.5 58.5l14 -7q-25 -50 -55.5 -76t-79.5 -26z" />
    <glyph glyph-name="Wcircumflex" unicode="&#x174;" horiz-adv-x="1031" 
d="M536 822l-126 -75h-7l111 125h75l107 -125h-9zM384 122l-33 -127h-50l-182 562q-18 55 -36 76t-52 25l-36 5v16q57 -1 172 -1q114 0 172 1v-16l-57 -7q-72 -9 -50 -79l134 -443l156 549h52l181 -549l112 377q19 53 15 83.5t-19 42.5t-50 18l-43 8v16q45 -1 134 -1t133 1
v-15l-35 -8q-44 -10 -67 -40.5t-47 -111.5l-115 -384l-33 -125h-51l-185 545z" />
    <glyph glyph-name="wcircumflex" unicode="&#x175;" horiz-adv-x="758" 
d="M381 689l-125 -111h-7l113 172h63l110 -172h-9zM372 362l-107 -367h-39l-133 393q-14 40 -30 57t-40 20l-28 4v15q46 -1 136 -1q91 0 136 1v-15l-37 -5q-31 -4 -37 -27.5t7 -61.5l80 -264l110 377h42l116 -377l75 232q14 45 14 72q0 40 -57 48l-31 5v16q36 -1 107 -1
t107 1v-15l-29 -6q-32 -7 -51 -32.5t-42 -95.5l-112 -340h-40z" />
    <glyph glyph-name="Ycircumflex" unicode="&#x176;" horiz-adv-x="711" 
d="M360 822l-126 -75h-7l111 125h75l107 -125h-9zM523 0q-29 0 -85 0.5t-86 0.5t-86 -0.5t-86 -0.5v16l52 7q40 6 52 20.5t12 48.5v174l-176 317q-22 39 -41 55t-47 20l-36 5v16q57 -1 173 -1q114 0 172 1v-16l-57 -7q-71 -8 -35 -76l151 -278l118 210q37 67 37 98
q0 36 -57 46l-40 7v16q43 -1 129 -1t129 1v-15l-31 -7q-38 -9 -68 -39.5t-78 -112.5l-132 -227v-186q0 -34 12.5 -48.5t52.5 -20.5l51 -7v-16z" />
    <glyph glyph-name="ycircumflex" unicode="&#x177;" horiz-adv-x="531" 
d="M260 689l-125 -111h-7l113 172h63l110 -172h-9zM296 31q-33 -89 -61 -145t-53.5 -83t-46 -36t-47.5 -9q-41 0 -66 22t-25 59q0 30 19.5 49.5t50.5 19.5q27 0 43.5 -16t16.5 -40q0 -23 -14.5 -39.5t-14.5 -20.5q0 -9 12 -9q70 0 144 197l6 16l-167 392q-18 40 -31.5 56
t-36.5 20l-30 5v15q46 -1 135 -1q85 0 131 1v-15l-36 -4q-21 -2 -29 -14t-6 -29t12 -44l104 -269l90 244q16 45 16 67q0 19 -11 29t-40 14l-33 5v16q35 -1 104 -1q68 0 104 1v-15l-24 -5q-36 -7 -55 -31t-43 -87z" />
    <glyph glyph-name="Ydieresis" unicode="&#x178;" horiz-adv-x="711" 
d="M556 805q0 -24 -17 -41t-42 -17q-24 0 -41 17t-17 41t17 41t41 17q25 0 42 -17t17 -41zM353 805q0 -24 -16.5 -41t-41.5 -17t-41.5 17t-16.5 41t16.5 41t41.5 17t41.5 -17t16.5 -41zM523 0q-29 0 -85 0.5t-86 0.5t-86 -0.5t-86 -0.5v16l52 7q40 6 52 20.5t12 48.5v174
l-176 317q-22 39 -41 55t-47 20l-36 5v16q57 -1 173 -1q114 0 172 1v-16l-57 -7q-71 -8 -35 -76l151 -278l118 210q37 67 37 98q0 36 -57 46l-40 7v16q43 -1 129 -1t129 1v-15l-31 -7q-38 -9 -68 -39.5t-78 -112.5l-132 -227v-186q0 -34 12.5 -48.5t52.5 -20.5l51 -7v-16z
" />
    <glyph glyph-name="Zacute" unicode="&#x179;" horiz-adv-x="636" 
d="M293 747h-7q62 70 90 125h109v-3q-26 -30 -82 -65t-110 -57zM582 0h-547v18l421 643h-186q-68 0 -110 -42.5t-85 -168.5h-21l9 229h527v-18l-422 -643h193q74 0 119.5 45.5t90.5 180.5h21z" />
    <glyph glyph-name="zacute" unicode="&#x17a;" horiz-adv-x="486" 
d="M204 578h-6q61 103 83 172h95v-3q-50 -92 -172 -169zM438 0h-403v18l291 447h-104q-56 0 -89.5 -36.5t-66.5 -143.5h-17l8 199h382v-19l-288 -447h111q62 0 94 37t73 151h17z" />
    <glyph glyph-name="Zdotaccent" unicode="&#x17b;" horiz-adv-x="636" 
d="M387 805q0 -24 -17 -41t-41 -17q-25 0 -42 17t-17 41t17 41t42 17q24 0 41 -17t17 -41zM582 0h-547v18l421 643h-186q-68 0 -110 -42.5t-85 -168.5h-21l9 229h527v-18l-422 -643h193q74 0 119.5 45.5t90.5 180.5h21z" />
    <glyph glyph-name="zdotaccent" unicode="&#x17c;" horiz-adv-x="486" 
d="M305 672q0 -25 -17 -42t-41 -17q-25 0 -42 17t-17 42q0 23 17 40t42 17q24 0 41 -17t17 -40zM35 0v18l291 447h-104q-56 0 -89.5 -36.5t-66.5 -143.5h-17l8 199h382v-19l-288 -447h111q62 0 94 37t73 151h17l-8 -206h-403z" />
    <glyph glyph-name="Zcaron" unicode="&#x17d;" horiz-adv-x="636" 
d="M363 747h-75l-107 125h9l151 -74l127 74h7zM582 0h-547v18l421 643h-186q-68 0 -110 -42.5t-85 -168.5h-21l9 229h527v-18l-422 -643h193q74 0 119.5 45.5t90.5 180.5h21z" />
    <glyph glyph-name="zcaron" unicode="&#x17e;" horiz-adv-x="486" 
d="M279 578h-62l-110 172h9l145 -111l125 111h7zM35 0v18l291 447h-104q-56 0 -89.5 -36.5t-66.5 -143.5h-17l8 199h382v-19l-288 -447h111q62 0 94 37t73 151h17l-8 -206h-403z" />
    <glyph glyph-name="florin" unicode="&#x192;" horiz-adv-x="434" 
d="M28 -244q-63 0 -96.5 26t-33.5 66q0 30 18.5 50t49.5 20q28 0 44.5 -16t16.5 -41q0 -21 -9.5 -34t-19.5 -20.5t-10 -15.5t12 -14t30 -6q41 0 60.5 35t19.5 122v391l-101 14v16l101 12v77q0 110 56 161t133 51q67 0 104 -30t37 -73q0 -30 -18 -50t-49 -20q-26 0 -44 16
t-18 41q0 18 7.5 31t16 18t16 11.5t7.5 13.5q0 11 -15.5 19t-42.5 8q-50 0 -71.5 -34.5t-21.5 -111.5q0 -21 0.5 -68t0.5 -65h128v-25l-128 -6v-372q0 -52 -17 -92t-45 -62t-58 -32.5t-60 -10.5z" />
    <glyph glyph-name="Gcaron" unicode="&#x1e6;" horiz-adv-x="732" 
d="M410 747h-75l-107 125h9l151 -74l127 74h7zM617 -13l-47 83q-68 -85 -203 -85t-231 94t-96 259q0 84 28.5 153t76 112.5t106.5 67t123 23.5q126 0 198 -77l40 72h10v-277h-19q-49 153 -100.5 210t-126.5 57q-101 0 -155.5 -85.5t-54.5 -254.5q0 -168 53.5 -253.5
t151.5 -85.5q75 0 112 43.5t37 114.5v66q0 29 -12 43.5t-47 19.5l-61 9v16q57 -1 162 -1q113 0 170 1v-16l-58 -9q-30 -5 -41 -19.5t-11 -43.5v-96l4 -141h-9z" />
    <glyph glyph-name="gcaron" unicode="&#x1e7;" horiz-adv-x="519" 
d="M264 578h-62l-110 172h9l145 -111l125 111h7zM131 331q0 -69 21.5 -111t64.5 -42q85 0 85 153t-86 153q-85 0 -85 -153zM248 -243q-106 0 -173.5 34.5t-67.5 97.5q0 39 21.5 61t56.5 22q21 0 32 -10t9 -26q-27 0 -42 -15t-15 -41q0 -50 44.5 -79t134.5 -29
q89 0 140.5 32.5t51.5 87.5q0 41 -41.5 56t-139.5 19q-204 7 -204 112q0 91 154 91q-74 0 -126 47t-52 119q0 71 50 117t132 46q77 0 129 -44q49 46 108 46q33 0 52 -17t19 -46q0 -27 -16 -41.5t-40 -14.5q-23 0 -36.5 13t-13.5 34q0 7 2 17t2 14q0 9 -12 9q-23 0 -52 -26
q45 -47 45 -116q0 -75 -51.5 -122t-141.5 -47q-98 0 -98 -40q0 -27 35.5 -37t125.5 -14q111 -4 168 -35t57 -110t-68.5 -122t-178.5 -43z" />
    <glyph glyph-name="Aringacute" unicode="&#x1fa;" horiz-adv-x="715" 
d="M294 922h-7q62 64 90 111h109v-3q-26 -26 -82.5 -57.5t-109.5 -50.5zM456 810q0 -37 -27 -63t-68 -27q-41 0 -67.5 26.5t-26.5 63.5t26.5 63t67.5 26t68 -26t27 -63zM361 733q33 0 50 22.5t17 54.5t-17 54t-50 22q-32 0 -48.5 -22t-16.5 -54q0 -33 16.5 -55t48.5 -22z
M721 0q-29 0 -81 0.5t-80 0.5t-80 -0.5t-81 -0.5v16l57 7q38 5 44.5 25.5t-9.5 53.5l-45 118h-263l-21 -54q-30 -74 -25 -103t55 -38l50 -9v-16q-22 0 -60.5 0.5t-59.5 0.5q-22 0 -63.5 -0.5t-63.5 -0.5v15l33 9q39 10 61 39t53 110l153 396l40 115h52l217 -560
q24 -61 38.5 -80t44.5 -23l34 -5v-16zM315 567l-124 -326h247z" />
    <glyph glyph-name="aringacute" unicode="&#x1fb;" horiz-adv-x="507" 
d="M167 760h-7q63 72 90 124h109v-3q-26 -30 -82 -64.5t-110 -56.5zM324 641q0 -39 -26 -64.5t-68 -26.5q-41 0 -67.5 26t-26.5 65q0 37 26.5 63t67.5 26t67.5 -26t26.5 -63zM230 565q33 0 50 22t17 54t-17 53.5t-50 21.5q-32 0 -49.5 -22t-17.5 -53q0 -32 17.5 -54
t49.5 -22zM213 21q42 0 70.5 30.5t28.5 90.5v103q-95 -14 -136.5 -41.5t-41.5 -94.5q0 -40 21 -64t58 -24zM326 94q-16 -49 -58.5 -79t-99.5 -30q-64 0 -100 29t-36 83q0 134 281 163v102q0 66 -19.5 93t-71.5 27q-40 0 -65.5 -15t-25.5 -34q0 -12 12.5 -21t25 -21.5
t12.5 -33.5q0 -24 -18 -39.5t-45 -15.5q-30 0 -47 19.5t-17 52.5q0 53 49.5 88t119.5 35q88 0 136.5 -40t48.5 -119l-1 -263q0 -56 35 -56q21 0 32.5 22t14.5 77h16q-2 -70 -22.5 -100t-67.5 -30q-43 0 -64 24t-25 82z" />
    <glyph glyph-name="AEacute" unicode="&#x1fc;" horiz-adv-x="970" 
d="M453 747h-7q62 70 90 125h109v-3q-26 -30 -82 -65t-110 -57zM462 279v378l-209 -378h209zM573 359h72q46 0 68.5 31.5t50.5 117.5h17q-1 -53 -1 -159t1 -159h-17q-29 91 -51 121t-68 30h-72v-264q0 -31 14.5 -45t48.5 -14h63q85 0 122.5 41t88.5 178h20l-11 -237h-581v16
l65 9q35 5 47 19.5t12 43.5v170h-221l-82 -148q-25 -43 -18 -62.5t55 -25.5l46 -6v-16q-22 0 -65.5 0.5t-65.5 0.5q-21 0 -65 -0.5t-66 -0.5v15l34 6q79 14 125 98l231 413q32 59 32 82q0 18 -11.5 27t-37.5 13l-65 9v16h601l11 -217h-20q-47 121 -81.5 160t-104.5 39h-121
v-302z" />
    <glyph glyph-name="aeacute" unicode="&#x1fd;" horiz-adv-x="765" 
d="M336 578h-6q61 103 83 172h95v-3q-50 -92 -172 -169zM620 301l2 13q20 170 -81 170q-111 0 -124 -197l203 13v1zM213 21q42 0 70.5 30.5t28.5 90.5v103q-95 -14 -136.5 -41.5t-41.5 -94.5q0 -40 21 -64t58 -24zM725 113q-67 -127 -193 -127q-59 0 -109 30t-79 86
q-27 -52 -73 -84.5t-103 -32.5q-64 0 -100 29t-36 83q0 134 281 163v102q0 66 -19.5 93t-71.5 27q-40 0 -65.5 -15t-25.5 -34q0 -10 8 -17.5t17 -12t17 -16.5t8 -30q0 -24 -18 -39.5t-45 -15.5q-30 0 -47 19t-17 52q0 53 49.5 88.5t120.5 35.5q114 0 155 -81q63 83 161 83
q83 0 134 -46t51 -126q0 -29 -5 -56l-303 2q-1 -11 -1 -33q0 -102 37.5 -160t110.5 -58q92 0 147 98z" />
    <glyph glyph-name="Oslashacute" unicode="&#x1fe;" horiz-adv-x="756" 
d="M318 747h-7q62 70 90 125h109v-3q-26 -30 -82 -65t-110 -57zM716 339q0 -157 -97 -255.5t-240 -98.5q-127 0 -219 78l-61 -73l-19 15l62 74q-102 100 -102 260q0 158 97.5 256.5t241.5 98.5q126 0 216 -76l59 71l19 -15l-60 -73q103 -100 103 -262zM379 679
q-110 0 -162.5 -94t-52.5 -246q0 -121 31 -200l356 425q-56 115 -172 115zM379 0q108 0 160.5 94.5t52.5 244.5q0 121 -32 202l-356 -425q56 -116 175 -116z" />
    <glyph glyph-name="oslashacute" unicode="&#x1ff;" horiz-adv-x="519" 
d="M200 578h-6q61 103 83 172h95v-3q-50 -92 -172 -169zM492 242q0 -115 -66 -186t-167 -71q-91 0 -153 59l-46 -54l-19 15l48 56q-62 70 -62 181q0 115 66.5 186t165.5 71q92 0 154 -59l45 53l19 -15l-47 -55q62 -70 62 -181zM146 125l221 261q-28 98 -108 98
q-123 0 -123 -242q0 -68 10 -117zM259 0q124 0 124 242q0 65 -9 116l-222 -259q28 -99 107 -99z" />
    <glyph glyph-name="Scommaaccent" unicode="&#x218;" horiz-adv-x="581" 
d="M526 183q0 -94 -65 -146t-157 -52q-127 0 -192 68l-32 -64h-10v274h21q29 -143 80.5 -203t132.5 -60q67 0 104.5 35.5t37.5 99.5q0 61 -43.5 94t-128.5 63q-99 36 -149 87t-50 126q0 86 61.5 137.5t150.5 51.5q108 0 168 -66l32 62h10v-263h-20q-34 134 -75.5 193
t-113.5 59q-65 0 -99 -35.5t-34 -86.5q0 -60 43.5 -94.5t134.5 -68.5q45 -17 75 -32.5t59.5 -40t44 -59t14.5 -79.5zM254 -257l-9 14q76 42 76 103q-13 -20 -39 -20q-23 0 -37 14t-14 37q0 24 16.5 40.5t41.5 16.5q28 0 44 -18t16 -46q0 -90 -95 -141z" />
    <glyph glyph-name="scommaaccent" unicode="&#x219;" horiz-adv-x="433" 
d="M393 134q0 -69 -50 -109t-125 -40q-91 0 -143 49l-27 -48h-8v204h19q26 -101 65 -145.5t94 -44.5q45 0 72 23t27 65q0 43 -27.5 66.5t-99.5 49.5q-66 23 -103 57.5t-37 96.5q0 60 48 100.5t120 40.5q73 0 119 -44l24 43h8v-183h-19q-23 88 -55 128.5t-77 40.5
q-46 0 -69.5 -23t-23.5 -59q0 -40 27 -62.5t98 -47.5q143 -50 143 -158zM168 -257l-9 14q76 42 76 103q-13 -20 -39 -20q-23 0 -37 14t-14 37q0 24 16.5 40.5t41.5 16.5q28 0 44.5 -18t16.5 -46q0 -90 -96 -141z" />
    <glyph glyph-name="dotlessj" unicode="&#x237;" horiz-adv-x="324" 
d="M232 -47q0 -52 -18 -92t-47 -62t-60 -32.5t-62 -10.5q-62 0 -95.5 26t-33.5 66q0 30 18.5 50t49.5 20q28 0 44.5 -16t16.5 -41q0 -21 -9.5 -34t-19.5 -20.5t-10 -15.5t11.5 -14t29.5 -6q43 0 65 35.5t22 121.5v445q0 37 -15 50t-55 16l-37 3v13l193 43l19 -6
q-7 -55 -7 -117v-422z" />
    <glyph glyph-name="circumflex" unicode="&#x2c6;" horiz-adv-x="525" 
d="M255 689l-125 -111h-7l113 172h63l110 -172h-9z" />
    <glyph glyph-name="caron" unicode="&#x2c7;" horiz-adv-x="525" 
d="M295 578h-62l-110 172h9l145 -111l125 111h7z" />
    <glyph glyph-name="breve" unicode="&#x2d8;" horiz-adv-x="525" 
d="M392 736q-16 -135 -129 -135t-129 135h4q22 -68 125 -68t125 68h4z" />
    <glyph glyph-name="dotaccent" unicode="&#x2d9;" horiz-adv-x="554" 
d="M328 672q0 -25 -17 -42t-41 -17q-25 0 -42 17t-17 42q0 23 17 40t42 17q24 0 41 -17t17 -40z" />
    <glyph glyph-name="ring" unicode="&#x2da;" horiz-adv-x="525" 
d="M361 653q0 -40 -27.5 -67t-71.5 -28q-43 0 -71 27.5t-28 67.5t28 67t71 27q44 0 71.5 -27t27.5 -67zM192 653q0 -34 18 -57t52 -23t52 23t18 57q0 33 -18 56t-52 23q-33 0 -51.5 -23t-18.5 -56z" />
    <glyph glyph-name="ogonek" unicode="&#x2db;" horiz-adv-x="497" 
d="M444 -140q-26 -50 -55.5 -76t-78.5 -26q-48 0 -76 23t-28 63q0 36 21 62.5t66 62.5q41 32 99 86l8 -7q-9 -9 -41.5 -39t-44 -44t-25 -44.5t-13.5 -65.5q0 -30 16 -47.5t43 -17.5q28 0 49.5 18.5t45.5 58.5z" />
    <glyph glyph-name="tilde" unicode="&#x2dc;" horiz-adv-x="525" 
d="M155 613l-4 -2q-17 25 -17 55q0 28 19 47t50 19q30 0 77.5 -30.5t64.5 -30.5q19 0 29 10t14 38h4q0 -109 -74 -109q-29 0 -75 30.5t-63 30.5q-29 0 -29 -29q0 -16 4 -29z" />
    <glyph glyph-name="hungarumlaut" unicode="&#x2dd;" horiz-adv-x="501" 
d="M308 578h-6q61 103 83 172h95v-3q-50 -92 -172 -169zM149 578h-6q61 103 83 172h95v-3q-50 -92 -172 -169z" />
    <glyph glyph-name="pi" unicode="&#x3c0;" horiz-adv-x="662" 
d="M569 -1q-18 -3 -45 -3q-53 0 -81 27.5t-28 99.5v249h-167q0 -197 -37 -372h-43q48 155 48 372h-142l28 112h472v-112h-127v-248q0 -59 17.5 -81t61.5 -22q23 0 41 3z" />
    <glyph glyph-name="Wgrave" unicode="&#x1e80;" horiz-adv-x="1031" 
d="M608 747h-7q-54 22 -110 57t-82 65v3h109q33 -60 90 -125zM384 122l-33 -127h-50l-182 562q-18 55 -36 76t-52 25l-36 5v16q57 -1 172 -1q114 0 172 1v-16l-57 -7q-72 -9 -50 -79l134 -443l156 549h52l181 -549l112 377q19 53 15 83.5t-19 42.5t-50 18l-43 8v16
q45 -1 134 -1t133 1v-15l-35 -8q-44 -10 -67 -40.5t-47 -111.5l-115 -384l-33 -125h-51l-185 545z" />
    <glyph glyph-name="wgrave" unicode="&#x1e81;" horiz-adv-x="758" 
d="M477 578h-6q-120 75 -173 169v3h96q21 -70 83 -172zM226 -5l-133 393q-14 40 -30 57t-40 20l-28 4v15q46 -1 136 -1q91 0 136 1v-15l-37 -5q-31 -4 -37 -27.5t7 -61.5l80 -264l110 377h42l116 -377l75 232q14 45 14 72q0 40 -57 48l-31 5v16q36 -1 107 -1t107 1v-15
l-29 -6q-32 -7 -51 -32.5t-42 -95.5l-112 -340h-40l-117 367l-107 -367h-39z" />
    <glyph glyph-name="Wacute" unicode="&#x1e82;" horiz-adv-x="1031" 
d="M488 747h-7q62 70 90 125h109v-3q-26 -30 -82 -65t-110 -57zM384 122l-33 -127h-50l-182 562q-18 55 -36 76t-52 25l-36 5v16q57 -1 172 -1q114 0 172 1v-16l-57 -7q-72 -9 -50 -79l134 -443l156 549h52l181 -549l112 377q19 53 15 83.5t-19 42.5t-50 18l-43 8v16
q45 -1 134 -1t133 1v-15l-35 -8q-44 -10 -67 -40.5t-47 -111.5l-115 -384l-33 -125h-51l-185 545z" />
    <glyph glyph-name="wacute" unicode="&#x1e83;" horiz-adv-x="758" 
d="M359 578h-6q61 103 83 172h95v-3q-50 -92 -172 -169zM372 362l-107 -367h-39l-133 393q-14 40 -30 57t-40 20l-28 4v15q46 -1 136 -1q91 0 136 1v-15l-37 -5q-31 -4 -37 -27.5t7 -61.5l80 -264l110 377h42l116 -377l75 232q14 45 14 72q0 40 -57 48l-31 5v16
q36 -1 107 -1t107 1v-15l-29 -6q-32 -7 -51 -32.5t-42 -95.5l-112 -340h-40z" />
    <glyph glyph-name="Wdieresis" unicode="&#x1e84;" horiz-adv-x="1031" 
d="M504 805q0 -24 -16.5 -41t-41.5 -17t-41.5 17t-16.5 41t16.5 41t41.5 17t41.5 -17t16.5 -41zM707 805q0 -24 -17 -41t-42 -17q-24 0 -41 17t-17 41t17 41t41 17q25 0 42 -17t17 -41zM301 -5l-182 562q-18 55 -36 76t-52 25l-36 5v16q57 -1 172 -1q114 0 172 1v-16l-57 -7
q-72 -9 -50 -79l134 -443l156 549h52l181 -549l112 377q19 53 15 83.5t-19 42.5t-50 18l-43 8v16q45 -1 134 -1t133 1v-15l-35 -8q-44 -10 -67 -40.5t-47 -111.5l-115 -384l-33 -125h-51l-185 545l-120 -418l-33 -127h-50z" />
    <glyph glyph-name="wdieresis" unicode="&#x1e85;" horiz-adv-x="758" 
d="M357 672q0 -25 -17 -42t-41 -17q-25 0 -42 17t-17 42q0 23 17 40t42 17q24 0 41 -17t17 -40zM559 672q0 -25 -16.5 -42t-41.5 -17t-41.5 17t-16.5 42q0 24 16.5 40.5t41.5 16.5t41.5 -16.5t16.5 -40.5zM372 362l-107 -367h-39l-133 393q-14 40 -30 57t-40 20l-28 4v15
q46 -1 136 -1q91 0 136 1v-15l-37 -5q-31 -4 -37 -27.5t7 -61.5l80 -264l110 377h42l116 -377l75 232q14 45 14 72q0 40 -57 48l-31 5v16q36 -1 107 -1t107 1v-15l-29 -6q-32 -7 -51 -32.5t-42 -95.5l-112 -340h-40z" />
    <glyph glyph-name="Ygrave" unicode="&#x1ef2;" horiz-adv-x="711" 
d="M435 747h-7q-54 22 -110 57t-82 65v3h109q33 -60 90 -125zM523 0q-29 0 -85 0.5t-86 0.5t-86 -0.5t-86 -0.5v16l52 7q40 6 52 20.5t12 48.5v174l-176 317q-22 39 -41 55t-47 20l-36 5v16q57 -1 173 -1q114 0 172 1v-16l-57 -7q-71 -8 -35 -76l151 -278l118 210
q37 67 37 98q0 36 -57 46l-40 7v16q43 -1 129 -1t129 1v-15l-31 -7q-38 -9 -68 -39.5t-78 -112.5l-132 -227v-186q0 -34 12.5 -48.5t52.5 -20.5l51 -7v-16z" />
    <glyph glyph-name="ygrave" unicode="&#x1ef3;" horiz-adv-x="531" 
d="M333 578h-6q-120 75 -173 169v3h96q21 -70 83 -172zM296 31q-33 -89 -61 -145t-53.5 -83t-46 -36t-47.5 -9q-41 0 -66 22t-25 59q0 30 19.5 49.5t50.5 19.5q27 0 43.5 -16t16.5 -40q0 -23 -14.5 -39.5t-14.5 -20.5q0 -9 12 -9q70 0 144 197l6 16l-167 392
q-18 40 -31.5 56t-36.5 20l-30 5v15q46 -1 135 -1q85 0 131 1v-15l-36 -4q-21 -2 -29 -14t-6 -29t12 -44l104 -269l90 244q16 45 16 67q0 19 -11 29t-40 14l-33 5v16q35 -1 104 -1q68 0 104 1v-15l-24 -5q-36 -7 -55 -31t-43 -87z" />
    <glyph glyph-name="endash" unicode="&#x2013;" horiz-adv-x="499" 
d="M25 226v32h449v-32h-449z" />
    <glyph glyph-name="emdash" unicode="&#x2014;" horiz-adv-x="917" 
d="M25 226v32h867v-32h-867z" />
    <glyph glyph-name="quoteleft" unicode="&#x2018;" horiz-adv-x="266" 
d="M195 750l10 -16q-46 -28 -73 -67t-27 -75q0 -15 12 -15q5 0 18 5t25 5q24 0 40 -15.5t16 -41.5q0 -28 -19.5 -46.5t-49.5 -18.5q-36 0 -56.5 27t-20.5 73q0 55 36 104.5t89 80.5z" />
    <glyph glyph-name="quoteright" unicode="&#x2019;" horiz-adv-x="276" 
d="M76 454l-10 16q46 28 73 67t27 75q0 15 -12 15q-5 0 -18 -5t-25 -5q-24 0 -40 15.5t-16 41.5q0 28 19.5 46.5t49.5 18.5q36 0 56.5 -27t20.5 -73q0 -55 -36 -104.5t-89 -80.5z" />
    <glyph glyph-name="quotesinglbase" unicode="&#x201a;" horiz-adv-x="271" 
d="M76 -170l-10 16q46 28 73 67t27 75q0 15 -12 15q-5 0 -18 -5t-25 -5q-24 0 -40 15.5t-16 41.5q0 28 19.5 46.5t49.5 18.5q36 0 56.5 -27t20.5 -73q0 -55 -36 -104.5t-89 -80.5z" />
    <glyph glyph-name="quotedblleft" unicode="&#x201c;" horiz-adv-x="455" 
d="M384 750l10 -16q-46 -28 -73 -67t-27 -75q0 -15 12 -15q5 0 18 5t25 5q24 0 40 -15.5t16 -41.5q0 -28 -19.5 -46.5t-49.5 -18.5q-36 0 -56.5 27t-20.5 73q0 55 36 104.5t89 80.5zM195 750l10 -16q-46 -28 -73 -67t-27 -75q0 -15 12 -15q5 0 18 5t25 5q24 0 40 -15.5
t16 -41.5q0 -28 -19.5 -46.5t-49.5 -18.5q-36 0 -56.5 27t-20.5 73q0 55 36 104.5t89 80.5z" />
    <glyph glyph-name="quotedblright" unicode="&#x201d;" horiz-adv-x="465" 
d="M265 454l-10 16q46 28 73 67t27 75q0 15 -12 15q-5 0 -18 -5t-25 -5q-24 0 -40 15.5t-16 41.5q0 28 19.5 46.5t49.5 18.5q36 0 56.5 -27t20.5 -73q0 -55 -36 -104.5t-89 -80.5zM76 454l-10 16q46 28 73 67t27 75q0 15 -12 15q-5 0 -18 -5t-25 -5q-24 0 -40 15.5t-16 41.5
q0 28 19.5 46.5t49.5 18.5q36 0 56.5 -27t20.5 -73q0 -55 -36 -104.5t-89 -80.5z" />
    <glyph glyph-name="quotedblbase" unicode="&#x201e;" horiz-adv-x="460" 
d="M265 -170l-10 16q46 28 73 67t27 75q0 15 -12 15q-5 0 -18 -5t-25 -5q-24 0 -40 15.5t-16 41.5q0 28 19.5 46.5t49.5 18.5q36 0 56.5 -27t20.5 -73q0 -55 -36 -104.5t-89 -80.5zM76 -170l-10 16q46 28 73 67t27 75q0 15 -12 15q-5 0 -18 -5t-25 -5q-24 0 -40 15.5
t-16 41.5q0 28 19.5 46.5t49.5 18.5q36 0 56.5 -27t20.5 -73q0 -55 -36 -104.5t-89 -80.5z" />
    <glyph glyph-name="dagger" unicode="&#x2020;" horiz-adv-x="476" 
d="M240 136h-6q-4 101 -20 178t-16 95q0 30 17 68t17 64q-31 -1 -70 -22t-58 -21q-23 0 -36 14t-13 34t12.5 33.5t36.5 13.5q19 0 58 -20t70 -21q-1 31 -21.5 70t-20.5 58q0 23 14 36t33 13q20 0 34 -13t14 -36q0 -19 -20.5 -58t-21.5 -70q32 1 70.5 21.5t58.5 20.5
q23 0 35.5 -13.5t12.5 -33.5t-12.5 -34t-35.5 -14q-20 0 -58.5 20.5t-70.5 21.5q0 -26 17 -64t17 -68q0 -18 -16.5 -95t-20.5 -178z" />
    <glyph glyph-name="daggerdbl" unicode="&#x2021;" horiz-adv-x="476" 
d="M240 2h-6q-3 101 -19.5 174.5t-16.5 91.5q0 25 16.5 57.5t17.5 53.5q-31 -2 -69.5 -21.5t-58.5 -19.5q-24 0 -36.5 13.5t-12.5 33.5t13 34t36 14q20 0 58.5 -20.5t69.5 -22.5q-1 19 -14 43.5t-13 41.5t13 41.5t14 43.5q-31 -2 -69.5 -22.5t-58.5 -20.5q-23 0 -36 14
t-13 34t12.5 33.5t36.5 13.5q20 0 58.5 -19.5t69.5 -21.5q-1 26 -21.5 60t-20.5 51q0 23 13.5 35t33.5 12t34 -12t14 -35q0 -17 -20.5 -51t-21.5 -60q32 1 70.5 21.5t58.5 20.5q23 0 35.5 -13.5t12.5 -33.5t-12.5 -34t-35.5 -14q-20 0 -58.5 20.5t-70.5 21.5
q0 -18 13.5 -42.5t13.5 -42.5t-13.5 -42.5t-13.5 -42.5q32 1 70.5 21.5t58.5 20.5q23 0 35.5 -14t12.5 -34t-12.5 -33.5t-35.5 -13.5q-20 0 -58.5 20.5t-70.5 21.5q1 -21 17.5 -53.5t16.5 -57.5q0 -18 -16.5 -91.5t-20.5 -174.5z" />
    <glyph glyph-name="bullet" unicode="&#x2022;" horiz-adv-x="413" 
d="M337 243q0 -55 -38.5 -93t-93.5 -38t-92.5 38t-37.5 93t37.5 93.5t92.5 38.5t93.5 -38.5t38.5 -93.5z" />
    <glyph glyph-name="ellipsis" unicode="&#x2026;" horiz-adv-x="702" 
d="M199 62q0 -32 -21 -51.5t-51 -19.5t-51 20t-21 51q0 33 21 52.5t51 19.5q31 0 51.5 -19.5t20.5 -52.5zM422 62q0 -32 -21 -51.5t-51 -19.5t-51 20t-21 51q0 33 21 52.5t51 19.5q31 0 51.5 -19.5t20.5 -52.5zM645 62q0 -32 -21 -51.5t-51 -19.5t-51 20t-21 51
q0 33 21 52.5t51 19.5q31 0 51.5 -19.5t20.5 -52.5z" />
    <glyph glyph-name="perthousand" unicode="&#x2030;" horiz-adv-x="1026" 
d="M351 498q0 -69 -44 -110t-115 -41t-115 40.5t-44 109.5t44 109.5t114 40.5q72 0 116 -40t44 -109zM42 0l280 322l257 309h40l-279 -322l-258 -309h-40zM192 364q43 0 65.5 35t22.5 99q0 63 -23 97.5t-66 34.5q-42 0 -64.5 -34.5t-22.5 -98.5q0 -63 23 -98t65 -35z
M834 -10q-72 0 -116 40.5t-44 109.5t44 109.5t115 40.5t115.5 -40t44.5 -109t-44.5 -110t-114.5 -41zM480 -10q-72 0 -115.5 40t-43.5 110q0 69 43.5 109.5t114.5 40.5q72 0 116.5 -40t44.5 -109t-44.5 -110t-115.5 -41zM834 7q42 0 64.5 35t22.5 99q0 63 -23 97.5t-65 34.5
t-65 -35t-23 -98t23 -98t66 -35zM480 7q42 0 65 35t23 99q0 63 -23 97.5t-66 34.5q-42 0 -64.5 -34.5t-22.5 -98.5t22.5 -98.5t65.5 -34.5z" />
    <glyph glyph-name="guilsinglleft" unicode="&#x2039;" horiz-adv-x="331" 
d="M245 47l-195 183v24l195 183h16l-111 -195l111 -195h-16z" />
    <glyph glyph-name="guilsinglright" unicode="&#x203a;" horiz-adv-x="331" 
d="M281 230l-195 -183h-16l111 195l-111 195h16l195 -183v-24z" />
    <glyph glyph-name="asterism" unicode="&#x2042;" horiz-adv-x="752" 
d="M301 423q-10 -37 -44 -27q-16 4 -23 16.5t-3 29.5q3 13 26.5 39t38.5 72q-33 -11 -53.5 -25.5t-32.5 -25.5t-25 -15q-17 -5 -30 2t-17 23q-10 35 27 45q11 3 48 -3t82 6q-34 32 -68.5 45t-43.5 22q-12 11 -12 26t12 27q11 11 26 10.5t26 -12.5q9 -10 21 -44.5t43 -68.5
q9 49 2 82t-3 46q10 37 46 27q16 -4 23 -16.5t3 -29.5q-3 -12 -26.5 -38.5t-38.5 -72.5q43 15 70.5 39t40.5 28q16 5 29 -2t18 -23q5 -17 -3 -29.5t-24 -16.5q-11 -3 -48.5 3t-81.5 -6q33 -32 67.5 -45t44.5 -22q12 -11 12 -26t-12 -27q-26 -26 -53 2q-9 10 -20.5 44.5
t-42.5 68.5q-9 -49 -3.5 -82t2.5 -46zM584 127q-10 -37 -44 -27q-16 4 -23 16.5t-3 29.5q3 13 26.5 39t38.5 72q-33 -11 -53.5 -25.5t-32.5 -25.5t-25 -15q-17 -5 -30 2t-17 23q-10 35 27 45q11 3 48 -3t82 6q-34 32 -68.5 45t-43.5 22q-12 11 -12 26t12 27q11 11 26 10.5
t26 -12.5q9 -10 21 -44.5t43 -68.5q9 49 2 82t-3 46q10 37 46 27q16 -4 23 -16.5t3 -29.5q-3 -12 -26.5 -38.5t-38.5 -72.5q43 15 70.5 39t40.5 28q16 5 29 -2t18 -23q5 -17 -3 -29.5t-24 -16.5q-11 -3 -48.5 3t-81.5 -6q33 -32 67.5 -45t44.5 -22q12 -11 12 -26t-12 -27
q-25 -26 -53 2q-9 10 -20.5 44.5t-42.5 68.5q-9 -49 -3.5 -82t2.5 -46zM185 21q-10 -37 -44 -27q-16 4 -23 16.5t-3 29.5q3 13 26.5 39t38.5 72q-33 -11 -53.5 -25.5t-32.5 -25.5t-25 -15q-17 -5 -30 2t-17 23q-10 35 27 45q11 3 48 -3t82 6q-34 32 -68.5 45t-43.5 22
q-12 11 -12 26t12 27q11 11 26 10.5t26 -12.5q9 -10 21 -44.5t43 -68.5q9 49 2 82t-3 46q10 37 46 27q16 -4 23 -16.5t3 -29.5q-3 -12 -26.5 -38.5t-38.5 -72.5q43 15 70.5 39t40.5 28q16 5 29 -2t18 -23q5 -17 -3 -29.5t-24 -16.5q-11 -3 -48.5 3t-81.5 -6q33 -32 67.5 -45
t44.5 -22q12 -11 12 -26t-12 -27q-26 -26 -53 2q-9 10 -20.5 44.5t-42.5 68.5q-9 -49 -3.5 -82t2.5 -46z" />
    <glyph glyph-name="fraction" unicode="&#x2044;" horiz-adv-x="668" 
d="M106 -15l-29 18l250 343l236 348l29 -18l-250 -342z" />
    <glyph glyph-name="zero.sups" unicode="&#x2070;" horiz-adv-x="404" 
d="M368 677q0 -83 -47.5 -134.5t-118.5 -51.5t-118.5 51.5t-47.5 134.5q0 84 47.5 136.5t118.5 52.5t118.5 -53t47.5 -136zM122 677q0 -171 80 -171t80 171q0 174 -80 174t-80 -174z" />
    <glyph glyph-name="four.sups" unicode="&#x2074;" horiz-adv-x="353" 
d="M178 627v121l2 63l-128 -183zM316 516v-16h-200v15l52 10q10 3 10 11v71h-147l-5 18l163 231h68v-230h19q20 0 30 25l14 37h14l-11 -81h-66v-71q0 -10 10 -11z" />
    <glyph glyph-name="five.sups" unicode="&#x2075;" horiz-adv-x="344" 
d="M142 491q-47 0 -76 19.5t-29 49.5q0 20 12.5 32t31.5 12t30 -11t11 -27q0 -17 -11 -27.5t-25 -10.5q18 -22 52 -22q40 0 62 26t22 76q0 89 -61 89q-34 0 -67 -37l-33 4l26 192h18q37 -15 95 -15q64 0 89 18l10 -5q-14 -40 -41 -59t-75 -19q-50 0 -86 9l-14 -98
q39 27 90 27q57 0 96 -25t39 -78q0 -59 -48 -89.5t-118 -30.5z" />
    <glyph glyph-name="six.sups" unicode="&#x2076;" horiz-adv-x="375" 
d="M336 613q0 -57 -42.5 -89.5t-104.5 -32.5q-65 0 -104.5 41.5t-39.5 125.5q0 96 52 152t129 56q47 0 75 -18t28 -47q0 -19 -11.5 -30t-28.5 -11q-18 0 -29.5 10.5t-11.5 26.5t10 27t24 11q-18 16 -50 16q-108 0 -108 -214q14 84 95 84q49 0 83 -27.5t34 -80.5zM134 603
q0 -97 58 -97q61 0 61 102q0 89 -54 89q-65 0 -65 -94z" />
    <glyph glyph-name="seven.sups" unicode="&#x2077;" horiz-adv-x="319" 
d="M154 495q-44 0 -44 43q0 66 85 174q17 23 68 81h-156q-16 0 -23 -5t-14 -23l-10 -26h-17l21 132h14q0 -15 17 -15h210v-25q-6 -8 -19.5 -26.5t-21 -29.5t-17 -27t-15.5 -30q-22 -50 -28 -164q-2 -30 -11.5 -44.5t-38.5 -14.5z" />
    <glyph glyph-name="eight.sups" unicode="&#x2078;" horiz-adv-x="366" 
d="M180 491q-62 0 -101 22t-39 67q0 33 23.5 54.5t61.5 29.5q-70 37 -70 101q0 45 36 73t96 28q58 0 91 -21t33 -62q0 -53 -76 -68q91 -38 91 -111q0 -54 -40 -83.5t-106 -29.5zM223 719l5 4q25 25 25 66q0 29 -17.5 45.5t-48.5 16.5q-32 0 -51 -16t-19 -38
q0 -18 16.5 -33.5t29.5 -21t48 -18.5q7 -3 10 -4zM180 506q38 0 59 16.5t21 44.5q0 11 -3 20t-12.5 17.5t-15.5 13t-23 12.5t-22 10t-26 10l-17 7q-38 -31 -38 -80q0 -33 20 -52t57 -19z" />
    <glyph glyph-name="nine.sups" unicode="&#x2079;" horiz-adv-x="370" 
d="M242 754q0 97 -57 97q-59 0 -59 -102q0 -89 53 -89q63 0 63 94zM151 491q-47 0 -75 18t-28 47q0 19 12 30t29 11t28.5 -10.5t11.5 -26.5t-9.5 -27t-23.5 -11q16 -16 49 -16q107 0 108 214q-14 -84 -95 -84q-49 0 -82.5 27.5t-33.5 80.5q0 57 42.5 89.5t103.5 32.5
q65 0 104 -41.5t39 -125.5q0 -96 -51.5 -152t-128.5 -56z" />
    <glyph glyph-name="plus.sups" unicode="&#x207a;" horiz-adv-x="376" 
d="M203 664v-123h-30v123h-123v30h123v122h30v-122h123v-30h-123z" />
    <glyph glyph-name="minus.sups" unicode="&#x207b;" horiz-adv-x="376" 
d="M50 664v30h276v-30h-276z" />
    <glyph glyph-name="equal.sups" unicode="&#x207c;" horiz-adv-x="376" 
d="M50 723v30h276v-30h-276zM50 604v29h276v-29h-276z" />
    <glyph glyph-name="parenleft.sups" unicode="&#x207d;" horiz-adv-x="264" 
d="M239 415l-9 -11q-163 110 -163 273v4q0 163 163 273l9 -11q-41 -31 -68 -99.5t-27 -162.5v-4q0 -94 27 -162.5t68 -99.5z" />
    <glyph glyph-name="parenright.sups" unicode="&#x207e;" horiz-adv-x="264" 
d="M34 404l-9 11q41 31 68 99.5t27 162.5v4q0 94 -27 162.5t-68 99.5l9 11q163 -110 163 -273v-4q0 -163 -163 -273z" />
    <glyph glyph-name="n.sups" unicode="&#x207f;" horiz-adv-x="478" 
d="M226 516v-16h-184v16l42 11q12 4 12 16v242q0 11 -3 14.5t-13 4.5l-45 4v14l111 27l23 -5l-6 -126q9 60 42 97t85 37q104 0 104 -108v-201q0 -12 12 -16l43 -11v-16h-184v16l39 11q12 4 12 16v206q0 42 -13 58.5t-40 16.5q-36 0 -62 -41.5t-26 -112.5v-127q0 -12 12 -16z
" />
    <glyph glyph-name="zero.sinf" unicode="&#x2080;" horiz-adv-x="404" 
d="M368 13q0 -83 -47.5 -134.5t-118.5 -51.5t-118.5 51.5t-47.5 134.5q0 84 47.5 136.5t118.5 52.5t118.5 -53t47.5 -136zM122 13q0 -171 80 -171t80 171q0 174 -80 174t-80 -174z" />
    <glyph glyph-name="one.sinf" unicode="&#x2081;" horiz-adv-x="319" 
d="M56 -164v16l62 10q10 1 10 10v256q0 11 -5 16t-18 6l-50 6v13l53 6q61 7 79 21h25q-3 -42 -3 -84v-240q0 -9 10 -10l59 -10v-16h-222z" />
    <glyph glyph-name="two.sinf" unicode="&#x2082;" horiz-adv-x="352" 
d="M295 -164h-255l-2 33q97 73 133 120q48 59 48 120q0 43 -15 60.5t-49 17.5q-27 0 -51 -15t-32 -37q8 5 18 5q16 0 26 -10.5t10 -26.5q0 -17 -11.5 -28.5t-29.5 -11.5q-19 0 -31 12t-12 33q0 39 34.5 66.5t92.5 27.5q57 0 96 -25t39 -74q0 -41 -29 -72t-87 -70
q-46 -29 -89 -60h144q29 0 36 21l13 32h15z" />
    <glyph glyph-name="three.sinf" unicode="&#x2083;" horiz-adv-x="358" 
d="M147 -173q-53 0 -82 19.5t-29 50.5q0 20 13 33t31 13q19 0 30.5 -12t11.5 -28q0 -17 -11.5 -27.5t-25.5 -9.5q20 -24 58 -24q42 0 67.5 27.5t25.5 76.5q0 42 -13 59.5t-39 17.5q-18 0 -39 -11.5t-32 -11.5q-23 0 -23 25q27 12 83 14q51 31 51 89q0 59 -57 59
q-46 0 -68 -31l2 1q16 0 27 -10t11 -27t-12 -29t-30 -12q-17 0 -29.5 13t-12.5 32q0 34 33.5 56t86.5 22q58 0 94 -21.5t36 -57.5q0 -15 -7.5 -27.5t-16 -20.5t-28 -16t-30.5 -11.5t-37 -11.5v-2q8 1 23 1q50 0 82 -23t32 -67q0 -57 -55 -87.5t-121 -30.5z" />
    <glyph glyph-name="four.sinf" unicode="&#x2084;" horiz-adv-x="353" 
d="M178 -37v121l2 63l-128 -183zM316 -148v-16h-200v15l52 10q10 3 10 11v71h-147l-5 18l163 231h68v-230h19q20 0 30 25l14 37h14l-11 -81h-66v-71q0 -10 10 -11z" />
    <glyph glyph-name="five.sinf" unicode="&#x2085;" horiz-adv-x="344" 
d="M142 -173q-47 0 -76 19.5t-29 49.5q0 20 12.5 32t31.5 12t30 -11t11 -27q0 -17 -11 -27.5t-25 -10.5q18 -22 52 -22q40 0 62 26t22 76q0 89 -61 89q-34 0 -67 -37l-33 4l26 192h18q37 -15 95 -15q64 0 89 18l10 -5q-14 -40 -41 -59t-75 -19q-50 0 -86 9l-14 -98
q39 27 90 27q57 0 96 -25t39 -78q0 -59 -48 -89.5t-118 -30.5z" />
    <glyph glyph-name="six.sinf" unicode="&#x2086;" horiz-adv-x="375" 
d="M336 -51q0 -57 -42.5 -89.5t-104.5 -32.5q-65 0 -104.5 41.5t-39.5 125.5q0 96 52 152t129 56q47 0 75 -18t28 -47q0 -19 -11.5 -30t-28.5 -11q-18 0 -29.5 10.5t-11.5 26.5t10 27t24 11q-18 16 -50 16q-108 0 -108 -214q14 84 95 84q49 0 83 -27.5t34 -80.5zM134 -61
q0 -97 58 -97q61 0 61 102q0 89 -54 89q-65 0 -65 -94z" />
    <glyph glyph-name="seven.sinf" unicode="&#x2087;" horiz-adv-x="319" 
d="M154 -169q-44 0 -44 43q0 66 85 174q17 23 68 81h-156q-16 0 -23 -5t-14 -23l-10 -26h-17l21 132h14q0 -15 17 -15h210v-25q-6 -8 -19.5 -26.5t-21 -29.5t-17 -27t-15.5 -30q-22 -50 -28 -164q-2 -30 -11.5 -44.5t-38.5 -14.5z" />
    <glyph glyph-name="eight.sinf" unicode="&#x2088;" horiz-adv-x="366" 
d="M180 -173q-62 0 -101 22t-39 67q0 33 23.5 54.5t61.5 29.5q-70 37 -70 101q0 45 36 73t96 28q58 0 91 -21t33 -62q0 -53 -76 -68q91 -38 91 -111q0 -54 -40 -83.5t-106 -29.5zM223 55l5 4q25 25 25 66q0 29 -17.5 45.5t-48.5 16.5q-32 0 -51 -16t-19 -38
q0 -18 16.5 -33.5t29.5 -21t48 -18.5q7 -3 10 -4zM180 -158q38 0 59 16.5t21 44.5q0 11 -3 20t-12.5 17.5t-15.5 13t-23 12.5t-22 10t-26 10l-17 7q-38 -31 -38 -80q0 -33 20 -52t57 -19z" />
    <glyph glyph-name="nine.sinf" unicode="&#x2089;" horiz-adv-x="370" 
d="M242 90q0 97 -57 97q-59 0 -59 -102q0 -89 53 -89q63 0 63 94zM151 -173q-47 0 -75 18t-28 47q0 19 12 30t29 11t28.5 -10.5t11.5 -26.5t-9.5 -27t-23.5 -11q16 -16 49 -16q107 0 108 214q-14 -84 -95 -84q-49 0 -82.5 27.5t-33.5 80.5q0 57 42.5 89.5t103.5 32.5
q65 0 104 -41.5t39 -125.5q0 -96 -51.5 -152t-128.5 -56z" />
    <glyph glyph-name="parenleft.sinf" unicode="&#x208d;" horiz-adv-x="264" 
d="M239 -249l-9 -11q-163 110 -163 273v4q0 163 163 273l9 -11q-41 -31 -68 -99.5t-27 -162.5v-4q0 -94 27 -162.5t68 -99.5z" />
    <glyph glyph-name="parenright.sinf" unicode="&#x208e;" horiz-adv-x="264" 
d="M34 -260l-9 11q41 31 68 99.5t27 162.5v4q0 94 -27 162.5t-68 99.5l9 11q163 -110 163 -273v-4q0 -163 -163 -273z" />
    <glyph glyph-name="franc" unicode="&#x20a3;" horiz-adv-x="599" 
d="M243 329h62q46 0 68.5 31.5t49.5 117.5h17q-1 -53 -1 -159t1 -159h-17q-29 91 -50.5 121t-67.5 30h-62v-215q0 -35 13.5 -51t54.5 -22l52 -7v-16q-30 0 -88 0.5t-87 0.5q-30 0 -85 -0.5t-85 -0.5v16l52 7q40 6 51 18.5t11 46.5v453q0 34 -11 47.5t-51 19.5l-52 7v16h534
l10 -227h-19q-53 129 -85 169t-101 40h-114v-284z" />
    <glyph glyph-name="Euro" unicode="&#x20ac;" horiz-adv-x="590" 
d="M520 -10l-30 59q-56 -64 -154 -64q-91 0 -158.5 59t-88.5 171l-74 15v13l68 14q-2 32 -2 50q0 31 1 45l-67 14v13l72 16q18 129 86.5 191.5t159.5 62.5q98 0 156 -64l31 59h10v-257h-16q-36 139 -78 193t-101 54q-63 0 -95 -58.5t-39 -186.5h180l-7 -26l-174 -6
q-1 -16 -1 -49q0 -38 1 -55h154l-7 -26l-145 -7q7 -114 40 -167t96 -53q58 0 98.5 54t77.5 179h16v-243h-10z" />
    <glyph glyph-name="litre" unicode="&#x2113;" horiz-adv-x="457" 
d="M257 -12q-61 0 -99 31.5t-38 97.5v93q-44 -27 -93 -51l-9 19q59 29 102 55v312q0 67 36.5 106t97.5 39q60 0 93 -32.5t33 -95.5q0 -143 -149 -272v-177q0 -52 15.5 -72t47.5 -20q57 0 81 102l18 -3q-14 -70 -45.5 -101t-90.5 -31zM231 316l10 9q115 109 115 232
q0 52 -18 72t-51 20q-56 0 -56 -86v-247z" />
    <glyph glyph-name="servicemark" unicode="&#x2120;" horiz-adv-x="830" 
d="M526 365l-87 200l-22 58h-2v-220q0 -12 12 -15l41 -9v-13h-128v13l42 9q12 3 12 15v244q0 9 -9 11l-45 8v13h102l82 -191l25 -69h2l114 260h100v-8l-40 -8q-9 -1 -9 -11v-254q0 -10 9 -11l40 -8v-13h-151v13l44 8q9 1 9 11v235h-2l-118 -268h-21zM291 450
q0 -46 -30.5 -70t-78.5 -24q-66 0 -94 39l-11 -36h-12v125h15l12 -37q24 -74 92 -74q35 0 56 16t21 44q0 31 -19.5 44t-70.5 28q-100 28 -100 94q0 42 29.5 66t73.5 24q55 0 84 -34l11 31h11v-110h-16l-8 28q-19 68 -81 68q-35 0 -53.5 -15.5t-18.5 -39.5q0 -30 20 -43.5
t73 -28.5q51 -14 73 -36t22 -59z" />
    <glyph glyph-name="trademark" unicode="&#x2122;" horiz-adv-x="882" 
d="M287 379v-13h-162v13l46 8q10 1 10 11v265h-52q-16 0 -24 -6t-12 -21l-15 -60h-15l2 103h281l3 -103h-16l-15 60q-7 27 -36 27h-53v-265q0 -10 10 -11zM579 365l-87 200l-22 58h-2v-220q0 -12 12 -15l41 -9v-13h-128v13l42 9q12 3 12 15v244q0 9 -9 11l-45 8v13h102
l82 -191l25 -69h2l113 260h101v-8l-40 -8q-9 -1 -9 -11v-254q0 -10 9 -11l40 -8v-13h-151v13l44 8q9 1 9 11v235h-2l-119 -268h-20z" />
    <glyph glyph-name="ohm" unicode="&#x2126;" horiz-adv-x="742" 
d="M72 0v32h229q-41 26 -77 57.5t-72.5 75t-57.5 99t-21 114.5q0 79 26.5 141.5t70.5 99.5t95.5 56t105.5 19q55 0 106.5 -19t95 -56t70 -99.5t26.5 -141.5q0 -59 -21 -114.5t-57.5 -99t-72.5 -75t-77 -57.5h229v-32h-255v35q59 63 100.5 152t41.5 192q0 145 -51.5 222.5
t-134.5 77.5t-134.5 -77.5t-51.5 -222.5q0 -103 41.5 -192t100.5 -152v-35h-255z" />
    <glyph glyph-name="estimated" unicode="&#x212e;" horiz-adv-x="755" 
d="M577 349v262q-76 62 -194 62q-120 0 -204 -75v-249h398zM663 145q-97 -159 -289 -159q-147 0 -240.5 97.5t-93.5 256.5q0 154 98.5 253t244.5 99q148 0 239 -89t91 -242q0 -21 -1 -31h-533v-256q80 -69 198 -69q81 0 152 39.5t116 112.5z" />
    <glyph glyph-name="arrowleft" unicode="&#x2190;" horiz-adv-x="900" 
d="M439 15l-7 -7q-129 126 -319 221q-13 7 -13 13t13 13q190 95 319 221l7 -7q-45 -65 -109.5 -125.5t-124.5 -88.5q144 0 595 17v-60q-451 17 -595 17q60 -28 124.5 -88.5t109.5 -125.5z" />
    <glyph glyph-name="arrowup" unicode="&#x2191;" horiz-adv-x="900" 
d="M480 -104h-60q17 450 17 595q-28 -60 -88.5 -124.5t-125.5 -109.5l-7 7q126 129 221 319q7 13 13 13t13 -13q95 -190 221 -319l-7 -7q-65 45 -125.5 109.5t-88.5 124.5q0 -145 17 -595z" />
    <glyph glyph-name="arrowright" unicode="&#x2192;" horiz-adv-x="900" 
d="M468 8l-7 7q45 65 109.5 125.5t124.5 88.5q-145 0 -595 -17v60q451 -17 595 -17q-60 28 -124.5 88.5t-109.5 125.5l7 7q129 -126 319 -221q13 -7 13 -13t-13 -13q-190 -95 -319 -221z" />
    <glyph glyph-name="arrowdown" unicode="&#x2193;" horiz-adv-x="900" 
d="M463 -99q-7 -13 -13 -13t-13 13q-95 190 -221 319l7 7q65 -45 125.5 -109.5t88.5 -124.5q0 144 -17 595h60q-17 -450 -17 -595q28 60 88.5 124.5t125.5 109.5l7 -7q-126 -129 -221 -319z" />
    <glyph glyph-name="arrownorthwest" unicode="&#x2196;" horiz-adv-x="900" 
d="M709 15l-42 -42q-311 334 -409 432q22 -62 25 -153.5t-11 -163.5h-10q-1 181 -69 382q-5 14 0 19q4 4 18 0q200 -67 382 -70v-10q-70 -14 -162.5 -11t-154.5 25q108 -108 433 -408z" />
    <glyph glyph-name="arrownortheast" unicode="&#x2197;" horiz-adv-x="900" 
d="M233 -28l-42 42q351 327 433 409q-62 -22 -154 -25t-163 11v10q176 1 382 69q14 5 18 0q5 -4 0 -18q-68 -206 -69 -382h-10q-14 71 -11 163t25 154q-82 -82 -409 -433z" />
    <glyph glyph-name="arrowsoutheast" unicode="&#x2198;" horiz-adv-x="900" 
d="M707 -31q-5 -5 -18 0q-201 68 -382 69v10q71 14 162.5 11t154.5 -25q-121 121 -433 409l42 42q276 -299 409 -432q-22 62 -25 153.5t11 162.5h10q1 -181 69 -382q5 -13 0 -18z" />
    <glyph glyph-name="arrowsouthwest" unicode="&#x2199;" horiz-adv-x="900" 
d="M211 -31q-13 -5 -18 0t0 18q68 201 69 382h10q14 -71 11 -162.5t-25 -153.5q133 133 409 432l42 -42q-312 -288 -433 -409q63 22 154.5 25t162.5 -11v-10q-181 -1 -382 -69z" />
    <glyph glyph-name="partialdiff" unicode="&#x2202;" horiz-adv-x="607" 
d="M322 -15q-102 0 -163.5 67.5t-61.5 168.5q0 106 64 175.5t160 69.5q65 0 116 -29q-30 225 -175 225q-51 0 -123 -28l-8 15q89 41 156 41q132 0 200 -103.5t68 -269.5q0 -162 -68 -247t-165 -85zM318 0q67 0 97 77.5t30 230.5q0 44 -3 87q-46 53 -110 53q-126 0 -126 -228
q0 -220 112 -220z" />
    <glyph glyph-name="increment" unicode="&#x2206;" horiz-adv-x="724" 
d="M20 0l310 679h64l310 -679h-684zM70 32h498l-249 545z" />
    <glyph glyph-name="product" unicode="&#x220f;" horiz-adv-x="771" 
d="M225 -115v683h-165v111h651v-111h-165v-683h-32v683h-257v-683h-32z" />
    <glyph glyph-name="summation" unicode="&#x2211;" horiz-adv-x="549" 
d="M499 -83v-32h-466v30l284 347l-261 389v28h443v-32h-305l215 -326l-335 -404h425z" />
    <glyph glyph-name="minus" unicode="&#x2212;" 
d="M56 226v32h438v-32h-438z" />
    <glyph glyph-name="radical" unicode="&#x221a;" horiz-adv-x="618" 
d="M317 -12h-41l-140 487l-99 -44l-13 30l206 92l112 -406l218 618h33z" />
    <glyph glyph-name="infinity" unicode="&#x221e;" horiz-adv-x="583" 
d="M572 246q0 -65 -42 -110t-110 -45q-92 0 -138 77q-52 -76 -129 -76q-61 0 -102 40t-41 107q0 65 42 110t110 45q92 0 138 -77q52 76 129 76q61 0 102 -40t41 -107zM443 119q40 0 72.5 36t32.5 91q0 58 -33.5 92t-84.5 34q-71 0 -121 -71q8 -15 16 -37q32 -85 47 -106
q27 -39 71 -39zM152 113q72 0 121 72q-7 13 -15 35q-32 86 -49 109q-27 37 -70 37q-40 0 -72.5 -36t-32.5 -91q0 -58 33.5 -92t84.5 -34z" />
    <glyph glyph-name="integral" unicode="&#x222b;" horiz-adv-x="440" 
d="M48 -235v23q54 0 77.5 26.5t23.5 91.5v718q0 150 168 150q47 0 87 -14l-8 -21q-32 10 -62 10q-40 0 -56.5 -30.5t-16.5 -93.5v-699q0 -91 -50 -126t-163 -35z" />
    <glyph glyph-name="approxequal" unicode="&#x2248;" horiz-adv-x="502" 
d="M88 279h-27q0 47 25 74.5t74 27.5q43 0 118 -33t113 -33q35 0 52.5 17t18.5 54h27q0 -47 -25 -73.5t-74 -26.5q-44 0 -119 33t-112 33q-68 0 -71 -73zM88 98h-27q0 47 25 74.5t74 27.5q43 0 118 -33t113 -33q35 0 52.5 17t18.5 54h27q0 -46 -25 -73t-74 -27
q-44 0 -119 33t-112 33q-68 0 -71 -73z" />
    <glyph glyph-name="notequal" unicode="&#x2260;" 
d="M220 131l-87 -128l-27 18l74 110h-124v32h146l107 158h-253v32h274l87 128l27 -18l-74 -110h124v-32h-146l-107 -158h253v-32h-274z" />
    <glyph glyph-name="lessequal" unicode="&#x2264;" 
d="M475 48v-48h-415v30h392l-389 198v28l399 205l14 -26l-383 -193z" />
    <glyph glyph-name="greaterequal" unicode="&#x2265;" 
d="M75 0v48l382 194l-383 193l14 26l399 -205v-28l-389 -198h392v-30h-415z" />
    <glyph glyph-name="blackuppointingtriangle" unicode="&#x25b2;" horiz-adv-x="600" 
d="M58 54l242 419l242 -419h-484z" />
    <glyph glyph-name="blackrightpointingtriangle" unicode="&#x25b6;" horiz-adv-x="600" 
d="M115 0v484l419 -242z" />
    <glyph glyph-name="blackdownpointingtriangle" unicode="&#x25bc;" horiz-adv-x="600" 
d="M300 12l-242 418h484z" />
    <glyph glyph-name="blackleftpointingtriangle" unicode="&#x25c0;" horiz-adv-x="600" 
d="M485 0l-419 242l419 242v-484z" />
    <glyph glyph-name="lozenge" unicode="&#x25ca;" horiz-adv-x="631" 
d="M298 0l-244 340l244 339h34l244 -339l-244 -340h-34zM315 30l222 310l-222 312l-222 -312z" />
    <glyph glyph-name="blacklowerrighttriangle" unicode="&#x25e2;" horiz-adv-x="600" 
d="M192 9l-125 467l467 -125z" />
    <glyph glyph-name="blacklowerlefttriangle" unicode="&#x25e3;" horiz-adv-x="600" 
d="M67 9l125 467l342 -342z" />
    <glyph glyph-name="blackupperlefttriangle" unicode="&#x25e4;" horiz-adv-x="600" 
d="M534 9l-467 125l342 342z" />
    <glyph glyph-name="blackupperrighttriangle" unicode="&#x25e5;" horiz-adv-x="600" 
d="M409 9l-342 342l467 125z" />
    <glyph glyph-name="heart" unicode="&#x2665;" horiz-adv-x="793" 
d="M396 509q26 185 167 185q81 0 127 -52t46 -136q0 -56 -38 -122t-88 -120.5t-114 -132t-100 -141.5q-36 64 -99.5 141.5t-113.5 132t-88 120.5t-38 122q0 84 46 136t127 52q144 0 166 -185z" />
    <glyph glyph-name="Rcedilla" unicode="&#xe001;" horiz-adv-x="696" 
d="M701 0h-130q-44 0 -59 11t-34 47l-135 264q-8 -1 -23 -1q-33 0 -75 2v-233q0 -34 11 -47.5t51 -19.5l52 -7v-16q-30 0 -85 0.5t-84 0.5q-30 0 -85 -0.5t-85 -0.5v16l52 7q40 6 51 19.5t11 47.5v499q0 34 -11 47.5t-51 19.5l-52 7v16h295q291 0 291 -177q0 -67 -48 -107.5
t-117 -54.5q22 -25 46 -68l90 -163q25 -46 40.5 -62t47.5 -23l36 -8v-16zM245 662v-321q56 -2 76 -2q84 0 125 38t41 122q0 91 -41 127t-131 36h-70zM467 -148q0 -45 -34.5 -70.5t-83.5 -25.5q-52 0 -96 27l8 12q30 -15 62 -15q30 0 48 20t18 56q0 58 -45 58q-17 0 -35 -8
l-5 8q35 20 72 20q38 0 64.5 -21t26.5 -61z" />
    <glyph glyph-name="rcedilla" unicode="&#xe002;" horiz-adv-x="436" 
d="M296 15v-15q-24 0 -71 0.5t-71 0.5t-67 -0.5t-66 -0.5v15l35 6q30 5 39 16t9 42v297q0 37 -12.5 48.5t-51.5 14.5l-35 3v13l173 41l18 -6q-8 -117 -8 -297q0 71 12 143q13 76 48.5 121t91.5 45q38 0 59.5 -20.5t21.5 -54.5q0 -32 -19 -50.5t-48 -18.5q-28 0 -43.5 16
t-15.5 42q0 4 1 12t1 10q0 12 -10 12q-20 0 -41 -30.5t-32 -87.5q-13 -68 -13 -139v-111q0 -32 11 -44.5t43 -16.5zM247 -148q0 -45 -34.5 -70.5t-83.5 -25.5q-52 0 -96 27l8 12q30 -15 62 -15q30 0 48 20t18 56q0 58 -45 58q-17 0 -35 -8l-5 8q35 20 72 20q38 0 64.5 -21
t26.5 -61z" />
    <glyph glyph-name="Tcedilla" unicode="&#xe003;" horiz-adv-x="673" 
d="M508 16v-16q-30 0 -86 0.5t-85 0.5q-30 0 -86 -0.5t-86 -0.5v16l52 7q40 6 52 20.5t12 48.5v569h-66q-63 0 -97.5 -42t-76.5 -168h-16l7 228h609l7 -228h-16q-42 126 -76.5 168t-97.5 42h-66v-569q0 -34 12 -48.5t52 -20.5zM430 -148q0 -45 -34.5 -70.5t-83.5 -25.5
q-52 0 -96 27l8 12q30 -15 62 -15q30 0 48 20t18 56q0 58 -45 58q-17 0 -35 -8l-5 8q35 20 72 20q38 0 64.5 -21t26.5 -61z" />
    <glyph glyph-name="tcedilla" unicode="&#xe004;" horiz-adv-x="378" 
d="M353 120q-15 -70 -46.5 -101t-90.5 -31q-57 0 -90.5 30.5t-33.5 94.5v331l-97 14v17l68 10q33 4 49 19t23 51l15 77h47l-6 -148h161v-26l-161 -7v-338q0 -52 15.5 -72t46.5 -20q58 0 82 102zM286 -148q0 -45 -34.5 -70.5t-83.5 -25.5q-52 0 -96 27l8 12q30 -15 62 -15
q30 0 48 20t18 56q0 58 -45 58q-17 0 -35 -8l-5 8q35 20 72 20q38 0 64.5 -21t26.5 -61z" />
    <glyph glyph-name="commaaccent" unicode="&#xf6c3;" horiz-adv-x="494" 
d="M226 -257l-9 14q76 42 76 103q-13 -20 -39 -20q-23 0 -37 14t-14 37q0 24 16.5 40.5t41.5 16.5q28 0 44.5 -18t16.5 -46q0 -90 -96 -141z" />
    <glyph glyph-name="s_t" unicode="&#xfb06;" horiz-adv-x="817" 
d="M393 134q0 -69 -50 -109t-125 -40q-91 0 -143 49l-27 -48h-8v204h19q26 -101 65 -145.5t94 -44.5q45 0 72 23t27 65q0 43 -27.5 66.5t-99.5 49.5q-66 23 -103 57.5t-37 96.5q0 59 46.5 100t105.5 41q64 0 100 -38q-36 59 -36 140q0 71 54.5 128t142.5 57q76 0 124 -50
t48 -129q0 -50 -4 -123h161v-26l-161 -7v-338q0 -52 15.5 -72t46.5 -20q58 0 82 102l17 -3q-14 -70 -45.5 -101t-90.5 -31q-57 0 -90.5 30.5t-33.5 94.5v331l-97 14v17l69 10q35 4 54 30q32 37 32 103q0 67 -33.5 110t-93.5 43q-81 0 -130 -53t-49 -119q0 -70 27.5 -119
t83.5 -99q-4 -31 -31 -31q-16 0 -26 13.5t-24 46.5q-32 74 -103 74q-37 0 -61.5 -23.5t-24.5 -58.5q0 -40 27 -62.5t98 -47.5q143 -50 143 -158z" />
    <glyph glyph-name="A.small" horiz-adv-x="584" 
d="M584 0q-24 0 -67 0.5t-67 0.5q-23 0 -66.5 -0.5t-67.5 -0.5v16l42 5q30 4 35.5 18.5t-7.5 43.5l-30 79h-206l-11 -28q-23 -58 -19.5 -80t42.5 -30l40 -8v-16q-18 0 -49.5 0.5t-48.5 0.5q-18 0 -51.5 -0.5t-51.5 -0.5v16l27 7q30 8 47.5 30.5t43.5 86.5l116 290l34 97h52
l169 -428q19 -47 31.5 -61t37.5 -18l25 -4v-16zM348 182l-94 243l-96 -243h190z" />
    <glyph glyph-name="B.small" horiz-adv-x="545" 
d="M20 0v16l39 6q32 5 41 14.5t9 36.5v378q0 27 -9 36.5t-41 14.5l-39 6v16h257q58 0 102.5 -10.5t74.5 -39t30 -71.5q0 -105 -164 -125v-3q191 -12 191 -130q0 -70 -59 -107.5t-165 -37.5h-267zM211 284h53q60 0 87 29t27 89t-26 82t-86 22h-55v-222zM211 266v-208
q0 -23 11 -31.5t37 -8.5h21q59 0 87 30t28 100q0 63 -33 90.5t-98 27.5h-53z" />
    <glyph glyph-name="C.small" horiz-adv-x="568" 
d="M494 -10l-33 54q-61 -58 -156 -58q-110 0 -190 74.5t-80 200.5q0 127 80.5 202t189.5 75q97 0 156 -59l33 55h8v-219h-15q-39 114 -80 160t-100 46q-76 0 -116.5 -65t-40.5 -194q0 -126 40 -192.5t118 -66.5q59 0 101 46.5t78 149.5h15v-209h-8z" />
    <glyph glyph-name="D.small" horiz-adv-x="604" 
d="M20 0v16l39 6q32 5 41 14.5t9 36.5v378q0 27 -9 36.5t-41 14.5l-39 6v16h256q127 0 210 -65t83 -197q0 -90 -41.5 -150.5t-105.5 -86t-146 -25.5h-256zM259 18h17q89 0 134 58.5t45 185.5q0 128 -45 186t-134 58h-65v-448q0 -23 11 -31.5t37 -8.5z" />
    <glyph glyph-name="E.small" horiz-adv-x="529" 
d="M491 186l-7 -186h-464v16l39 6q32 5 41 14.5t9 36.5v378q0 27 -9 36.5t-41 14.5l-39 6v16h441l7 -173h-16q-37 93 -66.5 124t-86.5 31h-88v-227h50q37 0 56 24t41 91h13q-1 -41 -1 -125q0 -83 1 -125h-13q-23 70 -41.5 93.5t-55.5 23.5h-50v-203q0 -23 11 -31t37 -8h44
q67 0 99.5 32t73.5 135h15z" />
    <glyph glyph-name="F.small" horiz-adv-x="504" 
d="M306 16v-16q-25 0 -73 0.5t-73 0.5q-24 0 -69.5 -0.5t-70.5 -0.5v16l39 6q32 5 41 14t9 36v379q0 27 -9 36.5t-41 14.5l-39 6v16h443l7 -182h-16q-40 98 -69.5 131t-84.5 33h-89v-229h49q37 0 56 24t42 92h13q-1 -42 -1 -125q0 -84 1 -126h-13q-24 71 -42 94t-56 23h-49
v-181q0 -28 10.5 -39.5t43.5 -16.5z" />
    <glyph glyph-name="G.small" horiz-adv-x="596" 
d="M500 -12l-42 64q-55 -66 -159 -66q-109 0 -186.5 74.5t-77.5 200.5q0 127 81 202t192 75q96 0 154 -58l34 52h7v-215h-14q-40 113 -81 158.5t-100 45.5q-77 0 -117.5 -65.5t-40.5 -193.5q0 -259 153 -259q54 0 81.5 28.5t27.5 78.5v61q0 24 -9.5 34.5t-38.5 14.5l-46 7
v16q46 -1 133 -1q92 0 139 1v-16l-43 -7q-26 -4 -34.5 -14.5t-8.5 -34.5v-74l3 -109h-7z" />
    <glyph glyph-name="H.small" horiz-adv-x="667" 
d="M456 278v173q0 27 -8.5 36.5t-39.5 14.5l-39 6v16q24 0 69 -0.5t69 -0.5q25 0 70 0.5t70 0.5v-16l-40 -6q-32 -5 -40.5 -14.5t-8.5 -36.5v-378q0 -27 8.5 -36.5t40.5 -14.5l40 -6v-16q-25 0 -70 0.5t-70 0.5q-24 0 -69 -0.5t-69 -0.5v16l39 6q31 5 39.5 14.5t8.5 36.5
v185h-245v-185q0 -27 8.5 -36.5t39.5 -14.5l39 -6v-16q-24 0 -69 0.5t-70 0.5q-24 0 -69 -0.5t-70 -0.5v16l39 6q32 5 41 14.5t9 36.5v378q0 27 -9 36.5t-41 14.5l-39 6v16q25 0 70 -0.5t69 -0.5q25 0 70 0.5t69 0.5v-16l-39 -6q-31 -5 -39.5 -14.5t-8.5 -36.5v-173h245z
" />
    <glyph glyph-name="I.small" horiz-adv-x="320" 
d="M300 16v-16q-24 0 -70 0.5t-70 0.5t-69.5 -0.5t-70.5 -0.5v16l39 6q32 5 41 14.5t9 36.5v378q0 27 -9 36.5t-41 14.5l-39 6v16q25 0 70.5 -0.5t69.5 -0.5t70 0.5t70 0.5v-16l-40 -6q-32 -5 -40.5 -14.5t-8.5 -36.5v-378q0 -27 8.5 -36.5t40.5 -14.5z" />
    <glyph glyph-name="J.small" horiz-adv-x="452" 
d="M150 -13q-63 0 -102.5 30t-39.5 80q0 32 18 52.5t48 20.5q25 0 40 -15t15 -39q0 -48 -49 -53q-17 -1 -17 -15q0 -17 23.5 -30.5t60.5 -13.5q106 0 106 132v310q0 28 -10.5 39.5t-43.5 16.5l-39 6v16q25 0 70.5 -0.5t69.5 -0.5t70 0.5t71 0.5v-16l-40 -6
q-32 -5 -40.5 -14.5t-8.5 -36.5v-258q0 -98 -59 -152t-143 -54z" />
    <glyph glyph-name="K.small" horiz-adv-x="622" 
d="M620 17v-17q-24 0 -69.5 0.5t-69.5 0.5t-71.5 -0.5t-71.5 -0.5v16l24 4q37 6 37 19t-28 43l-159 181l157 150q50 47 50 66q0 18 -43 25l-28 4v16q41 -1 120 -1q82 0 123 1v-16l-27 -5q-50 -9 -88 -30.5t-93 -72.5l-88 -80l195 -222q39 -44 58.5 -57.5t50.5 -19.5zM298 0
q-25 0 -70 0.5t-69 0.5t-69 -0.5t-70 -0.5v16l39 6q33 5 41.5 13.5t8.5 35.5v380q0 27 -9 36.5t-41 14.5l-39 6v16q25 0 70.5 -0.5t69.5 -0.5t70 0.5t70 0.5v-16l-40 -6q-32 -5 -40.5 -14.5t-8.5 -36.5v-380q0 -27 8 -35.5t40 -13.5l39 -6v-16z" />
    <glyph glyph-name="L.small" horiz-adv-x="526" 
d="M487 0h-467v16l39 6q32 5 41 14.5t9 36.5v378q0 27 -9 36.5t-41 14.5l-39 6v16q25 0 70.5 -0.5t69.5 -0.5q25 0 71 0.5t71 0.5v-16l-41 -6q-33 -5 -41.5 -15t-8.5 -37v-392q0 -23 11 -31.5t37 -8.5h53q56 0 92.5 38t73.5 145h15z" />
    <glyph glyph-name="M.small" horiz-adv-x="766" 
d="M554 480l-193 -481h-36l-195 473v-360q0 -48 11.5 -65.5t45.5 -24.5l30 -6v-16q-17 0 -49 0.5t-49 0.5q-18 0 -50 -0.5t-49 -0.5v16l30 6q34 7 45.5 24.5t11.5 65.5v339q0 27 -8 36.5t-40 14.5l-39 6v16h202l165 -401l162 401h197v-16l-40 -6q-32 -5 -40.5 -14.5
t-8.5 -36.5v-378q0 -27 8.5 -36.5t40.5 -14.5l40 -6v-16q-24 0 -70 0.5t-70 0.5t-69.5 -0.5t-70.5 -0.5v16l39 6q32 5 40.5 14.5t8.5 36.5v407z" />
    <glyph glyph-name="N.small" horiz-adv-x="617" 
d="M446 0l-316 455v-342q0 -48 11.5 -66t45.5 -25l30 -6v-16q-17 0 -49 0.5t-49 0.5q-18 0 -50 -0.5t-49 -0.5v16l30 6q34 7 45.5 25t11.5 66v337q0 27 -8.5 37t-39.5 15l-39 6v16h187l282 -400v289q0 48 -11 65t-45 24l-30 6v16q17 0 49 -0.5t49 -0.5t49 0.5t50 0.5v-16
l-31 -6q-33 -7 -44.5 -24t-11.5 -65v-413h-67z" />
    <glyph glyph-name="O.small" horiz-adv-x="613" 
d="M578 262q0 -124 -78.5 -200t-191.5 -76q-115 0 -194 76t-79 200q0 125 79 200.5t194 75.5q113 0 191.5 -75.5t78.5 -200.5zM148 262q0 -118 38 -188.5t122 -70.5q81 0 119.5 71t38.5 188q0 118 -38 188.5t-120 70.5q-84 0 -122 -70.5t-38 -188.5z" />
    <glyph glyph-name="P.small" horiz-adv-x="528" 
d="M211 510v-260q30 -2 60 -2q58 0 90.5 32t32.5 97q0 70 -31.5 101.5t-98.5 31.5h-53zM306 12v-12q-25 0 -73 0.5t-73 0.5q-24 0 -69.5 -0.5t-70.5 -0.5v12l39 6q32 5 41 15t9 37v383q0 27 -9 37.5t-41 15.5l-39 6v12h244q238 0 238 -146q0 -71 -64 -108t-167 -37
q-36 0 -60 3v-160q0 -29 10.5 -41t43.5 -17z" />
    <glyph glyph-name="Q.small" horiz-adv-x="613" 
d="M597 -218q-47 0 -89.5 22.5t-69.5 49t-66.5 49t-81.5 22.5q-41 0 -73.5 -18.5t-55.5 -37t-40 -18.5q-29 0 -41 28q44 37 124 50q59 29 177 78q-47 -18 -81 -18q-110 0 -187.5 75t-77.5 198q0 125 79 200.5t194 75.5q113 0 191.5 -75.5t78.5 -200.5q0 -92 -44 -157
t-112 -95q-19 -8 -64 -27t-75.5 -32.5t-60.5 -28.5q46 19 93 19q78 0 172.5 -33.5t138.5 -33.5q52 0 77.5 15.5t33.5 50.5h12q-17 -158 -152 -158zM148 262q0 -118 38 -188.5t122 -70.5q81 0 119.5 71t38.5 188q0 118 -38 188.5t-120 70.5q-84 0 -122 -70.5t-38 -188.5z" />
    <glyph glyph-name="R.small" horiz-adv-x="576" 
d="M576 0h-113q-38 0 -51 9t-28 40l-100 198h-17q-26 0 -56 2v-176q0 -27 8.5 -36.5t40.5 -14.5l40 -6v-16q-24 0 -70 0.5t-70 0.5t-69.5 -0.5t-70.5 -0.5v16l39 6q32 5 41 14.5t9 36.5v378q0 27 -9 36.5t-41 14.5l-39 6v16h246q233 0 233 -136q0 -51 -37.5 -82.5
t-92.5 -42.5q19 -14 43 -57l70 -125q18 -33 31 -45t40 -16l23 -4v-16zM211 507v-240q42 -2 57 -2q62 0 92 27.5t30 92.5q0 70 -30 96t-97 26h-52z" />
    <glyph glyph-name="S.small" horiz-adv-x="478" 
d="M431 145q0 -76 -53 -117.5t-129 -41.5q-98 0 -154 54l-28 -49h-8v216h16q27 -112 68.5 -158t105.5 -46q51 0 80 25t29 71t-33.5 71t-102.5 48q-80 28 -119.5 68t-39.5 98q0 71 50.5 112.5t125.5 41.5q84 0 132 -50l27 45h7v-203h-15q-28 103 -61 147t-90 44
q-51 0 -77.5 -25t-26.5 -63q0 -44 34.5 -70.5t105.5 -51.5q76 -27 116 -63t40 -103z" />
    <glyph glyph-name="T.small" 
d="M418 16v-16q-25 0 -71.5 0.5t-70.5 0.5q-25 0 -72 -0.5t-72 -0.5v16l40 6q33 5 42.5 15.5t9.5 36.5v432h-45q-48 0 -77 -32.5t-65 -132.5h-13l5 183h493l4 -183h-13q-36 100 -65 132.5t-77 32.5h-45v-432q0 -26 9.5 -36.5t42.5 -15.5z" />
    <glyph glyph-name="U.small" horiz-adv-x="624" 
d="M315 -11q-103 0 -157.5 46t-54.5 151v265q0 27 -8.5 36.5t-40.5 14.5l-39 6v16q25 0 70.5 -0.5t69.5 -0.5q25 0 70 0.5t70 0.5v-16l-40 -6q-32 -5 -40.5 -14.5t-8.5 -36.5v-268q0 -88 36.5 -124t108.5 -36q150 0 150 163v227q0 48 -11 65t-45 24l-30 6v16q17 0 49 -0.5
t50 -0.5t49 0.5t49 0.5v-16l-30 -6q-34 -7 -45.5 -24t-11.5 -65v-227q0 -197 -210 -197z" />
    <glyph glyph-name="V.small" horiz-adv-x="591" 
d="M268 -2l-165 427q-17 44 -32.5 59.5t-42.5 19.5l-28 4v16q47 -1 142 -1q94 0 141 1v-16l-42 -5q-31 -4 -38 -18.5t4 -43.5l126 -341l113 290q23 59 16.5 82t-48.5 30l-38 6v16q36 -1 107 -1q72 0 108 1v-16l-28 -6q-34 -7 -53.5 -31t-44.5 -88l-114 -289l-34 -96h-49z
" />
    <glyph glyph-name="W.small" horiz-adv-x="837" 
d="M242 -3l-144 428q-15 45 -29 60t-42 19l-27 4v16q47 -1 143 -1q94 0 140 1v-16l-42 -5q-31 -4 -39.5 -20t1.5 -42l101 -322l121 407h51l136 -407l84 269q18 66 9.5 86t-50.5 28l-33 6v16q36 -1 108 -1t108 1v-16l-26 -5q-35 -7 -55 -31.5t-40 -88.5l-89 -280l-30 -106
h-49l-139 401l-90 -295l-28 -106h-50z" />
    <glyph glyph-name="X.small" horiz-adv-x="635" 
d="M629 0q-25 0 -74.5 0.5t-75.5 0.5q-24 0 -74 -0.5t-75 -0.5v16l39 5q29 4 34.5 16.5t-12.5 41.5l-104 150l-89 -110q-39 -48 -39 -69q0 -12 11.5 -17.5t38.5 -10.5l35 -6v-16q-20 0 -59.5 0.5t-59.5 0.5t-60 -0.5t-60 -0.5v16l25 5q45 9 74 30t78 80l94 113l-128 179
q-34 47 -53 62t-46 19l-26 4v16q48 -1 144 -1q95 0 144 1v-16l-37 -5q-19 -2 -26.5 -9.5t-4.5 -19t15 -29.5l93 -135l77 96q40 50 40 69q0 13 -10 18t-37 9l-35 6v16q38 -1 114 -1t114 1v-16l-26 -5q-40 -8 -67 -28t-78 -81l-82 -98l136 -191q36 -49 57 -64.5t51 -20.5
l24 -4v-16z" />
    <glyph glyph-name="Y.small" horiz-adv-x="582" 
d="M430 0q-24 0 -70.5 0.5t-71.5 0.5q-24 0 -71 -0.5t-71 -0.5v16l39 6q33 5 42.5 15.5t9.5 36.5v130l-137 242q-18 32 -33 43.5t-38 14.5l-28 4v16q47 -1 143 -1t143 1v-16l-43 -5q-29 -4 -34.5 -19t9.5 -40l113 -206l88 154q32 58 32 77q0 15 -12 22.5t-37 11.5l-29 5v16
q34 -1 103 -1q70 0 105 1v-16l-24 -5q-31 -6 -56 -30t-63 -90l-99 -172v-137q0 -26 9.5 -36.5t42.5 -15.5l38 -6v-16z" />
    <glyph glyph-name="Z.small" horiz-adv-x="525" 
d="M478 0h-445v14l327 492h-129q-60 0 -95 -32.5t-72 -132.5h-16l6 183h430v-14l-327 -492h135q63 0 101 35t76 140h15z" />
    <glyph glyph-name="zero.lp" horiz-adv-x="637" 
d="M590 340q0 -162 -73 -258.5t-199 -96.5q-125 0 -198 96.5t-73 258.5q0 161 73 257.5t198 96.5q126 0 199 -96t73 -258zM160 340q0 -340 157 -340q162 0 162 340q0 339 -162 339q-157 0 -157 -339z" />
    <glyph glyph-name="one.lp" horiz-adv-x="477" 
d="M78 0v16l47 7q43 7 56.5 22.5t13.5 53.5v445q0 43 -14.5 60t-56.5 19l-53 3v18l53 3q141 8 156 32h18q-4 -63 -4 -131v-449q0 -39 12.5 -54.5t57.5 -21.5l46 -7v-16q-32 0 -86 0.5t-79 0.5t-80 -0.5t-87 -0.5z" />
    <glyph glyph-name="two.lp" horiz-adv-x="552" 
d="M467 0h-420v28q117 103 230 239q109 135 109 252q0 159 -109 159q-64 0 -102 -48.5t-38 -114.5q0 -89 56 -89q46 0 64 81l14 -1q-19 -125 -118 -125q-45 0 -76 31.5t-31 85.5q0 85 68 140t162 55t156.5 -46t62.5 -132q0 -31 -11.5 -62.5t-26 -55t-46.5 -56.5t-51.5 -51.5
t-63.5 -56.5q-35 -31 -94.5 -83t-86.5 -76q73 12 154 12h117q35 0 52 12t31 48l17 44h18z" />
    <glyph glyph-name="three.lp" horiz-adv-x="544" 
d="M514 213q0 -72 -49 -126t-114 -78t-130 -24q-96 0 -145.5 36t-49.5 90q0 32 19 55t52 23q28 0 44.5 -15.5t16.5 -40.5q0 -24 -12 -37.5t-24.5 -21t-12.5 -17.5q0 -21 30 -39t80 -18q82 0 135 57t53 149q0 88 -24.5 124t-81.5 36q-31 0 -57.5 -16t-47 -32t-37.5 -16
q-36 0 -36 40q15 8 73.5 23.5t86.5 32.5q92 56 92 162q0 119 -104 119q-64 0 -97 -39t-33 -93q0 -66 52 -66q46 0 60 76l13 -2q-18 -121 -112 -121q-45 0 -72 26.5t-27 73.5q0 70 63 115t154 45q90 0 149 -33t59 -101q0 -28 -11 -50.5t-26 -38.5t-52.5 -36.5t-67.5 -34
t-94 -40.5q53 23 112 23q72 0 122.5 -41t50.5 -129z" />
    <glyph glyph-name="four.lp" horiz-adv-x="561" 
d="M43 240h251v178q0 116 7 200zM484 15v-15q-24 0 -70.5 0.5t-70.5 0.5t-75 -0.5t-75 -0.5v15l46 6q33 4 44 16.5t11 44.5v133h-267l-7 25l299 439h74v-439h31q37 0 53.5 14.5t32.5 64.5l15 47h14l-21 -153q-62 2 -97 2h-28v-137q0 -30 9.5 -41.5t41.5 -15.5z" />
    <glyph glyph-name="five.lp" horiz-adv-x="537" 
d="M217 -15q-90 0 -140 35t-50 93q0 34 20 55.5t53 21.5q27 0 43 -15t16 -41q0 -19 -7.5 -31.5t-16.5 -17.5t-16.5 -12.5t-7.5 -16.5q0 -21 28.5 -38.5t77.5 -17.5q80 0 126 56.5t46 149.5q0 103 -31.5 151.5t-98.5 48.5q-85 0 -131 -84l-48 4l33 358h23q78 -22 177 -22
q55 0 104 8.5t66 21.5l7 -2q-35 -84 -141.5 -111t-225.5 -4l-20 -215q67 62 161 62q97 0 164.5 -51.5t67.5 -157.5q0 -72 -45 -126t-106.5 -78t-127.5 -24z" />
    <glyph glyph-name="six.lp" horiz-adv-x="585" 
d="M149 206q0 102 47 159.5t128 57.5q96 0 157.5 -56.5t61.5 -156.5q0 -98 -73 -161.5t-171 -63.5q-112 0 -182 80.5t-70 239.5q0 95 25.5 171.5t68.5 123t96 70.5t111 24q86 0 133 -33.5t47 -82.5q0 -33 -19 -54t-52 -21q-26 0 -43 15.5t-17 40.5q0 28 22 47.5t22 30.5
q0 17 -23.5 29.5t-67.5 12.5q-105 0 -153 -112t-48 -361zM300 0q69 0 101 57t32 150q0 192 -127 192q-66 0 -104 -55t-38 -138q0 -92 33.5 -149t102.5 -57z" />
    <glyph glyph-name="seven.lp" horiz-adv-x="521" 
d="M244 -16q-65 0 -65 69q0 146 151 372q15 23 127 172h-284q-39 0 -59 -13t-33 -51l-16 -47h-18l32 213h15q0 -11 4.5 -15.5t18.5 -4.5h392v-34q-8 -11 -32 -42.5t-35.5 -47.5t-29.5 -43.5t-31.5 -52.5t-24.5 -52q-27 -66 -36.5 -143t-9.5 -206q0 -34 -18 -54t-48 -20z" />
    <glyph glyph-name="eight.lp" horiz-adv-x="606" 
d="M303 -15q-112 0 -186.5 50t-74.5 142q0 75 59.5 124.5t151.5 61.5q-75 11 -124.5 53.5t-49.5 106.5q0 82 64 126.5t160 44.5t159.5 -44.5t63.5 -126.5q0 -64 -49.5 -106t-123.5 -54q91 -12 151 -61.5t60 -124.5q0 -92 -74.5 -142t-186.5 -50zM183 525q0 -74 31.5 -113.5
t88.5 -39.5t88.5 39.5t31.5 113.5q0 73 -33 113.5t-87 40.5t-87 -40.5t-33 -113.5zM156 175q0 -83 40 -129t107 -46t107 46t40 129t-39 129.5t-108 46.5t-108 -46t-39 -130z" />
    <glyph glyph-name="nine.lp" horiz-adv-x="585" 
d="M422 473q0 92 -34 149t-103 57t-101 -57t-32 -150q0 -192 127 -192q66 0 104.5 55t38.5 138zM237 -15q-85 0 -132 33.5t-47 82.5q0 34 19 54.5t51 20.5q26 0 43 -15.5t17 -40.5q0 -28 -22 -48t-22 -31q0 -17 23.5 -29t68.5 -12q104 0 152 112t48 361q0 -102 -47 -159.5
t-128 -57.5q-96 0 -157.5 56.5t-61.5 156.5q0 98 73 161.5t171 63.5q112 0 182 -80.5t70 -239.5q0 -95 -25.5 -171.5t-68.5 -123t-96 -70.5t-111 -24z" />
    <glyph glyph-name="zero.ot" horiz-adv-x="600" 
d="M545 262q0 -122 -71 -199.5t-174 -77.5t-174 77.5t-71 199.5q0 123 71 200t174 77t174 -77t71 -200zM172 262q0 -119 31 -190.5t97 -71.5t97 71.5t31 190.5q0 120 -31 191t-97 71t-97 -71t-31 -191z" />
    <glyph glyph-name="one.ot" horiz-adv-x="600" 
d="M119 0v16l64 7q54 6 72 22t18 54v290q0 44 -18 60t-77 19l-67 3v18l64 3q164 8 184 32h19q-5 -78 -5 -131v-294q0 -39 17 -54.5t73 -21.5l64 -7v-16q-37 0 -104 0.5t-99 0.5t-99.5 -0.5t-105.5 -0.5z" />
    <glyph glyph-name="two.ot" horiz-adv-x="600" 
d="M496 -71h-16v23q0 26 -11 37t-37 11h-358v29q171 107 231 160q104 92 104 200q0 135 -107 135q-61 0 -98 -44.5t-37 -101.5q0 -76 52 -76q45 0 59 77l14 -2q-8 -60 -38.5 -90.5t-77.5 -30.5q-45 0 -72.5 28t-27.5 75q0 75 64.5 127.5t162.5 52.5q92 0 152.5 -43.5
t60.5 -116.5q0 -64 -43 -110.5t-134 -97.5q-132 -73 -170 -96q60 11 120 11h235z" />
    <glyph glyph-name="three.ot" horiz-adv-x="600" 
d="M531 58q0 -72 -48 -126t-111.5 -78t-126.5 -24q-89 0 -139 35.5t-50 90.5q0 32 19 55t51 23q28 0 44 -15t16 -41q0 -24 -12 -38t-24 -22.5t-12 -19.5q0 -21 27 -37t79 -16q79 0 129 57t50 149q0 89 -22.5 124.5t-77.5 35.5q-30 0 -55.5 -16t-45.5 -32t-36 -16
q-36 0 -36 40q14 8 71.5 23.5t84.5 32.5q46 29 66.5 67.5t20.5 94.5q0 119 -99 119q-61 0 -92 -39t-31 -93q0 -66 49 -66q44 0 58 74l13 -2q-18 -119 -110 -119q-43 0 -70 26.5t-27 73.5q0 70 61.5 115t149.5 45t145.5 -33t57.5 -101q0 -65 -50.5 -102.5t-194.5 -97.5
q55 23 109 23q71 0 120 -40.5t49 -129.5z" />
    <glyph glyph-name="four.ot" horiz-adv-x="600" 
d="M60 85h250v164q0 131 7 216zM498 -140v-15q-23 0 -69 0.5t-70 0.5q-23 0 -74 -0.5t-74 -0.5v15l45 6q32 5 43 17.5t11 43.5v133h-266l-7 25l297 439h75v-439h29q35 0 51.5 14.5t32.5 64.5l15 47h13l-20 -153q-62 2 -96 2h-25v-137q0 -30 9.5 -41.5t39.5 -15.5z" />
    <glyph glyph-name="five.ot" horiz-adv-x="600" 
d="M254 -170q-89 0 -139 35.5t-50 90.5q0 32 19 55t51 23q28 0 44 -15t16 -41q0 -24 -12 -38t-24 -22.5t-12 -19.5q0 -21 27 -37t79 -16q79 0 124.5 56.5t45.5 149.5q0 103 -31 151.5t-97 48.5q-83 0 -129 -84l-47 4l32 358h23q76 -22 174 -22q55 0 103.5 8.5t65.5 21.5
l7 -2q-35 -84 -140 -111t-223 -4l-20 -215q65 62 161 62t162 -51.5t66 -157.5q0 -72 -44.5 -126t-105.5 -78t-126 -24z" />
    <glyph glyph-name="six.ot" horiz-adv-x="600" 
d="M165 206q0 102 46.5 159.5t127.5 57.5q95 0 156 -56.5t61 -156.5q0 -98 -72.5 -161.5t-169.5 -63.5q-111 0 -180.5 80.5t-69.5 239.5q0 95 26 171.5t69 122.5t96.5 70.5t111.5 24.5q83 0 128.5 -33.5t45.5 -82.5q0 -33 -19 -54t-51 -21q-27 0 -43.5 15t-16.5 40
q0 27 21 48t21 32q0 17 -20.5 29t-63.5 12q-104 0 -154 -113t-50 -360zM180 206q0 -92 33.5 -149t101.5 -57t100 57.5t32 149.5q0 192 -126 192q-65 0 -103 -55t-38 -138z" />
    <glyph glyph-name="seven.ot" horiz-adv-x="600" 
d="M266 -171q-65 0 -65 69q0 141 156 372q19 28 41.5 57.5t50 64t40.5 50.5h-291q-40 0 -60 -13t-33 -51l-16 -47h-18l31 213h15q0 -11 4.5 -15.5t18.5 -4.5h401v-34q-8 -10 -40.5 -52.5t-46.5 -61.5t-35.5 -55t-35.5 -69q-29 -67 -40 -144.5t-11 -204.5q0 -34 -18 -54
t-48 -20z" />
    <glyph glyph-name="eight.ot" horiz-adv-x="600" 
d="M302 -15q-109 0 -182 50t-73 142q0 75 58.5 124.5t147.5 61.5q-73 11 -122 53t-49 106q0 82 63.5 127t156.5 45q94 0 157 -45t63 -127q0 -64 -49 -106t-122 -53q89 -12 148 -61.5t59 -124.5q0 -92 -73.5 -142t-182.5 -50zM186 525q0 -74 30.5 -113.5t85.5 -39.5
q56 0 86.5 39.5t30.5 113.5q0 73 -32 113.5t-85 40.5q-52 0 -84 -40.5t-32 -113.5zM161 175q0 -83 38 -129t103 -46t103.5 46t38.5 129t-38 129.5t-104 46.5q-67 0 -104 -46t-37 -130z" />
    <glyph glyph-name="nine.ot" horiz-adv-x="600" 
d="M422 318q0 93 -32 149.5t-100 56.5q-129 0 -129 -207q0 -192 123 -192q65 0 101.5 54.5t36.5 138.5zM437 318q0 -103 -45.5 -160t-125.5 -57q-95 0 -154.5 56.5t-59.5 156.5q0 98 71.5 161.5t167.5 63.5q111 0 179.5 -80.5t68.5 -239.5q0 -186 -88.5 -287.5
t-211.5 -101.5q-84 0 -129.5 33.5t-45.5 82.5q0 33 19 54t52 21q26 0 43 -15t17 -40q0 -27 -21.5 -48.5t-21.5 -31.5q0 -41 84 -41q103 0 152 112.5t49 360.5z" />
    <glyph glyph-name="zero.lt" horiz-adv-x="600" 
d="M556 340q0 -162 -68.5 -258.5t-187.5 -96.5q-118 0 -186.5 96.5t-68.5 258.5q0 161 68.5 257.5t186.5 96.5t187 -96t69 -258zM156 340q0 -77 7 -135.5t22.5 -106.5t44 -73t69.5 -25q147 0 147 340q0 339 -147 339q-41 0 -69.5 -25t-44 -72.5t-22.5 -106t-7 -135.5z" />
    <glyph glyph-name="one.lt" horiz-adv-x="600" 
d="M102 0v16l68 7q56 6 75 22t19 54v445q0 44 -18.5 60t-81.5 19l-70 3v18l67 3q169 8 188 32h20q-5 -59 -5 -131v-449q0 -38 18 -54t75 -22l68 -7v-16q-40 0 -108.5 0.5t-101.5 0.5t-103 -0.5t-110 -0.5z" />
    <glyph glyph-name="two.lt" horiz-adv-x="600" 
d="M486 0h-410v28q130 120 223 236q109 132 109 263q0 151 -110 151q-62 0 -97.5 -49.5t-35.5 -116.5q0 -86 53 -86q45 0 62 79l14 -1q-17 -123 -115 -123q-45 0 -74.5 31.5t-29.5 85.5q0 85 65 140t156 55q94 0 157 -44.5t63 -130.5q0 -39 -14 -74.5t-47.5 -75t-58.5 -64
t-78 -71.5q-36 -32 -95 -85.5t-80 -72.5q77 11 153 11h111q34 0 51 12t30 48l16 44h18z" />
    <glyph glyph-name="three.lt" horiz-adv-x="600" 
d="M533 213q0 -72 -48 -126t-111.5 -78t-126.5 -24q-88 0 -138.5 36t-50.5 90q0 32 19 55t51 23q27 0 43.5 -15.5t16.5 -40.5q0 -24 -12 -38t-24 -22.5t-12 -19.5q0 -21 27 -37t79 -16q78 0 128.5 57.5t50.5 148.5q0 88 -22.5 124t-77.5 36q-30 0 -55.5 -16t-45.5 -32
t-36 -16q-36 0 -36 40q14 8 71.5 23.5t84.5 32.5q46 29 66.5 67.5t20.5 94.5q0 119 -99 119q-62 0 -93 -39t-31 -93q0 -66 50 -66q44 0 58 75l13 -2q-18 -119 -110 -119q-44 0 -70.5 26.5t-26.5 72.5q0 70 61.5 115t149.5 45t145.5 -32.5t57.5 -101.5q0 -65 -50.5 -102.5
t-194.5 -97.5q55 23 109 23q71 0 120 -40.5t49 -129.5z" />
    <glyph glyph-name="four.lt" horiz-adv-x="600" 
d="M69 240h250v164q0 131 7 216zM507 15v-15q-23 0 -69 0.5t-70 0.5t-74 -0.5t-73 -0.5v15l44 6q32 4 43 16.5t11 44.5v133h-265l-7 25l297 439h74v-439h29q36 0 52.5 14.5t32.5 64.5l15 47h13l-21 -153q-62 2 -95 2h-26v-137q0 -30 9.5 -41.5t40.5 -15.5z" />
    <glyph glyph-name="five.lt" horiz-adv-x="600" 
d="M255 -15q-90 0 -140 36t-50 90q0 32 19 55t51 23q28 0 44.5 -15.5t16.5 -40.5q0 -19 -7.5 -32t-17 -18.5t-17 -13t-7.5 -16.5q0 -21 27.5 -37t79.5 -16q78 0 123.5 57t45.5 150q0 103 -31 151t-96 48q-84 0 -130 -84l-47 4l32 358h23q76 -22 174 -22q55 0 103.5 8.5
t65.5 21.5l7 -2q-35 -84 -139.5 -111t-223.5 -4v1l-20 -216q65 62 162 62q96 0 161.5 -51.5t65.5 -157.5q0 -72 -44.5 -126t-105.5 -78t-125 -24z" />
    <glyph glyph-name="six.lt" horiz-adv-x="600" 
d="M165 206q0 102 46.5 159.5t127.5 57.5q95 0 156 -56.5t61 -156.5q0 -98 -72.5 -161.5t-169.5 -63.5q-111 0 -180.5 80.5t-69.5 239.5q0 95 26 171.5t69 122.5t96.5 70.5t111.5 24.5q83 0 128.5 -33.5t45.5 -82.5q0 -33 -19 -54t-51 -21q-27 0 -43.5 15t-16.5 40
q0 27 21 48t21 32q0 17 -20.5 29t-63.5 12q-104 0 -154 -113t-50 -360zM180 206q0 -92 33.5 -149t101.5 -57t100 57.5t32 149.5q0 192 -126 192q-65 0 -103 -55t-38 -138z" />
    <glyph glyph-name="seven.lt" horiz-adv-x="600" 
d="M276 -16q-64 0 -64 69q0 143 156 372q24 36 71.5 96.5t59.5 76.5h-290q-40 0 -60 -13t-33 -52l-16 -46h-19l32 212h15q0 -11 4.5 -15.5t18.5 -4.5h401v-34q-10 -13 -41 -53t-46 -60.5t-36.5 -56t-35.5 -68.5q-28 -68 -39.5 -146t-11.5 -203q0 -34 -17.5 -54t-48.5 -20z
" />
    <glyph glyph-name="eight.lt" horiz-adv-x="600" 
d="M302 -15q-109 0 -182 50t-73 142q0 75 58.5 124.5t147.5 61.5q-73 11 -122 53t-49 106q0 82 63.5 127t156.5 45q94 0 157 -45t63 -127q0 -64 -49 -106t-122 -53q89 -12 148 -61.5t59 -124.5q0 -92 -73.5 -142t-182.5 -50zM186 525q0 -74 30.5 -113.5t85.5 -39.5
q56 0 86.5 39.5t30.5 113.5q0 73 -32 113.5t-85 40.5q-52 0 -84 -40.5t-32 -113.5zM161 175q0 -83 38 -129t103 -46t103.5 46t38.5 129t-38 129.5t-104 46.5q-67 0 -104 -46t-37 -130z" />
    <glyph glyph-name="nine.lt" horiz-adv-x="600" 
d="M422 473q0 93 -32 149.5t-100 56.5q-128 0 -128 -207q0 -192 122 -192q65 0 101.5 54.5t36.5 138.5zM437 473q0 -103 -45.5 -160t-125.5 -57q-95 0 -154.5 56.5t-59.5 156.5q0 98 71.5 161.5t167.5 63.5q111 0 179.5 -80.5t68.5 -239.5q0 -186 -88.5 -287.5
t-211.5 -101.5q-83 0 -129 33.5t-46 82.5q0 33 19 54t52 21q26 0 43 -15t17 -40q0 -27 -21.5 -48t-21.5 -32q0 -17 20.5 -29t63.5 -12q103 0 152 112.5t49 360.5z" />
    <glyph glyph-name="dollar.lp" horiz-adv-x="521" 
d="M263 406l37 263l-11 1q-79 0 -120 -36t-41 -86q0 -52 33 -83t102 -59zM242 5q84 0 126 34.5t42 91.5t-36 90t-106 59l-39 -275h13zM488 180q0 -84 -70 -137t-175 -53h-16l-16 -111h-24l16 113q-89 7 -139.5 48t-50.5 102q0 31 19.5 54t49.5 23q27 0 43.5 -16.5
t16.5 -42.5q0 -19 -7.5 -31.5t-16 -18t-16 -12.5t-7.5 -15q0 -25 30 -47.5t80 -28.5l41 281h-1q-99 35 -147.5 84t-48.5 123q0 87 68.5 138.5t171.5 51.5h13l9 59h24l-9 -61q76 -9 122 -47.5t46 -89.5q0 -31 -18.5 -52.5t-49.5 -21.5q-26 0 -43 16.5t-17 41.5q0 24 12 37.5
t23.5 21.5t11.5 18q0 18 -24.5 36t-64.5 24l-39 -270q3 -1 9.5 -3.5t9.5 -3.5q90 -34 137 -80t47 -130z" />
    <glyph glyph-name="cent.lp" horiz-adv-x="529" 
d="M209 171l93 402q-76 -5 -121 -70.5t-45 -154.5q0 -117 73 -177zM212 86l-34 -148h-23l36 155q-63 27 -102 86t-39 142q0 120 78 193.5t178 73.5l26 114h22l-26 -114q71 -4 113.5 -37t42.5 -81q0 -30 -18.5 -50.5t-49.5 -20.5q-27 0 -44 15t-17 40q0 23 11.5 36.5t22.5 22
t11 17.5q0 16 -23.5 29.5t-52.5 12.5l-96 -416q42 -24 86 -24q52 0 86.5 12.5t64.5 48.5l9 -7q-67 -111 -192 -111q-34 0 -70 11z" />
    <glyph glyph-name="sterling.lp" horiz-adv-x="599" 
d="M106 0q93 0 126 99q-66 55 -125 55q-38 0 -62 -21.5t-24 -56.5t25 -55.5t60 -20.5zM526 204q38 -83 10.5 -150t-106.5 -67q-27 0 -51 6.5t-50 25t-36 27t-40 35.5q-52 -96 -146 -96q-46 0 -76 25.5t-30 67.5q0 45 37 79t104 34q48 0 104 -22q3 30 3 56q0 40 -11 106
l-149 10v13l143 9q-13 76 -13 131q0 102 62 151t148 49q63 0 102.5 -29.5t39.5 -77.5q0 -32 -18 -52.5t-51 -20.5q-29 0 -46.5 16t-17.5 42q0 22 12 36.5t23.5 23t11.5 17.5q0 30 -51 30q-45 0 -67.5 -47t-31.5 -151q-8 -89 -12 -121h148v-19l-151 -6q-8 -65 -21 -122
q-10 -40 -16 -59q11 -5 35 -17t37 -18t32.5 -13.5t36 -11t32.5 -3.5q43 0 59 30.5t-3 82.5h14z" />
    <glyph glyph-name="yen.lp" horiz-adv-x="711" 
d="M524 16v-16q-30 0 -86 0.5t-86 0.5t-86 -0.5t-85 -0.5v16l51 7q40 6 52.5 20.5t12.5 48.5v80h-175v25h175v73l-5 8h-170v25h156l-158 280q-23 39 -42 55t-46 20l-37 5v16q58 -1 174 -1q115 0 172 1v-16l-57 -7q-70 -8 -34 -76l151 -277l117 209q38 66 38 98q0 36 -58 46
l-40 7v16q43 -1 129 -1t129 1v-15l-30 -7q-38 -9 -68.5 -39t-78.5 -113l-117 -202h145v-25h-159v-81h159v-25h-159v-80q0 -34 12 -48.5t52 -20.5z" />
    <glyph glyph-name="euro.lp" horiz-adv-x="593" 
d="M525 -10l-31 60q-56 -65 -150 -65q-99 0 -168 67.5t-88 192.5l-73 16v13l68 14q-2 32 -2 50q0 30 1 44l-67 15v13l72 16q18 129 87.5 198.5t169.5 69.5q95 0 150 -66l31 61h10v-257h-16q-46 149 -79.5 198t-92.5 49q-68 0 -103 -63.5t-43 -195.5h185l-7 -27l-179 -6
q-1 -16 -1 -48q0 -38 1 -55h159l-7 -27l-150 -7q8 -124 42.5 -187t102.5 -63q61 0 96 51t76 183h16v-244h-10z" />
    <glyph glyph-name="numbersign.lp" horiz-adv-x="514" 
d="M324 247l21 191h-151l-21 -191h151zM165 175l-19 -175h-25l19 175h-94l-15 72h117l21 191h-110l-15 72h133l18 169h25l-18 -169h151l18 169h25l-18 -169h91l15 -72h-114l-21 -191h106l16 -72h-130l-19 -175h-25l19 175h-151z" />
    <glyph glyph-name="florin.lp" horiz-adv-x="434" 
d="M33 -244q-62 0 -95.5 26t-33.5 66q0 30 18.5 50t49.5 20q28 0 44.5 -16t16.5 -41q0 -21 -10 -34t-20 -20.5t-10 -15.5t12 -14t30 -6q41 0 60.5 35t19.5 122v437l-101 14v16l101 12v77q0 110 56 161t133 51q68 0 105 -29.5t37 -72.5q0 -31 -18 -50.5t-49 -19.5
q-27 0 -44.5 16t-17.5 41q0 18 7 30.5t16 17.5t16 11.5t7 13.5q0 11 -15.5 19t-42.5 8q-49 0 -70.5 -35t-21.5 -111q0 -21 0.5 -68t0.5 -65h127v-25l-127 -6v-418q0 -52 -17 -92t-45 -62t-58 -32.5t-61 -10.5z" />
    <glyph glyph-name="franc.lp" horiz-adv-x="609" 
d="M366 16v-16q-29 0 -87 0.5t-88 0.5q-29 0 -84 -0.5t-85 -0.5v16l51 7q40 6 51 18.5t11 46.5v501q0 34 -11 47.5t-51 19.5l-51 7v16h543l11 -227h-19q-28 69 -43 100t-37 61t-46 39t-61 9h-123v-304h72q45 0 68 32t50 117h17q-1 -53 -1 -159t1 -159h-17q-29 91 -50.5 121
t-67.5 30h-72v-243q0 -35 13.5 -51t54.5 -22z" />
    <glyph glyph-name="currency.lp" horiz-adv-x="531" 
d="M467 103l-76 76q-53 -50 -126 -50q-74 0 -126 50l-75 -76l-19 19l76 76q-41 52 -41 122q0 68 41 122l-76 76l19 19l75 -76q52 50 126 50q75 0 126 -51l76 77l19 -19l-78 -76q42 -53 42 -122q0 -70 -41 -122l77 -76zM129 320q0 -61 38.5 -103t97.5 -42t97.5 42t38.5 103
t-38.5 103t-97.5 42t-97.5 -42t-38.5 -103z" />
    <glyph glyph-name="plus.lp" 
d="M291 305v-203h-32v203h-203v32h203v201h32v-201h203v-32h-203z" />
    <glyph glyph-name="minus.lp" 
d="M56 304v32h438v-32h-438z" />
    <glyph glyph-name="plusminus.lp" 
d="M494 78h-438v32h203v195h-203v32h203v201h32v-201h203v-32h-203v-195h203v-32z" />
    <glyph glyph-name="multiply.lp" 
d="M418 155l-143 143l-143 -143l-22 22l143 143l-143 143l22 22l143 -143l143 143l22 -22l-143 -143l143 -143z" />
    <glyph glyph-name="divide.lp" 
d="M311 477q0 -16 -10.5 -26t-25.5 -10q-14 0 -25 10t-11 26t11 26t25 10q15 0 25.5 -9.5t10.5 -26.5zM494 304h-438v32h438v-32zM275 128q-14 0 -25 10t-11 26t11 26t25 10q15 0 25.5 -9.5t10.5 -26.5t-10.5 -26.5t-25.5 -9.5z" />
    <glyph glyph-name="logicalnot.lp" 
d="M462 376h-406v32h438v-195h-32v163z" />
    <glyph glyph-name="equal.lp" 
d="M56 399v32h438v-32h-438zM494 209h-438v32h438v-32z" />
    <glyph glyph-name="notequal.lp" 
d="M220 209l-86 -125l-29 20l72 105h-121v32h143l109 158h-252v32h274l86 125l29 -20l-72 -105h121v-32h-143l-109 -158h252v-32h-274z" />
    <glyph glyph-name="approxequal.lp" horiz-adv-x="500" 
d="M88 357h-27q0 47 25 74.5t74 27.5q43 0 118 -33t113 -33q35 0 52.5 17t18.5 54h27q0 -47 -25 -73.5t-74 -26.5q-44 0 -119 33t-112 33q-68 0 -71 -73zM88 176h-27q0 47 25 74.5t74 27.5q43 0 118 -33t113 -33q35 0 52.5 17t18.5 54h27q0 -46 -25 -73t-74 -27
q-44 0 -119 33t-112 33q-68 0 -71 -73z" />
    <glyph glyph-name="less.lp" 
d="M462 101l-399 205v28l399 205l14 -26l-383 -193l383 -193z" />
    <glyph glyph-name="greater.lp" 
d="M487 306l-399 -205l-14 26l383 193l-383 193l14 26l399 -205v-28z" />
    <glyph glyph-name="lessequal.lp" 
d="M475 126v-48h-415v30h392l-389 198v28l399 205l14 -26l-383 -193z" />
    <glyph glyph-name="greaterequal.lp" 
d="M75 78v48l382 194l-383 193l14 26l399 -205v-28l-389 -198h392v-30h-415z" />
    <glyph glyph-name="infinity.lp" horiz-adv-x="583" 
d="M572 323q0 -65 -42 -110t-110 -45q-92 0 -138 77q-52 -76 -129 -76q-61 0 -102 40t-41 107q0 65 42 110t110 45q92 0 138 -77q52 76 129 76q61 0 102 -40t41 -107zM443 196q40 0 72.5 36t32.5 91q0 58 -33.5 92t-84.5 34q-71 0 -121 -71q8 -15 16 -37q32 -85 47 -106
q27 -39 71 -39zM152 190q72 0 121 72q-7 13 -15 35q-32 86 -49 109q-27 37 -70 37q-40 0 -72.5 -36t-32.5 -91q0 -58 33.5 -92t84.5 -34z" />
    <glyph glyph-name="percent.lp" horiz-adv-x="654" 
d="M357 538q0 -69 -45.5 -110t-116.5 -41t-116.5 40.5t-45.5 109.5t45.5 110t115.5 41q72 0 117.5 -40.5t45.5 -109.5zM36 0l278 347l258 332h40l-278 -348l-259 -331h-39zM195 404q42 0 66.5 35.5t24.5 98.5t-24.5 98t-67.5 35q-42 0 -66 -35.5t-24 -98.5t24 -98t67 -35z
M460 -10q-73 0 -118 40.5t-45 109.5t45 110t117 41q71 0 116.5 -40.5t45.5 -109.5t-45.5 -110t-115.5 -41zM460 7q42 0 65.5 35t23.5 99q0 63 -23.5 98t-66.5 35t-67 -35t-24 -99q0 -63 24 -98t68 -35z" />
    <glyph glyph-name="perthousand.lp" horiz-adv-x="1009" 
d="M357 538q0 -69 -45.5 -110t-116.5 -41t-116.5 40.5t-45.5 109.5t45.5 110t115.5 41q72 0 117.5 -40.5t45.5 -109.5zM36 0l278 347l258 332h40l-278 -348l-259 -331h-39zM195 404q42 0 66.5 35.5t24.5 98.5t-24.5 98t-67.5 35q-42 0 -66 -35.5t-24 -98.5t24 -98t67 -35z
M814 -10q-72 0 -117 40.5t-45 109.5t45 110t116 41q72 0 117.5 -40.5t45.5 -109.5t-45.5 -110t-116.5 -41zM460 -10q-73 0 -118 40.5t-45 109.5t45 110t117 41q71 0 116.5 -40.5t45.5 -109.5t-45.5 -110t-115.5 -41zM814 7q42 0 66 35.5t24 98.5t-24 98t-67 35t-66.5 -35
t-23.5 -99q0 -63 24 -98t67 -35zM460 7q42 0 65.5 35t23.5 99q0 63 -23.5 98t-66.5 35t-67 -35t-24 -99q0 -63 24 -98t68 -35z" />
    <glyph glyph-name="exclamdown.case" horiz-adv-x="318" 
d="M90 611q0 31 20 50t49 19t49 -19t20 -50q0 -32 -19.5 -50.5t-49.5 -18.5q-29 0 -49 18.5t-20 50.5zM153 475h12q4 -140 23 -237q9 -41 27 -92.5t18 -82.5q0 -40 -21 -62.5t-53 -22.5t-53 22.5t-21 62.5q0 31 18 82.5t27 92.5q19 87 23 237z" />
    </font>
</defs>
</svg>
