<?xml version="1.0" standalone="no"?>
<!DOCTYPE svg PUBLIC "-//W3C//DTD SVG 1.1//EN" "http://www.w3.org/Graphics/SVG/1.1/DTD/svg11.dtd" >
<svg>
<metadata>
Created by FontForge 20120731 at Fri Aug 21 09:08:39 2020
 By www
Copyright 2012 (c) Okay Type Foundry. All rights reserved.
</metadata>
<defs>
<font id="HarrietText-Light" horiz-adv-x="600" >
  <font-face 
    font-family="Harriet Text Light"
    font-weight="300"
    font-stretch="normal"
    units-per-em="1000"
    panose-1="2 0 0 0 0 0 0 0 0 0"
    ascent="800"
    descent="-200"
    x-height="479"
    cap-height="679"
    bbox="-80 -337 1211 1045"
    underline-thickness="0"
    underline-position="0"
    unicode-range="U+0020-FB06"
  />
<missing-glyph horiz-adv-x="500" 
d="M490 -230h-480v995h480v-995zM308 84q20 0 26.5 7t6.5 26q0 35 11.5 50.5t42.5 21.5q29 5 29 39q0 13 -3.5 23t-3.5 15q0 26 7 37q26 42 26 78q0 78 -53.5 123.5t-142.5 45.5q-95 0 -149.5 -47.5t-54.5 -130.5q0 -8 1.5 -15.5t2.5 -12t4.5 -11.5t4.5 -9.5t6.5 -11
t6.5 -9.5q7 -11 7 -37q0 -5 -3.5 -15t-3.5 -23q0 -34 28 -39q32 -6 43.5 -21t11.5 -51q0 -19 7 -26t27 -7h115zM335 222q-10 0 -17 4t-12.5 11.5t-6.5 8.5q-2 2 -6.5 6t-8 7t-6 6.5t-2.5 5.5q0 18 12 28.5t31 10.5q20 0 38 -18.5t18 -33.5q0 -12 -13.5 -24t-26.5 -12z
M166 222q-13 0 -26.5 12t-13.5 24q0 15 18 33.5t38 18.5q19 0 31 -10.5t12 -28.5q0 -5 -23 -25q-1 -1 -6.5 -8.5t-12.5 -11.5t-17 -4zM275 182q0 -4 -0.5 -7t-2 -5t-3 -3t-4.5 -1.5t-4.5 -0.5h-5.5h-5h-5h-5.5t-4.5 0.5t-4.5 1.5t-3 3t-2 5t-0.5 7q0 16 7 31.5t18 15.5
t18 -15.5t7 -31.5z" />
    <glyph glyph-name="ff" unicode="ff" horiz-adv-x="675" 
d="M194 479h243v107l1 18q1 37 12 67q-42 62 -123 62q-134 0 -134 -155q0 -20 0.5 -53t0.5 -46zM288 27v-27h-250v27l78 15q15 3 15 19v375l-96 9v29l96 8v80q0 98 53 151t142 53q87 0 149 -49q45 59 133 59q57 0 95 -25.5t38 -63.5q0 -24 -14.5 -39t-36.5 -15q-21 0 -34 12
t-13 31q0 20 10.5 32t25.5 12q-18 23 -67 23q-115 0 -114 -141q0 -20 1 -61t1 -62h131v-32l-131 -2v-382q0 -18 17 -21l95 -15v-27h-268v27l77 15q16 3 16 19v383l-243 -3v-380q0 -16 15 -19z" />
    <glyph glyph-name="fi" unicode="fi" horiz-adv-x="620" 
d="M287 27v-27h-249v27l78 15q15 3 15 19v375l-96 9v29l96 8v86q0 103 56 156t149 53q72 0 114.5 -31t42.5 -77q0 -26 -15 -41.5t-39 -15.5q-23 0 -36 12.5t-13 32.5q0 21 12.5 33.5t32.5 12.5h2q-23 41 -98 41q-74 0 -110 -40.5t-36 -125.5q0 -16 0.5 -50.5t0.5 -48.5h204
l85 13l24 -5l-7 -96v-330q0 -16 15 -19l76 -15v-27h-248v27l78 15q16 3 16 19v367q0 21 -22 20l-221 -7v-381q0 -15 15 -18z" />
    <glyph glyph-name="fl" unicode="fl" horiz-adv-x="621" 
d="M194 479h243v182q0 38 -30 60.5t-79 22.5q-76 0 -105.5 -43t-29.5 -130q0 -19 0.5 -50t0.5 -42zM287 27v-27h-249v27l78 15q15 3 15 19v375l-96 9v29l96 8v79q0 105 49 160.5t145 55.5q72 0 121 -32l38 25l24 -5l-8 -95v-609q0 -16 15 -19l76 -15v-27h-247v27l77 15
q16 3 16 19v392l-243 -12v-380q0 -16 15 -19z" />
    <glyph glyph-name="ffi" unicode="ffi" horiz-adv-x="925" 
d="M194 479h243v89v18q3 45 17 79q-43 68 -127 68q-134 0 -134 -155q0 -20 0.5 -53t0.5 -46zM288 27v-27h-250v27l78 15q15 3 15 19v375l-96 9v29l96 8v80q0 98 53 151t142 53q90 0 155 -55q54 66 161 66q72 0 114.5 -31t42.5 -77q0 -27 -15 -42t-39 -15q-22 0 -35.5 12.5
t-13.5 32.5q0 21 13 33.5t32 12.5h2q-23 41 -98 41q-74 0 -110 -40.5t-36 -125.5q0 -16 0.5 -50.5t0.5 -48.5h203l85 13l25 -5l-8 -96v-330q0 -16 15 -19l77 -15v-27h-249v27l79 15q15 3 15 19v367q0 21 -21 20l-221 -3v-385q0 -15 16 -18l77 -15v-27h-248v27l77 15
q15 3 15 19v383l-243 -3v-380q0 -16 15 -19z" />
    <glyph glyph-name="ffl" unicode="ffl" horiz-adv-x="927" 
d="M194 479h243v82v18q3 51 16 87q-42 67 -126 67q-134 0 -134 -155q0 -20 0.5 -53t0.5 -46zM742 479v182q0 38 -30 60.5t-79 22.5q-76 0 -105.5 -43t-29.5 -130q0 -19 1 -50t1 -42h242zM742 452l-242 -5v-386q0 -16 15 -19l77 -15v-27h-248v27l77 15q16 3 16 19v385
l-243 -5v-380q0 -16 15 -19l79 -15v-27h-250v27l78 15q15 3 15 19v375l-96 9v29l96 8v80q0 98 53 151t142 53q88 0 153 -53q49 64 152 64q70 0 121 -32l37 25l25 -5l-9 -95v-609q0 -16 15 -19l77 -15v-27h-248v27l78 15q15 3 15 19v391z" />
    <glyph glyph-name=".notdef" horiz-adv-x="500" 
d="M490 -230h-480v995h480v-995zM308 84q20 0 26.5 7t6.5 26q0 35 11.5 50.5t42.5 21.5q29 5 29 39q0 13 -3.5 23t-3.5 15q0 26 7 37q26 42 26 78q0 78 -53.5 123.5t-142.5 45.5q-95 0 -149.5 -47.5t-54.5 -130.5q0 -8 1.5 -15.5t2.5 -12t4.5 -11.5t4.5 -9.5t6.5 -11
t6.5 -9.5q7 -11 7 -37q0 -5 -3.5 -15t-3.5 -23q0 -34 28 -39q32 -6 43.5 -21t11.5 -51q0 -19 7 -26t27 -7h115zM335 222q-10 0 -17 4t-12.5 11.5t-6.5 8.5q-2 2 -6.5 6t-8 7t-6 6.5t-2.5 5.5q0 18 12 28.5t31 10.5q20 0 38 -18.5t18 -33.5q0 -12 -13.5 -24t-26.5 -12z
M166 222q-13 0 -26.5 12t-13.5 24q0 15 18 33.5t38 18.5q19 0 31 -10.5t12 -28.5q0 -5 -23 -25q-1 -1 -6.5 -8.5t-12.5 -11.5t-17 -4zM275 182q0 -4 -0.5 -7t-2 -5t-3 -3t-4.5 -1.5t-4.5 -0.5h-5.5h-5h-5h-5.5t-4.5 0.5t-4.5 1.5t-3 3t-2 5t-0.5 7q0 16 7 31.5t18 15.5
t18 -15.5t7 -31.5z" />
    <glyph glyph-name=".null" horiz-adv-x="0" 
 />
    <glyph glyph-name="nonmarkingreturn" horiz-adv-x="333" 
 />
    <glyph glyph-name="space" unicode=" " horiz-adv-x="200" 
 />
    <glyph glyph-name="exclam" unicode="!" horiz-adv-x="325" 
d="M148 209q0 127 -9 214t-18 133.5t-9 74.5q0 30 13.5 46t36.5 16q51 0 51 -62q0 -27 -8.5 -73.5t-17.5 -134t-9 -214.5h-30zM162 -8q-24 0 -40 15t-16 41t16.5 40.5t39.5 14.5q24 0 40.5 -14.5t16.5 -40.5t-16.5 -41t-40.5 -15z" />
    <glyph glyph-name="quotedbl" unicode="&#x22;" horiz-adv-x="458" 
d="M298 474l-20 291h72l-21 -291h-31zM134 474l-20 291h72l-21 -291h-31z" />
    <glyph glyph-name="numbersign" unicode="#" 
d="M371 238l20 158h-152l-20 -158h152zM213 183l-23 -183h-33l22 183h-90l-11 55h108l19 158h-108l-11 54h126l21 176h34l-22 -176h152l22 176h32l-21 -176h90l11 -54h-108l-19 -158h107l12 -55h-126l-22 -183h-33l23 183h-152z" />
    <glyph glyph-name="dollar" unicode="$" 
d="M295 363l-2 229q-61 -5 -95 -34.5t-34 -72.5q0 -50 32.5 -75.5t98.5 -46.5zM325 35h6q62 8 93 39t31 77q0 51 -32.5 77t-99.5 50zM326 -115h-34l1 115h-3q-92 0 -153.5 34.5t-61.5 87.5q0 24 14.5 39t36.5 15q21 0 34 -13t13 -33q0 -19 -11.5 -31t-26.5 -11
q15 -25 56.5 -40t99.5 -15h2l2 254l-5 2q-90 29 -135 68.5t-45 107.5t50.5 111t132.5 49l-1 69h34l-1 -68q78 -2 134 -35t56 -83q0 -24 -15 -39t-37 -15q-21 0 -34 13t-13 33q0 19 12 31t28 12q-14 23 -49.5 36.5t-81.5 13.5l-2 -240l8 -2q90 -28 134.5 -67.5t44.5 -110.5
q0 -73 -50.5 -118t-134.5 -53z" />
    <glyph glyph-name="percent" unicode="%" horiz-adv-x="657" 
d="M181 345q-62 0 -102.5 41.5t-40.5 106.5q0 64 40.5 105.5t102.5 41.5q61 0 101.5 -41.5t40.5 -106.5q0 -64 -40 -105.5t-102 -41.5zM112 -11l-33 24l242 310l222 314l34 -24l-238 -303zM181 376q44 0 68 31.5t24 84.5q0 54 -24 85.5t-68 31.5t-68 -31.5t-24 -84.5
q0 -54 24 -85.5t68 -31.5zM476 -14q-61 0 -102 41.5t-41 106.5q0 64 41 105.5t102 41.5q62 0 102 -41t40 -106t-40 -106.5t-102 -41.5zM476 17q44 0 68 31.5t24 85.5q0 53 -24 84.5t-68 31.5t-68 -31t-24 -85t24 -85.5t68 -31.5z" />
    <glyph glyph-name="ampersand" unicode="&#x26;" horiz-adv-x="752" 
d="M719 141q-12 -81 -47 -118t-101 -37q-76 0 -148 78q-70 -78 -183 -78q-88 0 -148 49.5t-60 133.5q0 160 194 236q-30 85 -30 139q0 66 41 107.5t107 41.5q59 0 96.5 -30.5t37.5 -83.5q0 -36 -15.5 -66t-44.5 -52t-57 -36t-66 -29q26 -68 71 -144q46 -76 71 -111
q14 30 23 58q13 42 23.5 70.5t28 63t35.5 55t44 35t56 14.5q31 0 49 -16.5t18 -41.5q0 -23 -13.5 -37t-34.5 -14q-19 0 -32 12t-13 31t12 31q-23 -3 -43 -19t-32.5 -33.5t-27.5 -52.5t-21 -52.5t-19 -57.5q-12 -36 -32 -74q68 -88 131 -88q41 0 65.5 27.5t36.5 91.5z
M285 423l7 2q138 54 138 151q0 40 -23 62t-64 22q-43 0 -67 -28t-24 -70q0 -51 33 -139zM252 22q92 0 150 66q-41 48 -89 131q-44 76 -77 159q-67 -31 -101.5 -77.5t-34.5 -122.5q0 -75 39.5 -115.5t112.5 -40.5z" />
    <glyph glyph-name="quotesingle" unicode="'" horiz-adv-x="294" 
d="M134 474l-20 291h72l-21 -291h-31z" />
    <glyph glyph-name="parenleft" unicode="(" horiz-adv-x="398" 
d="M350 -187q-27 21 -53 44.5t-64.5 69.5t-66 95.5t-48 121t-20.5 146.5v4q0 75 20.5 146.5t48 121t66 95.5t64.5 69.5t53 44.5l17 -16q-201 -197 -201 -461v-4q0 -263 202 -461z" />
    <glyph glyph-name="parenright" unicode=")" horiz-adv-x="398" 
d="M300 290q0 -75 -20.5 -146.5t-48 -121t-66 -95.5t-64.5 -69.5t-53 -44.5l-18 16q202 198 202 461v4q0 264 -201 461l17 16q27 -21 53 -44.5t64.5 -69.5t66 -95.5t48 -121t20.5 -146.5v-4z" />
    <glyph glyph-name="asterisk" unicode="*" horiz-adv-x="524" 
d="M254 621q-5 40 -15 70.5t-10 43.5q0 15 9 25t24 10q14 0 23 -10t9 -25q0 -13 -10 -43.5t-14 -70.5h-16zM398 604q-7 -2 -38 -2.5t-69 -9.5l-4 14q36 18 62 38t35 23q7 3 15 3q15 0 24 -9.5t9 -23.5q0 -28 -34 -33zM125 604q-34 5 -34 33q0 14 9 23.5t24 9.5q8 0 15 -3
q9 -3 35 -22.5t63 -38.5l-5 -14q-37 9 -68.5 9.5t-38.5 2.5zM348 443q-15 0 -26 14q-9 11 -19.5 42t-30.5 65l13 8q28 -28 54.5 -46.5t34.5 -28.5q8 -11 8 -23t-10 -21.5t-24 -9.5zM175 443q-14 0 -24 9.5t-10 21.5t8 23q8 10 35 28.5t55 46.5l12 -8q-20 -34 -30.5 -65
t-19.5 -42q-11 -14 -26 -14z" />
    <glyph glyph-name="plus" unicode="+" horiz-adv-x="550" 
d="M296 230v-199h-42v199h-198v41h198v196h42v-196h198v-41h-198z" />
    <glyph glyph-name="comma" unicode="," horiz-adv-x="282" 
d="M80 -190l-15 30q48 24 76.5 65.5t28.5 88.5l-1 17q-14 -17 -37 -17q-22 0 -38 16t-16 41q0 26 17.5 42t43.5 16q31 0 51 -25.5t20 -72.5q0 -69 -36 -121t-94 -80z" />
    <glyph glyph-name="hyphen" unicode="-" horiz-adv-x="351" 
d="M52 227v47h246v-47h-246z" />
    <glyph glyph-name="period" unicode="." horiz-adv-x="275" 
d="M137 -8q-24 0 -41.5 16t-17.5 43t17.5 42.5t41.5 15.5t41 -15.5t17 -42.5t-17 -43t-41 -16z" />
    <glyph glyph-name="slash" unicode="/" horiz-adv-x="445" 
d="M47 -100l287 829h51l-287 -829h-51z" />
    <glyph glyph-name="zero" unicode="0" horiz-adv-x="602" 
d="M301 -14q-110 0 -181 77t-71 198t71 198t181 77t180.5 -77t70.5 -198t-70.5 -198t-180.5 -77zM301 19q85 0 130 66t45 176q0 111 -45 176.5t-130 65.5q-86 0 -131 -65.5t-45 -176.5q0 -110 45 -176t131 -66z" />
    <glyph glyph-name="one" unicode="1" horiz-adv-x="475" 
d="M72 0v28l127 16q17 1 17 18v341q0 27 -9.5 37.5t-39.5 12.5l-95 8v23l101 9q38 4 56 11.5t28 23.5h26l-5 -104v-362q0 -17 17 -18l122 -16v-28h-345z" />
    <glyph glyph-name="two" unicode="2" horiz-adv-x="527" 
d="M450 0h-385l-4 39q106 70 219 170q103 89 103 182q0 54 -33 83t-91 29q-53 0 -90 -23t-48 -59l2 1q18 0 30.5 -11.5t12.5 -30.5t-13.5 -32t-33.5 -13q-24 0 -38 15.5t-14 39.5q0 58 56.5 102t138.5 44q83 0 138.5 -40t55.5 -111q0 -57 -37.5 -102t-112.5 -100
q-139 -100 -174 -124h249q20 0 28.5 5t15.5 22l22 57h26z" />
    <glyph glyph-name="three" unicode="3" horiz-adv-x="530" 
d="M217 -171q-77 0 -126 29t-49 74q0 23 14 38t36 15q20 0 32.5 -12.5t12.5 -31.5q0 -18 -10 -29.5t-22 -10.5q30 -39 112 -39q84 0 140 50.5t56 138.5q0 152 -126 152q-42 0 -81 -23.5t-52 -23.5q-32 0 -32 36q55 25 113 30q24 11 48 26q95 60 95 147q0 52 -31.5 80
t-91.5 28q-46 0 -79.5 -18.5t-46.5 -46.5q42 0 42 -40q0 -19 -13 -31.5t-33 -12.5q-22 0 -36 15t-14 39q0 52 53 90t132 38q82 0 135 -37t53 -97q0 -58 -38 -95.5t-113 -74.5q-3 -2 -16 -7l1 -2q16 2 24 2q70 0 124 -42.5t54 -128.5q0 -100 -82 -162.5t-185 -62.5z" />
    <glyph glyph-name="four" unicode="4" horiz-adv-x="543" 
d="M308 84v254l1 107l-236 -355zM469 -129v-28h-267v27l89 16q17 3 17 19v148h-269l-9 32l291 437h50v-438h54q21 0 31 8.5t19 30.5l18 51h24l-16 -121h-130v-148q0 -16 17 -19z" />
    <glyph glyph-name="five" unicode="5" horiz-adv-x="503" 
d="M212 -172q-79 0 -127 29t-48 74q0 23 14.5 38t36.5 15q19 0 31.5 -12.5t12.5 -30.5q0 -19 -10.5 -30.5t-22.5 -10.5q30 -39 114 -39q79 0 124 52t45 141q0 175 -142 175q-75 0 -135 -67l-40 5l44 354h30q63 -23 149 -23q101 0 142 34l15 -11q-24 -41 -73.5 -63
t-111.5 -22q-69 0 -125 16l-31 -240q66 49 150 49t142 -51t58 -152t-70.5 -165.5t-171.5 -64.5z" />
    <glyph glyph-name="six" unicode="6" horiz-adv-x="561" 
d="M513 212q0 -97 -64 -161.5t-161 -64.5q-101 0 -163.5 73t-62.5 225q0 196 77.5 302.5t201.5 106.5q71 0 117.5 -31.5t46.5 -76.5q0 -23 -14 -37.5t-36 -14.5q-20 0 -32.5 12t-12.5 31t11.5 29.5t29.5 10.5q-28 44 -108 44q-98 0 -150 -84t-63 -270q21 55 66 87t109 32
q92 0 150 -58.5t58 -154.5zM138 216q0 -89 38.5 -143t111.5 -54q78 0 115.5 53t37.5 138q0 84 -35.5 133.5t-107.5 49.5t-116 -50t-44 -127z" />
    <glyph glyph-name="seven" unicode="7" horiz-adv-x="474" 
d="M200 -161q-41 0 -41 42q0 53 41.5 172.5t85.5 205.5q50 98 117 206h-276q-26 0 -39 -8.5t-20 -30.5l-19 -58h-27l24 179h25q1 -8 3 -13t8 -8.5t16 -3.5h350v-27q-1 -1 -22 -37t-28 -49.5t-24 -44.5t-29 -58t-23 -55q-29 -74 -49 -176.5t-26 -189.5q-3 -46 -47 -46z" />
    <glyph glyph-name="eight" unicode="8" horiz-adv-x="573" 
d="M285 -14q-102 0 -164.5 50t-62.5 133q0 70 43.5 118t111.5 68q-126 58 -126 163q0 75 57 125t146 50q93 0 147 -45.5t54 -115.5q0 -56 -36.5 -99.5t-92.5 -65.5q153 -58 153 -184q0 -85 -64 -141t-166 -56zM334 377l2 1q46 20 70.5 60.5t24.5 93.5q0 59 -34 93.5
t-105 34.5q-69 0 -107.5 -35.5t-38.5 -88.5q0 -61 45 -94t138 -63zM285 19q82 0 123 39.5t41 102.5q0 67 -40.5 103.5t-126.5 63.5q-22 6 -41 15q-57 -20 -89 -65t-32 -109q0 -71 43 -110.5t122 -39.5z" />
    <glyph glyph-name="nine" unicode="9" horiz-adv-x="556" 
d="M420 306q0 89 -38.5 143t-111.5 54q-78 0 -115.5 -53t-37.5 -138q0 -84 35.5 -133.5t107.5 -49.5t116 50t44 127zM217 -171q-71 0 -117.5 31.5t-46.5 76.5q0 23 14 37.5t36 14.5q20 0 32.5 -12t12.5 -31t-11.5 -29.5t-29.5 -10.5q28 -44 108 -44q98 0 150 84t63 270
q-21 -55 -66 -87t-109 -32q-92 0 -150 58.5t-58 154.5q0 97 64 161.5t161 64.5q101 0 163.5 -73t62.5 -225q0 -196 -77.5 -302.5t-201.5 -106.5z" />
    <glyph glyph-name="colon" unicode=":" horiz-adv-x="316" 
d="M158 370q-24 0 -41.5 16t-17.5 43t17.5 42.5t41.5 15.5t41 -15.5t17 -42.5t-17 -43t-41 -16zM158 -9q-24 0 -41.5 16t-17.5 43t17.5 42.5t41.5 15.5t41 -15.5t17 -42.5t-17 -43t-41 -16z" />
    <glyph glyph-name="semicolon" unicode=";" horiz-adv-x="322" 
d="M158 370q-24 0 -41.5 16t-17.5 43t17.5 42.5t41.5 15.5t41 -15.5t17 -42.5t-17 -43t-41 -16zM101 -190l-15 30q48 24 76.5 65.5t28.5 88.5l-1 17q-14 -17 -37 -17t-38.5 16t-15.5 41q0 26 17.5 42t43.5 16q31 0 51 -25.5t20 -72.5q0 -69 -36 -121t-94 -80z" />
    <glyph glyph-name="less" unicode="&#x3c;" horiz-adv-x="550" 
d="M459 31l-399 201v36l399 201l17 -36l-372 -183l372 -184z" />
    <glyph glyph-name="equal" unicode="=" horiz-adv-x="550" 
d="M56 331v42h438v-42h-438zM494 141h-438v42h438v-42z" />
    <glyph glyph-name="greater" unicode="&#x3e;" horiz-adv-x="550" 
d="M490 231l-399 -201l-17 36l372 184l-372 183l17 35l399 -201v-36z" />
    <glyph glyph-name="question" unicode="?" horiz-adv-x="536" 
d="M488 506q0 -91 -59.5 -139t-141.5 -48q-25 0 -56 7l-5 -117h-32l-7 150l32 8q32 -16 66 -16q126 0 126 157q0 152 -148 152q-52 0 -88.5 -20.5t-50.5 -51.5h1q18 0 30 -11t12 -31t-13 -33t-33 -13q-24 0 -38 15t-14 40q0 55 56 96.5t140 41.5q91 0 157 -48.5t66 -138.5z
M208 -8q-24 0 -40 15t-16 41t16 40.5t40 14.5t40 -14.5t16 -40.5t-16.5 -41t-39.5 -15z" />
    <glyph glyph-name="at" unicode="@" horiz-adv-x="963" 
d="M497 -211q-187 0 -306 113.5t-119 297.5q0 196 132.5 332.5t325.5 136.5q157 0 255 -89t98 -243q0 -131 -73.5 -219.5t-175.5 -88.5q-49 0 -75 25t-26 65q0 7 2 21q-58 -103 -138 -103q-50 0 -78.5 32.5t-28.5 92.5q0 67 30.5 134t87.5 113.5t124 46.5q68 0 100 -50
l34 51h23l-43 -109l-52 -160q-13 -41 -13 -68q0 -63 64 -63q79 0 137 74.5t58 183.5q0 141 -90 229t-242 88q-159 0 -270.5 -114.5t-111.5 -283.5q0 -177 111.5 -288t291.5 -111q139 0 235 73l15 -21q-114 -98 -282 -98zM410 69q40 0 80 51t74 154l34 103q-14 49 -67 49
q-51 0 -94.5 -47t-65.5 -109.5t-22 -116.5q0 -44 14.5 -64t46.5 -20z" />
    <glyph glyph-name="A" unicode="A" horiz-adv-x="700" 
d="M456 253l-78 210l-42 125h-4l-125 -335h249zM244 29v-29h-250v29l76 17q19 5 28 25l200 530l27 83h40l238 -620q6 -16 19 -18l83 -17v-29h-287v29l95 16q19 2 12 22l-55 149h-277l-52 -140q-8 -25 15 -30z" />
    <glyph glyph-name="B" unicode="B" horiz-adv-x="651" 
d="M42 0v28l99 17q17 2 17 18v553q0 16 -17 18l-99 17v28h287q101 0 167.5 -37t66.5 -120q0 -70 -52 -111.5t-135 -51.5v-4q224 -12 224 -166q0 -92 -72.5 -140.5t-196.5 -48.5h-289zM227 374h86q90 0 131 34.5t41 106.5q0 76 -43.5 101.5t-138.5 25.5q-36 0 -76 -2v-266z
M272 37h54q98 0 145.5 35t47.5 118t-52.5 115.5t-154.5 32.5h-85v-266q0 -22 8.5 -28.5t36.5 -6.5z" />
    <glyph glyph-name="C" unicode="C" horiz-adv-x="710" 
d="M603 -10l-22 84q-74 -88 -210 -88q-137 0 -230 97t-93 256t93.5 256.5t230.5 97.5q136 0 212 -83l21 80h29l-5 -273h-33l-20 80q-21 80 -74 119.5t-129 39.5q-112 0 -179.5 -85t-67.5 -231t67.5 -231.5t179.5 -85.5q155 0 204 160l19 65h33l3 -258h-29z" />
    <glyph glyph-name="D" unicode="D" horiz-adv-x="737" 
d="M40 0v28l100 17q16 2 16 18v553q0 16 -16 18l-100 17v28h298q162 0 256.5 -92t94.5 -247t-94.5 -247.5t-257.5 -92.5h-297zM271 37h72q129 0 198.5 77t69.5 226q0 148 -70 225t-199 77h-34q-41 0 -83 -2v-568q0 -22 9 -28.5t37 -6.5z" />
    <glyph glyph-name="E" unicode="E" horiz-adv-x="644" 
d="M225 367h124q23 0 33.5 7t17.5 31l22 80h28v-273h-27l-23 81q-7 24 -17.5 31t-33.5 7h-124v-259q0 -22 9.5 -28.5t37.5 -6.5h153q56 0 76.5 12t32.5 57l29 97h34l-12 -203h-545v28l100 17q16 2 16 18v553q0 16 -16 18l-100 17v28h515l9 -166h-34l-23 68q-12 41 -32.5 51
t-81.5 10h-85q-41 0 -83 -2v-273z" />
    <glyph glyph-name="F" unicode="F" horiz-adv-x="605" 
d="M225 365h125q23 0 33.5 7t17.5 31l23 80h27v-273h-27l-23 81q-7 24 -17.5 31t-33.5 7h-125v-258q0 -24 22 -26l108 -17v-28h-315v28l100 17q16 2 16 18v553q0 16 -16 18l-100 17v28h515l11 -166h-34l-24 67q-13 41 -33.5 51.5t-79.5 10.5h-87q-41 0 -83 -2v-275z" />
    <glyph glyph-name="G" unicode="G" horiz-adv-x="746" 
d="M607 -12l-25 77q-73 -79 -213 -79q-137 0 -229 97t-92 256t92.5 256.5t230.5 97.5q134 0 210 -83l22 80h29l-5 -271h-32l-21 79q-21 79 -73.5 118.5t-127.5 39.5q-112 0 -179.5 -85.5t-67.5 -231.5q0 -147 67.5 -231.5t176.5 -84.5q81 0 137.5 37.5t56.5 107.5v78
q0 18 -19 21l-118 17v28h312v-29l-95 -16q-16 -4 -16 -17v-128l7 -134h-28z" />
    <glyph glyph-name="H" unicode="H" horiz-adv-x="813" 
d="M340 28v-28h-300v28l100 17q16 2 16 18v553q0 16 -16 18l-100 17v28h300v-28l-99 -17q-16 -2 -16 -18v-252h362v252q0 16 -17 18l-98 17v28h300v-28l-99 -17q-17 -3 -17 -18v-553q0 -15 17 -18l99 -17v-28h-300v28l98 17q17 2 17 18v264h-362v-264q0 -16 16 -18z" />
    <glyph glyph-name="I" unicode="I" horiz-adv-x="390" 
d="M45 0v28l99 17q17 3 17 18v553q0 15 -17 18l-99 17v28h299v-28l-98 -17q-16 -2 -16 -18v-553q0 -16 16 -18l98 -17v-28h-299z" />
    <glyph glyph-name="J" unicode="J" horiz-adv-x="515" 
d="M168 -14q-62 0 -103.5 27t-41.5 70q0 26 14.5 41t37.5 15q20 0 32.5 -12t12.5 -31q0 -18 -11 -29.5t-26 -11.5q22 -33 83 -33q70 0 102 41t32 128v420q0 11 -4.5 16t-17.5 7l-97 17v28h300v-28l-98 -16q-17 -4 -17 -18v-407q0 -106 -51 -165t-147 -59z" />
    <glyph glyph-name="K" unicode="K" horiz-adv-x="737" 
d="M225 315l283 297q19 20 -10 25l-72 13v29h265v-29l-84 -14q-27 -5 -49 -27l-207 -211l238 -326q17 -22 44 -27l92 -17v-28h-317v29l88 15q26 4 9 29l-200 279l-80 -82v-207q0 -14 16 -18l95 -17v-28h-296v28l100 17q16 2 16 18v553q0 16 -16 18l-100 17v28h297v-28
l-96 -17q-16 -2 -16 -18v-301z" />
    <glyph glyph-name="L" unicode="L" horiz-adv-x="641" 
d="M40 0v28l100 17q16 2 16 18v553q0 16 -16 18l-100 17v28h301v-29l-94 -16q-22 -4 -22 -24v-538q0 -22 9 -28.5t37 -6.5h169q54 0 73.5 13.5t34.5 66.5l32 100h33l-12 -217h-561z" />
    <glyph glyph-name="M" unicode="M" horiz-adv-x="957" 
d="M441 -4l-203 502l-40 113h-6v-533q0 -27 26 -32l85 -17v-29h-263v28l87 18q15 3 20 10t5 22v538q0 16 -16 18l-96 17v28h197l186 -462l44 -126h5l241 588h202v-28l-98 -17q-16 -2 -16 -18v-553q0 -16 16 -18l98 -17v-28h-299v28l100 17q16 2 16 18v548h-6l-256 -615h-29z
" />
    <glyph glyph-name="N" unicode="N" horiz-adv-x="799" 
d="M40 0v28l86 18q15 3 20.5 10t5.5 22v530q0 12 -4.5 18t-18.5 8l-89 17v28h187l322 -471l62 -98h6v491q0 27 -26 32l-86 18v28h264v-28l-86 -18q-15 -3 -20.5 -10t-5.5 -22v-607h-42l-351 509l-66 108h-6v-533q0 -27 26 -32l86 -17v-29h-264z" />
    <glyph glyph-name="O" unicode="O" horiz-adv-x="751" 
d="M375 -14q-146 0 -236.5 99.5t-90.5 254.5t90.5 254t236.5 99t236.5 -99t90.5 -254t-90.5 -254.5t-236.5 -99.5zM375 23q119 0 184.5 86.5t65.5 230.5q0 143 -65 229.5t-185 86.5t-184.5 -86.5t-64.5 -229.5q0 -144 64.5 -230.5t184.5 -86.5z" />
    <glyph glyph-name="P" unicode="P" horiz-adv-x="622" 
d="M225 336q51 -3 99 -3q187 0 187 160q0 81 -48.5 116t-154.5 35q-35 0 -83 -4v-304zM225 299v-232q0 -18 22 -22l108 -17v-28h-315v28l100 17q16 2 16 18v552q0 16 -16 18l-100 17v28h35q34 0 114 1.5t117 1.5q283 0 283 -188q0 -97 -71 -147t-189 -50q-50 0 -104 3z" />
    <glyph glyph-name="Q" unicode="Q" horiz-adv-x="751" 
d="M379 22h15q42 3 70 14q-9 76 -17 105q-23 82 -96 82q-44 0 -68.5 -27t-24.5 -69q0 -46 30.5 -75.5t90.5 -29.5zM269 37h-1q-43 35 -43 95q0 53 35.5 89t96.5 36q98 0 138 -101q14 -34 25 -89q106 81 106 274q0 142 -66 228.5t-185 86.5t-186 -87t-67 -230
q0 -105 38.5 -185.5t108.5 -116.5zM378 -13q-148 0 -239 99.5t-91 253.5t91 253.5t236 99.5q146 0 236.5 -99.5t90.5 -253.5q0 -103 -47.5 -186.5t-126.5 -127.5q11 -52 25 -83q28 -69 96 -69q59 0 107 64l23 -18q-67 -94 -151 -94q-97 0 -136 88q-16 34 -23 87
q-45 -14 -91 -14z" />
    <glyph glyph-name="R" unicode="R" horiz-adv-x="683" 
d="M312 346q191 0 191 153q0 82 -46.5 113.5t-150.5 31.5q-35 0 -83 -4v-290q41 -4 89 -4zM339 28v-28h-300v28l99 17q17 3 17 18v552q0 15 -17 18l-99 17v28h33q32 0 113 1.5t119 1.5q278 0 278 -180q0 -66 -45 -112t-112 -62q14 -17 37 -64l89 -186q8 -17 17.5 -24
t28.5 -10l79 -13v-30h-168l-138 312q-26 -3 -57 -3q-37 0 -90 5v-251q0 -14 17 -18z" />
    <glyph glyph-name="S" unicode="S" horiz-adv-x="569" 
d="M514 173q0 -85 -61.5 -136t-156.5 -51q-121 0 -187 74l-19 -72h-28l1 259h30l21 -78q18 -69 64.5 -107.5t115.5 -38.5q73 0 117.5 34t44.5 93q0 24 -5.5 44t-20.5 35.5t-27 26t-38 22t-41.5 17.5t-48.5 17q-94 33 -147 79.5t-53 123.5q0 80 57.5 129t145.5 49
q104 0 167 -63l19 61h26l-1 -240h-29l-18 69q-36 136 -163 136q-65 0 -105.5 -32.5t-40.5 -87.5q0 -23 6 -42.5t23 -35.5t28 -25.5t41 -22.5t41 -17t47 -17q44 -16 74.5 -31.5t60.5 -39t45 -56.5t15 -76z" />
    <glyph glyph-name="T" unicode="T" horiz-adv-x="665" 
d="M489 28v-28h-316v28l108 17q17 3 17 18v580h-122q-48 0 -65 -8.5t-29 -48.5l-24 -73h-30l8 166h593l8 -166h-32l-24 73q-12 40 -28.5 48.5t-64.5 8.5h-121v-580q0 -16 17 -18z" />
    <glyph glyph-name="U" unicode="U" horiz-adv-x="786" 
d="M391 -14q-53 0 -94 11t-77.5 37.5t-56 78t-19.5 124.5v379q0 15 -17 18l-99 17v28h299v-28l-98 -17q-16 -2 -16 -18v-379q0 -63 14.5 -105.5t43.5 -64t62 -29.5t80 -8q195 0 195 206v366q0 28 -26 33l-86 15v29h264v-29l-86 -15q-26 -5 -26 -33v-365q0 -251 -257 -251z
" />
    <glyph glyph-name="V" unicode="V" horiz-adv-x="719" 
d="M340 -10l-240 621q-8 19 -27 24l-79 16v28h286v-28l-97 -16q-20 -4 -11 -25l155 -414l38 -112h5l204 520q5 14 2 20t-17 9l-87 18v28h252v-29l-73 -16q-25 -6 -33 -28l-247 -616h-31z" />
    <glyph glyph-name="W" unicode="W" horiz-adv-x="1011" 
d="M299 -10l-200 621q-7 19 -27 24l-78 16v28h287v-28l-98 -15q-19 -4 -13 -23l125 -397l31 -112h4l165 578h42l152 -472l27 -104h5l138 501q7 24 -17 28l-87 15v29h262v-29l-84 -15q-27 -4 -32 -29l-175 -616h-36l-155 488l-26 99h-5l-168 -588z" />
    <glyph glyph-name="X" unicode="X" horiz-adv-x="754" 
d="M281 29v-29h-275v28l84 18q31 7 47 28l207 271l-201 271q-11 16 -32 20l-79 15v28h302v-28l-94 -14q-27 -4 -10 -26l159 -223l159 216q18 26 -10 31l-80 16v28h264v-29l-82 -18q-27 -6 -42 -27l-188 -245l219 -293q15 -20 35 -24l83 -15v-28h-313v28l97 14q27 4 11 27
l-177 248l-178 -242q-19 -27 10 -31z" />
    <glyph glyph-name="Y" unicode="Y" horiz-adv-x="665" 
d="M481 0h-304v28l101 17q16 2 16 18v212l-195 338q-11 19 -34 23l-71 14v29h285v-29l-95 -14q-20 -3 -9 -23l116 -207l51 -98h5l172 297q14 25 -11 30l-85 16v28h247v-29l-63 -13q-28 -6 -41 -29l-203 -344v-201q0 -15 17 -18l101 -17v-28z" />
    <glyph glyph-name="Z" unicode="Z" horiz-adv-x="632" 
d="M583 0h-544l-3 25l395 535l67 82h-256q-68 0 -91.5 -14.5t-38.5 -67.5l-27 -87h-33l14 206h512l3 -26l-377 -514l-82 -102h281q68 0 91 15t38 70l31 102h31z" />
    <glyph glyph-name="bracketleft" unicode="[" horiz-adv-x="421" 
d="M140 -185v955l247 -6v-22l-187 -11v-877l187 -12v-21z" />
    <glyph glyph-name="backslash" unicode="\" horiz-adv-x="445" 
d="M99 729l287 -829h-51l-287 829h51z" />
    <glyph glyph-name="bracketright" unicode="]" horiz-adv-x="421" 
d="M281 770v-955l-247 6v21l187 12v877l-187 11v22z" />
    <glyph glyph-name="asciicircum" unicode="^" horiz-adv-x="531" 
d="M266 717l-185 -260h-31l185 308h62l184 -308h-31z" />
    <glyph glyph-name="underscore" unicode="_" horiz-adv-x="518" 
d="M0 -52v39h518v-39h-518z" />
    <glyph glyph-name="grave" unicode="`" horiz-adv-x="533" 
d="M288 580l-138 162v13h76l89 -175h-27z" />
    <glyph glyph-name="a" unicode="a" horiz-adv-x="500" 
d="M196 23q60 0 99.5 39t39.5 93v96q-32 -6 -51.5 -10t-49 -12t-47.5 -18.5t-36.5 -25.5t-27.5 -36.5t-9 -48.5q0 -36 21.5 -56.5t60.5 -20.5zM507 93q-7 -52 -27.5 -76.5t-59.5 -24.5q-66 0 -76 80q-24 -39 -67.5 -62.5t-99.5 -23.5q-60 0 -95.5 29t-35.5 78q0 151 290 190
v73q0 104 -105 104q-39 0 -67.5 -14t-42.5 -36l4 1q17 0 27.5 -11t10.5 -29q0 -20 -12.5 -32t-33.5 -12q-22 0 -35.5 14t-13.5 39q0 44 48.5 78.5t117.5 34.5q80 0 122 -38t42 -107q0 -12 -0.5 -126.5t-0.5 -127.5q0 -38 9 -52.5t27 -14.5t28.5 15.5t17.5 53.5z" />
    <glyph glyph-name="b" unicode="b" horiz-adv-x="550" 
d="M514 244q0 -120 -62 -189t-160 -69q-97 0 -155 58l-27 -56l-28 2l9 130v576q0 15 -15 16l-77 7v26l137 24l26 -5l-8 -94v-147l-8 -159q20 63 63.5 96t104.5 33q91 0 145.5 -69.5t54.5 -179.5zM291 19q76 0 113 60t37 164q0 214 -136 214q-65 0 -108 -57t-43 -160v-137
q39 -84 137 -84z" />
    <glyph glyph-name="c" unicode="c" horiz-adv-x="480" 
d="M443 85q-71 -99 -187 -99q-92 0 -156 67.5t-64 185.5q0 119 69 186.5t166 67.5q68 0 114.5 -29.5t46.5 -75.5q0 -25 -14.5 -40t-36.5 -15q-20 0 -34 12.5t-14 32.5q0 19 11 31t27 12q-27 39 -98 39q-75 0 -120 -55t-45 -161q0 -105 44.5 -161t116.5 -56q88 0 149 77z" />
    <glyph glyph-name="d" unicode="d" horiz-adv-x="572" 
d="M254 22q62 0 101.5 55.5t39.5 156.5v130q-40 96 -138 96q-74 0 -111.5 -58t-37.5 -163q0 -102 36 -159.5t110 -57.5zM405 9l-1 104q-21 -63 -63 -95t-99 -32q-88 0 -147 68.5t-59 184.5t62 185t157 69q82 0 140 -49v251q0 15 -15 16l-87 7v25l147 26l26 -5l-8 -94v-609
q0 -16 15 -19l77 -15v-27h-137z" />
    <glyph glyph-name="e" unicode="e" horiz-adv-x="489" 
d="M366 298l2 14q1 10 1 28q0 55 -27 87.5t-84 32.5q-54 0 -95.5 -42t-51.5 -130zM439 82q-71 -96 -183 -96q-92 0 -156 67.5t-64 186.5q0 121 68 187t156 66q84 0 131 -47t47 -127q0 -27 -6 -61h-324v-18q0 -103 44.5 -158t115.5 -55q89 0 147 75z" />
    <glyph glyph-name="f" unicode="f" horiz-adv-x="366" 
d="M306 27v-27h-268v27l78 15q15 3 15 19v375l-96 9v29l96 8v104q0 92 46.5 141t125.5 49q56 0 94 -25.5t38 -63.5q0 -25 -14.5 -39.5t-36.5 -14.5q-21 0 -34 12t-13 31q0 20 10.5 32t25.5 12q-18 23 -67 23q-114 0 -114 -141q0 -20 1 -61t1 -62h132v-32l-132 -7v-377
q0 -18 18 -21z" />
    <glyph glyph-name="g" unicode="g" horiz-adv-x="504" 
d="M220 191q52 0 79 37.5t27 98.5q0 62 -27 98t-79 36t-79 -36t-27 -98q0 -61 27 -98.5t79 -37.5zM241 -244q-102 0 -163 35t-61 101q0 39 22 65.5t57 25.5q37 0 28 -36q-61 -2 -61 -62q0 -44 47.5 -70t130.5 -26q88 0 139 30t51 81q0 49 -41 69t-139 22q-181 3 -181 98
q0 75 104 85v5h1q-58 10 -94 50.5t-36 98.5q0 71 50 118t124 47q78 0 122 -44q39 44 96 44q26 0 42 -13t16 -35q0 -20 -11.5 -32t-30.5 -12q-18 0 -29 10.5t-11 27.5q0 16 10 25q-40 -5 -67 -36q38 -45 38 -102q0 -73 -49.5 -120t-126.5 -49q-54 -2 -79.5 -12.5t-25.5 -37.5
q0 -28 34.5 -37t112.5 -11q111 -3 163.5 -37.5t52.5 -106.5q0 -76 -62.5 -117.5t-172.5 -41.5z" />
    <glyph glyph-name="h" unicode="h" horiz-adv-x="615" 
d="M275 27v-27h-246v27l77 15q15 3 15 19v635q0 15 -15 16l-77 7v26l138 24l25 -5l-8 -94v-149l-9 -189q22 73 69.5 117t116.5 44q68 0 103.5 -38t35.5 -111v-283q0 -16 15 -19l76 -15v-27h-245v27l76 15q15 3 15 19v286q0 108 -92 108q-74 0 -117.5 -73.5t-43.5 -174.5
v-146q0 -16 16 -19z" />
    <glyph glyph-name="i" unicode="i" horiz-adv-x="320" 
d="M156 625q-23 0 -38.5 15t-15.5 39q-1 24 15 39.5t39 15.5q24 0 40 -15.5t16 -39.5t-16 -39t-40 -15zM44 0v27l78 15q15 3 15 19v354q0 16 -15 17l-83 6v23l143 31l26 -5l-8 -95v-331q0 -16 16 -19l76 -15v-27h-248z" />
    <glyph glyph-name="j" unicode="j" horiz-adv-x="314" 
d="M168 625q-23 0 -39 15t-16 39t16 39.5t39 15.5q24 0 39.5 -15.5t15.5 -39.5t-15.5 -39t-39.5 -15zM42 -243q-55 0 -88.5 22.5t-33.5 61.5q0 23 14.5 38.5t38.5 15.5q20 0 33 -12.5t13 -33.5q0 -19 -11.5 -30.5t-25.5 -11.5q18 -18 58 -18q109 0 109 141v481q0 16 -15 17
l-94 7v23l154 34l26 -5l-8 -95v-446q0 -97 -49.5 -143t-120.5 -46z" />
    <glyph glyph-name="k" unicode="k" horiz-adv-x="564" 
d="M184 220l178 202q15 17 -6 20l-64 12v25h227v-25l-76 -14q-23 -4 -35 -19l-119 -130l172 -231q10 -15 32 -19l68 -14v-27h-239v27l56 10q20 4 6 26l-135 185l-65 -71v-116q0 -16 15 -19l72 -15v-27h-241v27l76 15q15 3 15 19v635q0 15 -15 16l-77 7v26l138 24l25 -5
l-8 -94v-450z" />
    <glyph glyph-name="l" unicode="l" horiz-adv-x="307" 
d="M29 0v27l78 15q15 3 15 19v635q0 15 -15 16l-77 7v26l138 24l25 -5l-7 -94v-609q0 -16 15 -19l76 -15v-27h-248z" />
    <glyph glyph-name="m" unicode="m" horiz-adv-x="919" 
d="M290 27v-27h-246v27l77 15q15 3 15 19v354q0 16 -15 17l-82 5v24l132 30l25 -6l-6 -152q21 73 65.5 116.5t111.5 43.5q127 0 127 -141v-14q21 71 65.5 113t109.5 42q135 0 135 -147v-285q0 -16 15 -19l76 -15v-27h-247v27l77 15q16 3 16 19v288q0 106 -87 106
q-69 0 -110.5 -72t-41.5 -168v-154q0 -16 15 -19l75 -15v-27h-246v27l78 15q15 3 15 19v288q0 106 -88 106q-68 0 -110 -72.5t-42 -168.5v-153q0 -16 15 -19z" />
    <glyph glyph-name="n" unicode="n" horiz-adv-x="625" 
d="M290 27v-27h-246v27l77 15q15 3 15 19v354q0 16 -15 17l-82 5v24l132 30l25 -6l-8 -159q21 75 68 121t118 46q138 0 138 -149v-283q0 -16 15 -19l75 -15v-27h-246v27l77 15q15 3 15 19v286q0 108 -91 108q-71 0 -114.5 -74t-43.5 -170v-150q0 -16 15 -19z" />
    <glyph glyph-name="o" unicode="o" horiz-adv-x="519" 
d="M259 -14q-100 0 -161.5 71t-61.5 183q0 113 61.5 183t161.5 70t162 -70t62 -183q0 -112 -62 -183t-162 -71zM259 19q75 0 113 59.5t38 161.5t-38 161t-113 59t-113 -59t-38 -161t38 -161.5t113 -59.5z" />
    <glyph glyph-name="p" unicode="p" horiz-adv-x="573" 
d="M318 19q72 0 109 58.5t37 165.5q0 214 -137 214q-63 0 -106.5 -57.5t-43.5 -159.5v-135q41 -86 141 -86zM280 -203v-27h-259v27l78 15q15 3 15 19v584q0 16 -16 17l-83 5v24l134 30l25 -6l-6 -129q19 66 63 101.5t106 35.5q90 0 145 -68.5t55 -181.5q0 -119 -62.5 -188
t-154.5 -69q-87 0 -143 47v-202q0 -16 15 -19z" />
    <glyph glyph-name="q" unicode="q" horiz-adv-x="546" 
d="M551 -230h-259v27l88 15q15 3 15 19v102l5 168q-43 -115 -161 -115q-88 0 -145.5 68.5t-57.5 185.5q0 118 62 185.5t156 67.5q101 0 159 -64l27 73l26 -3l-8 -126v-542q0 -16 15 -19l78 -15v-27zM252 22q59 0 101 53t42 152v137q-40 96 -138 96q-74 0 -111.5 -57.5
t-37.5 -162.5q0 -103 35.5 -160.5t108.5 -57.5z" />
    <glyph glyph-name="r" unicode="r" horiz-adv-x="431" 
d="M294 0h-250v27l77 15q15 3 15 19v354q0 16 -15 17l-82 6v24l131 29l24 -5l-9 -194q16 89 57 145t103 56q31 0 49.5 -16.5t18.5 -41.5q0 -23 -14 -38t-36 -15q-21 0 -34 12.5t-13 32.5q0 26 21 36q-62 -3 -100.5 -84t-38.5 -188v-130q0 -16 16 -19l80 -15v-27z" />
    <glyph glyph-name="s" unicode="s" horiz-adv-x="443" 
d="M389 128q0 -65 -44.5 -103.5t-115.5 -38.5q-87 0 -140 46l-12 -45h-25v184h29q6 -38 22 -77q32 -75 127 -75q49 0 77.5 24t28.5 64q0 24 -9 41.5t-31 31.5t-39.5 21t-53.5 20q-64 22 -101 54t-37 89t41 93t105 36q77 0 122 -42l13 42h24v-166h-30q-5 35 -22 70
q-29 63 -105 63q-44 0 -69 -22.5t-25 -55.5q0 -18 7 -32.5t15.5 -23t29 -18.5t32.5 -14.5t40 -14.5q68 -25 107 -57.5t39 -93.5z" />
    <glyph glyph-name="t" unicode="t" horiz-adv-x="363" 
d="M222 -12q-115 0 -115 120v329l-95 8v29l59 8q25 4 36 16t17 34q17 85 18 94h33l-5 -147h173v-31l-173 -8v-331q0 -82 67 -82q29 0 48 18t33 60l30 -9q-30 -108 -126 -108z" />
    <glyph glyph-name="u" unicode="u" horiz-adv-x="570" 
d="M408 9l-1 95q-20 -55 -62.5 -86.5t-103.5 -31.5q-66 0 -105 37.5t-39 113.5v282q0 15 -15 19l-78 15v26h159l-3 -83v-261q0 -110 99 -110q62 0 100.5 49.5t38.5 133.5v211q0 15 -15 19l-77 15v26h159l-4 -85v-333q0 -16 16 -19l75 -15v-27h-135z" />
    <glyph glyph-name="v" unicode="v" horiz-adv-x="512" 
d="M239 -10l-165 434q-5 14 -21 18l-61 12v25h230v-25l-67 -12q-17 -3 -10 -23l82 -231l35 -109h4l137 340q7 18 -12 22l-57 12v26h185v-25l-53 -13q-17 -5 -25 -23l-179 -428h-23z" />
    <glyph glyph-name="w" unicode="w" horiz-adv-x="737" 
d="M217 -10l-143 434q-4 14 -21 18l-61 12v25h230v-25l-68 -12q-18 -3 -10 -23l62 -207l33 -117h6l125 388h35l83 -272l30 -113h7l105 320q5 19 -12 23l-59 12v26h185v-25l-55 -14q-17 -4 -22 -22l-145 -428h-26l-91 288l-26 108h-6l-130 -396h-26z" />
    <glyph glyph-name="x" unicode="x" horiz-adv-x="544" 
d="M222 26v-26h-211v26l65 14q20 4 30 19l136 190l-118 173q-10 15 -27 19l-67 13v25h238v-25l-59 -10q-21 -4 -9 -23l87 -134l91 134q12 18 -7 22l-48 10v26h188v-25l-58 -14q-19 -4 -30 -20l-117 -161l137 -200q13 -18 31 -20l62 -13v-26h-244v26l65 10q21 4 9 24
l-105 161l-109 -161q-12 -18 8 -22z" />
    <glyph glyph-name="y" unicode="y" horiz-adv-x="509" 
d="M80 -242q-34 0 -54 18.5t-20 46.5q0 24 15 39.5t38 15.5q20 0 33.5 -13t13.5 -32q0 -18 -10 -30t-23 -11l16 -3q33 0 65.5 41.5t83.5 168.5l6 16l-169 409q-6 15 -21 18l-62 12v25h231v-25l-66 -12q-19 -3 -11 -23l93 -235l33 -95h4l125 330q7 18 -11 22l-57 12v26h183
v-25l-54 -14q-15 -3 -22 -18l-154 -394q-45 -116 -80.5 -176t-61.5 -77t-64 -17z" />
    <glyph glyph-name="z" unicode="z" horiz-adv-x="471" 
d="M426 0h-385l-2 28l259 354l58 66h-179q-38 0 -53 -11t-25 -48l-18 -71h-30l7 161h364l4 -27l-257 -350l-60 -70h193q40 0 55.5 11.5t27.5 51.5l20 82h29z" />
    <glyph glyph-name="braceleft" unicode="{" horiz-adv-x="421" 
d="M318 -180q-74 0 -113.5 36t-39.5 103q0 27 9.5 95.5t9.5 88.5q0 67 -35.5 93t-125.5 28v57q90 2 125.5 28t35.5 93q0 20 -9.5 88.5t-9.5 95.5q0 67 39.5 103t113.5 36h69v-23l-68 -3q-49 -3 -70 -29t-21 -80q0 -24 5 -97t5 -86q0 -72 -41.5 -105t-118.5 -40v-19
q77 -7 118.5 -40t41.5 -105q0 -13 -5 -86t-5 -97q0 -54 21 -80t70 -29l68 -3v-23h-69z" />
    <glyph glyph-name="bar" unicode="|" horiz-adv-x="265" 
d="M110 -100v829h45v-829h-45z" />
    <glyph glyph-name="braceright" unicode="}" horiz-adv-x="421" 
d="M256 -41q0 -67 -39.5 -103t-113.5 -36h-69v23l68 3q49 3 70 29t21 80q0 24 -5 97t-5 86q0 72 41.5 105t118.5 40v19q-77 7 -118.5 40t-41.5 105q0 13 5 86t5 97q0 54 -21 80t-70 29l-68 3v23h69q74 0 113.5 -36t39.5 -103q0 -27 -9.5 -95.5t-9.5 -88.5q0 -67 35.5 -93
t125.5 -28v-57q-90 -2 -125.5 -28t-35.5 -93q0 -20 9.5 -88.5t9.5 -95.5z" />
    <glyph glyph-name="asciitilde" unicode="~" horiz-adv-x="533" 
d="M374 185q-43 0 -117.5 39t-105.5 39q-64 0 -60 -85h-30q-1 11 -1 25q1 47 26 73t72 26q42 0 118 -39t105 -39q31 0 45.5 15.5t15.5 51.5h31q0 -48 -24.5 -77t-74.5 -29z" />
    <glyph glyph-name="nbspace" unicode="&#xa0;" horiz-adv-x="200" 
 />
    <glyph glyph-name="exclamdown" unicode="&#xa1;" horiz-adv-x="325" 
d="M108 434q0 26 16 41t40 15t40.5 -15t16.5 -41t-16.5 -40.5t-40.5 -14.5q-23 0 -39.5 14.5t-16.5 40.5zM114 -149q0 28 9 74.5t18 133.5t9 214h30q0 -127 9 -214.5t17.5 -134t8.5 -73.5q0 -62 -51 -62q-23 0 -36.5 16t-13.5 46z" />
    <glyph glyph-name="cent" unicode="&#xa2;" 
d="M241 66l90 384q-79 -1 -125.5 -55t-46.5 -151q0 -126 82 -178zM500 91q-73 -98 -186 -98q-28 0 -58 8l-35 -152h-35l40 162q-59 26 -94.5 82.5t-35.5 135.5q0 116 68 183.5t168 67.5h4l31 133h36l-33 -136q55 -8 90.5 -36.5t35.5 -66.5q0 -24 -15 -39t-38 -15
q-20 0 -33 12.5t-13 31.5t12 31.5t29 12.5h2q-24 31 -79 40l-94 -395q30 -13 70 -13q86 0 145 67z" />
    <glyph glyph-name="sterling" unicode="&#xa3;" 
d="M517 153l-14 -153h-418l-4 43q71 13 105.5 49t34.5 112q0 40 -12 90l-111 9v25l99 10q-21 84 -21 127q0 81 53.5 128t131.5 47q67 0 111.5 -33t44.5 -82q0 -24 -14.5 -39.5t-36.5 -15.5q-21 0 -34.5 13t-13.5 33q0 19 12 31t28 12q-24 47 -97 47q-54 0 -86 -34.5
t-32 -89.5q0 -41 22 -147h166v-33l-159 -4q4 -36 4 -55q0 -131 -86 -185h233q24 0 34.5 8t17.5 32l16 55h26z" />
    <glyph glyph-name="currency" unicode="&#xa4;" 
d="M495 20l-90 94q-44 -39 -106 -39q-61 0 -105 39l-89 -94l-26 26l93 91q-34 47 -34 105q0 59 33 103l-92 90l26 26l89 -91q46 39 105 39q61 0 106 -39l90 91l26 -26l-93 -89q34 -47 34 -104q0 -59 -35 -105l94 -91zM299 109q54 0 90.5 38.5t36.5 94.5q0 55 -36.5 94
t-90.5 39t-89.5 -38.5t-35.5 -94.5t35.5 -94.5t89.5 -38.5z" />
    <glyph glyph-name="yen" unicode="&#xa5;" 
d="M452 28v-28h-304v28l101 17q17 3 17 18v186h-210v38h196l-169 273q-12 19 -33 23l-65 14v28h277v-29l-93 -14q-22 -3 -8 -22l102 -177l51 -87h5l157 256q16 24 -9 29l-85 16v28h236v-28l-57 -13q-25 -5 -39 -30l-171 -267h189v-38h-205v-186q0 -16 17 -18z" />
    <glyph glyph-name="brokenbar" unicode="&#xa6;" horiz-adv-x="265" 
d="M110 385v344h45v-344h-45zM110 -100v345h45v-345h-45z" />
    <glyph glyph-name="section" unicode="&#xa7;" horiz-adv-x="605" 
d="M511 237q0 -72 -70 -131l-19 16q48 44 48 92q0 41 -34.5 72.5t-83 54.5t-97.5 47.5t-83.5 63t-34.5 89.5q0 68 52.5 109.5t133.5 41.5q76 0 126 -33t50 -83q0 -24 -14.5 -39t-36.5 -15q-21 0 -34 13t-13 33q0 19 12.5 31t30.5 12q-28 48 -121 48q-65 0 -100 -28.5
t-35 -69.5q0 -43 33.5 -75t81 -54t94.5 -45.5t80.5 -61t33.5 -88.5zM282 -192q-76 0 -126 33t-50 82q0 24 14.5 39t36.5 15q21 0 34 -12.5t13 -32.5t-12.5 -32t-30.5 -12q28 -48 121 -48q65 0 100 28.5t35 70.5q0 43 -33.5 75t-80.5 54t-94.5 45t-81 60.5t-33.5 88.5
q0 73 70 132l19 -16q-48 -44 -48 -92q0 -41 34.5 -72.5t83.5 -54.5t97.5 -47.5t83 -63t34.5 -89.5q0 -68 -52 -109.5t-134 -41.5z" />
    <glyph glyph-name="dieresis" unicode="&#xa8;" horiz-adv-x="533" 
d="M358 614q-19 0 -32 13.5t-13 32.5t13 32.5t32 13.5t32.5 -13.5t13.5 -32.5t-13.5 -32.5t-32.5 -13.5zM174 614q-19 0 -32.5 13.5t-13.5 32.5t13.5 32.5t32.5 13.5t32.5 -13.5t13.5 -32.5t-13.5 -32.5t-32.5 -13.5z" />
    <glyph glyph-name="copyright" unicode="&#xa9;" horiz-adv-x="848" 
d="M424 -113q-147 0 -250.5 102.5t-103.5 250.5t103.5 251t250.5 103t250.5 -103t103.5 -251t-103.5 -250.5t-250.5 -102.5zM424 -75q130 0 222.5 92t92.5 224q0 131 -92.5 223t-222.5 92t-222.5 -92t-92.5 -223q0 -132 92.5 -224t222.5 -92zM557 44l-11 52
q-44 -54 -118 -54q-86 0 -141 55t-55 144t55.5 146.5t139.5 57.5q79 0 120 -53l10 50h19v-152h-24l-12 40q-22 84 -111 84q-63 0 -96.5 -47t-33.5 -125t33.5 -124t96.5 -46q88 0 110 80l13 42h24v-150h-19z" />
    <glyph glyph-name="ordfeminine" unicode="&#xaa;" horiz-adv-x="371" 
d="M153 363q37 0 64.5 24t27.5 56q0 51 1 80q-72 -10 -110.5 -32t-38.5 -72q0 -26 14.5 -41t41.5 -15zM376 415q-9 -77 -64 -77q-49 0 -58 58q-17 -27 -49 -44.5t-70 -17.5q-45 0 -70.5 22t-25.5 58q0 34 17.5 58.5t50 38.5t64.5 22t75 13v51q0 74 -73 74q-51 0 -75 -33h2
q12 0 21 -9.5t9 -22.5q0 -15 -11 -25t-27 -10t-26 10.5t-10 29.5q0 33 33.5 58.5t87.5 25.5q58 0 90 -28.5t32 -80.5q0 -27 -0.5 -86.5t-0.5 -87.5q0 -46 27 -46q23 0 31 51zM50 162v36h297v-36h-297z" />
    <glyph glyph-name="guillemotleft" unicode="&#xab;" horiz-adv-x="528" 
d="M431 50l-180 186v27l180 188l19 -17l-137 -184l137 -183zM239 50l-180 186v27l180 188l19 -17l-137 -184l137 -183z" />
    <glyph glyph-name="logicalnot" unicode="&#xac;" horiz-adv-x="550" 
d="M453 302h-397v41h438v-198h-41v157z" />
    <glyph glyph-name="registered" unicode="&#xae;" horiz-adv-x="848" 
d="M424 -113q-147 0 -250.5 102.5t-103.5 250.5t103.5 251t250.5 103t250.5 -103t103.5 -251t-103.5 -250.5t-250.5 -102.5zM424 -75q130 0 222.5 92t92.5 224q0 131 -92.5 223t-222.5 92t-222.5 -92t-92.5 -223q0 -132 92.5 -224t222.5 -92zM414 249q96 0 96 78
q0 42 -22.5 61.5t-75.5 19.5q-17 0 -43 -2v-156q20 -1 45 -1zM436 71v-20h-191v20l54 11q11 1 11 13v295q0 11 -11 14l-54 10v21h22q23 0 73.5 1t71.5 1q77 0 119 -28t42 -81q0 -40 -25.5 -65t-64.5 -30q12 -22 16 -31l46 -100q9 -18 23 -21l36 -10v-20h-99l-71 171
q-8 -1 -22 -1q-27 0 -43 1v-127q0 -12 10 -13z" />
    <glyph glyph-name="macron" unicode="&#xaf;" horiz-adv-x="533" 
d="M126 647v33q92 -2 140 -2t140 2v-33q-92 2 -140 2t-140 -2z" />
    <glyph glyph-name="degree" unicode="&#xb0;" horiz-adv-x="432" 
d="M215 377q-67 0 -112.5 44.5t-45.5 111.5t45.5 111.5t112.5 44.5q68 0 113.5 -44.5t45.5 -111.5t-45.5 -111.5t-113.5 -44.5zM215 410q50 0 84.5 33.5t34.5 89.5t-34.5 89.5t-84.5 33.5q-49 0 -83.5 -33.5t-34.5 -89.5t34.5 -89.5t83.5 -33.5z" />
    <glyph glyph-name="plusminus" unicode="&#xb1;" horiz-adv-x="550" 
d="M494 0h-438v41h198v189h-198v41h198v196h42v-196h198v-41h-198v-189h198v-41z" />
    <glyph glyph-name="two.sups" unicode="&#xb2;" horiz-adv-x="338" 
d="M289 500h-243q0 10 -3 25q92 77 129 119q64 70 64 132q0 70 -76 70q-29 0 -52 -13.5t-30 -34.5l9 3q13 0 21 -7.5t8 -19.5q0 -14 -9 -23t-23 -9q-16 0 -26 10t-10 28q0 36 34 61t87 25q54 0 90 -24t36 -70q0 -40 -24 -70.5t-74 -70.5q-7 -6 -47 -37.5t-59 -47.5h148
q15 0 21.5 4.5t10.5 16.5l10 29h18z" />
    <glyph glyph-name="three.sups" unicode="&#xb3;" horiz-adv-x="345" 
d="M146 490q-48 0 -81 18.5t-33 45.5q0 16 10 26t26 10q15 0 23.5 -8.5t8.5 -21.5t-7 -21.5t-14 -6.5q22 -22 67 -22q47 0 75.5 26t28.5 74q0 78 -67 78q-22 0 -43.5 -13t-30.5 -13q-21 0 -21 22q31 14 71 17q35 15 55 35.5t20 54.5q0 26 -18 41t-50 15q-54 0 -78 -33h1
q12 0 20.5 -8t8.5 -20q0 -13 -9 -22t-23 -9q-16 0 -26 10t-10 27q0 30 36 52t85 22q53 0 87 -20t34 -54q0 -33 -28 -52.5t-81 -37.5l1 -3q14 2 21 2q45 0 75 -22.5t30 -67.5q0 -55 -50 -88t-114 -33z" />
    <glyph glyph-name="acute" unicode="&#xb4;" horiz-adv-x="533" 
d="M217 580l88 175h77v-13l-139 -162h-26z" />
    <glyph glyph-name="mu" unicode="&#xb5;" horiz-adv-x="619" 
d="M160 -198v-32h-63v649q0 15 -15 19l-78 15v26h159l-3 -83v-261q0 -110 99 -110q62 0 100.5 49.5t38.5 133.5v211q0 15 -15 19l-77 15v26h159l-4 -85v-333q0 -16 16 -19l75 -15v-27h-135l-9 9l-1 94q-20 -55 -59.5 -86t-93.5 -31q-78 0 -108 57q14 -196 14 -241z" />
    <glyph glyph-name="paragraph" unicode="&#xb6;" horiz-adv-x="616" 
d="M324 -180h-35v420q-33 -10 -62 -10q-89 0 -146.5 60t-57.5 160t62 165t175 65q3 0 23.5 -0.5t40.5 -0.5v-859zM420 -180v859h161v-29l-108 -17q-18 -4 -18 -18v-795h-35z" />
    <glyph glyph-name="periodcentered" unicode="&#xb7;" horiz-adv-x="281" 
d="M141 191q-24 0 -41.5 16t-17.5 43t17.5 42.5t41.5 15.5t41 -15.5t17 -42.5t-17 -43t-41 -16z" />
    <glyph glyph-name="cedilla" unicode="&#xb8;" horiz-adv-x="490" 
d="M242 -243q-50 0 -88 24l15 23q34 -17 66 -17q34 0 55 16t21 47q0 27 -14.5 41t-38.5 14q-18 0 -33 -6l-19 14l31 80l24 -1l-19 -65q18 5 35 5q36 0 63 -21t27 -59q0 -45 -37.5 -70t-87.5 -25z" />
    <glyph glyph-name="one.sups" unicode="&#xb9;" horiz-adv-x="304" 
d="M54 500v19l68 9q10 1 10 9v254q0 13 -6.5 18.5t-26.5 7.5l-45 5v14l55 6q49 5 61 18h20q-3 -30 -3 -58v-265q0 -8 10 -9l65 -9v-19h-208z" />
    <glyph glyph-name="ordmasculine" unicode="&#xba;" horiz-adv-x="385" 
d="M195 334q-71 0 -115 50t-44 131t44 130.5t115 49.5q72 0 116 -49.5t44 -130.5t-44 -131t-116 -50zM195 357q98 0 98 158q0 157 -98 157q-96 0 -96 -157q0 -158 96 -158zM54 162v36h287v-36h-287z" />
    <glyph glyph-name="guillemotright" unicode="&#xbb;" horiz-adv-x="528" 
d="M469 236l-180 -186l-19 17l137 183l-137 184l19 17l180 -188v-27zM277 236l-180 -186l-19 17l137 183l-137 184l19 17l180 -188v-27z" />
    <glyph glyph-name="onequarter" unicode="&#xbc;" horiz-adv-x="848" 
d="M197 -15l-36 25l248 335l225 349l36 -25l-248 -334zM81 323v19l68 9q10 1 10 9v254q0 13 -6.5 18.5t-26.5 7.5l-45 5v14l55 6q49 5 61 18h20q-3 -30 -3 -58v-265q0 -8 10 -9l65 -9v-19h-208zM760 0h-243q0 10 -3 25q92 77 129 119q64 70 64 132q0 70 -76 70
q-29 0 -52 -13.5t-30 -34.5l9 3q13 0 21 -7.5t8 -19.5q0 -14 -9 -23t-23 -9q-16 0 -26 10t-10 28q0 36 34 61t87 25q54 0 90 -24t36 -70q0 -40 -24 -70.5t-74 -70.5q-7 -6 -47 -37.5t-59 -47.5h148q15 0 21.5 4.5t10.5 16.5l10 29h18z" />
    <glyph glyph-name="onehalf" unicode="&#xbd;" horiz-adv-x="868" 
d="M197 -15l-36 25l248 335l225 349l36 -25l-248 -334zM81 323v19l68 9q10 1 10 9v254q0 13 -6.5 18.5t-26.5 7.5l-45 5v14l55 6q49 5 61 18h20q-3 -30 -3 -58v-265q0 -8 10 -9l65 -9v-19h-208zM653 130v180l-138 -179zM766 19v-19h-176v18l53 9q10 3 10 11v71h-160l-5 17
l175 230h44v-227h3h16q13 0 19 4t11 16l11 27h17l-10 -67h-67v-71q0 -10 11 -11z" />
    <glyph glyph-name="threequarters" unicode="&#xbe;" horiz-adv-x="910" 
d="M239 -15l-36 25l248 335l225 349l36 -25l-248 -334zM192 313q-48 0 -81 18.5t-33 45.5q0 16 10 26t26 10q15 0 23.5 -8.5t8.5 -21.5t-7 -21.5t-14 -6.5q22 -22 67 -22q47 0 75.5 26t28.5 74q0 78 -67 78q-22 0 -43.5 -13t-30.5 -13q-21 0 -21 22q31 14 71 17
q35 15 55 35.5t20 54.5q0 26 -18 41t-50 15q-54 0 -78 -33h1q12 0 20.5 -8t8.5 -20q0 -13 -9 -22t-23 -9q-16 0 -26 10t-10 27q0 30 36 52t85 22q53 0 87 -20t34 -54q0 -33 -28 -52.5t-81 -37.5l1 -3q14 2 21 2q45 0 75 -22.5t30 -67.5q0 -55 -50 -88t-114 -33zM696 130v180
l-138 -179zM809 19v-19h-176v18l53 9q10 3 10 11v71h-160l-5 17l175 230h44v-227h3h16q13 0 19 4t11 16l11 27h17l-10 -67h-67v-71q0 -10 11 -11z" />
    <glyph glyph-name="questiondown" unicode="&#xbf;" horiz-adv-x="536" 
d="M349 491q24 0 40 -15t16 -41t-16 -40.5t-40 -14.5t-40 14.5t-16 40.5t16.5 41t39.5 15zM488 -72q0 -55 -56 -96.5t-140 -41.5q-91 0 -157 48.5t-66 138.5q0 91 59.5 139t141.5 48q24 0 56 -7l5 117h32l7 -150l-32 -8q-32 16 -66 16q-126 0 -126 -157q0 -152 148 -152
q52 0 88.5 20.5t50.5 51.5h-1q-18 0 -30 11t-12 31t13 33t33 13q24 0 38 -15t14 -40z" />
    <glyph glyph-name="Agrave" unicode="&#xc0;" horiz-adv-x="700" 
d="M388 744l-163 113v12h92l102 -125h-31zM456 253l-78 210l-42 125h-4l-125 -335h249zM244 29v-29h-250v29l76 17q19 5 28 25l200 530l27 83h40l238 -620q6 -16 19 -18l83 -17v-29h-287v29l95 16q19 2 12 22l-55 149h-277l-52 -140q-8 -25 15 -30z" />
    <glyph glyph-name="Aacute" unicode="&#xc1;" horiz-adv-x="700" 
d="M274 744l102 125h92v-12l-163 -113h-31zM456 253l-78 210l-42 125h-4l-125 -335h249zM244 29v-29h-250v29l76 17q19 5 28 25l200 530l27 83h40l238 -620q6 -16 19 -18l83 -17v-29h-287v29l95 16q19 2 12 22l-55 149h-277l-52 -140q-8 -25 15 -30z" />
    <glyph glyph-name="Acircumflex" unicode="&#xc2;" horiz-adv-x="700" 
d="M343 835l-131 -91h-29l129 125h90l119 -125h-33zM456 253l-78 210l-42 125h-4l-125 -335h249zM244 29v-29h-250v29l76 17q19 5 28 25l200 530l27 83h40l238 -620q6 -16 19 -18l83 -17v-29h-287v29l95 16q19 2 12 22l-55 149h-277l-52 -140q-8 -25 15 -30z" />
    <glyph glyph-name="Atilde" unicode="&#xc3;" horiz-adv-x="700" 
d="M412 753q-31 0 -77 34.5t-70 34.5q-28 0 -28 -30q0 -20 10 -39l-20 -10q-19 27 -19 60q0 28 18 47.5t52 19.5q32 0 79.5 -33.5t70.5 -33.5q22 0 31.5 14.5t11.5 45.5l26 -1q0 -48 -20 -78.5t-65 -30.5zM456 253l-78 210l-42 125h-4l-125 -335h249zM244 29v-29h-250v29
l76 17q19 5 28 25l200 530l27 83h40l238 -620q6 -16 19 -18l83 -17v-29h-287v29l95 16q19 2 12 22l-55 149h-277l-52 -140q-8 -25 15 -30z" />
    <glyph glyph-name="Adieresis" unicode="&#xc4;" horiz-adv-x="700" 
d="M449 744q-19 0 -32.5 13.5t-13.5 32.5t13.5 33t32.5 14t32.5 -13.5t13.5 -33.5q0 -19 -13.5 -32.5t-32.5 -13.5zM252 744q-19 0 -32 13.5t-13 32.5q0 20 13 33.5t32 13.5t32.5 -13.5t13.5 -33.5q0 -19 -13.5 -32.5t-32.5 -13.5zM456 253l-78 210l-42 125h-4l-125 -335
h249zM244 29v-29h-250v29l76 17q19 5 28 25l200 530l27 83h40l238 -620q6 -16 19 -18l83 -17v-29h-287v29l95 16q19 2 12 22l-55 149h-277l-52 -140q-8 -25 15 -30z" />
    <glyph glyph-name="Aring" unicode="&#xc5;" horiz-adv-x="700" 
d="M347 723q-46 0 -76.5 28.5t-30.5 72.5t31 72.5t76 28.5t75.5 -28.5t30.5 -72.5t-30.5 -72.5t-75.5 -28.5zM346 744q35 0 54 22t19 58q0 35 -19 57.5t-53 22.5q-35 0 -54 -22.5t-19 -57.5q0 -36 19 -58t53 -22zM456 253l-78 210l-42 125h-4l-125 -335h249zM244 29v-29
h-250v29l76 17q19 5 28 25l200 530l27 83h40l238 -620q6 -16 19 -18l83 -17v-29h-287v29l95 16q19 2 12 22l-55 149h-277l-52 -140q-8 -25 15 -30z" />
    <glyph glyph-name="AE" unicode="&#xc6;" horiz-adv-x="948" 
d="M461 267v366h-8l-215 -366h223zM530 367h123q23 0 34 7t17 31l23 80h27v-273h-27l-23 81q-6 24 -17 31t-34 7h-123v-259q0 -22 9 -28.5t37 -6.5h154q56 0 76 12t32 57l29 97h34l-12 -203h-544v28l99 17q17 3 17 18v168h-244l-95 -162q-13 -19 11 -24l84 -17v-28h-252v28
l78 19q20 5 31 22l321 538q14 22 -10 27l-103 16v29h577l9 -166h-34l-23 68q-12 41 -32.5 51t-81.5 10h-84q-43 0 -83 -2v-273z" />
    <glyph glyph-name="Ccedilla" unicode="&#xc7;" horiz-adv-x="710" 
d="M346 -243q-50 0 -88 24l15 23q34 -17 66 -17q34 0 55 16t21 47q0 27 -14.5 41t-38.5 14q-18 0 -33 -6l-19 14l29 74q-126 12 -208.5 107t-82.5 245q0 159 93.5 256.5t230.5 97.5q136 0 212 -83l21 80h29l-5 -273h-33l-20 80q-21 80 -74 119.5t-129 39.5
q-112 0 -179.5 -85t-67.5 -231t67.5 -231.5t179.5 -85.5q155 0 204 160l19 65h33l3 -258h-29l-22 84q-74 -88 -210 -88h-8l-17 -59q18 5 35 5q36 0 63 -21t27 -59q0 -45 -37.5 -70t-87.5 -25z" />
    <glyph glyph-name="Egrave" unicode="&#xc8;" horiz-adv-x="644" 
d="M372 744l-163 113v12h92l102 -125h-31zM597 203l-12 -203h-545v28l100 17q16 2 16 18v553q0 16 -16 18l-100 17v28h515l9 -166h-34l-23 68q-12 41 -32.5 51t-81.5 10h-85q-41 0 -83 -2v-273h124q23 0 33.5 7t17.5 31l22 80h28v-273h-27l-23 81q-7 24 -17.5 31t-33.5 7
h-124v-259q0 -22 9.5 -28.5t37.5 -6.5h153q56 0 76.5 12t32.5 57l29 97h34z" />
    <glyph glyph-name="Eacute" unicode="&#xc9;" horiz-adv-x="644" 
d="M288 744l102 125h92v-12l-163 -113h-31zM225 367h124q23 0 33.5 7t17.5 31l22 80h28v-273h-27l-23 81q-7 24 -17.5 31t-33.5 7h-124v-259q0 -22 9.5 -28.5t37.5 -6.5h153q56 0 76.5 12t32.5 57l29 97h34l-12 -203h-545v28l100 17q16 2 16 18v553q0 16 -16 18l-100 17v28
h515l9 -166h-34l-23 68q-12 41 -32.5 51t-81.5 10h-85q-41 0 -83 -2v-273z" />
    <glyph glyph-name="Ecircumflex" unicode="&#xca;" horiz-adv-x="644" 
d="M316 835l-131 -91h-29l129 125h90l119 -125h-33zM597 203l-12 -203h-545v28l100 17q16 2 16 18v553q0 16 -16 18l-100 17v28h515l9 -166h-34l-23 68q-12 41 -32.5 51t-81.5 10h-85q-41 0 -83 -2v-273h124q23 0 33.5 7t17.5 31l22 80h28v-273h-27l-23 81q-7 24 -17.5 31
t-33.5 7h-124v-259q0 -22 9.5 -28.5t37.5 -6.5h153q56 0 76.5 12t32.5 57l29 97h34z" />
    <glyph glyph-name="Edieresis" unicode="&#xcb;" horiz-adv-x="644" 
d="M235 744q-19 0 -32 13.5t-13 32.5q0 20 13 33.5t32 13.5t32.5 -13.5t13.5 -33.5q0 -19 -13.5 -32.5t-32.5 -13.5zM432 744q-19 0 -32.5 13.5t-13.5 32.5t13.5 33t32.5 14t32.5 -13.5t13.5 -33.5q0 -19 -13.5 -32.5t-32.5 -13.5zM225 367h124q23 0 33.5 7t17.5 31l22 80
h28v-273h-27l-23 81q-7 24 -17.5 31t-33.5 7h-124v-259q0 -22 9.5 -28.5t37.5 -6.5h153q56 0 76.5 12t32.5 57l29 97h34l-12 -203h-545v28l100 17q16 2 16 18v553q0 16 -16 18l-100 17v28h515l9 -166h-34l-23 68q-12 41 -32.5 51t-81.5 10h-85q-41 0 -83 -2v-273z" />
    <glyph glyph-name="Igrave" unicode="&#xcc;" horiz-adv-x="390" 
d="M234 744l-163 113v12h92l102 -125h-31zM45 0v28l99 17q17 3 17 18v553q0 15 -17 18l-99 17v28h299v-28l-98 -17q-16 -2 -16 -18v-553q0 -16 16 -18l98 -17v-28h-299z" />
    <glyph glyph-name="Iacute" unicode="&#xcd;" horiz-adv-x="390" 
d="M121 744l102 125h92v-12l-163 -113h-31zM45 0v28l99 17q17 3 17 18v553q0 15 -17 18l-99 17v28h299v-28l-98 -17q-16 -2 -16 -18v-553q0 -16 16 -18l98 -17v-28h-299z" />
    <glyph glyph-name="Icircumflex" unicode="&#xce;" horiz-adv-x="390" 
d="M185 835l-131 -91h-29l129 125h90l119 -125h-33zM45 0v28l99 17q17 3 17 18v553q0 15 -17 18l-99 17v28h299v-28l-98 -17q-16 -2 -16 -18v-553q0 -16 16 -18l98 -17v-28h-299z" />
    <glyph glyph-name="Idieresis" unicode="&#xcf;" horiz-adv-x="390" 
d="M292 744q-19 0 -32.5 13.5t-13.5 32.5t13.5 33t32.5 14t32.5 -13.5t13.5 -33.5q0 -19 -13.5 -32.5t-32.5 -13.5zM95 744q-19 0 -32 13.5t-13 32.5q0 20 13 33.5t32 13.5t32.5 -13.5t13.5 -33.5q0 -19 -13.5 -32.5t-32.5 -13.5zM45 0v28l99 17q17 3 17 18v553q0 15 -17 18
l-99 17v28h299v-28l-98 -17q-16 -2 -16 -18v-553q0 -16 16 -18l98 -17v-28h-299z" />
    <glyph glyph-name="Eth" unicode="&#xd0;" horiz-adv-x="737" 
d="M156 360v256q0 16 -16 18l-100 17v28h298q162 0 256.5 -92t94.5 -247t-94.5 -247.5t-257.5 -92.5h-297v28l100 17q16 2 16 18v257h-110v40h110zM271 37h72q129 0 198.5 77t69.5 226q0 148 -70 225t-199 77h-34q-41 0 -83 -2v-280h172v-40h-172v-248q0 -22 9 -28.5
t37 -6.5z" />
    <glyph glyph-name="Ntilde" unicode="&#xd1;" horiz-adv-x="799" 
d="M478 753q-31 0 -77 34.5t-70 34.5q-28 0 -28 -30q0 -20 10 -39l-20 -10q-19 27 -19 60q0 28 18 47.5t52 19.5q32 0 79.5 -33.5t70.5 -33.5q22 0 31.5 14.5t11.5 45.5l26 -1q0 -48 -20 -78.5t-65 -30.5zM657 -6h-42l-351 509l-66 108h-6v-533q0 -27 26 -32l86 -17v-29
h-264v28l86 18q15 3 20.5 10t5.5 22v530q0 12 -4.5 18t-18.5 8l-89 17v28h187l322 -471l62 -98h6v491q0 27 -26 32l-86 18v28h264v-28l-86 -18q-15 -3 -20.5 -10t-5.5 -22v-607z" />
    <glyph glyph-name="Ograve" unicode="&#xd2;" horiz-adv-x="751" 
d="M422 744l-163 113v12h92l102 -125h-31zM375 -14q-146 0 -236.5 99.5t-90.5 254.5t90.5 254t236.5 99t236.5 -99t90.5 -254t-90.5 -254.5t-236.5 -99.5zM375 23q119 0 184.5 86.5t65.5 230.5q0 143 -65 229.5t-185 86.5t-184.5 -86.5t-64.5 -229.5q0 -144 64.5 -230.5
t184.5 -86.5z" />
    <glyph glyph-name="Oacute" unicode="&#xd3;" horiz-adv-x="751" 
d="M305 744l102 125h92v-12l-163 -113h-31zM375 -14q-146 0 -236.5 99.5t-90.5 254.5t90.5 254t236.5 99t236.5 -99t90.5 -254t-90.5 -254.5t-236.5 -99.5zM375 23q119 0 184.5 86.5t65.5 230.5q0 143 -65 229.5t-185 86.5t-184.5 -86.5t-64.5 -229.5q0 -144 64.5 -230.5
t184.5 -86.5z" />
    <glyph glyph-name="Ocircumflex" unicode="&#xd4;" horiz-adv-x="751" 
d="M366 835l-131 -91h-29l129 125h90l119 -125h-33zM375 -14q-146 0 -236.5 99.5t-90.5 254.5t90.5 254t236.5 99t236.5 -99t90.5 -254t-90.5 -254.5t-236.5 -99.5zM375 23q119 0 184.5 86.5t65.5 230.5q0 143 -65 229.5t-185 86.5t-184.5 -86.5t-64.5 -229.5
q0 -144 64.5 -230.5t184.5 -86.5z" />
    <glyph glyph-name="Otilde" unicode="&#xd5;" horiz-adv-x="751" 
d="M440 753q-31 0 -77 34.5t-70 34.5q-28 0 -28 -30q0 -20 10 -39l-20 -10q-19 27 -19 60q0 28 18 47.5t52 19.5q32 0 79 -33.5t71 -33.5q22 0 31.5 14.5t11.5 45.5l26 -1q0 -48 -20 -78.5t-65 -30.5zM375 -14q-146 0 -236.5 99.5t-90.5 254.5t90.5 254t236.5 99t236.5 -99
t90.5 -254t-90.5 -254.5t-236.5 -99.5zM375 23q119 0 184.5 86.5t65.5 230.5q0 143 -65 229.5t-185 86.5t-184.5 -86.5t-64.5 -229.5q0 -144 64.5 -230.5t184.5 -86.5z" />
    <glyph glyph-name="Odieresis" unicode="&#xd6;" horiz-adv-x="751" 
d="M475 744q-19 0 -32.5 13.5t-13.5 32.5t13.5 33t32.5 14t32.5 -13.5t13.5 -33.5q0 -19 -13.5 -32.5t-32.5 -13.5zM278 744q-19 0 -32 13.5t-13 32.5q0 20 13 33.5t32 13.5t32.5 -13.5t13.5 -33.5q0 -19 -13.5 -32.5t-32.5 -13.5zM375 -14q-146 0 -236.5 99.5t-90.5 254.5
t90.5 254t236.5 99t236.5 -99t90.5 -254t-90.5 -254.5t-236.5 -99.5zM375 23q119 0 184.5 86.5t65.5 230.5q0 143 -65 229.5t-185 86.5t-184.5 -86.5t-64.5 -229.5q0 -144 64.5 -230.5t184.5 -86.5z" />
    <glyph glyph-name="multiply" unicode="&#xd7;" horiz-adv-x="550" 
d="M415 81l-140 140l-140 -140l-29 29l140 140l-140 140l29 29l140 -140l140 140l29 -29l-140 -140l140 -140z" />
    <glyph glyph-name="Oslash" unicode="&#xd8;" horiz-adv-x="751" 
d="M702 340q0 -155 -90.5 -254.5t-236.5 -99.5q-122 0 -208 72l-59 -68l-33 28l62 69q-89 98 -89 253t90.5 254t236.5 99q128 0 214 -77l64 73l33 -28l-67 -75q83 -97 83 -246zM375 656q-120 0 -184.5 -86.5t-64.5 -229.5q0 -130 51 -211l378 446q-65 81 -180 81zM375 23
q119 0 184.5 86.5t65.5 230.5q0 121 -47 203l-378 -445q64 -75 175 -75z" />
    <glyph glyph-name="Ugrave" unicode="&#xd9;" horiz-adv-x="786" 
d="M432 744l-163 113v12h92l102 -125h-31zM391 -14q-53 0 -94 11t-77.5 37.5t-56 78t-19.5 124.5v379q0 15 -17 18l-99 17v28h299v-28l-98 -17q-16 -2 -16 -18v-379q0 -63 14.5 -105.5t43.5 -64t62 -29.5t80 -8q195 0 195 206v366q0 28 -26 33l-86 15v29h264v-29l-86 -15
q-26 -5 -26 -33v-365q0 -251 -257 -251z" />
    <glyph glyph-name="Uacute" unicode="&#xda;" horiz-adv-x="786" 
d="M351 744l102 125h92v-12l-163 -113h-31zM391 -14q-53 0 -94 11t-77.5 37.5t-56 78t-19.5 124.5v379q0 15 -17 18l-99 17v28h299v-28l-98 -17q-16 -2 -16 -18v-379q0 -63 14.5 -105.5t43.5 -64t62 -29.5t80 -8q195 0 195 206v366q0 28 -26 33l-86 15v29h264v-29l-86 -15
q-26 -5 -26 -33v-365q0 -251 -257 -251z" />
    <glyph glyph-name="Ucircumflex" unicode="&#xdb;" horiz-adv-x="786" 
d="M391 835l-131 -91h-29l129 125h90l119 -125h-33zM391 -14q-53 0 -94 11t-77.5 37.5t-56 78t-19.5 124.5v379q0 15 -17 18l-99 17v28h299v-28l-98 -17q-16 -2 -16 -18v-379q0 -63 14.5 -105.5t43.5 -64t62 -29.5t80 -8q195 0 195 206v366q0 28 -26 33l-86 15v29h264v-29
l-86 -15q-26 -5 -26 -33v-365q0 -251 -257 -251z" />
    <glyph glyph-name="Udieresis" unicode="&#xdc;" horiz-adv-x="786" 
d="M307 744q-19 0 -32 13.5t-13 32.5q0 20 13 33.5t32 13.5t32.5 -13.5t13.5 -33.5q0 -19 -13.5 -32.5t-32.5 -13.5zM504 744q-19 0 -32.5 13.5t-13.5 32.5t13.5 33t32.5 14t32.5 -13.5t13.5 -33.5q0 -19 -13.5 -32.5t-32.5 -13.5zM391 -14q-53 0 -94 11t-77.5 37.5t-56 78
t-19.5 124.5v379q0 15 -17 18l-99 17v28h299v-28l-98 -17q-16 -2 -16 -18v-379q0 -63 14.5 -105.5t43.5 -64t62 -29.5t80 -8q195 0 195 206v366q0 28 -26 33l-86 15v29h264v-29l-86 -15q-26 -5 -26 -33v-365q0 -251 -257 -251z" />
    <glyph glyph-name="Yacute" unicode="&#xdd;" horiz-adv-x="665" 
d="M305 744l102 125h92v-12l-163 -113h-31zM481 0h-304v28l101 17q16 2 16 18v212l-195 338q-11 19 -34 23l-71 14v29h285v-29l-95 -14q-20 -3 -9 -23l116 -207l51 -98h5l172 297q14 25 -11 30l-85 16v28h247v-29l-63 -13q-28 -6 -41 -29l-203 -344v-201q0 -15 17 -18
l101 -17v-28z" />
    <glyph glyph-name="Thorn" unicode="&#xde;" horiz-adv-x="618" 
d="M318 191q193 0 193 161q0 81 -48.5 116.5t-154.5 35.5q-50 0 -78 -3v-307q44 -3 88 -3zM344 28v-28h-299v28l99 17q17 3 17 18v553q0 15 -17 18l-99 17v28h299v-28l-98 -16q-16 -3 -16 -18v-78q14 0 39.5 0.5t36.5 0.5q283 0 283 -188q0 -96 -70.5 -146.5t-196.5 -50.5
q-44 0 -92 2v-95q0 -15 16 -18z" />
    <glyph glyph-name="germandbls" unicode="&#xdf;" horiz-adv-x="586" 
d="M393 -13q-54 0 -86 20.5t-32 54.5q0 23 13 37t34 14q20 0 32 -11.5t12 -30.5q0 -17 -9 -29t-20 -11q18 -13 54 -13q47 0 76 26.5t29 82.5q0 34 -20 65t-49 55t-57.5 46t-48.5 48.5t-20 53.5q0 32 21 59.5t46 46t46 52.5t21 78q0 54 -30 83t-84 29q-59 0 -92 -40t-33 -118
q0 -18 0.5 -54t0.5 -53v-412l2 -66h-157v27l77 15q15 3 15 19v375l-96 9v29l96 8v92q0 97 52.5 149.5t134.5 52.5q73 0 121 -39.5t48 -102.5q0 -41 -20.5 -75t-45.5 -53t-45.5 -42.5t-20.5 -45.5q0 -21 20.5 -44t49.5 -46.5t58.5 -49t50 -60.5t20.5 -73q0 -74 -48.5 -116
t-115.5 -42z" />
    <glyph glyph-name="agrave" unicode="&#xe0;" horiz-adv-x="500" 
d="M262 580l-138 162v13h76l89 -175h-27zM196 23q60 0 99.5 39t39.5 93v96q-32 -6 -51.5 -10t-49 -12t-47.5 -18.5t-36.5 -25.5t-27.5 -36.5t-9 -48.5q0 -36 21.5 -56.5t60.5 -20.5zM344 72q-24 -39 -67.5 -62.5t-99.5 -23.5q-60 0 -95.5 29t-35.5 78q0 151 290 190v73
q0 104 -105 104q-39 0 -67.5 -14t-42.5 -36l4 1q17 0 27.5 -11t10.5 -29q0 -20 -12.5 -32t-33.5 -12q-22 0 -35.5 14t-13.5 39q0 44 48.5 78.5t117.5 34.5q80 0 122 -38t42 -107q0 -12 -0.5 -126.5t-0.5 -127.5q0 -38 9 -52.5t27 -14.5t28.5 15.5t17.5 53.5l28 -3
q-7 -52 -27.5 -76.5t-59.5 -24.5q-66 0 -76 80z" />
    <glyph glyph-name="aacute" unicode="&#xe1;" horiz-adv-x="500" 
d="M169 580l88 175h77v-13l-139 -162h-26zM196 23q60 0 99.5 39t39.5 93v96q-32 -6 -51.5 -10t-49 -12t-47.5 -18.5t-36.5 -25.5t-27.5 -36.5t-9 -48.5q0 -36 21.5 -56.5t60.5 -20.5zM344 72q-24 -39 -67.5 -62.5t-99.5 -23.5q-60 0 -95.5 29t-35.5 78q0 151 290 190v73
q0 104 -105 104q-39 0 -67.5 -14t-42.5 -36l4 1q17 0 27.5 -11t10.5 -29q0 -20 -12.5 -32t-33.5 -12q-22 0 -35.5 14t-13.5 39q0 44 48.5 78.5t117.5 34.5q80 0 122 -38t42 -107q0 -12 -0.5 -126.5t-0.5 -127.5q0 -38 9 -52.5t27 -14.5t28.5 15.5t17.5 53.5l28 -3
q-7 -52 -27.5 -76.5t-59.5 -24.5q-66 0 -76 80z" />
    <glyph glyph-name="acircumflex" unicode="&#xe2;" horiz-adv-x="500" 
d="M377 580l-137 127l-128 -127h-28l140 175h58l129 -175h-34zM196 23q60 0 99.5 39t39.5 93v96q-32 -6 -51.5 -10t-49 -12t-47.5 -18.5t-36.5 -25.5t-27.5 -36.5t-9 -48.5q0 -36 21.5 -56.5t60.5 -20.5zM507 93q-7 -52 -27.5 -76.5t-59.5 -24.5q-66 0 -76 80
q-24 -39 -67.5 -62.5t-99.5 -23.5q-60 0 -95.5 29t-35.5 78q0 151 290 190v73q0 104 -105 104q-39 0 -67.5 -14t-42.5 -36l4 1q17 0 27.5 -11t10.5 -29q0 -20 -12.5 -32t-33.5 -12q-22 0 -35.5 14t-13.5 39q0 44 48.5 78.5t117.5 34.5q80 0 122 -38t42 -107
q0 -12 -0.5 -126.5t-0.5 -127.5q0 -38 9 -52.5t27 -14.5t28.5 15.5t17.5 53.5z" />
    <glyph glyph-name="atilde" unicode="&#xe3;" horiz-adv-x="500" 
d="M125 598q-21 33 -21 64t18.5 52t52.5 21q33 0 79 -37t70 -37q23 0 32.5 15.5t11.5 51.5l26 -1q0 -115 -85 -115q-31 0 -77.5 36.5t-69.5 36.5q-28 0 -28 -32q0 -22 12 -43zM196 23q60 0 99.5 39t39.5 93v96q-32 -6 -51.5 -10t-49 -12t-47.5 -18.5t-36.5 -25.5
t-27.5 -36.5t-9 -48.5q0 -36 21.5 -56.5t60.5 -20.5zM344 72q-24 -39 -67.5 -62.5t-99.5 -23.5q-60 0 -95.5 29t-35.5 78q0 151 290 190v73q0 104 -105 104q-39 0 -67.5 -14t-42.5 -36l4 1q17 0 27.5 -11t10.5 -29q0 -20 -12.5 -32t-33.5 -12q-22 0 -35.5 14t-13.5 39
q0 44 48.5 78.5t117.5 34.5q80 0 122 -38t42 -107q0 -12 -0.5 -126.5t-0.5 -127.5q0 -38 9 -52.5t27 -14.5t28.5 15.5t17.5 53.5l28 -3q-7 -52 -27.5 -76.5t-59.5 -24.5q-66 0 -76 80z" />
    <glyph glyph-name="adieresis" unicode="&#xe4;" horiz-adv-x="500" 
d="M343 614q-19 0 -32 13.5t-13 32.5t13 32.5t32 13.5t32.5 -13.5t13.5 -32.5t-13.5 -32.5t-32.5 -13.5zM159 614q-19 0 -32.5 13.5t-13.5 32.5t13.5 32.5t32.5 13.5t32.5 -13.5t13.5 -32.5t-13.5 -32.5t-32.5 -13.5zM196 23q60 0 99.5 39t39.5 93v96q-32 -6 -51.5 -10
t-49 -12t-47.5 -18.5t-36.5 -25.5t-27.5 -36.5t-9 -48.5q0 -36 21.5 -56.5t60.5 -20.5zM344 72q-24 -39 -67.5 -62.5t-99.5 -23.5q-60 0 -95.5 29t-35.5 78q0 151 290 190v73q0 104 -105 104q-39 0 -67.5 -14t-42.5 -36l4 1q17 0 27.5 -11t10.5 -29q0 -20 -12.5 -32
t-33.5 -12q-22 0 -35.5 14t-13.5 39q0 44 48.5 78.5t117.5 34.5q80 0 122 -38t42 -107q0 -12 -0.5 -126.5t-0.5 -127.5q0 -38 9 -52.5t27 -14.5t28.5 15.5t17.5 53.5l28 -3q-7 -52 -27.5 -76.5t-59.5 -24.5q-66 0 -76 80z" />
    <glyph glyph-name="aring" unicode="&#xe5;" horiz-adv-x="500" 
d="M241 559q-46 0 -76.5 28.5t-30.5 72.5t31 72.5t76 28.5t75.5 -28.5t30.5 -72.5q0 -45 -30 -73t-76 -28zM240 580q35 0 54 22.5t19 57.5t-19 57t-54 22q-34 0 -53 -22t-19 -57t19 -57.5t53 -22.5zM196 23q60 0 99.5 39t39.5 93v96q-32 -6 -51.5 -10t-49 -12t-47.5 -18.5
t-36.5 -25.5t-27.5 -36.5t-9 -48.5q0 -36 21.5 -56.5t60.5 -20.5zM507 93q-7 -52 -27.5 -76.5t-59.5 -24.5q-66 0 -76 80q-24 -39 -67.5 -62.5t-99.5 -23.5q-60 0 -95.5 29t-35.5 78q0 151 290 190v73q0 104 -105 104q-39 0 -67.5 -14t-42.5 -36l4 1q17 0 27.5 -11t10.5 -29
q0 -20 -12.5 -32t-33.5 -12q-22 0 -35.5 14t-13.5 39q0 44 48.5 78.5t117.5 34.5q80 0 122 -38t42 -107q0 -12 -0.5 -126.5t-0.5 -127.5q0 -38 9 -52.5t27 -14.5t28.5 15.5t17.5 53.5z" />
    <glyph glyph-name="ae" unicode="&#xe6;" horiz-adv-x="787" 
d="M738 82q-71 -96 -183 -96q-56 0 -104.5 27t-77.5 77q-24 -45 -76.5 -74.5t-114.5 -29.5t-99 30.5t-37 81.5q0 40 20 71.5t49 51t70.5 33t76.5 19.5t74 9v74q0 104 -105 104q-39 0 -68 -14.5t-42 -35.5l4 1q17 0 27.5 -11t10.5 -29q0 -20 -12.5 -32t-33.5 -12
q-22 0 -35.5 14t-13.5 39q0 44 48.5 78.5t117.5 34.5q123 0 151 -92q30 45 76.5 68.5t96.5 23.5q84 0 131 -47t47 -127q0 -33 -5 -61l-324 -3v-15q0 -103 44.5 -158.5t115.5 -55.5q89 0 146 76zM665 298l2 14q1 10 1 28q0 54 -27.5 87t-83.5 33q-55 0 -97 -43t-51 -132z
M337 258v2v-1v-1zM197 23q56 0 101.5 32t54.5 78q-17 48 -17 107v12q-37 -4 -62.5 -8.5t-58 -15t-52.5 -25t-34.5 -39.5t-14.5 -58q0 -37 22 -60t61 -23z" />
    <glyph glyph-name="ccedilla" unicode="&#xe7;" horiz-adv-x="480" 
d="M215 -243q-50 0 -88 24l15 23q34 -17 66 -17q34 0 55 16t21 47q0 27 -14.5 41t-38.5 14q-18 0 -33 -6l-19 14l30 78q-76 17 -124.5 81.5t-48.5 166.5q0 119 69 186.5t166 67.5q68 0 114.5 -29.5t46.5 -75.5q0 -25 -14.5 -40t-36.5 -15q-20 0 -34 12.5t-14 32.5
q0 19 11 31t27 12q-27 39 -98 39q-75 0 -120 -55t-45 -161q0 -105 44.5 -161t116.5 -56q88 0 149 77l25 -19q-71 -99 -187 -99q-16 0 -23 1l-18 -60q18 5 35 5q36 0 63 -21t27 -59q0 -45 -37.5 -70t-87.5 -25z" />
    <glyph glyph-name="egrave" unicode="&#xe8;" horiz-adv-x="489" 
d="M293 580l-138 162v13h76l89 -175h-27zM366 298l2 14q1 10 1 28q0 55 -27 87.5t-84 32.5q-54 0 -95.5 -42t-51.5 -130zM439 82q-71 -96 -183 -96q-92 0 -156 67.5t-64 186.5q0 121 68 187t156 66q84 0 131 -47t47 -127q0 -27 -6 -61h-324v-18q0 -103 44.5 -158t115.5 -55
q89 0 147 75z" />
    <glyph glyph-name="eacute" unicode="&#xe9;" horiz-adv-x="489" 
d="M192 580l88 175h77v-13l-139 -162h-26zM256 -14q-92 0 -156 67.5t-64 186.5q0 121 68 187t156 66q84 0 131 -47t47 -127q0 -27 -6 -61h-324v-18q0 -103 44.5 -158t115.5 -55q89 0 147 75l24 -20q-71 -96 -183 -96zM111 288l255 10l2 14q1 10 1 28q0 55 -27 87.5t-84 32.5
q-54 0 -95.5 -42t-51.5 -130z" />
    <glyph glyph-name="ecircumflex" unicode="&#xea;" horiz-adv-x="489" 
d="M389 580l-137 127l-128 -127h-28l140 175h58l129 -175h-34zM366 298l2 14q1 10 1 28q0 55 -27 87.5t-84 32.5q-54 0 -95.5 -42t-51.5 -130zM439 82q-71 -96 -183 -96q-92 0 -156 67.5t-64 186.5q0 121 68 187t156 66q84 0 131 -47t47 -127q0 -27 -6 -61h-324v-18
q0 -103 44.5 -158t115.5 -55q89 0 147 75z" />
    <glyph glyph-name="edieresis" unicode="&#xeb;" horiz-adv-x="489" 
d="M357 614q-19 0 -32 13.5t-13 32.5t13 32.5t32 13.5t32.5 -13.5t13.5 -32.5t-13.5 -32.5t-32.5 -13.5zM173 614q-19 0 -32.5 13.5t-13.5 32.5t13.5 32.5t32.5 13.5t32.5 -13.5t13.5 -32.5t-13.5 -32.5t-32.5 -13.5zM366 298l2 14q1 10 1 28q0 55 -27 87.5t-84 32.5
q-54 0 -95.5 -42t-51.5 -130zM439 82q-71 -96 -183 -96q-92 0 -156 67.5t-64 186.5q0 121 68 187t156 66q84 0 131 -47t47 -127q0 -27 -6 -61h-324v-18q0 -103 44.5 -158t115.5 -55q89 0 147 75z" />
    <glyph glyph-name="igrave" unicode="&#xec;" horiz-adv-x="320" 
d="M201 580l-138 162v13h76l89 -175h-27zM44 0v27l78 15q15 3 15 19v354q0 16 -15 17l-83 6v23l143 31l26 -5l-8 -95v-331q0 -16 16 -19l76 -15v-27h-248z" />
    <glyph glyph-name="iacute" unicode="&#xed;" horiz-adv-x="320" 
d="M88 580l88 175h77v-13l-139 -162h-26zM292 0h-248v27l78 15q15 3 15 19v354q0 16 -15 17l-83 6v23l143 31l26 -5l-8 -95v-331q0 -16 16 -19l76 -15v-27z" />
    <glyph glyph-name="icircumflex" unicode="&#xee;" horiz-adv-x="320" 
d="M155 707l-128 -127h-28l140 175h58l129 -175h-34zM292 0h-248v27l78 15q15 3 15 19v354q0 16 -15 17l-83 6v23l143 31l26 -5l-8 -95v-331q0 -16 16 -19l76 -15v-27z" />
    <glyph glyph-name="idieresis" unicode="&#xef;" horiz-adv-x="320" 
d="M257 614q-19 0 -32 13.5t-13 32.5t13 32.5t32 13.5t32.5 -13.5t13.5 -32.5t-13.5 -32.5t-32.5 -13.5zM73 614q-19 0 -32.5 13.5t-13.5 32.5t13.5 32.5t32.5 13.5t32.5 -13.5t13.5 -32.5t-13.5 -32.5t-32.5 -13.5zM292 0h-248v27l78 15q15 3 15 19v354q0 16 -15 17l-83 6
v23l143 31l26 -5l-8 -95v-331q0 -16 16 -19l76 -15v-27z" />
    <glyph glyph-name="eth" unicode="&#xf0;" horiz-adv-x="532" 
d="M262 -14q-97 0 -156 72.5t-59 184.5q0 108 59.5 179t149.5 71q111 0 156 -114q-31 141 -141 251l-158 -67l-15 33l145 61q-58 50 -130 93l14 24q89 -42 159 -99l134 57l15 -32l-119 -51q166 -153 166 -376q0 -140 -62.5 -213.5t-157.5 -73.5zM261 19q73 0 111 61.5
t38 160.5q0 93 -38 156t-113 63q-69 0 -104.5 -60.5t-35.5 -159.5q0 -98 35.5 -159.5t106.5 -61.5z" />
    <glyph glyph-name="ntilde" unicode="&#xf1;" horiz-adv-x="625" 
d="M202 598q-21 33 -21 64t18.5 52t52.5 21q32 0 79 -37t70 -37t32.5 15.5t11.5 51.5l26 -1q0 -115 -85 -115q-31 0 -77.5 36.5t-69.5 36.5q-28 0 -28 -32q0 -22 12 -43zM290 27v-27h-246v27l77 15q15 3 15 19v354q0 16 -15 17l-82 5v24l132 30l25 -6l-8 -159q21 75 68 121
t118 46q138 0 138 -149v-283q0 -16 15 -19l75 -15v-27h-246v27l77 15q15 3 15 19v286q0 108 -91 108q-71 0 -114.5 -74t-43.5 -170v-150q0 -16 15 -19z" />
    <glyph glyph-name="ograve" unicode="&#xf2;" horiz-adv-x="519" 
d="M301 580l-138 162v13h76l89 -175h-27zM259 -14q-100 0 -161.5 71t-61.5 183q0 113 61.5 183t161.5 70t162 -70t62 -183q0 -112 -62 -183t-162 -71zM259 19q75 0 113 59.5t38 161.5t-38 161t-113 59t-113 -59t-38 -161t38 -161.5t113 -59.5z" />
    <glyph glyph-name="oacute" unicode="&#xf3;" horiz-adv-x="519" 
d="M192 580l88 175h77v-13l-139 -162h-26zM259 -14q-100 0 -161.5 71t-61.5 183q0 113 61.5 183t161.5 70t162 -70t62 -183q0 -112 -62 -183t-162 -71zM259 19q75 0 113 59.5t38 161.5t-38 161t-113 59t-113 -59t-38 -161t38 -161.5t113 -59.5z" />
    <glyph glyph-name="ocircumflex" unicode="&#xf4;" horiz-adv-x="519" 
d="M253 707l-128 -127h-28l140 175h58l129 -175h-34zM259 -14q-100 0 -161.5 71t-61.5 183q0 113 61.5 183t161.5 70t162 -70t62 -183q0 -112 -62 -183t-162 -71zM259 19q75 0 113 59.5t38 161.5t-38 161t-113 59t-113 -59t-38 -161t38 -161.5t113 -59.5z" />
    <glyph glyph-name="otilde" unicode="&#xf5;" horiz-adv-x="519" 
d="M140 598q-21 33 -21 64t18.5 52t52.5 21q32 0 79 -37t70 -37t32.5 15.5t11.5 51.5l26 -1q0 -115 -85 -115q-31 0 -77.5 36.5t-69.5 36.5q-28 0 -28 -32q0 -22 12 -43zM259 -14q-100 0 -161.5 71t-61.5 183q0 113 61.5 183t161.5 70t162 -70t62 -183q0 -112 -62 -183
t-162 -71zM259 19q75 0 113 59.5t38 161.5t-38 161t-113 59t-113 -59t-38 -161t38 -161.5t113 -59.5z" />
    <glyph glyph-name="odieresis" unicode="&#xf6;" horiz-adv-x="519" 
d="M353 614q-19 0 -32 13.5t-13 32.5t13 32.5t32 13.5t32.5 -13.5t13.5 -32.5t-13.5 -32.5t-32.5 -13.5zM169 614q-19 0 -32.5 13.5t-13.5 32.5t13.5 32.5t32.5 13.5t32.5 -13.5t13.5 -32.5t-13.5 -32.5t-32.5 -13.5zM259 -14q-100 0 -161.5 71t-61.5 183q0 113 61.5 183
t161.5 70t162 -70t62 -183q0 -112 -62 -183t-162 -71zM259 19q75 0 113 59.5t38 161.5t-38 161t-113 59t-113 -59t-38 -161t38 -161.5t113 -59.5z" />
    <glyph glyph-name="divide" unicode="&#xf7;" horiz-adv-x="550" 
d="M315 406q0 -19 -11.5 -29.5t-28.5 -10.5q-16 0 -28 11t-12 29t12 29t28 11q17 0 28.5 -10.5t11.5 -29.5zM56 229v42h438v-42h-438zM315 94q0 -19 -11.5 -29.5t-28.5 -10.5q-16 0 -28 11t-12 29t12 29t28 11q17 0 28.5 -10.5t11.5 -29.5z" />
    <glyph glyph-name="oslash" unicode="&#xf8;" horiz-adv-x="519" 
d="M483 240q0 -112 -62 -183t-162 -71q-85 0 -143 52l-42 -48l-29 23l45 53q-54 70 -54 174q0 113 61.5 183t161.5 70q84 0 143 -51l42 48l29 -24l-45 -51q55 -69 55 -175zM259 460q-75 0 -113 -59t-38 -161q0 -79 22 -130l240 294q-39 56 -111 56zM259 19q75 0 113 59.5
t38 161.5q0 79 -22 130l-240 -294q38 -57 111 -57z" />
    <glyph glyph-name="ugrave" unicode="&#xf9;" horiz-adv-x="570" 
d="M276 580l-138 162v13h76l89 -175h-27zM408 9l-1 95q-20 -55 -62.5 -86.5t-103.5 -31.5q-66 0 -105 37.5t-39 113.5v282q0 15 -15 19l-78 15v26h159l-3 -83v-261q0 -110 99 -110q62 0 100.5 49.5t38.5 133.5v211q0 15 -15 19l-77 15v26h159l-4 -85v-333q0 -16 16 -19
l75 -15v-27h-135z" />
    <glyph glyph-name="uacute" unicode="&#xfa;" horiz-adv-x="570" 
d="M207 580l88 175h77v-13l-139 -162h-26zM408 9l-1 95q-20 -55 -62.5 -86.5t-103.5 -31.5q-66 0 -105 37.5t-39 113.5v282q0 15 -15 19l-78 15v26h159l-3 -83v-261q0 -110 99 -110q62 0 100.5 49.5t38.5 133.5v211q0 15 -15 19l-77 15v26h159l-4 -85v-333q0 -16 16 -19
l75 -15v-27h-135z" />
    <glyph glyph-name="ucircumflex" unicode="&#xfb;" horiz-adv-x="570" 
d="M399 580l-137 127l-128 -127h-28l140 175h58l129 -175h-34zM408 9l-1 95q-20 -55 -62.5 -86.5t-103.5 -31.5q-66 0 -105 37.5t-39 113.5v282q0 15 -15 19l-78 15v26h159l-3 -83v-261q0 -110 99 -110q62 0 100.5 49.5t38.5 133.5v211q0 15 -15 19l-77 15v26h159l-4 -85
v-333q0 -16 16 -19l75 -15v-27h-135z" />
    <glyph glyph-name="udieresis" unicode="&#xfc;" horiz-adv-x="570" 
d="M360 614q-19 0 -32 13.5t-13 32.5t13 32.5t32 13.5t32.5 -13.5t13.5 -32.5t-13.5 -32.5t-32.5 -13.5zM176 614q-19 0 -32.5 13.5t-13.5 32.5t13.5 32.5t32.5 13.5t32.5 -13.5t13.5 -32.5t-13.5 -32.5t-32.5 -13.5zM408 9l-1 95q-20 -55 -62.5 -86.5t-103.5 -31.5
q-66 0 -105 37.5t-39 113.5v282q0 15 -15 19l-78 15v26h159l-3 -83v-261q0 -110 99 -110q62 0 100.5 49.5t38.5 133.5v211q0 15 -15 19l-77 15v26h159l-4 -85v-333q0 -16 16 -19l75 -15v-27h-135z" />
    <glyph glyph-name="yacute" unicode="&#xfd;" horiz-adv-x="509" 
d="M226 580l88 175h77v-13l-139 -162h-26zM80 -242q-34 0 -54 18.5t-20 46.5q0 24 15 39.5t38 15.5q20 0 33.5 -13t13.5 -32q0 -18 -10 -30t-23 -11l16 -3q33 0 65.5 41.5t83.5 168.5l6 16l-169 409q-6 15 -21 18l-62 12v25h231v-25l-66 -12q-19 -3 -11 -23l93 -235l33 -95
h4l125 330q7 18 -11 22l-57 12v26h183v-25l-54 -14q-15 -3 -22 -18l-154 -394q-45 -116 -80.5 -176t-61.5 -77t-64 -17z" />
    <glyph glyph-name="thorn" unicode="&#xfe;" horiz-adv-x="561" 
d="M306 19q71 0 108 58.5t37 165.5q0 214 -137 214q-63 0 -107 -57.5t-44 -159.5v-131q41 -90 143 -90zM267 -203v-27h-258v27l77 15q16 3 16 19v863q0 16 -17 17l-83 7v24l145 27l24 -5l-8 -94l-1 -178l-11 -154q17 75 62.5 115t111.5 40q90 0 144.5 -68.5t54.5 -181.5
q0 -119 -62 -188t-154 -69q-88 0 -144 48v-203q0 -16 15 -19z" />
    <glyph glyph-name="ydieresis" unicode="&#xff;" horiz-adv-x="509" 
d="M366 614q-19 0 -32 13.5t-13 32.5t13 32.5t32 13.5t32.5 -13.5t13.5 -32.5t-13.5 -32.5t-32.5 -13.5zM182 614q-19 0 -32.5 13.5t-13.5 32.5t13.5 32.5t32.5 13.5t32.5 -13.5t13.5 -32.5t-13.5 -32.5t-32.5 -13.5zM80 -242q-34 0 -54 18.5t-20 46.5q0 24 15 39.5t38 15.5
q20 0 33.5 -13t13.5 -32q0 -18 -10 -30t-23 -11l16 -3q33 0 65.5 41.5t83.5 168.5l6 16l-169 409q-6 15 -21 18l-62 12v25h231v-25l-66 -12q-19 -3 -11 -23l93 -235l33 -95h4l125 330q7 18 -11 22l-57 12v26h183v-25l-54 -14q-15 -3 -22 -18l-154 -394q-45 -116 -80.5 -176
t-61.5 -77t-64 -17z" />
    <glyph glyph-name="Amacron" unicode="&#x100;" horiz-adv-x="700" 
d="M205 759v33q46 -1 143 -1q98 0 144 1v-33q-92 2 -144 2q-51 0 -143 -2zM456 253l-78 210l-42 125h-4l-125 -335h249zM244 29v-29h-250v29l76 17q19 5 28 25l200 530l27 83h40l238 -620q6 -16 19 -18l83 -17v-29h-287v29l95 16q19 2 12 22l-55 149h-277l-52 -140
q-8 -25 15 -30z" />
    <glyph glyph-name="amacron" unicode="&#x101;" horiz-adv-x="500" 
d="M107 647v33q92 -2 140 -2t140 2v-33q-92 2 -140 2t-140 -2zM196 23q60 0 99.5 39t39.5 93v96q-32 -6 -51.5 -10t-49 -12t-47.5 -18.5t-36.5 -25.5t-27.5 -36.5t-9 -48.5q0 -36 21.5 -56.5t60.5 -20.5zM507 93q-7 -52 -27.5 -76.5t-59.5 -24.5q-66 0 -76 80
q-24 -39 -67.5 -62.5t-99.5 -23.5q-60 0 -95.5 29t-35.5 78q0 151 290 190v73q0 104 -105 104q-39 0 -67.5 -14t-42.5 -36l4 1q17 0 27.5 -11t10.5 -29q0 -20 -12.5 -32t-33.5 -12q-22 0 -35.5 14t-13.5 39q0 44 48.5 78.5t117.5 34.5q80 0 122 -38t42 -107
q0 -12 -0.5 -126.5t-0.5 -127.5q0 -38 9 -52.5t27 -14.5t28.5 15.5t17.5 53.5z" />
    <glyph glyph-name="Abreve" unicode="&#x102;" horiz-adv-x="700" 
d="M350 744q-58 0 -93.5 30.5t-43.5 84.5l24 2q16 -68 113 -68q95 0 113 68l23 -2q-7 -54 -43 -84.5t-93 -30.5zM456 253l-78 210l-42 125h-4l-125 -335h249zM244 29v-29h-250v29l76 17q19 5 28 25l200 530l27 83h40l238 -620q6 -16 19 -18l83 -17v-29h-287v29l95 16
q19 2 12 22l-55 149h-277l-52 -140q-8 -25 15 -30z" />
    <glyph glyph-name="abreve" unicode="&#x103;" horiz-adv-x="500" 
d="M248 603q-57 0 -93 35t-44 92l23 3q22 -82 114 -82q91 0 113 82l23 -3q-7 -57 -43 -92t-93 -35zM196 23q60 0 99.5 39t39.5 93v96q-32 -6 -51.5 -10t-49 -12t-47.5 -18.5t-36.5 -25.5t-27.5 -36.5t-9 -48.5q0 -36 21.5 -56.5t60.5 -20.5zM344 72q-24 -39 -67.5 -62.5
t-99.5 -23.5q-60 0 -95.5 29t-35.5 78q0 151 290 190v73q0 104 -105 104q-39 0 -67.5 -14t-42.5 -36l4 1q17 0 27.5 -11t10.5 -29q0 -20 -12.5 -32t-33.5 -12q-22 0 -35.5 14t-13.5 39q0 44 48.5 78.5t117.5 34.5q80 0 122 -38t42 -107q0 -12 -0.5 -126.5t-0.5 -127.5
q0 -38 9 -52.5t27 -14.5t28.5 15.5t17.5 53.5l28 -3q-7 -52 -27.5 -76.5t-59.5 -24.5q-66 0 -76 80z" />
    <glyph glyph-name="Aogonek" unicode="&#x104;" horiz-adv-x="700" 
d="M458 -239q-39 0 -66 23t-27 63q0 41 24.5 75t54 53.5t54 43t24.5 44.5q0 12 -6 27l-47 126h-276l-52 -140q-8 -25 15 -30l88 -17v-29h-250v29l76 17q19 5 28 25l200 530l27 83h40l238 -620q6 -16 19 -18l83 -17v-29h-124q-70 0 -118.5 -43t-48.5 -108q0 -26 15 -40.5
t40 -14.5q50 0 95 67l22 -13q-52 -87 -128 -87zM456 253l-78 210l-42 125h-4l-125 -335h249z" />
    <glyph glyph-name="aogonek" unicode="&#x105;" horiz-adv-x="500" 
d="M384 -239q-39 0 -65.5 23t-26.5 63q0 50 46 91q23 20 63 44.5t41 25.5q-14 -8 -31 -8q-59 0 -67 72q-24 -39 -67.5 -62.5t-99.5 -23.5q-60 0 -95.5 29t-35.5 78q0 151 290 190v73q0 104 -105 104q-39 0 -67.5 -14t-42.5 -36l4 1q17 0 27.5 -11t10.5 -29q0 -20 -12.5 -32
t-33.5 -12q-22 0 -35.5 14t-13.5 39q0 44 48.5 78.5t117.5 34.5q79 0 121.5 -38t42.5 -107q0 -12 -0.5 -126.5t-0.5 -127.5q0 -38 9 -52.5t27 -14.5t28.5 15.5t17.5 53.5l28 -3q-9 -62 -37 -83q-10 -9 -41 -31t-48 -39q-40 -40 -40 -91q0 -27 14.5 -41t39.5 -14q50 0 95 67
l22 -13q-50 -87 -128 -87zM196 23q60 0 99.5 39t39.5 93v96q-32 -6 -51.5 -10t-49 -12t-47.5 -18.5t-36.5 -25.5t-27.5 -36.5t-9 -48.5q0 -36 21.5 -56.5t60.5 -20.5z" />
    <glyph glyph-name="Cacute" unicode="&#x106;" horiz-adv-x="710" 
d="M301 744l102 125h92v-12l-163 -113h-31zM603 -10l-22 84q-74 -88 -210 -88q-137 0 -230 97t-93 256t93.5 256.5t230.5 97.5q136 0 212 -83l21 80h29l-5 -273h-33l-20 80q-21 80 -74 119.5t-129 39.5q-112 0 -179.5 -85t-67.5 -231t67.5 -231.5t179.5 -85.5q155 0 204 160
l19 65h33l3 -258h-29z" />
    <glyph glyph-name="cacute" unicode="&#x107;" horiz-adv-x="480" 
d="M204 580l88 175h77v-13l-139 -162h-26zM443 85q-71 -99 -187 -99q-92 0 -156 67.5t-64 185.5q0 119 69 186.5t166 67.5q68 0 114.5 -29.5t46.5 -75.5q0 -25 -14.5 -40t-36.5 -15q-20 0 -34 12.5t-14 32.5q0 19 11 31t27 12q-27 39 -98 39q-75 0 -120 -55t-45 -161
q0 -105 44.5 -161t116.5 -56q88 0 149 77z" />
    <glyph glyph-name="Ccircumflex" unicode="&#x108;" horiz-adv-x="710" 
d="M361 835l-131 -91h-29l129 125h90l119 -125h-33zM603 -10l-22 84q-74 -88 -210 -88q-137 0 -230 97t-93 256t93.5 256.5t230.5 97.5q136 0 212 -83l21 80h29l-5 -273h-33l-20 80q-21 80 -74 119.5t-129 39.5q-112 0 -179.5 -85t-67.5 -231t67.5 -231.5t179.5 -85.5
q155 0 204 160l19 65h33l3 -258h-29z" />
    <glyph glyph-name="ccircumflex" unicode="&#x109;" horiz-adv-x="480" 
d="M391 580l-137 127l-128 -127h-28l140 175h58l129 -175h-34zM443 85q-71 -99 -187 -99q-92 0 -156 67.5t-64 185.5q0 119 69 186.5t166 67.5q68 0 114.5 -29.5t46.5 -75.5q0 -25 -14.5 -40t-36.5 -15q-20 0 -34 12.5t-14 32.5q0 19 11 31t27 12q-27 39 -98 39
q-75 0 -120 -55t-45 -161q0 -105 44.5 -161t116.5 -56q88 0 149 77z" />
    <glyph glyph-name="Cdotaccent" unicode="&#x10a;" horiz-adv-x="710" 
d="M373 744q-19 0 -32 13.5t-13 32.5q0 20 13 33.5t32 13.5q20 0 33.5 -13.5t13.5 -33.5q0 -19 -13.5 -32.5t-33.5 -13.5zM603 -10l-22 84q-74 -88 -210 -88q-137 0 -230 97t-93 256t93.5 256.5t230.5 97.5q136 0 212 -83l21 80h29l-5 -273h-33l-20 80q-21 80 -74 119.5
t-129 39.5q-112 0 -179.5 -85t-67.5 -231t67.5 -231.5t179.5 -85.5q155 0 204 160l19 65h33l3 -258h-29z" />
    <glyph glyph-name="cdotaccent" unicode="&#x10b;" horiz-adv-x="480" 
d="M265 614q-19 0 -32.5 13.5t-13.5 32.5t13.5 32.5t32.5 13.5t32.5 -13.5t13.5 -32.5t-13.5 -32.5t-32.5 -13.5zM443 85q-71 -99 -187 -99q-92 0 -156 67.5t-64 185.5q0 119 69 186.5t166 67.5q68 0 114.5 -29.5t46.5 -75.5q0 -25 -14.5 -40t-36.5 -15q-20 0 -34 12.5
t-14 32.5q0 19 11 31t27 12q-27 39 -98 39q-75 0 -120 -55t-45 -161q0 -105 44.5 -161t116.5 -56q88 0 149 77z" />
    <glyph glyph-name="Ccaron" unicode="&#x10c;" horiz-adv-x="710" 
d="M416 744h-91l-119 125h34l144 -91l131 91h29zM603 -10l-22 84q-74 -88 -210 -88q-137 0 -230 97t-93 256t93.5 256.5t230.5 97.5q136 0 212 -83l21 80h29l-5 -273h-33l-20 80q-21 80 -74 119.5t-129 39.5q-112 0 -179.5 -85t-67.5 -231t67.5 -231.5t179.5 -85.5
q155 0 204 160l19 65h33l3 -258h-29z" />
    <glyph glyph-name="ccaron" unicode="&#x10d;" horiz-adv-x="480" 
d="M292 580h-57l-129 175h34l137 -126l128 126h28zM443 85q-71 -99 -187 -99q-92 0 -156 67.5t-64 185.5q0 119 69 186.5t166 67.5q68 0 114.5 -29.5t46.5 -75.5q0 -25 -14.5 -40t-36.5 -15q-20 0 -34 12.5t-14 32.5q0 19 11 31t27 12q-27 39 -98 39q-75 0 -120 -55
t-45 -161q0 -105 44.5 -161t116.5 -56q88 0 149 77z" />
    <glyph glyph-name="Dcaron" unicode="&#x10e;" horiz-adv-x="737" 
d="M437 744h-91l-119 125h34l144 -91l131 91h29zM40 0v28l100 17q16 2 16 18v553q0 16 -16 18l-100 17v28h298q162 0 256.5 -92t94.5 -247t-94.5 -247.5t-257.5 -92.5h-297zM271 37h72q129 0 198.5 77t69.5 226q0 148 -70 225t-199 77h-34q-41 0 -83 -2v-568q0 -22 9 -28.5
t37 -6.5z" />
    <glyph glyph-name="dcaron" unicode="&#x10f;" horiz-adv-x="574" 
d="M535 497l-13 22q66 32 65 89q-10 -10 -27 -10t-28 11t-11 29t13 30.5t32 12.5q26 0 40 -17.5t14 -46.5q0 -40 -24 -71.5t-61 -48.5zM254 22q62 0 101.5 55.5t39.5 156.5v130q-40 96 -138 96q-74 0 -111.5 -58t-37.5 -163q0 -102 36 -159.5t110 -57.5zM404 113
q-21 -63 -63 -95t-99 -32q-88 0 -147 68.5t-59 184.5t62 185t157 69q82 0 140 -49v251q0 15 -15 16l-87 7v25l147 26l26 -5l-8 -94v-609q0 -16 15 -19l77 -15v-27h-137l-8 9z" />
    <glyph glyph-name="Dcroat" unicode="&#x110;" horiz-adv-x="737" 
d="M156 360v256q0 16 -16 18l-100 17v28h298q162 0 256.5 -92t94.5 -247t-94.5 -247.5t-257.5 -92.5h-297v28l100 17q16 2 16 18v257h-110v40h110zM271 37h72q129 0 198.5 77t69.5 226q0 148 -70 225t-199 77h-34q-41 0 -83 -2v-280h172v-40h-172v-248q0 -22 9 -28.5
t37 -6.5z" />
    <glyph glyph-name="dcroat" unicode="&#x111;" horiz-adv-x="572" 
d="M458 620h89v-40h-89v-519q0 -16 15 -19l77 -15v-27h-137l-8 9l-1 104q-21 -63 -63 -95t-99 -32q-88 0 -147 68.5t-59 184.5t62 185t157 69q82 0 140 -49v136h-159v40h159v75q0 15 -15 16l-87 7v25l147 26l26 -5l-8 -94v-50zM254 22q62 0 101.5 55.5t39.5 156.5v130
q-40 96 -138 96q-74 0 -111.5 -58t-37.5 -163q0 -102 36 -159.5t110 -57.5z" />
    <glyph glyph-name="Emacron" unicode="&#x112;" horiz-adv-x="644" 
d="M196 759v33q46 -1 143 -1q98 0 144 1v-33q-92 2 -144 2q-51 0 -143 -2zM225 367h124q23 0 33.5 7t17.5 31l22 80h28v-273h-27l-23 81q-7 24 -17.5 31t-33.5 7h-124v-259q0 -22 9.5 -28.5t37.5 -6.5h153q56 0 76.5 12t32.5 57l29 97h34l-12 -203h-545v28l100 17
q16 2 16 18v553q0 16 -16 18l-100 17v28h515l9 -166h-34l-23 68q-12 41 -32.5 51t-81.5 10h-85q-41 0 -83 -2v-273z" />
    <glyph glyph-name="emacron" unicode="&#x113;" horiz-adv-x="489" 
d="M120 647v33q92 -2 140 -2t140 2v-33q-92 2 -140 2t-140 -2zM439 82q-71 -96 -183 -96q-92 0 -156 67.5t-64 186.5q0 121 68 187t156 66q84 0 131 -47t47 -127q0 -27 -6 -61h-324v-18q0 -103 44.5 -158t115.5 -55q89 0 147 75zM366 298l2 14q1 10 1 28q0 55 -27 87.5
t-84 32.5q-54 0 -95.5 -42t-51.5 -130z" />
    <glyph glyph-name="Ebreve" unicode="&#x114;" horiz-adv-x="644" 
d="M331 744q-58 0 -93.5 30.5t-43.5 84.5l24 2q16 -68 113 -68q95 0 113 68l23 -2q-7 -54 -43 -84.5t-93 -30.5zM225 367h124q23 0 33.5 7t17.5 31l22 80h28v-273h-27l-23 81q-7 24 -17.5 31t-33.5 7h-124v-259q0 -22 9.5 -28.5t37.5 -6.5h153q56 0 76.5 12t32.5 57l29 97
h34l-12 -203h-545v28l100 17q16 2 16 18v553q0 16 -16 18l-100 17v28h515l9 -166h-34l-23 68q-12 41 -32.5 51t-81.5 10h-85q-41 0 -83 -2v-273z" />
    <glyph glyph-name="ebreve" unicode="&#x115;" horiz-adv-x="489" 
d="M262 603q-57 0 -93 35t-44 92l23 3q22 -82 114 -82q91 0 113 82l23 -3q-7 -57 -43 -92t-93 -35zM439 82q-71 -96 -183 -96q-92 0 -156 67.5t-64 186.5q0 121 68 187t156 66q84 0 131 -47t47 -127q0 -27 -6 -61h-324v-18q0 -103 44.5 -158t115.5 -55q89 0 147 75zM366 298
l2 14q1 10 1 28q0 55 -27 87.5t-84 32.5q-54 0 -95.5 -42t-51.5 -130z" />
    <glyph glyph-name="Edotaccent" unicode="&#x116;" horiz-adv-x="644" 
d="M347 744q-19 0 -32 13.5t-13 32.5q0 20 13 33.5t32 13.5q20 0 33.5 -13.5t13.5 -33.5q0 -19 -13.5 -32.5t-33.5 -13.5zM225 367h124q23 0 33.5 7t17.5 31l22 80h28v-273h-27l-23 81q-7 24 -17.5 31t-33.5 7h-124v-259q0 -22 9.5 -28.5t37.5 -6.5h153q56 0 76.5 12
t32.5 57l29 97h34l-12 -203h-545v28l100 17q16 2 16 18v553q0 16 -16 18l-100 17v28h515l9 -166h-34l-23 68q-12 41 -32.5 51t-81.5 10h-85q-41 0 -83 -2v-273z" />
    <glyph glyph-name="edotaccent" unicode="&#x117;" horiz-adv-x="489" 
d="M255 614q-19 0 -32.5 13.5t-13.5 32.5t13.5 32.5t32.5 13.5t32.5 -13.5t13.5 -32.5t-13.5 -32.5t-32.5 -13.5zM366 298l2 14q1 10 1 28q0 55 -27 87.5t-84 32.5q-54 0 -95.5 -42t-51.5 -130zM439 82q-71 -96 -183 -96q-92 0 -156 67.5t-64 186.5q0 121 68 187t156 66
q84 0 131 -47t47 -127q0 -27 -6 -61h-324v-18q0 -103 44.5 -158t115.5 -55q89 0 147 75z" />
    <glyph glyph-name="Eogonek" unicode="&#x118;" horiz-adv-x="644" 
d="M225 367h124q23 0 33.5 7t17.5 31l22 80h28v-273h-27l-23 81q-7 24 -17.5 31t-33.5 7h-124v-259q0 -22 9.5 -28.5t37.5 -6.5h153q56 0 76.5 12t32.5 57l29 97h34l-12 -203q-67 0 -113.5 -44t-46.5 -107q0 -27 14.5 -41t39.5 -14q50 0 95 67l22 -13q-50 -87 -128 -87
q-39 0 -65.5 23t-26.5 63q0 57 45 102t109 60l-92 -9h-398v28l100 17q16 2 16 18v553q0 16 -16 18l-100 17v28h515l9 -166h-34l-23 68q-12 41 -32.5 51t-81.5 10h-85q-41 0 -83 -2v-273z" />
    <glyph glyph-name="eogonek" unicode="&#x119;" horiz-adv-x="489" 
d="M366 298l2 14q1 10 1 28q0 55 -27 87.5t-84 32.5q-54 0 -95.5 -42t-51.5 -130zM430 -152q-50 -87 -128 -87q-39 0 -65.5 23t-26.5 63q0 60 61 114q18 17 67 52q-41 -23 -87 -23q-91 0 -153 66.5t-62 183.5q0 121 68 187t156 66q84 0 131 -47t47 -127q0 -27 -6 -61h-324
v-18q0 -103 44.5 -158t115.5 -55q89 0 147 75l24 -20q-23 -30 -51 -54q-4 -3 -25.5 -20t-27 -22.5t-22.5 -21t-23 -25.5t-15.5 -25.5t-12.5 -31t-3 -33.5q0 -27 14.5 -41t39.5 -14q50 0 95 67z" />
    <glyph glyph-name="Ecaron" unicode="&#x11a;" horiz-adv-x="644" 
d="M382 744h-91l-119 125h34l144 -91l131 91h29zM225 367h124q23 0 33.5 7t17.5 31l22 80h28v-273h-27l-23 81q-7 24 -17.5 31t-33.5 7h-124v-259q0 -22 9.5 -28.5t37.5 -6.5h153q56 0 76.5 12t32.5 57l29 97h34l-12 -203h-545v28l100 17q16 2 16 18v553q0 16 -16 18
l-100 17v28h515l9 -166h-34l-23 68q-12 41 -32.5 51t-81.5 10h-85q-41 0 -83 -2v-273z" />
    <glyph glyph-name="ecaron" unicode="&#x11b;" horiz-adv-x="489" 
d="M291 580h-57l-129 175h34l137 -126l128 126h28zM439 82q-71 -96 -183 -96q-92 0 -156 67.5t-64 186.5q0 121 68 187t156 66q84 0 131 -47t47 -127q0 -27 -6 -61h-324v-18q0 -103 44.5 -158t115.5 -55q89 0 147 75zM366 298l2 14q1 10 1 28q0 55 -27 87.5t-84 32.5
q-54 0 -95.5 -42t-51.5 -130z" />
    <glyph glyph-name="Gcircumflex" unicode="&#x11c;" horiz-adv-x="746" 
d="M358 835l-131 -91h-29l129 125h90l119 -125h-33zM582 65q-73 -79 -213 -79q-137 0 -229 97t-92 256t92.5 256.5t230.5 97.5q134 0 210 -83l22 80h29l-5 -271h-32l-21 79q-21 79 -73.5 118.5t-127.5 39.5q-112 0 -179.5 -85.5t-67.5 -231.5q0 -147 67.5 -231.5
t176.5 -84.5q81 0 137.5 37.5t56.5 107.5v78q0 18 -19 21l-118 17v28h312v-29l-95 -16q-16 -4 -16 -17v-128l7 -134h-28z" />
    <glyph glyph-name="gcircumflex" unicode="&#x11d;" horiz-adv-x="504" 
d="M376 580l-137 127l-128 -127h-28l140 175h58l129 -175h-34zM220 191q52 0 79 37.5t27 98.5q0 62 -27 98t-79 36t-79 -36t-27 -98q0 -61 27 -98.5t79 -37.5zM241 -244q-102 0 -163 35t-61 101q0 39 22 65.5t57 25.5q37 0 28 -36q-61 -2 -61 -62q0 -44 47.5 -70t130.5 -26
q88 0 139 30t51 81q0 49 -41 69t-139 22q-181 3 -181 98q0 75 104 85v5h1q-58 10 -94 50.5t-36 98.5q0 71 50 118t124 47q78 0 122 -44q39 44 96 44q26 0 42 -13t16 -35q0 -20 -11.5 -32t-30.5 -12q-18 0 -29 10.5t-11 27.5q0 16 10 25q-40 -5 -67 -36q38 -45 38 -102
q0 -73 -49.5 -120t-126.5 -49q-54 -2 -79.5 -12.5t-25.5 -37.5q0 -28 34.5 -37t112.5 -11q111 -3 163.5 -37.5t52.5 -106.5q0 -76 -62.5 -117.5t-172.5 -41.5z" />
    <glyph glyph-name="Gbreve" unicode="&#x11e;" horiz-adv-x="746" 
d="M374 744q-58 0 -93.5 30.5t-43.5 84.5l24 2q16 -68 113 -68q95 0 113 68l23 -2q-7 -54 -43 -84.5t-93 -30.5zM607 -12l-25 77q-73 -79 -213 -79q-137 0 -229 97t-92 256t92.5 256.5t230.5 97.5q134 0 210 -83l22 80h29l-5 -271h-32l-21 79q-21 79 -73.5 118.5
t-127.5 39.5q-112 0 -179.5 -85.5t-67.5 -231.5q0 -147 67.5 -231.5t176.5 -84.5q81 0 137.5 37.5t56.5 107.5v78q0 18 -19 21l-118 17v28h312v-29l-95 -16q-16 -4 -16 -17v-128l7 -134h-28z" />
    <glyph glyph-name="gbreve" unicode="&#x11f;" horiz-adv-x="504" 
d="M239 603q-57 0 -93 35t-44 92l23 3q22 -82 114 -82q91 0 113 82l23 -3q-7 -57 -43 -92t-93 -35zM220 191q52 0 79 37.5t27 98.5q0 62 -27 98t-79 36t-79 -36t-27 -98q0 -61 27 -98.5t79 -37.5zM241 -244q-102 0 -163 35t-61 101q0 39 22 65.5t57 25.5q37 0 28 -36
q-61 -2 -61 -62q0 -44 47.5 -70t130.5 -26q88 0 139 30t51 81q0 49 -41 69t-139 22q-181 3 -181 98q0 75 104 85v5h1q-58 10 -94 50.5t-36 98.5q0 71 50 118t124 47q78 0 122 -44q39 44 96 44q26 0 42 -13t16 -35q0 -20 -11.5 -32t-30.5 -12q-18 0 -29 10.5t-11 27.5
q0 16 10 25q-40 -5 -67 -36q38 -45 38 -102q0 -73 -49.5 -120t-126.5 -49q-54 -2 -79.5 -12.5t-25.5 -37.5q0 -28 34.5 -37t112.5 -11q111 -3 163.5 -37.5t52.5 -106.5q0 -76 -62.5 -117.5t-172.5 -41.5z" />
    <glyph glyph-name="Gdotaccent" unicode="&#x120;" horiz-adv-x="746" 
d="M375 744q-19 0 -32 13.5t-13 32.5q0 20 13 33.5t32 13.5q20 0 33.5 -13.5t13.5 -33.5q0 -19 -13.5 -32.5t-33.5 -13.5zM582 65q-73 -79 -213 -79q-137 0 -229 97t-92 256t92.5 256.5t230.5 97.5q134 0 210 -83l22 80h29l-5 -271h-32l-21 79q-21 79 -73.5 118.5
t-127.5 39.5q-112 0 -179.5 -85.5t-67.5 -231.5q0 -147 67.5 -231.5t176.5 -84.5q81 0 137.5 37.5t56.5 107.5v78q0 18 -19 21l-118 17v28h312v-29l-95 -16q-16 -4 -16 -17v-128l7 -134h-28z" />
    <glyph glyph-name="gdotaccent" unicode="&#x121;" horiz-adv-x="504" 
d="M245 614q-19 0 -32.5 13.5t-13.5 32.5t13.5 32.5t32.5 13.5t32.5 -13.5t13.5 -32.5t-13.5 -32.5t-32.5 -13.5zM220 191q52 0 79 37.5t27 98.5q0 62 -27 98t-79 36t-79 -36t-27 -98q0 -61 27 -98.5t79 -37.5zM241 -244q-102 0 -163 35t-61 101q0 39 22 65.5t57 25.5
q37 0 28 -36q-61 -2 -61 -62q0 -44 47.5 -70t130.5 -26q88 0 139 30t51 81q0 49 -41 69t-139 22q-181 3 -181 98q0 75 104 85v5h1q-58 10 -94 50.5t-36 98.5q0 71 50 118t124 47q78 0 122 -44q39 44 96 44q26 0 42 -13t16 -35q0 -20 -11.5 -32t-30.5 -12q-18 0 -29 10.5
t-11 27.5q0 16 10 25q-40 -5 -67 -36q38 -45 38 -102q0 -73 -49.5 -120t-126.5 -49q-54 -2 -79.5 -12.5t-25.5 -37.5q0 -28 34.5 -37t112.5 -11q111 -3 163.5 -37.5t52.5 -106.5q0 -76 -62.5 -117.5t-172.5 -41.5z" />
    <glyph glyph-name="Gcommaaccent" unicode="&#x122;" horiz-adv-x="746" 
d="M607 -12l-25 77q-73 -79 -213 -79q-137 0 -229 97t-92 256t92.5 256.5t230.5 97.5q134 0 210 -83l22 80h29l-5 -271h-32l-21 79q-21 79 -73.5 118.5t-127.5 39.5q-112 0 -179.5 -85.5t-67.5 -231.5q0 -147 67.5 -231.5t176.5 -84.5q81 0 137.5 37.5t56.5 107.5v78
q0 18 -19 21l-118 17v28h312v-29l-95 -16q-16 -4 -16 -17v-128l7 -134h-28zM332 -245l-13 22q66 32 65 89q-10 -10 -27 -10t-28 11t-11 29t13 30.5t32 12.5q26 0 40 -17.5t14 -46.5q0 -40 -24 -71.5t-61 -48.5z" />
    <glyph glyph-name="gcommaaccent" unicode="&#x123;" horiz-adv-x="504" 
d="M273 759l13 -22q-66 -32 -65 -89q10 10 27 10t28 -11t11 -29t-13 -30.5t-32 -12.5q-26 0 -40 17.5t-14 46.5q0 40 24 71.5t61 48.5zM220 191q52 0 79 37.5t27 98.5q0 62 -27 98t-79 36t-79 -36t-27 -98q0 -61 27 -98.5t79 -37.5zM241 -244q-102 0 -163 35t-61 101
q0 39 22 65.5t57 25.5q37 0 28 -36q-61 -2 -61 -62q0 -44 47.5 -70t130.5 -26q88 0 139 30t51 81q0 49 -41 69t-139 22q-181 3 -181 98q0 75 104 85v5h1q-58 10 -94 50.5t-36 98.5q0 71 50 118t124 47q78 0 122 -44q39 44 96 44q26 0 42 -13t16 -35q0 -20 -11.5 -32
t-30.5 -12q-18 0 -29 10.5t-11 27.5q0 16 10 25q-40 -5 -67 -36q38 -45 38 -102q0 -73 -49.5 -120t-126.5 -49q-54 -2 -79.5 -12.5t-25.5 -37.5q0 -28 34.5 -37t112.5 -11q111 -3 163.5 -37.5t52.5 -106.5q0 -76 -62.5 -117.5t-172.5 -41.5z" />
    <glyph glyph-name="Hcircumflex" unicode="&#x124;" horiz-adv-x="813" 
d="M397 835l-131 -91h-29l129 125h90l119 -125h-33zM340 28v-28h-300v28l100 17q16 2 16 18v553q0 16 -16 18l-100 17v28h300v-28l-99 -17q-16 -2 -16 -18v-252h362v252q0 16 -17 18l-98 17v28h300v-28l-99 -17q-17 -3 -17 -18v-553q0 -15 17 -18l99 -17v-28h-300v28l98 17
q17 2 17 18v264h-362v-264q0 -16 16 -18z" />
    <glyph glyph-name="hcircumflex" unicode="&#x125;" horiz-adv-x="615" 
d="M302 885l-131 -91h-29l129 125h90l119 -125h-33zM275 27v-27h-246v27l77 15q15 3 15 19v635q0 15 -15 16l-77 7v26l138 24l25 -5l-8 -94v-149l-9 -189q22 73 69.5 117t116.5 44q68 0 103.5 -38t35.5 -111v-283q0 -16 15 -19l76 -15v-27h-245v27l76 15q15 3 15 19v286
q0 108 -92 108q-74 0 -117.5 -73.5t-43.5 -174.5v-146q0 -16 16 -19z" />
    <glyph glyph-name="Hbar" unicode="&#x126;" horiz-adv-x="813" 
d="M587 364v119h-362v-119h362zM340 28v-28h-300v28l100 17q16 2 16 18v419h-95v41h95v93q0 16 -16 18l-100 17v28h300v-28l-99 -17q-16 -2 -16 -18v-94h362v94q0 16 -17 18l-98 17v28h300v-28l-99 -17q-17 -3 -17 -18v-93h95v-41h-95v-419q0 -15 17 -18l99 -17v-28h-300v28
l98 17q17 2 17 18v264h-362v-264q0 -16 16 -18z" />
    <glyph glyph-name="hbar" unicode="&#x127;" horiz-adv-x="615" 
d="M121 621v75q0 15 -15 16l-77 7v26l138 24l25 -5l-8 -94v-49h159v-40h-159v-60l-9 -189q22 73 69.5 117t116.5 44q68 0 103.5 -38t35.5 -111v-283q0 -16 15 -19l76 -15v-27h-245v27l76 15q15 3 15 19v286q0 108 -92 108q-74 0 -117.5 -73.5t-43.5 -174.5v-146
q0 -16 16 -19l75 -15v-27h-246v27l77 15q15 3 15 19v520h-89v40h89z" />
    <glyph glyph-name="Itilde" unicode="&#x128;" horiz-adv-x="390" 
d="M257 753q-31 0 -77 34.5t-70 34.5q-28 0 -28 -30q0 -20 10 -39l-20 -10q-19 27 -19 60q0 28 18 47.5t52 19.5q33 0 80 -33.5t70 -33.5q22 0 31.5 14.5t11.5 45.5l26 -1q0 -48 -20 -78.5t-65 -30.5zM45 0v28l99 17q17 3 17 18v553q0 15 -17 18l-99 17v28h299v-28l-98 -17
q-16 -2 -16 -18v-553q0 -16 16 -18l98 -17v-28h-299z" />
    <glyph glyph-name="itilde" unicode="&#x129;" horiz-adv-x="320" 
d="M39 598q-21 33 -21 64t18.5 52t52.5 21q26 0 53 -18.5t51 -37t45 -18.5q23 0 32.5 15.5t11.5 51.5l26 -1q0 -115 -85 -115q-31 0 -77.5 36.5t-69.5 36.5q-28 0 -28 -32q0 -22 12 -43zM44 0v27l78 15q15 3 15 19v354q0 16 -15 17l-83 6v23l143 31l26 -5l-8 -95v-331
q0 -16 16 -19l76 -15v-27h-248z" />
    <glyph glyph-name="Imacron" unicode="&#x12a;" horiz-adv-x="390" 
d="M51 759v33q46 -1 143 -1q98 0 144 1v-33q-92 2 -144 2q-51 0 -143 -2zM45 0v28l99 17q17 3 17 18v553q0 15 -17 18l-99 17v28h299v-28l-98 -17q-16 -2 -16 -18v-553q0 -16 16 -18l98 -17v-28h-299z" />
    <glyph glyph-name="imacron" unicode="&#x12b;" horiz-adv-x="320" 
d="M17 647v33q92 -2 140 -2t140 2v-33q-92 2 -140 2t-140 -2zM44 0v27l78 15q15 3 15 19v354q0 16 -15 17l-83 6v23l143 31l26 -5l-8 -95v-331q0 -16 16 -19l76 -15v-27h-248z" />
    <glyph glyph-name="Ibreve" unicode="&#x12c;" horiz-adv-x="390" 
d="M196 744q-58 0 -93.5 30.5t-43.5 84.5l24 2q16 -68 113 -68q95 0 113 68l23 -2q-7 -54 -43 -84.5t-93 -30.5zM45 0v28l99 17q17 3 17 18v553q0 15 -17 18l-99 17v28h299v-28l-98 -17q-16 -2 -16 -18v-553q0 -16 16 -18l98 -17v-28h-299z" />
    <glyph glyph-name="ibreve" unicode="&#x12d;" horiz-adv-x="320" 
d="M162 603q-57 0 -93 35t-44 92l23 3q22 -82 114 -82q91 0 113 82l23 -3q-7 -57 -43 -92t-93 -35zM44 0v27l78 15q15 3 15 19v354q0 16 -15 17l-83 6v23l143 31l26 -5l-8 -95v-331q0 -16 16 -19l76 -15v-27h-248z" />
    <glyph glyph-name="Iogonek" unicode="&#x12e;" horiz-adv-x="390" 
d="M227 -239q-39 0 -65.5 23t-26.5 63q0 57 45 102t109 60l-92 -9h-152v28l99 17q17 3 17 18v553q0 15 -17 18l-99 17v28h299v-28l-98 -17q-16 -2 -16 -18v-553q0 -16 16 -18l98 -17v-28q-67 0 -113.5 -44t-46.5 -107q0 -27 14.5 -41t39.5 -14q50 0 95 67l22 -13
q-50 -87 -128 -87z" />
    <glyph glyph-name="iogonek" unicode="&#x12f;" horiz-adv-x="320" 
d="M156 625q-23 0 -38.5 15t-15.5 39q-1 24 15 39.5t39 15.5q24 0 40 -15.5t16 -39.5t-16 -39t-40 -15zM175 -239q-39 0 -65.5 23t-26.5 63q0 57 45 102t109 60l-92 -9h-101v27l78 15q15 3 15 19v354q0 16 -15 17l-83 6v23l143 31l26 -5l-8 -95v-331q0 -16 16 -19l76 -15
v-27q-67 0 -113.5 -44t-46.5 -107q0 -27 14.5 -41t39.5 -14q50 0 95 67l22 -13q-50 -87 -128 -87z" />
    <glyph glyph-name="Idotaccent" unicode="&#x130;" horiz-adv-x="390" 
d="M195 744q-19 0 -32 13.5t-13 32.5q0 20 13 33.5t32 13.5q20 0 33.5 -13.5t13.5 -33.5q0 -19 -13.5 -32.5t-33.5 -13.5zM45 0v28l99 17q17 3 17 18v553q0 15 -17 18l-99 17v28h299v-28l-98 -17q-16 -2 -16 -18v-553q0 -16 16 -18l98 -17v-28h-299z" />
    <glyph glyph-name="dotlessi" unicode="&#x131;" horiz-adv-x="320" 
d="M44 0v27l78 15q15 3 15 19v354q0 16 -15 17l-83 6v23l143 31l26 -5l-8 -95v-331q0 -16 16 -19l76 -15v-27h-248z" />
    <glyph glyph-name="Jcircumflex" unicode="&#x134;" horiz-adv-x="515" 
d="M322 835l-131 -91h-29l129 125h90l119 -125h-33zM168 -14q-62 0 -103.5 27t-41.5 70q0 26 14.5 41t37.5 15q20 0 32.5 -12t12.5 -31q0 -18 -11 -29.5t-26 -11.5q22 -33 83 -33q70 0 102 41t32 128v420q0 11 -4.5 16t-17.5 7l-97 17v28h300v-28l-98 -16q-17 -4 -17 -18
v-407q0 -106 -51 -165t-147 -59z" />
    <glyph glyph-name="jcircumflex" unicode="&#x135;" horiz-adv-x="314" 
d="M157 707l-128 -127h-28l140 175h58l129 -175h-34zM42 -243q-55 0 -88.5 22.5t-33.5 61.5q0 23 14.5 38.5t38.5 15.5q20 0 33 -12.5t13 -33.5q0 -19 -11.5 -30.5t-25.5 -11.5q18 -18 58 -18q109 0 109 141v481q0 16 -15 17l-94 7v23l154 34l26 -5l-8 -95v-446
q0 -97 -49.5 -143t-120.5 -46z" />
    <glyph glyph-name="Kcommaaccent" unicode="&#x136;" horiz-adv-x="737" 
d="M225 315l283 297q19 20 -10 25l-72 13v29h265v-29l-84 -14q-27 -5 -49 -27l-207 -211l238 -326q17 -22 44 -27l92 -17v-28h-317v29l88 15q26 4 9 29l-200 279l-80 -82v-207q0 -14 16 -18l95 -17v-28h-296v28l100 17q16 2 16 18v553q0 16 -16 18l-100 17v28h297v-28
l-96 -17q-16 -2 -16 -18v-301zM350 -245l-13 22q66 32 65 89q-10 -10 -27 -10t-28 11t-11 29t13 30.5t32 12.5q26 0 40 -17.5t14 -46.5q0 -40 -24 -71.5t-61 -48.5z" />
    <glyph glyph-name="kcommaaccent" unicode="&#x137;" horiz-adv-x="564" 
d="M184 220l178 202q15 17 -6 20l-64 12v25h227v-25l-76 -14q-23 -4 -35 -19l-119 -130l172 -231q10 -15 32 -19l68 -14v-27h-239v27l56 10q20 4 6 26l-135 185l-65 -71v-116q0 -16 15 -19l72 -15v-27h-241v27l76 15q15 3 15 19v635q0 15 -15 16l-77 7v26l138 24l25 -5
l-8 -94v-450zM261 -245l-13 22q66 32 65 89q-10 -10 -27 -10t-28 11t-11 29t13 30.5t32 12.5q26 0 40 -17.5t14 -46.5q0 -40 -24 -71.5t-61 -48.5z" />
    <glyph glyph-name="Lacute" unicode="&#x139;" horiz-adv-x="641" 
d="M118 744l102 125h92v-12l-163 -113h-31zM601 0h-561v28l100 17q16 2 16 18v553q0 16 -16 18l-100 17v28h301v-29l-94 -16q-22 -4 -22 -24v-538q0 -22 9 -28.5t37 -6.5h169q54 0 73.5 13.5t34.5 66.5l32 100h33z" />
    <glyph glyph-name="lacute" unicode="&#x13a;" horiz-adv-x="307" 
d="M83 794l102 125h92v-12l-163 -113h-31zM277 0h-248v27l78 15q15 3 15 19v635q0 15 -15 16l-77 7v26l138 24l25 -5l-7 -94v-609q0 -16 15 -19l76 -15v-27z" />
    <glyph glyph-name="Lcommaaccent" unicode="&#x13b;" horiz-adv-x="641" 
d="M40 0v28l100 17q16 2 16 18v553q0 16 -16 18l-100 17v28h301v-29l-94 -16q-22 -4 -22 -24v-538q0 -22 9 -28.5t37 -6.5h169q54 0 73.5 13.5t34.5 66.5l32 100h33l-12 -217h-561zM324 -245l-13 22q66 32 65 89q-10 -10 -27 -10t-28 11t-11 29t13 30.5t32 12.5
q26 0 40 -17.5t14 -46.5q0 -40 -24 -71.5t-61 -48.5z" />
    <glyph glyph-name="lcommaaccent" unicode="&#x13c;" horiz-adv-x="307" 
d="M29 0v27l78 15q15 3 15 19v635q0 15 -15 16l-77 7v26l138 24l25 -5l-7 -94v-609q0 -16 15 -19l76 -15v-27h-248zM122 -245l-13 22q66 32 65 89q-10 -10 -27 -10t-28 11t-11 29t13 30.5t32 12.5q26 0 40 -17.5t14 -46.5q0 -40 -24 -71.5t-61 -48.5z" />
    <glyph glyph-name="Ldot" unicode="&#x13f;" horiz-adv-x="641" 
d="M40 0v28l100 17q16 2 16 18v553q0 16 -16 18l-100 17v28h301v-29l-94 -16q-22 -4 -22 -24v-538q0 -22 9 -28.5t37 -6.5h169q54 0 73.5 13.5t34.5 66.5l32 100h33l-12 -217h-561zM526 344q-19 0 -32 13.5t-13 32.5q0 20 13 33.5t32 13.5q20 0 33.5 -13.5t13.5 -33.5
q0 -19 -13.5 -32.5t-33.5 -13.5z" />
    <glyph glyph-name="ldot" unicode="&#x140;" horiz-adv-x="308" 
d="M29 0v27l78 15q15 3 15 19v635q0 15 -15 16l-77 7v26l138 24l25 -5l-7 -94v-609q0 -16 15 -19l76 -15v-27h-248zM304 339q-19 0 -32.5 13.5t-13.5 32.5t13.5 32.5t32.5 13.5t32.5 -13.5t13.5 -32.5t-13.5 -32.5t-32.5 -13.5z" />
    <glyph glyph-name="Lslash" unicode="&#x141;" horiz-adv-x="641" 
d="M614 217l-12 -217h-561v28l100 17q16 2 16 18v211l-123 -70v49l123 70v293q0 16 -16 18l-100 17v28h301v-29l-94 -16q-22 -4 -22 -24v-250l232 137v-49l-232 -138v-238q0 -22 9 -28.5t37 -6.5h169q54 0 73.5 13.5t34.5 66.5l32 100h33z" />
    <glyph glyph-name="lslash" unicode="&#x142;" horiz-adv-x="307" 
d="M277 0h-248v27l78 15q15 3 15 19v295l-126 -75v46l126 75v294q0 15 -15 16l-77 7v26l138 24l25 -5l-7 -94v-232l120 71v-46l-120 -71v-331q0 -16 15 -19l76 -15v-27z" />
    <glyph glyph-name="Nacute" unicode="&#x143;" horiz-adv-x="799" 
d="M345 744l102 125h92v-12l-163 -113h-31zM657 -6h-42l-351 509l-66 108h-6v-533q0 -27 26 -32l86 -17v-29h-264v28l86 18q15 3 20.5 10t5.5 22v530q0 12 -4.5 18t-18.5 8l-89 17v28h187l322 -471l62 -98h6v491q0 27 -26 32l-86 18v28h264v-28l-86 -18q-15 -3 -20.5 -10
t-5.5 -22v-607z" />
    <glyph glyph-name="nacute" unicode="&#x144;" horiz-adv-x="625" 
d="M269 580l88 175h77v-13l-139 -162h-26zM290 27v-27h-246v27l77 15q15 3 15 19v354q0 16 -15 17l-82 5v24l132 30l25 -6l-8 -159q21 75 68 121t118 46q138 0 138 -149v-283q0 -16 15 -19l75 -15v-27h-246v27l77 15q15 3 15 19v286q0 108 -91 108q-71 0 -114.5 -74
t-43.5 -170v-150q0 -16 15 -19z" />
    <glyph glyph-name="Ncommaaccent" unicode="&#x145;" horiz-adv-x="799" 
d="M40 0v28l86 18q15 3 20.5 10t5.5 22v530q0 12 -4.5 18t-18.5 8l-89 17v28h187l322 -471l62 -98h6v491q0 27 -26 32l-86 18v28h264v-28l-86 -18q-15 -3 -20.5 -10t-5.5 -22v-607h-42l-351 509l-66 108h-6v-533q0 -27 26 -32l86 -17v-29h-264zM370 -245l-13 22q66 32 65 89
q-10 -10 -27 -10t-28 11t-11 29t13 30.5t32 12.5q26 0 40 -17.5t14 -46.5q0 -40 -24 -71.5t-61 -48.5z" />
    <glyph glyph-name="ncommaaccent" unicode="&#x146;" horiz-adv-x="625" 
d="M290 27v-27h-246v27l77 15q15 3 15 19v354q0 16 -15 17l-82 5v24l132 30l25 -6l-8 -159q21 75 68 121t118 46q138 0 138 -149v-283q0 -16 15 -19l75 -15v-27h-246v27l77 15q15 3 15 19v286q0 108 -91 108q-71 0 -114.5 -74t-43.5 -170v-150q0 -16 15 -19zM292 -245
l-13 22q66 32 65 89q-10 -10 -27 -10t-28 11t-11 29t13 30.5t32 12.5q26 0 40 -17.5t14 -46.5q0 -40 -24 -71.5t-61 -48.5z" />
    <glyph glyph-name="Ncaron" unicode="&#x147;" horiz-adv-x="799" 
d="M458 744h-91l-119 125h34l144 -91l131 91h29zM40 0v28l86 18q15 3 20.5 10t5.5 22v530q0 12 -4.5 18t-18.5 8l-89 17v28h187l322 -471l62 -98h6v491q0 27 -26 32l-86 18v28h264v-28l-86 -18q-15 -3 -20.5 -10t-5.5 -22v-607h-42l-351 509l-66 108h-6v-533q0 -27 26 -32
l86 -17v-29h-264z" />
    <glyph glyph-name="ncaron" unicode="&#x148;" horiz-adv-x="625" 
d="M351 580h-57l-129 175h34l137 -126l128 126h28zM290 27v-27h-246v27l77 15q15 3 15 19v354q0 16 -15 17l-82 5v24l132 30l25 -6l-8 -159q21 75 68 121t118 46q138 0 138 -149v-283q0 -16 15 -19l75 -15v-27h-246v27l77 15q15 3 15 19v286q0 108 -91 108q-71 0 -114.5 -74
t-43.5 -170v-150q0 -16 15 -19z" />
    <glyph glyph-name="Omacron" unicode="&#x14c;" horiz-adv-x="751" 
d="M232 759v33q46 -1 143 -1q98 0 144 1v-33q-92 2 -144 2q-51 0 -143 -2zM375 -14q-146 0 -236.5 99.5t-90.5 254.5t90.5 254t236.5 99t236.5 -99t90.5 -254t-90.5 -254.5t-236.5 -99.5zM375 23q119 0 184.5 86.5t65.5 230.5q0 143 -65 229.5t-185 86.5t-184.5 -86.5
t-64.5 -229.5q0 -144 64.5 -230.5t184.5 -86.5z" />
    <glyph glyph-name="omacron" unicode="&#x14d;" horiz-adv-x="519" 
d="M121 647v33q92 -2 140 -2t140 2v-33q-92 2 -140 2t-140 -2zM259 -14q-100 0 -161.5 71t-61.5 183q0 113 61.5 183t161.5 70t162 -70t62 -183q0 -112 -62 -183t-162 -71zM259 19q75 0 113 59.5t38 161.5t-38 161t-113 59t-113 -59t-38 -161t38 -161.5t113 -59.5z" />
    <glyph glyph-name="Obreve" unicode="&#x14e;" horiz-adv-x="751" 
d="M375 744q-58 0 -93.5 30.5t-43.5 84.5l24 2q16 -68 113 -68q95 0 113 68l23 -2q-7 -54 -43 -84.5t-93 -30.5zM375 -14q-146 0 -236.5 99.5t-90.5 254.5t90.5 254t236.5 99t236.5 -99t90.5 -254t-90.5 -254.5t-236.5 -99.5zM375 23q119 0 184.5 86.5t65.5 230.5
q0 143 -65 229.5t-185 86.5t-184.5 -86.5t-64.5 -229.5q0 -144 64.5 -230.5t184.5 -86.5z" />
    <glyph glyph-name="obreve" unicode="&#x14f;" horiz-adv-x="519" 
d="M261 603q-57 0 -93 35t-44 92l23 3q22 -82 114 -82q91 0 113 82l23 -3q-7 -57 -43 -92t-93 -35zM259 -14q-100 0 -161.5 71t-61.5 183q0 113 61.5 183t161.5 70t162 -70t62 -183q0 -112 -62 -183t-162 -71zM259 19q75 0 113 59.5t38 161.5t-38 161t-113 59t-113 -59
t-38 -161t38 -161.5t113 -59.5z" />
    <glyph glyph-name="Ohungarumlaut" unicode="&#x150;" horiz-adv-x="751" 
d="M396 744l102 125h92v-12l-163 -113h-31zM249 744l102 125h92v-12l-163 -113h-31zM375 -14q-146 0 -236.5 99.5t-90.5 254.5t90.5 254t236.5 99t236.5 -99t90.5 -254t-90.5 -254.5t-236.5 -99.5zM375 23q119 0 184.5 86.5t65.5 230.5q0 143 -65 229.5t-185 86.5
t-184.5 -86.5t-64.5 -229.5q0 -144 64.5 -230.5t184.5 -86.5z" />
    <glyph glyph-name="ohungarumlaut" unicode="&#x151;" horiz-adv-x="519" 
d="M285 580l88 175h77v-13l-139 -162h-26zM144 580l89 175h77v-13l-139 -162h-27zM259 -14q-100 0 -161.5 71t-61.5 183q0 113 61.5 183t161.5 70t162 -70t62 -183q0 -112 -62 -183t-162 -71zM259 19q75 0 113 59.5t38 161.5t-38 161t-113 59t-113 -59t-38 -161t38 -161.5
t113 -59.5z" />
    <glyph glyph-name="OE" unicode="&#x152;" horiz-adv-x="1016" 
d="M384 37h14q76 0 103 18t27 77v408q0 62 -28 81t-104 21h-11q-124 0 -192.5 -76.5t-68.5 -225.5q0 -150 68.5 -226.5t191.5 -76.5zM597 367h123q23 0 33.5 7t17.5 31l23 80h27v-273h-27l-23 81q-7 24 -17.5 31t-33.5 7h-123v-259q0 -22 9 -28.5t37 -6.5h154q56 0 76 12
t32 57l29 97h34l-12 -203h-565q-158 0 -252 92.5t-94 247.5q0 154 94 246.5t251 92.5h536l9 -166h-34l-23 68q-12 41 -32.5 51t-81.5 10h-84q-43 0 -83 -2v-273z" />
    <glyph glyph-name="oe" unicode="&#x153;" horiz-adv-x="863" 
d="M259 19q75 0 113 59.5t38 161.5t-38 161t-113 59q-76 0 -113.5 -59t-37.5 -161q0 -103 37.5 -162t113.5 -59zM741 298l2 14q1 10 1 28q0 54 -27.5 87t-84.5 33q-54 0 -95.5 -42t-50.5 -130zM814 82q-71 -96 -183 -96q-60 0 -109 31t-76 89q-54 -120 -187 -120
q-100 0 -161.5 71t-61.5 183q0 113 61.5 183t161.5 70q65 0 113.5 -31.5t74.5 -88.5q28 58 79 89t108 31q84 0 131 -47t47 -127q0 -33 -5 -61h-324v-18q0 -103 44.5 -158.5t115.5 -55.5q89 0 146 76z" />
    <glyph glyph-name="Racute" unicode="&#x154;" horiz-adv-x="683" 
d="M294 744l102 125h92v-12l-163 -113h-31zM312 346q191 0 191 153q0 82 -46.5 113.5t-150.5 31.5q-35 0 -83 -4v-290q41 -4 89 -4zM339 28v-28h-300v28l99 17q17 3 17 18v552q0 15 -17 18l-99 17v28h33q32 0 113 1.5t119 1.5q278 0 278 -180q0 -66 -45 -112t-112 -62
q14 -17 37 -64l89 -186q8 -17 17.5 -24t28.5 -10l79 -13v-30h-168l-138 312q-26 -3 -57 -3q-37 0 -90 5v-251q0 -14 17 -18z" />
    <glyph glyph-name="racute" unicode="&#x155;" horiz-adv-x="431" 
d="M204 580l88 175h77v-13l-139 -162h-26zM294 0h-250v27l77 15q15 3 15 19v354q0 16 -15 17l-82 6v24l131 29l24 -5l-9 -194q16 89 57 145t103 56q31 0 49.5 -16.5t18.5 -41.5q0 -23 -14 -38t-36 -15q-21 0 -34 12.5t-13 32.5q0 26 21 36q-62 -3 -100.5 -84t-38.5 -188
v-130q0 -16 16 -19l80 -15v-27z" />
    <glyph glyph-name="Rcommaaccent" unicode="&#x156;" horiz-adv-x="683" 
d="M312 346q191 0 191 153q0 82 -46.5 113.5t-150.5 31.5q-35 0 -83 -4v-290q41 -4 89 -4zM339 28v-28h-300v28l99 17q17 3 17 18v552q0 15 -17 18l-99 17v28h33q32 0 113 1.5t119 1.5q278 0 278 -180q0 -66 -45 -112t-112 -62q14 -17 37 -64l89 -186q8 -17 17.5 -24
t28.5 -10l79 -13v-30h-168l-138 312q-26 -3 -57 -3q-37 0 -90 5v-251q0 -14 17 -18zM340 -245l-13 22q66 32 65 89q-10 -10 -27 -10t-28 11t-11 29t13 30.5t32 12.5q26 0 40 -17.5t14 -46.5q0 -40 -24 -71.5t-61 -48.5z" />
    <glyph glyph-name="rcommaaccent" unicode="&#x157;" horiz-adv-x="431" 
d="M294 0h-250v27l77 15q15 3 15 19v354q0 16 -15 17l-82 6v24l131 29l24 -5l-9 -194q16 89 57 145t103 56q31 0 49.5 -16.5t18.5 -41.5q0 -23 -14 -38t-36 -15q-21 0 -34 12.5t-13 32.5q0 26 21 36q-62 -3 -100.5 -84t-38.5 -188v-130q0 -16 16 -19l80 -15v-27zM133 -245
l-13 22q66 32 65 89q-10 -10 -27 -10t-28 11t-11 29t13 30.5t32 12.5q26 0 40 -17.5t14 -46.5q0 -40 -24 -71.5t-61 -48.5z" />
    <glyph glyph-name="Rcaron" unicode="&#x158;" horiz-adv-x="683" 
d="M392 744h-91l-119 125h34l144 -91l131 91h29zM312 346q191 0 191 153q0 82 -46.5 113.5t-150.5 31.5q-35 0 -83 -4v-290q41 -4 89 -4zM339 28v-28h-300v28l99 17q17 3 17 18v552q0 15 -17 18l-99 17v28h33q32 0 113 1.5t119 1.5q278 0 278 -180q0 -66 -45 -112t-112 -62
q14 -17 37 -64l89 -186q8 -17 17.5 -24t28.5 -10l79 -13v-30h-168l-138 312q-26 -3 -57 -3q-37 0 -90 5v-251q0 -14 17 -18z" />
    <glyph glyph-name="rcaron" unicode="&#x159;" horiz-adv-x="431" 
d="M263 580h-57l-129 175h34l137 -126l128 126h28zM294 0h-250v27l77 15q15 3 15 19v354q0 16 -15 17l-82 6v24l131 29l24 -5l-9 -194q16 89 57 145t103 56q31 0 49.5 -16.5t18.5 -41.5q0 -23 -14 -38t-36 -15q-21 0 -34 12.5t-13 32.5q0 26 21 36q-62 -3 -100.5 -84
t-38.5 -188v-130q0 -16 16 -19l80 -15v-27z" />
    <glyph glyph-name="Sacute" unicode="&#x15a;" horiz-adv-x="569" 
d="M226 744l102 125h92v-12l-163 -113h-31zM514 173q0 -85 -61.5 -136t-156.5 -51q-121 0 -187 74l-19 -72h-28l1 259h30l21 -78q18 -69 64.5 -107.5t115.5 -38.5q73 0 117.5 34t44.5 93q0 24 -5.5 44t-20.5 35.5t-27 26t-38 22t-41.5 17.5t-48.5 17q-94 33 -147 79.5
t-53 123.5q0 80 57.5 129t145.5 49q104 0 167 -63l19 61h26l-1 -240h-29l-18 69q-36 136 -163 136q-65 0 -105.5 -32.5t-40.5 -87.5q0 -23 6 -42.5t23 -35.5t28 -25.5t41 -22.5t41 -17t47 -17q44 -16 74.5 -31.5t60.5 -39t45 -56.5t15 -76z" />
    <glyph glyph-name="sacute" unicode="&#x15b;" horiz-adv-x="443" 
d="M173 580l88 175h77v-13l-139 -162h-26zM389 128q0 -65 -44.5 -103.5t-115.5 -38.5q-87 0 -140 46l-12 -45h-25v184h29q6 -38 22 -77q32 -75 127 -75q49 0 77.5 24t28.5 64q0 24 -9 41.5t-31 31.5t-39.5 21t-53.5 20q-64 22 -101 54t-37 89t41 93t105 36q77 0 122 -42
l13 42h24v-166h-30q-5 35 -22 70q-29 63 -105 63q-44 0 -69 -22.5t-25 -55.5q0 -18 7 -32.5t15.5 -23t29 -18.5t32.5 -14.5t40 -14.5q68 -25 107 -57.5t39 -93.5z" />
    <glyph glyph-name="Scircumflex" unicode="&#x15c;" horiz-adv-x="569" 
d="M279 835l-131 -91h-29l129 125h90l119 -125h-33zM514 173q0 -85 -61.5 -136t-156.5 -51q-121 0 -187 74l-19 -72h-28l1 259h30l21 -78q18 -69 64.5 -107.5t115.5 -38.5q73 0 117.5 34t44.5 93q0 24 -5.5 44t-20.5 35.5t-27 26t-38 22t-41.5 17.5t-48.5 17
q-94 33 -147 79.5t-53 123.5q0 80 57.5 129t145.5 49q104 0 167 -63l19 61h26l-1 -240h-29l-18 69q-36 136 -163 136q-65 0 -105.5 -32.5t-40.5 -87.5q0 -23 6 -42.5t23 -35.5t28 -25.5t41 -22.5t41 -17t47 -17q44 -16 74.5 -31.5t60.5 -39t45 -56.5t15 -76z" />
    <glyph glyph-name="scircumflex" unicode="&#x15d;" horiz-adv-x="443" 
d="M219 707l-128 -127h-28l140 175h58l129 -175h-34zM229 -14q-87 0 -140 46l-12 -45h-25v184h29q6 -38 22 -77q32 -75 127 -75q49 0 77.5 24t28.5 64q0 24 -9 41.5t-31 31.5t-39.5 21t-53.5 20q-64 22 -101 54t-37 89t41 93t105 36q77 0 122 -42l13 42h24v-166h-30
q-5 35 -22 70q-29 63 -105 63q-44 0 -69 -22.5t-25 -55.5q0 -18 7 -32.5t15.5 -23t29 -18.5t32.5 -14.5t40 -14.5q68 -25 107 -57.5t39 -93.5q0 -65 -44.5 -103.5t-115.5 -38.5z" />
    <glyph glyph-name="Scedilla" unicode="&#x15e;" horiz-adv-x="569" 
d="M256 -243q-50 0 -88 24l15 23q34 -17 66 -17q34 0 55 16t21 47q0 27 -14.5 41t-38.5 14q-18 0 -33 -6l-19 14l29 76q-87 12 -140 71l-19 -72h-28l1 259h30l21 -78q18 -69 64.5 -107.5t115.5 -38.5q73 0 117.5 34t44.5 93q0 24 -5.5 44t-20.5 35.5t-27 26t-38 22
t-41.5 17.5t-48.5 17q-94 33 -147 79.5t-53 123.5q0 80 57.5 129t145.5 49q104 0 167 -63l19 61h26l-1 -240h-29l-18 69q-36 136 -163 136q-65 0 -105.5 -32.5t-40.5 -87.5q0 -23 6 -42.5t23 -35.5t28 -25.5t41 -22.5t41 -17t47 -17q44 -16 74.5 -31.5t60.5 -39t45 -56.5
t15 -76q0 -85 -61.5 -136t-156.5 -51q-15 0 -23 1l-17 -60q18 5 35 5q36 0 63 -21t27 -59q0 -45 -37.5 -70t-87.5 -25z" />
    <glyph glyph-name="scedilla" unicode="&#x15f;" horiz-adv-x="443" 
d="M189 -243q-50 0 -88 24l15 23q34 -17 66 -17q34 0 55 16t21 47q0 27 -14.5 41t-38.5 14q-18 0 -33 -6l-19 14l30 77q-55 9 -94 42l-12 -45h-25v184h29q6 -38 22 -77q32 -75 127 -75q49 0 77.5 24t28.5 64q0 24 -9 41.5t-31 31.5t-39.5 21t-53.5 20q-64 22 -101 54t-37 89
t41 93t105 36q77 0 122 -42l13 42h24v-166h-30q-5 35 -22 70q-29 63 -105 63q-44 0 -69 -22.5t-25 -55.5q0 -18 7 -32.5t15.5 -23t29 -18.5t32.5 -14.5t40 -14.5q68 -25 107 -57.5t39 -93.5q0 -65 -44.5 -103.5t-115.5 -38.5q-15 0 -22 1l-18 -60q18 5 35 5q36 0 63 -21
t27 -59q0 -45 -37.5 -70t-87.5 -25z" />
    <glyph glyph-name="Scaron" unicode="&#x160;" horiz-adv-x="569" 
d="M332 744h-91l-119 125h34l144 -91l131 91h29zM514 173q0 -85 -61.5 -136t-156.5 -51q-121 0 -187 74l-19 -72h-28l1 259h30l21 -78q18 -69 64.5 -107.5t115.5 -38.5q73 0 117.5 34t44.5 93q0 24 -5.5 44t-20.5 35.5t-27 26t-38 22t-41.5 17.5t-48.5 17q-94 33 -147 79.5
t-53 123.5q0 80 57.5 129t145.5 49q104 0 167 -63l19 61h26l-1 -240h-29l-18 69q-36 136 -163 136q-65 0 -105.5 -32.5t-40.5 -87.5q0 -23 6 -42.5t23 -35.5t28 -25.5t41 -22.5t41 -17t47 -17q44 -16 74.5 -31.5t60.5 -39t45 -56.5t15 -76z" />
    <glyph glyph-name="scaron" unicode="&#x161;" horiz-adv-x="443" 
d="M254 580h-57l-129 175h34l137 -126l128 126h28zM389 128q0 -65 -44.5 -103.5t-115.5 -38.5q-87 0 -140 46l-12 -45h-25v184h29q6 -38 22 -77q32 -75 127 -75q49 0 77.5 24t28.5 64q0 24 -9 41.5t-31 31.5t-39.5 21t-53.5 20q-64 22 -101 54t-37 89t41 93t105 36
q77 0 122 -42l13 42h24v-166h-30q-5 35 -22 70q-29 63 -105 63q-44 0 -69 -22.5t-25 -55.5q0 -18 7 -32.5t15.5 -23t29 -18.5t32.5 -14.5t40 -14.5q68 -25 107 -57.5t39 -93.5z" />
    <glyph glyph-name="Tcommaaccent" unicode="&#x162;" horiz-adv-x="665" 
d="M489 28v-28h-316v28l108 17q17 3 17 18v580h-122q-48 0 -65 -8.5t-29 -48.5l-24 -73h-30l8 166h593l8 -166h-32l-24 73q-12 40 -28.5 48.5t-64.5 8.5h-121v-580q0 -16 17 -18zM298 -245l-13 22q66 32 65 89q-10 -10 -27 -10t-28 11t-11 29t13 30.5t32 12.5q26 0 40 -17.5
t14 -46.5q0 -40 -24 -71.5t-61 -48.5z" />
    <glyph glyph-name="tcommaaccent" unicode="&#x163;" horiz-adv-x="363" 
d="M222 -12q-115 0 -115 120v329l-95 8v29l59 8q25 4 36 16t17 34q17 85 18 94h33l-5 -147h173v-31l-173 -8v-331q0 -82 67 -82q29 0 48 18t33 60l30 -9q-30 -108 -126 -108zM172 -245l-13 22q66 32 65 89q-10 -10 -27 -10t-28 11t-11 29t13 30.5t32 12.5q26 0 40 -17.5
t14 -46.5q0 -40 -24 -71.5t-61 -48.5z" />
    <glyph glyph-name="Tcaron" unicode="&#x164;" horiz-adv-x="665" 
d="M378 744h-91l-119 125h34l144 -91l131 91h29zM489 28v-28h-316v28l108 17q17 3 17 18v580h-122q-48 0 -65 -8.5t-29 -48.5l-24 -73h-30l8 166h593l8 -166h-32l-24 73q-12 40 -28.5 48.5t-64.5 8.5h-121v-580q0 -16 17 -18z" />
    <glyph glyph-name="tcaron" unicode="&#x165;" horiz-adv-x="363" 
d="M274 546l-13 22q66 32 65 89q-10 -10 -27 -10t-28 11t-11 29t13 30.5t32 12.5q26 0 40 -17.5t14 -46.5q0 -40 -24 -71.5t-61 -48.5zM222 -12q-115 0 -115 120v329l-95 8v29l59 8q25 4 36 16t17 34q17 85 18 94h33l-5 -147h173v-31l-173 -8v-331q0 -82 67 -82q29 0 48 18
t33 60l30 -9q-30 -108 -126 -108z" />
    <glyph glyph-name="Tbar" unicode="&#x166;" horiz-adv-x="665" 
d="M489 28v-28h-316v28l108 17q17 3 17 18v256h-141v39h141v285h-122q-48 0 -65 -8.5t-29 -48.5l-24 -73h-30l8 166h593l8 -166h-32l-24 73q-12 40 -28.5 48.5t-64.5 8.5h-121v-285h140v-39h-140v-256q0 -16 17 -18z" />
    <glyph glyph-name="tbar" unicode="&#x167;" horiz-adv-x="363" 
d="M348 96q-30 -108 -126 -108q-115 0 -115 120v137h-77v37h77v155l-95 8v29l59 8q25 4 36 16t17 34q17 85 18 94h33l-5 -147h173v-31l-173 -8v-158h140v-37h-140v-136q0 -82 67 -82q29 0 48 18t33 60z" />
    <glyph glyph-name="Utilde" unicode="&#x168;" horiz-adv-x="786" 
d="M465 753q-31 0 -77 34.5t-70 34.5q-28 0 -28 -30q0 -20 10 -39l-20 -10q-19 27 -19 60q0 28 18 47.5t52 19.5q33 0 80 -33.5t70 -33.5q22 0 31.5 14.5t11.5 45.5l26 -1q0 -48 -20 -78.5t-65 -30.5zM391 -14q-53 0 -94 11t-77.5 37.5t-56 78t-19.5 124.5v379q0 15 -17 18
l-99 17v28h299v-28l-98 -17q-16 -2 -16 -18v-379q0 -63 14.5 -105.5t43.5 -64t62 -29.5t80 -8q195 0 195 206v366q0 28 -26 33l-86 15v29h264v-29l-86 -15q-26 -5 -26 -33v-365q0 -251 -257 -251z" />
    <glyph glyph-name="utilde" unicode="&#x169;" horiz-adv-x="570" 
d="M146 598q-21 33 -21 64t18.5 52t52.5 21q26 0 53 -18.5t51 -37t45 -18.5q23 0 32.5 15.5t11.5 51.5l26 -1q0 -115 -85 -115q-31 0 -77.5 36.5t-69.5 36.5q-28 0 -28 -32q0 -22 12 -43zM408 9l-1 95q-20 -55 -62.5 -86.5t-103.5 -31.5q-66 0 -105 37.5t-39 113.5v282
q0 15 -15 19l-78 15v26h159l-3 -83v-261q0 -110 99 -110q62 0 100.5 49.5t38.5 133.5v211q0 15 -15 19l-77 15v26h159l-4 -85v-333q0 -16 16 -19l75 -15v-27h-135z" />
    <glyph glyph-name="Umacron" unicode="&#x16a;" horiz-adv-x="786" 
d="M258 759v33q46 -1 143 -1q98 0 144 1v-33q-92 2 -144 2q-51 0 -143 -2zM391 -14q-53 0 -94 11t-77.5 37.5t-56 78t-19.5 124.5v379q0 15 -17 18l-99 17v28h299v-28l-98 -17q-16 -2 -16 -18v-379q0 -63 14.5 -105.5t43.5 -64t62 -29.5t80 -8q195 0 195 206v366
q0 28 -26 33l-86 15v29h264v-29l-86 -15q-26 -5 -26 -33v-365q0 -251 -257 -251z" />
    <glyph glyph-name="umacron" unicode="&#x16b;" horiz-adv-x="570" 
d="M130 647v33q92 -2 140 -2t140 2v-33q-92 2 -140 2t-140 -2zM408 9l-1 95q-20 -55 -62.5 -86.5t-103.5 -31.5q-66 0 -105 37.5t-39 113.5v282q0 15 -15 19l-78 15v26h159l-3 -83v-261q0 -110 99 -110q62 0 100.5 49.5t38.5 133.5v211q0 15 -15 19l-77 15v26h159l-4 -85
v-333q0 -16 16 -19l75 -15v-27h-135z" />
    <glyph glyph-name="Ubreve" unicode="&#x16c;" horiz-adv-x="786" 
d="M403 744q-58 0 -93.5 30.5t-43.5 84.5l24 2q16 -68 113 -68q95 0 113 68l23 -2q-7 -54 -43 -84.5t-93 -30.5zM391 -14q-53 0 -94 11t-77.5 37.5t-56 78t-19.5 124.5v379q0 15 -17 18l-99 17v28h299v-28l-98 -17q-16 -2 -16 -18v-379q0 -63 14.5 -105.5t43.5 -64t62 -29.5
t80 -8q195 0 195 206v366q0 28 -26 33l-86 15v29h264v-29l-86 -15q-26 -5 -26 -33v-365q0 -251 -257 -251z" />
    <glyph glyph-name="ubreve" unicode="&#x16d;" horiz-adv-x="570" 
d="M279 603q-57 0 -93 35t-44 92l23 3q22 -82 114 -82q91 0 113 82l23 -3q-7 -57 -43 -92t-93 -35zM408 9l-1 95q-20 -55 -62.5 -86.5t-103.5 -31.5q-66 0 -105 37.5t-39 113.5v282q0 15 -15 19l-78 15v26h159l-3 -83v-261q0 -110 99 -110q62 0 100.5 49.5t38.5 133.5v211
q0 15 -15 19l-77 15v26h159l-4 -85v-333q0 -16 16 -19l75 -15v-27h-135z" />
    <glyph glyph-name="Uring" unicode="&#x16e;" horiz-adv-x="786" 
d="M405 723q-46 0 -76.5 28.5t-30.5 72.5t31 72.5t76 28.5t75.5 -28.5t30.5 -72.5t-30.5 -72.5t-75.5 -28.5zM404 744q35 0 54 22t19 58q0 35 -19 57.5t-53 22.5q-35 0 -54 -22.5t-19 -57.5q0 -36 19 -58t53 -22zM391 -14q-53 0 -94 11t-77.5 37.5t-56 78t-19.5 124.5v379
q0 15 -17 18l-99 17v28h299v-28l-98 -17q-16 -2 -16 -18v-379q0 -63 14.5 -105.5t43.5 -64t62 -29.5t80 -8q195 0 195 206v366q0 28 -26 33l-86 15v29h264v-29l-86 -15q-26 -5 -26 -33v-365q0 -251 -257 -251z" />
    <glyph glyph-name="uring" unicode="&#x16f;" horiz-adv-x="570" 
d="M270 559q-46 0 -76.5 28.5t-30.5 72.5t31 72.5t76 28.5t75.5 -28.5t30.5 -72.5q0 -45 -30 -73t-76 -28zM269 580q35 0 54 22.5t19 57.5t-19 57t-54 22q-34 0 -53 -22t-19 -57t19 -57.5t53 -22.5zM408 9l-1 95q-20 -55 -62.5 -86.5t-103.5 -31.5q-66 0 -105 37.5
t-39 113.5v282q0 15 -15 19l-78 15v26h159l-3 -83v-261q0 -110 99 -110q62 0 100.5 49.5t38.5 133.5v211q0 15 -15 19l-77 15v26h159l-4 -85v-333q0 -16 16 -19l75 -15v-27h-135z" />
    <glyph glyph-name="Uhungarumlaut" unicode="&#x170;" horiz-adv-x="786" 
d="M427 744l102 125h92v-12l-163 -113h-31zM280 744l102 125h92v-12l-163 -113h-31zM391 -14q-53 0 -94 11t-77.5 37.5t-56 78t-19.5 124.5v379q0 15 -17 18l-99 17v28h299v-28l-98 -17q-16 -2 -16 -18v-379q0 -63 14.5 -105.5t43.5 -64t62 -29.5t80 -8q195 0 195 206v366
q0 28 -26 33l-86 15v29h264v-29l-86 -15q-26 -5 -26 -33v-365q0 -251 -257 -251z" />
    <glyph glyph-name="uhungarumlaut" unicode="&#x171;" horiz-adv-x="570" 
d="M293 580l88 175h77v-13l-139 -162h-26zM152 580l89 175h77v-13l-139 -162h-27zM408 9l-1 95q-20 -55 -62.5 -86.5t-103.5 -31.5q-66 0 -105 37.5t-39 113.5v282q0 15 -15 19l-78 15v26h159l-3 -83v-261q0 -110 99 -110q62 0 100.5 49.5t38.5 133.5v211q0 15 -15 19
l-77 15v26h159l-4 -85v-333q0 -16 16 -19l75 -15v-27h-135z" />
    <glyph glyph-name="Uogonek" unicode="&#x172;" horiz-adv-x="786" 
d="M477 -239q-39 0 -66 23t-27 63q0 53 57 112q25 24 73 60q-53 -30 -123 -30q-53 0 -94.5 10.5t-77.5 36.5t-55.5 77t-19.5 124v379q0 15 -17 18l-99 17v28h299v-28l-98 -17q-16 -2 -16 -18v-379q0 -63 14.5 -105.5t43.5 -64t62 -29.5t80 -8q195 0 195 206v366q0 28 -26 33
l-86 15v29h264v-29l-86 -15q-26 -5 -26 -33v-365q0 -140 -88 -207q-39 -30 -62 -51t-43.5 -56.5t-20.5 -73.5q0 -27 14.5 -41t39.5 -14q50 0 95 67l22 -13q-52 -87 -128 -87z" />
    <glyph glyph-name="uogonek" unicode="&#x173;" horiz-adv-x="570" 
d="M435 -239q-39 0 -65.5 23t-26.5 63q0 56 44.5 101t107.5 60l-78 -8l-9 9l-1 95q-20 -55 -62.5 -86.5t-103.5 -31.5q-66 0 -105 37.5t-39 113.5v282q0 15 -15 19l-78 15v26h159l-3 -83v-261q0 -110 99 -110q62 0 100.5 49.5t38.5 133.5v211q0 15 -15 19l-77 15v26h159
l-4 -85v-333q0 -16 16 -19l75 -15v-27q-67 0 -113.5 -44t-46.5 -107q0 -27 14.5 -41t39.5 -14q50 0 95 67l22 -13q-50 -87 -128 -87z" />
    <glyph glyph-name="Wcircumflex" unicode="&#x174;" horiz-adv-x="1011" 
d="M511 835l-131 -91h-29l129 125h90l119 -125h-33zM504 577l-168 -588l-37 1l-200 621q-7 19 -27 24l-78 16v28h287v-28l-98 -15q-19 -4 -13 -23l125 -397l31 -112h4l165 578h42l152 -472l27 -104h5l138 501q7 24 -17 28l-87 15v29h262v-29l-84 -15q-27 -4 -32 -29
l-175 -616h-36l-155 488l-26 99h-5z" />
    <glyph glyph-name="wcircumflex" unicode="&#x175;" horiz-adv-x="737" 
d="M372 707l-128 -127h-28l140 175h58l129 -175h-34zM373 386l-130 -396h-26l-143 434q-4 14 -21 18l-61 12v25h230v-25l-68 -12q-18 -3 -10 -23l62 -207l33 -117h6l125 388h35l83 -272l30 -113h7l105 320q5 19 -12 23l-59 12v26h185v-25l-55 -14q-17 -4 -22 -22l-145 -428
h-26l-91 288l-26 108h-6z" />
    <glyph glyph-name="Ycircumflex" unicode="&#x176;" horiz-adv-x="665" 
d="M337 835l-131 -91h-29l129 125h90l119 -125h-33zM481 0h-304v28l101 17q16 2 16 18v212l-195 338q-11 19 -34 23l-71 14v29h285v-29l-95 -14q-20 -3 -9 -23l116 -207l51 -98h5l172 297q14 25 -11 30l-85 16v28h247v-29l-63 -13q-28 -6 -41 -29l-203 -344v-201
q0 -15 17 -18l101 -17v-28z" />
    <glyph glyph-name="ycircumflex" unicode="&#x177;" horiz-adv-x="509" 
d="M251 707l-128 -127h-28l140 175h58l129 -175h-34zM80 -242q-34 0 -54 18.5t-20 46.5q0 24 15 39.5t38 15.5q20 0 33.5 -13t13.5 -32q0 -18 -10 -30t-23 -11l16 -3q33 0 65.5 41.5t83.5 168.5l6 16l-169 409q-6 15 -21 18l-62 12v25h231v-25l-66 -12q-19 -3 -11 -23
l93 -235l33 -95h4l125 330q7 18 -11 22l-57 12v26h183v-25l-54 -14q-15 -3 -22 -18l-154 -394q-45 -116 -80.5 -176t-61.5 -77t-64 -17z" />
    <glyph glyph-name="Ydieresis" unicode="&#x178;" horiz-adv-x="665" 
d="M444 744q-19 0 -32.5 13.5t-13.5 32.5t13.5 33t32.5 14t32.5 -13.5t13.5 -33.5q0 -19 -13.5 -32.5t-32.5 -13.5zM247 744q-19 0 -32 13.5t-13 32.5q0 20 13 33.5t32 13.5t32.5 -13.5t13.5 -33.5q0 -19 -13.5 -32.5t-32.5 -13.5zM481 0h-304v28l101 17q16 2 16 18v212
l-195 338q-11 19 -34 23l-71 14v29h285v-29l-95 -14q-20 -3 -9 -23l116 -207l51 -98h5l172 297q14 25 -11 30l-85 16v28h247v-29l-63 -13q-28 -6 -41 -29l-203 -344v-201q0 -15 17 -18l101 -17v-28z" />
    <glyph glyph-name="Zacute" unicode="&#x179;" horiz-adv-x="632" 
d="M261 744l102 125h92v-12l-163 -113h-31zM583 0h-544l-3 25l395 535l67 82h-256q-68 0 -91.5 -14.5t-38.5 -67.5l-27 -87h-33l14 206h512l3 -26l-377 -514l-82 -102h281q68 0 91 15t38 70l31 102h31z" />
    <glyph glyph-name="zacute" unicode="&#x17a;" horiz-adv-x="471" 
d="M200 580l88 175h77v-13l-139 -162h-26zM426 0h-385l-2 28l259 354l58 66h-179q-38 0 -53 -11t-25 -48l-18 -71h-30l7 161h364l4 -27l-257 -350l-60 -70h193q40 0 55.5 11.5t27.5 51.5l20 82h29z" />
    <glyph glyph-name="Zdotaccent" unicode="&#x17b;" horiz-adv-x="632" 
d="M323 744q-19 0 -32 13.5t-13 32.5q0 20 13 33.5t32 13.5q20 0 33.5 -13.5t13.5 -33.5q0 -19 -13.5 -32.5t-33.5 -13.5zM583 0h-544l-3 25l395 535l67 82h-256q-68 0 -91.5 -14.5t-38.5 -67.5l-27 -87h-33l14 206h512l3 -26l-377 -514l-82 -102h281q68 0 91 15t38 70
l31 102h31z" />
    <glyph glyph-name="zdotaccent" unicode="&#x17c;" horiz-adv-x="471" 
d="M248 614q-19 0 -32.5 13.5t-13.5 32.5t13.5 32.5t32.5 13.5t32.5 -13.5t13.5 -32.5t-13.5 -32.5t-32.5 -13.5zM426 0h-385l-2 28l259 354l58 66h-179q-38 0 -53 -11t-25 -48l-18 -71h-30l7 161h364l4 -27l-257 -350l-60 -70h193q40 0 55.5 11.5t27.5 51.5l20 82h29z" />
    <glyph glyph-name="Zcaron" unicode="&#x17d;" horiz-adv-x="632" 
d="M367 746h-91l-119 125h34l144 -91l131 91h29zM583 0h-544l-3 25l395 535l67 82h-256q-68 0 -91.5 -14.5t-38.5 -67.5l-27 -87h-33l14 206h512l3 -26l-377 -514l-82 -102h281q68 0 91 15t38 70l31 102h31z" />
    <glyph glyph-name="zcaron" unicode="&#x17e;" horiz-adv-x="471" 
d="M273 580h-57l-129 175h34l137 -126l128 126h28zM426 0h-385l-2 28l259 354l58 66h-179q-38 0 -53 -11t-25 -48l-18 -71h-30l7 161h364l4 -27l-257 -350l-60 -70h193q40 0 55.5 11.5t27.5 51.5l20 82h29z" />
    <glyph glyph-name="florin" unicode="&#x192;" 
d="M139 -239q-55 0 -87 23t-32 60q0 24 14.5 38.5t36.5 14.5q21 0 34 -12.5t13 -32.5q0 -19 -11.5 -30.5t-26.5 -11.5q17 -19 57 -19q50 0 72.5 31t22.5 100v384l-96 9v28l96 9v97q0 92 47 141t125 49q57 0 94.5 -25.5t37.5 -63.5q0 -25 -14 -39.5t-36 -14.5q-21 0 -34.5 12
t-13.5 31q0 20 11 32t26 12q-18 23 -68 23q-114 0 -114 -141q0 -21 1 -60.5t1 -55.5h132v-32l-132 -7v-373q0 -88 -42 -132t-114 -44z" />
    <glyph glyph-name="Gcaron" unicode="&#x1e6;" horiz-adv-x="746" 
d="M421 744h-91l-119 125h34l144 -91l131 91h29zM607 -12l-25 77q-73 -79 -213 -79q-137 0 -229 97t-92 256t92.5 256.5t230.5 97.5q134 0 210 -83l22 80h29l-5 -271h-32l-21 79q-21 79 -73.5 118.5t-127.5 39.5q-112 0 -179.5 -85.5t-67.5 -231.5q0 -147 67.5 -231.5
t176.5 -84.5q81 0 137.5 37.5t56.5 107.5v78q0 18 -19 21l-118 17v28h312v-29l-95 -16q-16 -4 -16 -17v-128l7 -134h-28z" />
    <glyph glyph-name="gcaron" unicode="&#x1e7;" horiz-adv-x="504" 
d="M265 580h-57l-129 175h34l137 -126l128 126h28zM220 191q52 0 79 37.5t27 98.5q0 62 -27 98t-79 36t-79 -36t-27 -98q0 -61 27 -98.5t79 -37.5zM241 -244q-102 0 -163 35t-61 101q0 39 22 65.5t57 25.5q37 0 28 -36q-61 -2 -61 -62q0 -44 47.5 -70t130.5 -26q88 0 139 30
t51 81q0 49 -41 69t-139 22q-181 3 -181 98q0 75 104 85v5h1q-58 10 -94 50.5t-36 98.5q0 71 50 118t124 47q78 0 122 -44q39 44 96 44q26 0 42 -13t16 -35q0 -20 -11.5 -32t-30.5 -12q-18 0 -29 10.5t-11 27.5q0 16 10 25q-40 -5 -67 -36q38 -45 38 -102q0 -73 -49.5 -120
t-126.5 -49q-54 -2 -79.5 -12.5t-25.5 -37.5q0 -28 34.5 -37t112.5 -11q111 -3 163.5 -37.5t52.5 -106.5q0 -76 -62.5 -117.5t-172.5 -41.5z" />
    <glyph glyph-name="Aringacute" unicode="&#x1fa;" horiz-adv-x="700" 
d="M269 928l102 105h92v-10l-163 -95h-31zM346 723q-44 0 -73.5 25.5t-29.5 63.5t29.5 64t74.5 26t74 -26t29 -64t-29.5 -63.5t-74.5 -25.5zM346 742q34 0 52 20t18 50t-17.5 50.5t-51.5 20.5t-52 -20t-18 -51t17.5 -50.5t51.5 -19.5zM456 253l-78 210l-42 125h-4l-125 -335
h249zM244 29v-29h-250v29l76 17q19 5 28 25l200 530l27 83h40l238 -620q6 -16 19 -18l83 -17v-29h-287v29l95 16q19 2 12 22l-55 149h-277l-52 -140q-8 -25 15 -30z" />
    <glyph glyph-name="aringacute" unicode="&#x1fb;" horiz-adv-x="500" 
d="M164 762l102 121h92v-11l-163 -110h-31zM238 545q-47 0 -77 26t-30 67q0 40 30.5 66.5t76.5 26.5t76 -26.5t30 -66.5q0 -41 -29.5 -67t-76.5 -26zM237 564q35 0 54 20.5t19 53.5q0 32 -19 52.5t-54 20.5q-34 0 -53 -20.5t-19 -52.5q0 -33 19 -53.5t53 -20.5zM196 23
q60 0 99.5 39t39.5 93v96q-32 -6 -51.5 -10t-49 -12t-47.5 -18.5t-36.5 -25.5t-27.5 -36.5t-9 -48.5q0 -36 21.5 -56.5t60.5 -20.5zM507 93q-7 -52 -27.5 -76.5t-59.5 -24.5q-66 0 -76 80q-24 -39 -67.5 -62.5t-99.5 -23.5q-60 0 -95.5 29t-35.5 78q0 151 290 190v73
q0 104 -105 104q-39 0 -67.5 -14t-42.5 -36l4 1q17 0 27.5 -11t10.5 -29q0 -20 -12.5 -32t-33.5 -12q-22 0 -35.5 14t-13.5 39q0 44 48.5 78.5t117.5 34.5q80 0 122 -38t42 -107q0 -12 -0.5 -126.5t-0.5 -127.5q0 -38 9 -52.5t27 -14.5t28.5 15.5t17.5 53.5z" />
    <glyph glyph-name="AEacute" unicode="&#x1fc;" horiz-adv-x="948" 
d="M436 744l102 125h92v-12l-163 -113h-31zM461 267v366h-8l-215 -366h223zM530 367h123q23 0 34 7t17 31l23 80h27v-273h-27l-23 81q-6 24 -17 31t-34 7h-123v-259q0 -22 9 -28.5t37 -6.5h154q56 0 76 12t32 57l29 97h34l-12 -203h-544v28l99 17q17 3 17 18v168h-244
l-95 -162q-13 -19 11 -24l84 -17v-28h-252v28l78 19q20 5 31 22l321 538q14 22 -10 27l-103 16v29h577l9 -166h-34l-23 68q-12 41 -32.5 51t-81.5 10h-84q-43 0 -83 -2v-273z" />
    <glyph glyph-name="aeacute" unicode="&#x1fd;" horiz-adv-x="787" 
d="M328 580l88 175h77v-13l-139 -162h-26zM738 82q-71 -96 -183 -96q-56 0 -104.5 27t-77.5 77q-24 -45 -76.5 -74.5t-114.5 -29.5t-99 30.5t-37 81.5q0 40 20 71.5t49 51t70.5 33t76.5 19.5t74 9v74q0 104 -105 104q-39 0 -68 -14.5t-42 -35.5l4 1q17 0 27.5 -11t10.5 -29
q0 -20 -12.5 -32t-33.5 -12q-22 0 -35.5 14t-13.5 39q0 44 48.5 78.5t117.5 34.5q123 0 151 -92q30 45 76.5 68.5t96.5 23.5q84 0 131 -47t47 -127q0 -33 -5 -61l-324 -3v-15q0 -103 44.5 -158.5t115.5 -55.5q89 0 146 76zM665 298l2 14q1 10 1 28q0 54 -27.5 87t-83.5 33
q-55 0 -97 -43t-51 -132zM337 258v2v-1v-1zM197 23q56 0 101.5 32t54.5 78q-17 48 -17 107v12q-37 -4 -62.5 -8.5t-58 -15t-52.5 -25t-34.5 -39.5t-14.5 -58q0 -37 22 -60t61 -23z" />
    <glyph glyph-name="Oslashacute" unicode="&#x1fe;" horiz-adv-x="751" 
d="M305 744l102 125h92v-12l-163 -113h-31zM702 340q0 -155 -90.5 -254.5t-236.5 -99.5q-122 0 -208 72l-59 -68l-33 28l62 69q-89 98 -89 253t90.5 254t236.5 99q128 0 214 -77l64 73l33 -28l-67 -75q83 -97 83 -246zM375 656q-120 0 -184.5 -86.5t-64.5 -229.5
q0 -130 51 -211l378 446q-65 81 -180 81zM375 23q119 0 184.5 86.5t65.5 230.5q0 121 -47 203l-378 -445q64 -75 175 -75z" />
    <glyph glyph-name="oslashacute" unicode="&#x1ff;" horiz-adv-x="519" 
d="M192 580l88 175h77v-13l-139 -162h-26zM483 240q0 -112 -62 -183t-162 -71q-85 0 -143 52l-42 -48l-29 23l45 53q-54 70 -54 174q0 113 61.5 183t161.5 70q84 0 143 -51l42 48l29 -24l-45 -51q55 -69 55 -175zM130 110l240 294q-39 56 -111 56q-75 0 -113 -59t-38 -161
q0 -79 22 -130zM259 19q75 0 113 59.5t38 161.5q0 79 -22 130l-240 -294q38 -57 111 -57z" />
    <glyph glyph-name="Scommaaccent" unicode="&#x218;" horiz-adv-x="569" 
d="M514 173q0 -85 -61.5 -136t-156.5 -51q-121 0 -187 74l-19 -72h-28l1 259h30l21 -78q18 -69 64.5 -107.5t115.5 -38.5q73 0 117.5 34t44.5 93q0 24 -5.5 44t-20.5 35.5t-27 26t-38 22t-41.5 17.5t-48.5 17q-94 33 -147 79.5t-53 123.5q0 80 57.5 129t145.5 49
q104 0 167 -63l19 61h26l-1 -240h-29l-18 69q-36 136 -163 136q-65 0 -105.5 -32.5t-40.5 -87.5q0 -23 6 -42.5t23 -35.5t28 -25.5t41 -22.5t41 -17t47 -17q44 -16 74.5 -31.5t60.5 -39t45 -56.5t15 -76zM253 -245l-13 22q66 32 65 89q-10 -10 -27 -10t-28 11t-11 29
t13 30.5t32 12.5q26 0 40 -17.5t14 -46.5q0 -40 -24 -71.5t-61 -48.5z" />
    <glyph glyph-name="scommaaccent" unicode="&#x219;" horiz-adv-x="443" 
d="M389 128q0 -65 -44.5 -103.5t-115.5 -38.5q-87 0 -140 46l-12 -45h-25v184h29q6 -38 22 -77q32 -75 127 -75q49 0 77.5 24t28.5 64q0 24 -9 41.5t-31 31.5t-39.5 21t-53.5 20q-64 22 -101 54t-37 89t41 93t105 36q77 0 122 -42l13 42h24v-166h-30q-5 35 -22 70
q-29 63 -105 63q-44 0 -69 -22.5t-25 -55.5q0 -18 7 -32.5t15.5 -23t29 -18.5t32.5 -14.5t40 -14.5q68 -25 107 -57.5t39 -93.5zM187 -245l-13 22q66 32 65 89q-10 -10 -27 -10t-28 11t-11 29t13 30.5t32 12.5q26 0 40 -17.5t14 -46.5q0 -40 -24 -71.5t-61 -48.5z" />
    <glyph glyph-name="dotlessj" unicode="&#x237;" horiz-adv-x="314" 
d="M42 -243q-55 0 -88.5 22.5t-33.5 61.5q0 23 14.5 38.5t38.5 15.5q20 0 33 -12.5t13 -33.5q0 -19 -11.5 -30.5t-25.5 -11.5q18 -18 58 -18q109 0 109 141v481q0 16 -15 17l-94 7v23l154 34l26 -5l-8 -95v-446q0 -97 -49.5 -143t-120.5 -46z" />
    <glyph glyph-name="circumflex" unicode="&#x2c6;" horiz-adv-x="533" 
d="M259 707l-128 -127h-28l140 175h58l129 -175h-34z" />
    <glyph glyph-name="caron" unicode="&#x2c7;" horiz-adv-x="533" 
d="M289 580h-57l-129 175h34l137 -126l128 126h28z" />
    <glyph glyph-name="breve" unicode="&#x2d8;" horiz-adv-x="533" 
d="M272 603q-57 0 -93 35t-44 92l23 3q22 -82 114 -82q91 0 113 82l23 -3q-7 -57 -43 -92t-93 -35z" />
    <glyph glyph-name="dotaccent" unicode="&#x2d9;" horiz-adv-x="533" 
d="M266 614q-19 0 -32.5 13.5t-13.5 32.5t13.5 32.5t32.5 13.5t32.5 -13.5t13.5 -32.5t-13.5 -32.5t-32.5 -13.5z" />
    <glyph glyph-name="ring" unicode="&#x2da;" horiz-adv-x="533" 
d="M264 559q-46 0 -76.5 28.5t-30.5 72.5t31 72.5t76 28.5t75.5 -28.5t30.5 -72.5q0 -45 -30 -73t-76 -28zM263 580q35 0 54 22.5t19 57.5t-19 57t-54 22q-34 0 -53 -22t-19 -57t19 -57.5t53 -22.5z" />
    <glyph glyph-name="ogonek" unicode="&#x2db;" horiz-adv-x="498" 
d="M312 -239q-39 0 -65.5 23t-26.5 63q0 54 56 112q22 21 106 85l13 -14q-34 -28 -47.5 -40t-36.5 -37.5t-32.5 -50t-9.5 -53.5q0 -55 55 -55q51 0 94 67l23 -13q-52 -87 -129 -87z" />
    <glyph glyph-name="tilde" unicode="&#x2dc;" horiz-adv-x="533" 
d="M143 598q-21 33 -21 64t18.5 52t52.5 21q33 0 79 -37t70 -37q23 0 32.5 15.5t11.5 51.5l26 -1q0 -115 -85 -115q-31 0 -77.5 36.5t-69.5 36.5q-28 0 -28 -32q0 -22 12 -43z" />
    <glyph glyph-name="hungarumlaut" unicode="&#x2dd;" horiz-adv-x="514" 
d="M284 580l88 175h77v-13l-139 -162h-26zM143 580l89 175h77v-13l-139 -162h-27z" />
    <glyph glyph-name="pi" unicode="&#x3c0;" horiz-adv-x="662" 
d="M530 -7q-51 0 -82.5 35.5t-31.5 109.5v273h-167q0 -87 -10 -205.5t-28 -205.5h-51q24 81 38 199t14 212h-146l18 68h504v-68h-134v-272q0 -111 83 -111q22 0 40 3l5 -34q-27 -4 -52 -4z" />
    <glyph glyph-name="Wgrave" unicode="&#x1e80;" horiz-adv-x="1011" 
d="M565 744l-163 113v12h92l102 -125h-31zM504 577l-168 -588l-37 1l-200 621q-7 19 -27 24l-78 16v28h287v-28l-98 -15q-19 -4 -13 -23l125 -397l31 -112h4l165 578h42l152 -472l27 -104h5l138 501q7 24 -17 28l-87 15v29h262v-29l-84 -15q-27 -4 -32 -29l-175 -616h-36
l-155 488l-26 99h-5z" />
    <glyph glyph-name="wgrave" unicode="&#x1e81;" horiz-adv-x="737" 
d="M430 580l-138 162v13h76l89 -175h-27zM217 -10l-143 434q-4 14 -21 18l-61 12v25h230v-25l-68 -12q-18 -3 -10 -23l62 -207l33 -117h6l125 388h35l83 -272l30 -113h7l105 320q5 19 -12 23l-59 12v26h185v-25l-55 -14q-17 -4 -22 -22l-145 -428h-26l-91 288l-26 108h-6
l-130 -396h-26z" />
    <glyph glyph-name="Wacute" unicode="&#x1e82;" horiz-adv-x="1011" 
d="M441 744l102 125h92v-12l-163 -113h-31zM504 577l-168 -588l-37 1l-200 621q-7 19 -27 24l-78 16v28h287v-28l-98 -15q-19 -4 -13 -23l125 -397l31 -112h4l165 578h42l152 -472l27 -104h5l138 501q7 24 -17 28l-87 15v29h262v-29l-84 -15q-27 -4 -32 -29l-175 -616h-36
l-155 488l-26 99h-5z" />
    <glyph glyph-name="wacute" unicode="&#x1e83;" horiz-adv-x="737" 
d="M325 580l88 175h77v-13l-139 -162h-26zM373 386l-130 -396h-26l-143 434q-4 14 -21 18l-61 12v25h230v-25l-68 -12q-18 -3 -10 -23l62 -207l33 -117h6l125 388h35l83 -272l30 -113h7l105 320q5 19 -12 23l-59 12v26h185v-25l-55 -14q-17 -4 -22 -22l-145 -428h-26
l-91 288l-26 108h-6z" />
    <glyph glyph-name="Wdieresis" unicode="&#x1e84;" horiz-adv-x="1011" 
d="M421 744q-19 0 -32 13.5t-13 32.5q0 20 13 33.5t32 13.5t32.5 -13.5t13.5 -33.5q0 -19 -13.5 -32.5t-32.5 -13.5zM618 744q-19 0 -32.5 13.5t-13.5 32.5t13.5 33t32.5 14t32.5 -13.5t13.5 -33.5q0 -19 -13.5 -32.5t-32.5 -13.5zM299 -10l-200 621q-7 19 -27 24l-78 16v28
h287v-28l-98 -15q-19 -4 -13 -23l125 -397l31 -112h4l165 578h42l152 -472l27 -104h5l138 501q7 24 -17 28l-87 15v29h262v-29l-84 -15q-27 -4 -32 -29l-175 -616h-36l-155 488l-26 99h-5l-168 -588z" />
    <glyph glyph-name="wdieresis" unicode="&#x1e85;" horiz-adv-x="737" 
d="M290 614q-19 0 -32.5 13.5t-13.5 32.5t13.5 32.5t32.5 13.5t32.5 -13.5t13.5 -32.5t-13.5 -32.5t-32.5 -13.5zM474 614q-19 0 -32 13.5t-13 32.5t13 32.5t32 13.5t32.5 -13.5t13.5 -32.5t-13.5 -32.5t-32.5 -13.5zM373 386l-130 -396h-26l-143 434q-4 14 -21 18l-61 12
v25h230v-25l-68 -12q-18 -3 -10 -23l62 -207l33 -117h6l125 388h35l83 -272l30 -113h7l105 320q5 19 -12 23l-59 12v26h185v-25l-55 -14q-17 -4 -22 -22l-145 -428h-26l-91 288l-26 108h-6z" />
    <glyph glyph-name="Ygrave" unicode="&#x1ef2;" horiz-adv-x="665" 
d="M373 744l-163 113v12h92l102 -125h-31zM481 0h-304v28l101 17q16 2 16 18v212l-195 338q-11 19 -34 23l-71 14v29h285v-29l-95 -14q-20 -3 -9 -23l116 -207l51 -98h5l172 297q14 25 -11 30l-85 16v28h247v-29l-63 -13q-28 -6 -41 -29l-203 -344v-201q0 -15 17 -18
l101 -17v-28z" />
    <glyph glyph-name="ygrave" unicode="&#x1ef3;" horiz-adv-x="509" 
d="M302 580l-138 162v13h76l89 -175h-27zM80 -242q-34 0 -54 18.5t-20 46.5q0 24 15 39.5t38 15.5q20 0 33.5 -13t13.5 -32q0 -18 -10 -30t-23 -11l16 -3q33 0 65.5 41.5t83.5 168.5l6 16l-169 409q-6 15 -21 18l-62 12v25h231v-25l-66 -12q-19 -3 -11 -23l93 -235l33 -95h4
l125 330q7 18 -11 22l-57 12v26h183v-25l-54 -14q-15 -3 -22 -18l-154 -394q-45 -116 -80.5 -176t-61.5 -77t-64 -17z" />
    <glyph glyph-name="endash" unicode="&#x2013;" horiz-adv-x="580" 
d="M62 227v47h455v-47h-455z" />
    <glyph glyph-name="emdash" unicode="&#x2014;" horiz-adv-x="980" 
d="M62 227v47h856v-47h-856z" />
    <glyph glyph-name="quoteleft" unicode="&#x2018;" horiz-adv-x="306" 
d="M216 765l15 -28q-97 -54 -97 -145l1 -14q12 15 35 15q21 0 35 -14t14 -36q0 -24 -16 -38.5t-40 -14.5q-33 0 -51 23.5t-18 67.5q0 123 122 184z" />
    <glyph glyph-name="quoteright" unicode="&#x2019;" horiz-adv-x="301" 
d="M92 490l-15 28q97 54 97 145l-1 14q-12 -15 -35 -15q-21 0 -35 14t-14 36q0 24 16 38.5t40 14.5q33 0 51 -23.5t18 -67.5q0 -123 -122 -184z" />
    <glyph glyph-name="quotesinglbase" unicode="&#x201a;" horiz-adv-x="306" 
d="M90 -176l-15 28q97 54 97 145l-1 14q-12 -15 -35 -15q-21 0 -35 14t-14 36q0 24 16 38.5t40 14.5q33 0 51 -23.5t18 -67.5q0 -123 -122 -184z" />
    <glyph glyph-name="quotedblleft" unicode="&#x201c;" horiz-adv-x="479" 
d="M335 490q-33 0 -51 23.5t-18 67.5q0 123 122 184l15 -28q-97 -54 -97 -145l1 -14q12 15 35 15q21 0 35 -14t14 -36q0 -24 -16 -38.5t-40 -14.5zM163 490q-33 0 -51 23.5t-18 67.5q0 123 122 184l15 -28q-97 -54 -97 -145l1 -14q12 15 35 15q21 0 35 -14t14 -36
q0 -24 -16 -38.5t-40 -14.5z" />
    <glyph glyph-name="quotedblright" unicode="&#x201d;" horiz-adv-x="473" 
d="M264 490l-15 28q97 54 97 145l-1 14q-12 -15 -35 -15q-21 0 -35 14t-14 36q0 24 16 38.5t40 14.5q33 0 51 -23.5t18 -67.5q0 -123 -122 -184zM92 490l-15 28q97 54 97 145l-1 14q-12 -15 -35 -15q-21 0 -35 14t-14 36q0 24 16 38.5t40 14.5q33 0 51 -23.5t18 -67.5
q0 -123 -122 -184z" />
    <glyph glyph-name="quotedblbase" unicode="&#x201e;" horiz-adv-x="476" 
d="M261 -176l-15 28q97 54 97 145l-1 14q-12 -15 -35 -15q-21 0 -35 14t-14 36q0 24 16 38.5t40 14.5q33 0 51 -23.5t18 -67.5q0 -123 -122 -184zM90 -176l-15 28q97 54 97 145l-1 14q-12 -15 -35 -15q-21 0 -35 14t-14 36q0 24 16 38.5t40 14.5q33 0 51 -23.5t18 -67.5
q0 -123 -122 -184z" />
    <glyph glyph-name="dagger" unicode="&#x2020;" horiz-adv-x="583" 
d="M284 565q-5 61 -18 103.5t-13 57.5q0 20 11 31t27 11q17 0 27.5 -11t10.5 -31q0 -15 -13 -57.5t-17 -103.5h-15zM455 499q-14 0 -50 13t-86 17v16q49 5 85.5 17.5t50.5 12.5q20 0 31.5 -10.5t11.5 -27.5t-11.5 -27.5t-31.5 -10.5zM128 499q-20 0 -31.5 10.5t-11.5 27.5
t11.5 27.5t31.5 10.5q13 0 49.5 -12.5t86.5 -17.5v-16q-50 -4 -86.5 -17t-49.5 -13zM283 -170l-12 321q-2 38 -8.5 103t-6.5 87q0 31 12.5 80t15.5 87h15q3 -38 15.5 -87t12.5 -80q0 -22 -6.5 -87t-8.5 -103l-13 -321h-16z" />
    <glyph glyph-name="daggerdbl" unicode="&#x2021;" horiz-adv-x="583" 
d="M284 561q-3 61 -17 105t-14 59q0 20 11 31.5t27 11.5q17 0 27.5 -11.5t10.5 -31.5q0 -15 -13.5 -59t-16.5 -105h-15zM454 496q-13 0 -49 12.5t-86 16.5v16q49 6 85 18t50 12q21 0 32.5 -10.5t11.5 -27.5q0 -16 -12 -26.5t-32 -10.5zM128 496q-20 0 -31.5 10.5t-11.5 26.5
q0 17 11.5 27.5t31.5 10.5q14 0 50.5 -12t85.5 -18v-16q-50 -4 -86 -16.5t-50 -12.5zM284 196q-3 37 -11.5 82.5t-8.5 71.5t8.5 72t11.5 83h15q3 -37 11.5 -83t8.5 -72t-8.5 -71.5t-11.5 -82.5h-15zM454 130q-14 0 -50 12t-85 18v16q50 4 86 16.5t49 12.5q21 0 32.5 -10.5
t11.5 -27.5q0 -16 -12 -26.5t-32 -10.5zM128 130q-20 0 -31.5 10.5t-11.5 26.5q0 17 11.5 27.5t31.5 10.5q14 0 50 -12.5t86 -16.5v-16q-49 -6 -85.5 -18t-50.5 -12zM291 -113q-16 0 -27 11.5t-11 31.5q0 14 14.5 73.5t16.5 136.5h15q2 -77 16 -136.5t14 -73.5
q0 -20 -10.5 -31.5t-27.5 -11.5z" />
    <glyph glyph-name="bullet" unicode="&#x2022;" horiz-adv-x="442" 
d="M220 119q-55 0 -92.5 38t-37.5 93t37.5 93t92.5 38t93.5 -38t38.5 -93t-38.5 -93t-93.5 -38z" />
    <glyph glyph-name="ellipsis" unicode="&#x2026;" horiz-adv-x="720" 
d="M137 -8q-24 0 -41.5 16t-17.5 43t17.5 42.5t41.5 15.5t41 -15.5t17 -42.5t-17 -43t-41 -16zM359 -8q-24 0 -41.5 16t-17.5 43t17.5 42.5t41.5 15.5t41 -15.5t17 -42.5t-17 -43t-41 -16zM582 -8q-24 0 -41.5 16t-17.5 43t17.5 42.5t41.5 15.5t41 -15.5t17 -42.5t-17 -43
t-41 -16z" />
    <glyph glyph-name="perthousand" unicode="&#x2030;" horiz-adv-x="974" 
d="M181 345q-62 0 -102.5 41.5t-40.5 106.5q0 64 40.5 105.5t102.5 41.5q61 0 101.5 -41.5t40.5 -106.5q0 -64 -40 -105.5t-102 -41.5zM112 -11l-33 24l242 310l222 314l34 -24l-238 -303zM181 376q44 0 68 31.5t24 84.5q0 54 -24 85.5t-68 31.5t-68 -31.5t-24 -84.5
q0 -54 24 -85.5t68 -31.5zM794 -14q-61 0 -102 41.5t-41 106.5q0 64 41 105.5t102 41.5t101.5 -41t40.5 -106t-40 -106.5t-102 -41.5zM476 -14q-61 0 -102 41.5t-41 106.5q0 64 41 105.5t102 41.5q62 0 102 -41t40 -106t-40 -106.5t-102 -41.5zM794 17q44 0 68 31.5t24 85.5
q0 53 -24 84.5t-68 31.5t-68 -31t-24 -85t24 -85.5t68 -31.5zM476 17q44 0 68 31.5t24 85.5q0 53 -24 84.5t-68 31.5t-68 -31t-24 -85t24 -85.5t68 -31.5z" />
    <glyph glyph-name="guilsinglleft" unicode="&#x2039;" horiz-adv-x="336" 
d="M239 50l-180 186v27l180 188l19 -17l-137 -184l137 -183z" />
    <glyph glyph-name="guilsinglright" unicode="&#x203a;" horiz-adv-x="336" 
d="M277 236l-180 -186l-19 17l137 183l-137 184l19 17l180 -188v-27z" />
    <glyph glyph-name="asterism" unicode="&#x2042;" horiz-adv-x="870" 
d="M347 621q-5 40 -15 70.5t-10 43.5q0 15 9 25t24 10q14 0 23 -10t9 -25q0 -13 -10 -43.5t-14 -70.5h-16zM491 604q-7 -2 -38 -2.5t-69 -9.5l-4 14q36 18 62 38t35 23q7 3 15 3q15 0 24 -9.5t9 -23.5q0 -28 -34 -33zM218 604q-34 5 -34 33q0 14 9 23.5t24 9.5q7 0 15 -3
q9 -3 35 -22.5t63 -38.5l-5 -14q-37 9 -68.5 9.5t-38.5 2.5zM441 443q-15 0 -26 14q-9 11 -19.5 42t-30.5 65l13 8q28 -28 54.5 -46.5t34.5 -28.5q8 -11 8 -23t-10 -21.5t-24 -9.5zM268 443q-14 0 -24 9.5t-10 21.5t8 23q8 10 35 28.5t55 46.5l12 -8q-20 -34 -30.5 -65
t-19.5 -42q-11 -14 -26 -14zM630 325q-5 40 -15 70.5t-10 43.5q0 15 9 25t24 10q14 0 23 -10t9 -25q0 -13 -10 -43.5t-14 -70.5h-16zM774 308q-7 -2 -38 -2.5t-69 -9.5l-4 14q36 18 62 38t35 23q8 3 15 3q15 0 24 -9.5t9 -23.5q0 -28 -34 -33zM501 308q-34 5 -34 33
q0 14 9 23.5t24 9.5q8 0 15 -3q9 -3 35 -22.5t63 -38.5l-5 -14q-37 9 -68.5 9.5t-38.5 2.5zM247 219h-16q-5 40 -15 70.5t-10 43.5q0 15 9 25t24 10q14 0 23 -10t9 -25q0 -13 -10 -43.5t-14 -70.5zM724 147q-15 0 -26 14q-9 11 -19.5 42t-30.5 65l13 8q28 -28 54.5 -46.5
t34.5 -28.5q8 -11 8 -23t-10 -21.5t-24 -9.5zM551 147q-14 0 -24 9.5t-10 21.5t8 23q8 10 35 28.5t55 46.5l12 -8q-20 -34 -30.5 -65t-19.5 -42q-11 -14 -26 -14zM268 190l-4 14q36 18 62 38t35 23q8 3 15 3q15 0 24 -9.5t9 -23.5q0 -28 -34 -33q-7 -2 -38 -2.5t-69 -9.5z
M209 190q-37 9 -68.5 9.5t-38.5 2.5q-34 5 -34 33q0 14 9 23.5t24 9.5q7 0 15 -3q9 -3 35 -22.5t63 -38.5zM325 41q-15 0 -26 14q-9 11 -19.5 42t-30.5 65l13 8q28 -28 54.5 -46.5t34.5 -28.5q8 -11 8 -23t-10 -21.5t-24 -9.5zM152 41q-14 0 -24 9.5t-10 21.5t8 23
q8 10 35 28.5t55 46.5l12 -8q-20 -34 -30.5 -65t-19.5 -42q-11 -14 -26 -14z" />
    <glyph glyph-name="fraction" unicode="&#x2044;" horiz-adv-x="668" 
d="M116 -15l-36 25l248 335l225 349l36 -25l-248 -334z" />
    <glyph glyph-name="zero.sups" unicode="&#x2070;" horiz-adv-x="391" 
d="M196 490q-69 0 -111 51.5t-42 135.5t42 136.5t111 52.5t111 -52.5t42 -136.5t-42 -135.5t-111 -51.5zM195 511q94 0 94 166q0 168 -94 168q-92 0 -92 -168q0 -166 92 -166z" />
    <glyph glyph-name="four.sups" unicode="&#x2074;" horiz-adv-x="343" 
d="M190 630v180l-138 -179zM303 519v-19h-176v18l53 9q10 3 10 11v71h-160l-5 17l175 230h44v-227h3h16q13 0 19 4t11 16l11 27h17l-10 -67h-67v-71q0 -10 11 -11z" />
    <glyph glyph-name="five.sups" unicode="&#x2075;" horiz-adv-x="329" 
d="M143 490q-50 0 -79 18.5t-29 46.5q0 16 10 26t26 10q15 0 23.5 -8.5t8.5 -21.5q0 -14 -7.5 -22t-17.5 -7q18 -22 63 -22q44 0 69 26t25 74q0 88 -79 88q-40 0 -72 -34l-28 3l26 189h19q34 -13 94 -13q63 0 91 19l9 -7q-29 -60 -115 -60q-54 0 -83 9l-16 -112q36 26 87 26
q53 0 90.5 -26t37.5 -80q0 -55 -46 -88.5t-107 -33.5z" />
    <glyph glyph-name="six.sups" unicode="&#x2076;" horiz-adv-x="362" 
d="M325 612q0 -55 -40.5 -88.5t-99.5 -33.5q-62 0 -101 40.5t-39 122.5q0 100 49 156.5t124 56.5q44 0 72.5 -18t28.5 -44q0 -16 -10 -26t-25 -10t-24 9t-9 22t8.5 21t19.5 8q-17 19 -58 19q-110 0 -121 -189q25 65 101 65q54 0 89 -29t35 -82zM107 608q0 -46 20.5 -72.5
t57.5 -26.5q79 0 79 100q0 92 -72 92q-39 0 -62 -25t-23 -68z" />
    <glyph glyph-name="seven.sups" unicode="&#x2077;" horiz-adv-x="310" 
d="M139 495q-33 0 -33 34q0 33 25 87.5t58 101.5q37 51 69 92l-9 1h-151q-17 0 -24.5 -4t-12.5 -17l-11 -30h-18l15 110h18q2 -14 16 -14h215v-18q-58 -74 -82 -131q-30 -68 -37 -171q-2 -41 -38 -41z" />
    <glyph glyph-name="eight.sups" unicode="&#x2078;" horiz-adv-x="362" 
d="M179 490q-60 0 -99 25.5t-39 69.5q0 36 25.5 59.5t65.5 33.5q-74 34 -74 91q0 43 36 70t91 27t89 -23t34 -62q0 -28 -21.5 -49t-54.5 -32q43 -17 66.5 -39.5t23.5 -60.5q0 -49 -40 -79.5t-103 -30.5zM215 707l9 4q40 25 40 71q0 30 -20 47.5t-58 17.5q-39 0 -61 -17
t-22 -42q0 -20 17 -35.5t32.5 -22t51.5 -19.5q5 -2 8 -3zM181 510q45 0 68.5 18.5t23.5 48.5q0 33 -25 51t-77 35l-24 9q-59 -25 -59 -88q0 -35 24.5 -54.5t68.5 -19.5z" />
    <glyph glyph-name="nine.sups" unicode="&#x2079;" horiz-adv-x="361" 
d="M258 749q0 46 -20.5 72t-57.5 26q-79 0 -79 -99q0 -93 72 -93q38 0 61.5 25.5t23.5 68.5zM147 490q-44 0 -72.5 18t-28.5 45q0 16 10 25.5t25 9.5t24 -8.5t9 -22.5q0 -12 -8 -20t-20 -8q17 -19 58 -19q110 0 121 189q-25 -66 -101 -66q-54 0 -89 29.5t-35 82.5
q0 55 40 88t100 33q62 0 101 -40t39 -122q0 -100 -49 -157t-124 -57z" />
    <glyph glyph-name="plus.sups" unicode="&#x207a;" horiz-adv-x="369" 
d="M198 667v-125h-26v125h-125v26h125v124h26v-124h125v-26h-125z" />
    <glyph glyph-name="minus.sups" unicode="&#x207b;" horiz-adv-x="369" 
d="M47 667v26h276v-26h-276z" />
    <glyph glyph-name="equal.sups" unicode="&#x207c;" horiz-adv-x="369" 
d="M47 726v26h276v-26h-276zM323 606h-276v26h276v-26z" />
    <glyph glyph-name="parenleft.sups" unicode="&#x207d;" horiz-adv-x="264" 
d="M228 405q-150 113 -150 273v4q0 160 150 273l12 -16q-43 -33 -74 -99.5t-31 -157.5v-4q0 -91 31 -157.5t74 -99.5z" />
    <glyph glyph-name="parenright.sups" unicode="&#x207e;" horiz-adv-x="264" 
d="M186 678q0 -160 -150 -273l-12 16q43 33 74 99.5t31 157.5v4q0 91 -31 157.5t-74 99.5l12 16q150 -113 150 -273v-4z" />
    <glyph glyph-name="n.sups" unicode="&#x207f;" horiz-adv-x="467" 
d="M219 520v-20h-179v20l52 11q11 2 11 15v240q0 13 -13 14l-54 4v19l99 22l19 -4l-5 -108q14 52 47.5 84t82.5 32q48 0 73.5 -28t25.5 -80v-195q0 -13 12 -15l52 -11v-20h-180v20l51 11q11 2 11 15v194q0 79 -61 79q-48 0 -77 -50t-29 -120v-103q0 -13 12 -15z" />
    <glyph glyph-name="zero.sinf" unicode="&#x2080;" horiz-adv-x="391" 
d="M196 -174q-69 0 -111 51.5t-42 135.5t42 136.5t111 52.5t111 -52.5t42 -136.5t-42 -135.5t-111 -51.5zM195 -153q94 0 94 166q0 168 -94 168q-92 0 -92 -168q0 -166 92 -166z" />
    <glyph glyph-name="one.sinf" unicode="&#x2081;" horiz-adv-x="304" 
d="M54 -164v19l68 9q10 1 10 9v254q0 13 -6.5 18.5t-26.5 7.5l-45 5v14l55 6q49 5 61 18h20q-3 -30 -3 -58v-265q0 -8 10 -9l65 -9v-19h-208z" />
    <glyph glyph-name="two.sinf" unicode="&#x2082;" horiz-adv-x="338" 
d="M289 -164h-243q0 10 -3 25q92 77 129 119q64 70 64 132q0 70 -76 70q-29 0 -52 -13.5t-30 -34.5l9 3q13 0 21 -7.5t8 -19.5q0 -14 -9 -23t-23 -9q-16 0 -26 10t-10 28q0 36 34 61t87 25q54 0 90 -24t36 -70q0 -40 -24 -70.5t-74 -70.5q-7 -6 -47 -37.5t-59 -47.5h148
q15 0 21.5 4.5t10.5 16.5l10 29h18z" />
    <glyph glyph-name="three.sinf" unicode="&#x2083;" horiz-adv-x="345" 
d="M146 -174q-48 0 -81 18.5t-33 45.5q0 16 10 26t26 10q15 0 23.5 -8.5t8.5 -21.5t-7 -21.5t-14 -6.5q22 -22 67 -22q47 0 75.5 26t28.5 74q0 78 -67 78q-22 0 -43.5 -13t-30.5 -13q-21 0 -21 22q31 14 71 17q35 15 55 35.5t20 54.5q0 26 -18 41t-50 15q-54 0 -78 -33h1
q12 0 20.5 -8t8.5 -20q0 -13 -9 -22t-23 -9q-16 0 -26 10t-10 27q0 30 36 52t85 22q53 0 87 -20t34 -54q0 -33 -28 -52.5t-81 -37.5l1 -3q14 2 21 2q45 0 75 -22.5t30 -67.5q0 -55 -50 -88t-114 -33z" />
    <glyph glyph-name="four.sinf" unicode="&#x2084;" horiz-adv-x="343" 
d="M190 -34v180l-138 -179zM303 -145v-19h-176v18l53 9q10 3 10 11v71h-160l-5 17l175 230h44v-227h3h16q13 0 19 4t11 16l11 27h17l-10 -67h-67v-71q0 -10 11 -11z" />
    <glyph glyph-name="five.sinf" unicode="&#x2085;" horiz-adv-x="329" 
d="M143 -174q-50 0 -79 18.5t-29 46.5q0 16 10 26t26 10q15 0 23.5 -8.5t8.5 -21.5q0 -14 -7.5 -22t-17.5 -7q18 -22 63 -22q44 0 69 26t25 74q0 88 -79 88q-40 0 -72 -34l-28 3l26 189h19q34 -13 94 -13q63 0 91 19l9 -7q-29 -60 -115 -60q-54 0 -83 9l-16 -112
q36 26 87 26q53 0 90.5 -26t37.5 -80q0 -55 -46 -88.5t-107 -33.5z" />
    <glyph glyph-name="six.sinf" unicode="&#x2086;" horiz-adv-x="362" 
d="M325 -52q0 -55 -40.5 -88.5t-99.5 -33.5q-62 0 -101 40.5t-39 122.5q0 100 49 156.5t124 56.5q44 0 72.5 -18t28.5 -44q0 -16 -10 -26t-25 -10t-24 9t-9 22t8.5 21t19.5 8q-17 19 -58 19q-110 0 -121 -189q25 65 101 65q54 0 89 -29t35 -82zM107 -56q0 -46 20.5 -72.5
t57.5 -26.5q79 0 79 100q0 92 -72 92q-39 0 -62 -25t-23 -68z" />
    <glyph glyph-name="seven.sinf" unicode="&#x2087;" horiz-adv-x="310" 
d="M139 -169q-33 0 -33 34q0 33 25 87.5t58 101.5q37 51 69 92l-9 1h-151q-17 0 -24.5 -4t-12.5 -17l-11 -30h-18l15 110h18q2 -14 16 -14h215v-18q-58 -74 -82 -131q-30 -68 -37 -171q-2 -41 -38 -41z" />
    <glyph glyph-name="eight.sinf" unicode="&#x2088;" horiz-adv-x="362" 
d="M179 -174q-60 0 -99 25.5t-39 69.5q0 36 25.5 59.5t65.5 33.5q-74 34 -74 91q0 43 36 70t91 27t89 -23t34 -62q0 -28 -21.5 -49t-54.5 -32q43 -17 66.5 -39.5t23.5 -60.5q0 -49 -40 -79.5t-103 -30.5zM215 43l9 4q40 25 40 71q0 30 -20 47.5t-58 17.5q-39 0 -61 -17
t-22 -42q0 -20 17 -35.5t32.5 -22t51.5 -19.5q5 -2 8 -3zM181 -154q45 0 68.5 18.5t23.5 48.5q0 33 -25 51t-77 35l-24 9q-59 -25 -59 -88q0 -35 24.5 -54.5t68.5 -19.5z" />
    <glyph glyph-name="nine.sinf" unicode="&#x2089;" horiz-adv-x="361" 
d="M258 85q0 46 -20.5 72t-57.5 26q-79 0 -79 -99q0 -93 72 -93q38 0 61.5 25.5t23.5 68.5zM147 -174q-44 0 -72.5 18t-28.5 45q0 16 10 25.5t25 9.5t24 -8.5t9 -22.5q0 -12 -8 -20t-20 -8q17 -19 58 -19q110 0 121 189q-25 -66 -101 -66q-54 0 -89 29.5t-35 82.5
q0 55 40 88t100 33q62 0 101 -40t39 -122q0 -100 -49 -157t-124 -57z" />
    <glyph glyph-name="parenleft.sinf" unicode="&#x208d;" horiz-adv-x="264" 
d="M228 -259q-150 113 -150 273v4q0 160 150 273l12 -16q-43 -33 -74 -99.5t-31 -157.5v-4q0 -91 31 -157.5t74 -99.5z" />
    <glyph glyph-name="parenright.sinf" unicode="&#x208e;" horiz-adv-x="264" 
d="M186 14q0 -160 -150 -273l-12 16q43 33 74 99.5t31 157.5v4q0 91 -31 157.5t-74 99.5l12 16q150 -113 150 -273v-4z" />
    <glyph glyph-name="franc" unicode="&#x20a3;" 
d="M237 337h105q23 0 34 7t17 31l23 80h27v-273h-27l-23 81q-6 24 -17 31t-34 7h-105v-230q0 -24 22 -26l108 -17v-28h-315v28l99 17q17 3 17 18v501q0 14 -17 17l-99 17v28h496l10 -166h-34l-24 68q-13 40 -33.5 50.5t-79.5 10.5h-74q-36 0 -76 -2v-250z" />
    <glyph glyph-name="Euro" unicode="&#x20ac;" 
d="M509 -8l-17 70q-53 -76 -151 -76q-96 0 -157 61t-79 171l-87 11v23l82 7q-2 36 -2 54t2 52l-82 9v22l87 11q18 111 79 172t157 61q98 0 150 -75l18 69h27l-5 -234h-35l-15 66q-15 69 -47.5 105t-92.5 36q-143 0 -165 -203h200l-8 -30l-195 -6q-1 -18 -1 -55t1 -54h171
l-8 -30l-159 -8q21 -202 164 -202q60 0 93.5 36t47.5 105l14 66h35l5 -234h-27z" />
    <glyph glyph-name="litre" unicode="&#x2113;" horiz-adv-x="457" 
d="M252 -12q-51 0 -83 29t-32 91v108q-37 -24 -74 -42l-13 26q48 26 87 51v327q0 113 115 113q52 0 80 -35.5t28 -101.5q0 -162 -154 -289v-158q0 -44 15 -62t48 -18q29 0 46.5 17.5t31.5 60.5l30 -9q-30 -108 -125 -108zM206 305l7 7q112 105 112 243q0 99 -64 99
q-55 0 -55 -67v-282z" />
    <glyph glyph-name="servicemark" unicode="&#x2120;" horiz-adv-x="807" 
d="M517 365l-89 205l-22 58h-2v-220q0 -12 12 -15l41 -9v-18h-133v18l42 9q12 3 12 15v234q0 10 -9 11l-45 8v18h105l83 -193l24 -66h2l113 259h101v-13l-40 -8q-9 -1 -9 -11v-244q0 -10 9 -11l40 -8v-18h-147v18l44 8q9 1 9 11v224h-2l-116 -262h-23zM281 450
q0 -46 -31 -70t-78 -24q-62 0 -93 35l-7 -32h-17v125h21l11 -37q11 -35 31 -51t56 -16q34 0 54.5 14t20.5 41q0 16 -5 27t-20 19t-25.5 12t-37.5 12q-50 15 -75 37t-25 57q0 42 30 66t73 24q54 0 82 -33l8 30h16v-109h-22l-6 27q-13 61 -77 61q-33 0 -51.5 -15t-18.5 -39
q0 -26 17.5 -37.5t59.5 -24.5q9 -3 14 -4q51 -16 73 -37.5t22 -57.5z" />
    <glyph glyph-name="trademark" unicode="&#x2122;" horiz-adv-x="859" 
d="M274 384v-18h-162v18l48 8q10 1 10 11v250h-57q-19 0 -25.5 -4t-9.5 -17l-12 -56h-19l5 103h282l4 -103h-18l-13 56q-3 12 -10 16.5t-25 4.5h-57v-250q0 -10 10 -11zM569 365l-89 205l-22 58h-2v-220q0 -12 12 -15l41 -9v-18h-133v18l42 9q12 3 12 15v234q0 10 -9 11
l-45 8v18h105l83 -193l24 -66h2l113 259h101v-13l-40 -8q-9 -1 -9 -11v-244q0 -10 9 -11l40 -8v-18h-147v18l44 8q9 1 9 11v224h-2l-116 -262h-23z" />
    <glyph glyph-name="ohm" unicode="&#x2126;" horiz-adv-x="742" 
d="M74 0v39h205q-88 58 -145 143.5t-57 194.5q0 151 86 233t208 82t208 -82t86 -233q0 -109 -57 -194.5t-145 -143.5h205v-39h-250v42q177 150 177 332q0 138 -64 210t-160 72q-95 0 -159 -72t-64 -210q0 -183 176 -332v-42h-250z" />
    <glyph glyph-name="estimated" unicode="&#x212e;" horiz-adv-x="755" 
d="M587 369v215q-76 73 -204 73q-131 0 -215 -89v-199h419zM662 144q-98 -158 -298 -158q-145 0 -234.5 96t-89.5 258q0 158 97.5 255t245.5 97q149 0 239.5 -86.5t90.5 -244.5q0 -21 -1 -31h-544v-228q76 -81 199 -81q174 0 263 143z" />
    <glyph glyph-name="arrowleft" unicode="&#x2190;" horiz-adv-x="900" 
d="M439 21l-11 -9q-134 131 -316 222q-12 6 -12 12t12 12q182 91 316 222l11 -9q-44 -63 -108 -121.5t-125 -86.5q249 0 594 13v-60q-345 13 -594 13q61 -28 125 -86.5t108 -121.5z" />
    <glyph glyph-name="arrowup" unicode="&#x2191;" horiz-adv-x="900" 
d="M480 -103h-60q13 345 13 594q-28 -60 -86 -124t-122 -108l-9 10q131 134 222 316q6 12 12 12t12 -12q90 -180 222 -315l-9 -11q-64 44 -122 108t-86 124q0 -249 13 -594z" />
    <glyph glyph-name="arrowright" unicode="&#x2192;" horiz-adv-x="900" 
d="M472 12l-11 9q44 63 108 121.5t125 86.5q-250 0 -594 -13v60q345 -13 594 -13q-61 28 -125 86.5t-108 121.5l11 9q134 -131 316 -222q12 -6 12 -12t-12 -12q-182 -91 -316 -222z" />
    <glyph glyph-name="arrowdown" unicode="&#x2193;" horiz-adv-x="900" 
d="M462 -93q-6 -12 -12 -12t-12 12q-90 180 -222 315l9 11q64 -44 122 -108t86 -124q0 250 -13 594h60q-13 -345 -13 -594q28 60 86 124t122 108l9 -10q-131 -134 -222 -316z" />
    <glyph glyph-name="arrownorthwest" unicode="&#x2196;" horiz-adv-x="900" 
d="M711 25l-42 -42q-222 239 -410 428q23 -63 26.5 -151t-10.5 -160l-13 1q-3 189 -66 380q-4 13 -1 18q5 3 17 -1q192 -64 380 -66l2 -14q-71 -14 -160.5 -9.5t-151.5 26.5q165 -166 429 -410z" />
    <glyph glyph-name="arrownortheast" unicode="&#x2197;" horiz-adv-x="900" 
d="M642 412q-202 -203 -410 -429l-42 42q261 243 428 410q-63 -23 -151 -26.5t-160 10.5l1 13q189 3 380 66q14 5 18 1q3 -6 -1 -17q-63 -187 -66 -381l-14 -1q-14 71 -9.5 160.5t26.5 151.5z" />
    <glyph glyph-name="arrowsoutheast" unicode="&#x2198;" horiz-adv-x="900" 
d="M705 -15q-5 -5 -17 0q-192 64 -380 66l-2 14q72 14 160.5 10t151.5 -27q-176 178 -429 411l42 42q208 -226 410 -429q-23 63 -26.5 151.5t10.5 160.5l13 -2q3 -189 66 -380q4 -13 1 -17z" />
    <glyph glyph-name="arrowsouthwest" unicode="&#x2199;" horiz-adv-x="900" 
d="M195 -15q-3 4 1 17q63 191 66 380l13 1q14 -72 10.5 -160t-26.5 -151q202 203 410 429l42 -42q-281 -262 -429 -411q62 22 151.5 26.5t160.5 -9.5l-2 -14q-188 -2 -380 -66q-12 -5 -17 0z" />
    <glyph glyph-name="partialdiff" unicode="&#x2202;" horiz-adv-x="607" 
d="M328 -15q-98 0 -158 66t-60 173q0 106 60 172t154 66q80 0 141 -43q-31 235 -184 235q-64 0 -131 -32l-11 25q80 42 150 42q255 0 255 -390q0 -154 -60.5 -234t-155.5 -80zM328 19q145 0 145 272q0 29 -2 75q-60 64 -142 64q-74 0 -110.5 -55.5t-36.5 -153.5
q0 -93 37 -147.5t109 -54.5z" />
    <glyph glyph-name="increment" unicode="&#x2206;" horiz-adv-x="724" 
d="M27 0l310 679h50l310 -679h-670zM89 38h515l-256 568z" />
    <glyph glyph-name="product" unicode="&#x220f;" horiz-adv-x="771" 
d="M218 -115v725h-158v69h651v-69h-158v-725h-39v725h-257v-725h-39z" />
    <glyph glyph-name="summation" unicode="&#x2211;" horiz-adv-x="549" 
d="M499 -77v-38h-453v38l274 368l-264 354v34h437v-38h-347l243 -326l-294 -392h404z" />
    <glyph glyph-name="minus" unicode="&#x2212;" horiz-adv-x="550" 
d="M56 229v42h438v-42h-438z" />
    <glyph glyph-name="radical" unicode="&#x221a;" horiz-adv-x="618" 
d="M314 -12h-36l-125 485l-114 -50l-15 36l183 80l107 -431l236 657h39z" />
    <glyph glyph-name="infinity" unicode="&#x221e;" horiz-adv-x="583" 
d="M434 134q48 0 77.5 32.5t29.5 90.5q0 54 -32 83.5t-79 29.5q-77 0 -125 -77q8 -18 12 -28q26 -68 50 -99.5t67 -31.5zM154 130q76 0 124 76q-4 9 -12 29q-26 68 -50 99.5t-67 31.5q-48 0 -77.5 -32.5t-29.5 -90.5q0 -54 32.5 -83.5t79.5 -29.5zM573 257q0 -70 -43 -114.5
t-107 -44.5q-82 0 -131 83q-25 -38 -61 -61.5t-77 -23.5q-63 0 -103.5 39t-40.5 108q0 71 42.5 115t108.5 44q81 0 130 -83q57 85 139 85q62 0 102.5 -39.5t40.5 -107.5z" />
    <glyph glyph-name="integral" unicode="&#x222b;" horiz-adv-x="440" 
d="M63 -238v41q109 0 109 106v700q0 164 139 164q49 0 86 -13l-13 -37q-32 10 -62 10q-43 0 -62.5 -29t-19.5 -95v-689q0 -158 -177 -158z" />
    <glyph glyph-name="approxequal" unicode="&#x2248;" horiz-adv-x="533" 
d="M391 290q-45 0 -119 30.5t-111 30.5q-35 0 -51.5 -14.5t-17.5 -51.5h-36q0 47 26 76t77 29q44 0 118.5 -30.5t111.5 -30.5q35 0 51.5 14t17.5 51h36q0 -47 -26 -75.5t-77 -28.5zM391 109q-45 0 -119 30.5t-111 30.5q-35 0 -51.5 -14.5t-17.5 -51.5h-36q0 47 26 76t77 29
q44 0 118.5 -30.5t111.5 -30.5q35 0 51.5 14t17.5 51h36q0 -47 -26 -75.5t-77 -28.5z" />
    <glyph glyph-name="notequal" unicode="&#x2260;" horiz-adv-x="550" 
d="M223 141l-88 -128l-31 21l74 107h-122v42h151l101 148h-252v42h281l78 113l31 -22l-63 -91h111v-42h-140l-102 -148h242v-42h-271z" />
    <glyph glyph-name="lessequal" unicode="&#x2264;" horiz-adv-x="550" 
d="M475 0h-415v39h363l-363 189v36l399 205l17 -36l-374 -188l373 -194l-1 -1h1v-50z" />
    <glyph glyph-name="greaterequal" unicode="&#x2265;" horiz-adv-x="550" 
d="M490 0h-415v50h1l-1 1l373 194l-374 188l17 36l399 -205v-36l-363 -189h363v-39z" />
    <glyph glyph-name="blackuppointingtriangle" unicode="&#x25b2;" 
d="M539 52h-479l240 414z" />
    <glyph glyph-name="blackrightpointingtriangle" unicode="&#x25b6;" 
d="M531 246l-415 -239v479z" />
    <glyph glyph-name="blackdownpointingtriangle" unicode="&#x25bc;" 
d="M539 440l-240 -414l-239 414h479z" />
    <glyph glyph-name="blackleftpointingtriangle" unicode="&#x25c0;" 
d="M484 7l-415 239l415 240v-479z" />
    <glyph glyph-name="lozenge" unicode="&#x25ca;" horiz-adv-x="631" 
d="M296 -230l-241 455l241 454h38l242 -454l-242 -455h-38zM315 -169l207 396l-207 395l-206 -397z" />
    <glyph glyph-name="blacklowerrighttriangle" unicode="&#x25e2;" 
d="M531 353l-339 -339l-123 463z" />
    <glyph glyph-name="blacklowerlefttriangle" unicode="&#x25e3;" 
d="M69 14l123 463l339 -338z" />
    <glyph glyph-name="blackupperlefttriangle" unicode="&#x25e4;" 
d="M408 477l124 -463l-463 125z" />
    <glyph glyph-name="blackupperrighttriangle" unicode="&#x25e5;" 
d="M408 15l-339 339l463 124z" />
    <glyph glyph-name="heart" unicode="&#x2665;" horiz-adv-x="793" 
d="M396 509q26 185 167 185q81 0 127 -52t46 -136q0 -56 -38 -122t-88 -120.5t-114 -132t-100 -141.5q-36 64 -99.5 141.5t-113.5 132t-88 120.5t-38 122q0 84 46 136t127 52q144 0 166 -185z" />
    <glyph glyph-name="Rcedilla" unicode="&#xe001;" horiz-adv-x="683" 
d="M312 346q191 0 191 153q0 82 -46.5 113.5t-150.5 31.5q-35 0 -83 -4v-290q41 -4 89 -4zM339 28v-28h-300v28l99 17q17 3 17 18v552q0 15 -17 18l-99 17v28h33q32 0 113 1.5t119 1.5q278 0 278 -180q0 -66 -45 -112t-112 -62q14 -17 37 -64l89 -186q8 -17 17.5 -24
t28.5 -10l79 -13v-30h-168l-138 312q-26 -3 -57 -3q-37 0 -90 5v-251q0 -14 17 -18zM344 -243q-50 0 -88 24l15 23q34 -17 66 -17q34 0 55 16t21 47q0 27 -14.5 41t-38.5 14q-19 0 -34 -6l-11 17q30 16 63 16q37 0 64 -21t27 -59q0 -45 -37.5 -70t-87.5 -25z" />
    <glyph glyph-name="rcedilla" unicode="&#xe002;" horiz-adv-x="431" 
d="M294 0h-250v27l77 15q15 3 15 19v354q0 16 -15 17l-82 6v24l131 29l24 -5l-9 -194q16 89 57 145t103 56q31 0 49.5 -16.5t18.5 -41.5q0 -23 -14 -38t-36 -15q-21 0 -34 12.5t-13 32.5q0 26 21 36q-62 -3 -100.5 -84t-38.5 -188v-130q0 -16 16 -19l80 -15v-27zM146 -243
q-50 0 -88 24l15 23q34 -17 66 -17q34 0 55 16t21 47q0 27 -14.5 41t-38.5 14q-19 0 -34 -6l-11 17q30 16 63 16q37 0 64 -21t27 -59q0 -45 -37.5 -70t-87.5 -25z" />
    <glyph glyph-name="Tcedilla" unicode="&#xe003;" horiz-adv-x="665" 
d="M489 28v-28h-316v28l108 17q17 3 17 18v580h-122q-48 0 -65 -8.5t-29 -48.5l-24 -73h-30l8 166h593l8 -166h-32l-24 73q-12 40 -28.5 48.5t-64.5 8.5h-121v-580q0 -16 17 -18zM302 -243q-50 0 -88 24l15 23q34 -17 66 -17q34 0 55 16t21 47q0 27 -14.5 41t-38.5 14
q-19 0 -34 -6l-11 17q30 16 63 16q37 0 64 -21t27 -59q0 -45 -37.5 -70t-87.5 -25z" />
    <glyph glyph-name="tcedilla" unicode="&#xe004;" horiz-adv-x="363" 
d="M222 -12q-115 0 -115 120v329l-95 8v29l59 8q25 4 36 16t17 34q17 85 18 94h33l-5 -147h173v-31l-173 -8v-331q0 -82 67 -82q29 0 48 18t33 60l30 -9q-30 -108 -126 -108zM169 -243q-50 0 -88 24l15 23q34 -17 66 -17q34 0 55 16t21 47q0 27 -14.5 41t-38.5 14
q-19 0 -34 -6l-11 17q30 16 63 16q37 0 64 -21t27 -59q0 -45 -37.5 -70t-87.5 -25z" />
    <glyph glyph-name="commaaccent" unicode="&#xf6c3;" horiz-adv-x="384" 
d="M165 -245l-13 22q66 32 65 89q-10 -10 -27 -10t-28 11t-11 29t13 30.5t32 12.5q26 0 40 -17.5t14 -46.5q0 -40 -24 -71.5t-61 -48.5z" />
    <glyph glyph-name="s_t" unicode="&#xfb06;" horiz-adv-x="805" 
d="M389 128q0 -65 -44.5 -103.5t-115.5 -38.5q-87 0 -140 46l-12 -45h-25v184h29q6 -38 22 -77q32 -75 127 -75q49 0 77.5 24t28.5 64q0 24 -9 41.5t-31 31.5t-39.5 21t-53.5 20q-64 22 -101 54t-37 89t40 92t103 35q34 0 61 -18q-34 50 -34 121q0 77 52 132t142 55
q87 0 136.5 -51t49.5 -135q0 -22 -2 -63t-2 -53h173v-31l-173 -8v-331q0 -82 67 -82q29 0 48 18t33 60l30 -9q-28 -108 -125 -108q-116 0 -116 120v329l-95 8v29l59 8q38 7 53 41q15 29 15 77q0 69 -38.5 111t-113.5 42q-76 0 -118.5 -46t-42.5 -115q0 -122 117 -223
q-9 -24 -31 -24q-11 0 -19.5 7.5t-21 29.5t-16.5 27q-35 51 -85 51q-42 0 -67 -22t-25 -56q0 -18 7 -32.5t15.5 -23t29 -18.5t32.5 -14.5t40 -14.5q68 -25 107 -57.5t39 -93.5z" />
    <glyph glyph-name="A.small" horiz-adv-x="574" 
d="M364 196l-55 147l-36 104h-5l-95 -251h191zM199 26v-26h-200v26l62 16q17 4 24 21l145 375l33 90h39l186 -469q6 -15 22 -18l63 -15v-26h-241v26l71 15q19 2 10 25l-36 97h-216l-36 -95q-9 -23 10 -28z" />
    <glyph glyph-name="B.small" horiz-adv-x="543" 
d="M36 0v27l79 15q15 3 15 19v400q0 16 -15 19l-79 16v26h245q86 0 141 -28.5t55 -92.5q0 -49 -39 -81t-103 -41v-6q168 -13 168 -127q0 -70 -57.5 -108t-161.5 -38h-248zM196 291h72q73 0 104 24.5t31 79.5q0 54 -33.5 74t-106.5 20q-37 0 -67 -3v-195zM236 33h43
q77 0 112 26t35 88t-40 87t-119 25h-71v-192q0 -19 9 -26.5t31 -7.5z" />
    <glyph glyph-name="C.small" horiz-adv-x="567" 
d="M495 187l1 -201h-27l-14 61q-61 -61 -158 -61q-108 0 -179.5 76.5t-71.5 198.5q0 121 71.5 198t178.5 77q102 0 160 -61l15 60h26l-2 -204h-29l-15 56q-33 116 -151 116q-83 0 -131.5 -65t-48.5 -176q0 -113 48.5 -178t131.5 -65q114 0 149 112l17 56h29z" />
    <glyph glyph-name="D.small" 
d="M36 0v27l79 15q15 3 15 19v400q0 16 -15 19l-79 16v26h236q134 0 208 -71t74 -190t-74.5 -190t-209.5 -71h-234zM234 33h45q200 0 200 228t-200 228h-7q-46 0 -76 -3v-419q0 -19 8 -26.5t30 -7.5z" />
    <glyph glyph-name="E.small" horiz-adv-x="530" 
d="M196 286h87q20 0 29 8t17 31l15 47h21v-207h-22l-14 48q-8 24 -16.5 32t-29.5 8h-87v-186q0 -19 9 -26.5t31 -7.5h120q37 0 52.5 10t26.5 43l26 79h28l-11 -165h-442v27l79 15q15 3 15 19v400q0 16 -15 19l-79 16v26h422l8 -137h-27l-22 61q-10 26 -27 34.5t-57 8.5h-68
q-35 0 -69 -3v-200z" />
    <glyph glyph-name="F.small" horiz-adv-x="501" 
d="M196 283h90q20 0 28.5 7.5t16.5 31.5l16 47h20v-207h-21l-15 48q-8 24 -16.5 32t-29.5 8h-89v-185q0 -20 19 -24l85 -14v-27h-264v27l79 15q15 3 15 19v400q0 16 -15 19l-79 16v26h425l9 -140h-26l-23 62q-10 26 -27 35.5t-57 9.5h-72q-35 0 -69 -3v-203z" />
    <glyph glyph-name="G.small" horiz-adv-x="588" 
d="M475 -13l-17 58q-54 -59 -159 -59q-112 0 -182.5 76.5t-70.5 198.5q0 120 73.5 197.5t180.5 77.5q102 0 160 -61l14 60h27l-3 -203h-29l-15 55q-16 56 -54.5 86t-96.5 30q-83 0 -133 -65.5t-50 -176.5q0 -113 47.5 -177.5t130.5 -64.5q59 0 98.5 27.5t39.5 74.5v55
q0 16 -15 19l-84 16v26h241v-26l-66 -16q-15 -3 -15 -19v-97l5 -92h-27z" />
    <glyph glyph-name="H.small" horiz-adv-x="664" 
d="M287 27v-27h-251v27l79 15q15 3 15 19v400q0 16 -15 19l-79 16v26h251v-26l-76 -16q-15 -3 -15 -19v-175h271v175q0 16 -15 19l-76 16v26h251v-26l-79 -16q-15 -3 -15 -19v-400q0 -16 15 -19l79 -15v-27h-251v27l76 15q15 3 15 19v192h-271v-192q0 -16 15 -19z" />
    <glyph glyph-name="I.small" horiz-adv-x="330" 
d="M37 0v27l79 15q15 2 15 19v400q0 17 -15 19l-79 16v26h255v-26l-80 -16q-15 -3 -15 -19v-400q0 -16 15 -19l80 -15v-27h-255z" />
    <glyph glyph-name="J.small" horiz-adv-x="453" 
d="M157 -12q-61 0 -102 29t-41 77q0 23 14 38.5t35 15.5q20 0 32.5 -11.5t12.5 -29.5t-11 -29t-27 -11q17 -47 86 -47q105 0 105 135v306q0 16 -15 19l-89 16v26h266v-26l-81 -16q-15 -3 -15 -19v-288q0 -53 -14.5 -90.5t-40.5 -57.5t-54 -28.5t-61 -8.5z" />
    <glyph glyph-name="K.small" 
d="M196 239l214 222q16 17 -6 22l-55 13v26h217v-26l-71 -15q-23 -6 -38 -21l-157 -157l196 -238q15 -18 36 -23l59 -15v-27h-242v27l57 11q26 4 7 30l-155 192l-62 -62v-137q0 -16 15 -19l77 -15v-27h-252v27l79 15q15 3 15 19v400q0 16 -15 19l-79 16v26h250v-26l-76 -16
q-14 -3 -14 -19v-222z" />
    <glyph glyph-name="L.small" horiz-adv-x="524" 
d="M36 0v27l79 15q15 3 15 19v400q0 16 -15 19l-79 16v26h256v-26l-77 -15q-19 -4 -19 -24v-388q0 -21 8 -28.5t32 -7.5h117q42 0 59.5 12.5t29.5 51.5l24 73h27l-8 -170h-449z" />
    <glyph glyph-name="M.small" horiz-adv-x="796" 
d="M365 -2l-160 370l-37 99h-5v-397q0 -23 21 -27l71 -16v-27h-220v27l71 16q21 4 21 27v391q0 16 -15 19l-76 16v26h174l144 -338l36 -92h4l186 430h179v-26l-79 -16q-15 -3 -15 -19v-400q0 -16 15 -19l79 -15v-27h-254v27l79 15q15 3 15 19v407h-5l-206 -470h-23z" />
    <glyph glyph-name="N.small" horiz-adv-x="630" 
d="M487 -5l-267 383l-51 81h-5v-389q0 -23 21 -27l71 -16v-27h-221v27l71 16q21 4 21 27v385q0 22 -21 26l-70 15v26h163l228 -329l51 -83h5v342q0 23 -21 27l-71 17v26h221v-26l-71 -17q-21 -4 -21 -27v-457h-33z" />
    <glyph glyph-name="O.small" horiz-adv-x="605" 
d="M302 -14q-114 0 -185 77.5t-71 197.5t71 197.5t185 77.5t185.5 -77.5t71.5 -197.5t-71.5 -197.5t-185.5 -77.5zM302 19q88 0 135.5 66.5t47.5 175.5t-47.5 175.5t-135.5 66.5t-135 -66.5t-47 -175.5t47 -175.5t135 -66.5z" />
    <glyph glyph-name="P.small" horiz-adv-x="524" 
d="M196 259q20 -1 70 -1q146 0 146 120q0 58 -37 85t-116 27q-35 0 -63 -3v-228zM196 227v-162q0 -20 20 -24l84 -14v-27h-264v27l79 15q15 3 15 19v399q0 16 -15 19l-79 15v27h32q28 0 94 1t96 1q110 0 169 -37.5t59 -108.5q0 -74 -59.5 -113t-158.5 -39q-37 0 -72 2z" />
    <glyph glyph-name="Q.small" horiz-adv-x="605" 
d="M523 -152q-87 0 -119 73q-13 29 -20 80q-40 -14 -82 -14q-115 0 -185.5 78t-70.5 196q0 120 71 197.5t185 77.5t185.5 -77.5t71.5 -197.5q0 -75 -33 -137t-90 -98q9 -47 21 -78q25 -59 82 -59q49 0 91 54l21 -16q-55 -79 -128 -79zM213 34l-5 4q-28 31 -28 75t30 75
t79 31q85 0 120 -83q11 -28 20 -69q60 65 60 192q0 109 -49 176.5t-138 67.5q-88 0 -137 -67t-49 -175q0 -165 97 -227zM307 17l15 1q31 1 58 14q-5 55 -15 89q-21 68 -82 68q-34 0 -54.5 -23t-20.5 -57q0 -40 25 -66t74 -26z" />
    <glyph glyph-name="R.small" horiz-adv-x="559" 
d="M264 266q142 0 142 115q0 59 -35 84t-113 25q-34 0 -62 -3v-218q35 -3 68 -3zM290 27v-27h-254v27l79 15q15 3 15 19v399q0 16 -15 19l-79 15v27h28q28 0 94 1t99 1q105 0 164 -36t59 -107q0 -50 -36 -84.5t-88 -44.5q15 -17 29 -46l69 -140q10 -21 35 -25l59 -13v-27
h-137l-107 236q-26 -2 -41 -2q-35 0 -67 2v-175q0 -16 15 -19z" />
    <glyph glyph-name="S.small" horiz-adv-x="480" 
d="M426 136q0 -69 -50.5 -109.5t-127.5 -40.5q-95 0 -147 54l-14 -52h-26l1 207h29l15 -58q14 -56 50.5 -87t91.5 -31t88 25t33 68q0 48 -31 72t-106 48q-76 24 -117 61t-41 97q0 65 48 105.5t120 40.5q80 0 131 -46l12 44h26l-1 -183h-29l-13 52q-25 100 -126 100
q-52 0 -82 -26t-30 -64q0 -45 32.5 -68.5t108.5 -47.5q79 -24 117 -61t38 -100z" />
    <glyph glyph-name="T.small" horiz-adv-x="563" 
d="M414 27v-27h-265v27l84 15q15 2 15 19v428h-87q-34 0 -50 -10t-24 -38l-24 -82h-28l6 163h481l6 -163h-28l-25 82q-8 28 -23.5 38t-50.5 10h-86v-428q0 -17 15 -19z" />
    <glyph glyph-name="U.small" horiz-adv-x="627" 
d="M311 -12q-88 0 -139 44t-51 151v278q0 16 -15 19l-76 16v26h247v-26l-75 -16q-15 -2 -15 -19v-279q0 -90 36 -123t106 -33q140 0 140 155v272q0 22 -21 27l-69 16v26h219v-26l-71 -16q-21 -6 -21 -27v-271q0 -194 -195 -194z" />
    <glyph glyph-name="V.small" horiz-adv-x="564" 
d="M270 -9l-192 474q-5 15 -22 18l-57 13v26h231v-26l-70 -14q-16 -3 -9 -22l105 -269l37 -105h6l144 376q6 18 -10 20l-64 14v26h194v-26l-60 -15q-14 -3 -20 -17l-186 -473h-27z" />
    <glyph glyph-name="W.small" horiz-adv-x="791" 
d="M236 -7l-155 472q-4 14 -20 17l-62 14v26h235v-26l-72 -14q-15 -3 -9 -21l78 -255l31 -100h6l127 418h33l112 -333l24 -88h6l101 360q3 8 0.5 12.5t-11.5 6.5l-64 14v26h195v-26l-62 -15q-16 -3 -20 -17l-137 -471h-32l-110 332l-27 94h-6l-129 -426h-32z" />
    <glyph glyph-name="X.small" horiz-adv-x="608" 
d="M224 27v-27h-213v27l59 13q25 7 41 25l157 198l-149 200q-14 16 -32 20l-62 13v26h245v-26l-63 -14q-18 -3 -7 -20l114 -159l120 155q15 21 -7 25l-57 13v26h202v-26l-57 -14q-22 -5 -39 -25l-143 -179l163 -217q13 -17 36 -21l64 -13v-27h-255v27l68 13q20 3 7 18
l-129 179l-133 -173q-16 -20 9 -26z" />
    <glyph glyph-name="Y.small" horiz-adv-x="534" 
d="M388 0h-249v27l76 15q15 2 15 19v145l-152 262q-9 13 -23 16l-56 12v26h235v-26l-71 -13q-16 -3 -7 -20l81 -145l39 -78h4l130 223q11 18 -7 21l-61 12v26h192v-26l-57 -14q-18 -4 -25 -18l-156 -258v-145q0 -16 15 -19l77 -15v-27z" />
    <glyph glyph-name="Z.small" horiz-adv-x="527" 
d="M476 0h-434l-3 24l296 394l59 71h-204q-45 0 -62 -10t-28 -44l-23 -76h-29l11 163h414l1 -23l-289 -386l-65 -80h216q49 0 68 11t30 49l27 84h27z" />
    <glyph glyph-name="zero.lp" horiz-adv-x="609" 
d="M305 -14q-114 0 -178.5 97t-64.5 257q0 159 64.5 256t178.5 97q113 0 177.5 -97t64.5 -256t-64.5 -256.5t-177.5 -97.5zM304 19q170 0 170 321q0 320 -170 320q-168 0 -168 -320q0 -321 168 -321z" />
    <glyph glyph-name="one.lp" horiz-adv-x="465" 
d="M74 0v28l121 15q16 1 16 18v508q0 26 -9.5 36t-37.5 12l-90 8v23l95 9q67 5 83 28h26l-5 -97v-527q0 -17 17 -18l117 -15v-28h-333z" />
    <glyph glyph-name="two.lp" horiz-adv-x="520" 
d="M451 0h-387l-3 35q144 144 220 248q106 144 106 247q0 63 -33 96.5t-95 33.5q-54 0 -93.5 -25.5t-51.5 -63.5l12 3q16 0 27.5 -10.5t11.5 -28.5q0 -19 -13 -31.5t-31 -12.5q-23 0 -37 15t-14 41q0 59 55 102.5t138 43.5t139 -42.5t56 -125.5q0 -115 -145 -270
q-36 -38 -106 -109t-86 -88h250q24 0 34.5 8t17.5 32l16 55h26z" />
    <glyph glyph-name="three.lp" horiz-adv-x="532" 
d="M217 -14q-77 0 -126 29t-49 74q0 23 14 38t36 15q20 0 32.5 -12.5t12.5 -31.5q0 -18 -10 -29.5t-22 -10.5q30 -39 112 -39q84 0 140 50.5t56 138.5q0 152 -126 152q-42 0 -81 -23.5t-52 -23.5q-32 0 -32 36q55 25 113 30q24 11 48 26q95 60 95 147q0 52 -31.5 80
t-91.5 28q-46 0 -79.5 -18.5t-46.5 -46.5q42 0 42 -40q0 -19 -13 -31.5t-33 -12.5q-22 0 -36 15t-14 39q0 52 53 90t132 38q82 0 135 -37t53 -97q0 -58 -38 -95.5t-113 -74.5q-3 -2 -16 -7l1 -2q16 2 24 2q70 0 124 -42.5t54 -128.5q0 -100 -82 -162.5t-185 -62.5z" />
    <glyph glyph-name="four.lp" horiz-adv-x="540" 
d="M305 241v254l1 107l-236 -355zM466 28v-28h-267v27l89 16q17 3 17 19v148h-269l-9 32l291 437h50v-438h54q21 0 31 8.5t19 30.5l18 51h24l-16 -121h-130v-148q0 -16 17 -19z" />
    <glyph glyph-name="five.lp" horiz-adv-x="510" 
d="M219 -14q-79 0 -127 29t-48 74q0 23 14.5 38t36.5 15q19 0 31.5 -12.5t12.5 -30.5q0 -19 -10.5 -30.5t-22.5 -10.5q30 -39 114 -39q79 0 124 52t45 141q0 175 -142 175q-75 0 -135 -67l-40 5l44 354h30q63 -23 149 -23q101 0 142 34l15 -11q-24 -41 -73.5 -63t-111.5 -22
q-69 0 -125 16l-31 -240q67 49 150 49q84 0 142 -51t58 -152t-70.5 -165.5t-171.5 -64.5z" />
    <glyph glyph-name="six.lp" horiz-adv-x="560" 
d="M513 212q0 -97 -64 -161.5t-161 -64.5q-101 0 -163.5 73t-62.5 225q0 196 77.5 302.5t201.5 106.5q71 0 117.5 -31.5t46.5 -76.5q0 -23 -14 -37.5t-36 -14.5q-20 0 -32.5 12t-12.5 31t11.5 29.5t29.5 10.5q-28 44 -108 44q-98 0 -150 -84t-63 -270q21 55 66 87t109 32
q92 0 150 -58.5t58 -154.5zM138 216q0 -89 38.5 -143t111.5 -54q78 0 115.5 53t37.5 138q0 84 -35.5 133.5t-107.5 49.5t-116 -50t-44 -127z" />
    <glyph glyph-name="seven.lp" horiz-adv-x="474" 
d="M205 -4q-41 0 -41 42q0 53 41.5 172.5t85.5 205.5q50 98 117 206h-276q-26 0 -39 -8.5t-20 -30.5l-19 -58h-27l24 179h25q1 -8 3 -13t8 -8.5t16 -3.5h350v-27q-1 -1 -22 -37t-28 -49.5t-24 -44.5t-29 -58t-23 -55q-29 -74 -49 -176.5t-26 -189.5q-3 -46 -47 -46z" />
    <glyph glyph-name="eight.lp" horiz-adv-x="573" 
d="M285 -14q-102 0 -164.5 50t-62.5 133q0 70 43.5 118t111.5 68q-126 58 -126 163q0 75 57 125t146 50q93 0 147 -45.5t54 -115.5q0 -56 -36.5 -99.5t-92.5 -65.5q153 -58 153 -184q0 -85 -64 -141t-166 -56zM334 377l2 1q46 20 70.5 60.5t24.5 93.5q0 59 -34 93.5
t-105 34.5q-69 0 -107.5 -35.5t-38.5 -88.5q0 -61 45 -94t138 -63zM285 19q82 0 123 39.5t41 102.5q0 67 -40.5 103.5t-126.5 63.5q-22 6 -41 15q-57 -20 -89 -65t-32 -109q0 -71 43 -110.5t122 -39.5z" />
    <glyph glyph-name="nine.lp" horiz-adv-x="562" 
d="M425 463q0 89 -38.5 143t-111.5 54q-78 0 -115.5 -53t-37.5 -138q0 -84 35.5 -133.5t107.5 -49.5t116 50t44 127zM50 467q0 97 64 161.5t161 64.5q101 0 163.5 -73t62.5 -225q0 -196 -77.5 -302.5t-201.5 -106.5q-71 0 -117.5 31.5t-46.5 76.5q0 23 14 37.5t36 14.5
q20 0 32.5 -12t12.5 -31t-11.5 -29.5t-29.5 -10.5q28 -44 108 -44q98 0 150 84t63 270q-21 -55 -66 -87t-109 -32q-92 0 -150 58.5t-58 154.5z" />
    <glyph glyph-name="zero.ot" 
d="M301 -14q-108 0 -178.5 77t-70.5 198t70.5 198t178.5 77t177 -77t69 -198t-69 -198t-177 -77zM301 19q83 0 127 66t44 176q0 111 -44 176.5t-127 65.5q-84 0 -127.5 -65.5t-43.5 -176.5t43.5 -176.5t127.5 -65.5z" />
    <glyph glyph-name="one.ot" 
d="M117 0v28l155 16q19 1 19 18v341q0 26 -11.5 37t-45.5 13l-117 8v23l121 9q75 7 94 35h27l-5 -104v-362q0 -17 18 -18l147 -16v-28h-402z" />
    <glyph glyph-name="two.ot" 
d="M487 0h-386l-4 39q107 71 221 170q104 90 104 182q0 54 -33.5 83t-92.5 29q-52 0 -89.5 -23t-48.5 -58h1q18 0 30.5 -11.5t12.5 -30.5t-13 -32t-33 -13q-24 0 -38.5 15.5t-14.5 39.5q0 58 57.5 102t138.5 44q83 0 139 -40t56 -111q0 -58 -37.5 -103t-112.5 -99
q-105 -75 -175 -124h250q20 0 29 5t16 22l23 57h25z" />
    <glyph glyph-name="three.ot" 
d="M245 -171q-78 0 -128.5 28.5t-50.5 72.5q0 23 14.5 38.5t37.5 15.5q19 0 32 -12.5t13 -31.5t-11 -30.5t-21 -10.5q30 -37 114 -37q90 0 149.5 51t59.5 140q0 82 -37.5 116t-94.5 34q-42 0 -82 -23t-53 -23q-32 0 -32 36q53 24 116 29q37 19 48 26q102 62 102 148
q0 107 -130 107q-47 0 -82 -18.5t-48 -46.5h1q18 0 30 -10t12 -30q0 -19 -13 -31.5t-33 -12.5q-24 0 -37.5 15t-13.5 39q0 52 54.5 90t134.5 38q87 0 141 -36.5t54 -97.5q0 -58 -40.5 -95t-118.5 -75q-3 -2 -16 -7l1 -2q16 2 24 2q44 0 83.5 -15.5t70 -55.5t30.5 -99
q0 -101 -85.5 -163.5t-194.5 -62.5z" />
    <glyph glyph-name="four.ot" 
d="M347 84v360l-248 -354zM511 -129v-28h-272v27l91 16q17 3 17 19v148h-282l-9 32l304 437h50v-438h57q22 0 32 8.5t18 30.5l18 51h25l-17 -121h-133v-148q0 -16 18 -19z" />
    <glyph glyph-name="five.ot" 
d="M254 -172q-79 0 -127.5 29t-48.5 74q0 23 14.5 38t36.5 15q20 0 32.5 -12.5t12.5 -30.5q0 -19 -10.5 -31t-21.5 -11q31 -38 114 -38q86 0 138 54t52 141q0 90 -39 132t-107 42q-80 0 -141 -68l-40 5l43 354h31q64 -22 159 -22q106 0 143 34l15 -11q-49 -85 -180 -85
q-82 0 -142 16l-30 -241q67 50 155 50q84 0 144.5 -50.5t60.5 -150.5q0 -101 -77 -167t-187 -66z" />
    <glyph glyph-name="six.ot" 
d="M311 -14q-103 0 -167 72t-64 224q0 195 80.5 302.5t208.5 108.5q71 0 115.5 -31t44.5 -77q0 -23 -14 -37.5t-36 -14.5q-20 0 -32.5 12t-12.5 31t12 29.5t29 10.5q-26 44 -104 44q-102 0 -157 -85t-67 -274q21 57 68.5 90.5t112.5 33.5q93 0 152.5 -58.5t59.5 -154.5
t-66 -161t-163 -65zM157 216q0 -89 40.5 -143t114.5 -54q77 0 116.5 53t39.5 138q0 84 -37 133.5t-110 49.5t-118.5 -50t-45.5 -127z" />
    <glyph glyph-name="seven.ot" 
d="M280 -161q-20 0 -31 11.5t-11 30.5q0 53 42 171.5t87 206.5q48 95 124 206h-285q-27 0 -39 -8t-20 -31l-19 -58h-28l23 179h26q1 -8 3 -13t8 -8.5t16 -3.5h365v-27q-103 -155 -138 -244q-60 -150 -76 -366q-3 -46 -47 -46z" />
    <glyph glyph-name="eight.ot" 
d="M306 -14q-105 0 -169 50t-64 133q0 70 44.5 118t114.5 68q-128 59 -128 163q0 75 57 125t149 50q96 0 151 -45.5t55 -115.5q0 -56 -37.5 -99.5t-94.5 -65.5q157 -58 157 -184q0 -85 -65.5 -141t-169.5 -56zM356 377q47 19 72.5 60.5t25.5 94.5q0 59 -34 93.5t-108 34.5
q-71 0 -110.5 -35.5t-39.5 -88.5q0 -61 46 -93.5t142 -63.5zM306 19q84 0 126 39.5t42 102.5q0 67 -42 103.5t-129 63.5q-3 1 -19 6t-24 9q-59 -20 -91.5 -65t-32.5 -109q0 -71 44 -110.5t126 -39.5z" />
    <glyph glyph-name="nine.ot" 
d="M457 306q0 88 -41 142.5t-115 54.5q-77 0 -115 -53.5t-38 -138.5q0 -84 36 -133t108 -49q73 0 119 50.5t46 126.5zM534 240q0 -195 -81 -302.5t-209 -108.5q-71 0 -115.5 31t-44.5 77q0 23 14 37.5t37 14.5q19 0 31.5 -12t12.5 -31t-12 -29.5t-29 -10.5q26 -44 104 -44
q103 0 158 84.5t66 271.5q-22 -56 -69 -89t-112 -33q-92 0 -150.5 59t-58.5 155t64.5 161t161.5 65q103 0 167.5 -72t64.5 -224z" />
    <glyph glyph-name="zero.lt" 
d="M300 -14q-114 0 -178.5 97t-64.5 257q0 159 64.5 256t178.5 97t178.5 -97t64.5 -256q0 -160 -64.5 -257t-178.5 -97zM300 19q170 0 170 321q0 320 -170 320q-169 0 -169 -320q0 -321 169 -321z" />
    <glyph glyph-name="one.lt" 
d="M122 0v28l153 15q18 1 18 18v508q0 26 -12.5 36t-46.5 12l-111 8v23l116 9q77 6 95 28h27l-6 -97v-527q0 -17 20 -18l146 -15v-28h-399z" />
    <glyph glyph-name="two.lt" 
d="M497 0h-400l-3 35q3 3 28.5 28t34 33.5l32 32t37 38.5t32.5 36.5t35 41t30 38.5q108 145 108 247q0 63 -36.5 96.5t-99.5 33.5q-54 0 -95.5 -25.5t-52.5 -63.5l11 3q16 0 27.5 -10.5t11.5 -28.5q0 -19 -13 -31.5t-32 -12.5q-23 0 -37 15t-14 41q0 58 57.5 102t141.5 44
t143.5 -42.5t59.5 -125.5q0 -64 -38 -128t-111 -142q-36 -39 -112.5 -113t-86.5 -84h262q24 0 35 8t18 32l15 55h26z" />
    <glyph glyph-name="three.lt" 
d="M249 -14q-78 0 -128.5 28.5t-50.5 72.5q0 23 14.5 38.5t37.5 15.5q19 0 32 -13t13 -31q0 -19 -11 -30.5t-21 -10.5q30 -37 114 -37q90 0 149.5 50.5t59.5 139.5q0 150 -132 150q-42 0 -82 -23t-53 -23q-32 0 -32 37q53 22 117 29q23 10 47 25q102 62 102 149
q0 107 -130 107q-47 0 -82 -18.5t-48 -46.5h1q18 0 30 -10.5t12 -29.5t-13 -31.5t-33 -12.5q-23 0 -37 15t-14 39q0 52 54.5 90t134.5 38q87 0 141 -36.5t54 -97.5q0 -58 -40.5 -95t-118.5 -75q-3 -2 -16 -7l1 -2q16 2 24 2q44 0 83.5 -15.5t70 -55.5t30.5 -99
q0 -101 -85.5 -163.5t-194.5 -62.5z" />
    <glyph glyph-name="four.lt" 
d="M347 241v254l1 107l-249 -355zM511 28v-28h-272v27l92 16q16 3 16 19v148h-281l-10 32l305 437h50v-438h57q21 0 31 8.5t19 30.5l18 51h24l-16 -121h-133v-148q0 -16 17 -19z" />
    <glyph glyph-name="five.lt" 
d="M260 -15q-79 0 -127.5 29t-48.5 74q0 23 14.5 38t36.5 15q20 0 32.5 -12.5t12.5 -30.5q0 -19 -10.5 -31t-22.5 -11q31 -38 114 -38q87 0 139 54t52 141q0 174 -147 174q-79 0 -140 -68l-40 5l43 354h31q64 -22 158 -22q107 0 144 34l15 -11q-49 -85 -181 -85
q-81 0 -141 16l-30 -241q67 50 155 50q84 0 144.5 -50.5t60.5 -150.5q0 -101 -77 -167t-187 -66z" />
    <glyph glyph-name="six.lt" 
d="M311 -14q-103 0 -167 72t-64 224q0 195 80.5 302.5t208.5 108.5q71 0 115.5 -31t44.5 -77q0 -23 -14 -37.5t-36 -14.5q-20 0 -32.5 12t-12.5 31t12 29.5t29 10.5q-26 44 -104 44q-102 0 -157 -85t-67 -274q21 57 68.5 90.5t112.5 33.5q93 0 152.5 -58.5t59.5 -154.5
t-66 -161t-163 -65zM157 216q0 -89 40.5 -143t114.5 -54q77 0 116.5 53t39.5 138q0 84 -37 133.5t-110 49.5t-118.5 -50t-45.5 -127z" />
    <glyph glyph-name="seven.lt" 
d="M283 -4q-20 0 -31 11.5t-11 30.5q0 53 42 171.5t87 206.5q48 95 124 206h-285q-27 0 -39 -8t-20 -31l-19 -58h-28l23 179h26q1 -8 3 -13t8 -8.5t16 -3.5h365v-27q-103 -155 -138 -244q-60 -150 -76 -366q-3 -46 -47 -46z" />
    <glyph glyph-name="eight.lt" 
d="M306 -14q-105 0 -169 50t-64 133q0 70 44.5 118t114.5 68q-128 59 -128 163q0 75 57 125t149 50q96 0 151 -45.5t55 -115.5q0 -56 -37.5 -99.5t-94.5 -65.5q157 -58 157 -184q0 -85 -65.5 -141t-169.5 -56zM356 377q47 19 72.5 60.5t25.5 94.5q0 59 -34 93.5t-108 34.5
q-71 0 -110.5 -35.5t-39.5 -88.5q0 -61 46 -93.5t142 -63.5zM306 19q84 0 126 39.5t42 102.5q0 67 -42 103.5t-129 63.5q-3 1 -19 6t-24 9q-59 -20 -91.5 -65t-32.5 -109q0 -71 44 -110.5t126 -39.5z" />
    <glyph glyph-name="nine.lt" 
d="M458 463q0 89 -41 143t-115 54q-77 0 -115 -53t-38 -138q0 -84 36 -133.5t108 -49.5q73 0 119 50.5t46 126.5zM535 397q0 -195 -81 -302.5t-209 -108.5q-71 0 -115.5 31t-44.5 77q0 23 14 37.5t36 14.5q20 0 32.5 -12t12.5 -31t-12 -29.5t-29 -10.5q26 -44 104 -44
q102 0 157 84.5t67 271.5q-22 -55 -69 -88t-112 -33q-92 0 -151 58.5t-59 154.5t65 161t162 65q103 0 167.5 -72t64.5 -224z" />
    <glyph glyph-name="dollar.lp" 
d="M295 389l-3 257q-63 -6 -99 -39t-36 -82q0 -53 33.5 -82t104.5 -54zM324 35h6q63 8 98 41t35 84q0 55 -35.5 85t-105.5 55zM325 -134h-34l1 134q-92 0 -158.5 36.5t-66.5 90.5q0 23 14.5 38t35.5 15t33 -12t12 -32q0 -19 -11 -30.5t-25 -10.5q17 -28 62.5 -45t103.5 -17
l3 277l-7 2q-94 32 -141.5 74t-47.5 116q0 75 53.5 122t139.5 54l-1 85h34l-1 -84q84 -2 141 -36.5t57 -84.5q0 -24 -14.5 -39.5t-35.5 -15.5q-20 0 -33.5 13t-13.5 33q0 19 11.5 30t27.5 11h1q-15 26 -53 41.5t-88 15.5l-2 -267l11 -4q94 -31 141.5 -74t47.5 -115
q0 -79 -55 -128t-143 -58z" />
    <glyph glyph-name="cent.lp" 
d="M248 145l90 384q-79 -1 -125.5 -55t-46.5 -151q0 -126 82 -178zM263 80l-35 -152h-35l40 162q-59 26 -94.5 82.5t-35.5 135.5q0 116 68 183.5t168 67.5h4l31 133h36l-33 -136q55 -8 90.5 -36.5t35.5 -66.5q0 -25 -14.5 -39.5t-38.5 -14.5q-20 0 -33 12.5t-13 31.5
t12 31.5t29 12.5h2q-24 31 -79 40l-94 -395q30 -13 70 -13q86 0 145 67l18 -16q-73 -98 -186 -98q-28 0 -58 8z" />
    <glyph glyph-name="sterling.lp" 
d="M520 153l-14 -153h-423l-4 43q71 13 107.5 52t36.5 118q0 47 -16 107l-113 11v25l100 9q-25 87 -25 141q0 89 56 137.5t136 48.5q67 0 112.5 -33t45.5 -82q0 -24 -14.5 -39.5t-36.5 -15.5q-21 0 -34.5 13t-13.5 33q0 19 12 31t28 12q-26 48 -99 48q-56 0 -90.5 -36
t-34.5 -99q0 -46 26 -161h166v-33l-158 -5q7 -42 7 -72q0 -138 -91 -195h240q24 0 35 8t18 32l15 55h26z" />
    <glyph glyph-name="yen.lp" 
d="M449 28v-28h-304v28l101 17q17 3 17 18v221h-212v38h196l-172 290q-12 20 -35 24l-64 14v29h277v-29l-93 -14q-20 -3 -10 -23l110 -195l50 -93h5l166 281q14 24 -12 29l-83 16v28h239v-29l-57 -13q-27 -6 -41 -30l-174 -285h183v-38h-204v-221q0 -16 17 -18z" />
    <glyph glyph-name="euro.lp" 
d="M509 -1l-16 72q-53 -85 -157 -85q-95 0 -159.5 67.5t-83.5 188.5l-78 11l1 22l72 7q-2 38 -2 58t2 52l-73 8l1 21l76 10q19 124 83.5 193t160.5 69q104 0 157 -85l16 72h26l-4 -233h-35l-6 35q-16 85 -50.5 131.5t-101.5 46.5q-149 0 -174 -231h219l-9 -29l-213 -6
q-1 -18 -1 -54q0 -21 2 -57h188l-8 -28l-177 -8q26 -228 173 -228q67 0 101.5 46.5t50.5 131.5l6 35h35l4 -233h-26z" />
    <glyph glyph-name="numbersign.lp" 
d="M367 238l24 210h-152l-24 -210h152zM209 183l-21 -183h-33l20 183h-88l-11 55h106l23 210h-110l-11 54h127l20 177h34l-20 -177h152l20 177h32l-20 -177h89l11 -54h-106l-23 -210h109l12 -55h-128l-20 -183h-33l21 183h-152z" />
    <glyph glyph-name="florin.lp" 
d="M146 -115q-55 0 -87 23t-32 60q0 24 14.5 39t36.5 15q21 0 34 -12.5t13 -32.5q0 -19 -11.5 -31t-26.5 -12q20 -18 57 -18q50 0 72.5 30.5t22.5 100.5v311l-96 9v28l96 9v99q0 92 46.5 141t125.5 49q57 0 94.5 -25t37.5 -64q0 -25 -14 -39.5t-36 -14.5t-35 12t-13 32
t10.5 31.5t25.5 11.5q-18 23 -67 23q-114 0 -114 -141q0 -21 1 -60.5t1 -57.5h132v-32l-132 -7v-301q0 -87 -42 -131.5t-114 -44.5z" />
    <glyph glyph-name="franc.lp" 
d="M230 365h115q22 0 33 7t18 31l23 80h27v-273h-27l-23 81q-7 24 -18 31t-33 7h-115v-258q0 -24 21 -26l108 -17v-28h-314v28l99 17q17 3 17 18v553q0 15 -17 18l-99 17v28h507l11 -166h-35l-24 67q-12 41 -32.5 51.5t-79.5 10.5h-79q-43 0 -83 -2v-275z" />
    <glyph glyph-name="currency.lp" 
d="M495 90l-90 94q-44 -39 -106 -39q-61 0 -105 39l-89 -94l-26 26l93 91q-34 47 -34 105q0 59 33 103l-92 90l26 26l89 -91q45 39 105 39q61 0 106 -39l90 91l26 -26l-93 -89q34 -47 34 -104q0 -59 -35 -105l94 -91zM299 179q54 0 90.5 38.5t36.5 94.5q0 55 -36.5 94
t-90.5 39t-89.5 -38.5t-35.5 -94.5t35.5 -94.5t89.5 -38.5z" />
    <glyph glyph-name="plus.lp" horiz-adv-x="550" 
d="M296 301v-199h-42v199h-198v41h198v196h42v-196h198v-41h-198z" />
    <glyph glyph-name="minus.lp" horiz-adv-x="550" 
d="M56 300v42h438v-42h-438z" />
    <glyph glyph-name="plusminus.lp" horiz-adv-x="550" 
d="M494 71h-438v41h198v189h-198v41h198v196h42v-196h198v-41h-198v-189h198v-41z" />
    <glyph glyph-name="multiply.lp" horiz-adv-x="550" 
d="M415 151l-140 140l-140 -140l-29 29l140 140l-140 140l29 29l140 -140l140 140l29 -29l-140 -140l140 -140z" />
    <glyph glyph-name="divide.lp" horiz-adv-x="550" 
d="M315 477q0 -19 -11.5 -29.5t-28.5 -10.5q-16 0 -28 10.5t-12 29.5t12 29.5t28 10.5q17 0 28.5 -10.5t11.5 -29.5zM494 300h-438v42h438v-42zM275 125q-16 0 -28 10.5t-12 29.5t12 29.5t28 10.5q17 0 28.5 -10.5t11.5 -29.5t-11.5 -29.5t-28.5 -10.5z" />
    <glyph glyph-name="logicalnot.lp" horiz-adv-x="550" 
d="M453 368h-397v41h438v-198h-41v157z" />
    <glyph glyph-name="equal.lp" horiz-adv-x="550" 
d="M56 394v42h438v-42h-438zM494 204h-438v42h438v-42z" />
    <glyph glyph-name="notequal.lp" horiz-adv-x="550" 
d="M217 204l-83 -120l-29 20l69 100h-118v42h147l102 148h-249v42h277l83 120l29 -20l-69 -100h118v-42h-147l-102 -148h249v-42h-277z" />
    <glyph glyph-name="approxequal.lp" horiz-adv-x="500" 
d="M391 361q-45 0 -119 30.5t-111 30.5q-35 0 -51.5 -14.5t-17.5 -51.5h-36q0 47 26 76t77 29q44 0 118.5 -30.5t111.5 -30.5q35 0 51.5 14t17.5 51h36q0 -47 -26 -75.5t-77 -28.5zM391 180q-45 0 -119 30.5t-111 30.5q-35 0 -51.5 -14.5t-17.5 -51.5h-36q0 47 26 76t77 29
q44 0 118.5 -30.5t111.5 -30.5q35 0 51.5 14t17.5 51h36q0 -47 -26 -75.5t-77 -28.5z" />
    <glyph glyph-name="less.lp" horiz-adv-x="550" 
d="M459 101l-399 201v36l399 201l17 -36l-372 -183l372 -184z" />
    <glyph glyph-name="greater.lp" horiz-adv-x="550" 
d="M490 302l-399 -201l-17 36l372 184l-372 183l17 35l399 -201v-36z" />
    <glyph glyph-name="lessequal.lp" horiz-adv-x="550" 
d="M475 70h-415v39h363l-363 189v36l399 205l17 -36l-374 -188l373 -194l-1 -1h1v-50z" />
    <glyph glyph-name="greaterequal.lp" horiz-adv-x="550" 
d="M490 70h-415v50h1l-1 1l373 194l-374 188l17 36l399 -205v-36l-363 -189h363v-39z" />
    <glyph glyph-name="infinity.lp" horiz-adv-x="583" 
d="M434 204q48 0 77.5 32.5t29.5 90.5q0 54 -32 83.5t-79 29.5q-77 0 -125 -77q8 -18 12 -28q26 -68 50 -99.5t67 -31.5zM154 200q76 0 124 76q-4 9 -12 29q-26 68 -50 99.5t-67 31.5q-48 0 -77.5 -32.5t-29.5 -90.5q0 -54 32.5 -83.5t79.5 -29.5zM573 327q0 -70 -43 -114.5
t-107 -44.5q-82 0 -131 83q-25 -38 -61 -61.5t-77 -23.5q-63 0 -103.5 39t-40.5 108q0 71 42.5 115t108.5 44q81 0 130 -83q57 85 139 85q62 0 102.5 -39.5t40.5 -107.5z" />
    <glyph glyph-name="percent.lp" horiz-adv-x="647" 
d="M95 -9l-33 23l254 335l235 338l34 -23l-249 -327zM180 381q-65 0 -106 42.5t-41 109.5t41 109.5t105 42.5q65 0 105.5 -42.5t40.5 -109.5t-40.5 -109.5t-104.5 -42.5zM180 411q45 0 69.5 33t24.5 89q0 57 -24.5 89.5t-70.5 32.5t-70.5 -32.5t-24.5 -89.5q0 -56 25 -89
t71 -33zM468 -7q-65 0 -105.5 42.5t-40.5 109.5t40.5 109.5t104.5 42.5q65 0 105.5 -42.5t40.5 -109.5t-40.5 -109.5t-104.5 -42.5zM468 23q46 0 70.5 32.5t24.5 89.5q0 56 -25 89t-71 33q-45 0 -69.5 -33t-24.5 -89q0 -57 24.5 -89.5t70.5 -32.5z" />
    <glyph glyph-name="perthousand.lp" horiz-adv-x="970" 
d="M95 -9l-33 23l254 335l235 338l34 -23l-249 -327zM180 381q-65 0 -106 42.5t-41 109.5t41 109.5t105 42.5q65 0 105.5 -42.5t40.5 -109.5t-40.5 -109.5t-104.5 -42.5zM180 411q45 0 69.5 33t24.5 89q0 57 -24.5 89.5t-70.5 32.5t-70.5 -32.5t-24.5 -89.5q0 -56 25 -89
t71 -33zM791 -7q-65 0 -105.5 42.5t-40.5 109.5t40.5 109.5t104.5 42.5q65 0 105.5 -42.5t40.5 -109.5t-40.5 -109.5t-104.5 -42.5zM468 -7q-65 0 -105.5 42.5t-40.5 109.5t40.5 109.5t104.5 42.5q65 0 105.5 -42.5t40.5 -109.5t-40.5 -109.5t-104.5 -42.5zM791 23
q45 0 70 33t25 89t-25 89t-71 33q-45 0 -70 -33t-25 -89t25 -89t71 -33zM468 23q46 0 70.5 32.5t24.5 89.5q0 56 -25 89t-71 33q-45 0 -69.5 -33t-24.5 -89q0 -57 24.5 -89.5t70.5 -32.5z" />
    <glyph glyph-name="exclamdown.case" horiz-adv-x="325" 
d="M108 635q0 26 16 41t40 15t40.5 -15t16.5 -41t-16.5 -40.5t-40.5 -14.5q-23 0 -39.5 14.5t-16.5 40.5zM114 52q0 28 9 74.5t18 133.5t9 214h30q0 -127 9 -214.5t17.5 -134t8.5 -73.5q0 -62 -51 -62q-23 0 -36.5 16t-13.5 46z" />
    <glyph glyph-name="questiondown.case" horiz-adv-x="536" 
d="M336 691q24 0 40 -15t16 -41t-16 -40.5t-40 -14.5t-40 14.5t-16 40.5t16.5 41t39.5 15zM475 128q0 -55 -56 -96.5t-140 -41.5q-91 0 -157 48.5t-66 138.5q0 91 59.5 139t141.5 48q25 0 56 -7l5 117h32l7 -150l-32 -8q-32 16 -66 16q-126 0 -126 -157q0 -152 148 -152
q52 0 88.5 20.5t50.5 51.5h-1q-18 0 -30 11t-12 31t13 33t33 13q24 0 38 -15t14 -40z" />
    <glyph glyph-name="hyphen.case" horiz-adv-x="352" 
d="M54 297v47h246v-47h-246z" />
    <glyph glyph-name="endash.case" horiz-adv-x="580" 
d="M64 297v47h455v-47h-455z" />
    <glyph glyph-name="emdash.case" horiz-adv-x="981" 
d="M64 297v47h856v-47h-856z" />
    <glyph glyph-name="guilsinglleft.case" horiz-adv-x="336" 
d="M239 120l-180 186v27l180 188l19 -17l-137 -184l137 -183z" />
    <glyph glyph-name="guilsinglright.case" horiz-adv-x="336" 
d="M277 306l-180 -186l-19 17l137 183l-137 184l19 17l180 -188v-27z" />
    <glyph glyph-name="guillemotleft.case" horiz-adv-x="528" 
d="M431 120l-180 186v27l180 188l19 -17l-137 -184l137 -183zM239 120l-180 186v27l180 188l19 -17l-137 -184l137 -183z" />
    <glyph glyph-name="guillemotright.case" horiz-adv-x="528" 
d="M469 306l-180 -186l-19 17l137 183l-137 184l19 17l180 -188v-27zM277 306l-180 -186l-19 17l137 183l-137 184l19 17l180 -188v-27z" />
    <glyph glyph-name="parenleft.case" horiz-adv-x="398" 
d="M350 -169q-27 21 -53 44.5t-64.5 69.5t-66 95.5t-48 121t-20.5 146.5v4q0 75 20.5 146.5t48 121t66 95.5t64.5 69.5t53 44.5l17 -16q-201 -197 -201 -461v-4q0 -263 202 -461z" />
    <glyph glyph-name="parenright.case" horiz-adv-x="398" 
d="M48 789q27 -21 53 -44.5t64.5 -69.5t66 -95.5t48 -121t20.5 -146.5v-4q0 -75 -20.5 -146.5t-48 -121t-66 -95.5t-64.5 -69.5t-53 -44.5l-17 16q201 197 201 461v4q0 263 -202 461z" />
    <glyph glyph-name="bracketleft.case" horiz-adv-x="421" 
d="M140 -167v955l247 -6v-22l-187 -11v-877l187 -12v-21z" />
    <glyph glyph-name="bracketright.case" horiz-adv-x="421" 
d="M281 788v-955l-247 6v21l187 12v877l-187 11v22z" />
    <glyph glyph-name="braceleft.case" horiz-adv-x="421" 
d="M318 -162q-74 0 -113.5 36t-39.5 103q0 27 9.5 95.5t9.5 88.5q0 67 -35.5 93t-125.5 28v57q90 2 125.5 28t35.5 93q0 20 -9.5 88.5t-9.5 95.5q0 67 39.5 103t113.5 36h69v-23l-68 -3q-49 -3 -70 -29t-21 -80q0 -24 5 -97t5 -86q0 -72 -41.5 -105t-118.5 -40v-19
q77 -7 118.5 -40t41.5 -105q0 -13 -5 -86t-5 -97q0 -54 21 -80t70 -29l68 -3v-23h-69z" />
    <glyph glyph-name="braceright.case" horiz-adv-x="421" 
d="M256 -23q0 -67 -39.5 -103t-113.5 -36h-69v23l68 3q49 3 70 29t21 80q0 24 -5 97t-5 86q0 72 41.5 105t118.5 40v19q-77 7 -118.5 40t-41.5 105q0 13 5 86t5 97q0 54 -21 80t-70 29l-68 3v23h69q74 0 113.5 -36t39.5 -103q0 -27 -9.5 -95.5t-9.5 -88.5q0 -67 35.5 -93
t125.5 -28v-57q-90 -2 -125.5 -28t-35.5 -93q0 -20 9.5 -88.5t9.5 -95.5z" />
    <glyph glyph-name="published" horiz-adv-x="848" 
d="M424 -113q-147 0 -250.5 102.5t-103.5 250.5t103.5 251t250.5 103t250.5 -103t103.5 -251t-103.5 -250.5t-250.5 -102.5zM424 -75q130 0 222.5 92t92.5 224q0 131 -92.5 223t-222.5 92t-222.5 -92t-92.5 -223q0 -132 92.5 -224t222.5 -92zM433 235q55 0 79.5 20.5
t24.5 64.5q0 45 -22.5 66.5t-76.5 21.5q-21 0 -47 -2v-169q20 -2 42 -2zM458 71v-20h-191v20l53 11q12 1 12 13v295q0 11 -12 14l-53 10v21h22q23 0 74.5 1t72.5 1q77 0 120.5 -30t43.5 -86q0 -58 -45.5 -86.5t-121.5 -28.5q-26 0 -42 1v-112q0 -12 10 -13z" />
    <glyph glyph-name="dagger.case" horiz-adv-x="584" 
d="M284 498q-4 53 -17.5 95t-13.5 57q0 19 11 31t27 12q17 0 27.5 -12t10.5 -31q0 -15 -13 -57.5t-17 -94.5h-15zM455 435q-13 0 -49.5 12.5t-86.5 16.5v15q49 5 85.5 17.5t50.5 12.5q20 0 31.5 -10.5t11.5 -26.5t-11.5 -26.5t-31.5 -10.5zM128 435q-20 0 -31.5 10.5
t-11.5 26.5t11.5 26.5t31.5 10.5q13 0 49.5 -12.5t86.5 -17.5v-15q-50 -4 -86.5 -16.5t-49.5 -12.5zM283 -115l-11 213q-2 33 -9 101t-7 91q0 30 12.5 77.5t15.5 77.5h15q3 -30 15.5 -77.5t12.5 -77.5q0 -23 -7 -91t-9 -101l-12 -213h-16z" />
    <glyph glyph-name="daggerdbl.case" horiz-adv-x="584" 
d="M284 499q-3 55 -17 96t-14 55q0 19 11 30.5t27 11.5q17 0 27.5 -11.5t10.5 -30.5q0 -14 -13.5 -55t-16.5 -96h-15zM454 438q-13 0 -49 12t-86 16v15q50 5 86 17t49 12q21 0 32.5 -10t11.5 -26t-12 -26t-32 -10zM128 438q-20 0 -31.5 10.5t-11.5 25.5q0 16 11.5 26
t31.5 10q14 0 50.5 -12t85.5 -17v-15q-50 -4 -86.5 -16t-49.5 -12zM284 174q-3 31 -11.5 71t-8.5 65t8.5 65t11.5 72h15q3 -32 11.5 -72t8.5 -65t-8.5 -65t-11.5 -71h-15zM454 111q-14 0 -50 11.5t-85 17.5v15q50 4 86 16t49 12q20 0 32 -10t12 -26t-12 -26t-32 -10z
M128 111q-20 0 -31.5 10t-11.5 26q0 15 11.5 25.5t31.5 10.5q13 0 49.5 -12t86.5 -16v-15q-49 -5 -85 -17t-51 -12zM291 -114q-16 0 -27 11.5t-11 30.5q0 14 14.5 69t16.5 124h15q2 -69 16 -124t14 -69q0 -19 -10.5 -30.5t-27.5 -11.5z" />
    <glyph glyph-name="bullet.case" horiz-adv-x="439" 
d="M221 189q-55 0 -92.5 38t-37.5 93t37.5 93t92.5 38t93.5 -38t38.5 -93t-38.5 -93t-93.5 -38z" />
    <glyph glyph-name="periodcentered.case" horiz-adv-x="281" 
d="M141 261q-24 0 -41.5 16t-17.5 43t17.5 42.5t41.5 15.5t41 -15.5t17 -42.5t-17 -43t-41 -16z" />
    <glyph glyph-name="at.case" horiz-adv-x="961" 
d="M495 -115q-187 0 -306 113.5t-119 297.5q0 196 132.5 332.5t325.5 136.5q157 0 255 -89t98 -243q0 -131 -73.5 -219.5t-175.5 -88.5q-49 0 -75 25t-26 65q0 7 2 21q-58 -103 -138 -103q-50 0 -78.5 32.5t-28.5 92.5q0 67 30.5 134t87.5 113.5t124 46.5q68 0 100 -50
l34 51h23l-43 -109l-52 -160q-13 -41 -13 -68q0 -63 64 -63q79 0 137 74.5t58 183.5q0 141 -90 229t-242 88q-159 0 -270.5 -114.5t-111.5 -283.5q0 -177 111.5 -288t291.5 -111q139 0 235 73l15 -21q-114 -98 -282 -98zM408 165q40 0 80 51t74 154l34 103q-14 49 -67 49
q-51 0 -94.5 -47t-65.5 -109.5t-22 -116.5q0 -44 14.5 -64t46.5 -20z" />
    <glyph glyph-name="copyright.case" horiz-adv-x="848" 
d="M424 -43q-147 0 -250.5 102.5t-103.5 250.5t103.5 251t250.5 103t250.5 -103t103.5 -251t-103.5 -250.5t-250.5 -102.5zM424 -5q130 0 222.5 92t92.5 224q0 131 -92.5 223t-222.5 92t-222.5 -92t-92.5 -223q0 -132 92.5 -224t222.5 -92zM557 114l-11 52q-44 -54 -118 -54
q-86 0 -141 55t-55 144t55.5 146.5t139.5 57.5q79 0 120 -53l10 50h19v-152h-24l-12 40q-22 84 -111 84q-63 0 -96.5 -47t-33.5 -125t33.5 -124t96.5 -46q88 0 110 80l13 42h24v-150h-19z" />
    <glyph glyph-name="registered.case" horiz-adv-x="848" 
d="M424 -43q-147 0 -250.5 102.5t-103.5 250.5t103.5 251t250.5 103t250.5 -103t103.5 -251t-103.5 -250.5t-250.5 -102.5zM424 -5q130 0 222.5 92t92.5 224q0 131 -92.5 223t-222.5 92t-222.5 -92t-92.5 -223q0 -132 92.5 -224t222.5 -92zM414 319q96 0 96 78
q0 42 -22.5 61.5t-75.5 19.5q-17 0 -43 -2v-156q20 -1 45 -1zM436 141v-20h-191v20l54 11q11 1 11 13v295q0 11 -11 14l-54 10v21h22q23 0 73.5 1t71.5 1q77 0 119 -28t42 -81q0 -40 -25.5 -65t-64.5 -30q12 -22 16 -31l46 -100q9 -18 23 -21l36 -10v-20h-99l-71 171
q-8 -1 -22 -1q-27 0 -43 1v-127q0 -12 10 -13z" />
    <glyph glyph-name="published.case" horiz-adv-x="848" 
d="M424 -43q-147 0 -250.5 102.5t-103.5 250.5t103.5 251t250.5 103t250.5 -103t103.5 -251t-103.5 -250.5t-250.5 -102.5zM424 -5q130 0 222.5 92t92.5 224q0 131 -92.5 223t-222.5 92t-222.5 -92t-92.5 -223q0 -132 92.5 -224t222.5 -92zM433 305q55 0 79.5 20.5
t24.5 64.5q0 45 -22.5 66.5t-76.5 21.5q-21 0 -47 -2v-169q20 -2 42 -2zM458 141v-20h-191v20l53 11q12 1 12 13v295q0 11 -12 14l-53 10v21h22q23 0 74.5 1t72.5 1q77 0 120.5 -30t43.5 -86q0 -58 -45.5 -86.5t-121.5 -28.5q-26 0 -42 1v-112q0 -12 10 -13z" />
    <glyph glyph-name="copyright.sups" horiz-adv-x="651" 
d="M325 212q-110 0 -187.5 77t-77.5 188t77.5 188.5t187.5 77.5t188 -77.5t78 -188.5t-78 -188t-188 -77zM325 241q98 0 167.5 69t69.5 168t-69.5 167.5t-167.5 68.5t-167 -68.5t-69 -167.5t69 -168t167 -69zM425 330l-8 39q-34 -40 -89 -40q-64 0 -105.5 41.5t-41.5 107.5
t41.5 109.5t104.5 43.5q59 0 90 -39l8 37h14v-114h-18l-9 30q-17 63 -84 63q-47 0 -72 -35.5t-25 -93.5q0 -59 25 -93.5t72 -34.5q67 0 83 61l10 31h18v-113h-14z" />
    <glyph glyph-name="registered.sups" horiz-adv-x="651" 
d="M325 212q-110 0 -187.5 77t-77.5 188t77.5 188.5t187.5 77.5t188 -77.5t78 -188.5t-78 -188t-188 -77zM325 241q98 0 167.5 69t69.5 168t-69.5 167.5t-167.5 68.5t-167 -68.5t-69 -167.5t69 -168t167 -69zM317 484q73 0 73 59q0 32 -17 46t-57 14q-4 0 -15.5 -0.5
t-16.5 -0.5v-117q15 -1 33 -1zM334 351v-16h-143v16l40 9q8 0 8 9v221q0 9 -8 10l-40 8v15h16q17 0 55 1t54 1q120 0 120 -82q0 -30 -19 -48.5t-48 -22.5q8 -12 13 -23l34 -74q6 -14 17 -16l27 -8v-16h-74l-53 129q-6 -1 -17 -1h-32v-94q0 -9 7 -9z" />
    <glyph glyph-name="published.sups" horiz-adv-x="651" 
d="M325 212q-110 0 -187.5 77t-77.5 188t77.5 188.5t187.5 77.5t188 -77.5t78 -188.5t-78 -188t-188 -77zM325 241q98 0 167.5 69t69.5 168t-69.5 167.5t-167.5 68.5t-167 -68.5t-69 -167.5t69 -168t167 -69zM332 474q41 0 59 15.5t18 48.5t-16.5 49t-57.5 16q-4 0 -17 -0.5
t-18 -0.5v-127q15 -1 32 -1zM350 351v-16h-142v16l39 9q9 0 9 9v221q0 8 -9 10l-39 8v15h16q17 0 55.5 1t54.5 1q58 0 90.5 -22.5t32.5 -64.5q0 -44 -34 -65t-91 -21q-26 0 -32 1v-84q0 -9 8 -9z" />
    <glyph glyph-name="point" horiz-adv-x="274" 
d="M136 552q-29 0 -49.5 19.5t-20.5 51.5t20.5 51t49.5 19q30 0 50 -18.5t20 -51.5q0 -32 -20.5 -51.5t-49.5 -19.5z" />
    <glyph glyph-name="f_j" horiz-adv-x="599" 
d="M329 -243q-55 0 -88 22.5t-33 61.5q0 23 14.5 38.5t37.5 15.5q20 0 33 -12.5t13 -33.5q0 -19 -11.5 -30.5t-25.5 -11.5q18 -18 58 -18q110 0 110 141v498q0 21 -22 20l-221 -7v-381q0 -15 15 -18l78 -15v-27h-249v27l78 15q15 3 15 19v375l-96 9v29l96 8v86q0 103 56 156
t149 53q72 0 114.5 -31t42.5 -77q0 -26 -15 -41.5t-39 -15.5q-23 0 -36 12.5t-13 32.5q0 21 12.5 33.5t32.5 12.5h2q-23 41 -98 41q-74 0 -110 -40.5t-36 -125.5q0 -16 0.5 -50.5t0.5 -48.5h204l85 13l24 -5l-7 -95v-445q0 -97 -50 -143.5t-121 -46.5z" />
    <glyph glyph-name="f_b" horiz-adv-x="896" 
d="M859 244q0 -120 -61.5 -189t-159.5 -69q-97 0 -155 58l-28 -56l-27 2l9 130v333l-243 -12v-380q0 -16 15 -19l78 -15v-27h-249v27l78 15q15 3 15 19v375l-96 9v29l96 8v80q0 104 49 159.5t145 55.5q72 0 121 -32l38 25l24 -5l-8 -96v-146l-8 -159q20 63 63.5 96t104.5 33
q91 0 145 -69.5t54 -179.5zM194 479h243v182q0 38 -30 60.5t-79 22.5q-76 0 -105.5 -43t-29.5 -130q0 -19 0.5 -50t0.5 -42zM636 19q77 0 113.5 60t36.5 164q0 214 -136 214q-65 0 -107.5 -57t-42.5 -160v-139q39 -82 136 -82z" />
    <glyph glyph-name="f_h" horiz-adv-x="931" 
d="M194 479h243v182q0 38 -30 60.5t-79 22.5q-76 0 -105.5 -43t-29.5 -130q0 -19 0.5 -50t0.5 -42zM287 27v-27h-249v27l78 15q15 3 15 19v375l-96 9v29l96 8v79q0 105 49 160.5t145 55.5q72 0 121 -32l38 25l24 -5l-8 -97v-147l-9 -191q21 74 68 118.5t117 44.5
q68 0 103.5 -38.5t35.5 -110.5v-284q0 -15 16 -18l75 -16v-26h-245v26l76 16q15 3 15 18v287q0 107 -92 107q-74 0 -117 -73.5t-43 -174.5v-146q0 -15 15 -18l75 -16v-26h-245v26l76 16q16 3 16 18v393l-243 -12v-380q0 -16 15 -19z" />
    <glyph glyph-name="f_k" horiz-adv-x="878" 
d="M194 479h243v182q0 38 -30 60.5t-79 22.5q-75 0 -105 -43.5t-30 -129.5q0 -19 0.5 -50t0.5 -42zM500 220l177 202q15 17 -6 20l-63 12v25h226v-25l-76 -14q-22 -4 -34 -19l-120 -130l170 -231q10 -15 32 -19l68 -14v-27h-239v27l56 10q20 4 5 27l-131 184l-65 -70v-118
q0 -16 15 -19l71 -15v-27h-241v27l76 15q16 3 16 19v393l-243 -12v-380q0 -16 15 -19l78 -15v-27h-249v27l78 15q15 3 15 19v375l-96 9v29l96 8v80q0 104 49 159.5t145 55.5q72 0 121 -32l38 25l24 -5l-8 -98v-447z" />
    <glyph glyph-name="f_f_j" horiz-adv-x="904" 
d="M194 479h243v89v18q3 45 17 79q-43 68 -127 68q-134 0 -134 -155q0 -20 0.5 -53t0.5 -46zM634 -243q-55 0 -88 22.5t-33 61.5q0 23 14 38.5t38 15.5q20 0 33 -12.5t13 -33.5q0 -19 -11.5 -30.5t-25.5 -11.5q18 -18 58 -18q109 0 109 141v498q0 11 -4 16t-17 4l-220 -3
v-385q0 -15 16 -18l77 -15v-27h-248v27l77 15q15 3 15 19v383l-243 -3v-380q0 -16 15 -19l79 -15v-27h-250v27l78 15q15 3 15 19v375l-96 9v29l96 8v80q0 98 53 151t142 53q90 0 155 -55q54 66 161 66q72 0 114.5 -31t42.5 -77q0 -27 -15 -42t-39 -15q-22 0 -35.5 12.5
t-13.5 32.5q0 21 13 33.5t32 12.5h2q-23 41 -98 41q-74 0 -110 -40.5t-36 -125.5q0 -16 0.5 -50.5t0.5 -48.5h203l84 13l25 -5l-8 -95v-446q0 -97 -49.5 -143t-120.5 -46z" />
    <glyph glyph-name="f_f_f" horiz-adv-x="981" 
d="M742 586l1 18q1 37 12 67q-42 62 -122 62q-134 0 -134 -155q0 -20 0.5 -53t0.5 -46h242v107zM194 479h243v83v18q3 45 18 81q-42 68 -128 68q-134 0 -134 -155q0 -20 0.5 -51t0.5 -44zM288 27v-27h-250v27l78 15q15 3 15 19v375l-96 9v29l96 8v77q0 98 53 150.5t142 52.5
q95 0 157 -56q53 60 148 60q87 0 149 -49q45 59 134 59q56 0 94 -25.5t38 -63.5q0 -24 -14.5 -39t-36.5 -15q-21 0 -34 12t-13 31t11 31.5t25 12.5q-18 23 -67 23q-115 0 -114 -141q0 -20 1 -61t1 -62h132v-32l-132 -1v-383q0 -18 18 -21l94 -15v-27h-268v27l78 15
q15 3 15 19v384l-242 -2v-382q0 -16 15 -19l78 -15v-27h-249v27l77 15q16 3 16 19v382l-243 -2v-380q0 -16 15 -19z" />
    <glyph glyph-name="f_f_b" horiz-adv-x="1201" 
d="M742 479v182q0 38 -30 60.5t-79 22.5q-76 0 -105.5 -43t-29.5 -130q0 -19 1 -50t1 -42h242zM194 479h243v83v18q3 52 16 86q-42 67 -126 67q-134 0 -134 -155q0 -20 0.5 -53t0.5 -46zM942 19q76 0 113 60t37 164q0 214 -136 214q-65 0 -108 -57t-43 -160v-137
q39 -84 137 -84zM742 452l-242 -5v-386q0 -16 15 -19l77 -15v-27h-248v27l77 15q16 3 16 19v385l-243 -5v-380q0 -16 15 -19l79 -15v-27h-250v27l78 15q15 3 15 19v375l-96 9v29l96 8v80q0 98 53 151t142 53q88 0 153 -52q49 63 152 63q70 0 121 -32l37 25l25 -5l-9 -96
v-146l-8 -159q20 63 63.5 96t104.5 33q92 0 146 -69.5t54 -179.5q0 -120 -62 -189t-160 -69q-97 0 -155 58l-27 -56l-28 2l9 130v332z" />
    <glyph glyph-name="f_f_h" horiz-adv-x="1236" 
d="M194 479h243v82v18q3 51 16 87q-42 67 -126 67q-134 0 -134 -155q0 -20 0.5 -53t0.5 -46zM742 479v182q0 38 -30 60.5t-79 22.5q-76 0 -105.5 -43t-29.5 -130q0 -19 1 -50t1 -42h242zM742 452l-242 -5v-386q0 -16 15 -19l77 -15v-27h-248v27l77 15q16 3 16 19v385
l-243 -5v-380q0 -16 15 -19l79 -15v-27h-250v27l78 15q15 3 15 19v375l-96 9v29l96 8v80q0 98 53 151t142 53q88 0 153 -53q49 64 152 64q70 0 121 -32l37 25l25 -5l-9 -97v-147l-9 -189q22 73 69.5 117t116.5 44q68 0 103.5 -38.5t35.5 -110.5v-284q0 -15 15 -18l75 -16
v-26h-244v26l75 16q16 3 16 18v287q0 107 -92 107q-75 0 -118 -73.5t-43 -174.5v-146q0 -15 15 -18l76 -16v-26h-246v26l77 16q15 3 15 18v392z" />
    <glyph glyph-name="f_f_k" horiz-adv-x="1183" 
d="M742 479v182q0 38 -30 60.5t-79 22.5q-75 0 -105 -43.5t-30 -129.5q0 -19 1 -50t1 -42h242zM194 479h243v83v18q3 52 16 86q-42 67 -126 67q-134 0 -134 -155q0 -20 0.5 -53t0.5 -46zM1180 0h-240v27l56 10q21 5 6 27l-132 184l-65 -70v42l178 202q15 17 -7 20l-63 12v25
h226v-25l-76 -14q-22 -4 -34 -19l-119 -129l169 -232q12 -15 32 -19l69 -14v-27zM742 452l-242 -5v-386q0 -16 15 -19l77 -15v-27h-248v27l77 15q16 3 16 19v385l-243 -5v-380q0 -16 15 -19l79 -15v-27h-250v27l78 15q15 3 15 19v375l-96 9v29l96 8v80q0 98 53 151t142 53
q88 0 153 -52q49 63 152 63q70 0 121 -32l37 25l25 -5l-9 -98v-607q0 -16 15 -19l72 -15v-27h-241v27l76 15q15 3 15 19v392z" />
    <glyph glyph-name="c_t" horiz-adv-x="840" 
d="M443 85q-71 -99 -187 -99q-92 0 -156 67.5t-64 185.5q0 116 67 184t158 68q40 0 74 -16q-57 53 -57 132q0 70 49.5 122t137.5 52t137 -51.5t49 -132.5q0 -22 -2 -64t-2 -54h173v-31l-173 -8v-331q0 -82 67 -82q29 0 48 18t33 60l30 -9q-30 -108 -125 -108
q-116 0 -116 120v329l-95 8v29l59 8q38 7 53 41q15 29 15 79q0 67 -39 109t-114 42q-74 0 -113.5 -45.5t-39.5 -110.5q0 -42 19 -74.5t41 -49t41 -39t19 -47.5q0 -24 -14.5 -39t-35.5 -15t-34.5 12.5t-13.5 32.5q0 19 11 31t26 11q-27 40 -97 40q-74 0 -118.5 -54.5
t-44.5 -161.5q0 -106 44 -162t116 -56q89 0 149 78z" />
    <glyph glyph-name="altcedilla" horiz-adv-x="490" 
d="M242 -243q-50 0 -88 24l15 23q34 -17 66 -17q34 0 55 16t21 47q0 27 -14.5 41t-38.5 14q-19 0 -34 -6l-11 17q30 16 63 16q37 0 64 -21t27 -59q0 -45 -37.5 -70t-87.5 -25z" />
    <glyph glyph-name="croat" horiz-adv-x="579" 
d="M547 620v-40h-311v40h311z" />
    <glyph glyph-name="kreska" horiz-adv-x="555" 
d="M254 580l45 175h82l-100 -175h-27z" />
    <glyph glyph-name="altogonek" horiz-adv-x="663" 
d="M471 -239q-40 0 -66.5 23t-26.5 63q0 68 66.5 120t143.5 52v-19q-67 0 -114 -44t-47 -107q0 -26 15 -40.5t40 -14.5q50 0 95 67l22 -13q-52 -87 -128 -87z" />
    <glyph glyph-name="acute.case" horiz-adv-x="837" 
d="M369 744l102 125h92v-12l-163 -113h-31z" />
    <glyph glyph-name="breve.case" horiz-adv-x="837" 
d="M418 744q-58 0 -93.5 30.5t-43.5 84.5l24 2q16 -68 113 -68q95 0 113 68l23 -2q-7 -54 -43 -84.5t-93 -30.5z" />
    <glyph glyph-name="caron.case" horiz-adv-x="837" 
d="M460 744h-91l-119 125h34l144 -91l131 91h29z" />
    <glyph glyph-name="circumflex.case" horiz-adv-x="837" 
d="M407 835l-131 -91h-29l129 125h90l119 -125h-33z" />
    <glyph glyph-name="commaaccent.case" horiz-adv-x="384" 
d="M165 -245l-13 22q66 32 65 89q-10 -10 -27 -10t-28 11t-11 29t13 30.5t32 12.5q26 0 40 -17.5t14 -46.5q0 -40 -24 -71.5t-61 -48.5z" />
    <glyph glyph-name="croat.case" horiz-adv-x="579" 
d="M397 360v-40h-351v40h351z" />
    <glyph glyph-name="dieresis.case" horiz-adv-x="837" 
d="M516 744q-19 0 -32.5 13.5t-13.5 32.5t13.5 33t32.5 14t32.5 -13.5t13.5 -33.5q0 -19 -13.5 -32.5t-32.5 -13.5zM319 744q-19 0 -32 13.5t-13 32.5q0 20 13 33.5t32 13.5t32.5 -13.5t13.5 -33.5q0 -19 -13.5 -32.5t-32.5 -13.5z" />
    <glyph glyph-name="dotaccent.case" horiz-adv-x="837" 
d="M417 744q-19 0 -32 13.5t-13 32.5q0 20 13 33.5t32 13.5q20 0 33.5 -13.5t13.5 -33.5q0 -19 -13.5 -32.5t-33.5 -13.5z" />
    <glyph glyph-name="grave.case" horiz-adv-x="837" 
d="M436 744l-163 113v12h92l102 -125h-31z" />
    <glyph glyph-name="hungarumlaut.case" horiz-adv-x="837" 
d="M455 744l102 125h92v-12l-163 -113h-31zM308 744l102 125h92v-12l-163 -113h-31z" />
    <glyph glyph-name="kreska.case" horiz-adv-x="845" 
d="M396 744l31 125h86l-92 -125h-25z" />
    <glyph glyph-name="macron.case" horiz-adv-x="837" 
d="M275 759v33q46 -1 143 -1q98 0 144 1v-33q-92 2 -144 2q-51 0 -143 -2z" />
    <glyph glyph-name="ring.case" horiz-adv-x="837" 
d="M416 723q-46 0 -76.5 28.5t-30.5 72.5t31 72.5t76 28.5t75.5 -28.5t30.5 -72.5t-30.5 -72.5t-75.5 -28.5zM415 744q35 0 54 22t19 58q0 35 -19 57.5t-53 22.5q-35 0 -54 -22.5t-19 -57.5q0 -36 19 -58t53 -22z" />
    <glyph glyph-name="tilde.case" horiz-adv-x="837" 
d="M481 753q-31 0 -77 34.5t-70 34.5q-28 0 -28 -30q0 -20 10 -39l-20 -10q-19 27 -19 60q0 28 18 47.5t52 19.5q32 0 79.5 -33.5t70.5 -33.5q22 0 31.5 14.5t11.5 45.5l26 -1q0 -48 -20 -78.5t-65 -30.5z" />
    <glyph glyph-name="ckreska" horiz-adv-x="480" 
d="M231 580l45 175h82l-100 -175h-27zM443 85q-71 -99 -187 -99q-92 0 -156 67.5t-64 185.5q0 119 69 186.5t166 67.5q68 0 114.5 -29.5t46.5 -75.5q0 -25 -14.5 -40t-36.5 -15q-20 0 -34 12.5t-14 32.5q0 19 11 31t27 12q-27 39 -98 39q-75 0 -120 -55t-45 -161
q0 -105 44.5 -161t116.5 -56q88 0 149 77z" />
    <glyph glyph-name="idotaccent" horiz-adv-x="320" 
d="M161 614q-19 0 -32.5 13.5t-13.5 32.5t13.5 32.5t32.5 13.5t32.5 -13.5t13.5 -32.5t-13.5 -32.5t-32.5 -13.5zM44 0v27l78 15q15 3 15 19v354q0 16 -15 17l-83 6v23l143 31l26 -5l-8 -95v-331q0 -16 16 -19l76 -15v-27h-248z" />
    </font>
</defs>
</svg>
