<?xml version="1.0" standalone="no"?>
<!DOCTYPE svg PUBLIC "-//W3C//DTD SVG 1.1//EN" "http://www.w3.org/Graphics/SVG/1.1/DTD/svg11.dtd" >
<svg>
<metadata>
Created by FontForge 20120731 at Sat Nov 16 07:23:50 2019
 By www
Copyright 2012 (c) Okay Type Foundry. All rights reserved.
</metadata>
<defs>
<font id="HarrietDisplay-Black" horiz-adv-x="600" >
  <font-face 
    font-family="Harriet Display Black"
    font-weight="900"
    font-stretch="normal"
    units-per-em="1000"
    panose-1="2 0 0 0 0 0 0 0 0 0"
    ascent="800"
    descent="-200"
    x-height="495"
    cap-height="679"
    bbox="-120 -336 1388 1054"
    underline-thickness="0"
    underline-position="0"
    unicode-range="U+0020-FB06"
  />
<missing-glyph horiz-adv-x="500" 
d="M10 -230v995h480v-995h-480zM193 84h115q20 0 26.5 7t6.5 26q0 35 11.5 50.5t42.5 21.5q29 5 29 39q0 13 -3.5 23t-3.5 15q0 26 7 37q26 42 26 78q0 78 -53.5 123.5t-142.5 45.5q-95 0 -149.5 -47.5t-54.5 -130.5q0 -8 1.5 -15.5t2.5 -12t4.5 -11.5t4.5 -9.5t6.5 -11
t6.5 -9.5q7 -11 7 -37q0 -5 -3.5 -15t-3.5 -23q0 -34 28 -39q32 -6 43.5 -21t11.5 -51q0 -19 7 -26t27 -7zM335 222q-10 0 -17 4t-12.5 11.5t-6.5 8.5q-2 2 -6.5 6t-8 7t-6 6.5t-2.5 5.5q0 18 12 28.5t31 10.5q20 0 38 -18.5t18 -33.5q0 -12 -13.5 -24t-26.5 -12zM166 222
q-13 0 -26.5 12t-13.5 24q0 15 18 33.5t38 18.5q19 0 31 -10.5t12 -28.5q0 -5 -23 -25q-1 -1 -6.5 -8.5t-12.5 -11.5t-17 -4zM275 182q0 -4 -0.5 -7t-2 -5t-3 -3t-4.5 -1.5t-4.5 -0.5h-5.5h-5h-5h-5.5t-4.5 0.5t-4.5 1.5t-3 3t-2 5t-0.5 7q0 16 7 31.5t18 15.5t18 -15.5
t7 -31.5z" />
    <glyph glyph-name="ff" unicode="ff" horiz-adv-x="776" 
d="M702 15v-15q-27 0 -81 0.5t-81 0.5t-80 -0.5t-80 -0.5v15l24 4q25 4 33 16t8 45v378l-167 -3h-1v-371q0 -36 8.5 -48t34.5 -17l24 -4v-15q-27 0 -80 0.5t-80 0.5t-80 -0.5t-80 -0.5v15l24 4q25 4 33 16t8 45v365l-84 17v21l85 17q7 135 77.5 202t188.5 67q117 0 160 -65
q69 75 196 75q80 0 122 -34t42 -88q0 -47 -29 -74t-70 -27t-66 24t-25 62q0 25 11 43t23.5 26.5t23.5 17t11 15.5q0 17 -35 17q-89 0 -89 -134q0 -21 1 -66.5t1 -65.5h136v-30l-136 -3v-378q0 -36 8.5 -48t35.5 -17zM445 495v7q2 33 5 48q-6 -1 -17 -1q-42 0 -66.5 23.5
t-24.5 61.5q0 25 9 43t19.5 25.5t19.5 16t9 15.5q0 17 -35 17q-89 0 -89 -134q0 -21 1 -61.5t1 -60.5h168z" />
    <glyph glyph-name="fi" unicode="fi" horiz-adv-x="707" 
d="M700 15v-15q-28 0 -81 0.5t-80 0.5t-80 -0.5t-81 -0.5v15l25 4q26 4 34 16.5t8 45.5v331q0 28 -10 38.5t-39 10.5q-32 0 -119 -6v-374q0 -33 8 -45.5t34 -16.5l25 -4v-15q-28 0 -80 0.5t-80 0.5t-80 -0.5t-80 -0.5v15l24 4q26 4 33.5 16.5t7.5 45.5v364l-84 17v21l84 17
q9 284 300 284q92 0 141 -36t49 -97q0 -46 -28 -72t-73 -26q-44 0 -70.5 22.5t-26.5 60.5q0 25 11.5 46t23 35t11.5 24q0 24 -45 24q-56 0 -81.5 -40t-25.5 -125q0 -19 1 -55t1 -46v-4h301l48 4l15 -12q-8 -46 -8 -111v-295q0 -33 8 -45.5t34 -16.5z" />
    <glyph glyph-name="fl" unicode="fl" horiz-adv-x="703" 
d="M445 495v65l-12 -1q-39 0 -63.5 23.5t-24.5 60.5q0 23 10 40.5t21.5 25.5t21.5 16.5t10 15.5q0 21 -34 21q-99 0 -99 -143q0 -21 1 -59t1 -58v-7h168zM445 464l-167 -9h-1v-374q0 -33 8 -45.5t34 -16.5l25 -4v-15q-28 0 -80 0.5t-80 0.5t-80 -0.5t-80 -0.5v15l24 4
q26 4 33.5 16.5t7.5 45.5v364l-84 17v21l84 18q4 141 81 210t203 69q104 0 146 -54l103 56l17 -8q-6 -56 -6 -134v-559q0 -33 8 -45.5t34 -16.5l25 -4v-15q-28 0 -81 0.5t-80 0.5t-81 -0.5t-81 -0.5v15l25 4q26 4 34.5 16.5t8.5 45.5v383z" />
    <glyph glyph-name="ffi" unicode="ffi" horiz-adv-x="1060" 
d="M1055 15v-15q-27 0 -80 0.5t-81 0.5t-81 -0.5t-80 -0.5v15l25 4q26 4 34 16.5t8 45.5v331q0 28 -10 38.5t-39 10.5q-66 0 -119 -1v-379q0 -33 8 -45.5t34 -16.5l25 -4v-15q-27 0 -80 0.5t-80 0.5t-79.5 -0.5t-80.5 -0.5v15l24 4q26 4 33.5 16.5t7.5 45.5v376
q-54 -1 -166 -4h-1v-369q0 -36 8.5 -48t34.5 -17l24 -4v-15q-27 0 -80 0.5t-80 0.5t-80 -0.5t-80 -0.5v15l24 4q25 4 33 16t8 45v365l-84 17v21l85 17q7 135 77.5 202t188.5 67q116 0 159 -64q75 79 229 79q92 0 141 -36t49 -97q0 -46 -28 -72t-73 -26q-44 0 -70.5 22.5
t-26.5 60.5q0 25 11.5 46t23 35t11.5 24q0 24 -45 24q-56 0 -81.5 -40t-25.5 -125q0 -19 1 -55t1 -45v-5h301l48 4l15 -12q-8 -46 -8 -111v-295q0 -33 8 -45.5t34 -16.5zM277 495l167 3q2 35 4 52q-5 -1 -15 -1q-42 0 -66.5 23.5t-24.5 61.5q0 25 9 43t19.5 25.5t19.5 16
t9 15.5q0 17 -35 17q-89 0 -89 -134q0 -21 1 -61.5t1 -60.5z" />
    <glyph glyph-name="ffl" unicode="ffl" horiz-adv-x="1058" 
d="M800 495v65l-12 -1q-39 0 -63.5 23.5t-24.5 60.5q0 23 10 40.5t21.5 25.5t21.5 16.5t10 15.5q0 21 -34 21q-99 0 -99 -143q0 -21 1 -59t1 -58v-7h168zM444 495v11q2 30 4 44q-5 -1 -15 -1q-42 0 -66.5 23.5t-24.5 61.5q0 25 9 43t19.5 25.5t19.5 16t9 15.5q0 17 -35 17
q-89 0 -89 -134q0 -21 1 -61.5t1 -60.5h167zM800 464l-168 -3v-380q0 -33 8 -45.5t34 -16.5l25 -4v-15q-27 0 -80 0.5t-80 0.5t-79.5 -0.5t-80.5 -0.5v15l24 4q26 4 33.5 16.5t7.5 45.5v377l-166 -3h-1v-371q0 -36 8.5 -48t34.5 -17l24 -4v-15q-27 0 -80 0.5t-80 0.5
t-80 -0.5t-80 -0.5v15l24 4q25 4 33 16t8 45v365l-84 17v21l85 17q7 135 77.5 202t188.5 67t161 -66q74 77 211 77q104 0 146 -54l103 56l17 -8q-6 -56 -6 -134v-559q0 -33 8 -45.5t34 -16.5l25 -4v-15q-27 0 -80 0.5t-81 0.5q-27 0 -80.5 -0.5t-81.5 -0.5v15l25 4
q26 4 34.5 16.5t8.5 45.5v383z" />
    <glyph glyph-name=".notdef" horiz-adv-x="500" 
d="M10 -230v995h480v-995h-480zM193 84h115q20 0 26.5 7t6.5 26q0 35 11.5 50.5t42.5 21.5q29 5 29 39q0 13 -3.5 23t-3.5 15q0 26 7 37q26 42 26 78q0 78 -53.5 123.5t-142.5 45.5q-95 0 -149.5 -47.5t-54.5 -130.5q0 -8 1.5 -15.5t2.5 -12t4.5 -11.5t4.5 -9.5t6.5 -11
t6.5 -9.5q7 -11 7 -37q0 -5 -3.5 -15t-3.5 -23q0 -34 28 -39q32 -6 43.5 -21t11.5 -51q0 -19 7 -26t27 -7zM335 222q-10 0 -17 4t-12.5 11.5t-6.5 8.5q-2 2 -6.5 6t-8 7t-6 6.5t-2.5 5.5q0 18 12 28.5t31 10.5q20 0 38 -18.5t18 -33.5q0 -12 -13.5 -24t-26.5 -12zM166 222
q-13 0 -26.5 12t-13.5 24q0 15 18 33.5t38 18.5q19 0 31 -10.5t12 -28.5q0 -5 -23 -25q-1 -1 -6.5 -8.5t-12.5 -11.5t-17 -4zM275 182q0 -4 -0.5 -7t-2 -5t-3 -3t-4.5 -1.5t-4.5 -0.5h-5.5h-5h-5h-5.5t-4.5 0.5t-4.5 1.5t-3 3t-2 5t-0.5 7q0 16 7 31.5t18 15.5t18 -15.5
t7 -31.5z" />
    <glyph glyph-name=".null" horiz-adv-x="0" 
 />
    <glyph glyph-name="nonmarkingreturn" horiz-adv-x="333" 
 />
    <glyph glyph-name="space" unicode=" " horiz-adv-x="180" 
 />
    <glyph glyph-name="exclam" unicode="!" horiz-adv-x="364" 
d="M188 218h-12q-8 117 -62 234q-2 5 -9 20t-9.5 21t-8 18.5t-7.5 20t-5 18t-4 20t-1 18.5q0 46 32 75t80 29t80 -29t32 -75q0 -11 -2 -23t-4 -20t-8 -24t-8 -21t-11.5 -25t-10.5 -23q-54 -117 -62 -234zM182 -15q-42 0 -70 27.5t-28 68.5t28 68.5t70 27.5t70 -27.5
t28 -68.5t-28 -68.5t-70 -27.5z" />
    <glyph glyph-name="quotedbl" unicode="&#x22;" horiz-adv-x="442" 
d="M311 488h-16q-8 44 -21.5 93.5t-22 81t-8.5 47.5q0 26 15.5 42.5t44.5 16.5q28 0 43.5 -16.5t15.5 -42.5q0 -20 -8 -51t-21.5 -80t-21.5 -91zM148 488h-16q-8 44 -21.5 93.5t-22 81t-8.5 47.5q0 26 15.5 42.5t44.5 16.5q28 0 43.5 -16.5t15.5 -42.5q0 -20 -8 -51
t-21.5 -80t-21.5 -91z" />
    <glyph glyph-name="numbersign" unicode="#" horiz-adv-x="563" 
d="M347 281l8 76h-141l-8 -76h141zM187 115l-12 -115h-25l12 115h-94l-48 166h161l8 76h-97l-48 166h163l12 112h25l-12 -112h141l12 112h25l-12 -112h97l48 -166h-163l-8 -76h98l48 -166h-165l-12 -115h-25l12 115h-141z" />
    <glyph glyph-name="dollar" unicode="$" horiz-adv-x="595" 
d="M290 433l28 198h-1q-71 0 -104 -25.5t-33 -65.5q0 -38 27 -62t83 -45zM272 -1q74 0 113 26.5t39 68.5q0 23 -9.5 40t-32 31t-41.5 22t-58 22l-29 -209zM549 209q0 -110 -77 -169t-200 -59h-21l-14 -102h-25l15 104q-97 7 -151 43.5t-54 98.5q0 46 25.5 72t66.5 26
q35 0 58 -21.5t23 -55.5q0 -30 -20.5 -56t-20.5 -41q0 -39 75 -48l31 216l-8 3q-100 37 -149.5 83.5t-49.5 129.5q0 99 70.5 157.5t195.5 58.5h1l8 56h25l-8 -57q95 -5 151 -42t56 -97q0 -43 -26.5 -68.5t-64.5 -25.5q-35 0 -58.5 21.5t-23.5 58.5q0 30 22 54.5t22 37.5
q0 14 -21.5 26.5t-59.5 16.5l-28 -205q22 -8 34 -12q51 -17 79 -29.5t60.5 -36t47 -57.5t14.5 -81z" />
    <glyph glyph-name="percent" unicode="%" horiz-adv-x="680" 
d="M357 492q0 -75 -48.5 -116.5t-117.5 -41.5q-68 0 -117 41.5t-49 116.5t48.5 116t117.5 41t117.5 -41t48.5 -116zM47 0l280 326l257 309h46l-282 -328l-254 -307h-47zM191 349q27 0 36 28.5t9 114.5t-9 114t-36 28q-26 0 -35 -28t-9 -114t9 -114.5t35 -28.5zM489 -15
q-69 0 -117.5 41.5t-48.5 116.5t48.5 116t117.5 41t117.5 -41t48.5 -116t-48.5 -116.5t-117.5 -41.5zM489 0q27 0 36 28.5t9 114.5t-9 114t-36 28q-26 0 -35.5 -28.5t-9.5 -113.5t9.5 -114t35.5 -29z" />
    <glyph glyph-name="ampersand" unicode="&#x26;" horiz-adv-x="807" 
d="M792 170q-4 -190 -167 -190q-116 0 -191 65q-50 -65 -173 -65q-115 0 -178 53.5t-63 146.5q0 79 54.5 132.5t153.5 73.5q-21 63 -21 116q0 78 52.5 137t146.5 59q73 0 122.5 -31.5t49.5 -92.5q0 -55 -44.5 -87t-122.5 -53q24 -50 37 -74q33 -63 60 -111q26 106 65 156.5
t119 50.5q46 0 76.5 -29.5t30.5 -73.5q0 -40 -24 -65.5t-62 -25.5t-61 22.5t-23 56.5l2 32q0 18 -17 18q-54 0 -96 -160q62 -107 101.5 -145t78.5 -38q75 0 80 122h14zM406 445l6 4q45 38 45 139q0 41 -13 66t-38 25q-51 0 -51 -62q0 -61 51 -172zM369 34q20 0 36 6.5
t19 13.5q-55 52 -133 191q-41 77 -60 132q-27 -16 -27 -99q0 -91 52.5 -167.5t112.5 -76.5z" />
    <glyph glyph-name="quotesingle" unicode="'" horiz-adv-x="279" 
d="M148 488h-16q-8 44 -21.5 93.5t-22 81t-8.5 47.5q0 26 15.5 42.5t44.5 16.5q28 0 43.5 -16.5t15.5 -42.5q0 -20 -8 -51t-21.5 -80t-21.5 -91z" />
    <glyph glyph-name="parenleft" unicode="(" horiz-adv-x="413" 
d="M388 -186l-5 -6q-303 185 -303 483v5q0 291 303 481l5 -6q-58 -67 -95.5 -190t-37.5 -285v-5q0 -164 37 -286.5t96 -190.5z" />
    <glyph glyph-name="parenright" unicode=")" horiz-adv-x="413" 
d="M30 -192l-5 6q59 68 96 190.5t37 286.5v5q0 162 -37.5 285t-95.5 190l5 6q303 -190 303 -481v-5q0 -298 -303 -483z" />
    <glyph glyph-name="asterisk" unicode="*" horiz-adv-x="436" 
d="M228 425q-5 -18 -20 -26.5t-34 -3.5t-28 20.5t-4 32.5q4 17 16.5 29t27.5 30t25 47q-37 -11 -62 -38t-43 -31q-18 -5 -33 3.5t-21 27.5q-5 19 4 34.5t26 20.5q15 4 54 -5t73 -2q-25 22 -63.5 34t-49.5 23q-13 12 -13.5 30t14.5 33q15 13 32 12.5t30 -12.5
q13 -13 21.5 -49t35.5 -64q8 39 -2.5 73.5t-5.5 52.5t20.5 26.5t34.5 3.5t28 -20t4 -33t-31 -43.5t-38 -62.5q37 11 62 38t43 31q18 5 33 -3.5t21 -27.5q5 -19 -4 -34.5t-26 -20.5q-15 -4 -54.5 5t-72.5 2q25 -22 63.5 -34t49.5 -23q13 -12 13.5 -30t-14.5 -33
q-15 -13 -32 -12.5t-30 12.5q-14 14 -22 49.5t-35 63.5q-8 -38 2 -73t5 -53z" />
    <glyph glyph-name="plus" unicode="+" horiz-adv-x="550" 
d="M294 233v-200h-38v200h-200v38h200v198h38v-198h200v-38h-200z" />
    <glyph glyph-name="comma" unicode="," horiz-adv-x="311" 
d="M88 -193l-11 19q62 34 99.5 85.5t37.5 101.5q0 14 -10 14q-6 0 -13.5 -8.5t-22.5 -16.5t-38 -8q-34 0 -57 25t-23 64q0 40 28.5 67t70.5 27q53 0 82.5 -36t29.5 -97q0 -73 -49 -136.5t-124 -100.5z" />
    <glyph glyph-name="hyphen" unicode="-" horiz-adv-x="299" 
d="M25 226v49h249v-49h-249z" />
    <glyph glyph-name="period" unicode="." horiz-adv-x="295" 
d="M245 82q0 -41 -28 -68.5t-69 -27.5q-42 0 -70 27.5t-28 68.5t28 68t70 27q41 0 69 -27.5t28 -67.5z" />
    <glyph glyph-name="slash" unicode="/" horiz-adv-x="324" 
d="M15 -50l258 779h36l-258 -779h-36z" />
    <glyph glyph-name="zero" unicode="0" horiz-adv-x="656" 
d="M621 267q0 -73 -27.5 -129.5t-72 -88.5t-94 -48t-99.5 -16t-99.5 16t-94 48t-72 89t-27.5 130t27.5 129t72 87.5t93.5 47t100 15.5t100 -15.5t93.5 -46.5t72 -87.5t27.5 -130.5zM251 267q0 -148 16 -206t61 -58t61 58.5t16 206.5q0 147 -16 204t-61 57t-61 -57.5
t-16 -204.5z" />
    <glyph glyph-name="one" unicode="1" horiz-adv-x="500" 
d="M455 0q-34 0 -96 0.5t-96 0.5t-102.5 -0.5t-102.5 -0.5v16l35 7q37 7 48.5 22.5t11.5 54.5v281q0 41 -11 57.5t-46 20.5l-55 8v19l65 5q212 16 236 46h22q-4 -65 -4 -147v-290q0 -40 11 -55t49 -22l35 -7v-16z" />
    <glyph glyph-name="two" unicode="2" horiz-adv-x="605" 
d="M523 -76h-15v22q0 30 -11.5 42t-41.5 12h-401v53q106 74 137 98q83 65 123 125t40 142q0 59 -17 85t-54 26q-44 0 -72 -34t-28 -82q0 -82 45 -82q35 0 48 55l10 -1q-7 -61 -45.5 -98t-92.5 -37t-83.5 33t-29.5 82q0 81 72 131.5t186 50.5q129 0 199 -45.5t70 -120.5
q0 -50 -26 -85t-69.5 -54.5t-89 -32.5t-96 -30.5t-79.5 -38.5l-5 -4q94 17 181 17h185z" />
    <glyph glyph-name="three" unicode="3" horiz-adv-x="611" 
d="M588 77q0 -75 -54.5 -131t-133.5 -82t-166 -26q-95 0 -153.5 41t-58.5 110q0 52 31 85.5t85 33.5q48 0 77 -27.5t29 -72.5q0 -30 -13.5 -51.5t-29 -30t-29 -18t-13.5 -18.5q0 -12 19.5 -22.5t53.5 -10.5q58 0 97 55t39 164q0 137 -73 137q-29 0 -65.5 -25t-57.5 -25
q-44 0 -44 47q16 7 71 17.5t79 22.5q41 20 66.5 66t25.5 108q0 54 -18 79t-59 25q-48 0 -72 -31.5t-24 -75.5q0 -67 43 -67q36 0 48 54l10 -1q-8 -61 -42 -93.5t-87 -32.5q-55 0 -85.5 26.5t-30.5 73.5q0 74 73.5 120t180.5 46q116 0 186 -34.5t70 -105.5q0 -47 -34.5 -79
t-77 -45t-105 -30.5t-92.5 -31.5q42 20 118 20q97 0 156.5 -42t59.5 -122z" />
    <glyph glyph-name="four" unicode="4" horiz-adv-x="604" 
d="M32 91h228v183v16q0 101 10 180zM552 -131v-16q-34 0 -96 0.5t-96 0.5t-97.5 -0.5t-97.5 -0.5v16l35 7q37 7 48.5 22.5t11.5 54.5v107h-233l-17 31l273 441h174v-441h4q43 0 65.5 21t43.5 68l18 40h16l-32 -160h-115v-107q0 -40 11 -55t49 -22z" />
    <glyph glyph-name="five" unicode="5" horiz-adv-x="604" 
d="M224 -162q-92 0 -145.5 42.5t-53.5 107.5q0 52 31.5 86t85.5 34q48 0 76 -27.5t28 -72.5q0 -30 -13 -51.5t-29 -30.5t-29 -18.5t-13 -18.5q0 -12 17.5 -22t48.5 -10q56 0 91 56.5t35 162.5q0 92 -27 131t-79 39q-35 0 -70.5 -24.5t-52.5 -63.5l-40 3l35 371h22
q71 -22 196 -22q151 0 204 32l7 -3q-9 -53 -39.5 -92t-73 -60t-95.5 -33.5t-108 -11.5t-110 5l-15 -145q34 32 89 53t119 21q116 0 187 -50.5t71 -150.5q0 -61 -32 -108.5t-84 -74.5t-111.5 -40.5t-122.5 -13.5z" />
    <glyph glyph-name="six" unicode="6" horiz-adv-x="642" 
d="M241 231q0 93 36 139.5t122 46.5q94 0 152 -54.5t58 -147.5q0 -75 -43 -129t-105 -77.5t-134 -23.5q-128 0 -210 82t-82 249q0 89 31.5 162.5t82.5 119.5t112.5 71t124.5 25q99 0 152.5 -38t53.5 -98q0 -50 -32 -82t-80 -32q-49 0 -79 25.5t-30 70.5q0 29 11.5 49.5
t24.5 29.5t24.5 18t11.5 16q0 22 -54 22q-84 0 -116 -99.5t-32 -344.5zM254 231q0 -133 16 -180t57 -47q35 0 52 42t17 140q0 101 -15 143.5t-48 42.5q-38 0 -58.5 -38t-20.5 -103z" />
    <glyph glyph-name="seven" unicode="7" horiz-adv-x="565" 
d="M288 -167q-58 0 -91.5 29.5t-33.5 85.5t30.5 111.5t85.5 121.5q26 32 84 95t76 83h-280q-35 0 -53.5 -11t-30.5 -38l-14 -31h-18l37 273h18q2 -20 28 -20h422v-53q-81 -109 -116 -195.5t-35 -192.5q0 -13 3 -58.5t3 -80.5q0 -52 -31 -85.5t-84 -33.5z" />
    <glyph glyph-name="eight" unicode="8" horiz-adv-x="678" 
d="M339 -15q-141 0 -227.5 50.5t-86.5 142.5q0 79 68 123.5t185 53.5q-99 9 -157.5 49.5t-58.5 113.5q0 86 74.5 131t202.5 45t202.5 -45t74.5 -131q0 -73 -58.5 -113.5t-157.5 -49.5q117 -9 185 -53.5t68 -123.5q0 -92 -86.5 -142.5t-227.5 -50.5zM267 519
q0 -84 17.5 -120.5t54.5 -36.5t54.5 36.5t17.5 120.5q0 85 -17.5 120.5t-54.5 35.5t-54.5 -35.5t-17.5 -120.5zM256 179q1 -86 19.5 -125.5t63.5 -39.5t63.5 39.5t18.5 125.5t-18.5 125.5t-63.5 39.5t-63.5 -39.5t-19.5 -125.5z" />
    <glyph glyph-name="nine" unicode="9" horiz-adv-x="639" 
d="M390 300q0 133 -16 180.5t-57 47.5q-35 0 -52 -42.5t-17 -140.5q0 -101 15 -143.5t48 -42.5q38 0 58.5 38t20.5 103zM403 300q0 -93 -36 -139.5t-122 -46.5q-94 0 -152 54.5t-58 147.5q0 57 24.5 102.5t65.5 72.5t90 41.5t102 14.5q128 0 210 -82.5t82 -249.5
q0 -89 -31.5 -162.5t-82.5 -119.5t-112.5 -71t-124.5 -25q-99 0 -152.5 38t-53.5 98q0 51 32 82.5t80 31.5q49 0 79 -25.5t30 -70.5q0 -29 -11.5 -49.5t-24.5 -29.5t-24.5 -18t-11.5 -16q0 -22 54 -22q84 0 116 99.5t32 344.5z" />
    <glyph glyph-name="colon" unicode=":" horiz-adv-x="325" 
d="M260 419q0 -41 -28 -68.5t-69 -27.5q-42 0 -70 27.5t-28 68.5t28 68t70 27q41 0 69 -27.5t28 -67.5zM260 82q0 -41 -28 -68.5t-69 -27.5q-42 0 -70 27.5t-28 68.5t28 68t70 27q41 0 69 -27.5t28 -67.5z" />
    <glyph glyph-name="semicolon" unicode=";" horiz-adv-x="341" 
d="M260 419q0 -41 -28 -68.5t-69 -27.5q-42 0 -70 27.5t-28 68.5t28 68t70 27q41 0 69 -27.5t28 -67.5zM103 -193l-11 19q62 34 99.5 85.5t37.5 101.5q0 14 -10 14q-6 0 -13.5 -8.5t-22.5 -16.5t-38 -8q-34 0 -57 25t-23 64q0 40 28.5 67t70.5 27q53 0 82.5 -36t29.5 -97
q0 -73 -49 -136.5t-124 -100.5z" />
    <glyph glyph-name="less" unicode="&#x3c;" horiz-adv-x="550" 
d="M461 27l-401 201v46l401 201l17 -34l-384 -190l384 -190z" />
    <glyph glyph-name="equal" unicode="=" horiz-adv-x="550" 
d="M56 327v38h438v-38h-438zM494 137h-438v38h438v-38z" />
    <glyph glyph-name="greater" unicode="&#x3e;" horiz-adv-x="550" 
d="M490 228l-401 -201l-17 34l384 190l-384 190l17 34l401 -201v-46z" />
    <glyph glyph-name="question" unicode="?" horiz-adv-x="584" 
d="M564 509q0 -64 -41.5 -107t-98.5 -60t-123 -17q-23 0 -34 2l-18 -99h-15l-23 122l12 4q29 -9 60 -9q79 0 79 179q0 147 -89 147q-49 0 -74.5 -35t-25.5 -84q0 -32 12 -49t32 -17q38 0 50 56l10 -1q-8 -65 -45 -103t-89 -38t-81 30.5t-29 81.5q0 79 68.5 130t183.5 51
q128 0 203.5 -49t75.5 -135zM346 81q0 -41 -28 -68.5t-70 -27.5t-70 27.5t-28 68.5t28 68.5t70 27.5t70 -27.5t28 -68.5z" />
    <glyph glyph-name="at" unicode="@" horiz-adv-x="922" 
d="M455 -244q-182 0 -295.5 108t-113.5 277q0 93 35.5 181t99 158t160.5 112.5t210 42.5q145 0 240.5 -80t95.5 -213q0 -79 -31 -144t-77.5 -102t-95 -56.5t-90.5 -19.5q-60 0 -91.5 24t-31.5 67q0 13 3 22q-22 -55 -45 -77.5t-64 -22.5q-50 0 -78 37t-28 91q0 105 73.5 191
t188.5 86q69 0 114 -34l68 36h6l-25 -73l-76 -221q-14 -37 -14 -62q0 -38 38 -38q26 0 52.5 12.5t53 39.5t43.5 79t17 122q0 140 -87.5 217.5t-210.5 77.5q-168 0 -264.5 -94.5t-96.5 -245.5q0 -171 117.5 -269.5t317.5 -98.5q57 0 100.5 14t58.5 36l8 -2q-20 -49 -56 -85.5
t-77.5 -55.5t-80 -28t-71.5 -9zM416 79q14 0 25 17.5t28 66.5l86 251q-9 10 -25 10q-47 0 -90.5 -118.5t-43.5 -188.5q0 -38 20 -38z" />
    <glyph glyph-name="A" unicode="A" horiz-adv-x="734" 
d="M739 16v-16q-34 0 -100 0.5t-100 0.5t-102.5 -0.5t-102.5 -0.5v16l31 6q34 7 42.5 27t-6.5 77l-23 72h-201q-26 -77 -12 -115t71 -56l34 -11v-16q-23 0 -69.5 0.5t-70.5 0.5t-67.5 -0.5t-67.5 -0.5v16l24 8q45 15 73.5 53.5t64.5 134.5l108 303l54 164h120l186 -529
q25 -74 43 -99t46 -30zM283 502l-98 -281h186z" />
    <glyph glyph-name="B" unicode="B" horiz-adv-x="745" 
d="M15 0v16l35 7q38 7 49 22t11 55v479q0 40 -11 55t-49 22l-35 7v16h397q125 0 195 -38t70 -117q0 -77 -56 -113.5t-172 -49.5v-3q261 -18 261 -176q0 -182 -284 -182h-411zM328 366h37q92 0 92 151q0 143 -91 143h-38v-294zM328 347v-277q0 -51 44 -51h16q38 0 63.5 44.5
t25.5 129.5q0 78 -28 116t-78 38h-43z" />
    <glyph glyph-name="C" unicode="C" horiz-adv-x="694" 
d="M611 -12l-52 57q-70 -64 -161 -64q-160 0 -265.5 99t-105.5 259q0 159 106 259t259 100q97 0 167 -64l52 56h8v-295h-16q-19 53 -33 88t-34.5 76t-40 64.5t-45.5 39.5t-55 16q-136 0 -136 -340q0 -169 32.5 -254t107.5 -85q26 0 49.5 14t42.5 36t39.5 60.5t36 74
t36.5 90.5h16v-287h-8z" />
    <glyph glyph-name="D" unicode="D" horiz-adv-x="780" 
d="M15 0v16l35 7q38 7 49 22t11 55v479q0 40 -11 55t-49 22l-35 7v16h365q176 0 274.5 -83t98.5 -256q0 -171 -101 -255.5t-267 -84.5h-370zM372 19h15q134 0 134 321q0 158 -33 239t-108 81h-52v-590q0 -51 44 -51z" />
    <glyph glyph-name="E" unicode="E" horiz-adv-x="689" 
d="M644 255v-255h-629v16l35 7q38 7 49 22t11 55v479q0 40 -11 55t-49 22l-35 7v16h606v-251h-21q-87 232 -220 232h-52v-301h6q44 0 74.5 35.5t62.5 128.5h14q-1 -58 -1 -175t1 -176h-14q-31 97 -61.5 132.5t-76.5 35.5h-5v-270q0 -51 44 -51h12q150 0 241 236h19z" />
    <glyph glyph-name="F" unicode="F" horiz-adv-x="661" 
d="M436 16v-16q-35 0 -105 0.5t-105 0.5t-105.5 -0.5t-105.5 -0.5v16l35 7q38 7 49 22t11 55v479q0 40 -11 55t-49 22l-35 7v16h606v-271h-21q-91 252 -222 252h-50v-303h6q44 0 74.5 35.5t62.5 128.5h14q-1 -58 -1 -175t1 -176h-14q-31 97 -61.5 132.5t-76.5 35.5h-5v-233
q0 -41 13 -58t55 -24z" />
    <glyph glyph-name="G" unicode="G" horiz-adv-x="734" 
d="M633 -13l-79 72q-33 -37 -83.5 -57.5t-100.5 -20.5q-142 0 -242.5 100t-100.5 258q0 159 109.5 259t266.5 100q100 0 169 -64l51 56h8v-285h-16q-25 64 -43 103.5t-44.5 83.5t-57.5 65.5t-66 21.5q-71 0 -108 -88.5t-37 -251.5q0 -171 26 -255t90 -84q73 0 73 85v133
q0 40 -12 55t-53 22l-37 7v16q63 -1 190 -1t190 1v-16l-32 -7q-37 -8 -47 -22.5t-10 -54.5v-103l6 -128h-10z" />
    <glyph glyph-name="H" unicode="H" horiz-adv-x="855" 
d="M840 16v-16q-33 0 -99.5 0.5t-99.5 0.5t-98 -0.5t-99 -0.5v16l30 7q33 7 42.5 22.5t9.5 54.5v236h-197v-236q0 -40 9.5 -54.5t42.5 -22.5l30 -7v-16q-33 0 -98 0.5t-98 0.5t-99.5 -0.5t-100.5 -0.5v16l35 7q38 7 49 22t11 55v479q0 40 -11 55t-49 22l-35 7v16
q67 -1 200 -1q130 0 196 1v-16l-30 -7q-33 -8 -42.5 -22.5t-9.5 -54.5v-220h197v219q0 41 -9.5 55.5t-42.5 22.5l-30 7v16q67 -1 197 -1q133 0 199 1v-16l-35 -7q-38 -7 -49 -22t-11 -55v-479q0 -40 11 -55t49 -22z" />
    <glyph glyph-name="I" unicode="I" horiz-adv-x="441" 
d="M425 16v-16q-34 0 -102 0.5t-102 0.5t-102.5 -0.5t-102.5 -0.5v16l35 7q38 7 49 22t11 55v479q0 40 -11 55t-49 22l-35 7v16q68 -1 205 -1q136 0 204 1v-16l-35 -7q-38 -7 -49 -22t-11 -55v-479q0 -40 11 -55t49 -22z" />
    <glyph glyph-name="J" unicode="J" horiz-adv-x="597" 
d="M507 295q0 -74 -30 -134.5t-78.5 -98t-106 -57.5t-115.5 -20q-86 0 -139 43t-53 115q0 58 36.5 95.5t94.5 37.5q51 0 83 -31.5t32 -80.5q0 -87 -81 -110q-26 -8 -26 -23q0 -27 48 -27q53 0 85.5 39.5t32.5 115.5v415q0 41 -13 58t-55 24l-40 7v16q70 -1 210 -1t210 1v-16
l-35 -7q-38 -7 -49 -22t-11 -55v-284z" />
    <glyph glyph-name="K" unicode="K" horiz-adv-x="843" 
d="M409 16v-16q-33 0 -98.5 0.5t-98.5 0.5t-98.5 -0.5t-98.5 -0.5v16l35 7q38 7 49 22t11 55v479q0 40 -11 55t-49 22l-35 7v16q68 -1 205 -1q136 0 204 1v-16l-35 -7q-38 -7 -49 -22t-11 -55v-479q0 -40 9.5 -55t40.5 -22zM492 468l258 -367q30 -43 49 -59t51 -23l18 -4
v-15q-35 0 -99 0.5t-100 0.5q-35 0 -107 -0.5t-107 -0.5v16l25 4q31 5 31 27q0 17 -17 43l-157 241l186 199q44 47 44 74q0 29 -55 47l-36 12v16q56 -1 168 -1q111 0 167 1v-16l-29 -7q-82 -20 -135 -51t-110 -90z" />
    <glyph glyph-name="L" unicode="L" horiz-adv-x="679" 
d="M15 0v16l35 7q38 7 49 22t11 55v479q0 40 -11 55t-49 22l-35 7v16q70 -1 211 -1q140 0 210 1v-16l-40 -7q-42 -7 -55 -24t-13 -58v-504q0 -51 44 -51h7q69 0 126 55t121 206h18v-280h-629z" />
    <glyph glyph-name="M" unicode="M" horiz-adv-x="966" 
d="M638 582l-203 -582h-88l-211 581v-439q0 -54 15.5 -78t59.5 -40l23 -8v-16q-18 0 -54.5 0.5t-54.5 0.5q-19 0 -55 -0.5t-55 -0.5v16l21 9q43 19 58.5 42t15.5 75v437q0 40 -11 55t-49 22l-35 7v16h327l155 -439l151 439h303v-16l-35 -7q-38 -7 -49 -22t-11 -55v-479
q0 -40 11 -55t49 -22l35 -7v-16q-34 0 -102 0.5t-102 0.5t-102 -0.5t-102 -0.5v16l35 7q38 7 49 22t11 55v482z" />
    <glyph glyph-name="N" unicode="N" horiz-adv-x="727" 
d="M627 0h-174l-317 575v-433q0 -54 15.5 -78t59.5 -40l23 -8v-16q-18 0 -54.5 0.5t-54.5 0.5q-19 0 -55 -0.5t-55 -0.5v16l21 9q43 19 58.5 42t15.5 75v430q0 39 -13.5 58t-48.5 26l-33 7v16h327l259 -466v324q0 54 -15.5 78t-59.5 40l-23 8v16q37 -1 110 -1t109 1v-16
l-21 -9q-43 -19 -58.5 -42t-15.5 -75v-537z" />
    <glyph glyph-name="O" unicode="O" horiz-adv-x="752" 
d="M725 341q0 -89 -30.5 -159.5t-81 -113t-111.5 -65t-126 -22.5t-126 22.5t-111.5 65t-81 113t-30.5 159.5t30.5 159t81 112t111.5 64t126 22t126 -22t111.5 -64t81 -112t30.5 -159zM259 341q0 -166 24.5 -253.5t92.5 -87.5t92.5 87.5t24.5 253.5t-24.5 252t-92.5 86
t-92.5 -86t-24.5 -252z" />
    <glyph glyph-name="P" unicode="P" horiz-adv-x="719" 
d="M328 660v-359h37q111 0 111 181q0 91 -27.5 134.5t-75.5 43.5h-45zM436 16v-16q-35 0 -105 0.5t-105 0.5t-105.5 -0.5t-105.5 -0.5v16l35 7q38 7 49 22t11 55v479q0 40 -11 55t-49 22l-35 7v16h360q324 0 324 -198q0 -99 -89.5 -149t-244.5 -50h-37v-177q0 -41 13 -58
t55 -24z" />
    <glyph glyph-name="Q" unicode="Q" horiz-adv-x="752" 
d="M259 341q0 -80 4.5 -136.5t17 -104t36 -71.5t59.5 -24t59.5 24t36 71.5t17 104t4.5 136.5q0 166 -24.5 252t-92.5 86t-92.5 -86t-24.5 -252zM925 -31q-12 -111 -58 -170.5t-145 -59.5q-49 0 -90.5 20t-72 49t-59 58t-63 49t-72.5 20q-37 0 -66.5 -13t-45.5 -28.5
t-37.5 -28.5t-44.5 -13t-37 14.5t-18 36.5q61 33 159 39q34 14 108.5 39t119.5 43q-83 -33 -143 -33q-62 0 -120 22t-106 64t-77.5 110.5t-29.5 153.5q0 89 30.5 159t81 112t111.5 64t126 22t126 -22t111.5 -64t81 -112t30.5 -159q0 -126 -59.5 -210t-151.5 -119
q-41 -15 -132.5 -45.5t-134.5 -51.5q87 43 176 43q105 0 221.5 -13.5t163.5 -13.5q61 0 81 8.5t25 29.5h11z" />
    <glyph glyph-name="R" unicode="R" horiz-adv-x="774" 
d="M789 0h-206q-61 0 -85.5 16t-42.5 73l-73 234h-14q-30 0 -39 1v-224q0 -40 11 -55t49 -22l35 -7v-16q-34 0 -102 0.5t-102 0.5t-102.5 -0.5t-102.5 -0.5v16l35 7q38 7 49 22t11 55v479q0 40 -11 55t-49 22l-35 7v16h374q61 0 111.5 -8.5t94 -27.5t67.5 -54.5t24 -84.5
q0 -65 -44.5 -105.5t-114.5 -54.5q40 -9 61.5 -29.5t42.5 -68.5l68 -157q14 -34 30.5 -49t44.5 -21l15 -3v-16zM329 660v-317q16 -1 38 -1q42 0 69 37.5t27 121.5q0 87 -24.5 123t-71.5 36h-38z" />
    <glyph glyph-name="S" unicode="S" horiz-adv-x="607" 
d="M567 209q0 -57 -23.5 -102t-61 -71.5t-81 -40t-88.5 -13.5q-126 0 -198 62l-51 -56h-9v298h15q63 -157 116 -221t126 -64q47 0 77.5 27t30.5 73q0 50 -36 81t-124 61q-103 35 -152 90.5t-49 138.5q0 99 74.5 162t186.5 63q88 0 154 -54l44 48h8v-263h-15
q-46 135 -90.5 192.5t-105.5 57.5q-52 0 -80.5 -28t-28.5 -74t39 -77t117 -58q105 -36 155 -88.5t50 -143.5z" />
    <glyph glyph-name="T" unicode="T" horiz-adv-x="695" 
d="M562 16v-16q-36 0 -107 0.5t-107 0.5t-107.5 -0.5t-107.5 -0.5v16l37 7q43 8 55.5 22.5t12.5 54.5v560h-5q-40 0 -84.5 -55t-112.5 -198h-16v272h655v-272h-16q-68 142 -113 197.5t-85 55.5h-4v-560q0 -40 12.5 -54.5t55.5 -22.5z" />
    <glyph glyph-name="U" unicode="U" horiz-adv-x="747" 
d="M652 254q0 -62 -11.5 -108t-40 -83.5t-82 -57t-132.5 -19.5q-84 0 -142 19.5t-90 57t-45.5 84t-13.5 107.5v325q0 40 -11 55t-49 22l-35 7v16q68 -1 205 -1q136 0 204 1v-16l-35 -7q-38 -7 -49 -22t-11 -55v-335q0 -210 154 -210q81 0 119.5 54.5t38.5 165.5v283
q0 54 -15.5 78t-59.5 40l-23 8v16q37 -1 110 -1t109 1v-16l-21 -9q-43 -19 -58.5 -42t-15.5 -75v-283z" />
    <glyph glyph-name="V" unicode="V" horiz-adv-x="742" 
d="M289 0l-180 529q-24 72 -43.5 97t-52.5 32l-23 5v16q68 -1 205 -1t205 1v-16l-29 -6q-36 -7 -44.5 -27.5t6.5 -76.5l112 -376l109 294q33 91 22.5 127t-70.5 54l-38 11v16q47 -1 142 -1t142 1v-16l-17 -5q-51 -15 -87.5 -57.5t-70.5 -133.5l-114 -303l-54 -164h-120z" />
    <glyph glyph-name="W" unicode="W" horiz-adv-x="1055" 
d="M276 0l-169 529q-23 73 -41.5 97.5t-51.5 31.5l-24 5v16q69 -1 207 -1t207 1v-16l-31 -6q-35 -7 -43 -27.5t7 -76.5l92 -334l123 460h116l125 -462l78 254q21 68 22 101.5t-17 50.5t-65 31l-31 9v16q48 -1 143 -1t142 1v-16l-19 -6q-51 -16 -87.5 -59t-65.5 -131
l-89 -276l-57 -191h-115l-122 440l-66 -243l-53 -197h-115z" />
    <glyph glyph-name="X" unicode="X" horiz-adv-x="833" 
d="M827 16v-16q-37 0 -112 0.5t-113 0.5t-113 -0.5t-112 -0.5v16l31 5q77 12 28 90l-100 162l-81 -102q-41 -53 -41 -86q0 -22 18 -35t61 -24l38 -10v-16q-27 0 -82 0.5t-83 0.5t-83 -0.5t-83 -0.5v16l19 6q63 20 110 54t109 109l86 106l-164 263q-37 60 -58.5 79t-54.5 25
l-28 5v16q74 -1 222 -1t222 1v-16l-35 -6q-35 -6 -38 -29t18 -58l85 -149l69 87q52 64 52 98q0 32 -63 48l-35 9v16q50 -1 151 -1t151 1v-16l-29 -8q-55 -15 -101.5 -50t-108.5 -111l-75 -92l181 -277q38 -57 58 -75.5t58 -27.5z" />
    <glyph glyph-name="Y" unicode="Y" horiz-adv-x="740" 
d="M582 0q-36 0 -107 0.5t-107 0.5t-107.5 -0.5t-107.5 -0.5v16l37 7q43 8 55.5 22.5t12.5 54.5v169l-145 289q-26 52 -46.5 73t-51.5 27l-25 5v16q71 -1 214 -1q142 0 213 1v-16l-38 -8q-22 -4 -30.5 -15.5t-5.5 -29.5t17 -50l104 -239l75 161q36 76 36 118q0 39 -72 56
l-30 7v16q46 -1 139 -1q92 0 138 1v-16l-20 -6q-45 -14 -84.5 -53t-85.5 -134l-83 -171v-199q0 -40 12.5 -54.5t55.5 -22.5l37 -7v-16z" />
    <glyph glyph-name="Z" unicode="Z" horiz-adv-x="684" 
d="M639 0h-604v19l356 641h-41q-74 0 -121 -23t-82 -73t-79 -152h-16l4 267h588v-19l-357 -641h62q99 0 158 54.5t119 200.5h16z" />
    <glyph glyph-name="bracketleft" unicode="[" horiz-adv-x="446" 
d="M120 -193v972l311 -11v-17l-162 -10v-896l162 -10v-17z" />
    <glyph glyph-name="backslash" unicode="\" horiz-adv-x="324" 
d="M51 729l258 -779h-36l-258 779h36z" />
    <glyph glyph-name="bracketright" unicode="]" horiz-adv-x="446" 
d="M326 779v-972l-311 11v17l162 10v896l-162 10v17z" />
    <glyph glyph-name="asciicircum" unicode="^" horiz-adv-x="593" 
d="M296 722l-199 -275h-27l171 318h109l173 -318h-27z" />
    <glyph glyph-name="underscore" unicode="_" horiz-adv-x="518" 
d="M0 -65v32h518v-32h-518z" />
    <glyph glyph-name="grave" unicode="`" horiz-adv-x="574" 
d="M326 578h-6q-61 33 -108.5 78.5t-70.5 90.5v3h118q13 -70 67 -172z" />
    <glyph glyph-name="a" unicode="a" horiz-adv-x="578" 
d="M260 25q25 0 40 21t15 64l1 145q-57 -9 -80.5 -42.5t-23.5 -103.5q0 -84 48 -84zM578 156q-1 -97 -28.5 -133t-90.5 -36q-119 0 -130 104q-5 -56 -41.5 -81t-105.5 -25q-83 0 -120.5 36.5t-37.5 89.5q0 72 64.5 107.5t227.5 48.5v96q0 74 -13.5 103t-54.5 29
q-58 0 -58 -32q0 -13 13 -25.5t25.5 -30t12.5 -44.5q0 -41 -25 -64t-67 -23t-68.5 26t-26.5 71q0 59 54 98.5t156 39.5q234 0 234 -195q0 -23 -0.5 -126t-0.5 -116q0 -37 25 -37q35 0 39 119h17z" />
    <glyph glyph-name="b" unicode="b" horiz-adv-x="579" 
d="M557 250q0 -71 -24.5 -124.5t-64.5 -83t-84 -43.5t-90 -14q-96 0 -149 56l-84 -54h-10l9 154v510q0 35 -9.5 46t-46.5 16l-27 4v14l259 46l18 -7q-6 -56 -6 -143v-29q0 -92 -7.5 -161t-7.5 -130q0 112 27 157t98 45q83 0 141 -63.5t58 -195.5zM289 3q40 0 56 54t16 193
q0 131 -11 176.5t-44 45.5q-58 0 -58 -165v-291q13 -13 41 -13z" />
    <glyph glyph-name="c" unicode="c" horiz-adv-x="527" 
d="M497 123q-76 -139 -217 -139q-113 0 -185.5 66t-72.5 191t77 197t197 72q91 0 143.5 -38t52.5 -102q0 -48 -31 -80t-77 -32q-45 0 -73 25.5t-28 67.5q0 30 13.5 51t30 29t30 17.5t13.5 18.5q0 10 -13 18t-38 8q-101 0 -101 -243q0 -213 121 -213q85 0 143 95z" />
    <glyph glyph-name="d" unicode="d" horiz-adv-x="589" 
d="M273 22q58 0 58 165v291q-13 13 -41 13q-40 0 -56 -54t-16 -193q0 -131 11 -176.5t44 -45.5zM346 187q0 -112 -27 -157t-98 -45q-83 0 -141 63.5t-58 195.5q0 71 24.5 124.5t64.5 83t84 43.5t90 14q26 0 46 -4v146q0 33 -13.5 45t-53.5 17l-28 4v14l271 47l18 -7
q-6 -56 -6 -144v-547q0 -32 8 -44.5t34 -16.5l25 -4v-15h-226l-13 10q0 30 -0.5 87t-0.5 90z" />
    <glyph glyph-name="e" unicode="e" horiz-adv-x="523" 
d="M325 299l1 26q4 167 -48 167q-30 0 -44 -44t-16 -158zM497 123q-76 -139 -216 -139q-117 0 -188 67.5t-71 194.5q0 128 75.5 195.5t181.5 67.5q109 0 164.5 -53t55.5 -151q0 -27 -1 -34h-280v-21q0 -213 121 -213q85 0 143 95z" />
    <glyph glyph-name="f" unicode="f" horiz-adv-x="420" 
d="M346 15v-15q-27 0 -81 0.5t-81 0.5t-80 -0.5t-80 -0.5v15l24 4q25 4 33 16t8 45v365l-84 17v21l84 17q4 140 75.5 209.5t191.5 69.5q80 0 122 -34t42 -88q0 -47 -29 -74t-70 -27t-66 24t-25 62q0 25 11 43t23.5 26.5t23.5 17t11 15.5q0 17 -35 17q-89 0 -89 -134
q0 -21 1 -66.5t1 -65.5h136v-33l-135 -7h-1v-371q0 -36 8.5 -48t35.5 -17z" />
    <glyph glyph-name="g" unicode="g" horiz-adv-x="577" 
d="M194 332q0 -86 11.5 -122.5t41.5 -36.5q31 0 42 35.5t11 123.5t-11 124t-42 36q-30 0 -41.5 -37t-11.5 -123zM274 -244q-127 0 -199 29t-72 88q0 30 20 49t54 19q27 0 41 -13.5t13 -38.5q-32 -8 -32 -43q0 -72 173 -72q87 0 138 23t51 56t-35.5 45.5t-132.5 17.5
q-130 6 -188.5 39t-58.5 97q0 115 170 115h22q-106 0 -161.5 44.5t-55.5 121.5q0 84 60.5 130t154.5 46q84 0 145 -42q54 54 118 54q42 0 67.5 -21.5t25.5 -57.5q0 -32 -20 -51.5t-50 -19.5t-46.5 17t-16.5 43q0 12 3 26t3 18q0 10 -12 10q-20 0 -56 -30q63 -52 63 -133
q0 -83 -63 -125t-163 -42q-53 0 -72.5 -6t-19.5 -20t30.5 -19t142.5 -10q136 -6 187.5 -46.5t51.5 -113.5q0 -93 -74.5 -138.5t-205.5 -45.5z" />
    <glyph glyph-name="h" unicode="h" horiz-adv-x="653" 
d="M648 15v-15q-26 0 -75 0.5t-74 0.5t-75.5 -0.5t-76.5 -0.5v15l20 5q16 4 21.5 14t5.5 42v292q0 86 -47 86q-34 0 -53.5 -44t-19.5 -128v-206q0 -32 5.5 -42t21.5 -14l20 -5v-15q-25 0 -75.5 0.5t-75.5 0.5t-74.5 -0.5t-74.5 -0.5v15l24 4q25 4 33 16t8 45v571
q0 35 -9.5 46t-46.5 16l-27 4v14l259 46l18 -7q-6 -56 -6 -143v-28q0 -95 -8 -186t-8 -131q0 115 37.5 171t125.5 56q161 0 161 -184v-245q0 -33 7.5 -45t33.5 -16z" />
    <glyph glyph-name="i" unicode="i" horiz-adv-x="339" 
d="M279 665q0 -47 -32 -76t-82 -29q-49 0 -79.5 29t-30.5 76t31 75t80 28q50 0 81.5 -28t31.5 -75zM16 0v15l24 4q25 4 33 16t8 45v313q0 31 -9.5 42.5t-40.5 13.5l-26 2v15l246 37l21 -7q-3 -65 -3 -130v-286q0 -33 8 -45t33 -16l24 -4v-15q-27 0 -79.5 0.5t-79.5 0.5
t-79.5 -0.5t-79.5 -0.5z" />
    <glyph glyph-name="j" unicode="j" horiz-adv-x="366" 
d="M316 665q0 -47 -32 -76t-82 -29q-49 0 -79.5 29t-30.5 76t31 75t80 28q50 0 81.5 -28t31.5 -75zM308 50q0 -153 -72.5 -224t-199.5 -71q-73 0 -112.5 32.5t-39.5 83.5q0 46 29.5 74.5t72.5 28.5q42 0 68 -24.5t26 -64.5q0 -25 -8.5 -43t-19 -25t-19 -15t-8.5 -16
q0 -14 21 -14q30 0 53 34t23 100v484q0 32 -11 44.5t-42 14.5l-26 2v15l247 37l21 -7q-3 -65 -3 -130v-316z" />
    <glyph glyph-name="k" unicode="k" horiz-adv-x="665" 
d="M675 0q-28 0 -79.5 0.5t-79.5 0.5t-83.5 -0.5t-83.5 -0.5v15l10 2q28 6 28 23q0 12 -17 40l-95 151v-153q0 -33 6.5 -44.5t27.5 -15.5l15 -3v-15q-19 0 -66.5 0.5t-76.5 0.5q-27 0 -80 -0.5t-80 -0.5v15l24 4q25 4 33 16t8 45v571q0 35 -9.5 46t-46.5 16l-27 4v14l259 46
l18 -7q-5 -47 -5 -143v-393l113 121q41 44 41 71q0 17 -17 27.5t-58 20.5l-17 4v17q51 -1 154 -1t153 1v-17l-15 -4q-147 -39 -213 -113l-10 -11l166 -246q36 -54 50.5 -67.5t38.5 -18.5l14 -3v-15z" />
    <glyph glyph-name="l" unicode="l" horiz-adv-x="343" 
d="M21 0v15l24 4q25 4 33 16t8 45v571q0 35 -9.5 46t-46.5 16l-27 4v14l258 46l18 -7q-5 -47 -5 -143v-547q0 -33 8 -45t33 -16l25 -4v-15q-28 0 -80 0.5t-80 0.5q-27 0 -79.5 -0.5t-79.5 -0.5z" />
    <glyph glyph-name="m" unicode="m" horiz-adv-x="949" 
d="M16 0v15l24 4q25 4 33 16t8 45v311q0 31 -9.5 42t-40.5 13l-26 2v15l233 40l21 -7q-6 -66 -6 -215q0 115 36.5 171.5t122.5 56.5q79 0 112 -42.5t33 -136.5q0 -33 1 -49q0 119 36 173.5t123 54.5q83 0 122 -45.5t39 -138.5v-245q0 -33 7.5 -45t33.5 -16l24 -4l1 -15
q-27 0 -72.5 0.5t-71.5 0.5t-77.5 -0.5t-78.5 -0.5v15l19 5q16 4 21.5 14t5.5 42v292q0 86 -46 86q-71 0 -71 -172v-206q0 -32 5.5 -42t21.5 -14l19 -5v-15q-23 0 -69.5 0.5t-70.5 0.5q-23 0 -69.5 -0.5t-70.5 -0.5v15l20 5q16 4 21 14t5 42v292q0 46 -10.5 66t-34.5 20
q-71 0 -71 -172v-206q0 -32 5.5 -42t21.5 -14l19 -5v-15q-26 0 -78 0.5t-78 0.5q-27 0 -72 -0.5t-71 -0.5z" />
    <glyph glyph-name="n" unicode="n" horiz-adv-x="648" 
d="M643 15v-15q-25 0 -74 0.5t-75 0.5q-25 0 -76 -0.5t-76 -0.5v15l20 5q16 4 21.5 14t5.5 42v292q0 86 -47 86q-73 0 -73 -172v-206q0 -32 5.5 -42t21.5 -14l20 -5v-15q-25 0 -75.5 0.5t-75.5 0.5t-74.5 -0.5t-74.5 -0.5v15l24 4q25 4 33 16t8 45v310q0 31 -9.5 42.5
t-40.5 13.5l-26 2v15l233 40l21 -7q-6 -66 -6 -214q0 115 36.5 171t122.5 56q165 0 165 -184v-245q0 -33 7.5 -45t33.5 -16z" />
    <glyph glyph-name="o" unicode="o" horiz-adv-x="562" 
d="M540 248q0 -129 -77.5 -196t-181.5 -67t-181.5 67t-77.5 196q0 65 23 117t61 82.5t82.5 46t92.5 15.5t92.5 -15.5t82.5 -46t61 -82.5t23 -117zM218 248q0 -137 12.5 -191t50.5 -54t50.5 54t12.5 191q0 136 -12.5 190t-50.5 54t-50.5 -54t-12.5 -190z" />
    <glyph glyph-name="p" unicode="p" horiz-adv-x="585" 
d="M293 3q25 0 39.5 16t24.5 72.5t10 159.5q0 94 -7.5 144t-18.5 63.5t-30 13.5q-57 0 -57 -152v-306q14 -11 39 -11zM323 -216v-14q-27 0 -81 0.5t-81 0.5t-80 -0.5t-80 -0.5v14l24 4q25 4 33 16.5t8 44.5v541q0 31 -9.5 42.5t-40.5 13.5l-26 2v15l233 40l21 -7
q-5 -55 -5 -176q0 100 26 144.5t91 44.5q37 0 71.5 -13t66 -40.5t50.5 -79t19 -120.5q0 -60 -17.5 -108.5t-44.5 -78t-62.5 -49.5t-68.5 -27.5t-66 -7.5q-26 0 -50 3v-135q0 -36 8.5 -48t35.5 -17z" />
    <glyph glyph-name="q" unicode="q" horiz-adv-x="578" 
d="M588 -230q-27 0 -81 0.5t-81 0.5q-28 0 -81 -0.5t-80 -0.5v14l25 4q25 4 33 16.5t8 44.5v50q0 40 7 130t7 150q0 -106 -26 -150t-92 -44q-34 0 -68 13.5t-66 41.5t-51.5 80t-19.5 120q0 74 25.5 129t66.5 84t84 42.5t88 13.5q111 0 166 -55l68 54h9l-10 -159v-498
q0 -34 8.5 -46t35.5 -17l25 -4v-14zM277 23q54 0 54 156v301q-12 12 -39 12q-39 0 -56.5 -50t-17.5 -192q0 -126 14.5 -176.5t44.5 -50.5z" />
    <glyph glyph-name="r" unicode="r" horiz-adv-x="516" 
d="M16 0v15l24 4q25 4 33 16t8 45v310q0 31 -9.5 42.5t-40.5 13.5l-26 2v15l233 40l21 -7q-7 -77 -7 -321q0 78 8 146q7 55 20 93t45 66.5t82 28.5t80 -28.5t30 -74.5q0 -51 -30.5 -81t-77.5 -30q-61 0 -80 46q-6 15 -10 37q-3 15 -12 15q-20 0 -31 -77q-4 -28 -6 -63
t-2 -56l-1 -21v-93q0 -35 8.5 -47t35.5 -17l25 -4v-15q-27 0 -81 0.5t-81 0.5t-79 -0.5t-79 -0.5z" />
    <glyph glyph-name="s" unicode="s" horiz-adv-x="467" 
d="M442 158q0 -81 -54 -127t-149 -46q-99 0 -153 45l-38 -43h-8v219h15q40 -104 85 -153.5t100 -49.5q85 0 85 61q0 30 -30.5 52t-103.5 49q-149 56 -149 176q0 76 54 122t145 46q77 0 131 -39l34 38h8v-193h-15q-39 91 -76 134t-84 43q-37 0 -58.5 -16t-21.5 -45
q0 -31 31.5 -52t107.5 -50q144 -55 144 -171z" />
    <glyph glyph-name="t" unicode="t" horiz-adv-x="410" 
d="M393 154q-19 -90 -55 -129.5t-114 -39.5q-76 0 -115.5 38t-39.5 107v321l-84 19v17l78 17q32 7 50 27t31 62l21 69h95l-3 -167h140v-32l-140 -8v-361q0 -56 40 -56q52 0 80 119z" />
    <glyph glyph-name="u" unicode="u" horiz-adv-x="599" 
d="M362 179q0 -101 -36 -147.5t-115 -46.5q-73 0 -117 39t-44 112v279q0 32 -8 44.5t-33 16.5l-24 4v15h256l-3 -81v-311q0 -65 47 -65q28 0 44.5 36t16.5 105v236q0 32 -8.5 44.5t-33.5 16.5l-24 4v15h258l-4 -89v-326q0 -33 8 -45t33 -16l24 -4v-15h-225l-12 10v169z" />
    <glyph glyph-name="v" unicode="v" horiz-adv-x="562" 
d="M231 0l-155 390q-19 48 -32.5 65t-36.5 21l-20 4v15q56 -1 169 -1q112 0 169 1v-15l-24 -4q-28 -4 -33 -21.5t8 -52.5l84 -246l64 177q22 61 22 88q0 21 -14 32.5t-44 19.5l-26 7v15q37 -1 110 -1q72 0 108 1v-15l-10 -3q-43 -13 -70.5 -45t-56.5 -110l-121 -322h-91z
" />
    <glyph glyph-name="w" unicode="w" horiz-adv-x="771" 
d="M206 0l-134 393q-15 45 -29 61.5t-37 21.5l-19 4v15q55 -1 165 -1t166 1v-15l-24 -4q-25 -4 -31.5 -19t3.5 -50l61 -210l83 298h87l94 -302l44 138q15 48 15 80q0 50 -70 65l-18 4v15q37 -1 113 -1t114 1v-15l-18 -5q-39 -11 -66.5 -45.5t-51.5 -107.5l-105 -322h-87
l-90 278l-78 -278h-87z" />
    <glyph glyph-name="x" unicode="x" horiz-adv-x="610" 
d="M609 15v-15q-29 0 -87 0.5t-86 0.5t-86 -0.5t-87 -0.5v15l21 4q44 9 19 54l-70 129l-52 -76q-27 -40 -27 -65q0 -15 12 -24.5t43 -17.5l15 -4v-15q-19 0 -56 0.5t-56 0.5q-18 0 -56 -0.5t-56 -0.5v15l15 3q77 16 151 121l56 81l-106 172q-28 45 -45 61.5t-41 22.5l-16 4
v15q55 -1 166 -1t166 1v-15l-16 -3q-39 -6 -13 -53l64 -118l43 63q26 37 26 64q0 16 -11 25.5t-41 17.5l-15 4v15q36 -1 109 -1q72 0 109 1v-15l-16 -3q-70 -13 -146 -121l-48 -68l112 -182q28 -45 45.5 -62t42.5 -24z" />
    <glyph glyph-name="y" unicode="y" horiz-adv-x="563" 
d="M295 -42q-47 -114 -86.5 -157t-110.5 -43q-53 0 -83 30.5t-30 75.5q0 42 26 71t75 30q69 1 86 -58q3 -9 4.5 -25t2.5 -20q4 -17 16 -17q34 0 78 125l5 14l-190 405q-22 48 -36.5 65t-40.5 22l-20 4v15q57 -1 170 -1q112 0 168 1v-15l-23 -4q-48 -9 -24 -65l91 -214
l53 135q22 55 22 87q0 41 -64 56l-21 5v15q36 -1 109 -1q72 0 109 1v-15l-10 -3q-45 -14 -69 -43.5t-57 -109.5z" />
    <glyph glyph-name="z" unicode="z" horiz-adv-x="515" 
d="M25 0v19l250 457h-23q-76 0 -113.5 -42.5t-81.5 -163.5h-14v225h442v-19l-249 -457h25q31 0 52 2.5t39.5 13t30 21.5t26.5 39t25.5 52.5t29.5 74.5h13l1 -222h-453z" />
    <glyph glyph-name="braceleft" unicode="{" horiz-adv-x="452" 
d="M437 -184l-103 -2q-110 -4 -154.5 29.5t-44.5 110.5q0 30 21 100t21 107q0 58 -31.5 83.5t-125.5 29.5v37q95 4 126 29.5t31 83.5q0 37 -21 107t-21 100q0 77 44.5 110.5t154.5 29.5l103 -2v-18l-89 -5q-32 -3 -44.5 -21t-12.5 -61q0 -25 11 -102.5t11 -103.5
q0 -142 -204 -160v-11q204 -20 204 -160q0 -26 -11 -103.5t-11 -102.5q0 -43 12.5 -61t44.5 -21l89 -5v-18z" />
    <glyph glyph-name="bar" unicode="|" horiz-adv-x="273" 
d="M120 -100v829h33v-829h-33z" />
    <glyph glyph-name="braceright" unicode="}" horiz-adv-x="452" 
d="M118 -186l-103 2v18l89 5q32 3 44.5 21t12.5 61q0 25 -11 102.5t-11 103.5q0 140 204 160v11q-204 18 -204 160q0 26 11 103.5t11 102.5q0 43 -12.5 61t-44.5 21l-89 5v18l103 2q110 4 154.5 -29.5t44.5 -110.5q0 -30 -21 -100t-21 -107q0 -58 31 -83.5t126 -29.5v-37
q-94 -4 -125.5 -29.5t-31.5 -83.5q0 -37 21 -107t21 -100q0 -77 -44.5 -110.5t-154.5 -29.5z" />
    <glyph glyph-name="asciitilde" unicode="~" horiz-adv-x="519" 
d="M81 176h-24q-2 18 -2 30q0 58 26 93t81 35q56 0 131 -36t97 -36q50 0 50 55h24q0 -78 -25 -116.5t-89 -38.5q-49 0 -123 35.5t-95 36.5q-25 1 -38 -14t-13 -44z" />
    <glyph glyph-name="nbspace" unicode="&#xa0;" horiz-adv-x="200" 
 />
    <glyph glyph-name="exclamdown" unicode="&#xa1;" horiz-adv-x="354" 
d="M177 516q42 0 70 -27.5t28 -68.5t-28 -68.5t-70 -27.5t-70 27.5t-28 68.5t28 68.5t70 27.5zM171 283h12q8 -117 62 -234q2 -5 9 -20t9.5 -21t8 -18.5t7.5 -20t5 -18t4 -20t1 -18.5q0 -46 -32 -75t-80 -29t-80 29t-32 75q0 11 2 23t4 20t8 24t8 21t11.5 25t10.5 23
q54 117 62 234z" />
    <glyph glyph-name="cent" unicode="&#xa2;" horiz-adv-x="561" 
d="M236 141l83 357q-52 -4 -86.5 -54.5t-34.5 -157.5q0 -87 38 -145zM521 125q-74 -140 -234 -140q-28 0 -62 8l-33 -144h-23l35 150q-72 24 -118 86.5t-46 156.5q0 66 25.5 120t66.5 87t90 50.5t100 17.5h1l25 106h22l-25 -107q82 -4 129 -41.5t47 -95.5q0 -42 -26 -69.5
t-67 -27.5q-38 0 -61.5 23.5t-23.5 60.5q0 22 9.5 39.5t20.5 25.5t20.5 16.5t9.5 15.5q0 16 -17 26t-45 9l-87 -380q48 -54 114 -54q84 0 137 70z" />
    <glyph glyph-name="sterling" unicode="&#xa3;" horiz-adv-x="618" 
d="M549 251q18 -46 15.5 -94t-19 -87.5t-53 -64.5t-85.5 -25t-85.5 21t-72.5 58q-51 -79 -135 -79q-50 0 -80 27t-30 72q0 54 44 91t118 37q18 0 48.5 -2t35.5 -2q-1 15 -10 33t-15 26.5t-25 33.5l-143 18v16l113 11q-30 53 -30 109q0 83 67.5 140.5t186.5 57.5
q84 0 134 -39.5t50 -97.5q0 -42 -26.5 -71.5t-67.5 -29.5q-42 0 -67 23t-25 63q0 27 13.5 46.5t27 32.5t13.5 25q0 13 -13 21.5t-33 8.5q-38 0 -54 -33t-22 -117q-2 -22 -5 -69.5t-5 -70.5h137v-27l-139 -7q-7 -73 -9 -84q-1 -5 -2.5 -15.5t-2.5 -15.5l38 -9.5t39.5 -10
t35 -6.5t41.5 -3q55 0 70 24t9 65h18zM114 0q82 0 115 79q-24 24 -38 37t-37.5 24.5t-46.5 11.5q-34 0 -55.5 -22t-21.5 -56q0 -36 23.5 -55t60.5 -19z" />
    <glyph glyph-name="currency" unicode="&#xa4;" horiz-adv-x="549" 
d="M472 29l-77 77q-51 -44 -121 -44q-71 0 -121 44l-76 -77l-27 27l78 77q-39 51 -39 118q0 66 38 117l-77 77l27 27l76 -76q51 44 121 44q71 0 122 -45l76 77l27 -27l-78 -77q38 -51 38 -117t-38 -117l78 -78zM182 251q0 -41 26 -69.5t66 -28.5t66 28.5t26 69.5t-26 69.5
t-66 28.5t-66 -28.5t-26 -69.5z" />
    <glyph glyph-name="yen" unicode="&#xa5;" horiz-adv-x="740" 
d="M578 16v-16q-36 0 -107 0.5t-107 0.5t-107.5 -0.5t-107.5 -0.5v16l37 7q43 8 55.5 22.5t12.5 54.5v81h-147v34h147v35l-13 23h-134v34h116l-114 208q-29 53 -47 73.5t-45 26.5l-22 5v16q71 -1 205 -1q142 0 213 1v-16l-38 -8q-22 -4 -31 -15.5t-6 -30.5t18 -49l103 -207
l76 144q36 69 36 105q0 21 -17.5 33t-53.5 21l-30 7v16q46 -1 138 -1t138 1v-16l-20 -6q-44 -13 -83.5 -51.5t-86.5 -126.5l-69 -129h112v-34h-126v-58h126v-34h-126v-81q0 -40 12.5 -54.5t55.5 -22.5z" />
    <glyph glyph-name="brokenbar" unicode="&#xa6;" horiz-adv-x="273" 
d="M120 385v344h33v-344h-33zM120 -100v345h33v-345h-33z" />
    <glyph glyph-name="section" unicode="&#xa7;" horiz-adv-x="582" 
d="M434 130l-9 9q21 18 21 50q0 37 -36.5 65t-88.5 49.5t-104.5 46.5t-89 66.5t-36.5 97.5q0 84 65 133t159 49q92 0 147 -36t55 -99q0 -41 -23.5 -67t-63.5 -26q-37 0 -62 21.5t-25 58.5q0 24 13.5 41.5t26.5 29.5t13 22q0 38 -80 38q-61 0 -91 -25t-30 -67q0 -33 33.5 -58
t81.5 -44.5t96.5 -42t82 -61t33.5 -91.5q0 -40 -16.5 -74.5t-31.5 -49.5t-40 -36zM491 -20q0 -84 -65 -133t-159 -49q-92 0 -147.5 36t-55.5 99q0 41 23.5 67t63.5 26q37 0 62 -21.5t25 -58.5q0 -24 -13 -41.5t-26.5 -29.5t-13.5 -22q0 -16 20 -27t61 -11q61 0 91 25t30 67
q0 33 -33.5 58.5t-81.5 45t-96.5 42.5t-82 62t-33.5 92q0 40 16.5 74.5t31.5 49.5t40 36l9 -9q-21 -18 -21 -50q0 -37 36.5 -65.5t89 -50.5t104.5 -47t88.5 -67t36.5 -98z" />
    <glyph glyph-name="dieresis" unicode="&#xa8;" horiz-adv-x="574" 
d="M465 672q0 -27 -18.5 -45.5t-46.5 -18.5q-29 0 -47.5 18.5t-18.5 45.5t18.5 46t47.5 19q28 0 46.5 -19t18.5 -46zM240 672q0 -27 -18.5 -45.5t-47.5 -18.5q-28 0 -46.5 18.5t-18.5 45.5t18.5 46t46.5 19q29 0 47.5 -19t18.5 -46z" />
    <glyph glyph-name="copyright" unicode="&#xa9;" horiz-adv-x="824" 
d="M759 260q0 -145 -101.5 -245t-245.5 -100t-245.5 100t-101.5 245t101.5 245t245.5 100t245.5 -100t101.5 -245zM93 260q0 -136 92.5 -228t226.5 -92t226.5 92t92.5 228t-92.5 228t-226.5 92t-226.5 -92t-92.5 -228zM549 61l-17 46q-46 -48 -114 -48q-86 0 -143 51.5
t-57 149.5t57.5 152t141.5 54q73 0 116 -48l16 45h13v-156h-24l-12 39q-14 45 -37.5 70.5t-65.5 25.5q-40 0 -59.5 -50t-19.5 -131t19.5 -130t59.5 -49q74 0 104 97l11 36h24v-154h-13z" />
    <glyph glyph-name="ordfeminine" unicode="&#xaa;" horiz-adv-x="416" 
d="M222 525q-41 -5 -57 -29.5t-16 -67.5q0 -61 36 -61q37 0 37 45v113zM419 444q-4 -54 -25 -81t-68 -27q-69 0 -78 66q-18 -71 -123 -71q-53 0 -81 24.5t-28 62.5q0 59 53.5 86.5t152.5 36.5v68q0 38 -11.5 55t-39.5 17q-41 0 -65 -26q21 -2 33.5 -15t12.5 -35
q0 -26 -15.5 -40t-41.5 -14q-23 0 -38.5 15t-15.5 41q0 43 39.5 68.5t106.5 25.5q78 0 121 -34.5t43 -104.5q0 -23 -1 -78.5t-1 -77.5q0 -28 20 -28q13 0 20.5 14t11.5 53zM36 234v30h340v-30h-340z" />
    <glyph glyph-name="guillemotleft" unicode="&#xab;" horiz-adv-x="503" 
d="M424 60l-195 178v26l195 178h14l-93 -191l93 -191h-14zM245 60l-195 178v26l195 178h14l-93 -191l93 -191h-14z" />
    <glyph glyph-name="logicalnot" unicode="&#xac;" horiz-adv-x="550" 
d="M456 291h-400v38h438v-185h-38v147z" />
    <glyph glyph-name="registered" unicode="&#xae;" horiz-adv-x="824" 
d="M759 260q0 -145 -101.5 -245t-245.5 -100t-245.5 100t-101.5 245t101.5 245t245.5 100t245.5 -100t101.5 -245zM93 260q0 -136 92.5 -228t226.5 -92t226.5 92t92.5 228t-92.5 228t-226.5 92t-226.5 -92t-92.5 -228zM408 266q60 0 60 89q0 80 -55 80q-12 0 -29 -1v-167
q10 -1 24 -1zM431 82v-12h-205v12l36 11q10 1 10 13v311q0 11 -10 14l-36 10v13h33q32 0 84.5 1t68.5 1q169 0 169 -100q0 -72 -87 -93q30 -12 45 -47l45 -107q8 -19 18 -22l16 -5v-12h-140l-64 176h-10h-20v-140q0 -12 9 -13z" />
    <glyph glyph-name="macron" unicode="&#xaf;" horiz-adv-x="574" 
d="M161 651v43q72 -4 139 -4q70 0 140 4v-43q-70 4 -139 4q-68 0 -140 -4z" />
    <glyph glyph-name="degree" unicode="&#xb0;" horiz-adv-x="354" 
d="M177 465q-50 0 -83.5 32.5t-33.5 83.5t33.5 84t83.5 32q50 0 83 -32.5t34 -83.5q0 -51 -33.5 -83.5t-83.5 -32.5zM177 497q35 0 59 24t23 60q0 37 -23.5 60.5t-58.5 24.5q-35 0 -58.5 -24t-23.5 -61q0 -36 23.5 -60t58.5 -24z" />
    <glyph glyph-name="plusminus" unicode="&#xb1;" horiz-adv-x="550" 
d="M494 0h-438v38h200v195h-200v38h200v198h38v-198h200v-38h-200v-195h200v-38z" />
    <glyph glyph-name="two.sups" unicode="&#xb2;" horiz-adv-x="390" 
d="M335 500h-287l-5 48q89 61 131 108q41 44 41 114q0 80 -64 80q-50 0 -71 -36q8 3 18 3q21 0 35 -14.5t14 -35.5q0 -23 -16.5 -39t-40.5 -16q-25 0 -41 16.5t-16 43.5q0 40 36 68t107 28q70 0 117.5 -27t47.5 -77q0 -11 -2 -20.5t-7 -18t-9 -15t-13.5 -14t-14.5 -11.5
t-18.5 -11t-19 -9.5t-21.5 -10.5t-21 -10q-45 -21 -89 -49h156q18 0 25 4.5t12 17.5l12 33h19z" />
    <glyph glyph-name="three.sups" unicode="&#xb3;" horiz-adv-x="390" 
d="M159 488q-57 0 -92.5 24t-35.5 58q0 27 16 42t41 15q26 0 40.5 -14.5t14.5 -35.5q0 -23 -15 -37t-33 -14q20 -20 50 -20q34 0 59.5 30.5t24.5 73.5q-1 40 -10 57.5t-31 17.5q-13 0 -31 -13.5t-33 -13.5q-26 0 -24 31q27 11 81 15q46 28 46 79q0 67 -59 67q-38 0 -63 -23
l12 2q19 0 31 -13.5t12 -35.5t-15 -36.5t-39 -14.5t-38.5 14t-14.5 38q0 40 36.5 63.5t97.5 23.5q71 0 110.5 -22.5t39.5 -57.5q0 -15 -5 -26.5t-11.5 -18t-22 -13t-25 -9.5t-33.5 -9.5t-36 -9.5v-4q22 2 38 2q51 0 83 -21.5t32 -57.5q0 -65 -57 -99t-141 -34z" />
    <glyph glyph-name="acute" unicode="&#xb4;" horiz-adv-x="574" 
d="M253 578h-6q54 102 67 172h118v-3q-23 -45 -70.5 -90.5t-108.5 -78.5z" />
    <glyph glyph-name="mu" unicode="&#xb5;" horiz-adv-x="619" 
d="M240 -198v-32h-188v651q0 33 -8 45.5t-34 16.5l-25 4v15h258l-3 -82v-314q0 -68 48 -68q30 0 47 37t17 108v238q0 33 -8 45.5t-34 16.5l-25 4v15h259l-4 -90v-331q0 -33 8 -45.5t34 -16.5l25 -4v-15h-226l-13 10v173q0 -198 -122 -198q-28 0 -47 18q1 -5 9 -31.5
t10 -35.5t8 -32t8 -36t4 -31.5t2 -34.5z" />
    <glyph glyph-name="paragraph" unicode="&#xb6;" horiz-adv-x="647" 
d="M373 -185h-32v460q-37 -12 -76 -12q-103 0 -164 52.5t-61 145.5q0 98 58 158.5t180 60.5q44 0 95 -1v-864zM461 -185v864h161v-16l-40 -7q-59 -10 -74 -26t-15 -61v-754h-32z" />
    <glyph glyph-name="periodcentered" unicode="&#xb7;" horiz-adv-x="355" 
d="M275 251q0 -41 -28 -68.5t-69 -27.5q-42 0 -70 27.5t-28 68.5t28 68t70 27q41 0 69 -27.5t28 -67.5z" />
    <glyph glyph-name="cedilla" unicode="&#xb8;" horiz-adv-x="547" 
d="M275 -244q-51 0 -98 32l10 13q32 -17 60 -17t43.5 19t15.5 54q0 57 -38 57q-16 0 -34 -10l-12 10l24 86h19l-16 -76q31 12 63 12q46 0 76 -22t30 -60q0 -48 -44 -73t-99 -25z" />
    <glyph glyph-name="one.sups" unicode="&#xb9;" horiz-adv-x="357" 
d="M53 500v16l60 12q9 2 9 9v261q0 13 -16 15l-56 6v16l52 6q75 8 119 25h27q-3 -42 -3 -81v-248q0 -8 8 -9l58 -10v-18h-258z" />
    <glyph glyph-name="ordmasculine" unicode="&#xba;" horiz-adv-x="436" 
d="M391 518q0 -92 -55 -139.5t-128 -47.5t-128 47.5t-55 137.5q0 92 55 138.5t128 46.5t128 -46.5t55 -136.5zM166 516q1 -98 9 -131.5t33 -33.5t33.5 34t8.5 133q0 96 -8.5 129.5t-33.5 33.5t-34 -34.5t-8 -130.5zM36 234v30h344v-30h-344z" />
    <glyph glyph-name="guillemotright" unicode="&#xbb;" horiz-adv-x="503" 
d="M453 238l-195 -178h-14l93 191l-93 191h14l195 -178v-26zM274 238l-195 -178h-14l93 191l-93 191h14l195 -178v-26z" />
    <glyph glyph-name="onequarter" unicode="&#xbc;" horiz-adv-x="883" 
d="M206 -15l-36 23l253 338l234 348l36 -23l-253 -337zM78 323v16l60 12q9 2 9 9v261q0 13 -16 15l-56 6v16l52 6q75 8 119 25h27q-3 -42 -3 -81v-248q0 -8 8 -9l58 -10v-18h-258zM798 0h-287l-5 48q89 61 131 108q41 44 41 114q0 80 -64 80q-50 0 -71 -36q7 3 18 3
q21 0 35 -14.5t14 -35.5q0 -23 -16.5 -39t-40.5 -16q-25 0 -41 16.5t-16 43.5q0 40 36 68t107 28q70 0 117.5 -27t47.5 -77q0 -11 -2 -20.5t-7 -18t-9 -15t-13.5 -14t-14.5 -11.5t-18.5 -11t-19 -9.5t-21.5 -10.5t-21 -10q-45 -21 -89 -49h156q18 0 25 4.5t12 17.5l12 33h19
z" />
    <glyph glyph-name="onehalf" unicode="&#xbd;" horiz-adv-x="860" 
d="M214 -15l-36 23l253 338l234 348l36 -23l-253 -337zM78 323v16l60 12q9 2 9 9v261q0 13 -16 15l-56 6v16l52 6q75 8 119 25h27q-3 -42 -3 -81v-248q0 -8 8 -9l58 -10v-18h-258zM599 126v99l3 82l-120 -180zM776 16v-16h-241v15l56 11q8 2 8 10v66h-143l-4 19l155 235h111
v-230h9q13 0 19.5 6t12.5 23l13 35h16l-10 -88h-60v-66q0 -9 8 -10z" />
    <glyph glyph-name="threequarters" unicode="&#xbe;" horiz-adv-x="895" 
d="M239 -15l-36 23l253 338l234 348l36 -23l-253 -337zM211 311q-57 0 -92.5 24t-35.5 58q0 27 16 42t41 15q26 0 40.5 -14.5t14.5 -35.5q0 -23 -15 -37t-33 -14q20 -20 50 -20q34 0 59.5 30.5t24.5 73.5q-1 40 -10 57.5t-31 17.5q-13 0 -31 -13.5t-33 -13.5q-26 0 -24 31
q27 11 81 15q46 28 46 79q0 67 -59 67q-38 0 -63 -23l12 2q19 0 31 -13.5t12 -35.5t-15 -36.5t-39 -14.5t-38.5 14t-14.5 38q0 40 36.5 63.5t97.5 23.5q71 0 110.5 -22.5t39.5 -57.5q0 -15 -5 -26.5t-11.5 -18t-22 -13t-25 -9.5t-33.5 -9.5t-36 -9.5v-4q22 2 38 2
q51 0 83 -21.5t32 -57.5q0 -65 -57 -99t-141 -34zM634 126v99l3 82l-120 -180zM811 16v-16h-241v15l56 11q8 2 8 10v66h-143l-4 19l155 235h111v-230h9q13 0 19.5 6t12.5 23l13 35h16l-10 -88h-60v-66q0 -9 8 -10z" />
    <glyph glyph-name="questiondown" unicode="&#xbf;" horiz-adv-x="596" 
d="M250 420q0 41 28 68.5t70 27.5t70 -27.5t28 -68.5t-28 -68.5t-70 -27.5t-70 27.5t-28 68.5zM563 -11q0 -79 -68.5 -130t-183.5 -51q-128 0 -203.5 49t-75.5 135q0 64 41.5 107t98.5 60t123 17q23 0 34 -2l18 99h15l23 -122l-12 -4q-29 9 -60 9q-79 0 -79 -179
q0 -147 89 -147q49 0 74.5 35t25.5 84q0 32 -12 49t-32 17q-38 0 -50 -56l-10 1q8 65 45 103t89 38t81 -30.5t29 -81.5z" />
    <glyph glyph-name="Agrave" unicode="&#xc0;" horiz-adv-x="734" 
d="M470 747h-7q-53 19 -110 54t-85 68v3h149q17 -64 53 -125zM739 16v-16q-34 0 -100 0.5t-100 0.5t-102.5 -0.5t-102.5 -0.5v16l31 6q34 7 42.5 27t-6.5 77l-23 72h-201q-26 -77 -12 -115t71 -56l34 -11v-16q-23 0 -69.5 0.5t-70.5 0.5t-67.5 -0.5t-67.5 -0.5v16l24 8
q45 15 73.5 53.5t64.5 134.5l108 303l54 164h120l186 -529q25 -74 43 -99t46 -30zM283 502l-98 -281h186z" />
    <glyph glyph-name="Aacute" unicode="&#xc1;" horiz-adv-x="734" 
d="M290 747h-7q36 61 53 125h149v-3q-28 -33 -85 -68t-110 -54zM739 16v-16q-34 0 -100 0.5t-100 0.5t-102.5 -0.5t-102.5 -0.5v16l31 6q34 7 42.5 27t-6.5 77l-23 72h-201q-26 -77 -12 -115t71 -56l34 -11v-16q-23 0 -69.5 0.5t-70.5 0.5t-67.5 -0.5t-67.5 -0.5v16l24 8
q45 15 73.5 53.5t64.5 134.5l108 303l54 164h120l186 -529q25 -74 43 -99t46 -30zM283 502l-98 -281h186z" />
    <glyph glyph-name="Acircumflex" unicode="&#xc2;" horiz-adv-x="734" 
d="M357 814l-124 -67h-7l107 125h84l103 -125h-9zM739 16v-16q-34 0 -100 0.5t-100 0.5t-102.5 -0.5t-102.5 -0.5v16l31 6q34 7 42.5 27t-6.5 77l-23 72h-201q-26 -77 -12 -115t71 -56l34 -11v-16q-23 0 -69.5 0.5t-70.5 0.5t-67.5 -0.5t-67.5 -0.5v16l24 8q45 15 73.5 53.5
t64.5 134.5l108 303l54 164h120l186 -529q25 -74 43 -99t46 -30zM283 502l-98 -281h186z" />
    <glyph glyph-name="Atilde" unicode="&#xc3;" horiz-adv-x="734" 
d="M264 748l-3 -2q-17 26 -17 58t18 52t53 20q30 0 76 -26t65 -26q38 0 42 38h4q0 -58 -15 -86.5t-59 -28.5q-27 0 -73 26t-65 26q-29 0 -29 -31q0 -12 3 -20zM739 16v-16q-34 0 -100 0.5t-100 0.5t-102.5 -0.5t-102.5 -0.5v16l31 6q34 7 42.5 27t-6.5 77l-23 72h-201
q-26 -77 -12 -115t71 -56l34 -11v-16q-23 0 -69.5 0.5t-70.5 0.5t-67.5 -0.5t-67.5 -0.5v16l24 8q45 15 73.5 53.5t64.5 134.5l108 303l54 164h120l186 -529q25 -74 43 -99t46 -30zM283 502l-98 -281h186z" />
    <glyph glyph-name="Adieresis" unicode="&#xc4;" horiz-adv-x="734" 
d="M554 811q0 -27 -18.5 -45.5t-46.5 -18.5q-29 0 -47.5 18.5t-18.5 45.5t18.5 46t47.5 19q28 0 46.5 -19t18.5 -46zM329 811q0 -27 -18.5 -45.5t-47.5 -18.5q-28 0 -46.5 18.5t-18.5 45.5t18.5 46t46.5 19q29 0 47.5 -19t18.5 -46zM739 16v-16q-34 0 -100 0.5t-100 0.5
t-102.5 -0.5t-102.5 -0.5v16l31 6q34 7 42.5 27t-6.5 77l-23 72h-201q-26 -77 -12 -115t71 -56l34 -11v-16q-23 0 -69.5 0.5t-70.5 0.5t-67.5 -0.5t-67.5 -0.5v16l24 8q45 15 73.5 53.5t64.5 134.5l108 303l54 164h120l186 -529q25 -74 43 -99t46 -30zM283 502l-98 -281h186
z" />
    <glyph glyph-name="Aring" unicode="&#xc5;" horiz-adv-x="734" 
d="M476 822q0 -41 -28 -68t-71 -27t-71 27t-28 68t28 68t71 27t71 -27t28 -68zM312 822q0 -35 17 -57t48 -22t48 22t17 57t-17 57t-48 22t-48 -22t-17 -57zM739 16v-16q-34 0 -100 0.5t-100 0.5t-102.5 -0.5t-102.5 -0.5v16l31 6q34 7 42.5 27t-6.5 77l-23 72h-201
q-26 -77 -12 -115t71 -56l34 -11v-16q-23 0 -69.5 0.5t-70.5 0.5t-67.5 -0.5t-67.5 -0.5v16l24 8q45 15 73.5 53.5t64.5 134.5l108 303l54 164h120l186 -529q25 -74 43 -99t46 -30zM283 502l-98 -281h186z" />
    <glyph glyph-name="AE" unicode="&#xc6;" horiz-adv-x="1039" 
d="M460 263v396l-222 -396h222zM994 255v-255h-629v16l35 7q38 7 49 22t11 55v140h-235l-20 -36q-39 -69 -46.5 -105t7 -50.5t55.5 -24.5l32 -8v-16q-22 0 -66 0.5t-66 0.5t-65.5 -0.5t-65.5 -0.5v16l16 4q53 13 83.5 46.5t94.5 146.5l171 302q34 60 34 92q0 38 -66 50
l-33 6v16h681v-251h-21q-87 232 -220 232h-52v-301h6q44 0 74.5 35.5t62.5 128.5h14q-1 -58 -1 -175t1 -176h-14q-31 97 -61.5 132.5t-76.5 35.5h-5v-270q0 -51 44 -51h12q150 0 241 236h19z" />
    <glyph glyph-name="Ccedilla" unicode="&#xc7;" horiz-adv-x="694" 
d="M324 -244q-51 0 -98 32l10 13q32 -17 60 -17t43.5 19t15.5 54q0 57 -38 57q-16 0 -34 -10l-12 10l22 80q-120 29 -193 121t-73 224q0 159 106 259t259 100q97 0 167 -64l52 56h8v-295h-16q-19 53 -33 88t-34.5 76t-40 64.5t-45.5 39.5t-55 16q-136 0 -136 -340
q0 -169 32.5 -254t107.5 -85q26 0 49.5 14t42.5 36t39.5 60.5t36 74t36.5 90.5h16v-287h-8l-52 57q-70 -64 -161 -64q-43 0 -86 8l-14 -65q31 12 63 12q46 0 76 -22t30 -60q0 -48 -44 -73t-99 -25z" />
    <glyph glyph-name="Egrave" unicode="&#xc8;" horiz-adv-x="689" 
d="M409 747h-7q-53 19 -110 54t-85 68v3h149q17 -64 53 -125zM644 255v-255h-629v16l35 7q38 7 49 22t11 55v479q0 40 -11 55t-49 22l-35 7v16h606v-251h-21q-87 232 -220 232h-52v-301h6q44 0 74.5 35.5t62.5 128.5h14q-1 -58 -1 -175t1 -176h-14q-31 97 -61.5 132.5
t-76.5 35.5h-5v-270q0 -51 44 -51h12q150 0 241 236h19z" />
    <glyph glyph-name="Eacute" unicode="&#xc9;" horiz-adv-x="689" 
d="M315 747h-7q36 61 53 125h149v-3q-28 -33 -85 -68t-110 -54zM644 255v-255h-629v16l35 7q38 7 49 22t11 55v479q0 40 -11 55t-49 22l-35 7v16h606v-251h-21q-87 232 -220 232h-52v-301h6q44 0 74.5 35.5t62.5 128.5h14q-1 -58 -1 -175t1 -176h-14q-31 97 -61.5 132.5
t-76.5 35.5h-5v-270q0 -51 44 -51h12q150 0 241 236h19z" />
    <glyph glyph-name="Ecircumflex" unicode="&#xca;" horiz-adv-x="689" 
d="M334 814l-124 -67h-7l107 125h84l103 -125h-9zM644 255v-255h-629v16l35 7q38 7 49 22t11 55v479q0 40 -11 55t-49 22l-35 7v16h606v-251h-21q-87 232 -220 232h-52v-301h6q44 0 74.5 35.5t62.5 128.5h14q-1 -58 -1 -175t1 -176h-14q-31 97 -61.5 132.5t-76.5 35.5h-5
v-270q0 -51 44 -51h12q150 0 241 236h19z" />
    <glyph glyph-name="Edieresis" unicode="&#xcb;" horiz-adv-x="689" 
d="M307 811q0 -27 -18.5 -45.5t-47.5 -18.5q-28 0 -46.5 18.5t-18.5 45.5t18.5 46t46.5 19q29 0 47.5 -19t18.5 -46zM532 811q0 -27 -18.5 -45.5t-46.5 -18.5q-29 0 -47.5 18.5t-18.5 45.5t18.5 46t47.5 19q28 0 46.5 -19t18.5 -46zM644 255v-255h-629v16l35 7q38 7 49 22
t11 55v479q0 40 -11 55t-49 22l-35 7v16h606v-251h-21q-87 232 -220 232h-52v-301h6q44 0 74.5 35.5t62.5 128.5h14q-1 -58 -1 -175t1 -176h-14q-31 97 -61.5 132.5t-76.5 35.5h-5v-270q0 -51 44 -51h12q150 0 241 236h19z" />
    <glyph glyph-name="Igrave" unicode="&#xcc;" horiz-adv-x="441" 
d="M307 747h-7q-53 19 -110 54t-85 68v3h149q17 -64 53 -125zM425 16v-16q-34 0 -102 0.5t-102 0.5t-102.5 -0.5t-102.5 -0.5v16l35 7q38 7 49 22t11 55v479q0 40 -11 55t-49 22l-35 7v16q68 -1 205 -1q136 0 204 1v-16l-35 -7q-38 -7 -49 -22t-11 -55v-479q0 -40 11 -55
t49 -22z" />
    <glyph glyph-name="Iacute" unicode="&#xcd;" horiz-adv-x="441" 
d="M165 747h-7q36 61 53 125h149v-3q-28 -33 -85 -68t-110 -54zM425 16v-16q-34 0 -102 0.5t-102 0.5t-102.5 -0.5t-102.5 -0.5v16l35 7q38 7 49 22t11 55v479q0 40 -11 55t-49 22l-35 7v16q68 -1 205 -1q136 0 204 1v-16l-35 -7q-38 -7 -49 -22t-11 -55v-479q0 -40 11 -55
t49 -22z" />
    <glyph glyph-name="Icircumflex" unicode="&#xce;" horiz-adv-x="441" 
d="M356 747l-154 67l-124 -67h-7l107 125h84l103 -125h-9zM425 16v-16q-34 0 -102 0.5t-102 0.5t-102.5 -0.5t-102.5 -0.5v16l35 7q38 7 49 22t11 55v479q0 40 -11 55t-49 22l-35 7v16q68 -1 205 -1q136 0 204 1v-16l-35 -7q-38 -7 -49 -22t-11 -55v-479q0 -40 11 -55
t49 -22z" />
    <glyph glyph-name="Idieresis" unicode="&#xcf;" horiz-adv-x="441" 
d="M397 811q0 -27 -18.5 -45.5t-46.5 -18.5q-29 0 -47.5 18.5t-18.5 45.5t18.5 46t47.5 19q28 0 46.5 -19t18.5 -46zM172 811q0 -27 -18.5 -45.5t-47.5 -18.5q-28 0 -46.5 18.5t-18.5 45.5t18.5 46t46.5 19q29 0 47.5 -19t18.5 -46zM425 16v-16q-34 0 -102 0.5t-102 0.5
t-102.5 -0.5t-102.5 -0.5v16l35 7q38 7 49 22t11 55v479q0 40 -11 55t-49 22l-35 7v16q68 -1 205 -1q136 0 204 1v-16l-35 -7q-38 -7 -49 -22t-11 -55v-479q0 -40 11 -55t49 -22z" />
    <glyph glyph-name="Eth" unicode="&#xd0;" horiz-adv-x="780" 
d="M110 356v223q0 40 -11 55t-49 22l-35 7v16h365q176 0 274.5 -83t98.5 -256q0 -171 -101 -255.5t-267 -84.5h-370v16l35 7q38 7 49 22t11 55v222h-72v34h72zM372 19h15q134 0 134 321q0 158 -33 239t-108 81h-52v-307h105v-28h-105v-255q0 -51 44 -51z" />
    <glyph glyph-name="Ntilde" unicode="&#xd1;" horiz-adv-x="727" 
d="M279 748l-3 -2q-17 26 -17 58t18 52t53 20q30 0 76 -26t65 -26q38 0 42 38h4q0 -58 -15 -86.5t-59 -28.5q-27 0 -73 26t-65 26q-29 0 -29 -31q0 -12 3 -20zM627 0h-174l-317 575v-433q0 -54 15.5 -78t59.5 -40l23 -8v-16q-18 0 -54.5 0.5t-54.5 0.5q-19 0 -55 -0.5
t-55 -0.5v16l21 9q43 19 58.5 42t15.5 75v430q0 39 -13.5 58t-48.5 26l-33 7v16h327l259 -466v324q0 54 -15.5 78t-59.5 40l-23 8v16q37 -1 110 -1t109 1v-16l-21 -9q-43 -19 -58.5 -42t-15.5 -75v-537z" />
    <glyph glyph-name="Ograve" unicode="&#xd2;" horiz-adv-x="752" 
d="M468 747h-7q-53 19 -110 54t-85 68v3h149q17 -64 53 -125zM376 -19q-65 0 -126 22.5t-111.5 65t-81 113t-30.5 159.5t30.5 159t81 112t111.5 64t126 22t126 -22t111.5 -64t81 -112t30.5 -159t-30.5 -159.5t-81 -113t-111.5 -65t-126 -22.5zM376 0q68 0 92.5 87.5
t24.5 253.5t-24.5 252t-92.5 86t-92.5 -86t-24.5 -252t24.5 -253.5t92.5 -87.5z" />
    <glyph glyph-name="Oacute" unicode="&#xd3;" horiz-adv-x="752" 
d="M309 747h-7q36 61 53 125h149v-3q-28 -33 -85 -68t-110 -54zM376 -19q-65 0 -126 22.5t-111.5 65t-81 113t-30.5 159.5t30.5 159t81 112t111.5 64t126 22t126 -22t111.5 -64t81 -112t30.5 -159t-30.5 -159.5t-81 -113t-111.5 -65t-126 -22.5zM376 0q68 0 92.5 87.5
t24.5 253.5t-24.5 252t-92.5 86t-92.5 -86t-24.5 -252t24.5 -253.5t92.5 -87.5z" />
    <glyph glyph-name="Ocircumflex" unicode="&#xd4;" horiz-adv-x="752" 
d="M362 814l-124 -67h-7l107 125h84l103 -125h-9zM376 -19q-65 0 -126 22.5t-111.5 65t-81 113t-30.5 159.5t30.5 159t81 112t111.5 64t126 22t126 -22t111.5 -64t81 -112t30.5 -159t-30.5 -159.5t-81 -113t-111.5 -65t-126 -22.5zM376 0q68 0 92.5 87.5t24.5 253.5
t-24.5 252t-92.5 86t-92.5 -86t-24.5 -252t24.5 -253.5t92.5 -87.5z" />
    <glyph glyph-name="Otilde" unicode="&#xd5;" horiz-adv-x="752" 
d="M276 748l-3 -2q-17 26 -17 58t18 52t53 20q30 0 76 -26t65 -26q38 0 42 38h4q0 -58 -15 -86.5t-59 -28.5q-27 0 -73 26t-65 26q-29 0 -29 -31q0 -12 3 -20zM725 341q0 -89 -30.5 -159.5t-81 -113t-111.5 -65t-126 -22.5t-126 22.5t-111.5 65t-81 113t-30.5 159.5
t30.5 159t81 112t111.5 64t126 22t126 -22t111.5 -64t81 -112t30.5 -159zM259 341q0 -166 24.5 -253.5t92.5 -87.5t92.5 87.5t24.5 253.5t-24.5 252t-92.5 86t-92.5 -86t-24.5 -252z" />
    <glyph glyph-name="Odieresis" unicode="&#xd6;" horiz-adv-x="752" 
d="M554 811q0 -27 -18.5 -45.5t-46.5 -18.5q-29 0 -47.5 18.5t-18.5 45.5t18.5 46t47.5 19q28 0 46.5 -19t18.5 -46zM329 811q0 -27 -18.5 -45.5t-47.5 -18.5q-28 0 -46.5 18.5t-18.5 45.5t18.5 46t46.5 19q29 0 47.5 -19t18.5 -46zM725 341q0 -89 -30.5 -159.5t-81 -113
t-111.5 -65t-126 -22.5t-126 22.5t-111.5 65t-81 113t-30.5 159.5t30.5 159t81 112t111.5 64t126 22t126 -22t111.5 -64t81 -112t30.5 -159zM259 341q0 -166 24.5 -253.5t92.5 -87.5t92.5 87.5t24.5 253.5t-24.5 252t-92.5 86t-92.5 -86t-24.5 -252z" />
    <glyph glyph-name="multiply" unicode="&#xd7;" horiz-adv-x="550" 
d="M416 82l-141 141l-141 -141l-27 27l141 141l-141 141l27 27l141 -141l141 141l27 -27l-141 -141l141 -141z" />
    <glyph glyph-name="Oslash" unicode="&#xd8;" horiz-adv-x="752" 
d="M725 341q0 -89 -30.5 -159.5t-81 -113t-111.5 -65t-126 -22.5q-131 0 -228 79l-59 -70l-21 16l60 72q-101 99 -101 263q0 89 30.5 159t81 112t111.5 64t126 22q123 0 215 -68l51 60l21 -16l-51 -61q113 -98 113 -272zM376 679q-68 0 -92.5 -86t-24.5 -252q0 -63 3 -117
l222 296q-21 159 -108 159zM376 0q68 0 92.5 87.5t24.5 253.5q0 87 -5 140l-223 -296q20 -185 111 -185z" />
    <glyph glyph-name="Ugrave" unicode="&#xd9;" horiz-adv-x="747" 
d="M490 747h-7q-53 19 -110 54t-85 68v3h149q17 -64 53 -125zM386 -14q-84 0 -142 19.5t-90 57t-45.5 84t-13.5 107.5v325q0 40 -11 55t-49 22l-35 7v16q68 -1 205 -1q136 0 204 1v-16l-35 -7q-38 -7 -49 -22t-11 -55v-335q0 -210 154 -210q81 0 119.5 54.5t38.5 165.5v283
q0 54 -15.5 78t-59.5 40l-23 8v16q37 -1 110 -1t109 1v-16l-21 -9q-43 -19 -58.5 -42t-15.5 -75v-283q0 -62 -11.5 -108t-40 -83.5t-82 -57t-132.5 -19.5z" />
    <glyph glyph-name="Uacute" unicode="&#xda;" horiz-adv-x="747" 
d="M357 747h-7q36 61 53 125h149v-3q-28 -33 -85 -68t-110 -54zM652 254q0 -62 -11.5 -108t-40 -83.5t-82 -57t-132.5 -19.5q-84 0 -142 19.5t-90 57t-45.5 84t-13.5 107.5v325q0 40 -11 55t-49 22l-35 7v16q68 -1 205 -1q136 0 204 1v-16l-35 -7q-38 -7 -49 -22t-11 -55
v-335q0 -210 154 -210q81 0 119.5 54.5t38.5 165.5v283q0 54 -15.5 78t-59.5 40l-23 8v16q37 -1 110 -1t109 1v-16l-21 -9q-43 -19 -58.5 -42t-15.5 -75v-283z" />
    <glyph glyph-name="Ucircumflex" unicode="&#xdb;" horiz-adv-x="747" 
d="M369 814l-124 -67h-7l107 125h84l103 -125h-9zM386 -14q-84 0 -142 19.5t-90 57t-45.5 84t-13.5 107.5v325q0 40 -11 55t-49 22l-35 7v16q68 -1 205 -1q136 0 204 1v-16l-35 -7q-38 -7 -49 -22t-11 -55v-335q0 -210 154 -210q81 0 119.5 54.5t38.5 165.5v283
q0 54 -15.5 78t-59.5 40l-23 8v16q37 -1 110 -1t109 1v-16l-21 -9q-43 -19 -58.5 -42t-15.5 -75v-283q0 -62 -11.5 -108t-40 -83.5t-82 -57t-132.5 -19.5z" />
    <glyph glyph-name="Udieresis" unicode="&#xdc;" horiz-adv-x="747" 
d="M341 811q0 -27 -18.5 -45.5t-47.5 -18.5q-28 0 -46.5 18.5t-18.5 45.5t18.5 46t46.5 19q29 0 47.5 -19t18.5 -46zM566 811q0 -27 -18.5 -45.5t-46.5 -18.5q-29 0 -47.5 18.5t-18.5 45.5t18.5 46t47.5 19q28 0 46.5 -19t18.5 -46zM652 254q0 -62 -11.5 -108t-40 -83.5
t-82 -57t-132.5 -19.5q-84 0 -142 19.5t-90 57t-45.5 84t-13.5 107.5v325q0 40 -11 55t-49 22l-35 7v16q68 -1 205 -1q136 0 204 1v-16l-35 -7q-38 -7 -49 -22t-11 -55v-335q0 -210 154 -210q81 0 119.5 54.5t38.5 165.5v283q0 54 -15.5 78t-59.5 40l-23 8v16q37 -1 110 -1
t109 1v-16l-21 -9q-43 -19 -58.5 -42t-15.5 -75v-283z" />
    <glyph glyph-name="Yacute" unicode="&#xdd;" horiz-adv-x="740" 
d="M334 747h-7q36 61 53 125h149v-3q-28 -33 -85 -68t-110 -54zM582 0q-36 0 -107 0.5t-107 0.5t-107.5 -0.5t-107.5 -0.5v16l37 7q43 8 55.5 22.5t12.5 54.5v169l-145 289q-26 52 -46.5 73t-51.5 27l-25 5v16q71 -1 214 -1q142 0 213 1v-16l-38 -8q-22 -4 -30.5 -15.5
t-5.5 -29.5t17 -50l104 -239l75 161q36 76 36 118q0 39 -72 56l-30 7v16q46 -1 139 -1q92 0 138 1v-16l-20 -6q-45 -14 -84.5 -53t-85.5 -134l-83 -171v-199q0 -40 12.5 -54.5t55.5 -22.5l37 -7v-16z" />
    <glyph glyph-name="Thorn" unicode="&#xde;" horiz-adv-x="718" 
d="M364 168l12 1q99 10 99 180q0 91 -27.5 134.5t-75.5 43.5h-43v-359h35zM424 16v-16q-34 0 -102 0.5t-102 0.5t-102.5 -0.5t-102.5 -0.5v16l35 7q38 7 49 22t11 55v479q0 40 -11 55t-49 22l-35 7v16q68 -1 205 -1q136 0 204 1v-16l-35 -7q-38 -7 -49 -22t-11 -55v-33h45
q324 0 324 -198q0 -99 -89.5 -149t-244.5 -50h-35v-49q0 -40 11 -55t49 -22z" />
    <glyph glyph-name="germandbls" unicode="&#xdf;" horiz-adv-x="683" 
d="M468 -12q-71 0 -109 29.5t-38 75.5q0 37 21.5 61t59.5 24q32 0 51.5 -20.5t19.5 -49.5q0 -25 -11 -47t-11 -30q0 -22 32 -22q24 0 41 19.5t17 61.5t-20 68.5t-70 60.5q-65 46 -93 80.5t-28 86.5q0 27 7 47.5t25.5 40.5t30 30t42.5 33q48 36 48 98q0 123 -93 123
q-48 0 -80.5 -38.5t-32.5 -120.5v-599h-255v15l25 4q26 4 34 16.5t8 45.5v364l-84 17v21l86 16q6 72 35.5 127.5t74 87.5t94 48.5t102.5 17.5q84 1 130 -32.5t46 -81.5q0 -30 -13 -51.5t-28.5 -33t-54.5 -36.5q-37 -23 -37 -53q0 -24 20.5 -48.5t81.5 -69.5q68 -50 94.5 -91
t26.5 -101q0 -90 -60.5 -142t-134.5 -52z" />
    <glyph glyph-name="agrave" unicode="&#xe0;" horiz-adv-x="578" 
d="M328 578h-6q-61 33 -108.5 78.5t-70.5 90.5v3h118q13 -70 67 -172zM260 25q25 0 40 21t15 64l1 145q-57 -9 -80.5 -42.5t-23.5 -103.5q0 -84 48 -84zM329 91q-5 -56 -41.5 -81t-105.5 -25q-83 0 -120.5 36.5t-37.5 89.5q0 72 64.5 107.5t227.5 48.5v96q0 74 -13.5 103
t-54.5 29q-58 0 -58 -32q0 -13 13 -25.5t25.5 -30t12.5 -44.5q0 -41 -25 -64t-67 -23t-68.5 26t-26.5 71q0 59 54 98.5t156 39.5q234 0 234 -195q0 -23 -0.5 -126t-0.5 -116q0 -37 25 -37q35 0 39 119h17q-1 -97 -28.5 -133t-90.5 -36q-119 0 -130 104z" />
    <glyph glyph-name="aacute" unicode="&#xe1;" horiz-adv-x="578" 
d="M227 578h-6q54 102 67 172h118v-3q-23 -45 -70.5 -90.5t-108.5 -78.5zM260 25q25 0 40 21t15 64l1 145q-57 -9 -80.5 -42.5t-23.5 -103.5q0 -84 48 -84zM329 91q-5 -56 -41.5 -81t-105.5 -25q-83 0 -120.5 36.5t-37.5 89.5q0 72 64.5 107.5t227.5 48.5v96q0 74 -13.5 103
t-54.5 29q-58 0 -58 -32q0 -13 13 -25.5t25.5 -30t12.5 -44.5q0 -41 -25 -64t-67 -23t-68.5 26t-26.5 71q0 59 54 98.5t156 39.5q234 0 234 -195q0 -23 -0.5 -126t-0.5 -116q0 -37 25 -37q35 0 39 119h17q-1 -97 -28.5 -133t-90.5 -36q-119 0 -130 104z" />
    <glyph glyph-name="acircumflex" unicode="&#xe2;" horiz-adv-x="578" 
d="M414 578l-143 97l-130 -97h-5l114 172h68l104 -172h-8zM260 25q25 0 40 21t15 64l1 145q-57 -9 -80.5 -42.5t-23.5 -103.5q0 -84 48 -84zM578 156q-1 -97 -28.5 -133t-90.5 -36q-119 0 -130 104q-5 -56 -41.5 -81t-105.5 -25q-83 0 -120.5 36.5t-37.5 89.5
q0 72 64.5 107.5t227.5 48.5v96q0 74 -13.5 103t-54.5 29q-58 0 -58 -32q0 -13 13 -25.5t25.5 -30t12.5 -44.5q0 -41 -25 -64t-67 -23t-68.5 26t-26.5 71q0 59 54 98.5t156 39.5q234 0 234 -195q0 -23 -0.5 -126t-0.5 -116q0 -37 25 -37q35 0 39 119h17z" />
    <glyph glyph-name="atilde" unicode="&#xe3;" horiz-adv-x="578" 
d="M162 610l-3 -2q-17 26 -17 58t18 52t53 20q30 0 76 -26t65 -26q38 0 42 38h4q0 -58 -15 -86.5t-59 -28.5q-27 0 -73 26t-65 26q-29 0 -29 -31q0 -12 3 -20zM260 25q25 0 40 21t15 64l1 145q-57 -9 -80.5 -42.5t-23.5 -103.5q0 -84 48 -84zM329 91q-5 -56 -41.5 -81
t-105.5 -25q-83 0 -120.5 36.5t-37.5 89.5q0 72 64.5 107.5t227.5 48.5v96q0 74 -13.5 103t-54.5 29q-58 0 -58 -32q0 -13 13 -25.5t25.5 -30t12.5 -44.5q0 -41 -25 -64t-67 -23t-68.5 26t-26.5 71q0 59 54 98.5t156 39.5q234 0 234 -195q0 -23 -0.5 -126t-0.5 -116
q0 -37 25 -37q35 0 39 119h17q-1 -97 -28.5 -133t-90.5 -36q-119 0 -130 104z" />
    <glyph glyph-name="adieresis" unicode="&#xe4;" horiz-adv-x="578" 
d="M464 672q0 -27 -18.5 -45.5t-46.5 -18.5q-29 0 -47.5 18.5t-18.5 45.5t18.5 46t47.5 19q28 0 46.5 -19t18.5 -46zM239 672q0 -27 -18.5 -45.5t-47.5 -18.5q-28 0 -46.5 18.5t-18.5 45.5t18.5 46t46.5 19q29 0 47.5 -19t18.5 -46zM260 25q25 0 40 21t15 64l1 145
q-57 -9 -80.5 -42.5t-23.5 -103.5q0 -84 48 -84zM329 91q-5 -56 -41.5 -81t-105.5 -25q-83 0 -120.5 36.5t-37.5 89.5q0 72 64.5 107.5t227.5 48.5v96q0 74 -13.5 103t-54.5 29q-58 0 -58 -32q0 -13 13 -25.5t25.5 -30t12.5 -44.5q0 -41 -25 -64t-67 -23t-68.5 26t-26.5 71
q0 59 54 98.5t156 39.5q234 0 234 -195q0 -23 -0.5 -126t-0.5 -116q0 -37 25 -37q35 0 39 119h17q-1 -97 -28.5 -133t-90.5 -36q-119 0 -130 104z" />
    <glyph glyph-name="aring" unicode="&#xe5;" horiz-adv-x="578" 
d="M366 651q0 -41 -28 -68t-71 -27t-71 27t-28 68t28 68t71 27t71 -27t28 -68zM202 651q0 -35 17 -57t48 -22t48 22t17 57t-17 57t-48 22t-48 -22t-17 -57zM260 25q25 0 40 21t15 64l1 145q-57 -9 -80.5 -42.5t-23.5 -103.5q0 -84 48 -84zM578 156q-1 -97 -28.5 -133
t-90.5 -36q-119 0 -130 104q-5 -56 -41.5 -81t-105.5 -25q-83 0 -120.5 36.5t-37.5 89.5q0 72 64.5 107.5t227.5 48.5v96q0 74 -13.5 103t-54.5 29q-58 0 -58 -32q0 -13 13 -25.5t25.5 -30t12.5 -44.5q0 -41 -25 -64t-67 -23t-68.5 26t-26.5 71q0 59 54 98.5t156 39.5
q234 0 234 -195q0 -23 -0.5 -126t-0.5 -116q0 -37 25 -37q35 0 39 119h17z" />
    <glyph glyph-name="ae" unicode="&#xe6;" horiz-adv-x="817" 
d="M619 299l1 26q4 167 -48 167q-30 0 -44 -44t-16 -158zM791 123q-76 -139 -216 -139q-150 0 -214 109q-38 -108 -179 -108q-83 0 -120.5 36.5t-37.5 89.5q0 72 64.5 107.5t227.5 48.5v96q0 75 -13.5 103.5t-53.5 28.5q-59 0 -59 -32q0 -13 13 -25.5t25.5 -30t12.5 -44.5
q0 -41 -25 -64t-67 -23t-68.5 26t-26.5 71q0 59 54 98.5t156 39.5q117 0 161 -59q55 57 148 57q109 0 164.5 -53t55.5 -151q0 -27 -1 -34h-280v-21q0 -213 121 -213q85 0 143 95zM260 25q25 0 40 21t15 64l1 145q-57 -9 -80.5 -42.5t-23.5 -103.5q0 -84 48 -84z" />
    <glyph glyph-name="ccedilla" unicode="&#xe7;" horiz-adv-x="527" 
d="M220 -244q-51 0 -98 32l10 13q32 -17 60 -17t43.5 19t15.5 54q0 57 -38 57q-16 0 -34 -10l-12 10l23 82q-77 23 -122.5 85t-45.5 160q0 125 77 197t197 72q91 0 143.5 -38t52.5 -102q0 -48 -31 -80t-77 -32q-45 0 -73 25.5t-28 67.5q0 30 13.5 51t30 29t30 17.5
t13.5 18.5q0 10 -13 18t-38 8q-101 0 -101 -243q0 -213 121 -213q85 0 143 95l15 -9q-76 -139 -217 -139q-35 0 -72 8l-14 -68q31 12 63 12q46 0 76 -22t30 -60q0 -48 -44 -73t-99 -25z" />
    <glyph glyph-name="egrave" unicode="&#xe8;" horiz-adv-x="523" 
d="M337 578h-6q-61 33 -108.5 78.5t-70.5 90.5v3h118q13 -70 67 -172zM325 299l1 26q4 167 -48 167q-30 0 -44 -44t-16 -158zM497 123q-76 -139 -216 -139q-117 0 -188 67.5t-71 194.5q0 128 75.5 195.5t181.5 67.5q109 0 164.5 -53t55.5 -151q0 -27 -1 -34h-280v-21
q0 -213 121 -213q85 0 143 95z" />
    <glyph glyph-name="eacute" unicode="&#xe9;" horiz-adv-x="523" 
d="M228 578h-6q54 102 67 172h118v-3q-23 -45 -70.5 -90.5t-108.5 -78.5zM281 -16q-117 0 -188 67.5t-71 194.5q0 128 75.5 195.5t181.5 67.5q109 0 164.5 -53t55.5 -151q0 -27 -1 -34h-280v-21q0 -213 121 -213q85 0 143 95l15 -9q-76 -139 -216 -139zM218 290l107 9l1 26
q4 167 -48 167q-30 0 -44 -44t-16 -158z" />
    <glyph glyph-name="ecircumflex" unicode="&#xea;" horiz-adv-x="523" 
d="M402 578l-143 97l-130 -97h-5l114 172h68l104 -172h-8zM325 299l1 26q4 167 -48 167q-30 0 -44 -44t-16 -158zM497 123q-76 -139 -216 -139q-117 0 -188 67.5t-71 194.5q0 128 75.5 195.5t181.5 67.5q109 0 164.5 -53t55.5 -151q0 -27 -1 -34h-280v-21q0 -213 121 -213
q85 0 143 95z" />
    <glyph glyph-name="edieresis" unicode="&#xeb;" horiz-adv-x="523" 
d="M450 672q0 -27 -18.5 -45.5t-46.5 -18.5q-29 0 -47.5 18.5t-18.5 45.5t18.5 46t47.5 19q28 0 46.5 -19t18.5 -46zM225 672q0 -27 -18.5 -45.5t-47.5 -18.5q-28 0 -46.5 18.5t-18.5 45.5t18.5 46t46.5 19q29 0 47.5 -19t18.5 -46zM325 299l1 26q4 167 -48 167
q-30 0 -44 -44t-16 -158zM497 123q-76 -139 -216 -139q-117 0 -188 67.5t-71 194.5q0 128 75.5 195.5t181.5 67.5q109 0 164.5 -53t55.5 -151q0 -27 -1 -34h-280v-21q0 -213 121 -213q85 0 143 95z" />
    <glyph glyph-name="igrave" unicode="&#xec;" horiz-adv-x="339" 
d="M246 578h-6q-61 33 -108.5 78.5t-70.5 90.5v3h118q13 -70 67 -172zM16 0v15l24 4q25 4 33 16t8 45v313q0 31 -9.5 42.5t-40.5 13.5l-26 2v15l246 37l21 -7q-3 -65 -3 -130v-286q0 -33 8 -45t33 -16l24 -4v-15q-27 0 -79.5 0.5t-79.5 0.5t-79.5 -0.5t-79.5 -0.5z" />
    <glyph glyph-name="iacute" unicode="&#xed;" horiz-adv-x="339" 
d="M107 578h-6q54 102 67 172h118v-3q-23 -45 -70.5 -90.5t-108.5 -78.5zM334 0q-27 0 -79.5 0.5t-79.5 0.5t-79.5 -0.5t-79.5 -0.5v15l24 4q25 4 33 16t8 45v313q0 31 -9.5 42.5t-40.5 13.5l-26 2v15l246 37l21 -7q-3 -65 -3 -130v-286q0 -33 8 -45t33 -16l24 -4v-15z" />
    <glyph glyph-name="icircumflex" unicode="&#xee;" horiz-adv-x="339" 
d="M157 675l-130 -97h-5l114 172h68l104 -172h-8zM334 0q-27 0 -79.5 0.5t-79.5 0.5t-79.5 -0.5t-79.5 -0.5v15l24 4q25 4 33 16t8 45v313q0 31 -9.5 42.5t-40.5 13.5l-26 2v15l246 37l21 -7q-3 -65 -3 -130v-286q0 -33 8 -45t33 -16l24 -4v-15z" />
    <glyph glyph-name="idieresis" unicode="&#xef;" horiz-adv-x="339" 
d="M348 672q0 -27 -18.5 -45.5t-46.5 -18.5q-29 0 -47.5 18.5t-18.5 45.5t18.5 46t47.5 19q28 0 46.5 -19t18.5 -46zM123 672q0 -27 -18.5 -45.5t-47.5 -18.5q-28 0 -46.5 18.5t-18.5 45.5t18.5 46t46.5 19q29 0 47.5 -19t18.5 -46zM334 0q-27 0 -79.5 0.5t-79.5 0.5
t-79.5 -0.5t-79.5 -0.5v15l24 4q25 4 33 16t8 45v313q0 31 -9.5 42.5t-40.5 13.5l-26 2v15l246 37l21 -7q-3 -65 -3 -130v-286q0 -33 8 -45t33 -16l24 -4v-15z" />
    <glyph glyph-name="eth" unicode="&#xf0;" horiz-adv-x="579" 
d="M277 -15q-112 0 -184.5 70.5t-72.5 203.5q0 114 68.5 183.5t147.5 69.5q62 0 90.5 -34t36.5 -125q-13 177 -94 279l-140 -58l-13 27l133 55q-57 62 -149 112l6 13q131 -34 226 -91l124 51l13 -26l-107 -44q187 -130 187 -354q0 -71 -16.5 -128.5t-43.5 -95t-63 -62.5
t-73 -35.5t-76 -10.5zM216 244q0 -126 13.5 -183.5t47.5 -57.5q71 0 71 241q0 234 -69 234q-34 0 -48.5 -57t-14.5 -177zM366 292v1v1v-2zM366 256v19v2v-21z" />
    <glyph glyph-name="ntilde" unicode="&#xf1;" horiz-adv-x="648" 
d="M229 610l-3 -2q-17 26 -17 58t18 52t53 20q30 0 76 -26t65 -26q38 0 42 38h4q0 -58 -15 -86.5t-59 -28.5q-27 0 -73 26t-65 26q-29 0 -29 -31q0 -12 3 -20zM643 15v-15q-25 0 -74 0.5t-75 0.5q-25 0 -76 -0.5t-76 -0.5v15l20 5q16 4 21.5 14t5.5 42v292q0 86 -47 86
q-73 0 -73 -172v-206q0 -32 5.5 -42t21.5 -14l20 -5v-15q-25 0 -75.5 0.5t-75.5 0.5t-74.5 -0.5t-74.5 -0.5v15l24 4q25 4 33 16t8 45v310q0 31 -9.5 42.5t-40.5 13.5l-26 2v15l233 40l21 -7q-6 -66 -6 -214q0 115 36.5 171t122.5 56q165 0 165 -184v-245q0 -33 7.5 -45
t33.5 -16z" />
    <glyph glyph-name="ograve" unicode="&#xf2;" horiz-adv-x="562" 
d="M348 578h-6q-61 33 -108.5 78.5t-70.5 90.5v3h118q13 -70 67 -172zM540 248q0 -129 -77.5 -196t-181.5 -67t-181.5 67t-77.5 196q0 65 23 117t61 82.5t82.5 46t92.5 15.5t92.5 -15.5t82.5 -46t61 -82.5t23 -117zM281 3q38 0 50.5 54t12.5 191q0 136 -12.5 190t-50.5 54
t-50.5 -54t-12.5 -190q0 -137 12.5 -191t50.5 -54z" />
    <glyph glyph-name="oacute" unicode="&#xf3;" horiz-adv-x="562" 
d="M231 578h-6q54 102 67 172h118v-3q-23 -45 -70.5 -90.5t-108.5 -78.5zM281 -15q-104 0 -181.5 67t-77.5 196q0 65 23 117t61 82.5t82.5 46t92.5 15.5t92.5 -15.5t82.5 -46t61 -82.5t23 -117q0 -129 -77.5 -196t-181.5 -67zM281 3q38 0 50.5 54t12.5 191q0 136 -12.5 190
t-50.5 54t-50.5 -54t-12.5 -190q0 -137 12.5 -191t50.5 -54z" />
    <glyph glyph-name="ocircumflex" unicode="&#xf4;" horiz-adv-x="562" 
d="M274 675l-130 -97h-5l114 172h68l104 -172h-8zM540 248q0 -129 -77.5 -196t-181.5 -67t-181.5 67t-77.5 196q0 65 23 117t61 82.5t82.5 46t92.5 15.5t92.5 -15.5t82.5 -46t61 -82.5t23 -117zM218 248q0 -137 12.5 -191t50.5 -54t50.5 54t12.5 191q0 136 -12.5 190
t-50.5 54t-50.5 -54t-12.5 -190z" />
    <glyph glyph-name="otilde" unicode="&#xf5;" horiz-adv-x="562" 
d="M176 610l-3 -2q-17 26 -17 58t18 52t53 20q30 0 76 -26t65 -26q38 0 42 38h4q0 -58 -15 -86.5t-59 -28.5q-27 0 -73 26t-65 26q-29 0 -29 -31q0 -12 3 -20zM540 248q0 -129 -77.5 -196t-181.5 -67t-181.5 67t-77.5 196q0 65 23 117t61 82.5t82.5 46t92.5 15.5t92.5 -15.5
t82.5 -46t61 -82.5t23 -117zM281 3q38 0 50.5 54t12.5 191q0 136 -12.5 190t-50.5 54t-50.5 -54t-12.5 -190q0 -137 12.5 -191t50.5 -54z" />
    <glyph glyph-name="odieresis" unicode="&#xf6;" horiz-adv-x="562" 
d="M461 672q0 -27 -18.5 -45.5t-46.5 -18.5q-29 0 -47.5 18.5t-18.5 45.5t18.5 46t47.5 19q28 0 46.5 -19t18.5 -46zM236 672q0 -27 -18.5 -45.5t-47.5 -18.5q-28 0 -46.5 18.5t-18.5 45.5t18.5 46t46.5 19q29 0 47.5 -19t18.5 -46zM281 -15q-104 0 -181.5 67t-77.5 196
q0 65 23 117t61 82.5t82.5 46t92.5 15.5t92.5 -15.5t82.5 -46t61 -82.5t23 -117q0 -129 -77.5 -196t-181.5 -67zM281 3q38 0 50.5 54t12.5 191q0 136 -12.5 190t-50.5 54t-50.5 -54t-12.5 -190q0 -137 12.5 -191t50.5 -54z" />
    <glyph glyph-name="divide" unicode="&#xf7;" horiz-adv-x="550" 
d="M314 417q0 -16 -12.5 -27.5t-26.5 -11.5t-26.5 11.5t-12.5 27.5q0 19 12 29t27 10t27 -10t12 -29zM56 232v38h438v-38h-438zM314 84q0 -16 -12.5 -27.5t-26.5 -11.5t-26.5 11.5t-12.5 27.5q0 19 12 29t27 10t27 -10t12 -29z" />
    <glyph glyph-name="oslash" unicode="&#xf8;" horiz-adv-x="562" 
d="M540 248q0 -129 -77.5 -196t-181.5 -67q-97 0 -168 55l-44 -51l-21 16l46 52q-72 72 -72 191q0 65 23 117t61 82.5t82.5 46t92.5 15.5q92 0 163 -52l43 50l21 -16l-45 -50q77 -72 77 -193zM281 492q-38 0 -50.5 -54t-12.5 -190v-51l124 143q-3 81 -16.5 116.5t-44.5 35.5
zM281 3q38 0 50.5 54t12.5 191v56l-125 -142q3 -85 16.5 -122t45.5 -37z" />
    <glyph glyph-name="ugrave" unicode="&#xf9;" horiz-adv-x="599" 
d="M343 578h-6q-61 33 -108.5 78.5t-70.5 90.5v3h118q13 -70 67 -172zM362 179q0 -101 -36 -147.5t-115 -46.5q-73 0 -117 39t-44 112v279q0 32 -8 44.5t-33 16.5l-24 4v15h256l-3 -81v-311q0 -65 47 -65q28 0 44.5 36t16.5 105v236q0 32 -8.5 44.5t-33.5 16.5l-24 4v15h258
l-4 -89v-326q0 -33 8 -45t33 -16l24 -4v-15h-225l-12 10v169z" />
    <glyph glyph-name="uacute" unicode="&#xfa;" horiz-adv-x="599" 
d="M231 578h-6q54 102 67 172h118v-3q-23 -45 -70.5 -90.5t-108.5 -78.5zM362 179q0 -101 -36 -147.5t-115 -46.5q-73 0 -117 39t-44 112v279q0 32 -8 44.5t-33 16.5l-24 4v15h256l-3 -81v-311q0 -65 47 -65q28 0 44.5 36t16.5 105v236q0 32 -8.5 44.5t-33.5 16.5l-24 4v15
h258l-4 -89v-326q0 -33 8 -45t33 -16l24 -4v-15h-225l-12 10v169z" />
    <glyph glyph-name="ucircumflex" unicode="&#xfb;" horiz-adv-x="599" 
d="M278 675l-130 -97h-5l114 172h68l104 -172h-8zM362 179q0 -101 -36 -147.5t-115 -46.5q-73 0 -117 39t-44 112v279q0 32 -8 44.5t-33 16.5l-24 4v15h256l-3 -81v-311q0 -65 47 -65q28 0 44.5 36t16.5 105v236q0 32 -8.5 44.5t-33.5 16.5l-24 4v15h258l-4 -89v-326
q0 -33 8 -45t33 -16l24 -4v-15h-225l-12 10v169z" />
    <glyph glyph-name="udieresis" unicode="&#xfc;" horiz-adv-x="599" 
d="M465 672q0 -27 -18.5 -45.5t-46.5 -18.5q-29 0 -47.5 18.5t-18.5 45.5t18.5 46t47.5 19q28 0 46.5 -19t18.5 -46zM240 672q0 -27 -18.5 -45.5t-47.5 -18.5q-28 0 -46.5 18.5t-18.5 45.5t18.5 46t46.5 19q29 0 47.5 -19t18.5 -46zM362 179q0 -101 -36 -147.5t-115 -46.5
q-73 0 -117 39t-44 112v279q0 32 -8 44.5t-33 16.5l-24 4v15h256l-3 -81v-311q0 -65 47 -65q28 0 44.5 36t16.5 105v236q0 32 -8.5 44.5t-33.5 16.5l-24 4v15h258l-4 -89v-326q0 -33 8 -45t33 -16l24 -4v-15h-225l-12 10v169z" />
    <glyph glyph-name="yacute" unicode="&#xfd;" horiz-adv-x="563" 
d="M276 578h-6q54 102 67 172h118v-3q-23 -45 -70.5 -90.5t-108.5 -78.5zM295 -42q-47 -114 -86.5 -157t-110.5 -43q-53 0 -83 30.5t-30 75.5q0 42 26 71t75 30q69 1 86 -58q3 -9 4.5 -25t2.5 -20q4 -17 16 -17q34 0 78 125l5 14l-190 405q-22 48 -36.5 65t-40.5 22l-20 4
v15q57 -1 170 -1q112 0 168 1v-15l-23 -4q-48 -9 -24 -65l91 -214l53 135q22 55 22 87q0 41 -64 56l-21 5v15q36 -1 109 -1q72 0 109 1v-15l-10 -3q-45 -14 -69 -43.5t-57 -109.5z" />
    <glyph glyph-name="thorn" unicode="&#xfe;" horiz-adv-x="585" 
d="M293 3q25 0 39.5 16t24.5 72.5t10 159.5q0 94 -7.5 144t-18.5 63.5t-30 13.5q-57 0 -57 -152v-306q14 -11 39 -11zM323 -216v-14q-27 0 -81 0.5t-81 0.5t-80 -0.5t-80 -0.5v14l24 4q25 4 33 16.5t8 45.5v801q0 35 -9.5 46t-46.5 16l-27 4v14l259 46l18 -7q-6 -56 -6 -143
v-18q0 -69 -7.5 -156t-7.5 -133q0 100 26 144.5t91 44.5q37 0 71.5 -13t66 -40.5t50.5 -79t19 -120.5q0 -60 -17.5 -108.5t-44.5 -78t-62.5 -49.5t-68.5 -27.5t-66 -7.5q-26 0 -50 3v-135q0 -36 8.5 -48t35.5 -17z" />
    <glyph glyph-name="ydieresis" unicode="&#xff;" horiz-adv-x="563" 
d="M489 672q0 -27 -18.5 -45.5t-46.5 -18.5q-29 0 -47.5 18.5t-18.5 45.5t18.5 46t47.5 19q28 0 46.5 -19t18.5 -46zM264 672q0 -27 -18.5 -45.5t-47.5 -18.5q-28 0 -46.5 18.5t-18.5 45.5t18.5 46t46.5 19q29 0 47.5 -19t18.5 -46zM295 -42q-47 -114 -86.5 -157t-110.5 -43
q-53 0 -83 30.5t-30 75.5q0 42 26 71t75 30q69 1 86 -58q3 -9 4.5 -25t2.5 -20q4 -17 16 -17q34 0 78 125l5 14l-190 405q-22 48 -36.5 65t-40.5 22l-20 4v15q57 -1 170 -1q112 0 168 1v-15l-23 -4q-48 -9 -24 -65l91 -214l53 135q22 55 22 87q0 41 -64 56l-21 5v15
q36 -1 109 -1q72 0 109 1v-15l-10 -3q-45 -14 -69 -43.5t-57 -109.5z" />
    <glyph glyph-name="Amacron" unicode="&#x100;" horiz-adv-x="734" 
d="M236 765v43q72 -4 139 -4q70 0 140 4v-43q-70 4 -139 4q-68 0 -140 -4zM739 16v-16q-34 0 -100 0.5t-100 0.5t-102.5 -0.5t-102.5 -0.5v16l31 6q34 7 42.5 27t-6.5 77l-23 72h-201q-26 -77 -12 -115t71 -56l34 -11v-16q-23 0 -69.5 0.5t-70.5 0.5t-67.5 -0.5t-67.5 -0.5
v16l24 8q45 15 73.5 53.5t64.5 134.5l108 303l54 164h120l186 -529q25 -74 43 -99t46 -30zM283 502l-98 -281h186z" />
    <glyph glyph-name="amacron" unicode="&#x101;" horiz-adv-x="578" 
d="M140 651v43q72 -4 139 -4q70 0 140 4v-43q-70 4 -139 4q-68 0 -140 -4zM260 25q25 0 40 21t15 64l1 145q-57 -9 -80.5 -42.5t-23.5 -103.5q0 -84 48 -84zM578 156q-1 -97 -28.5 -133t-90.5 -36q-119 0 -130 104q-5 -56 -41.5 -81t-105.5 -25q-83 0 -120.5 36.5
t-37.5 89.5q0 72 64.5 107.5t227.5 48.5v96q0 74 -13.5 103t-54.5 29q-58 0 -58 -32q0 -13 13 -25.5t25.5 -30t12.5 -44.5q0 -41 -25 -64t-67 -23t-68.5 26t-26.5 71q0 59 54 98.5t156 39.5q234 0 234 -195q0 -23 -0.5 -126t-0.5 -116q0 -37 25 -37q35 0 39 119h17z" />
    <glyph glyph-name="Abreve" unicode="&#x102;" horiz-adv-x="734" 
d="M502 872q-15 -125 -130 -125t-130 125h7q9 -22 37 -30.5t86 -8.5t86 8.5t37 30.5h7zM739 16v-16q-34 0 -100 0.5t-100 0.5t-102.5 -0.5t-102.5 -0.5v16l31 6q34 7 42.5 27t-6.5 77l-23 72h-201q-26 -77 -12 -115t71 -56l34 -11v-16q-23 0 -69.5 0.5t-70.5 0.5t-67.5 -0.5
t-67.5 -0.5v16l24 8q45 15 73.5 53.5t64.5 134.5l108 303l54 164h120l186 -529q25 -74 43 -99t46 -30zM283 502l-98 -281h186z" />
    <glyph glyph-name="abreve" unicode="&#x103;" horiz-adv-x="578" 
d="M406 743q-15 -142 -130 -142t-130 142h7q18 -47 123 -47t123 47h7zM260 25q25 0 40 21t15 64l1 145q-57 -9 -80.5 -42.5t-23.5 -103.5q0 -84 48 -84zM329 91q-5 -56 -41.5 -81t-105.5 -25q-83 0 -120.5 36.5t-37.5 89.5q0 72 64.5 107.5t227.5 48.5v96q0 74 -13.5 103
t-54.5 29q-58 0 -58 -32q0 -13 13 -25.5t25.5 -30t12.5 -44.5q0 -41 -25 -64t-67 -23t-68.5 26t-26.5 71q0 59 54 98.5t156 39.5q234 0 234 -195q0 -23 -0.5 -126t-0.5 -116q0 -37 25 -37q35 0 39 119h17q-1 -97 -28.5 -133t-90.5 -36q-119 0 -130 104z" />
    <glyph glyph-name="Aogonek" unicode="&#x104;" horiz-adv-x="734" 
d="M283 502l-98 -281h186zM501 -140q-54 -104 -144 -104q-50 0 -83 22t-33 68q0 70 85 113q52 26 72 46t20 45q0 24 -12 61l-27 87h-202q-26 -77 -12 -115t71 -56l34 -11v-16q-23 0 -69.5 0.5t-70.5 0.5t-67.5 -0.5t-67.5 -0.5v16l24 8q45 15 73.5 53.5t64.5 134.5l108 303
l54 164h120l186 -529q25 -74 43 -99t46 -30l25 -5v-16q-34 0 -111.5 1t-111.5 1q-172 0 -172 -138q0 -66 55 -66q47 0 86 70z" />
    <glyph glyph-name="aogonek" unicode="&#x105;" horiz-adv-x="578" 
d="M428 -244q-51 0 -84 22t-33 63q0 33 29.5 64t61 49.5t78.5 41.5q7 3 11 5q-25 -10 -46 -10q-106 0 -116 100q-5 -56 -41.5 -81t-105.5 -25q-83 0 -120.5 36.5t-37.5 89.5q0 72 64.5 107.5t227.5 48.5v96q0 75 -13.5 103.5t-53.5 28.5q-59 0 -59 -32q0 -13 13 -25.5
t25.5 -30t12.5 -44.5q0 -41 -25 -64t-67 -23t-68.5 26t-26.5 71q0 59 54 98.5t156 39.5q234 0 234 -195q0 -23 -0.5 -126t-0.5 -116q0 -37 25 -37q35 0 39 119h17q0 -104 -35 -139q-10 -10 -40.5 -26.5t-50.5 -36.5q-38 -38 -38 -97q0 -29 15 -44t37 -15q48 0 87 70l16 -8
q-54 -104 -141 -104zM260 25q25 0 40 21t15 64l1 145q-57 -9 -80.5 -42.5t-23.5 -103.5q0 -84 48 -84z" />
    <glyph glyph-name="Cacute" unicode="&#x106;" horiz-adv-x="694" 
d="M319 747h-7q36 61 53 125h149v-3q-28 -33 -85 -68t-110 -54zM611 -12l-52 57q-70 -64 -161 -64q-160 0 -265.5 99t-105.5 259q0 159 106 259t259 100q97 0 167 -64l52 56h8v-295h-16q-19 53 -33 88t-34.5 76t-40 64.5t-45.5 39.5t-55 16q-136 0 -136 -340
q0 -169 32.5 -254t107.5 -85q26 0 49.5 14t42.5 36t39.5 60.5t36 74t36.5 90.5h16v-287h-8z" />
    <glyph glyph-name="cacute" unicode="&#x107;" horiz-adv-x="527" 
d="M227 578h-6q54 102 67 172h118v-3q-23 -45 -70.5 -90.5t-108.5 -78.5zM497 123q-76 -139 -217 -139q-113 0 -185.5 66t-72.5 191t77 197t197 72q91 0 143.5 -38t52.5 -102q0 -48 -31 -80t-77 -32q-45 0 -73 25.5t-28 67.5q0 30 13.5 51t30 29t30 17.5t13.5 18.5
q0 10 -13 18t-38 8q-101 0 -101 -243q0 -213 121 -213q85 0 143 95z" />
    <glyph glyph-name="Ccircumflex" unicode="&#x108;" horiz-adv-x="694" 
d="M345 814l-124 -67h-7l107 125h84l103 -125h-9zM611 -12l-52 57q-70 -64 -161 -64q-160 0 -265.5 99t-105.5 259q0 159 106 259t259 100q97 0 167 -64l52 56h8v-295h-16q-19 53 -33 88t-34.5 76t-40 64.5t-45.5 39.5t-55 16q-136 0 -136 -340q0 -169 32.5 -254t107.5 -85
q26 0 49.5 14t42.5 36t39.5 60.5t36 74t36.5 90.5h16v-287h-8z" />
    <glyph glyph-name="ccircumflex" unicode="&#x109;" horiz-adv-x="527" 
d="M269 675l-130 -97h-5l114 172h68l104 -172h-8zM497 123q-76 -139 -217 -139q-113 0 -185.5 66t-72.5 191t77 197t197 72q91 0 143.5 -38t52.5 -102q0 -48 -31 -80t-77 -32q-45 0 -73 25.5t-28 67.5q0 30 13.5 51t30 29t30 17.5t13.5 18.5q0 10 -13 18t-38 8
q-101 0 -101 -243q0 -213 121 -213q85 0 143 95z" />
    <glyph glyph-name="Cdotaccent" unicode="&#x10a;" horiz-adv-x="694" 
d="M449 811q0 -27 -18.5 -45.5t-46.5 -18.5q-29 0 -47.5 18.5t-18.5 45.5t18.5 46t47.5 19q28 0 46.5 -19t18.5 -46zM611 -12l-52 57q-70 -64 -161 -64q-160 0 -265.5 99t-105.5 259q0 159 106 259t259 100q97 0 167 -64l52 56h8v-295h-16q-19 53 -33 88t-34.5 76t-40 64.5
t-45.5 39.5t-55 16q-136 0 -136 -340q0 -169 32.5 -254t107.5 -85q26 0 49.5 14t42.5 36t39.5 60.5t36 74t36.5 90.5h16v-287h-8z" />
    <glyph glyph-name="cdotaccent" unicode="&#x10b;" horiz-adv-x="527" 
d="M354 672q0 -27 -18.5 -45.5t-46.5 -18.5q-29 0 -47.5 18.5t-18.5 45.5t18.5 46t47.5 19q28 0 46.5 -19t18.5 -46zM497 123q-76 -139 -217 -139q-113 0 -185.5 66t-72.5 191t77 197t197 72q91 0 143.5 -38t52.5 -102q0 -48 -31 -80t-77 -32q-45 0 -73 25.5t-28 67.5
q0 30 13.5 51t30 29t30 17.5t13.5 18.5q0 10 -13 18t-38 8q-101 0 -101 -243q0 -213 121 -213q85 0 143 95z" />
    <glyph glyph-name="Ccaron" unicode="&#x10c;" horiz-adv-x="694" 
d="M417 747h-84l-103 125h9l154 -67l124 67h7zM611 -12l-52 57q-70 -64 -161 -64q-160 0 -265.5 99t-105.5 259q0 159 106 259t259 100q97 0 167 -64l52 56h8v-295h-16q-19 53 -33 88t-34.5 76t-40 64.5t-45.5 39.5t-55 16q-136 0 -136 -340q0 -169 32.5 -254t107.5 -85
q26 0 49.5 14t42.5 36t39.5 60.5t36 74t36.5 90.5h16v-287h-8z" />
    <glyph glyph-name="ccaron" unicode="&#x10d;" horiz-adv-x="527" 
d="M309 578h-68l-104 172h8l143 -97l130 97h5zM497 123q-76 -139 -217 -139q-113 0 -185.5 66t-72.5 191t77 197t197 72q91 0 143.5 -38t52.5 -102q0 -48 -31 -80t-77 -32q-45 0 -73 25.5t-28 67.5q0 30 13.5 51t30 29t30 17.5t13.5 18.5q0 10 -13 18t-38 8
q-101 0 -101 -243q0 -213 121 -213q85 0 143 95z" />
    <glyph glyph-name="Dcaron" unicode="&#x10e;" horiz-adv-x="780" 
d="M430 747h-84l-103 125h9l154 -67l124 67h7zM15 0v16l35 7q38 7 49 22t11 55v479q0 40 -11 55t-49 22l-35 7v16h365q176 0 274.5 -83t98.5 -256q0 -171 -101 -255.5t-267 -84.5h-370zM372 19h15q134 0 134 321q0 158 -33 239t-108 81h-52v-590q0 -51 44 -51z" />
    <glyph glyph-name="dcaron" unicode="&#x10f;" horiz-adv-x="616" 
d="M585 461l-10 16q31 18 50 46t18 57q-10 -28 -43 -28q-25 0 -39.5 16t-14.5 41q0 27 17.5 45t44.5 18q29 0 45 -19.5t16 -50.5q0 -47 -24.5 -83.5t-59.5 -57.5zM273 22q58 0 58 165v291q-13 13 -41 13q-40 0 -56 -54t-16 -193q0 -131 11 -176.5t44 -45.5zM346 187
q0 -112 -27 -157t-98 -45q-83 0 -141 63.5t-58 195.5q0 71 24.5 124.5t64.5 83t84 43.5t90 14q26 0 46 -4v146q0 33 -13.5 45t-53.5 17l-28 4v14l271 47l18 -7q-6 -56 -6 -144v-547q0 -32 8 -44.5t34 -16.5l25 -4v-15h-226l-13 10q0 30 -0.5 87t-0.5 90z" />
    <glyph glyph-name="Dcroat" unicode="&#x110;" horiz-adv-x="780" 
d="M110 356v223q0 40 -11 55t-49 22l-35 7v16h365q176 0 274.5 -83t98.5 -256q0 -171 -101 -255.5t-267 -84.5h-370v16l35 7q38 7 49 22t11 55v222h-72v34h72zM372 19h15q134 0 134 321q0 158 -33 239t-108 81h-52v-307h105v-28h-105v-255q0 -51 44 -51z" />
    <glyph glyph-name="dcroat" unicode="&#x111;" horiz-adv-x="589" 
d="M519 623h70v-31h-70v-512q0 -32 8 -44.5t34 -16.5l25 -4v-15h-226l-13 10q0 30 -0.5 87t-0.5 90q0 -112 -27 -157t-98 -45q-83 0 -141 63.5t-58 195.5q0 71 24.5 124.5t64.5 83t84 43.5t90 14q26 0 46 -4v87h-122v31h122v28q0 33 -13.5 45t-53.5 17l-28 4v14l271 47
l18 -7q-6 -56 -6 -144v-4zM273 22q58 0 58 165v291q-13 13 -41 13q-40 0 -56 -54t-16 -193q0 -131 11 -176.5t44 -45.5z" />
    <glyph glyph-name="Emacron" unicode="&#x112;" horiz-adv-x="689" 
d="M211 765v43q72 -4 139 -4q70 0 140 4v-43q-70 4 -139 4q-68 0 -140 -4zM644 255v-255h-629v16l35 7q38 7 49 22t11 55v479q0 40 -11 55t-49 22l-35 7v16h606v-251h-21q-87 232 -220 232h-52v-301h6q44 0 74.5 35.5t62.5 128.5h14q-1 -58 -1 -175t1 -176h-14
q-31 97 -61.5 132.5t-76.5 35.5h-5v-270q0 -51 44 -51h12q150 0 241 236h19z" />
    <glyph glyph-name="emacron" unicode="&#x113;" horiz-adv-x="523" 
d="M133 651v43q72 -4 139 -4q70 0 140 4v-43q-70 4 -139 4q-68 0 -140 -4zM497 123q-76 -139 -216 -139q-117 0 -188 67.5t-71 194.5q0 128 75.5 195.5t181.5 67.5q109 0 164.5 -53t55.5 -151q0 -27 -1 -34h-280v-21q0 -213 121 -213q85 0 143 95zM325 299l1 26
q4 167 -48 167q-30 0 -44 -44t-16 -158z" />
    <glyph glyph-name="Ebreve" unicode="&#x114;" horiz-adv-x="689" 
d="M480 872q-15 -125 -130 -125t-130 125h7q9 -22 37 -30.5t86 -8.5t86 8.5t37 30.5h7zM644 255v-255h-629v16l35 7q38 7 49 22t11 55v479q0 40 -11 55t-49 22l-35 7v16h606v-251h-21q-87 232 -220 232h-52v-301h6q44 0 74.5 35.5t62.5 128.5h14q-1 -58 -1 -175t1 -176h-14
q-31 97 -61.5 132.5t-76.5 35.5h-5v-270q0 -51 44 -51h12q150 0 241 236h19z" />
    <glyph glyph-name="ebreve" unicode="&#x115;" horiz-adv-x="523" 
d="M402 743q-15 -142 -130 -142t-130 142h7q18 -47 123 -47t123 47h7zM497 123q-76 -139 -216 -139q-117 0 -188 67.5t-71 194.5q0 128 75.5 195.5t181.5 67.5q109 0 164.5 -53t55.5 -151q0 -27 -1 -34h-280v-21q0 -213 121 -213q85 0 143 95zM325 299l1 26q4 167 -48 167
q-30 0 -44 -44t-16 -158z" />
    <glyph glyph-name="Edotaccent" unicode="&#x116;" horiz-adv-x="689" 
d="M428 811q0 -27 -18.5 -45.5t-46.5 -18.5q-29 0 -47.5 18.5t-18.5 45.5t18.5 46t47.5 19q28 0 46.5 -19t18.5 -46zM644 255v-255h-629v16l35 7q38 7 49 22t11 55v479q0 40 -11 55t-49 22l-35 7v16h606v-251h-21q-87 232 -220 232h-52v-301h6q44 0 74.5 35.5t62.5 128.5h14
q-1 -58 -1 -175t1 -176h-14q-31 97 -61.5 132.5t-76.5 35.5h-5v-270q0 -51 44 -51h12q150 0 241 236h19z" />
    <glyph glyph-name="edotaccent" unicode="&#x117;" horiz-adv-x="523" 
d="M350 672q0 -27 -18.5 -45.5t-46.5 -18.5q-29 0 -47.5 18.5t-18.5 45.5t18.5 46t47.5 19q28 0 46.5 -19t18.5 -46zM325 299l1 26q4 167 -48 167q-30 0 -44 -44t-16 -158zM497 123q-76 -139 -216 -139q-117 0 -188 67.5t-71 194.5q0 128 75.5 195.5t181.5 67.5
q109 0 164.5 -53t55.5 -151q0 -27 -1 -34h-280v-21q0 -213 121 -213q85 0 143 95z" />
    <glyph glyph-name="Eogonek" unicode="&#x118;" horiz-adv-x="689" 
d="M658 -140q-54 -104 -141 -104q-51 0 -84 22t-33 63q0 80 105 132q77 38 137 38q-27 0 -96.5 -5.5t-106.5 -5.5h-424v16l35 7q38 7 49 22t11 55v479q0 40 -11 55t-49 22l-35 7v16h606v-251h-21q-87 232 -220 232h-52v-301h6q44 0 74.5 35.5t62.5 128.5h14q-1 -58 -1 -175
t1 -176h-14q-31 97 -61.5 132.5t-76.5 35.5h-5v-270q0 -51 44 -51h12q150 0 241 236h19v-255q-65 0 -103 -40t-38 -103q0 -29 15 -44t37 -15q48 0 87 70z" />
    <glyph glyph-name="eogonek" unicode="&#x119;" horiz-adv-x="523" 
d="M325 299l1 26q4 167 -48 167q-30 0 -44 -44t-16 -158zM479 -140q-54 -104 -141 -104q-51 0 -84.5 22t-33.5 63q0 39 25.5 67.5t81.5 67.5q1 1 28 19.5t44 31.5q-59 -39 -121 -39q-114 0 -185 66t-71 192q0 128 75.5 195.5t181.5 67.5q109 0 164.5 -53t55.5 -151
q0 -27 -1 -34h-280v-21q0 -213 121 -213q85 0 143 95l15 -9q-23 -43 -55 -75q-10 -11 -33 -32t-34 -33.5t-25.5 -32t-20.5 -40.5t-6 -47q0 -32 15 -48.5t38 -16.5q48 0 87 70z" />
    <glyph glyph-name="Ecaron" unicode="&#x11a;" horiz-adv-x="689" 
d="M395 747h-84l-103 125h9l154 -67l124 67h7zM644 255v-255h-629v16l35 7q38 7 49 22t11 55v479q0 40 -11 55t-49 22l-35 7v16h606v-251h-21q-87 232 -220 232h-52v-301h6q44 0 74.5 35.5t62.5 128.5h14q-1 -58 -1 -175t1 -176h-14q-31 97 -61.5 132.5t-76.5 35.5h-5v-270
q0 -51 44 -51h12q150 0 241 236h19z" />
    <glyph glyph-name="ecaron" unicode="&#x11b;" horiz-adv-x="523" 
d="M304 578h-68l-104 172h8l143 -97l130 97h5zM497 123q-76 -139 -216 -139q-117 0 -188 67.5t-71 194.5q0 128 75.5 195.5t181.5 67.5q109 0 164.5 -53t55.5 -151q0 -27 -1 -34h-280v-21q0 -213 121 -213q85 0 143 95zM325 299l1 26q4 167 -48 167q-30 0 -44 -44t-16 -158z
" />
    <glyph glyph-name="Gcircumflex" unicode="&#x11c;" horiz-adv-x="734" 
d="M355 814l-124 -67h-7l107 125h84l103 -125h-9zM554 59q-33 -37 -83.5 -57.5t-100.5 -20.5q-142 0 -242.5 100t-100.5 258q0 159 109.5 259t266.5 100q100 0 169 -64l51 56h8v-285h-16q-25 64 -43 103.5t-44.5 83.5t-57.5 65.5t-66 21.5q-71 0 -108 -88.5t-37 -251.5
q0 -171 26 -255t90 -84q73 0 73 85v133q0 40 -12 55t-53 22l-37 7v16q63 -1 190 -1t190 1v-16l-32 -7q-37 -8 -47 -22.5t-10 -54.5v-103l6 -128h-10z" />
    <glyph glyph-name="gcircumflex" unicode="&#x11d;" horiz-adv-x="577" 
d="M411 578l-143 97l-130 -97h-5l114 172h68l104 -172h-8zM194 332q0 -86 11.5 -122.5t41.5 -36.5q31 0 42 35.5t11 123.5t-11 124t-42 36q-30 0 -41.5 -37t-11.5 -123zM274 -244q-127 0 -199 29t-72 88q0 30 20 49t54 19q27 0 41 -13.5t13 -38.5q-32 -8 -32 -43
q0 -72 173 -72q87 0 138 23t51 56t-35.5 45.5t-132.5 17.5q-130 6 -188.5 39t-58.5 97q0 115 170 115h22q-106 0 -161.5 44.5t-55.5 121.5q0 84 60.5 130t154.5 46q84 0 145 -42q54 54 118 54q42 0 67.5 -21.5t25.5 -57.5q0 -32 -20 -51.5t-50 -19.5t-46.5 17t-16.5 43
q0 12 3 26t3 18q0 10 -12 10q-20 0 -56 -30q63 -52 63 -133q0 -83 -63 -125t-163 -42q-53 0 -72.5 -6t-19.5 -20t30.5 -19t142.5 -10q136 -6 187.5 -46.5t51.5 -113.5q0 -93 -74.5 -138.5t-205.5 -45.5z" />
    <glyph glyph-name="Gbreve" unicode="&#x11e;" horiz-adv-x="734" 
d="M512 872q-15 -125 -130 -125t-130 125h7q9 -22 37 -30.5t86 -8.5t86 8.5t37 30.5h7zM633 -13l-79 72q-33 -37 -83.5 -57.5t-100.5 -20.5q-142 0 -242.5 100t-100.5 258q0 159 109.5 259t266.5 100q100 0 169 -64l51 56h8v-285h-16q-25 64 -43 103.5t-44.5 83.5
t-57.5 65.5t-66 21.5q-71 0 -108 -88.5t-37 -251.5q0 -171 26 -255t90 -84q73 0 73 85v133q0 40 -12 55t-53 22l-37 7v16q63 -1 190 -1t190 1v-16l-32 -7q-37 -8 -47 -22.5t-10 -54.5v-103l6 -128h-10z" />
    <glyph glyph-name="gbreve" unicode="&#x11f;" horiz-adv-x="577" 
d="M393 743q-15 -142 -130 -142t-130 142h7q18 -47 123 -47t123 47h7zM194 332q0 -86 11.5 -122.5t41.5 -36.5q31 0 42 35.5t11 123.5t-11 124t-42 36q-30 0 -41.5 -37t-11.5 -123zM274 -244q-127 0 -199 29t-72 88q0 30 20 49t54 19q27 0 41 -13.5t13 -38.5q-32 -8 -32 -43
q0 -72 173 -72q87 0 138 23t51 56t-35.5 45.5t-132.5 17.5q-130 6 -188.5 39t-58.5 97q0 115 170 115h22q-106 0 -161.5 44.5t-55.5 121.5q0 84 60.5 130t154.5 46q84 0 145 -42q54 54 118 54q42 0 67.5 -21.5t25.5 -57.5q0 -32 -20 -51.5t-50 -19.5t-46.5 17t-16.5 43
q0 12 3 26t3 18q0 10 -12 10q-20 0 -56 -30q63 -52 63 -133q0 -83 -63 -125t-163 -42q-53 0 -72.5 -6t-19.5 -20t30.5 -19t142.5 -10q136 -6 187.5 -46.5t51.5 -113.5q0 -93 -74.5 -138.5t-205.5 -45.5z" />
    <glyph glyph-name="Gdotaccent" unicode="&#x120;" horiz-adv-x="734" 
d="M446 811q0 -27 -18.5 -45.5t-46.5 -18.5q-29 0 -47.5 18.5t-18.5 45.5t18.5 46t47.5 19q28 0 46.5 -19t18.5 -46zM554 59q-33 -37 -83.5 -57.5t-100.5 -20.5q-142 0 -242.5 100t-100.5 258q0 159 109.5 259t266.5 100q100 0 169 -64l51 56h8v-285h-16q-25 64 -43 103.5
t-44.5 83.5t-57.5 65.5t-66 21.5q-71 0 -108 -88.5t-37 -251.5q0 -171 26 -255t90 -84q73 0 73 85v133q0 40 -12 55t-53 22l-37 7v16q63 -1 190 -1t190 1v-16l-32 -7q-37 -8 -47 -22.5t-10 -54.5v-103l6 -128h-10z" />
    <glyph glyph-name="gdotaccent" unicode="&#x121;" horiz-adv-x="577" 
d="M341 672q0 -27 -18.5 -45.5t-46.5 -18.5q-29 0 -47.5 18.5t-18.5 45.5t18.5 46t47.5 19q28 0 46.5 -19t18.5 -46zM194 332q0 -86 11.5 -122.5t41.5 -36.5q31 0 42 35.5t11 123.5t-11 124t-42 36q-30 0 -41.5 -37t-11.5 -123zM274 -244q-127 0 -199 29t-72 88q0 30 20 49
t54 19q27 0 41 -13.5t13 -38.5q-32 -8 -32 -43q0 -72 173 -72q87 0 138 23t51 56t-35.5 45.5t-132.5 17.5q-130 6 -188.5 39t-58.5 97q0 115 170 115h22q-106 0 -161.5 44.5t-55.5 121.5q0 84 60.5 130t154.5 46q84 0 145 -42q54 54 118 54q42 0 67.5 -21.5t25.5 -57.5
q0 -32 -20 -51.5t-50 -19.5t-46.5 17t-16.5 43q0 12 3 26t3 18q0 10 -12 10q-20 0 -56 -30q63 -52 63 -133q0 -83 -63 -125t-163 -42q-53 0 -72.5 -6t-19.5 -20t30.5 -19t142.5 -10q136 -6 187.5 -46.5t51.5 -113.5q0 -93 -74.5 -138.5t-205.5 -45.5z" />
    <glyph glyph-name="Gcommaaccent" unicode="&#x122;" horiz-adv-x="734" 
d="M633 -13l-79 72q-33 -37 -83.5 -57.5t-100.5 -20.5q-142 0 -242.5 100t-100.5 258q0 159 109.5 259t266.5 100q100 0 169 -64l51 56h8v-285h-16q-25 64 -43 103.5t-44.5 83.5t-57.5 65.5t-66 21.5q-71 0 -108 -88.5t-37 -251.5q0 -171 26 -255t90 -84q73 0 73 85v133
q0 40 -12 55t-53 22l-37 7v16q63 -1 190 -1t190 1v-16l-32 -7q-37 -8 -47 -22.5t-10 -54.5v-103l6 -128h-10zM345 -264l-11 16q33 18 53 46t19 57q-12 -28 -46 -28q-26 0 -41.5 16t-15.5 41q0 27 18.5 45t47.5 18q30 0 47 -19.5t17 -50.5q0 -47 -25.5 -83.5t-62.5 -57.5z
" />
    <glyph glyph-name="gcommaaccent" unicode="&#x123;" horiz-adv-x="577" 
d="M294 786l11 -16q-33 -18 -53 -46t-19 -57q12 28 46 28q26 0 41.5 -16t15.5 -41q0 -27 -18.5 -45t-47.5 -18q-30 0 -47 19.5t-17 50.5q0 47 25.5 83.5t62.5 57.5zM247 173q31 0 42 35.5t11 123.5t-11 124t-42 36q-30 0 -41.5 -37t-11.5 -123t11.5 -122.5t41.5 -36.5z
M274 -244q-127 0 -199 29t-72 88q0 30 20 49t54 19q27 0 41 -13.5t13 -38.5q-32 -8 -32 -43q0 -72 173 -72q87 0 138 23t51 56t-35.5 45.5t-132.5 17.5q-130 6 -188.5 39t-58.5 97q0 115 170 115h22q-106 0 -161.5 44.5t-55.5 121.5q0 84 60.5 130t154.5 46q84 0 145 -42
q54 54 118 54q42 0 67.5 -21.5t25.5 -57.5q0 -32 -20 -51.5t-50 -19.5t-46.5 17t-16.5 43q0 12 3 26t3 18q0 10 -12 10q-20 0 -56 -30q63 -52 63 -133q0 -83 -63 -125t-163 -42q-53 0 -72.5 -6t-19.5 -20t30.5 -19t142.5 -10q136 -6 187.5 -46.5t51.5 -113.5
q0 -93 -74.5 -138.5t-205.5 -45.5z" />
    <glyph glyph-name="Hcircumflex" unicode="&#x124;" horiz-adv-x="855" 
d="M564 747l-154 67l-124 -67h-7l107 125h84l103 -125h-9zM840 16v-16q-33 0 -99.5 0.5t-99.5 0.5t-98 -0.5t-99 -0.5v16l30 7q33 7 42.5 22.5t9.5 54.5v236h-197v-236q0 -40 9.5 -54.5t42.5 -22.5l30 -7v-16q-33 0 -98 0.5t-98 0.5t-99.5 -0.5t-100.5 -0.5v16l35 7
q38 7 49 22t11 55v479q0 40 -11 55t-49 22l-35 7v16q67 -1 200 -1q130 0 196 1v-16l-30 -7q-33 -8 -42.5 -22.5t-9.5 -54.5v-220h197v219q0 41 -9.5 55.5t-42.5 22.5l-30 7v16q67 -1 197 -1q133 0 199 1v-16l-35 -7q-38 -7 -49 -22t-11 -55v-479q0 -40 11 -55t49 -22z" />
    <glyph glyph-name="hcircumflex" unicode="&#x125;" horiz-adv-x="653" 
d="M173 864l-124 -67h-7l107 125h84l103 -125h-9zM648 15v-15q-26 0 -75 0.5t-74 0.5t-75.5 -0.5t-76.5 -0.5v15l20 5q16 4 21.5 14t5.5 42v292q0 86 -47 86q-34 0 -53.5 -44t-19.5 -128v-206q0 -32 5.5 -42t21.5 -14l20 -5v-15q-25 0 -75.5 0.5t-75.5 0.5t-74.5 -0.5
t-74.5 -0.5v15l24 4q25 4 33 16t8 45v571q0 35 -9.5 46t-46.5 16l-27 4v14l259 46l18 -7q-6 -56 -6 -143v-28q0 -95 -8 -186t-8 -131q0 115 37.5 171t125.5 56q161 0 161 -184v-245q0 -33 7.5 -45t33.5 -16z" />
    <glyph glyph-name="Hbar" unicode="&#x126;" horiz-adv-x="855" 
d="M526 359v126h-197v-126h197zM840 16v-16q-33 0 -99.5 0.5t-99.5 0.5t-98 -0.5t-99 -0.5v16l30 7q33 7 42.5 22.5t9.5 54.5v236h-197v-236q0 -40 9.5 -54.5t42.5 -22.5l30 -7v-16q-33 0 -98 0.5t-98 0.5t-99.5 -0.5t-100.5 -0.5v16l35 7q38 7 49 22t11 55v382h-71v34h71
v63q0 40 -11 55t-49 22l-35 7v16q67 -1 200 -1q130 0 196 1v-16l-30 -7q-33 -8 -42.5 -22.5t-9.5 -54.5v-66h197v65q0 41 -9.5 55.5t-42.5 22.5l-30 7v16q67 -1 197 -1q133 0 199 1v-16l-35 -7q-38 -7 -49 -22t-11 -55v-63h70v-34h-70v-382q0 -40 11 -55t49 -22z" />
    <glyph glyph-name="hbar" unicode="&#x127;" horiz-adv-x="653" 
d="M86 623v28q0 35 -9.5 46t-46.5 16l-27 4v14l259 46l18 -7q-6 -56 -6 -143v-4h122v-31l-122 -6q-1 -87 -8.5 -174.5t-7.5 -129.5q0 115 37.5 171t125.5 56q161 0 161 -184v-245q0 -33 7.5 -45t33.5 -16l25 -4v-15q-26 0 -75 0.5t-74 0.5t-75.5 -0.5t-76.5 -0.5v15l20 5
q16 4 21.5 14t5.5 42v292q0 86 -47 86q-34 0 -53.5 -44t-19.5 -128v-206q0 -32 5.5 -42t21.5 -14l20 -5v-15q-25 0 -75.5 0.5t-75.5 0.5t-74.5 -0.5t-74.5 -0.5v15l24 4q25 4 33 16t8 45v512h-70v31h70z" />
    <glyph glyph-name="Itilde" unicode="&#x128;" horiz-adv-x="441" 
d="M112 748l-3 -2q-17 26 -17 58t18 52t53 20q30 0 76 -26t65 -26q38 0 42 38h4q0 -58 -15 -86.5t-59 -28.5q-27 0 -73 26t-65 26q-29 0 -29 -31q0 -12 3 -20zM425 16v-16q-34 0 -102 0.5t-102 0.5t-102.5 -0.5t-102.5 -0.5v16l35 7q38 7 49 22t11 55v479q0 40 -11 55
t-49 22l-35 7v16q68 -1 205 -1q136 0 204 1v-16l-35 -7q-38 -7 -49 -22t-11 -55v-479q0 -40 11 -55t49 -22z" />
    <glyph glyph-name="itilde" unicode="&#x129;" horiz-adv-x="339" 
d="M61 610l-3 -2q-17 26 -17 58t18 52t53 20q30 0 76 -26t65 -26q38 0 42 38h4q0 -58 -15 -86.5t-59 -28.5q-27 0 -73 26t-65 26q-29 0 -29 -31q0 -12 3 -20zM16 0v15l24 4q25 4 33 16t8 45v313q0 31 -9.5 42.5t-40.5 13.5l-26 2v15l246 37l21 -7q-3 -65 -3 -130v-286
q0 -33 8 -45t33 -16l24 -4v-15q-27 0 -79.5 0.5t-79.5 0.5t-79.5 -0.5t-79.5 -0.5z" />
    <glyph glyph-name="Imacron" unicode="&#x12a;" horiz-adv-x="441" 
d="M80 765v43q72 -4 139 -4q70 0 140 4v-43q-70 4 -139 4q-68 0 -140 -4zM425 16v-16q-34 0 -102 0.5t-102 0.5t-102.5 -0.5t-102.5 -0.5v16l35 7q38 7 49 22t11 55v479q0 40 -11 55t-49 22l-35 7v16q68 -1 205 -1q136 0 204 1v-16l-35 -7q-38 -7 -49 -22t-11 -55v-479
q0 -40 11 -55t49 -22z" />
    <glyph glyph-name="imacron" unicode="&#x12b;" horiz-adv-x="339" 
d="M30 651v43q72 -4 139 -4q70 0 140 4v-43q-70 4 -139 4q-68 0 -140 -4zM16 0v15l24 4q25 4 33 16t8 45v313q0 31 -9.5 42.5t-40.5 13.5l-26 2v15l246 37l21 -7q-3 -65 -3 -130v-286q0 -33 8 -45t33 -16l24 -4v-15q-27 0 -79.5 0.5t-79.5 0.5t-79.5 -0.5t-79.5 -0.5z" />
    <glyph glyph-name="Ibreve" unicode="&#x12c;" horiz-adv-x="441" 
d="M353 872q-15 -125 -130 -125t-130 125h7q9 -22 37 -30.5t86 -8.5t86 8.5t37 30.5h7zM425 16v-16q-34 0 -102 0.5t-102 0.5t-102.5 -0.5t-102.5 -0.5v16l35 7q38 7 49 22t11 55v479q0 40 -11 55t-49 22l-35 7v16q68 -1 205 -1q136 0 204 1v-16l-35 -7q-38 -7 -49 -22
t-11 -55v-479q0 -40 11 -55t49 -22z" />
    <glyph glyph-name="ibreve" unicode="&#x12d;" horiz-adv-x="339" 
d="M305 743q-15 -142 -130 -142t-130 142h7q18 -47 123 -47t123 47h7zM16 0v15l24 4q25 4 33 16t8 45v313q0 31 -9.5 42.5t-40.5 13.5l-26 2v15l246 37l21 -7q-3 -65 -3 -130v-286q0 -33 8 -45t33 -16l24 -4v-15q-27 0 -79.5 0.5t-79.5 0.5t-79.5 -0.5t-79.5 -0.5z" />
    <glyph glyph-name="Iogonek" unicode="&#x12e;" horiz-adv-x="441" 
d="M298 -244q-51 0 -84 22t-33 63q0 80 105 132q58 28 104 35q-94 -7 -169 -7q-34 0 -102.5 -0.5t-102.5 -0.5v16l35 7q38 7 49 22t11 55v479q0 40 -11 55t-49 22l-35 7v16q68 -1 205 -1q136 0 204 1v-16l-35 -7q-38 -7 -49 -22t-11 -55v-479q0 -40 11 -55t49 -22l35 -7v-16
q-65 0 -103 -40t-38 -103q0 -29 15 -44t37 -15q48 0 87 70l16 -8q-54 -104 -141 -104z" />
    <glyph glyph-name="iogonek" unicode="&#x12f;" horiz-adv-x="339" 
d="M279 665q0 -47 -32 -76t-82 -29q-49 0 -79.5 29t-30.5 76t31 75t80 28q50 0 81.5 -28t31.5 -75zM207 -244q-51 0 -84 22t-33 63q0 80 105 132q51 25 97 34q-120 -6 -127 -6q-21 0 -71 -0.5t-78 -0.5v15l24 4q25 4 33 16t8 45v313q0 31 -9.5 42.5t-40.5 13.5l-26 2v15
l246 37l21 -7q-3 -65 -3 -130v-286q0 -33 8 -45t33 -16l24 -4v-15q-65 0 -103 -40t-38 -103q0 -29 15 -44t37 -15q48 0 87 70l16 -8q-54 -104 -141 -104z" />
    <glyph glyph-name="Idotaccent" unicode="&#x130;" horiz-adv-x="441" 
d="M285 811q0 -27 -18.5 -45.5t-46.5 -18.5q-29 0 -47.5 18.5t-18.5 45.5t18.5 46t47.5 19q28 0 46.5 -19t18.5 -46zM425 16v-16q-34 0 -102 0.5t-102 0.5t-102.5 -0.5t-102.5 -0.5v16l35 7q38 7 49 22t11 55v479q0 40 -11 55t-49 22l-35 7v16q68 -1 205 -1q136 0 204 1v-16
l-35 -7q-38 -7 -49 -22t-11 -55v-479q0 -40 11 -55t49 -22z" />
    <glyph glyph-name="dotlessi" unicode="&#x131;" horiz-adv-x="339" 
d="M16 0v15l24 4q25 4 33 16t8 45v313q0 31 -9.5 42.5t-40.5 13.5l-26 2v15l246 37l21 -7q-3 -65 -3 -130v-286q0 -33 8 -45t33 -16l24 -4v-15q-27 0 -79.5 0.5t-79.5 0.5t-79.5 -0.5t-79.5 -0.5z" />
    <glyph glyph-name="Jcircumflex" unicode="&#x134;" horiz-adv-x="597" 
d="M373 814l-124 -67h-7l107 125h84l103 -125h-9zM507 295q0 -74 -30 -134.5t-78.5 -98t-106 -57.5t-115.5 -20q-86 0 -139 43t-53 115q0 58 36.5 95.5t94.5 37.5q51 0 83 -31.5t32 -80.5q0 -87 -81 -110q-26 -8 -26 -23q0 -27 48 -27q53 0 85.5 39.5t32.5 115.5v415
q0 41 -13 58t-55 24l-40 7v16q70 -1 210 -1t210 1v-16l-35 -7q-38 -7 -49 -22t-11 -55v-284z" />
    <glyph glyph-name="jcircumflex" unicode="&#x135;" horiz-adv-x="366" 
d="M203 675l-130 -97h-5l114 172h68l104 -172h-8zM308 50q0 -153 -72.5 -224t-199.5 -71q-73 0 -112.5 32.5t-39.5 83.5q0 46 29.5 74.5t72.5 28.5q42 0 68 -24.5t26 -64.5q0 -25 -8.5 -43t-19 -25t-19 -15t-8.5 -16q0 -14 21 -14q30 0 53 34t23 100v484q0 32 -11 44.5
t-42 14.5l-26 2v15l247 37l21 -7q-3 -65 -3 -130v-316z" />
    <glyph glyph-name="Kcommaaccent" unicode="&#x136;" horiz-adv-x="843" 
d="M409 16v-16q-33 0 -98.5 0.5t-98.5 0.5t-98.5 -0.5t-98.5 -0.5v16l35 7q38 7 49 22t11 55v479q0 40 -11 55t-49 22l-35 7v16q68 -1 205 -1q136 0 204 1v-16l-35 -7q-38 -7 -49 -22t-11 -55v-479q0 -40 9.5 -55t40.5 -22zM492 468l258 -367q30 -43 49 -59t51 -23l18 -4
v-15q-35 0 -99 0.5t-100 0.5q-35 0 -107 -0.5t-107 -0.5v16l25 4q31 5 31 27q0 17 -17 43l-157 241l186 199q44 47 44 74q0 29 -55 47l-36 12v16q56 -1 168 -1q111 0 167 1v-16l-29 -7q-82 -20 -135 -51t-110 -90zM400 -264l-11 16q33 18 53 46t19 57q-12 -28 -46 -28
q-26 0 -41.5 16t-15.5 41q0 27 18.5 45t47.5 18q30 0 47 -19.5t17 -50.5q0 -47 -25.5 -83.5t-62.5 -57.5z" />
    <glyph glyph-name="kcommaaccent" unicode="&#x137;" horiz-adv-x="665" 
d="M675 0q-28 0 -79.5 0.5t-79.5 0.5t-83.5 -0.5t-83.5 -0.5v15l10 2q28 6 28 23q0 12 -17 40l-95 151v-153q0 -33 6.5 -44.5t27.5 -15.5l15 -3v-15q-19 0 -66.5 0.5t-76.5 0.5q-27 0 -80 -0.5t-80 -0.5v15l24 4q25 4 33 16t8 45v571q0 35 -9.5 46t-46.5 16l-27 4v14l259 46
l18 -7q-5 -47 -5 -143v-393l113 121q41 44 41 71q0 17 -17 27.5t-58 20.5l-17 4v17q51 -1 154 -1t153 1v-17l-15 -4q-147 -39 -213 -113l-10 -11l166 -246q36 -54 50.5 -67.5t38.5 -18.5l14 -3v-15zM311 -264l-11 16q33 18 53 46t19 57q-12 -28 -46 -28q-26 0 -41.5 16
t-15.5 41q0 27 18.5 45t47.5 18q30 0 47 -19.5t17 -50.5q0 -47 -25.5 -83.5t-62.5 -57.5z" />
    <glyph glyph-name="Lacute" unicode="&#x139;" horiz-adv-x="679" 
d="M155 747h-7q36 61 53 125h149v-3q-28 -33 -85 -68t-110 -54zM644 0h-629v16l35 7q38 7 49 22t11 55v479q0 40 -11 55t-49 22l-35 7v16q70 -1 211 -1q140 0 210 1v-16l-40 -7q-42 -7 -55 -24t-13 -58v-504q0 -51 44 -51h7q69 0 126 55t121 206h18v-280z" />
    <glyph glyph-name="lacute" unicode="&#x13a;" horiz-adv-x="343" 
d="M128 798h-7q36 61 53 125h149v-3q-28 -33 -85 -68t-110 -54zM351 0q-27 0 -80 0.5t-80 0.5t-79.5 -0.5t-79.5 -0.5v15l24 4q25 4 33 16t8 45v571q0 35 -9.5 46t-46.5 16l-27 4v14l258 46l18 -7q-5 -47 -5 -143v-547q0 -33 8 -45t33 -16l25 -4v-15z" />
    <glyph glyph-name="Lcommaaccent" unicode="&#x13b;" horiz-adv-x="679" 
d="M15 0v16l35 7q38 7 49 22t11 55v479q0 40 -11 55t-49 22l-35 7v16q70 -1 211 -1q140 0 210 1v-16l-40 -7q-42 -7 -55 -24t-13 -58v-504q0 -51 44 -51h7q69 0 126 55t121 206h18v-280h-629zM324 -264l-11 16q33 18 53 46t19 57q-12 -28 -46 -28q-26 0 -41.5 16t-15.5 41
q0 27 18.5 45t47.5 18q30 0 47 -19.5t17 -50.5q0 -47 -25.5 -83.5t-62.5 -57.5z" />
    <glyph glyph-name="lcommaaccent" unicode="&#x13c;" horiz-adv-x="343" 
d="M21 0v15l24 4q25 4 33 16t8 45v571q0 35 -9.5 46t-46.5 16l-27 4v14l258 46l18 -7q-5 -47 -5 -143v-547q0 -33 8 -45t33 -16l25 -4v-15q-28 0 -80 0.5t-80 0.5q-27 0 -79.5 -0.5t-79.5 -0.5zM159 -264l-11 16q33 18 53 46t19 57q-12 -28 -46 -28q-26 0 -41.5 16t-15.5 41
q0 27 18.5 45t47.5 18q30 0 47 -19.5t17 -50.5q0 -47 -25.5 -83.5t-62.5 -57.5z" />
    <glyph glyph-name="Ldot" unicode="&#x13f;" horiz-adv-x="679" 
d="M15 0v16l35 7q38 7 49 22t11 55v479q0 40 -11 55t-49 22l-35 7v16q70 -1 211 -1q140 0 210 1v-16l-40 -7q-42 -7 -55 -24t-13 -58v-504q0 -51 44 -51h7q69 0 126 55t121 206h18v-280h-629zM617 389q0 -27 -18.5 -45.5t-46.5 -18.5q-29 0 -47.5 18.5t-18.5 45.5t18.5 46
t47.5 19q28 0 46.5 -19t18.5 -46z" />
    <glyph glyph-name="ldot" unicode="&#x140;" horiz-adv-x="370" 
d="M21 0v15l24 4q25 4 33 16t8 45v571q0 35 -9.5 46t-46.5 16l-27 4v14l258 46l18 -7q-5 -47 -5 -143v-547q0 -33 8 -45t33 -16l25 -4v-15q-28 0 -80 0.5t-80 0.5q-27 0 -79.5 -0.5t-79.5 -0.5zM367 329q-27 0 -45 18.5t-18 45.5t18 46t45 19t44.5 -19t17.5 -46t-17.5 -45.5
t-44.5 -18.5z" />
    <glyph glyph-name="Lslash" unicode="&#x141;" horiz-adv-x="679" 
d="M644 0h-629v16l35 7q38 7 49 22t11 55v148l-99 -57v34l99 57v297q0 40 -11 55t-49 22l-35 7v16q70 -1 211 -1q140 0 210 1v-16l-40 -7q-42 -7 -55 -24t-13 -58v-174l183 110v-34l-183 -110v-296q0 -51 44 -51h7q69 0 126 55t121 206h18v-280z" />
    <glyph glyph-name="lslash" unicode="&#x142;" horiz-adv-x="343" 
d="M340 0q-28 0 -80 0.5t-80 0.5q-27 0 -79.5 -0.5t-79.5 -0.5v15l24 4q25 4 33 16t8 45v262l-100 -59v35l100 59v274q0 35 -9.5 46t-46.5 16l-27 4v14l258 46l18 -7q-5 -47 -5 -143v-144l92 54v-35l-92 -54v-368q0 -33 8 -45t33 -16l25 -4v-15z" />
    <glyph glyph-name="Nacute" unicode="&#x143;" horiz-adv-x="727" 
d="M344 747h-7q36 61 53 125h149v-3q-28 -33 -85 -68t-110 -54zM627 0h-174l-317 575v-433q0 -54 15.5 -78t59.5 -40l23 -8v-16q-18 0 -54.5 0.5t-54.5 0.5q-19 0 -55 -0.5t-55 -0.5v16l21 9q43 19 58.5 42t15.5 75v430q0 39 -13.5 58t-48.5 26l-33 7v16h327l259 -466v324
q0 54 -15.5 78t-59.5 40l-23 8v16q37 -1 110 -1t109 1v-16l-21 -9q-43 -19 -58.5 -42t-15.5 -75v-537z" />
    <glyph glyph-name="nacute" unicode="&#x144;" horiz-adv-x="648" 
d="M309 578h-6q54 102 67 172h118v-3q-23 -45 -70.5 -90.5t-108.5 -78.5zM643 15v-15q-25 0 -74 0.5t-75 0.5q-25 0 -76 -0.5t-76 -0.5v15l20 5q16 4 21.5 14t5.5 42v292q0 86 -47 86q-73 0 -73 -172v-206q0 -32 5.5 -42t21.5 -14l20 -5v-15q-25 0 -75.5 0.5t-75.5 0.5
t-74.5 -0.5t-74.5 -0.5v15l24 4q25 4 33 16t8 45v310q0 31 -9.5 42.5t-40.5 13.5l-26 2v15l233 40l21 -7q-6 -66 -6 -214q0 115 36.5 171t122.5 56q165 0 165 -184v-245q0 -33 7.5 -45t33.5 -16z" />
    <glyph glyph-name="Ncommaaccent" unicode="&#x145;" horiz-adv-x="727" 
d="M627 0h-174l-317 575v-433q0 -54 15.5 -78t59.5 -40l23 -8v-16q-18 0 -54.5 0.5t-54.5 0.5q-19 0 -55 -0.5t-55 -0.5v16l21 9q43 19 58.5 42t15.5 75v430q0 39 -13.5 58t-48.5 26l-33 7v16h327l259 -466v324q0 54 -15.5 78t-59.5 40l-23 8v16q37 -1 110 -1t109 1v-16
l-21 -9q-43 -19 -58.5 -42t-15.5 -75v-537zM326 -269l-11 16q33 18 53 46t19 57q-12 -28 -46 -28q-26 0 -41.5 16t-15.5 41q0 27 18.5 45t47.5 18q30 0 47 -19.5t17 -50.5q0 -47 -25.5 -83.5t-62.5 -57.5z" />
    <glyph glyph-name="ncommaaccent" unicode="&#x146;" horiz-adv-x="648" 
d="M643 15v-15q-25 0 -74 0.5t-75 0.5q-25 0 -76 -0.5t-76 -0.5v15l20 5q16 4 21.5 14t5.5 42v292q0 86 -47 86q-73 0 -73 -172v-206q0 -32 5.5 -42t21.5 -14l20 -5v-15q-25 0 -75.5 0.5t-75.5 0.5t-74.5 -0.5t-74.5 -0.5v15l24 4q25 4 33 16t8 45v310q0 31 -9.5 42.5
t-40.5 13.5l-26 2v15l233 40l21 -7q-6 -66 -6 -214q0 115 36.5 171t122.5 56q165 0 165 -184v-245q0 -33 7.5 -45t33.5 -16zM296 -264l-11 16q33 18 53 46t19 57q-12 -28 -46 -28q-26 0 -41.5 16t-15.5 41q0 27 18.5 45t47.5 18q30 0 47 -19.5t17 -50.5q0 -47 -25.5 -83.5
t-62.5 -57.5z" />
    <glyph glyph-name="Ncaron" unicode="&#x147;" horiz-adv-x="727" 
d="M419 747h-84l-103 125h9l154 -67l124 67h7zM627 0h-174l-317 575v-433q0 -54 15.5 -78t59.5 -40l23 -8v-16q-18 0 -54.5 0.5t-54.5 0.5q-19 0 -55 -0.5t-55 -0.5v16l21 9q43 19 58.5 42t15.5 75v430q0 39 -13.5 58t-48.5 26l-33 7v16h327l259 -466v324q0 54 -15.5 78
t-59.5 40l-23 8v16q37 -1 110 -1t109 1v-16l-21 -9q-43 -19 -58.5 -42t-15.5 -75v-537z" />
    <glyph glyph-name="ncaron" unicode="&#x148;" horiz-adv-x="648" 
d="M369 578h-68l-104 172h8l143 -97l130 97h5zM643 15v-15q-25 0 -74 0.5t-75 0.5q-25 0 -76 -0.5t-76 -0.5v15l20 5q16 4 21.5 14t5.5 42v292q0 86 -47 86q-73 0 -73 -172v-206q0 -32 5.5 -42t21.5 -14l20 -5v-15q-25 0 -75.5 0.5t-75.5 0.5t-74.5 -0.5t-74.5 -0.5v15l24 4
q25 4 33 16t8 45v310q0 31 -9.5 42.5t-40.5 13.5l-26 2v15l233 40l21 -7q-6 -66 -6 -214q0 115 36.5 171t122.5 56q165 0 165 -184v-245q0 -33 7.5 -45t33.5 -16z" />
    <glyph glyph-name="Omacron" unicode="&#x14c;" horiz-adv-x="752" 
d="M235 765v43q72 -4 139 -4q70 0 140 4v-43q-70 4 -139 4q-68 0 -140 -4zM725 341q0 -89 -30.5 -159.5t-81 -113t-111.5 -65t-126 -22.5t-126 22.5t-111.5 65t-81 113t-30.5 159.5t30.5 159t81 112t111.5 64t126 22t126 -22t111.5 -64t81 -112t30.5 -159zM376 0
q68 0 92.5 87.5t24.5 253.5t-24.5 252t-92.5 86t-92.5 -86t-24.5 -252t24.5 -253.5t92.5 -87.5z" />
    <glyph glyph-name="omacron" unicode="&#x14d;" horiz-adv-x="562" 
d="M143 651v43q72 -4 139 -4q70 0 140 4v-43q-70 4 -139 4q-68 0 -140 -4zM281 -15q-104 0 -181.5 67t-77.5 196q0 65 23 117t61 82.5t82.5 46t92.5 15.5t92.5 -15.5t82.5 -46t61 -82.5t23 -117q0 -129 -77.5 -196t-181.5 -67zM281 3q38 0 50.5 54t12.5 191q0 136 -12.5 190
t-50.5 54t-50.5 -54t-12.5 -190q0 -137 12.5 -191t50.5 -54z" />
    <glyph glyph-name="Obreve" unicode="&#x14e;" horiz-adv-x="752" 
d="M506 872q-15 -125 -130 -125t-130 125h7q9 -22 37 -30.5t86 -8.5t86 8.5t37 30.5h7zM725 341q0 -89 -30.5 -159.5t-81 -113t-111.5 -65t-126 -22.5t-126 22.5t-111.5 65t-81 113t-30.5 159.5t30.5 159t81 112t111.5 64t126 22t126 -22t111.5 -64t81 -112t30.5 -159z
M259 341q0 -166 24.5 -253.5t92.5 -87.5t92.5 87.5t24.5 253.5t-24.5 252t-92.5 86t-92.5 -86t-24.5 -252z" />
    <glyph glyph-name="obreve" unicode="&#x14f;" horiz-adv-x="562" 
d="M409 743q-15 -142 -130 -142t-130 142h7q18 -47 123 -47t123 47h7zM540 248q0 -129 -77.5 -196t-181.5 -67t-181.5 67t-77.5 196q0 65 23 117t61 82.5t82.5 46t92.5 15.5t92.5 -15.5t82.5 -46t61 -82.5t23 -117zM218 248q0 -137 12.5 -191t50.5 -54t50.5 54t12.5 191
q0 136 -12.5 190t-50.5 54t-50.5 -54t-12.5 -190z" />
    <glyph glyph-name="Ohungarumlaut" unicode="&#x150;" horiz-adv-x="752" 
d="M423 747h-7q36 61 53 125h149v-3q-28 -33 -85 -68t-110 -54zM244 747h-7q36 61 53 125h149v-3q-28 -33 -85 -68t-110 -54zM376 -19q-65 0 -126 22.5t-111.5 65t-81 113t-30.5 159.5t30.5 159t81 112t111.5 64t126 22t126 -22t111.5 -64t81 -112t30.5 -159t-30.5 -159.5
t-81 -113t-111.5 -65t-126 -22.5zM376 0q68 0 92.5 87.5t24.5 253.5t-24.5 252t-92.5 86t-92.5 -86t-24.5 -252t24.5 -253.5t92.5 -87.5z" />
    <glyph glyph-name="ohungarumlaut" unicode="&#x151;" horiz-adv-x="562" 
d="M322 578h-6q54 102 67 172h118v-3q-23 -45 -70.5 -90.5t-108.5 -78.5zM159 578h-6q54 102 67 172h118v-3q-23 -45 -70.5 -90.5t-108.5 -78.5zM281 -15q-104 0 -181.5 67t-77.5 196q0 65 23 117t61 82.5t82.5 46t92.5 15.5t92.5 -15.5t82.5 -46t61 -82.5t23 -117
q0 -129 -77.5 -196t-181.5 -67zM281 3q38 0 50.5 54t12.5 191q0 136 -12.5 190t-50.5 54t-50.5 -54t-12.5 -190q0 -137 12.5 -191t50.5 -54z" />
    <glyph glyph-name="OE" unicode="&#x152;" horiz-adv-x="1057" 
d="M259 339q0 -80 4.5 -136t17 -104t36 -71.5t59.5 -23.5q47 0 74 28t27 83l1 445q0 56 -27 85t-75 29q-36 0 -59.5 -23.5t-36 -71.5t-17 -104t-4.5 -136zM468 0q-45 -15 -92 -15q-66 0 -126.5 21.5t-111 63t-81 111t-30.5 158.5t30.5 158.5t81 111t111 63t126.5 21.5
q44 0 89 -14h524v-251h-21q-87 232 -220 232h-52v-301h6q44 0 74.5 35.5t62.5 128.5h14q-1 -58 -1 -175t1 -176h-14q-31 97 -61.5 132.5t-76.5 35.5h-5v-270q0 -51 44 -51h12q150 0 241 236h19v-255h-544z" />
    <glyph glyph-name="oe" unicode="&#x153;" horiz-adv-x="845" 
d="M647 301l1 26q4 167 -48 167q-30 0 -44 -44t-16 -158zM218 248q0 -137 12.5 -191t50.5 -54t50.5 54t12.5 191q0 136 -12.5 190t-50.5 54t-50.5 -54t-12.5 -190zM819 125q-76 -139 -216 -139q-107 0 -164 59q-60 -60 -158 -60q-104 0 -181.5 67t-77.5 196q0 65 23 117
t61 82.5t82.5 46t92.5 15.5q97 0 159 -61q59 63 161 63q109 0 164.5 -53t55.5 -151q0 -27 -1 -34h-280v-21q0 -213 121 -213q85 0 143 95z" />
    <glyph glyph-name="Racute" unicode="&#x154;" horiz-adv-x="774" 
d="M339 747h-7q36 61 53 125h149v-3q-28 -33 -85 -68t-110 -54zM789 0h-206q-61 0 -85.5 16t-42.5 73l-73 234h-14q-30 0 -39 1v-224q0 -40 11 -55t49 -22l35 -7v-16q-34 0 -102 0.5t-102 0.5t-102.5 -0.5t-102.5 -0.5v16l35 7q38 7 49 22t11 55v479q0 40 -11 55t-49 22
l-35 7v16h374q61 0 111.5 -8.5t94 -27.5t67.5 -54.5t24 -84.5q0 -65 -44.5 -105.5t-114.5 -54.5q40 -9 61.5 -29.5t42.5 -68.5l68 -157q14 -34 30.5 -49t44.5 -21l15 -3v-16zM329 660v-317q16 -1 38 -1q42 0 69 37.5t27 121.5q0 87 -24.5 123t-71.5 36h-38z" />
    <glyph glyph-name="racute" unicode="&#x155;" horiz-adv-x="516" 
d="M270 578h-6q54 102 67 172h118v-3q-23 -45 -70.5 -90.5t-108.5 -78.5zM336 0q-27 0 -81 0.5t-81 0.5t-79 -0.5t-79 -0.5v15l24 4q25 4 33 16t8 45v310q0 31 -9.5 42.5t-40.5 13.5l-26 2v15l233 40l21 -7q-7 -77 -7 -321q0 78 8 146q7 55 20 93t45 66.5t82 28.5t80 -28.5
t30 -74.5q0 -51 -30.5 -81t-77.5 -30q-61 0 -80 46q-6 15 -10 37q-3 15 -12 15q-20 0 -31 -77q-4 -28 -6 -63t-2 -56l-1 -21v-93q0 -35 8.5 -47t35.5 -17l25 -4v-15z" />
    <glyph glyph-name="Rcommaaccent" unicode="&#x156;" horiz-adv-x="774" 
d="M789 0h-206q-61 0 -85.5 16t-42.5 73l-73 234h-14q-30 0 -39 1v-224q0 -40 11 -55t49 -22l35 -7v-16q-34 0 -102 0.5t-102 0.5t-102.5 -0.5t-102.5 -0.5v16l35 7q38 7 49 22t11 55v479q0 40 -11 55t-49 22l-35 7v16h374q61 0 111.5 -8.5t94 -27.5t67.5 -54.5t24 -84.5
q0 -65 -44.5 -105.5t-114.5 -54.5q40 -9 61.5 -29.5t42.5 -68.5l68 -157q14 -34 30.5 -49t44.5 -21l15 -3v-16zM329 660v-317q16 -1 38 -1q42 0 69 37.5t27 121.5q0 87 -24.5 123t-71.5 36h-38zM381 -264l-11 16q33 18 53 46t19 57q-12 -28 -46 -28q-26 0 -41.5 16t-15.5 41
q0 27 18.5 45t47.5 18q30 0 47 -19.5t17 -50.5q0 -47 -25.5 -83.5t-62.5 -57.5z" />
    <glyph glyph-name="rcommaaccent" unicode="&#x157;" horiz-adv-x="516" 
d="M16 0v15l24 4q25 4 33 16t8 45v310q0 31 -9.5 42.5t-40.5 13.5l-26 2v15l233 40l21 -7q-7 -77 -7 -321q0 78 8 146q7 55 20 93t45 66.5t82 28.5t80 -28.5t30 -74.5q0 -51 -30.5 -81t-77.5 -30q-61 0 -80 46q-6 15 -10 37q-3 15 -12 15q-20 0 -31 -77q-4 -28 -6 -63
t-2 -56l-1 -21v-93q0 -35 8.5 -47t35.5 -17l25 -4v-15q-27 0 -81 0.5t-81 0.5t-79 -0.5t-79 -0.5zM147 -264l-11 16q33 18 53 46t19 57q-12 -28 -46 -28q-26 0 -41.5 16t-15.5 41q0 27 18.5 45t47.5 18q30 0 47 -19.5t17 -50.5q0 -47 -25.5 -83.5t-62.5 -57.5z" />
    <glyph glyph-name="Rcaron" unicode="&#x158;" horiz-adv-x="774" 
d="M425 747h-84l-103 125h9l154 -67l124 67h7zM789 0h-206q-61 0 -85.5 16t-42.5 73l-73 234h-14q-30 0 -39 1v-224q0 -40 11 -55t49 -22l35 -7v-16q-34 0 -102 0.5t-102 0.5t-102.5 -0.5t-102.5 -0.5v16l35 7q38 7 49 22t11 55v479q0 40 -11 55t-49 22l-35 7v16h374
q61 0 111.5 -8.5t94 -27.5t67.5 -54.5t24 -84.5q0 -65 -44.5 -105.5t-114.5 -54.5q40 -9 61.5 -29.5t42.5 -68.5l68 -157q14 -34 30.5 -49t44.5 -21l15 -3v-16zM329 660v-317q16 -1 38 -1q42 0 69 37.5t27 121.5q0 87 -24.5 123t-71.5 36h-38z" />
    <glyph glyph-name="rcaron" unicode="&#x159;" horiz-adv-x="516" 
d="M309 578h-68l-104 172h8l143 -97l130 97h5zM16 0v15l24 4q25 4 33 16t8 45v310q0 31 -9.5 42.5t-40.5 13.5l-26 2v15l233 40l21 -7q-7 -77 -7 -321q0 78 8 146q7 55 20 93t45 66.5t82 28.5t80 -28.5t30 -74.5q0 -51 -30.5 -81t-77.5 -30q-61 0 -80 46q-6 15 -10 37
q-3 15 -12 15q-20 0 -31 -77q-4 -28 -6 -63t-2 -56l-1 -21v-93q0 -35 8.5 -47t35.5 -17l25 -4v-15q-27 0 -81 0.5t-81 0.5t-79 -0.5t-79 -0.5z" />
    <glyph glyph-name="Sacute" unicode="&#x15a;" horiz-adv-x="607" 
d="M258 747h-7q36 61 53 125h149v-3q-28 -33 -85 -68t-110 -54zM567 209q0 -57 -23.5 -102t-61 -71.5t-81 -40t-88.5 -13.5q-126 0 -198 62l-51 -56h-9v298h15q63 -157 116 -221t126 -64q47 0 77.5 27t30.5 73q0 50 -36 81t-124 61q-103 35 -152 90.5t-49 138.5
q0 99 74.5 162t186.5 63q88 0 154 -54l44 48h8v-263h-15q-46 135 -90.5 192.5t-105.5 57.5q-52 0 -80.5 -28t-28.5 -74t39 -77t117 -58q105 -36 155 -88.5t50 -143.5z" />
    <glyph glyph-name="sacute" unicode="&#x15b;" horiz-adv-x="467" 
d="M202 578h-6q54 102 67 172h118v-3q-23 -45 -70.5 -90.5t-108.5 -78.5zM442 158q0 -81 -54 -127t-149 -46q-99 0 -153 45l-38 -43h-8v219h15q40 -104 85 -153.5t100 -49.5q85 0 85 61q0 30 -30.5 52t-103.5 49q-149 56 -149 176q0 76 54 122t145 46q77 0 131 -39l34 38h8
v-193h-15q-39 91 -76 134t-84 43q-37 0 -58.5 -16t-21.5 -45q0 -31 31.5 -52t107.5 -50q144 -55 144 -171z" />
    <glyph glyph-name="Scircumflex" unicode="&#x15c;" horiz-adv-x="607" 
d="M298 814l-124 -67h-7l107 125h84l103 -125h-9zM567 209q0 -57 -23.5 -102t-61 -71.5t-81 -40t-88.5 -13.5q-126 0 -198 62l-51 -56h-9v298h15q63 -157 116 -221t126 -64q47 0 77.5 27t30.5 73q0 50 -36 81t-124 61q-103 35 -152 90.5t-49 138.5q0 99 74.5 162t186.5 63
q88 0 154 -54l44 48h8v-263h-15q-46 135 -90.5 192.5t-105.5 57.5q-52 0 -80.5 -28t-28.5 -74t39 -77t117 -58q105 -36 155 -88.5t50 -143.5z" />
    <glyph glyph-name="scircumflex" unicode="&#x15d;" horiz-adv-x="444" 
d="M236 675l-130 -97h-5l114 172h68l104 -172h-8zM239 -15q-99 0 -153 45l-38 -43h-8v219h15q40 -104 85 -153.5t100 -49.5q85 0 85 61q0 30 -30.5 52t-103.5 49q-149 56 -149 176q0 76 54 122t145 46q77 0 131 -39l34 38h8v-193h-15q-39 91 -76 134t-84 43q-37 0 -58.5 -16
t-21.5 -45q0 -31 31.5 -52t107.5 -50q144 -55 144 -171q0 -81 -54 -127t-149 -46z" />
    <glyph glyph-name="Scedilla" unicode="&#x15e;" horiz-adv-x="607" 
d="M260 -244q-51 0 -98 32l10 13q32 -17 60 -17t43.5 19t15.5 54q0 57 -38 57q-16 0 -34 -10l-12 10l21 77q-69 15 -113 53l-51 -56h-9v298h15q63 -157 116 -221t126 -64q47 0 77.5 27t30.5 73q0 50 -36 81t-124 61q-103 35 -152 90.5t-49 138.5q0 99 74.5 162t186.5 63
q88 0 154 -54l44 48h8v-263h-15q-46 135 -90.5 192.5t-105.5 57.5q-52 0 -80.5 -28t-28.5 -74t39 -77t117 -58q105 -36 155 -88.5t50 -143.5q0 -57 -23.5 -102t-61 -71.5t-81 -40t-88.5 -13.5q-31 0 -66 5l-13 -63q31 12 63 12q46 0 76 -22t30 -60q0 -48 -44 -73t-99 -25z
" />
    <glyph glyph-name="scedilla" unicode="&#x15f;" horiz-adv-x="467" 
d="M189 -244q-51 0 -98 32l10 13q32 -17 60 -17t43.5 19t15.5 54q0 57 -38 57q-16 0 -34 -10l-12 10l23 81q-47 13 -73 35l-38 -43h-8v219h15q40 -104 85 -153.5t100 -49.5q85 0 85 61q0 30 -30.5 52t-103.5 49q-149 56 -149 176q0 76 54 122t145 46q77 0 131 -39l34 38h8
v-193h-15q-39 91 -76 134t-84 43q-37 0 -58.5 -16t-21.5 -45q0 -31 31.5 -52t107.5 -50q144 -55 144 -171q0 -81 -54 -127t-149 -46q-32 0 -62 6l-14 -67q31 12 63 12q46 0 76 -22t30 -60q0 -48 -44 -73t-99 -25z" />
    <glyph glyph-name="Scaron" unicode="&#x160;" horiz-adv-x="607" 
d="M360 747h-84l-103 125h9l154 -67l124 67h7zM567 209q0 -57 -23.5 -102t-61 -71.5t-81 -40t-88.5 -13.5q-126 0 -198 62l-51 -56h-9v298h15q63 -157 116 -221t126 -64q47 0 77.5 27t30.5 73q0 50 -36 81t-124 61q-103 35 -152 90.5t-49 138.5q0 99 74.5 162t186.5 63
q88 0 154 -54l44 48h8v-263h-15q-46 135 -90.5 192.5t-105.5 57.5q-52 0 -80.5 -28t-28.5 -74t39 -77t117 -58q105 -36 155 -88.5t50 -143.5z" />
    <glyph glyph-name="scaron" unicode="&#x161;" horiz-adv-x="467" 
d="M276 580h-68l-104 172h8l143 -97l130 97h5zM442 158q0 -81 -54 -127t-149 -46q-99 0 -153 45l-38 -43h-8v219h15q40 -104 85 -153.5t100 -49.5q85 0 85 61q0 30 -30.5 52t-103.5 49q-149 56 -149 176q0 76 54 122t145 46q77 0 131 -39l34 38h8v-193h-15q-39 91 -76 134
t-84 43q-37 0 -58.5 -16t-21.5 -45q0 -31 31.5 -52t107.5 -50q144 -55 144 -171z" />
    <glyph glyph-name="Tcommaaccent" unicode="&#x162;" horiz-adv-x="695" 
d="M562 16v-16q-36 0 -107 0.5t-107 0.5t-107.5 -0.5t-107.5 -0.5v16l37 7q43 8 55.5 22.5t12.5 54.5v560h-5q-40 0 -84.5 -55t-112.5 -198h-16v272h655v-272h-16q-68 142 -113 197.5t-85 55.5h-4v-560q0 -40 12.5 -54.5t55.5 -22.5zM323 -264l-11 16q33 18 53 46t19 57
q-12 -28 -46 -28q-26 0 -41.5 16t-15.5 41q0 27 18.5 45t47.5 18q30 0 47 -19.5t17 -50.5q0 -47 -25.5 -83.5t-62.5 -57.5z" />
    <glyph glyph-name="tcommaaccent" unicode="&#x163;" horiz-adv-x="410" 
d="M393 154q-19 -90 -55 -129.5t-114 -39.5q-76 0 -115.5 38t-39.5 107v321l-84 19v17l78 17q32 7 50 27t31 62l21 69h95l-3 -167h140v-32l-140 -8v-361q0 -56 40 -56q52 0 80 119zM178 -264l-11 16q33 18 53 46t19 57q-12 -28 -46 -28q-26 0 -41.5 16t-15.5 41
q0 27 18.5 45t47.5 18q30 0 47 -19.5t17 -50.5q0 -47 -25.5 -83.5t-62.5 -57.5z" />
    <glyph glyph-name="Tcaron" unicode="&#x164;" horiz-adv-x="695" 
d="M389 747h-84l-103 125h9l154 -67l124 67h7zM562 16v-16q-36 0 -107 0.5t-107 0.5t-107.5 -0.5t-107.5 -0.5v16l37 7q43 8 55.5 22.5t12.5 54.5v560h-5q-40 0 -84.5 -55t-112.5 -198h-16v272h655v-272h-16q-68 142 -113 197.5t-85 55.5h-4v-560q0 -40 12.5 -54.5
t55.5 -22.5z" />
    <glyph glyph-name="tcaron" unicode="&#x165;" horiz-adv-x="410" 
d="M352 554l-11 16q33 18 53 46t19 57q-12 -28 -46 -28q-26 0 -41.5 16t-15.5 41q0 27 18.5 45t47.5 18q30 0 47 -19.5t17 -50.5q0 -47 -25.5 -83.5t-62.5 -57.5zM224 -15q-76 0 -115.5 38t-39.5 107v321l-84 19v17l78 17q32 7 50 27t31 62l21 69h95l-3 -167h140v-32
l-140 -8v-361q0 -56 40 -56q52 0 80 119l16 -3q-19 -90 -55 -129.5t-114 -39.5z" />
    <glyph glyph-name="Tbar" unicode="&#x166;" horiz-adv-x="695" 
d="M562 16v-16q-36 0 -107 0.5t-107 0.5t-107.5 -0.5t-107.5 -0.5v16l37 7q43 8 55.5 22.5t12.5 54.5v221h-108v36h108v303h-5q-40 0 -84.5 -55t-112.5 -198h-16v272h655v-272h-16q-68 142 -113 197.5t-85 55.5h-4v-303h106v-36h-106v-221q0 -40 12.5 -54.5t55.5 -22.5z" />
    <glyph glyph-name="tbar" unicode="&#x167;" horiz-adv-x="410" 
d="M69 306v145l-84 19v17l78 17q32 7 50 27t31 62l21 69h95l-3 -167h140v-32l-140 -8v-149h122v-31h-122v-181q0 -56 40 -56q52 0 80 119l16 -3q-19 -90 -55 -129.5t-114 -39.5q-76 0 -115.5 38t-39.5 107v145h-70v31h70z" />
    <glyph glyph-name="Utilde" unicode="&#x168;" horiz-adv-x="747" 
d="M285 748l-3 -2q-17 26 -17 58t18 52t53 20q30 0 76 -26t65 -26q38 0 42 38h4q0 -58 -15 -86.5t-59 -28.5q-27 0 -73 26t-65 26q-29 0 -29 -31q0 -12 3 -20zM652 254q0 -62 -11.5 -108t-40 -83.5t-82 -57t-132.5 -19.5q-84 0 -142 19.5t-90 57t-45.5 84t-13.5 107.5v325
q0 40 -11 55t-49 22l-35 7v16q68 -1 205 -1q136 0 204 1v-16l-35 -7q-38 -7 -49 -22t-11 -55v-335q0 -210 154 -210q81 0 119.5 54.5t38.5 165.5v283q0 54 -15.5 78t-59.5 40l-23 8v16q37 -1 110 -1t109 1v-16l-21 -9q-43 -19 -58.5 -42t-15.5 -75v-283z" />
    <glyph glyph-name="utilde" unicode="&#x169;" horiz-adv-x="599" 
d="M180 610l-3 -2q-17 26 -17 58t18 52t53 20q30 0 76 -26t65 -26q38 0 42 38h4q0 -58 -15 -86.5t-59 -28.5q-27 0 -73 26t-65 26q-29 0 -29 -31q0 -12 3 -20zM362 179q0 -101 -36 -147.5t-115 -46.5q-73 0 -117 39t-44 112v279q0 32 -8 44.5t-33 16.5l-24 4v15h256l-3 -81
v-311q0 -65 47 -65q28 0 44.5 36t16.5 105v236q0 32 -8.5 44.5t-33.5 16.5l-24 4v15h258l-4 -89v-326q0 -33 8 -45t33 -16l24 -4v-15h-225l-12 10v169z" />
    <glyph glyph-name="Umacron" unicode="&#x16a;" horiz-adv-x="747" 
d="M251 765v43q72 -4 139 -4q70 0 140 4v-43q-70 4 -139 4q-68 0 -140 -4zM652 254q0 -62 -11.5 -108t-40 -83.5t-82 -57t-132.5 -19.5q-84 0 -142 19.5t-90 57t-45.5 84t-13.5 107.5v325q0 40 -11 55t-49 22l-35 7v16q68 -1 205 -1q136 0 204 1v-16l-35 -7q-38 -7 -49 -22
t-11 -55v-335q0 -210 154 -210q81 0 119.5 54.5t38.5 165.5v283q0 54 -15.5 78t-59.5 40l-23 8v16q37 -1 110 -1t109 1v-16l-21 -9q-43 -19 -58.5 -42t-15.5 -75v-283z" />
    <glyph glyph-name="umacron" unicode="&#x16b;" horiz-adv-x="599" 
d="M148 651v43q72 -4 139 -4q70 0 140 4v-43q-70 4 -139 4q-68 0 -140 -4zM362 179q0 -101 -36 -147.5t-115 -46.5q-73 0 -117 39t-44 112v279q0 32 -8 44.5t-33 16.5l-24 4v15h256l-3 -81v-311q0 -65 47 -65q28 0 44.5 36t16.5 105v236q0 32 -8.5 44.5t-33.5 16.5l-24 4v15
h258l-4 -89v-326q0 -33 8 -45t33 -16l24 -4v-15h-225l-12 10v169z" />
    <glyph glyph-name="Ubreve" unicode="&#x16c;" horiz-adv-x="747" 
d="M516 872q-15 -125 -130 -125t-130 125h7q9 -22 37 -30.5t86 -8.5t86 8.5t37 30.5h7zM652 254q0 -62 -11.5 -108t-40 -83.5t-82 -57t-132.5 -19.5q-84 0 -142 19.5t-90 57t-45.5 84t-13.5 107.5v325q0 40 -11 55t-49 22l-35 7v16q68 -1 205 -1q136 0 204 1v-16l-35 -7
q-38 -7 -49 -22t-11 -55v-335q0 -210 154 -210q81 0 119.5 54.5t38.5 165.5v283q0 54 -15.5 78t-59.5 40l-23 8v16q37 -1 110 -1t109 1v-16l-21 -9q-43 -19 -58.5 -42t-15.5 -75v-283z" />
    <glyph glyph-name="ubreve" unicode="&#x16d;" horiz-adv-x="599" 
d="M416 743q-15 -142 -130 -142t-130 142h7q18 -47 123 -47t123 47h7zM362 179q0 -101 -36 -147.5t-115 -46.5q-73 0 -117 39t-44 112v279q0 32 -8 44.5t-33 16.5l-24 4v15h256l-3 -81v-311q0 -65 47 -65q28 0 44.5 36t16.5 105v236q0 32 -8.5 44.5t-33.5 16.5l-24 4v15h258
l-4 -89v-326q0 -33 8 -45t33 -16l24 -4v-15h-225l-12 10v169z" />
    <glyph glyph-name="Uring" unicode="&#x16e;" horiz-adv-x="747" 
d="M502 822q0 -41 -28 -68t-71 -27t-71 27t-28 68t28 68t71 27t71 -27t28 -68zM403 743q31 0 48 22t17 57t-17 57t-48 22t-48 -22t-17 -57t17 -57t48 -22zM386 -14q-84 0 -142 19.5t-90 57t-45.5 84t-13.5 107.5v325q0 40 -11 55t-49 22l-35 7v16q68 -1 205 -1q136 0 204 1
v-16l-35 -7q-38 -7 -49 -22t-11 -55v-335q0 -210 154 -210q81 0 119.5 54.5t38.5 165.5v283q0 54 -15.5 78t-59.5 40l-23 8v16q37 -1 110 -1t109 1v-16l-21 -9q-43 -19 -58.5 -42t-15.5 -75v-283q0 -62 -11.5 -108t-40 -83.5t-82 -57t-132.5 -19.5z" />
    <glyph glyph-name="uring" unicode="&#x16f;" horiz-adv-x="599" 
d="M387 657q0 -41 -28 -68t-71 -27t-71 27t-28 68t28 68t71 27t71 -27t28 -68zM288 578q31 0 48 22t17 57t-17 57t-48 22t-48 -22t-17 -57t17 -57t48 -22zM362 179q0 -101 -36 -147.5t-115 -46.5q-73 0 -117 39t-44 112v279q0 32 -8 44.5t-33 16.5l-24 4v15h256l-3 -81v-311
q0 -65 47 -65q28 0 44.5 36t16.5 105v236q0 32 -8.5 44.5t-33.5 16.5l-24 4v15h258l-4 -89v-326q0 -33 8 -45t33 -16l24 -4v-15h-225l-12 10v169z" />
    <glyph glyph-name="Uhungarumlaut" unicode="&#x170;" horiz-adv-x="747" 
d="M431 747h-7q36 61 53 125h149v-3q-28 -33 -85 -68t-110 -54zM252 747h-7q36 61 53 125h149v-3q-28 -33 -85 -68t-110 -54zM386 -14q-84 0 -142 19.5t-90 57t-45.5 84t-13.5 107.5v325q0 40 -11 55t-49 22l-35 7v16q68 -1 205 -1q136 0 204 1v-16l-35 -7q-38 -7 -49 -22
t-11 -55v-335q0 -210 154 -210q81 0 119.5 54.5t38.5 165.5v283q0 54 -15.5 78t-59.5 40l-23 8v16q37 -1 110 -1t109 1v-16l-21 -9q-43 -19 -58.5 -42t-15.5 -75v-283q0 -62 -11.5 -108t-40 -83.5t-82 -57t-132.5 -19.5z" />
    <glyph glyph-name="uhungarumlaut" unicode="&#x171;" horiz-adv-x="599" 
d="M327 578h-6q54 102 67 172h118v-3q-23 -45 -70.5 -90.5t-108.5 -78.5zM164 578h-6q54 102 67 172h118v-3q-23 -45 -70.5 -90.5t-108.5 -78.5zM362 179q0 -101 -36 -147.5t-115 -46.5q-73 0 -117 39t-44 112v279q0 32 -8 44.5t-33 16.5l-24 4v15h256l-3 -81v-311
q0 -65 47 -65q28 0 44.5 36t16.5 105v236q0 32 -8.5 44.5t-33.5 16.5l-24 4v15h258l-4 -89v-326q0 -33 8 -45t33 -16l24 -4v-15h-225l-12 10v169z" />
    <glyph glyph-name="Uogonek" unicode="&#x172;" horiz-adv-x="747" 
d="M477 -244q-51 0 -84 22t-33 63q0 38 26 66t86 69q73 51 85 62q-65 -52 -171 -52q-84 0 -142 19.5t-90 57t-45.5 84t-13.5 107.5v325q0 40 -11 55t-49 22l-35 7v16q68 -1 205 -1q136 0 204 1v-16l-35 -7q-38 -7 -49 -22t-11 -55v-335q0 -210 154 -210q81 0 119.5 54.5
t38.5 165.5v283q0 54 -15.5 78t-59.5 40l-23 8v16q37 -1 110 -1t109 1v-16l-21 -9q-43 -19 -58.5 -42t-15.5 -75v-283q0 -142 -65 -206q-6 -6 -32.5 -30t-36 -35t-26 -33t-23 -44.5t-6.5 -48.5q0 -29 15 -44t37 -15q48 0 87 70l16 -8q-54 -104 -141 -104z" />
    <glyph glyph-name="uogonek" unicode="&#x173;" horiz-adv-x="599" 
d="M472 -244q-51 0 -84 22t-33 63q0 80 105 132q51 25 95 34q-91 -7 -125 -7h-56l-12 10v169q0 -101 -36 -147.5t-115 -46.5q-73 0 -117 39t-44 112v279q0 32 -8 44.5t-33 16.5l-24 4v15h256l-3 -81v-311q0 -65 47 -65q28 0 44.5 36t16.5 105v236q0 32 -8.5 44.5t-33.5 16.5
l-24 4v15h258l-4 -89v-326q0 -33 8 -45t33 -16l24 -4v-15q-65 0 -103 -40t-38 -103q0 -29 15 -44t37 -15q48 0 87 70l16 -8q-54 -104 -141 -104z" />
    <glyph glyph-name="Wcircumflex" unicode="&#x174;" horiz-adv-x="1055" 
d="M554 814l-124 -67h-7l107 125h84l103 -125h-9zM444 197l-53 -197h-115l-169 529q-23 73 -41.5 97.5t-51.5 31.5l-24 5v16q69 -1 207 -1t207 1v-16l-31 -6q-35 -7 -43 -27.5t7 -76.5l92 -334l123 460h116l125 -462l78 254q21 68 22 101.5t-17 50.5t-65 31l-31 9v16
q48 -1 143 -1t142 1v-16l-19 -6q-51 -16 -87.5 -59t-65.5 -131l-89 -276l-57 -191h-115l-122 440z" />
    <glyph glyph-name="wcircumflex" unicode="&#x175;" horiz-adv-x="771" 
d="M407 675l-130 -97h-5l114 172h68l104 -172h-8zM371 278l-78 -278h-87l-134 393q-15 45 -29 61.5t-37 21.5l-19 4v15q55 -1 165 -1t166 1v-15l-24 -4q-25 -4 -31.5 -19t3.5 -50l61 -210l83 298h87l94 -302l44 138q15 48 15 80q0 50 -70 65l-18 4v15q37 -1 113 -1t114 1
v-15l-18 -5q-39 -11 -66.5 -45.5t-51.5 -107.5l-105 -322h-87z" />
    <glyph glyph-name="Ycircumflex" unicode="&#x176;" horiz-adv-x="740" 
d="M375 814l-124 -67h-7l107 125h84l103 -125h-9zM582 0q-36 0 -107 0.5t-107 0.5t-107.5 -0.5t-107.5 -0.5v16l37 7q43 8 55.5 22.5t12.5 54.5v169l-145 289q-26 52 -46.5 73t-51.5 27l-25 5v16q71 -1 214 -1q142 0 213 1v-16l-38 -8q-22 -4 -30.5 -15.5t-5.5 -29.5t17 -50
l104 -239l75 161q36 76 36 118q0 39 -72 56l-30 7v16q46 -1 139 -1q92 0 138 1v-16l-20 -6q-45 -14 -84.5 -53t-85.5 -134l-83 -171v-199q0 -40 12.5 -54.5t55.5 -22.5l37 -7v-16z" />
    <glyph glyph-name="ycircumflex" unicode="&#x177;" horiz-adv-x="563" 
d="M295 675l-130 -97h-5l114 172h68l104 -172h-8zM295 -42q-47 -114 -86.5 -157t-110.5 -43q-53 0 -83 30.5t-30 75.5q0 42 26 71t75 30q69 1 86 -58q3 -9 4.5 -25t2.5 -20q4 -17 16 -17q34 0 78 125l5 14l-190 405q-22 48 -36.5 65t-40.5 22l-20 4v15q57 -1 170 -1
q112 0 168 1v-15l-23 -4q-48 -9 -24 -65l91 -214l53 135q22 55 22 87q0 41 -64 56l-21 5v15q36 -1 109 -1q72 0 109 1v-15l-10 -3q-45 -14 -69 -43.5t-57 -109.5z" />
    <glyph glyph-name="Ydieresis" unicode="&#x178;" horiz-adv-x="740" 
d="M576 811q0 -27 -18.5 -45.5t-46.5 -18.5q-29 0 -47.5 18.5t-18.5 45.5t18.5 46t47.5 19q28 0 46.5 -19t18.5 -46zM351 811q0 -27 -18.5 -45.5t-47.5 -18.5q-28 0 -46.5 18.5t-18.5 45.5t18.5 46t46.5 19q29 0 47.5 -19t18.5 -46zM582 0q-36 0 -107 0.5t-107 0.5
t-107.5 -0.5t-107.5 -0.5v16l37 7q43 8 55.5 22.5t12.5 54.5v169l-145 289q-26 52 -46.5 73t-51.5 27l-25 5v16q71 -1 214 -1q142 0 213 1v-16l-38 -8q-22 -4 -30.5 -15.5t-5.5 -29.5t17 -50l104 -239l75 161q36 76 36 118q0 39 -72 56l-30 7v16q46 -1 139 -1q92 0 138 1
v-16l-20 -6q-45 -14 -84.5 -53t-85.5 -134l-83 -171v-199q0 -40 12.5 -54.5t55.5 -22.5l37 -7v-16z" />
    <glyph glyph-name="Zacute" unicode="&#x179;" horiz-adv-x="684" 
d="M284 747h-7q36 61 53 125h149v-3q-28 -33 -85 -68t-110 -54zM639 0h-604v19l356 641h-41q-74 0 -121 -23t-82 -73t-79 -152h-16l4 267h588v-19l-357 -641h62q99 0 158 54.5t119 200.5h16z" />
    <glyph glyph-name="zacute" unicode="&#x17a;" horiz-adv-x="515" 
d="M221 578h-6q54 102 67 172h118v-3q-23 -45 -70.5 -90.5t-108.5 -78.5zM478 0h-453v19l250 457h-23q-76 0 -113.5 -42.5t-81.5 -163.5h-14v225h442v-19l-249 -457h25q31 0 52 2.5t39.5 13t30 21.5t26.5 39t25.5 52.5t29.5 74.5h13z" />
    <glyph glyph-name="Zdotaccent" unicode="&#x17b;" horiz-adv-x="684" 
d="M425 811q0 -27 -18.5 -45.5t-46.5 -18.5q-29 0 -47.5 18.5t-18.5 45.5t18.5 46t47.5 19q28 0 46.5 -19t18.5 -46zM639 0h-604v19l356 641h-41q-74 0 -121 -23t-82 -73t-79 -152h-16l4 267h588v-19l-357 -641h62q99 0 158 54.5t119 200.5h16z" />
    <glyph glyph-name="zdotaccent" unicode="&#x17c;" horiz-adv-x="515" 
d="M333 672q0 -27 -18.5 -45.5t-46.5 -18.5q-29 0 -47.5 18.5t-18.5 45.5t18.5 46t47.5 19q28 0 46.5 -19t18.5 -46zM25 0v19l250 457h-23q-76 0 -113.5 -42.5t-81.5 -163.5h-14v225h442v-19l-249 -457h25q31 0 52 2.5t39.5 13t30 21.5t26.5 39t25.5 52.5t29.5 74.5h13
l1 -222h-453z" />
    <glyph glyph-name="Zcaron" unicode="&#x17d;" horiz-adv-x="684" 
d="M395 747h-84l-103 125h9l154 -67l124 67h7zM639 0h-604v19l356 641h-41q-74 0 -121 -23t-82 -73t-79 -152h-16l4 267h588v-19l-357 -641h62q99 0 158 54.5t119 200.5h16z" />
    <glyph glyph-name="zcaron" unicode="&#x17e;" horiz-adv-x="515" 
d="M305 578h-68l-104 172h8l143 -97l130 97h5zM25 0v19l250 457h-23q-76 0 -113.5 -42.5t-81.5 -163.5h-14v225h442v-19l-249 -457h25q31 0 52 2.5t39.5 13t30 21.5t26.5 39t25.5 52.5t29.5 74.5h13l1 -222h-453z" />
    <glyph glyph-name="florin" unicode="&#x192;" horiz-adv-x="548" 
d="M32 -245q-79 0 -115.5 34t-36.5 88q0 45 27 70.5t66 25.5t62 -23t23 -59q0 -23 -11 -41t-23.5 -26.5t-23.5 -17.5t-11 -16q0 -17 35 -17q89 0 89 134q0 207 -2 409l-84 17v21l84 17q4 140 75.5 209.5t191.5 69.5q80 0 122 -34t42 -88q0 -47 -29 -74t-70 -27t-66 24
t-25 62q0 25 11 43t23.5 26.5t23.5 17t11 15.5q0 17 -35 17q-89 0 -89 -134q0 -21 1 -66.5t1 -65.5h136v-33l-135 -7h-1v-211q0 -360 -267 -360z" />
    <glyph glyph-name="Gcaron" unicode="&#x1e6;" horiz-adv-x="734" 
d="M422 747h-84l-103 125h9l154 -67l124 67h7zM633 -13l-79 72q-33 -37 -83.5 -57.5t-100.5 -20.5q-142 0 -242.5 100t-100.5 258q0 159 109.5 259t266.5 100q100 0 169 -64l51 56h8v-285h-16q-25 64 -43 103.5t-44.5 83.5t-57.5 65.5t-66 21.5q-71 0 -108 -88.5t-37 -251.5
q0 -171 26 -255t90 -84q73 0 73 85v133q0 40 -12 55t-53 22l-37 7v16q63 -1 190 -1t190 1v-16l-32 -7q-37 -8 -47 -22.5t-10 -54.5v-103l6 -128h-10z" />
    <glyph glyph-name="gcaron" unicode="&#x1e7;" horiz-adv-x="577" 
d="M299 578h-68l-104 172h8l143 -97l130 97h5zM194 332q0 -86 11.5 -122.5t41.5 -36.5q31 0 42 35.5t11 123.5t-11 124t-42 36q-30 0 -41.5 -37t-11.5 -123zM274 -244q-127 0 -199 29t-72 88q0 30 20 49t54 19q27 0 41 -13.5t13 -38.5q-32 -8 -32 -43q0 -72 173 -72
q87 0 138 23t51 56t-35.5 45.5t-132.5 17.5q-130 6 -188.5 39t-58.5 97q0 115 170 115h22q-106 0 -161.5 44.5t-55.5 121.5q0 84 60.5 130t154.5 46q84 0 145 -42q54 54 118 54q42 0 67.5 -21.5t25.5 -57.5q0 -32 -20 -51.5t-50 -19.5t-46.5 17t-16.5 43q0 12 3 26t3 18
q0 10 -12 10q-20 0 -56 -30q63 -52 63 -133q0 -83 -63 -125t-163 -42q-53 0 -72.5 -6t-19.5 -20t30.5 -19t142.5 -10q136 -6 187.5 -46.5t51.5 -113.5q0 -93 -74.5 -138.5t-205.5 -45.5z" />
    <glyph glyph-name="Aringacute" unicode="&#x1fa;" horiz-adv-x="734" 
d="M303 923h-7q37 54 53 110h149v-3q-28 -29 -85.5 -60t-109.5 -47zM471 810q0 -39 -26.5 -64.5t-67.5 -25.5q-42 0 -68 25.5t-26 64.5t26 64.5t68 25.5q41 0 67.5 -25.5t26.5 -64.5zM377 735q29 0 45 21t16 54t-16 54t-45 21t-45.5 -21t-16.5 -54t16.5 -54t45.5 -21z
M739 16v-16q-34 0 -100 0.5t-100 0.5t-102.5 -0.5t-102.5 -0.5v16l31 6q34 7 42.5 27t-6.5 77l-23 72h-201q-26 -77 -12 -115t71 -56l34 -11v-16q-23 0 -69.5 0.5t-70.5 0.5t-67.5 -0.5t-67.5 -0.5v16l24 8q45 15 73.5 53.5t64.5 134.5l108 303l54 164h120l186 -529
q25 -74 43 -99t46 -30zM283 502l-98 -281h186z" />
    <glyph glyph-name="aringacute" unicode="&#x1fb;" horiz-adv-x="578" 
d="M206 772h-7q36 54 53 113h149v-3q-28 -29 -85 -61t-110 -49zM357 643q0 -39 -26.5 -64.5t-67.5 -25.5t-67.5 25.5t-26.5 64.5t26.5 64.5t67.5 25.5t67.5 -25.5t26.5 -64.5zM263 568q29 0 45 21t16 54t-16 54t-45 21t-45.5 -21t-16.5 -54t16.5 -54t45.5 -21zM260 25
q25 0 40 21t15 64l1 145q-57 -9 -80.5 -42.5t-23.5 -103.5q0 -84 48 -84zM329 91q-5 -56 -41.5 -81t-105.5 -25q-83 0 -120.5 36.5t-37.5 89.5q0 72 64.5 107.5t227.5 48.5v96q0 74 -13.5 103t-54.5 29q-58 0 -58 -32q0 -13 13 -25.5t25.5 -30t12.5 -44.5q0 -41 -25 -64
t-67 -23t-68.5 26t-26.5 71q0 59 54 98.5t156 39.5q234 0 234 -195q0 -23 -0.5 -126t-0.5 -116q0 -37 25 -37q35 0 39 119h17q-1 -97 -28.5 -133t-90.5 -36q-119 0 -130 104z" />
    <glyph glyph-name="AEacute" unicode="&#x1fc;" horiz-adv-x="1039" 
d="M447 747h-7q36 61 53 125h149v-3q-28 -33 -85 -68t-110 -54zM460 263v396l-222 -396h222zM994 255v-255h-629v16l35 7q38 7 49 22t11 55v140h-235l-20 -36q-39 -69 -46.5 -105t7 -50.5t55.5 -24.5l32 -8v-16q-22 0 -66 0.5t-66 0.5t-65.5 -0.5t-65.5 -0.5v16l16 4
q53 13 83.5 46.5t94.5 146.5l171 302q34 60 34 92q0 38 -66 50l-33 6v16h681v-251h-21q-87 232 -220 232h-52v-301h6q44 0 74.5 35.5t62.5 128.5h14q-1 -58 -1 -175t1 -176h-14q-31 97 -61.5 132.5t-76.5 35.5h-5v-270q0 -51 44 -51h12q150 0 241 236h19z" />
    <glyph glyph-name="aeacute" unicode="&#x1fd;" horiz-adv-x="817" 
d="M370 578h-6q54 102 67 172h118v-3q-23 -45 -70.5 -90.5t-108.5 -78.5zM619 299l1 26q4 167 -48 167q-30 0 -44 -44t-16 -158zM791 123q-76 -139 -216 -139q-150 0 -214 109q-38 -108 -179 -108q-83 0 -120.5 36.5t-37.5 89.5q0 72 64.5 107.5t227.5 48.5v96
q0 75 -13.5 103.5t-53.5 28.5q-59 0 -59 -32q0 -13 13 -25.5t25.5 -30t12.5 -44.5q0 -41 -25 -64t-67 -23t-68.5 26t-26.5 71q0 59 54 98.5t156 39.5q117 0 161 -59q55 57 148 57q109 0 164.5 -53t55.5 -151q0 -27 -1 -34h-280v-21q0 -213 121 -213q85 0 143 95zM260 25
q25 0 40 21t15 64l1 145q-57 -9 -80.5 -42.5t-23.5 -103.5q0 -84 48 -84z" />
    <glyph glyph-name="Oslashacute" unicode="&#x1fe;" horiz-adv-x="752" 
d="M309 747h-7q36 61 53 125h149v-3q-28 -33 -85 -68t-110 -54zM725 341q0 -89 -30.5 -159.5t-81 -113t-111.5 -65t-126 -22.5q-131 0 -228 79l-59 -70l-21 16l60 72q-101 99 -101 263q0 89 30.5 159t81 112t111.5 64t126 22q123 0 215 -68l51 60l21 -16l-51 -61
q113 -98 113 -272zM376 679q-68 0 -92.5 -86t-24.5 -252q0 -63 3 -117l222 296q-21 159 -108 159zM376 0q68 0 92.5 87.5t24.5 253.5q0 87 -5 140l-223 -296q20 -185 111 -185z" />
    <glyph glyph-name="oslashacute" unicode="&#x1ff;" horiz-adv-x="562" 
d="M231 578h-6q54 102 67 172h118v-3q-23 -45 -70.5 -90.5t-108.5 -78.5zM540 248q0 -129 -77.5 -196t-181.5 -67q-97 0 -168 55l-44 -51l-21 16l46 52q-72 72 -72 191q0 65 23 117t61 82.5t82.5 46t92.5 15.5q92 0 163 -52l43 50l21 -16l-45 -50q77 -72 77 -193zM218 197
l124 143q-3 81 -16.5 116.5t-44.5 35.5q-38 0 -50.5 -54t-12.5 -190v-51zM281 3q38 0 50.5 54t12.5 191v56l-125 -142q3 -85 16.5 -122t45.5 -37z" />
    <glyph glyph-name="Scommaaccent" unicode="&#x218;" horiz-adv-x="607" 
d="M567 209q0 -57 -23.5 -102t-61 -71.5t-81 -40t-88.5 -13.5q-126 0 -198 62l-51 -56h-9v298h15q63 -157 116 -221t126 -64q47 0 77.5 27t30.5 73q0 50 -36 81t-124 61q-103 35 -152 90.5t-49 138.5q0 99 74.5 162t186.5 63q88 0 154 -54l44 48h8v-263h-15
q-46 135 -90.5 192.5t-105.5 57.5q-52 0 -80.5 -28t-28.5 -74t39 -77t117 -58q105 -36 155 -88.5t50 -143.5zM277 -264l-11 16q33 18 53 46t19 57q-12 -28 -46 -28q-26 0 -41.5 16t-15.5 41q0 27 18.5 45t47.5 18q30 0 47 -19.5t17 -50.5q0 -47 -25.5 -83.5t-62.5 -57.5z
" />
    <glyph glyph-name="scommaaccent" unicode="&#x219;" horiz-adv-x="467" 
d="M442 158q0 -81 -54 -127t-149 -46q-99 0 -153 45l-38 -43h-8v219h15q40 -104 85 -153.5t100 -49.5q85 0 85 61q0 30 -30.5 52t-103.5 49q-149 56 -149 176q0 76 54 122t145 46q77 0 131 -39l34 38h8v-193h-15q-39 91 -76 134t-84 43q-37 0 -58.5 -16t-21.5 -45
q0 -31 31.5 -52t107.5 -50q144 -55 144 -171zM201 -264l-11 16q33 18 53 46t19 57q-12 -28 -46 -28q-26 0 -41.5 16t-15.5 41q0 27 18.5 45t47.5 18q30 0 47 -19.5t17 -50.5q0 -47 -25.5 -83.5t-62.5 -57.5z" />
    <glyph glyph-name="dotlessj" unicode="&#x237;" horiz-adv-x="366" 
d="M308 50q0 -153 -72.5 -224t-199.5 -71q-73 0 -112.5 32.5t-39.5 83.5q0 46 29.5 74.5t72.5 28.5q42 0 68 -24.5t26 -64.5q0 -25 -8.5 -43t-19 -25t-19 -15t-8.5 -16q0 -14 21 -14q30 0 53 34t23 100v484q0 32 -11 44.5t-42 14.5l-26 2v15l247 37l21 -7q-3 -65 -3 -130
v-316z" />
    <glyph glyph-name="circumflex" unicode="&#x2c6;" horiz-adv-x="574" 
d="M278 675l-130 -97h-5l114 172h68l104 -172h-8z" />
    <glyph glyph-name="caron" unicode="&#x2c7;" horiz-adv-x="574" 
d="M315 578h-68l-104 172h8l143 -97l130 97h5z" />
    <glyph glyph-name="breve" unicode="&#x2d8;" horiz-adv-x="547" 
d="M415 743q-15 -142 -130 -142t-130 142h7q18 -47 123 -47t123 47h7z" />
    <glyph glyph-name="dotaccent" unicode="&#x2d9;" horiz-adv-x="595" 
d="M365 672q0 -27 -18.5 -45.5t-46.5 -18.5q-29 0 -47.5 18.5t-18.5 45.5t18.5 46t47.5 19q28 0 46.5 -19t18.5 -46z" />
    <glyph glyph-name="ring" unicode="&#x2da;" horiz-adv-x="574" 
d="M386 657q0 -41 -28 -68t-71 -27t-71 27t-28 68t28 68t71 27t71 -27t28 -68zM222 657q0 -35 17 -57t48 -22t48 22t17 57t-17 57t-48 22t-48 -22t-17 -57z" />
    <glyph glyph-name="ogonek" unicode="&#x2db;" horiz-adv-x="542" 
d="M479 -140q-54 -104 -141 -104q-51 0 -84 22t-33 63q0 38 26 66t86 69q71 49 106 80l9 -8q-8 -7 -32.5 -29.5t-35 -34.5t-27 -33.5t-23 -44.5t-6.5 -49q0 -29 15 -44t37 -15q48 0 87 70z" />
    <glyph glyph-name="tilde" unicode="&#x2dc;" horiz-adv-x="574" 
d="M195 610l-3 -2q-17 26 -17 58t18 52t53 20q30 0 76 -26t65 -26q38 0 42 38h4q0 -58 -15 -86.5t-59 -28.5q-27 0 -73 26t-65 26q-29 0 -29 -31q0 -12 3 -20z" />
    <glyph glyph-name="hungarumlaut" unicode="&#x2dd;" horiz-adv-x="590" 
d="M326 578h-6q54 102 67 172h118v-3q-23 -45 -70.5 -90.5t-108.5 -78.5zM163 578h-6q54 102 67 172h118v-3q-23 -45 -70.5 -90.5t-108.5 -78.5z" />
    <glyph glyph-name="pi" unicode="&#x3c0;" horiz-adv-x="662" 
d="M581 0q-23 -4 -50 -4q-51 0 -79.5 30t-28.5 102v230h-169q0 -169 -40 -358h-40q52 221 52 358h-161l36 136h487v-136h-136v-229q0 -56 22.5 -78t62.5 -22q22 0 40 3z" />
    <glyph glyph-name="Wgrave" unicode="&#x1e80;" horiz-adv-x="1055" 
d="M685 747h-7q-53 19 -110 54t-85 68v3h149q17 -64 53 -125zM444 197l-53 -197h-115l-169 529q-23 73 -41.5 97.5t-51.5 31.5l-24 5v16q69 -1 207 -1t207 1v-16l-31 -6q-35 -7 -43 -27.5t7 -76.5l92 -334l123 460h116l125 -462l78 254q21 68 22 101.5t-17 50.5t-65 31
l-31 9v16q48 -1 143 -1t142 1v-16l-19 -6q-51 -16 -87.5 -59t-65.5 -131l-89 -276l-57 -191h-115l-122 440z" />
    <glyph glyph-name="wgrave" unicode="&#x1e81;" horiz-adv-x="771" 
d="M510 578h-6q-61 33 -108.5 78.5t-70.5 90.5v3h118q13 -70 67 -172zM206 0l-134 393q-15 45 -29 61.5t-37 21.5l-19 4v15q55 -1 165 -1t166 1v-15l-24 -4q-25 -4 -31.5 -19t3.5 -50l61 -210l83 298h87l94 -302l44 138q15 48 15 80q0 50 -70 65l-18 4v15q37 -1 113 -1
t114 1v-15l-18 -5q-39 -11 -66.5 -45.5t-51.5 -107.5l-105 -322h-87l-90 278l-78 -278h-87z" />
    <glyph glyph-name="Wacute" unicode="&#x1e82;" horiz-adv-x="1055" 
d="M514 747h-7q36 61 53 125h149v-3q-28 -33 -85 -68t-110 -54zM444 197l-53 -197h-115l-169 529q-23 73 -41.5 97.5t-51.5 31.5l-24 5v16q69 -1 207 -1t207 1v-16l-31 -6q-35 -7 -43 -27.5t7 -76.5l92 -334l123 460h116l125 -462l78 254q21 68 22 101.5t-17 50.5t-65 31
l-31 9v16q48 -1 143 -1t142 1v-16l-19 -6q-51 -16 -87.5 -59t-65.5 -131l-89 -276l-57 -191h-115l-122 440z" />
    <glyph glyph-name="wacute" unicode="&#x1e83;" horiz-adv-x="771" 
d="M376 578h-6q54 102 67 172h118v-3q-23 -45 -70.5 -90.5t-108.5 -78.5zM371 278l-78 -278h-87l-134 393q-15 45 -29 61.5t-37 21.5l-19 4v15q55 -1 165 -1t166 1v-15l-24 -4q-25 -4 -31.5 -19t3.5 -50l61 -210l83 298h87l94 -302l44 138q15 48 15 80q0 50 -70 65l-18 4v15
q37 -1 113 -1t114 1v-15l-18 -5q-39 -11 -66.5 -45.5t-51.5 -107.5l-105 -322h-87z" />
    <glyph glyph-name="Wdieresis" unicode="&#x1e84;" horiz-adv-x="1055" 
d="M526 811q0 -27 -18.5 -45.5t-47.5 -18.5q-28 0 -46.5 18.5t-18.5 45.5t18.5 46t46.5 19q29 0 47.5 -19t18.5 -46zM751 811q0 -27 -18.5 -45.5t-46.5 -18.5q-29 0 -47.5 18.5t-18.5 45.5t18.5 46t47.5 19q28 0 46.5 -19t18.5 -46zM276 0l-169 529q-23 73 -41.5 97.5
t-51.5 31.5l-24 5v16q69 -1 207 -1t207 1v-16l-31 -6q-35 -7 -43 -27.5t7 -76.5l92 -334l123 460h116l125 -462l78 254q21 68 22 101.5t-17 50.5t-65 31l-31 9v16q48 -1 143 -1t142 1v-16l-19 -6q-51 -16 -87.5 -59t-65.5 -131l-89 -276l-57 -191h-115l-122 440l-66 -243
l-53 -197h-115z" />
    <glyph glyph-name="wdieresis" unicode="&#x1e85;" horiz-adv-x="771" 
d="M388 672q0 -27 -18.5 -45.5t-47.5 -18.5q-28 0 -46.5 18.5t-18.5 45.5t18.5 46t46.5 19q29 0 47.5 -19t18.5 -46zM613 672q0 -27 -18.5 -45.5t-46.5 -18.5q-29 0 -47.5 18.5t-18.5 45.5t18.5 46t47.5 19q28 0 46.5 -19t18.5 -46zM371 278l-78 -278h-87l-134 393
q-15 45 -29 61.5t-37 21.5l-19 4v15q55 -1 165 -1t166 1v-15l-24 -4q-25 -4 -31.5 -19t3.5 -50l61 -210l83 298h87l94 -302l44 138q15 48 15 80q0 50 -70 65l-18 4v15q37 -1 113 -1t114 1v-15l-18 -5q-39 -11 -66.5 -45.5t-51.5 -107.5l-105 -322h-87z" />
    <glyph glyph-name="Ygrave" unicode="&#x1ef2;" horiz-adv-x="740" 
d="M473 747h-7q-53 19 -110 54t-85 68v3h149q17 -64 53 -125zM582 0q-36 0 -107 0.5t-107 0.5t-107.5 -0.5t-107.5 -0.5v16l37 7q43 8 55.5 22.5t12.5 54.5v169l-145 289q-26 52 -46.5 73t-51.5 27l-25 5v16q71 -1 214 -1q142 0 213 1v-16l-38 -8q-22 -4 -30.5 -15.5
t-5.5 -29.5t17 -50l104 -239l75 161q36 76 36 118q0 39 -72 56l-30 7v16q46 -1 139 -1q92 0 138 1v-16l-20 -6q-45 -14 -84.5 -53t-85.5 -134l-83 -171v-199q0 -40 12.5 -54.5t55.5 -22.5l37 -7v-16z" />
    <glyph glyph-name="ygrave" unicode="&#x1ef3;" horiz-adv-x="563" 
d="M376 578h-6q-61 33 -108.5 78.5t-70.5 90.5v3h118q13 -70 67 -172zM295 -42q-47 -114 -86.5 -157t-110.5 -43q-53 0 -83 30.5t-30 75.5q0 42 26 71t75 30q69 1 86 -58q3 -9 4.5 -25t2.5 -20q4 -17 16 -17q34 0 78 125l5 14l-190 405q-22 48 -36.5 65t-40.5 22l-20 4v15
q57 -1 170 -1q112 0 168 1v-15l-23 -4q-48 -9 -24 -65l91 -214l53 135q22 55 22 87q0 41 -64 56l-21 5v15q36 -1 109 -1q72 0 109 1v-15l-10 -3q-45 -14 -69 -43.5t-57 -109.5z" />
    <glyph glyph-name="endash" unicode="&#x2013;" horiz-adv-x="499" 
d="M25 231v39h449v-39h-449z" />
    <glyph glyph-name="emdash" unicode="&#x2014;" horiz-adv-x="917" 
d="M25 231v39h867v-39h-867z" />
    <glyph glyph-name="quoteleft" unicode="&#x2018;" horiz-adv-x="288" 
d="M203 750l12 -20q-56 -30 -89.5 -75.5t-33.5 -89.5q0 -11 9 -11q3 0 20.5 14t45.5 14q30 0 50.5 -22t20.5 -56q0 -35 -25.5 -59t-63.5 -24q-47 0 -73 32t-26 85q0 64 44 122t109 90z" />
    <glyph glyph-name="quoteright" unicode="&#x2019;" horiz-adv-x="298" 
d="M85 413l-12 20q56 30 89.5 75.5t33.5 89.5q0 11 -9 11q-3 0 -20.5 -14t-45.5 -14q-30 0 -50.5 22t-20.5 56q0 35 25.5 59t63.5 24q47 0 73 -32t26 -85q0 -64 -44 -122t-109 -90z" />
    <glyph glyph-name="quotesinglbase" unicode="&#x201a;" horiz-adv-x="298" 
d="M85 -152l-12 20q56 30 89.5 75.5t33.5 89.5q0 11 -9 11q-3 0 -20.5 -14t-45.5 -14q-30 0 -50.5 22t-20.5 56q0 35 25.5 59t63.5 24q47 0 73 -32t26 -85q0 -64 -44 -122t-109 -90z" />
    <glyph glyph-name="quotedblleft" unicode="&#x201c;" horiz-adv-x="505" 
d="M430 750l12 -20q-56 -30 -89.5 -75.5t-33.5 -89.5q0 -11 9 -11q3 0 20.5 14t45.5 14q30 0 50.5 -22t20.5 -56q0 -35 -25.5 -59t-63.5 -24q-47 0 -73 32t-26 85q0 64 44 122t109 90zM213 750l12 -20q-56 -30 -89.5 -75.5t-33.5 -89.5q0 -11 9 -11q3 0 20.5 14t45.5 14
q30 0 50.5 -22t20.5 -56q0 -35 -25.5 -59t-63.5 -24q-47 0 -73 32t-26 85q0 64 44 122t109 90z" />
    <glyph glyph-name="quotedblright" unicode="&#x201d;" horiz-adv-x="514" 
d="M301 413l-12 20q56 30 89.5 75.5t33.5 89.5q0 11 -9 11q-3 0 -20.5 -14t-45.5 -14q-30 0 -50.5 22t-20.5 56q0 35 25.5 59t63.5 24q47 0 73 -32t26 -85q0 -64 -44 -122t-109 -90zM85 413l-12 20q56 30 89.5 75.5t33.5 89.5q0 11 -9 11q-3 0 -20.5 -14t-45.5 -14
q-30 0 -50.5 22t-20.5 56q0 35 25.5 59t63.5 24q47 0 73 -32t26 -85q0 -64 -44 -122t-109 -90z" />
    <glyph glyph-name="quotedblbase" unicode="&#x201e;" horiz-adv-x="514" 
d="M301 -152l-12 20q56 30 89.5 75.5t33.5 89.5q0 11 -9 11q-3 0 -20.5 -14t-45.5 -14q-30 0 -50.5 22t-20.5 56q0 35 25.5 59t63.5 24q47 0 73 -32t26 -85q0 -64 -44 -122t-109 -90zM85 -152l-12 20q56 30 89.5 75.5t33.5 89.5q0 11 -9 11q-3 0 -20.5 -14t-45.5 -14
q-30 0 -50.5 22t-20.5 56q0 35 25.5 59t63.5 24q47 0 73 -32t26 -85q0 -64 -44 -122t-109 -90z" />
    <glyph glyph-name="dagger" unicode="&#x2020;" horiz-adv-x="483" 
d="M244 125h-6q-6 100 -29 181.5t-23 101.5q0 30 25 66.5t25 62.5q-26 -1 -57 -30.5t-62 -29.5q-29 0 -45.5 18.5t-16.5 46.5t16.5 46.5t45.5 18.5q31 0 62 -29t57 -30q-1 26 -31 58.5t-30 63.5q0 29 19 45.5t47 16.5t47 -16.5t19 -45.5q0 -31 -29.5 -63.5t-30.5 -58.5
q26 1 57 30t62 29q29 0 45.5 -18.5t16.5 -46.5t-16.5 -46.5t-45.5 -18.5q-31 0 -62 29.5t-57 30.5q0 -26 24.5 -62.5t24.5 -66.5q0 -20 -23 -101.5t-29 -181.5z" />
    <glyph glyph-name="daggerdbl" unicode="&#x2021;" horiz-adv-x="483" 
d="M244 0h-6q-5 70 -18 121t-23.5 79.5t-10.5 50.5q0 28 25 63t25 59q-26 -1 -57 -30.5t-62 -29.5q-29 0 -45.5 18.5t-16.5 46.5t16.5 46.5t45.5 18.5q31 0 62 -29t57 -30q-1 17 -21 40t-20 44q0 18 20 40.5t21 38.5q-26 -1 -57 -30.5t-62 -29.5q-29 0 -45.5 18.5
t-16.5 46.5t16.5 46.5t45.5 18.5q31 0 62 -29t57 -30q-1 24 -31 54t-30 58q0 29 19 45.5t47 16.5t47 -16.5t19 -45.5q0 -28 -29.5 -58t-30.5 -54q26 1 57 30t62 29q29 0 45.5 -18.5t16.5 -46.5t-16.5 -46.5t-45.5 -18.5q-31 0 -62 29.5t-57 30.5q1 -15 20.5 -38t19.5 -41
q0 -21 -19.5 -44t-20.5 -40q26 1 57 30t62 29q29 0 45.5 -18.5t16.5 -46.5t-16.5 -46.5t-45.5 -18.5q-31 0 -62 29.5t-57 30.5q0 -24 24.5 -59t24.5 -63q0 -22 -10.5 -50.5t-23.5 -79.5t-18 -121z" />
    <glyph glyph-name="bullet" unicode="&#x2022;" horiz-adv-x="422" 
d="M342 251q0 -55 -38.5 -93t-93.5 -38t-92.5 38t-37.5 93t37.5 93.5t92.5 38.5t93.5 -38.5t38.5 -93.5z" />
    <glyph glyph-name="ellipsis" unicode="&#x2026;" horiz-adv-x="825" 
d="M245 82q0 -41 -28 -68.5t-69 -27.5q-42 0 -70 27.5t-28 68.5t28 68t70 27q41 0 69 -27.5t28 -67.5zM510 82q0 -41 -28 -68.5t-69 -27.5q-42 0 -70 27.5t-28 68.5t28 68t70 27q41 0 69 -27.5t28 -67.5zM775 82q0 -41 -28 -68.5t-69 -27.5q-42 0 -70 27.5t-28 68.5t28 68
t70 27q41 0 69 -27.5t28 -67.5z" />
    <glyph glyph-name="perthousand" unicode="&#x2030;" horiz-adv-x="1044" 
d="M357 492q0 -75 -48.5 -116.5t-117.5 -41.5q-68 0 -117 41.5t-49 116.5t48.5 116t117.5 41t117.5 -41t48.5 -116zM47 0l280 326l257 309h46l-282 -328l-254 -307h-47zM191 349q27 0 36 28.5t9 114.5t-9 114t-36 28q-26 0 -35 -28t-9 -114t9 -114.5t35 -28.5zM853 -15
q-69 0 -117.5 41.5t-48.5 116.5t48.5 116t117.5 41t117.5 -41t48.5 -116t-48.5 -116.5t-117.5 -41.5zM489 -15q-69 0 -117.5 41.5t-48.5 116.5t48.5 116t117.5 41t117.5 -41t48.5 -116t-48.5 -116.5t-117.5 -41.5zM853 0q27 0 36 28.5t9 114.5t-9 114t-36 28
q-26 0 -35.5 -28.5t-9.5 -113.5t9.5 -114t35.5 -29zM489 0q27 0 36 28.5t9 114.5t-9 114t-36 28q-26 0 -35.5 -28.5t-9.5 -113.5t9.5 -114t35.5 -29z" />
    <glyph glyph-name="guilsinglleft" unicode="&#x2039;" horiz-adv-x="324" 
d="M245 60l-195 178v26l195 178h14l-93 -191l93 -191h-14z" />
    <glyph glyph-name="guilsinglright" unicode="&#x203a;" horiz-adv-x="324" 
d="M274 238l-195 -178h-14l93 191l-93 191h14l195 -178v-26z" />
    <glyph glyph-name="asterism" unicode="&#x2042;" horiz-adv-x="775" 
d="M324 425q-5 -18 -20 -26.5t-34 -3.5t-28 20.5t-4 32.5q4 17 16.5 29t27.5 30t25 47q-37 -11 -62 -38t-43 -31q-18 -5 -33 3.5t-21 27.5q-5 19 4 34.5t26 20.5q15 4 54 -5t73 -2q-25 22 -63.5 34t-49.5 23q-13 12 -13.5 30t14.5 33q15 13 32 12.5t30 -12.5
q13 -13 21.5 -49t35.5 -64q8 39 -2.5 73.5t-5.5 52.5t20.5 26.5t34.5 3.5t28 -20t4 -33t-31 -43.5t-38 -62.5q37 11 62 38t43 31q18 5 33 -3.5t21 -27.5q5 -19 -4 -34.5t-26 -20.5q-15 -4 -54.5 5t-72.5 2q25 -22 63.5 -34t49.5 -23q13 -12 13.5 -30t-14.5 -33
q-15 -13 -32 -12.5t-30 12.5q-14 14 -22 49.5t-35 63.5q-8 -38 2 -73t5 -53zM607 129q-5 -18 -20 -26.5t-34 -3.5t-28 20.5t-4 32.5q4 17 16.5 29t27.5 30t25 47q-37 -11 -62 -38t-43 -31q-18 -5 -33 3.5t-21 27.5q-5 19 4 34.5t26 20.5q15 4 54 -5t73 -2q-25 22 -63.5 34
t-49.5 23q-13 12 -13.5 30t14.5 33q15 13 32 12.5t30 -12.5q13 -13 21.5 -49t35.5 -64q8 39 -2.5 73.5t-5.5 52.5t20.5 26.5t34.5 3.5t28 -20t4 -33t-31 -43.5t-38 -62.5q37 11 62 38t43 31q18 5 33 -3.5t21 -27.5q5 -19 -4 -34.5t-26 -20.5q-15 -4 -54.5 5t-72.5 2
q25 -22 63.5 -34t49.5 -23q13 -12 13.5 -30t-14.5 -33q-15 -13 -32 -12.5t-30 12.5q-14 14 -22 49.5t-35 63.5q-8 -38 2 -73t5 -53zM208 23q-5 -18 -20 -26.5t-34 -3.5t-28 20.5t-4 32.5q4 17 16.5 29t27.5 30t25 47q-37 -11 -62 -38t-43 -31q-18 -5 -33 3.5t-21 27.5
q-5 19 4 34.5t26 20.5q15 4 54 -5t73 -2q-25 22 -63.5 34t-49.5 23q-13 12 -13.5 30t14.5 33q15 13 32 12.5t30 -12.5q13 -13 21.5 -49t35.5 -64q8 39 -2.5 73.5t-5.5 52.5t20.5 26.5t34.5 3.5t28 -20t4 -33t-31 -43.5t-38 -62.5q37 11 62 38t43 31q18 5 33 -3.5t21 -27.5
q5 -19 -4 -34.5t-26 -20.5q-15 -4 -54.5 5t-72.5 2q25 -22 63.5 -34t49.5 -23q13 -12 13.5 -30t-14.5 -33q-15 -13 -32 -12.5t-30 12.5q-14 14 -22 49.5t-35 63.5q-8 -38 2 -73t5 -53z" />
    <glyph glyph-name="fraction" unicode="&#x2044;" horiz-adv-x="668" 
d="M109 -15l-36 23l253 338l234 348l36 -23l-253 -337z" />
    <glyph glyph-name="zero.sups" unicode="&#x2070;" horiz-adv-x="410" 
d="M383 677q0 -92 -52 -140.5t-126 -48.5t-126 48.5t-52 140.5q0 93 52 142t126 49t126 -49t52 -142zM160 679q0 -102 10 -137.5t35 -35.5t34.5 35.5t9.5 137.5q0 101 -9.5 136t-34.5 35t-35 -35.5t-10 -135.5z" />
    <glyph glyph-name="four.sups" unicode="&#x2074;" horiz-adv-x="389" 
d="M167 626v99l3 82l-120 -180zM344 516v-16h-241v15l56 11q8 2 8 10v66h-143l-4 19l155 235h111v-230h9q13 0 19.5 6t12.5 23l13 35h16l-10 -88h-60v-66q0 -9 8 -10z" />
    <glyph glyph-name="five.sups" unicode="&#x2075;" horiz-adv-x="382" 
d="M148 488q-58 0 -87 23.5t-29 56.5q0 28 14.5 43.5t39.5 15.5q26 0 40.5 -14.5t14.5 -36.5q0 -24 -15 -37t-37 -13q22 -20 50 -20q35 0 54.5 27t19.5 73q0 44 -10.5 65.5t-37.5 21.5q-37 0 -62 -40l-44 8l28 195h25q40 -16 113 -16q72 0 97 18l12 -6q-14 -51 -41.5 -75.5
t-85.5 -24.5q-57 0 -111 9l-12 -78q44 30 105 30q153 0 153 -104q0 -43 -33 -71.5t-74.5 -39t-86.5 -10.5z" />
    <glyph glyph-name="six.sups" unicode="&#x2076;" horiz-adv-x="396" 
d="M365 616q0 -63 -48 -95.5t-115 -32.5q-75 0 -122 41.5t-47 126.5q0 94 56 153t148 59q58 0 88.5 -22.5t30.5 -53.5q0 -27 -16 -40.5t-37 -13.5q-23 0 -38.5 13.5t-15.5 34.5t13 35.5t35 14.5q-17 14 -49 14q-50 0 -74 -54t-24 -171q5 49 27 72t66 23q53 0 87.5 -26.5
t34.5 -77.5zM162 596q0 -90 42 -90q40 0 40 103q0 77 -38 77q-44 0 -44 -90z" />
    <glyph glyph-name="seven.sups" unicode="&#x2077;" horiz-adv-x="343" 
d="M165 485q-30 0 -46 17t-16 42q0 74 90 150q10 8 36.5 32t40.5 36h-158q-19 0 -26.5 -3.5t-12.5 -15.5l-12 -25h-22l27 155h17q1 -17 19 -17h231v-36l-11 -14q-5 -7 -15 -19l-19 -24h-1q-25 -32 -34 -49q-12 -23 -17 -46t-5.5 -37t1 -42t1.5 -42q0 -26 -17 -44t-51 -18z
" />
    <glyph glyph-name="eight.sups" unicode="&#x2078;" horiz-adv-x="386" 
d="M197 488q-74 0 -118.5 21t-44.5 63q0 30 22 50.5t57 28.5q-70 40 -70 104q0 55 42.5 84t106.5 29q58 0 98.5 -19t40.5 -60q0 -46 -71 -66q92 -42 92 -113q0 -60 -44 -91t-111 -31zM238 732q22 33 22 62q0 56 -70 56q-30 0 -45.5 -11t-15.5 -28q0 -24 23.5 -39t85.5 -40z
M195 506q35 0 53 14t18 33q0 6 -1.5 11.5t-6 10.5t-8.5 9.5t-12 9t-13.5 7.5t-16 8t-16.5 7t-19 7.5t-18 7.5l-17 8q-21 -29 -21 -65q0 -68 78 -68z" />
    <glyph glyph-name="nine.sups" unicode="&#x2079;" horiz-adv-x="396" 
d="M233 760q0 90 -42 90q-40 0 -40 -103q0 -77 38 -77q44 0 44 90zM158 488q-58 0 -88.5 22.5t-30.5 53.5q0 27 16 40.5t37 13.5q23 0 38.5 -13.5t15.5 -34.5t-13 -35.5t-35 -14.5q17 -14 49 -14q50 0 74 54t24 171q-5 -49 -27 -72t-66 -23q-53 0 -87.5 26.5t-34.5 77.5
q0 63 48 95.5t115 32.5q75 0 122 -41.5t47 -126.5q0 -94 -56 -153t-148 -59z" />
    <glyph glyph-name="plus.sups" unicode="&#x207a;" horiz-adv-x="372" 
d="M205 659v-119h-38v119h-119v38h119v118h38v-118h119v-38h-119z" />
    <glyph glyph-name="minus.sups" unicode="&#x207b;" horiz-adv-x="372" 
d="M48 659v38h276v-38h-276z" />
    <glyph glyph-name="equal.sups" unicode="&#x207c;" horiz-adv-x="372" 
d="M48 718v38h276v-38h-276zM48 599v37h276v-37h-276z" />
    <glyph glyph-name="parenleft.sups" unicode="&#x207d;" horiz-adv-x="264" 
d="M233 409l-7 -7q-163 110 -163 274v4q0 164 163 274l7 -7q-30 -31 -51 -102.5t-21 -164.5v-4q0 -93 21 -164.5t51 -102.5z" />
    <glyph glyph-name="parenright.sups" unicode="&#x207e;" horiz-adv-x="264" 
d="M38 402l-7 7q30 31 51 102.5t21 164.5v4q0 93 -21 164.5t-51 102.5l7 7q163 -110 163 -274v-4q0 -164 -163 -274z" />
    <glyph glyph-name="n.sups" unicode="&#x207f;" horiz-adv-x="486" 
d="M236 522v-22h-217v19l45 11q10 2 10 13v253q0 10 -10 11l-49 5v17l143 28l31 -8l4 -104q5 53 31 83t85 30q55 0 83.5 -31.5t28.5 -91.5v-192q0 -10 11 -13l44 -11v-19h-218v22l21 6q9 3 9 14v217q0 61 -32 61q-49 0 -49 -117v-161q0 -11 9 -14z" />
    <glyph glyph-name="zero.sinf" unicode="&#x2080;" horiz-adv-x="410" 
d="M383 13q0 -92 -52 -140.5t-126 -48.5t-126 48.5t-52 140.5q0 93 52 142t126 49t126 -49t52 -142zM160 15q0 -102 10 -137.5t35 -35.5t34.5 35.5t9.5 137.5q0 101 -9.5 136t-34.5 35t-35 -35.5t-10 -135.5z" />
    <glyph glyph-name="one.sinf" unicode="&#x2081;" horiz-adv-x="357" 
d="M53 -164v16l60 12q9 2 9 9v261q0 13 -16 15l-56 6v16l52 6q75 8 119 25h27q-3 -42 -3 -81v-248q0 -8 8 -9l58 -10v-18h-258z" />
    <glyph glyph-name="two.sinf" unicode="&#x2082;" horiz-adv-x="390" 
d="M335 -164h-287l-5 48q89 61 131 108q41 44 41 114q0 80 -64 80q-50 0 -71 -36q8 3 18 3q21 0 35 -14.5t14 -35.5q0 -23 -16.5 -39t-40.5 -16q-25 0 -41 16.5t-16 43.5q0 40 36 68t107 28q70 0 117.5 -27t47.5 -77q0 -11 -2 -20.5t-7 -18t-9 -15t-13.5 -14t-14.5 -11.5
t-18.5 -11t-19 -9.5t-21.5 -10.5t-21 -10q-45 -21 -89 -49h156q18 0 25 4.5t12 17.5l12 33h19z" />
    <glyph glyph-name="three.sinf" unicode="&#x2083;" horiz-adv-x="390" 
d="M159 -176q-57 0 -92.5 24t-35.5 58q0 27 16 42t41 15q26 0 40.5 -14.5t14.5 -35.5q0 -23 -15 -37t-33 -14q20 -20 50 -20q34 0 59.5 30.5t24.5 73.5q-1 40 -10 57.5t-31 17.5q-13 0 -31 -13.5t-33 -13.5q-26 0 -24 31q27 11 81 15q46 28 46 79q0 67 -59 67q-38 0 -63 -23
l12 2q19 0 31 -13.5t12 -35.5t-15 -36.5t-39 -14.5t-38.5 14t-14.5 38q0 40 36.5 63.5t97.5 23.5q71 0 110.5 -22.5t39.5 -57.5q0 -15 -5 -26.5t-11.5 -18t-22 -13t-25 -9.5t-33.5 -9.5t-36 -9.5v-4q22 2 38 2q51 0 83 -21.5t32 -57.5q0 -65 -57 -99t-141 -34z" />
    <glyph glyph-name="four.sinf" unicode="&#x2084;" horiz-adv-x="385" 
d="M167 -38v99l3 82l-120 -180zM344 -148v-16h-241v15l56 11q8 2 8 10v66h-143l-4 19l155 235h111v-230h9q13 0 19.5 6t12.5 23l13 35h16l-10 -88h-60v-66q0 -9 8 -10z" />
    <glyph glyph-name="five.sinf" unicode="&#x2085;" horiz-adv-x="382" 
d="M148 -176q-58 0 -87 23.5t-29 56.5q0 28 14.5 43.5t39.5 15.5q26 0 40.5 -14.5t14.5 -36.5q0 -24 -15 -37t-37 -13q22 -20 50 -20q35 0 54.5 27t19.5 73q0 44 -10.5 65.5t-37.5 21.5q-37 0 -62 -40l-44 8l28 195h25q40 -16 113 -16q72 0 97 18l12 -6q-14 -51 -41.5 -75.5
t-85.5 -24.5q-57 0 -111 9l-12 -78q44 30 105 30q153 0 153 -104q0 -43 -33 -71.5t-74.5 -39t-86.5 -10.5z" />
    <glyph glyph-name="six.sinf" unicode="&#x2086;" horiz-adv-x="396" 
d="M365 -48q0 -63 -48 -95.5t-115 -32.5q-75 0 -122 41.5t-47 126.5q0 94 56 153t148 59q58 0 88.5 -22.5t30.5 -53.5q0 -27 -16 -40.5t-37 -13.5q-23 0 -38.5 13.5t-15.5 34.5t13 35.5t35 14.5q-17 14 -49 14q-50 0 -74 -54t-24 -171q5 49 27 72t66 23q53 0 87.5 -26.5
t34.5 -77.5zM162 -68q0 -90 42 -90q40 0 40 103q0 77 -38 77q-44 0 -44 -90z" />
    <glyph glyph-name="seven.sinf" unicode="&#x2087;" horiz-adv-x="343" 
d="M165 -179q-30 0 -46 17t-16 42q0 74 90 150q10 8 36.5 32t40.5 36h-158q-19 0 -26.5 -3.5t-12.5 -15.5l-12 -25h-22l27 155h17q1 -17 19 -17h231v-36l-11 -14q-5 -7 -15 -19l-19 -24h-1q-25 -32 -34 -49q-12 -23 -17 -46t-5.5 -37t1 -42t1.5 -42q0 -26 -17 -44t-51 -18z
" />
    <glyph glyph-name="eight.sinf" unicode="&#x2088;" horiz-adv-x="386" 
d="M197 -176q-74 0 -118.5 21t-44.5 63q0 30 22 50.5t57 28.5q-70 40 -70 104q0 55 42.5 84t106.5 29q58 0 98.5 -19t40.5 -60q0 -46 -71 -66q92 -42 92 -113q0 -60 -44 -91t-111 -31zM238 68q22 33 22 62q0 56 -70 56q-30 0 -45.5 -11t-15.5 -28q0 -24 23.5 -39t85.5 -40z
M195 -158q35 0 53 14t18 33q0 6 -1.5 11.5t-6 10.5t-8.5 9.5t-12 9t-13.5 7.5t-16 8t-16.5 7t-19 7.5t-18 7.5l-17 8q-21 -29 -21 -65q0 -68 78 -68z" />
    <glyph glyph-name="nine.sinf" unicode="&#x2089;" horiz-adv-x="396" 
d="M233 96q0 90 -42 90q-40 0 -40 -103q0 -77 38 -77q44 0 44 90zM158 -176q-58 0 -88.5 22.5t-30.5 53.5q0 27 16 40.5t37 13.5q23 0 38.5 -13.5t15.5 -34.5t-13 -35.5t-35 -14.5q17 -14 49 -14q50 0 74 54t24 171q-5 -49 -27 -72t-66 -23q-53 0 -87.5 26.5t-34.5 77.5
q0 63 48 95.5t115 32.5q75 0 122 -41.5t47 -126.5q0 -94 -56 -153t-148 -59z" />
    <glyph glyph-name="parenleft.sinf" unicode="&#x208d;" horiz-adv-x="264" 
d="M233 -255l-7 -7q-163 110 -163 274v4q0 164 163 274l7 -7q-30 -31 -51 -102.5t-21 -164.5v-4q0 -93 21 -164.5t51 -102.5z" />
    <glyph glyph-name="parenright.sinf" unicode="&#x208e;" horiz-adv-x="264" 
d="M38 -262l-7 7q30 31 51 102.5t21 164.5v4q0 93 -21 164.5t-51 102.5l7 7q163 -110 163 -274v-4q0 -164 -163 -274z" />
    <glyph glyph-name="franc" unicode="&#x20a3;" horiz-adv-x="654" 
d="M434 16v-16q-35 0 -105 0.5t-105 0.5t-105.5 -0.5t-105.5 -0.5v16l35 7q38 7 49 22t11 55v434q0 40 -11 55t-49 22l-35 7v16h599v-271h-21q-91 252 -222 252h-43v-283h6q43 0 70.5 34.5t59.5 129.5h14q-1 -58 -1 -175t1 -176h-14q-32 99 -59 133.5t-72 34.5h-5v-208
q0 -41 13 -58t55 -24z" />
    <glyph glyph-name="Euro" unicode="&#x20ac;" horiz-adv-x="612" 
d="M554 -13l-33 46q-58 -53 -142 -53q-104 0 -186.5 61.5t-108.5 178.5l-63 16v16l56 10q-3 26 -3 52q0 16 2 42l-55 16v16l61 11q23 122 107 186t190 64q89 0 144 -52l31 44h7v-246h-13q-42 129 -79.5 182t-86.5 53q-50 0 -73 -57t-28 -176h166l-7 -28l-161 -6v-49
q0 -37 1 -53h139l-7 -28l-131 -7q5 -117 28 -172t73 -55q48 0 86 54t80 181h13v-247h-7z" />
    <glyph glyph-name="litre" unicode="&#x2113;" horiz-adv-x="457" 
d="M228 -15q-68 0 -103.5 37.5t-35.5 104.5v69q-22 -12 -70 -36l-7 16q48 23 77 40v328q0 65 42.5 107t118.5 42q141 0 141 -145q0 -122 -133 -237v-215q0 -58 42 -58q53 0 81 120l17 -3q-19 -90 -55 -130t-115 -40zM258 338l4 4q102 101 102 206q0 96 -61 96q-45 0 -45 -68
v-238z" />
    <glyph glyph-name="servicemark" unicode="&#x2120;" horiz-adv-x="879" 
d="M521 365l-69 190l-21 72h-2v-219q0 -14 12 -18l37 -11v-13h-122v13l38 11q12 4 12 18v240q0 8 -9 10l-41 8v13h156l54 -153l21 -74h2l79 227h136v-8l-26 -8q-9 -1 -9 -11v-254q0 -10 9 -11l26 -8v-13h-166v13l27 8q9 2 9 11v227h-2l-92 -260h-59zM322 462
q0 -49 -37 -77.5t-91 -28.5q-60 0 -93 33l-13 -30h-13l2 124h17l13 -33q29 -76 90 -76q27 0 42 13t15 32t-16 33.5t-57 29.5q-53 18 -76 40.5t-23 59.5q0 48 34 77.5t87 29.5q52 0 85 -28l12 25h13l-2 -109h-18l-11 26q-15 35 -31.5 51t-43.5 16q-26 0 -41.5 -13t-15.5 -31
q0 -19 17.5 -32t58.5 -27q54 -18 75 -42t21 -63z" />
    <glyph glyph-name="trademark" unicode="&#x2122;" horiz-adv-x="939" 
d="M319 379v-13h-183v13l34 8q10 1 10 12v260h-26q-22 0 -31 -7.5t-17 -29.5l-19 -61h-17v118h315v-118h-16l-20 61q-8 21 -17.5 29t-30.5 8h-26v-260q0 -11 10 -12zM581 365l-69 190l-21 72h-2v-219q0 -14 12 -18l37 -11v-13h-122v13l38 11q12 4 12 18v240q0 8 -9 10l-41 8
v13h156l54 -153l21 -74h2l79 227h136v-8l-26 -8q-9 -1 -9 -11v-254q0 -10 9 -11l26 -8v-13h-166v13l27 8q9 2 9 11v227h-2l-92 -260h-59z" />
    <glyph glyph-name="ohm" unicode="&#x2126;" horiz-adv-x="742" 
d="M67 0v33h227q-239 143 -239 350q0 149 91 229t225 80t225 -80t91 -229q0 -205 -239 -350h226v-33h-254v46q61 91 61 338q0 286 -110 286q-111 0 -111 -286q0 -247 60 -338v-46h-253z" />
    <glyph glyph-name="estimated" unicode="&#x212e;" horiz-adv-x="755" 
d="M538 358v277q-65 34 -155 34q-92 0 -165 -44v-267h320zM672 145q-97 -159 -299 -159q-147 0 -240 96t-93 258q0 161 97.5 256.5t245.5 95.5q150 0 241 -85.5t91 -245.5q0 -21 -1 -31h-496v-281q69 -40 158 -40q177 0 268 147z" />
    <glyph glyph-name="arrowleft" unicode="&#x2190;" horiz-adv-x="900" 
d="M440 22l-9 -5q-129 126 -317 220q-14 7 -14 14q0 6 14 14q188 94 317 220l9 -5q-26 -59 -75.5 -121t-91.5 -93q48 0 246.5 9.5t280.5 10.5v-70q-82 1 -280.5 10.5t-246.5 9.5q42 -31 91.5 -93t75.5 -121z" />
    <glyph glyph-name="arrowup" unicode="&#x2191;" horiz-adv-x="900" 
d="M485 -99h-70q1 82 10.5 280.5t9.5 246.5q-31 -42 -93 -91.5t-121 -75.5l-5 9q126 129 220 317q7 14 14 14q6 0 14 -14q94 -188 220 -317l-5 -9q-59 26 -121 75.5t-93 91.5q0 -48 9.5 -246.5t10.5 -280.5z" />
    <glyph glyph-name="arrowright" unicode="&#x2192;" horiz-adv-x="900" 
d="M469 17l-9 5q26 59 75.5 121t91.5 93q-48 0 -246.5 -9.5t-280.5 -10.5v70q82 -1 280.5 -10.5t246.5 -9.5q-42 31 -91.5 93t-75.5 121l9 5q129 -126 317 -220q14 -8 14 -14q0 -7 -14 -14q-188 -94 -317 -220z" />
    <glyph glyph-name="arrowdown" unicode="&#x2193;" horiz-adv-x="900" 
d="M464 -85q-7 -14 -14 -14q-6 0 -14 14q-94 188 -220 317l5 9q59 -26 121 -75.5t93 -91.5q0 48 -9.5 246.5t-10.5 280.5h70q-1 -82 -10.5 -280.5t-9.5 -246.5q31 42 93 91.5t121 75.5l5 -9q-126 -129 -220 -317z" />
    <glyph glyph-name="arrownorthwest" unicode="&#x2196;" horiz-adv-x="900" 
d="M711 39l-50 -50q-57 59 -190.5 206t-167.5 181q8 -51 -1 -130t-32 -140l-10 3q-3 183 -69 380q-5 15 0 20q4 4 20 0q197 -66 380 -69l3 -10q-61 -23 -140 -32t-130 -1q34 -34 181 -167.5t206 -190.5z" />
    <glyph glyph-name="arrownortheast" unicode="&#x2197;" horiz-adv-x="900" 
d="M238 -12l-49 50q61 59 208 192.5t179 165.5q-51 -8 -130.5 1t-139.5 33l3 9q183 3 380 69q14 5 20 0q4 -4 0 -20q-68 -201 -69 -379l-10 -3q-23 60 -32 139t-1 130q-34 -34 -168 -181t-191 -206z" />
    <glyph glyph-name="arrowsoutheast" unicode="&#x2198;" horiz-adv-x="900" 
d="M709 -6q-5 -6 -20 0q-203 67 -380 68l-2 10q59 24 138 32.5t131 0.5q-34 34 -181 168t-206 191l50 49q56 -57 189.5 -204t168.5 -182q-8 51 1 129.5t32 139.5l10 -3q3 -183 69 -380q5 -14 0 -19z" />
    <glyph glyph-name="arrowsouthwest" unicode="&#x2199;" horiz-adv-x="900" 
d="M211 -7q-16 -4 -20 0q-5 5 0 20q66 197 69 380l10 3q23 -61 32 -140t1 -130q34 34 167.5 181t190.5 206l50 -50q-59 -57 -206 -190.5t-181 -167.5q51 8 130 -1t140 -32l-3 -10q-183 -3 -380 -69z" />
    <glyph glyph-name="partialdiff" unicode="&#x2202;" horiz-adv-x="607" 
d="M299 -15q-42 0 -83 13.5t-78 41.5t-59.5 78t-22.5 115q0 108 60.5 169t146.5 61q60 0 102 -16q-11 113 -48 159t-106 45q-40 0 -98 -23l-13 24q86 39 169 39q137 0 215 -95t78 -279q0 -93 -24 -161t-64.5 -103.5t-83.5 -51.5t-91 -16zM303 13q22 0 35.5 21.5t22.5 94.5
t9 205q0 32 -2 78q-25 15 -49 15q-36 0 -53.5 -45t-17.5 -159q0 -120 12 -165t43 -45z" />
    <glyph glyph-name="increment" unicode="&#x2206;" horiz-adv-x="724" 
d="M23 0l310 679h61l310 -679h-681zM81 36h428l-206 491z" />
    <glyph glyph-name="product" unicode="&#x220f;" horiz-adv-x="773" 
d="M224 -115v660h-163v134h651v-134h-163v-660h-29v660h-267v-660h-29z" />
    <glyph glyph-name="summation" unicode="&#x2211;" horiz-adv-x="549" 
d="M509 -87v-28h-472v23l276 330l-260 413v28h456v-28h-281l198 -325l-349 -413h432z" />
    <glyph glyph-name="minus" unicode="&#x2212;" horiz-adv-x="550" 
d="M56 232v38h438v-38h-438z" />
    <glyph glyph-name="radical" unicode="&#x221a;" horiz-adv-x="618" 
d="M317 -12h-41l-156 478l-83 -37l-12 23l231 108l109 -354l198 559h30z" />
    <glyph glyph-name="infinity" unicode="&#x221e;" horiz-adv-x="583" 
d="M439 131q46 0 76 35t30 91t-34 86t-85 30q-62 0 -105 -71q6 -14 12 -30q26 -75 48 -108t58 -33zM157 128q61 0 106 72q-6 13 -13 31q-25 73 -47 106t-59 33q-46 0 -76 -34t-30 -90q0 -57 33.5 -87.5t85.5 -30.5zM578 257q0 -70 -42 -114t-108 -44q-101 0 -150 74
q-47 -75 -124 -75q-62 0 -105.5 39.5t-43.5 108.5t42 112.5t108 43.5q101 0 150 -73q46 74 124 74q62 0 105.5 -39t43.5 -107z" />
    <glyph glyph-name="integral" unicode="&#x222b;" horiz-adv-x="440" 
d="M40 -236v27q51 0 68.5 23t17.5 83v698q0 179 205 179q43 0 83 -14l-13 -27q-35 11 -56 11q-40 0 -52.5 -30.5t-12.5 -102.5v-674q0 -173 -240 -173z" />
    <glyph glyph-name="approxequal" unicode="&#x2248;" horiz-adv-x="550" 
d="M91 287h-27q0 51 25.5 79.5t69.5 28.5q43 0 120 -36.5t109 -36.5q33 0 52 18.5t19 55.5h27q0 -52 -25 -80t-70 -28q-43 0 -120 36.5t-109 36.5q-33 0 -52 -18.5t-19 -55.5zM91 106h-27q0 51 25.5 79.5t69.5 28.5q43 0 120 -36.5t109 -36.5q33 0 52 18.5t19 55.5h27
q0 -52 -25 -80t-70 -28q-43 0 -120 36.5t-109 36.5q-33 0 -52 -18.5t-19 -55.5z" />
    <glyph glyph-name="notequal" unicode="&#x2260;" horiz-adv-x="550" 
d="M218 137l-91 -132l-30 18l78 114h-119v38h146l104 152h-250v38h276l91 132l30 -19l-78 -113h119v-38h-145l-105 -152h250v-38h-276z" />
    <glyph glyph-name="lessequal" unicode="&#x2264;" horiz-adv-x="550" 
d="M480 0h-420v38h375l-375 190v46l401 201l17 -34l-384 -190l386 -195v-56z" />
    <glyph glyph-name="greaterequal" unicode="&#x2265;" horiz-adv-x="550" 
d="M490 0h-420v56l386 195l-384 190l17 34l401 -201v-46l-375 -190h375v-38z" />
    <glyph glyph-name="blackuppointingtriangle" unicode="&#x25b2;" 
d="M52 45l246 433l249 -433h-495z" />
    <glyph glyph-name="blackrightpointingtriangle" unicode="&#x25b6;" 
d="M111 0v495l433 -246z" />
    <glyph glyph-name="blackdownpointingtriangle" unicode="&#x25bc;" 
d="M301 25l-249 433h495z" />
    <glyph glyph-name="blackleftpointingtriangle" unicode="&#x25c0;" 
d="M489 0l-433 249l433 246v-495z" />
    <glyph glyph-name="lozenge" unicode="&#x25ca;" horiz-adv-x="631" 
d="M298 0l-243 340l243 339h34l244 -339l-244 -340h-34zM315 33l221 311l-221 305l-221 -311z" />
    <glyph glyph-name="blacklowerrighttriangle" unicode="&#x25e2;" 
d="M191 11l-132 480l482 -130z" />
    <glyph glyph-name="blacklowerlefttriangle" unicode="&#x25e3;" 
d="M59 12l132 480l350 -350z" />
    <glyph glyph-name="blackupperlefttriangle" unicode="&#x25e4;" 
d="M541 12l-482 130l350 350z" />
    <glyph glyph-name="blackupperrighttriangle" unicode="&#x25e5;" 
d="M409 11l-350 350l482 130z" />
    <glyph glyph-name="heart" unicode="&#x2665;" horiz-adv-x="793" 
d="M396 509q26 185 167 185q81 0 127 -52t46 -136q0 -56 -38 -122t-88 -120.5t-114 -132t-100 -141.5q-36 64 -99.5 141.5t-113.5 132t-88 120.5t-38 122q0 84 46 136t127 52q144 0 166 -185z" />
    <glyph glyph-name="Rcedilla" unicode="&#xe001;" horiz-adv-x="774" 
d="M789 0h-206q-61 0 -85.5 16t-42.5 73l-73 234h-14q-30 0 -39 1v-224q0 -40 11 -55t49 -22l35 -7v-16q-34 0 -102 0.5t-102 0.5t-102.5 -0.5t-102.5 -0.5v16l35 7q38 7 49 22t11 55v479q0 40 -11 55t-49 22l-35 7v16h374q61 0 111.5 -8.5t94 -27.5t67.5 -54.5t24 -84.5
q0 -65 -44.5 -105.5t-114.5 -54.5q40 -9 61.5 -29.5t42.5 -68.5l68 -157q14 -34 30.5 -49t44.5 -21l15 -3v-16zM329 660v-317q16 -1 38 -1q42 0 69 37.5t27 121.5q0 87 -24.5 123t-71.5 36h-38zM523 -146q0 -48 -44 -73t-99 -25q-51 0 -98 32l10 13q32 -17 60 -17t43.5 19
t15.5 54q0 57 -38 57q-17 0 -35 -10l-7 13q41 19 84 19q47 0 77.5 -22t30.5 -60z" />
    <glyph glyph-name="rcedilla" unicode="&#xe002;" horiz-adv-x="516" 
d="M16 0v15l24 4q25 4 33 16t8 45v310q0 31 -9.5 42.5t-40.5 13.5l-26 2v15l233 40l21 -7q-7 -77 -7 -321q0 78 8 146q7 55 20 93t45 66.5t82 28.5t80 -28.5t30 -74.5q0 -51 -30.5 -81t-77.5 -30q-61 0 -80 46q-6 15 -10 37q-3 15 -12 15q-20 0 -31 -77q-4 -28 -6 -63
t-2 -56l-1 -21v-93q0 -35 8.5 -47t35.5 -17l25 -4v-15q-27 0 -81 0.5t-81 0.5t-79 -0.5t-79 -0.5zM123 -244q-51 0 -98 32l10 13q32 -17 60 -17t43.5 19t15.5 54q0 57 -38 57q-17 0 -35 -10l-7 13q41 19 84 19q47 0 77.5 -22t30.5 -60q0 -48 -44 -73t-99 -25z" />
    <glyph glyph-name="Tcedilla" unicode="&#xe003;" horiz-adv-x="695" 
d="M562 16v-16q-36 0 -107 0.5t-107 0.5t-107.5 -0.5t-107.5 -0.5v16l37 7q43 8 55.5 22.5t12.5 54.5v560h-5q-40 0 -84.5 -55t-112.5 -198h-16v272h655v-272h-16q-68 142 -113 197.5t-85 55.5h-4v-560q0 -40 12.5 -54.5t55.5 -22.5zM460 -146q0 -48 -44 -73t-99 -25
q-51 0 -98 32l10 13q32 -17 60 -17t43.5 19t15.5 54q0 57 -38 57q-17 0 -35 -10l-7 13q41 19 84 19q47 0 77.5 -22t30.5 -60z" />
    <glyph glyph-name="tcedilla" unicode="&#xe004;" horiz-adv-x="410" 
d="M393 154q-19 -90 -55 -129.5t-114 -39.5q-76 0 -115.5 38t-39.5 107v321l-84 19v17l78 17q32 7 50 27t31 62l21 69h95l-3 -167h140v-32l-140 -8v-361q0 -56 40 -56q52 0 80 119zM321 -146q0 -48 -44 -73t-99 -25q-51 0 -98 32l10 13q32 -17 60 -17t43.5 19t15.5 54
q0 57 -38 57q-17 0 -35 -10l-7 13q41 19 84 19q47 0 77.5 -22t30.5 -60z" />
    <glyph glyph-name="commaaccent" unicode="&#xf6c3;" horiz-adv-x="285" 
d="M151 -264l-11 16q33 18 53 46t19 57q-12 -28 -46 -28q-26 0 -41.5 16t-15.5 41q0 27 18.5 45t47.5 18q30 0 47 -19.5t17 -50.5q0 -47 -25.5 -83.5t-62.5 -57.5z" />
    <glyph glyph-name="s_t" unicode="&#xfb06;" horiz-adv-x="872" 
d="M686 -15q-76 0 -115.5 38t-39.5 107v321l-84 19v17l78 17q31 7 51 29q32 35 32 93q0 54 -31 91.5t-92 37.5q-76 0 -120 -53t-44 -124q0 -63 26.5 -104.5t82.5 -79.5q-2 -14 -13 -23t-26 -9q-13 0 -24.5 11t-18.5 23.5t-19 38.5q-26 57 -90 57q-37 0 -58.5 -16t-21.5 -45
q0 -31 31.5 -52t107.5 -50q144 -55 144 -171q0 -81 -54 -127t-149 -46q-99 0 -153 45l-38 -43h-8v219h15q40 -104 85 -153.5t100 -49.5q85 0 85 61q0 30 -30.5 52t-103.5 49q-149 56 -149 176q0 74 54 121t136 47q60 0 99 -40q-31 47 -31 113q0 80 55 141.5t160 61.5
q97 0 151.5 -53.5t54.5 -144.5q0 -36 -2 -92h140v-32l-140 -8v-361q0 -56 40 -56q52 0 80 119l16 -3q-19 -90 -55 -129.5t-114 -39.5z" />
    <glyph glyph-name="A.small" horiz-adv-x="618" 
d="M614 0q-28 0 -82.5 0.5t-82.5 0.5q-29 0 -86 -0.5t-86 -0.5v16l21 5q27 7 33.5 20t-5.5 62l-15 47h-161q-15 -54 -3 -81.5t56 -43.5l25 -9v-16q-20 0 -58 0.5t-58 0.5q-19 0 -54 -0.5t-54 -0.5v16l18 6q37 12 60 43t52 109l81 218l46 140h118l145 -410q22 -61 36.5 -79.5
t38.5 -23.5l15 -3v-16zM157 172h148l-68 218z" />
    <glyph glyph-name="B.small" horiz-adv-x="627" 
d="M19 0v16l25 5q30 6 39 17t9 42v372q0 31 -9 42t-39 17l-25 5v16h333q213 0 213 -121q0 -62 -44.5 -90t-142.5 -38v-2q213 -14 213 -140q0 -69 -53.5 -105t-174.5 -36h-344zM284 289h24q64 0 64 115q0 110 -64 110h-24v-225zM284 271v-218q0 -35 32 -35h11q24 0 42 34.5
t18 99.5q0 59 -19.5 89t-53.5 30h-30z" />
    <glyph glyph-name="C.small" horiz-adv-x="570" 
d="M496 -12l-43 44q-58 -48 -123 -48q-132 0 -217.5 78.5t-85.5 203.5q0 123 86.5 202.5t210.5 79.5q74 0 129 -48l43 43h6v-237h-12q-49 125 -75 165q-40 59 -88 59q-97 0 -97 -264q0 -134 22.5 -199t78.5 -65q13 0 24.5 4t22.5 14t20 18.5t20 28t17.5 31t18.5 38t17.5 40
t18.5 44.5h12v-232h-6z" />
    <glyph glyph-name="D.small" horiz-adv-x="647" 
d="M19 0v16l25 5q30 6 39 17t9 42v372q0 31 -9 42t-39 17l-25 5v16h301q144 0 222 -65t78 -200q0 -134 -80.5 -200.5t-214.5 -66.5h-306zM316 18h11q90 0 90 249q0 122 -21.5 184.5t-75.5 62.5h-36v-461q0 -35 32 -35z" />
    <glyph glyph-name="E.small" horiz-adv-x="575" 
d="M532 203v-203h-513v16l25 5q30 6 39 17t9 42v372q0 31 -9 42t-39 17l-25 5v16h496v-204h-17q-37 96 -85.5 141t-98.5 45h-30v-231q33 2 57 30.5t49 99.5h11q-1 -47 -1 -141q0 -93 1 -141h-11q-25 77 -49.5 105.5t-56.5 28.5v-212q0 -35 32 -35h1q56 0 109 43.5t91 141.5
h15z" />
    <glyph glyph-name="F.small" horiz-adv-x="553" 
d="M369 16v-16q-29 0 -87.5 0.5t-86.5 0.5q-29 0 -88 -0.5t-88 -0.5v16l25 5q30 6 39 17t9 43v371q0 31 -9 42t-39 17l-25 5v16h495v-221h-17q-36 102 -86 152.5t-99 50.5h-28v-232q33 2 57 30t49 99h11q-1 -46 -1 -140t1 -141h-11q-25 77 -49.5 105.5t-56.5 28.5v-180
q0 -33 10 -45t44 -18z" />
    <glyph glyph-name="G.small" horiz-adv-x="603" 
d="M516 -12l-68 56q-26 -29 -66 -44.5t-78 -15.5q-114 0 -195.5 79.5t-81.5 202.5t89 202.5t219 79.5q76 0 130 -48l43 41h6v-225h-12q-51 116 -75 151q-42 63 -91 63q-52 0 -79 -69t-27 -195q0 -136 16.5 -200t61.5 -64q46 0 46 50v118q0 32 -9.5 43t-43.5 18l-26 5v15h312
v-15l-21 -5q-31 -7 -38.5 -17.5t-7.5 -43.5v-83l4 -99h-8z" />
    <glyph glyph-name="H.small" horiz-adv-x="717" 
d="M698 0q-27 0 -82.5 0.5t-81.5 0.5q-27 0 -81 -0.5t-82 -0.5v16l21 5q25 6 32.5 17t7.5 42v181h-147v-181q0 -32 7 -42t33 -17l20 -5v-16q-27 0 -80.5 0.5t-80.5 0.5q-28 0 -83 -0.5t-82 -0.5v16l25 5q30 6 39 17t9 42v372q0 31 -9 42t-39 17l-25 5v16q55 -1 165 -1
q107 0 161 1v-16l-20 -5q-26 -7 -33 -17.5t-7 -41.5v-169h147v168q0 32 -7 42t-33 18l-21 6v15q55 -1 163 -1q110 0 164 1v-16l-26 -5q-30 -6 -38.5 -16.5t-8.5 -42.5v-372q0 -32 8.5 -42.5t38.5 -16.5l26 -5v-16z" />
    <glyph glyph-name="I.small" horiz-adv-x="379" 
d="M359 16v-16q-28 0 -84.5 0.5t-84.5 0.5t-85 -0.5t-85 -0.5v16l25 5q30 6 39 17t9 42v372q0 31 -9 42t-39 17l-25 5v16q56 -1 170 -1q113 0 169 1v-16l-25 -5q-30 -6 -39 -17t-9 -42v-372q0 -31 9 -42t39 -17z" />
    <glyph glyph-name="J.small" horiz-adv-x="523" 
d="M449 242q0 -79 -44 -139t-108.5 -88t-135.5 -28q-73 0 -119 37t-46 96q0 50 32 81.5t82 31.5q45 0 73 -27.5t28 -70.5q0 -76 -69 -97q-21 -6 -21 -17q0 -16 39 -16q40 0 68.5 30t28.5 85v328q0 33 -10 45t-44 18l-30 5v16q57 -1 174 -1q118 0 175 1v-16l-25 -5
q-30 -6 -39 -17t-9 -42v-210z" />
    <glyph glyph-name="K.small" horiz-adv-x="706" 
d="M718 0q-29 0 -80 0.5t-81 0.5q-29 0 -88 -0.5t-88 -0.5v16l19 3q22 4 22 18q0 10 -12 29l-117 190h-1l148 158q31 34 31 55q0 24 -45 38l-28 9v16q46 -1 138 -1q90 0 136 1v-15l-23 -6q-70 -18 -111 -41t-85 -67l-25 -25l208 -305q19 -28 32 -38t37 -16l13 -3v-16zM19 0
v16l25 5q30 6 39 17t9 42v372q0 31 -9 42t-39 17l-25 5v16q56 -1 170 -1q113 0 169 1v-16l-25 -5q-30 -6 -39 -17t-9 -42v-372q0 -31 7 -42t31 -17l20 -5v-16q-26 0 -80.5 0.5t-81.5 0.5t-81 -0.5t-81 -0.5z" />
    <glyph glyph-name="L.small" horiz-adv-x="565" 
d="M19 0v16l25 5q30 6 39 17t9 42v372q0 31 -9 42t-39 17l-25 5v16q58 -1 176 -1q117 0 175 1v-16l-31 -5q-34 -6 -44.5 -18.5t-10.5 -45.5v-394q0 -35 29 -35h1q54 0 101.5 43t101.5 163h15l-1 -224h-512z" />
    <glyph glyph-name="M.small" horiz-adv-x="783" 
d="M499 443l-153 -443h-71l-161 442v-331q0 -41 11.5 -59t48.5 -31l15 -5v-16q-13 0 -42 0.5t-43 0.5t-42.5 -0.5t-42.5 -0.5v16l14 6q36 15 47 32t11 57v341q0 32 -8.5 42.5t-38.5 16.5l-25 5v16h269l110 -319l109 319h257v-16l-26 -5q-30 -6 -38.5 -16.5t-8.5 -42.5v-372
q0 -32 8.5 -42.5t38.5 -16.5l26 -5v-16q-28 0 -85 0.5t-84 0.5q-28 0 -85 -0.5t-84 -0.5v16l25 5q30 6 39 17t9 42v363z" />
    <glyph glyph-name="N.small" horiz-adv-x="586" 
d="M502 0h-145l-243 444v-333q0 -41 11.5 -59t48.5 -31l15 -5v-16q-13 0 -42 0.5t-43 0.5t-42.5 -0.5t-42.5 -0.5v16l14 6q35 15 46.5 32t11.5 57v334q0 31 -11 45.5t-38 20.5l-23 5v16h266l194 -350v239q0 41 -12 59.5t-48 30.5l-15 5v16q28 -1 85 -1t85 1v-16l-14 -6
q-34 -15 -46 -32.5t-12 -56.5v-421z" />
    <glyph glyph-name="O.small" horiz-adv-x="616" 
d="M589 268q0 -72 -25 -128.5t-66.5 -89t-89.5 -49.5t-100 -17t-100 17t-89.5 49.5t-66.5 89t-25 128.5q0 71 25 127t66.5 88t89.5 48.5t100 16.5t100 -16.5t89.5 -48.5t66.5 -88t25 -127zM230 268q0 -135 15 -200.5t63 -65.5t63 65.5t15 200.5q0 133 -15 197.5t-63 64.5
t-63 -64.5t-15 -197.5z" />
    <glyph glyph-name="P.small" horiz-adv-x="605" 
d="M369 0q-29 0 -87.5 0.5t-86.5 0.5q-29 0 -88 -0.5t-88 -0.5v16l25 5q30 6 39 17t9 43v371q0 31 -9 42t-39 17l-25 5v16h299q264 0 264 -157q0 -80 -73.5 -120t-202.5 -40q-6 0 -13 -0.5t-9 -0.5v-130q0 -33 10 -45t44 -18l31 -5v-16zM284 514v-282q4 0 11 0.5t11 0.5
q80 0 80 143q0 71 -19.5 104.5t-50.5 33.5h-32z" />
    <glyph glyph-name="Q.small" horiz-adv-x="616" 
d="M584 -234q-39 0 -72 18t-56 44t-44.5 52.5t-48 44.5t-55.5 18q-37 0 -69 -18.5t-59 -36.5t-51 -18q-45 0 -50 44q62 30 159 39q67 28 136 54q-42 -13 -80 -13q-49 0 -95 16.5t-85.5 49t-63 86.5t-23.5 122q0 72 25.5 128t67.5 88t89.5 48t98.5 16t98.5 -16t89.5 -48
t67.5 -88t25.5 -128q0 -100 -47.5 -166t-123.5 -93q-88 -32 -173 -66q54 19 105 19q86 0 180.5 -18.5t130.5 -18.5q71 0 79 43h8q-19 -202 -164 -202zM230 268q0 -134 15 -197.5t63 -63.5t63 63.5t15 197.5q0 133 -15 197.5t-63 64.5t-63 -64.5t-15 -197.5z" />
    <glyph glyph-name="R.small" horiz-adv-x="648" 
d="M658 0h-163q-52 0 -73 14t-36 62l-55 176h-11q-30 0 -35 1v-173q0 -31 9 -42t39 -17l25 -5v-16q-28 0 -84.5 0.5t-84.5 0.5t-85 -0.5t-85 -0.5v16l25 5q30 6 39 17t9 42v372q0 31 -9 42t-39 17l-25 5v16h320q105 0 173 -33t68 -103q0 -48 -29 -79.5t-78 -44.5
q43 -15 71 -85l53 -121q10 -24 20.5 -33.5t31.5 -14.5l9 -2v-16zM285 514v-243h34q28 0 47.5 28.5t19.5 94.5q0 67 -17 93.5t-49 26.5h-35z" />
    <glyph glyph-name="S.small" horiz-adv-x="505" 
d="M468 169q0 -61 -33.5 -104.5t-79 -61.5t-96.5 -18q-99 0 -158 47l-45 -42h-7v239h11q57 -126 99 -176t99 -50q35 0 58 18.5t23 50.5q0 37 -27 60.5t-99 47.5q-83 27 -122 71.5t-39 111.5q0 81 60.5 132.5t156.5 51.5q64 0 120 -40l38 35h6v-206h-11q-39 106 -75 149.5
t-83 43.5q-39 0 -61 -19.5t-22 -54.5q0 -33 30.5 -56.5t90.5 -43.5q86 -28 126 -70.5t40 -115.5z" />
    <glyph glyph-name="T.small" horiz-adv-x="576" 
d="M467 16v-16q-29 0 -89 0.5t-90 0.5q-29 0 -89 -0.5t-90 -0.5v16l27 5q36 7 45.5 17t9.5 42v434q-59 -9 -156 -204h-13v222h532v-222h-12q-99 195 -158 203v-433q0 -32 9.5 -42t45.5 -17z" />
    <glyph glyph-name="U.small" horiz-adv-x="609" 
d="M531 202q0 -50 -8.5 -85.5t-31 -66t-66 -46t-109.5 -15.5q-71 0 -120 17t-73.5 48.5t-34.5 66.5t-10 81v250q0 31 -9 42t-39 17l-25 5v16q56 -1 170 -1q113 0 169 1v-16l-25 -5q-30 -6 -39 -17t-9 -42v-259q0 -160 118 -160q62 0 90.5 40.5t28.5 128.5v219q0 41 -12 59.5
t-48 30.5l-15 5v16q28 -1 85 -1t85 1v-16l-14 -6q-35 -15 -46.5 -32t-11.5 -57v-219z" />
    <glyph glyph-name="V.small" horiz-adv-x="612" 
d="M230 1l-138 408q-19 58 -34 77t-43 26l-16 4v16q56 -1 169 -1q114 0 170 1v-16l-19 -4q-28 -6 -34.5 -21t5.5 -63l78 -274l80 212q27 74 19.5 100.5t-57.5 41.5l-27 8v16q38 -1 115 -1t115 1v-16l-11 -3q-42 -12 -72.5 -46.5t-58.5 -108.5l-86 -221l-46 -136h-109z" />
    <glyph glyph-name="W.small" horiz-adv-x="863" 
d="M224 1l-132 408q-19 58 -34 77.5t-42 25.5l-17 4v16q57 -1 171 -1t172 1v-16l-21 -5q-26 -6 -31.5 -20.5t5.5 -62.5l65 -237l93 341h105l89 -343l57 174q26 79 17.5 104.5t-64.5 41.5l-24 7v16q39 -1 116 -1t115 1v-16l-13 -4q-41 -13 -71.5 -48.5t-54.5 -106.5l-67 -195
l-52 -161h-102l-86 321l-44 -155l-47 -166h-103z" />
    <glyph glyph-name="X.small" horiz-adv-x="693" 
d="M679 0q-31 0 -94 0.5t-94 0.5t-93 -0.5t-94 -0.5v16l21 3q61 9 23 70l-74 118l-57 -69q-34 -42 -34 -66q0 -19 14 -28t53 -20l29 -8v-16q-23 0 -67.5 0.5t-67.5 0.5t-68.5 -0.5t-67.5 -0.5v16l13 4q50 16 89.5 44t90.5 87l63 73l-132 212q-26 43 -43 56.5t-45 19.5l-21 4
v16q61 -1 185 -1q125 0 187 1v-16l-26 -5q-28 -5 -30.5 -22t14.5 -44l62 -111l49 59q42 51 42 78q0 25 -51 38l-26 7v16q40 -1 122 -1t123 1v-16l-23 -6q-44 -11 -81.5 -39.5t-89.5 -89.5l-55 -64l145 -222q26 -41 41 -53.5t48 -20.5l20 -5v-16z" />
    <glyph glyph-name="Y.small" horiz-adv-x="612" 
d="M483 0q-29 0 -88.5 0.5t-89.5 0.5t-90 -0.5t-89 -0.5v16l27 5q36 7 45.5 17t9.5 42v129l-111 223q-21 42 -37 58t-43 22l-18 4v16q59 -1 178 -1q118 0 177 1v-16l-27 -6q-25 -6 -27.5 -21.5t14.5 -53.5l75 -179l54 118q27 61 27 93q0 27 -59 43l-22 6v16q37 -1 113 -1
q74 0 111 1v-16l-14 -5q-26 -9 -43.5 -20.5t-43.5 -44t-51 -85.5l-60 -126v-155q0 -32 9.5 -42t45.5 -17l27 -5v-16z" />
    <glyph glyph-name="Z.small" horiz-adv-x="571" 
d="M529 0h-493v15l273 499h-8q-94 0 -139.5 -39.5t-100.5 -159.5h-12l3 217h480v-15l-273 -499h27q83 0 132.5 43.5t100.5 159.5h12z" />
    <glyph glyph-name="zero.lp" horiz-adv-x="674" 
d="M639 340q0 -171 -85 -263t-217 -92t-217 92t-85 263t85 262.5t217 91.5t217 -91.5t85 -262.5zM255 340q0 -195 16.5 -265.5t65.5 -70.5t65.5 70.5t16.5 265.5t-16.5 265t-65.5 70t-65.5 -70t-16.5 -265z" />
    <glyph glyph-name="one.lp" horiz-adv-x="500" 
d="M455 0q-34 0 -96 0.5t-96 0.5t-102.5 -0.5t-102.5 -0.5v16l35 7q37 7 48.5 22.5t11.5 54.5v423q0 41 -11 57.5t-46 20.5l-55 8v19l65 5q92 7 144.5 15.5t68 14.5t23.5 16h22q-4 -65 -4 -147v-432q0 -40 11 -55t49 -22l35 -7v-16z" />
    <glyph glyph-name="two.lp" horiz-adv-x="591" 
d="M516 0h-471v53q46 36 136 122q84 79 124.5 164t40.5 212q0 67 -18 95.5t-57 28.5q-47 0 -70.5 -38.5t-23.5 -104.5q0 -38 12.5 -60.5t34.5 -22.5q46 0 59 65l9 -1q-8 -74 -44.5 -111t-95.5 -37q-54 0 -88 37.5t-34 89.5q0 97 74.5 149.5t182.5 52.5q119 0 196.5 -51
t77.5 -150q0 -50 -18 -88.5t-45.5 -62.5t-67.5 -46.5t-78 -38.5t-82 -41.5t-75 -52.5l-3 -3q78 13 158 13h111q32 0 48 11t34 50l7 15h16z" />
    <glyph glyph-name="three.lp" horiz-adv-x="614" 
d="M586 224q0 -75 -54.5 -131t-133.5 -82t-166 -26q-95 0 -153.5 41t-58.5 110q0 52 31 85.5t85 33.5q48 0 77 -27.5t29 -72.5q0 -30 -13.5 -51.5t-29 -30t-29 -18t-13.5 -18.5q0 -12 19.5 -22.5t53.5 -10.5q58 0 97 55t39 164q0 137 -73 137q-29 0 -65.5 -25t-57.5 -25
q-44 0 -44 47q16 7 71 17.5t79 22.5q41 20 66.5 66t25.5 108q0 54 -18 79t-59 25q-48 0 -72 -31.5t-24 -75.5q0 -67 43 -67q36 0 48 54l10 -1q-8 -61 -42 -93.5t-87 -32.5q-55 0 -85.5 26.5t-30.5 73.5q0 74 73.5 120t180.5 46q116 0 186 -34.5t70 -105.5q0 -47 -34.5 -79
t-77 -45t-105 -30.5t-92.5 -31.5q42 20 118 20q97 0 156.5 -42t59.5 -122z" />
    <glyph glyph-name="four.lp" horiz-adv-x="610" 
d="M552 16v-16q-34 0 -96 0.5t-96 0.5t-97.5 -0.5t-97.5 -0.5v16l35 7q37 7 48.5 22.5t11.5 54.5v107h-233l-17 31l273 441h174v-441h4q43 0 65.5 21t43.5 68l18 40h16l-32 -160h-115v-107q0 -40 11 -55t49 -22zM32 238h228v199q0 101 10 180z" />
    <glyph glyph-name="five.lp" horiz-adv-x="607" 
d="M224 -15q-92 0 -145.5 42.5t-53.5 107.5q0 52 31.5 86t85.5 34q48 0 76 -27.5t28 -72.5q0 -30 -13 -51.5t-29 -30.5t-29 -18.5t-13 -18.5q0 -12 17.5 -22t48.5 -10q56 0 91 56.5t35 162.5q0 92 -27 131t-79 39q-35 0 -70.5 -24.5t-52.5 -63.5l-40 3l35 371h22
q71 -22 196 -22q151 0 204 32l7 -3q-9 -53 -39.5 -92t-73 -60t-95.5 -33.5t-108 -11.5t-110 5l-15 -145q34 32 89 53t119 21q116 0 187 -50.5t71 -150.5q0 -61 -32 -108.5t-84 -74.5t-111.5 -40.5t-122.5 -13.5z" />
    <glyph glyph-name="six.lp" horiz-adv-x="642" 
d="M241 231q0 93 36 139.5t122 46.5q94 0 152 -54.5t58 -147.5q0 -75 -43 -129t-105 -77.5t-134 -23.5q-128 0 -210 82t-82 249q0 89 31.5 162.5t82.5 119.5t112.5 71t124.5 25q99 0 152.5 -38t53.5 -98q0 -50 -32 -82t-80 -32q-49 0 -79 25.5t-30 70.5q0 29 11.5 49.5
t24.5 29.5t24.5 18t11.5 16q0 22 -54 22q-84 0 -116 -99.5t-32 -344.5zM327 4q35 0 52 42t17 140q0 101 -15 143.5t-48 42.5q-38 0 -58.5 -38t-20.5 -103q0 -133 16 -180t57 -47z" />
    <glyph glyph-name="seven.lp" horiz-adv-x="580" 
d="M288 -20q-58 0 -91.5 29.5t-33.5 85.5t30.5 111.5t85.5 121.5q26 32 84 95t76 83h-280q-35 0 -53.5 -11t-30.5 -38l-14 -31h-18l37 273h18q2 -20 28 -20h422v-53q-81 -109 -116 -195.5t-35 -192.5q0 -13 3 -58.5t3 -80.5q0 -52 -31 -85.5t-84 -33.5z" />
    <glyph glyph-name="eight.lp" horiz-adv-x="678" 
d="M339 -15q-141 0 -227.5 50.5t-86.5 142.5q0 79 68 123.5t185 53.5q-99 9 -157.5 49.5t-58.5 113.5q0 86 74.5 131t202.5 45t202.5 -45t74.5 -131q0 -73 -58.5 -113.5t-157.5 -49.5q117 -9 185 -53.5t68 -123.5q0 -92 -86.5 -142.5t-227.5 -50.5zM267 519
q0 -84 17.5 -120.5t54.5 -36.5t54.5 36.5t17.5 120.5q0 85 -17.5 120.5t-54.5 35.5t-54.5 -35.5t-17.5 -120.5zM256 179q1 -86 19.5 -125.5t63.5 -39.5t63.5 39.5t18.5 125.5t-18.5 125.5t-63.5 39.5t-63.5 -39.5t-19.5 -125.5z" />
    <glyph glyph-name="nine.lp" horiz-adv-x="642" 
d="M393 447q0 133 -16 180.5t-57 47.5q-35 0 -52 -42.5t-17 -140.5q0 -101 15 -143.5t48 -42.5q38 0 58.5 38t20.5 103zM261 -16q-99 0 -152.5 38t-53.5 98q0 50 31.5 82t80.5 32t79 -25.5t30 -70.5q0 -29 -11 -49.5t-25 -29.5t-25 -18t-11 -16q0 -22 54 -22q84 0 116 99.5
t32 344.5q0 -93 -36 -139.5t-122 -46.5q-94 0 -152 54.5t-58 147.5q0 57 24.5 102.5t65.5 72.5t90 41.5t102 14.5q128 0 210 -82.5t82 -249.5q0 -89 -31.5 -162.5t-82.5 -119.5t-112.5 -71t-124.5 -25z" />
    <glyph glyph-name="zero.ot" 
d="M563 267q0 -61 -17 -110.5t-44 -81t-62.5 -52.5t-70 -29.5t-69.5 -8.5q-44 0 -87.5 15t-84.5 46t-66 88.5t-25 133.5q0 61 17 110.5t44 80t62.5 51t70 29t69.5 8.5t69.5 -8t70 -28.5t62.5 -51.5t44 -80.5t17 -111.5zM242 267q0 -154 11.5 -209t46.5 -55t46.5 55.5
t11.5 209.5q0 153 -11.5 207t-46.5 54t-46.5 -54.5t-11.5 -207.5z" />
    <glyph glyph-name="one.ot" 
d="M66 0l1 16l63 8q48 7 62 22t14 54v281q0 41 -15 57t-60 21l-70 8v19l77 5q218 15 245 46h24q-5 -82 -5 -147v-290q0 -40 13.5 -54.5t62.5 -21.5l59 -8v-16q-40 0 -116 0.5t-112 0.5t-119.5 -0.5t-123.5 -0.5z" />
    <glyph glyph-name="two.ot" 
d="M507 -76h-13v24q0 30 -10 41t-38 11h-378v60q46 33 113 90q79 67 118.5 131t39.5 145q0 57 -15.5 80t-46.5 23q-38 0 -62.5 -31.5t-24.5 -77.5q0 -78 40 -78q17 0 26.5 11t15.5 40l9 -1q-6 -61 -41.5 -96t-86.5 -35q-52 0 -78.5 31t-26.5 80q0 79 69.5 127t169.5 48
q119 0 186 -41.5t67 -114.5q0 -50 -25.5 -85.5t-68 -56t-87 -35.5t-95 -34.5t-79.5 -42.5q85 16 188 16h173z" />
    <glyph glyph-name="three.ot" 
d="M568 85q0 -75 -55 -133t-134 -86t-163 -28q-87 0 -143 40t-56 108q0 52 31.5 87t84.5 35q47 0 76 -26.5t29 -71.5q0 -29 -13 -50.5t-28.5 -31t-28.5 -20.5t-13 -21q0 -30 59 -30q57 0 94.5 58t37.5 169q0 71 -20.5 101t-51.5 30q-26 0 -60.5 -21t-51.5 -21q-39 0 -39 42
q15 5 63 14t66 20q94 54 94 180q0 49 -20 74t-55 25q-38 0 -60.5 -32t-22.5 -75q0 -62 38 -62q31 0 41 51l9 -1q-7 -61 -39 -92t-82 -31t-79.5 24.5t-29.5 70.5q0 76 64 121t173 45q112 0 183.5 -35t71.5 -105q0 -44 -32.5 -75t-71.5 -44.5t-95.5 -30.5t-81.5 -29
q36 17 85 17q226 0 226 -160z" />
    <glyph glyph-name="four.ot" 
d="M24 91l251 441h174v-441q38 2 59 23t40 66l17 40h16l-32 -160h-100v-107q0 -39 11 -54t47 -23l33 -7v-16q-34 0 -94 0.5t-94 0.5t-96 -0.5t-96 -0.5v16l33 7q37 8 47.5 23t10.5 54v107h-208zM62 96l189 -2v170v16q0 86 8 163l1 1h-1z" />
    <glyph glyph-name="five.ot" 
d="M223 -162q-87 0 -143 40t-56 108q0 52 31.5 87t84.5 35q48 0 76.5 -26t28.5 -71q0 -29 -13 -50.5t-28.5 -31.5t-28.5 -21t-13 -21q0 -14 17 -22t45 -8q47 0 77.5 56.5t30.5 162.5q0 170 -99 170q-31 0 -64 -24.5t-48 -63.5l-36 3l33 371h20q66 -22 184 -22q140 0 193 32
l6 -3q-9 -66 -44.5 -108.5t-88 -59.5t-120 -23t-142.5 1l-14 -142q71 69 194 69q111 0 179.5 -50.5t68.5 -150.5q0 -61 -29.5 -108.5t-79 -74.5t-106 -40.5t-116.5 -13.5z" />
    <glyph glyph-name="six.ot" 
d="M232 226q0 94 38.5 139.5t118.5 45.5q75 0 127.5 -49t52.5 -149q0 -112 -80.5 -170t-186.5 -58q-117 0 -191.5 81.5t-74.5 248.5q0 90 29 163.5t77.5 119.5t109 71t125.5 25q91 0 139.5 -38t48.5 -97q0 -49 -29 -78.5t-73 -29.5q-46 0 -73 24.5t-27 67.5q0 28 10 48
t21.5 28t21.5 17t10 16q0 23 -43 23q-76 0 -113.5 -106t-37.5 -343zM247 222q0 -127 13 -172.5t45 -45.5q29 0 43.5 42.5t15.5 148.5q1 96 -11.5 130.5t-39.5 34.5q-30 0 -48 -37.5t-18 -100.5z" />
    <glyph glyph-name="seven.ot" 
d="M275 -168q-50 0 -81.5 29t-31.5 82q0 20 4.5 41t16 44.5t20.5 41t30.5 44t32.5 40t38.5 42.5t37 38.5t41 40.5t37.5 37q7 7 23.5 23t24.5 24h-297q-36 0 -54 -11t-31 -38l-15 -31h-19l48 273h18q2 -20 28 -20h424v-67q-97 -123 -120 -172q-27 -55 -37 -125t-10 -190
q0 -70 -35 -108t-93 -38z" />
    <glyph glyph-name="eight.ot" 
d="M301 -15q-127 0 -205 50t-78 143q0 78 60 123t163 54q-88 10 -140 51t-52 112q0 86 67 131t184 45t183.5 -45t66.5 -131q0 -71 -51 -112t-139 -51q104 -9 163.5 -54t59.5 -123q0 -93 -77.5 -143t-204.5 -50zM244 519q0 -84 13.5 -120t43.5 -36q29 0 43 36t14 120
q0 85 -13.5 120.5t-43.5 35.5t-43.5 -35.5t-13.5 -120.5zM237 179q0 -88 14 -127t50 -39t49 38.5t13 127.5q0 88 -13.5 126.5t-48.5 38.5q-36 0 -50 -39t-14 -126z" />
    <glyph glyph-name="nine.ot" 
d="M357 312q0 127 -12.5 171.5t-44.5 44.5q-29 0 -43 -41.5t-15 -147.5q-1 -96 11 -129.5t39 -33.5q30 0 47.5 36.5t17.5 99.5zM228 -162q-91 0 -139.5 38t-48.5 97q0 49 29 78.5t73 29.5q46 0 73 -24.5t27 -67.5q0 -28 -10 -48t-21.5 -28t-21.5 -17t-10 -16q0 -23 43 -23
q76 0 113 106.5t37 344.5q0 -94 -37.5 -138.5t-118.5 -44.5q-76 0 -127 46.5t-51 146.5q0 77 42.5 130.5t101.5 76t126 22.5q116 0 188 -81.5t72 -248.5q0 -90 -29 -163.5t-77 -119.5t-108.5 -71t-125.5 -25z" />
    <glyph glyph-name="zero.lt" 
d="M564 340q0 -96 -22 -167.5t-60.5 -111t-83.5 -58t-98 -18.5t-98 18.5t-83.5 58t-60.5 111t-22 167.5t22 167t60.5 110.5t83.5 58t98 18.5t98 -18.5t83.5 -58t60.5 -110.5t22 -167zM239 340q0 -202 12 -269t49 -67t49 67t12 269q0 201 -12 268t-49 67t-49 -67t-12 -268z
" />
    <glyph glyph-name="one.lt" 
d="M66 0v16l57 8q53 8 68.5 22.5t15.5 53.5v423q0 41 -16.5 56.5t-65.5 21.5l-69 8v19l75 5q222 15 251 46h25q-5 -61 -5 -147v-432q0 -40 15 -54t68 -22l52 -8v-16q-42 0 -116.5 0.5t-112.5 0.5q-37 0 -118.5 -0.5t-123.5 -0.5z" />
    <glyph glyph-name="two.lt" 
d="M503 0h-450v63q75 64 119 106q84 80 127 168t43 214q0 67 -17 95.5t-53 28.5q-42 0 -66.5 -38t-24.5 -101q0 -79 44 -79q22 0 35.5 13t20.5 48l9 -1q-15 -142 -135 -142q-52 0 -84.5 35.5t-32.5 87.5q0 96 73.5 146t178.5 50q114 0 184.5 -49t70.5 -142q0 -49 -17.5 -89
t-45.5 -65t-66.5 -49.5t-75.5 -42t-79 -43t-70 -51.5q57 10 154 10h106q30 0 45 11t33 50l7 15h15z" />
    <glyph glyph-name="three.lt" 
d="M568 231q0 -75 -55 -133t-134 -86t-163 -28q-87 0 -143 40t-56 108q0 52 31.5 87t84.5 35q47 0 76 -26.5t29 -71.5q0 -29 -13 -50.5t-28.5 -31t-28.5 -20.5t-13 -21q0 -30 59 -30q57 0 94.5 58t37.5 169q0 71 -20.5 101t-51.5 30q-26 0 -60.5 -21t-51.5 -21q-39 0 -39 42
q15 5 63 14t66 20q94 54 94 180q0 49 -20 74t-55 25q-38 0 -60.5 -32t-22.5 -75q0 -62 38 -62q31 0 41 51l9 -1q-7 -61 -39 -92t-82 -31t-79.5 24.5t-29.5 70.5q0 76 64 121t173 45q112 0 183.5 -35t71.5 -105q0 -44 -32.5 -75t-71.5 -44.5t-95.5 -30.5t-81.5 -29
q36 17 85 17q226 0 226 -160z" />
    <glyph glyph-name="four.lt" 
d="M23 238l251 441h174v-441q38 2 59 23t40 66l17 40h16l-32 -160h-100v-107q0 -39 11 -54t47 -23l33 -7v-16q-33 0 -94 0.5t-94 0.5t-95.5 -0.5t-96.5 -0.5v16l33 7q37 8 47.5 23t10.5 54v107h-208zM61 243l189 -2v170v16q0 86 8 163l1 1h-1z" />
    <glyph glyph-name="five.lt" 
d="M223 -16q-87 0 -143 40t-56 108q0 52 31.5 87t84.5 35q48 0 76.5 -26t28.5 -71q0 -29 -13 -50.5t-28.5 -31.5t-28.5 -21t-13 -21q0 -14 17 -22t45 -8q47 0 77.5 56.5t30.5 162.5q0 170 -99 170q-31 0 -64 -24.5t-48 -63.5l-36 3l33 371h20q66 -22 184 -22q140 0 193 32
l6 -3q-9 -66 -44.5 -108.5t-88 -59.5t-120 -23t-142.5 1l-14 -142q71 69 194 69q111 0 179.5 -50.5t68.5 -150.5q0 -61 -29.5 -108.5t-79 -74.5t-106 -40.5t-116.5 -13.5z" />
    <glyph glyph-name="six.lt" 
d="M232 226q0 94 38.5 139.5t118.5 45.5q75 0 127.5 -49t52.5 -149q0 -112 -80.5 -170t-186.5 -58q-117 0 -191.5 81.5t-74.5 248.5q0 90 29 163.5t77.5 119.5t109 71t125.5 25q91 0 139.5 -38t48.5 -97q0 -49 -29 -78.5t-73 -29.5q-46 0 -73 24.5t-27 67.5q0 28 10 48
t21.5 28t21.5 17t10 16q0 23 -43 23q-76 0 -113.5 -106t-37.5 -343zM247 222q0 -127 13 -172.5t45 -45.5q29 0 43.5 42.5t15.5 148.5q1 96 -11.5 130.5t-39.5 34.5q-30 0 -48 -37.5t-18 -100.5z" />
    <glyph glyph-name="seven.lt" 
d="M275 -21q-50 0 -81.5 29t-31.5 82q0 20 4.5 41t16 44.5t20.5 41t30.5 44t32.5 40t38.5 42.5t37 38.5t41 40.5t37.5 37q7 7 23.5 23t24.5 24h-297q-36 0 -54 -11t-31 -38l-15 -31h-19l48 273h18q2 -20 28 -20h424v-67q-97 -123 -120 -172q-27 -55 -37 -125t-10 -190
q0 -70 -35 -108t-93 -38z" />
    <glyph glyph-name="eight.lt" 
d="M301 -15q-127 0 -205 50t-78 143q0 78 60 123t163 54q-88 10 -140 51t-52 112q0 86 67 131t184 45t183.5 -45t66.5 -131q0 -71 -51 -112t-139 -51q104 -9 163.5 -54t59.5 -123q0 -93 -77.5 -143t-204.5 -50zM244 519q0 -84 13.5 -120t43.5 -36q29 0 43 36t14 120
q0 85 -13.5 120.5t-43.5 35.5t-43.5 -35.5t-13.5 -120.5zM237 179q0 -88 14 -127t50 -39t49 38.5t13 127.5q0 88 -13.5 126.5t-48.5 38.5q-36 0 -50 -39t-14 -126z" />
    <glyph glyph-name="nine.lt" 
d="M357 459q0 127 -12.5 171.5t-44.5 44.5q-29 0 -43 -41.5t-15 -147.5q-1 -96 11 -129.5t39 -33.5q30 0 47.5 36.5t17.5 99.5zM228 -15q-91 0 -139.5 38t-48.5 97q0 49 29 78.5t73 29.5q46 0 73 -24.5t27 -67.5q0 -28 -10 -48t-21.5 -28t-21.5 -17t-10 -16q0 -23 43 -23
q76 0 113 106.5t37 344.5q0 -94 -37.5 -138.5t-118.5 -44.5q-76 0 -127 46.5t-51 146.5q0 77 42.5 130.5t101.5 76t126 22.5q116 0 188 -81.5t72 -248.5q0 -90 -29 -163.5t-77 -119.5t-108.5 -71t-125.5 -25z" />
    <glyph glyph-name="dollar.lp" horiz-adv-x="596" 
d="M292 463l30 213q-74 0 -111 -27.5t-37 -69.5t28 -67t90 -49zM270 3q78 0 120 29.5t42 73.5q0 46 -36 72t-111 53l-32 -227zM562 214q0 -106 -81.5 -167.5t-210.5 -61.5h-20l-15 -106h-25l15 108q-104 7 -160 48t-56 105q0 47 28 73.5t69 26.5q38 0 62 -22t24 -61
q0 -32 -23.5 -57.5t-23.5 -41.5q0 -17 21 -31.5t62 -20.5l33 233l-13 5q-44 16 -77 33t-63.5 43.5t-47 65t-16.5 87.5q0 102 77.5 161.5t199.5 59.5h4l7 50h25l-7 -51q100 -5 157.5 -44t57.5 -103q0 -45 -28 -71t-68 -26q-38 0 -62.5 22t-24.5 61q0 24 12 41.5t23.5 30
t11.5 25.5q0 16 -20.5 29.5t-61.5 16.5l-31 -221l24 -9q47 -17 77 -31t68 -41t57.5 -67t19.5 -92z" />
    <glyph glyph-name="cent.lp" horiz-adv-x="565" 
d="M238 226l83 357q-52 -4 -86.5 -54.5t-34.5 -157.5q0 -87 38 -145zM227 78l-33 -144h-23l35 150q-72 24 -118 86.5t-46 156.5q0 66 25.5 120t66.5 87t90 50.5t100 17.5h1l25 106h22l-25 -107q82 -4 129 -41.5t47 -95.5q0 -42 -26 -69.5t-67 -27.5q-38 0 -61.5 23.5
t-23.5 60.5q0 22 9.5 39.5t20.5 25.5t20.5 16.5t9.5 15.5q0 16 -17 26t-45 9l-87 -380q48 -54 114 -54q84 0 137 70l16 -9q-74 -140 -234 -140q-28 0 -62 8z" />
    <glyph glyph-name="sterling.lp" horiz-adv-x="618" 
d="M561 270q19 -49 16.5 -100.5t-18.5 -93.5t-54 -69t-89 -27t-89 22.5t-77 63.5q-51 -86 -138 -86q-49 0 -81 27.5t-32 75.5q0 57 47 94.5t124 37.5q37 0 89 -6v3q0 6 -1 12t-3 12.5t-3.5 11t-6 12.5t-6.5 11.5t-8.5 12t-8 11.5t-9 13t-9.5 12l-151 20v14l120 12
q-34 59 -34 116q0 88 70.5 150t193.5 62q87 0 138 -41t51 -102q0 -45 -28 -74.5t-71 -29.5q-44 0 -69.5 24t-25.5 66q0 28 15 48.5t29.5 34t14.5 25.5q0 14 -13.5 22.5t-34.5 8.5q-39 0 -56 -36t-23 -126q-7 -97 -13 -149h145v-26l-148 -8q-6 -49 -12 -93q-3 -20 -6 -36
q16 -3 52 -11t62 -12t53 -4q58 0 75.5 27.5t6.5 67.5h16zM112 -2q85 0 123 84q-27 28 -41 40.5t-39 26t-50 13.5q-36 0 -59.5 -22t-23.5 -59q0 -38 26 -60.5t64 -22.5z" />
    <glyph glyph-name="yen.lp" horiz-adv-x="740" 
d="M584 16v-16q-36 0 -107 0.5t-107 0.5t-107.5 -0.5t-107.5 -0.5v16l37 7q43 8 55.5 22.5t12.5 54.5v96h-147v34h147v39l-10 19h-137v34h120l-118 236q-26 52 -46.5 73t-51.5 27l-25 5v16q71 -1 214 -1q142 0 213 1v-16l-38 -8q-22 -4 -30.5 -15.5t-5.5 -29.5t17 -50
l104 -238l75 160q36 76 36 118q0 39 -72 56l-30 7v16q46 -1 139 -1q92 0 138 1v-16l-20 -6q-45 -14 -84.5 -53t-85.5 -134l-72 -148h115v-34h-126v-58h126v-34h-126v-96q0 -40 12.5 -54.5t55.5 -22.5z" />
    <glyph glyph-name="euro.lp" horiz-adv-x="624" 
d="M567 -12l-34 52q-27 -26 -65.5 -43t-75.5 -17q-111 0 -196 67t-109 197l-64 16v16l58 11q-2 32 -2 52q0 28 1 40l-57 17v16l62 11q22 135 108 205.5t199 70.5q37 0 75.5 -17t65.5 -44l34 52h7v-276h-13q-47 149 -81.5 207.5t-82.5 58.5q-53 0 -77 -63t-29 -196h166
l-7 -28l-160 -6v-48q0 -38 1 -54h138l-7 -28l-130 -7q5 -128 29 -189.5t76 -61.5q48 0 82.5 58.5t81.5 207.5h13v-277h-7z" />
    <glyph glyph-name="numbersign.lp" horiz-adv-x="559" 
d="M346 306l9 76h-141l-9 -76h141zM187 140l-15 -140h-25l15 140h-96l-48 166h162l9 76h-99l-48 166h165l14 131h25l-14 -131h141l14 131h25l-14 -131h95l48 -166h-161l-9 -76h97l48 -166h-163l-15 -140h-25l15 140h-141z" />
    <glyph glyph-name="florin.lp" horiz-adv-x="548" 
d="M34 -245q-79 0 -115.5 34t-36.5 88q0 45 27 70.5t66 25.5t62 -23t23 -59q0 -23 -11 -41t-23.5 -26.5t-23.5 -17.5t-11 -16q0 -17 35 -17q89 0 89 134q0 238 -2 456l-84 17v21l84 17q4 140 75.5 209.5t191.5 69.5q80 0 122 -34t42 -88q0 -47 -29 -74t-70 -27t-66 24
t-25 62q0 25 11 43t23.5 26.5t23.5 17t11 15.5q0 17 -35 17q-89 0 -89 -134q0 -21 1 -66.5t1 -65.5h136v-33l-135 -7h-1v-258q0 -360 -267 -360z" />
    <glyph glyph-name="franc.lp" horiz-adv-x="661" 
d="M437 16v-16q-35 0 -105 0.5t-105 0.5t-105.5 -0.5t-105.5 -0.5v16l35 7q38 7 49 22t11 55v479q0 40 -11 55t-49 22l-35 7v16h606v-271h-21q-91 252 -222 252h-50v-303h6q44 0 74.5 35.5t62.5 128.5h14q-1 -58 -1 -175t1 -176h-14q-31 97 -61.5 132.5t-76.5 35.5h-5v-233
q0 -41 13 -58t55 -24z" />
    <glyph glyph-name="currency.lp" horiz-adv-x="549" 
d="M472 99l-77 77q-51 -44 -121 -44q-71 0 -121 44l-76 -77l-27 27l78 77q-39 51 -39 118q0 66 38 117l-77 77l27 27l76 -76q51 44 121 44q71 0 122 -45l76 77l27 -27l-78 -77q38 -51 38 -117t-38 -117l78 -78zM182 321q0 -41 26 -69.5t66 -28.5t66 28.5t26 69.5t-26 69.5
t-66 28.5t-66 -28.5t-26 -69.5z" />
    <glyph glyph-name="plus.lp" horiz-adv-x="550" 
d="M294 302v-200h-38v200h-200v38h200v198h38v-198h200v-38h-200z" />
    <glyph glyph-name="minus.lp" horiz-adv-x="550" 
d="M56 301v38h438v-38h-438z" />
    <glyph glyph-name="plusminus.lp" horiz-adv-x="550" 
d="M494 69h-438v38h200v195h-200v38h200v198h38v-198h200v-38h-200v-195h200v-38z" />
    <glyph glyph-name="multiply.lp" horiz-adv-x="550" 
d="M416 152l-141 141l-141 -141l-27 27l141 141l-141 141l27 27l141 -141l141 141l27 -27l-141 -141l141 -141z" />
    <glyph glyph-name="divide.lp" horiz-adv-x="550" 
d="M314 486q0 -16 -12.5 -27.5t-26.5 -11.5t-26.5 11.5t-12.5 27.5q0 19 12 29t27 10t27 -10t12 -29zM494 301h-438v38h438v-38zM275 114q-14 0 -26.5 11.5t-12.5 27.5q0 19 12 29t27 10t27 -10t12 -29q0 -16 -12.5 -27.5t-26.5 -11.5z" />
    <glyph glyph-name="logicalnot.lp" horiz-adv-x="550" 
d="M456 364h-400v38h438v-185h-38v147z" />
    <glyph glyph-name="equal.lp" horiz-adv-x="550" 
d="M56 396v38h438v-38h-438zM494 206h-438v38h438v-38z" />
    <glyph glyph-name="notequal.lp" horiz-adv-x="550" 
d="M218 206l-84 -122l-29 20l70 102h-119v38h145l105 152h-250v38h276l84 122l29 -20l-70 -102h119v-38h-145l-105 -152h250v-38h-276z" />
    <glyph glyph-name="approxequal.lp" horiz-adv-x="500" 
d="M91 355h-27q0 51 25.5 79.5t69.5 28.5q43 0 120 -36.5t109 -36.5q33 0 52 18.5t19 55.5h27q0 -52 -25 -80t-70 -28q-43 0 -120 36.5t-109 36.5q-33 0 -52 -18.5t-19 -55.5zM91 174h-27q0 51 25.5 79.5t69.5 28.5q43 0 120 -36.5t109 -36.5q33 0 52 18.5t19 55.5h27
q0 -52 -25 -80t-70 -28q-43 0 -120 36.5t-109 36.5q-33 0 -52 -18.5t-19 -55.5z" />
    <glyph glyph-name="less.lp" horiz-adv-x="550" 
d="M461 96l-401 201v46l401 201l17 -34l-384 -190l384 -190z" />
    <glyph glyph-name="greater.lp" horiz-adv-x="550" 
d="M490 297l-401 -201l-17 34l384 190l-384 190l17 34l401 -201v-46z" />
    <glyph glyph-name="lessequal.lp" horiz-adv-x="550" 
d="M480 69h-420v38h375l-375 190v46l401 201l17 -34l-384 -190l386 -195v-56z" />
    <glyph glyph-name="greaterequal.lp" horiz-adv-x="550" 
d="M490 69h-420v56l386 195l-384 190l17 34l401 -201v-46l-375 -190h375v-38z" />
    <glyph glyph-name="infinity.lp" horiz-adv-x="583" 
d="M439 200q46 0 76 35t30 91t-34 86t-85 30q-62 0 -105 -71q6 -13 12 -30q26 -75 48 -108t58 -33zM157 197q61 0 106 72q-6 13 -13 31q-25 73 -47 106t-59 33q-46 0 -76 -34t-30 -90q0 -57 33.5 -87.5t85.5 -30.5zM578 326q0 -70 -42 -114t-108 -44q-101 0 -150 74
q-47 -75 -124 -75q-62 0 -105.5 39.5t-43.5 108.5t42 112.5t108 43.5q101 0 150 -73q46 74 124 74q62 0 105.5 -39t43.5 -107z" />
    <glyph glyph-name="percent.lp" horiz-adv-x="660" 
d="M357 537q0 -75 -48.5 -116.5t-117.5 -41.5q-68 0 -117 41.5t-49 116.5t48.5 116t117.5 41t117.5 -41t48.5 -116zM147 537q0 -86 9 -114.5t35 -28.5q27 0 36 28.5t9 114.5t-9 114t-36 28q-26 0 -35 -28t-9 -114zM47 0l270 350l247 329h46l-272 -352l-244 -327h-47z
M469 -15q-69 0 -117.5 41.5t-48.5 116.5t48.5 116t117.5 41t117.5 -41t48.5 -116t-48.5 -116.5t-117.5 -41.5zM469 0q27 0 36 28.5t9 114.5t-9 114t-36 28q-26 0 -35.5 -28.5t-9.5 -113.5t9.5 -114t35.5 -29z" />
    <glyph glyph-name="perthousand.lp" horiz-adv-x="1022" 
d="M357 537q0 -75 -48.5 -116.5t-117.5 -41.5q-68 0 -117 41.5t-49 116.5t48.5 116t117.5 41t117.5 -41t48.5 -116zM147 537q0 -86 9 -114.5t35 -28.5q27 0 36 28.5t9 114.5t-9 114t-36 28q-26 0 -35 -28t-9 -114zM47 0l270 350l247 329h46l-272 -352l-244 -327h-47z
M831 -15q-69 0 -117.5 41.5t-48.5 116.5t48.5 116t117.5 41t117.5 -41t48.5 -116t-48.5 -116.5t-117.5 -41.5zM469 -15q-69 0 -117.5 41.5t-48.5 116.5t48.5 116t117.5 41t117.5 -41t48.5 -116t-48.5 -116.5t-117.5 -41.5zM831 0q27 0 36 28.5t9 114.5t-9 114t-36 28
q-26 0 -35.5 -28.5t-9.5 -113.5t9.5 -114t35.5 -29zM469 0q27 0 36 28.5t9 114.5t-9 114t-36 28q-26 0 -35.5 -28.5t-9.5 -113.5t9.5 -114t35.5 -29z" />
    </font>
</defs>
</svg>
