<?xml version="1.0" standalone="no"?>
<!DOCTYPE svg PUBLIC "-//W3C//DTD SVG 1.1//EN" "http://www.w3.org/Graphics/SVG/1.1/DTD/svg11.dtd" >
<svg>
<metadata>
Created by FontForge 20120731 at Mon Dec  2 08:14:26 2019
 By www
Copyright 2012 (c) Okay Type Foundry. All rights reserved.
</metadata>
<defs>
<font id="HarrietDisplay-Medium" horiz-adv-x="600" >
  <font-face 
    font-family="Harriet Display Medium"
    font-weight="500"
    font-stretch="normal"
    units-per-em="1000"
    panose-1="2 0 0 0 0 0 0 0 0 0"
    ascent="800"
    descent="-200"
    x-height="487"
    cap-height="679"
    bbox="-106 -337 1275 1045"
    underline-thickness="0"
    underline-position="0"
    unicode-range="U+0020-FB06"
  />
<missing-glyph horiz-adv-x="500" 
d="M10 -230v995h480v-995h-480zM193 84h115q20 0 26.5 7t6.5 26q0 35 11.5 50.5t42.5 21.5q29 5 29 39q0 13 -3.5 23t-3.5 15q0 26 7 37q26 42 26 78q0 78 -53.5 123.5t-142.5 45.5q-95 0 -149.5 -47.5t-54.5 -130.5q0 -8 1.5 -15.5t2.5 -12t4.5 -11.5t4.5 -9.5t6.5 -11
t6.5 -9.5q7 -11 7 -37q0 -5 -3.5 -15t-3.5 -23q0 -34 28 -39q32 -6 43.5 -21t11.5 -51q0 -19 7 -26t27 -7zM335 222q-10 0 -17 4t-12.5 11.5t-6.5 8.5q-2 2 -6.5 6t-8 7t-6 6.5t-2.5 5.5q0 18 12 28.5t31 10.5q20 0 38 -18.5t18 -33.5q0 -12 -13.5 -24t-26.5 -12zM166 222
q-13 0 -26.5 12t-13.5 24q0 15 18 33.5t38 18.5q19 0 31 -10.5t12 -28.5q0 -5 -23 -25q-1 -1 -6.5 -8.5t-12.5 -11.5t-17 -4zM275 182q0 -4 -0.5 -7t-2 -5t-3 -3t-4.5 -1.5t-4.5 -0.5h-5.5h-5h-5h-5.5t-4.5 0.5t-4.5 1.5t-3 3t-2 5t-0.5 7q0 16 7 31.5t18 15.5t18 -15.5
t7 -31.5z" />
    <glyph glyph-name="ff" unicode="ff" horiz-adv-x="703" 
d="M433 546l1 21v11l-12 -1q-31 0 -50.5 18t-19.5 46q0 25 11 40t22.5 23.5t11.5 16.5q0 13 -17 22.5t-47 9.5q-58 0 -85 -40t-27 -126v-100h212v59zM642 0q-24 0 -73.5 0.5t-74.5 0.5q-24 0 -70 -0.5t-70 -0.5v15l32 6q30 4 38.5 15t8.5 42v377l-212 -3v-370
q0 -32 10 -44.5t41 -16.5l37 -6v-15q-25 0 -74.5 0.5t-73.5 0.5q-25 0 -70 -0.5t-70 -0.5v15l32 6q30 4 38.5 15t8.5 42v366l-94 15v18l94 13v25q0 130 66.5 191.5t164.5 61.5q105 0 149 -61q57 71 161 71q71 0 109.5 -30.5t38.5 -76.5q0 -35 -20.5 -56.5t-54.5 -21.5
q-31 0 -50.5 18t-19.5 46q0 26 13 41t26 23.5t13 16.5q0 10 -13.5 17.5t-38.5 7.5q-48 0 -69.5 -34t-21.5 -109q0 -22 0.5 -68t0.5 -65h129v-28l-129 -2v-375q0 -32 10.5 -44t40.5 -17l37 -6v-15z" />
    <glyph glyph-name="fi" unicode="fi" horiz-adv-x="637" 
d="M626 15v-15q-25 0 -70 0.5t-70 0.5q-24 0 -69.5 -0.5t-70.5 -0.5v15l33 6q29 4 37.5 15.5t8.5 42.5v320q0 31 -10.5 45t-39.5 14q-62 0 -154 -6v-370q0 -32 10 -44.5t41 -16.5l37 -6v-15q-25 0 -74 0.5t-74 0.5t-70 -0.5t-70 -0.5v15l32 6q30 4 38.5 15.5t8.5 42.5v365
l-94 15v18l94 13v41q0 66 20 115.5t55 77.5t77 41.5t91 13.5q82 0 127 -33t45 -86q0 -37 -21.5 -59t-57.5 -22q-33 0 -53.5 18.5t-20.5 48.5q0 28 20.5 52.5t20.5 33.5q0 31 -65 31q-117 0 -117 -165v-111h236l79 5l18 -7q-7 -52 -7 -112v-294q0 -31 8.5 -42.5t37.5 -15.5z
" />
    <glyph glyph-name="fl" unicode="fl" horiz-adv-x="646" 
d="M433 487v102q-12 -2 -19 -2q-30 0 -49.5 18t-19.5 46q0 19 7.5 33t16 20t16 12.5t7.5 13.5q0 13 -16.5 23t-45.5 10q-58 0 -83.5 -40t-25.5 -128v-108h212zM433 462l-212 -10v-370q0 -32 10 -44.5t41 -16.5l37 -6v-15q-25 0 -74 0.5t-74 0.5t-70 -0.5t-70 -0.5v15l32 6
q30 4 38.5 15.5t8.5 42.5v365l-94 15v18l94 13v38q0 130 65 190t164 60q96 0 141 -53l78 51l14 -6q-8 -58 -8 -123v-568q0 -31 9 -42.5t38 -15.5l32 -6v-15q-24 0 -69 0.5t-70 0.5t-70.5 -0.5t-70.5 -0.5v15l33 6q29 4 38 15.5t9 42.5v383z" />
    <glyph glyph-name="ffi" unicode="ffi" horiz-adv-x="969" 
d="M433 531v20q1 15 3 27l-14 -1q-31 0 -50.5 18t-19.5 46q0 25 11 40t22.5 23.5t11.5 16.5q0 13 -17 22.5t-47 9.5q-58 0 -85 -40t-27 -126v-100h212v44zM959 15v-15q-25 0 -70 0.5t-70 0.5t-70.5 -0.5t-69.5 -0.5v15l32 6q29 4 38 15.5t9 42.5v320q0 31 -11 45t-39 14
q-6 0 -59 -0.5t-95 -0.5v-375q0 -32 10 -44.5t40 -16.5l38 -6v-15q-25 0 -74 0.5t-74 0.5t-70.5 -0.5t-69.5 -0.5v15l32 6q30 4 38.5 15.5t8.5 42.5v376q-80 -1 -212 -4v-369q0 -32 10 -44.5t41 -16.5l37 -6v-15q-25 0 -74.5 0.5t-73.5 0.5q-25 0 -70 -0.5t-70 -0.5v15l32 6
q30 4 38.5 15t8.5 42v366l-94 15v18l94 13v25q0 130 66.5 191.5t164.5 61.5q54 0 94.5 -19t59.5 -49q65 79 190 79q83 0 128 -33t45 -86q0 -37 -21.5 -59t-57.5 -22q-33 0 -53.5 18.5t-20.5 48.5q0 28 20 52.5t20 33.5q0 31 -64 31q-117 0 -117 -165v-111h236l79 5l18 -7
q-8 -59 -8 -112v-294q0 -31 9 -42.5t38 -15.5z" />
    <glyph glyph-name="ffl" unicode="ffl" horiz-adv-x="978" 
d="M433 528v21q3 25 3 29l-14 -1q-31 0 -50.5 18t-19.5 46q0 25 11 40t22.5 23.5t11.5 16.5q0 13 -17 22.5t-47 9.5q-58 0 -85 -40t-27 -126v-100h212v41zM766 487v102q-12 -2 -19 -2q-30 0 -49.5 18t-19.5 46q0 19 7.5 33t16 20t16 12.5t7.5 13.5q0 13 -16.5 23t-46.5 10
q-58 0 -83 -40.5t-25 -127.5v-108h212zM766 464l-212 -5v-377q0 -32 10 -44.5t40 -16.5l38 -6v-15q-25 0 -74 0.5t-74 0.5t-70.5 -0.5t-69.5 -0.5v15l32 6q30 4 38.5 15.5t8.5 42.5v378l-212 -5v-370q0 -32 10 -44.5t41 -16.5l37 -6v-15q-25 0 -74.5 0.5t-73.5 0.5
q-25 0 -70 -0.5t-70 -0.5v15l32 6q30 4 38.5 15t8.5 42v366l-94 15v18l94 13v25q0 130 66.5 191.5t164.5 61.5q54 0 93.5 -18t59.5 -48q61 76 177 76q96 0 142 -54l78 52l14 -6q-8 -58 -8 -123v-568q0 -31 9 -42.5t38 -15.5l32 -6v-15q-24 0 -69 0.5t-70 0.5t-70.5 -0.5
t-70.5 -0.5v15l33 6q29 4 38 16t9 42v385z" />
    <glyph glyph-name=".notdef" horiz-adv-x="500" 
d="M10 -230v995h480v-995h-480zM193 84h115q20 0 26.5 7t6.5 26q0 35 11.5 50.5t42.5 21.5q29 5 29 39q0 13 -3.5 23t-3.5 15q0 26 7 37q26 42 26 78q0 78 -53.5 123.5t-142.5 45.5q-95 0 -149.5 -47.5t-54.5 -130.5q0 -8 1.5 -15.5t2.5 -12t4.5 -11.5t4.5 -9.5t6.5 -11
t6.5 -9.5q7 -11 7 -37q0 -5 -3.5 -15t-3.5 -23q0 -34 28 -39q32 -6 43.5 -21t11.5 -51q0 -19 7 -26t27 -7zM335 222q-10 0 -17 4t-12.5 11.5t-6.5 8.5q-2 2 -6.5 6t-8 7t-6 6.5t-2.5 5.5q0 18 12 28.5t31 10.5q20 0 38 -18.5t18 -33.5q0 -12 -13.5 -24t-26.5 -12zM166 222
q-13 0 -26.5 12t-13.5 24q0 15 18 33.5t38 18.5q19 0 31 -10.5t12 -28.5q0 -5 -23 -25q-1 -1 -6.5 -8.5t-12.5 -11.5t-17 -4zM275 182q0 -4 -0.5 -7t-2 -5t-3 -3t-4.5 -1.5t-4.5 -0.5h-5.5h-5h-5h-5.5t-4.5 0.5t-4.5 1.5t-3 3t-2 5t-0.5 7q0 16 7 31.5t18 15.5t18 -15.5
t7 -31.5z" />
    <glyph glyph-name=".null" horiz-adv-x="0" 
 />
    <glyph glyph-name="nonmarkingreturn" horiz-adv-x="333" 
 />
    <glyph glyph-name="space" unicode=" " horiz-adv-x="191" 
 />
    <glyph glyph-name="exclam" unicode="!" horiz-adv-x="330" 
d="M171 201h-12q-5 140 -33 236q-8 31 -26.5 83t-18.5 83q0 42 24 66t60 24q37 0 60.5 -24t23.5 -66q0 -24 -6.5 -46t-18.5 -55t-20 -65q-28 -96 -33 -236zM165 -10q-32 0 -54 21t-22 55t22 55t54 21q33 0 55 -21.5t22 -54.5q0 -34 -22 -55t-55 -21z" />
    <glyph glyph-name="quotedbl" unicode="&#x22;" horiz-adv-x="415" 
d="M290 488h-16q-5 41 -14.5 93.5t-16 88t-6.5 48.5q0 22 11.5 35t33.5 13t33.5 -13t11.5 -35q0 -16 -6 -51.5t-16 -87t-15 -91.5zM141 488h-16q-5 41 -14.5 93.5t-16 88t-6.5 48.5q0 22 11.5 35t33.5 13t33.5 -13t11.5 -35q0 -16 -6 -51.5t-16 -87t-15 -91.5z" />
    <glyph glyph-name="numbersign" unicode="#" horiz-adv-x="526" 
d="M330 248l15 141h-149l-15 -141h149zM171 152l-17 -152h-25l17 152h-93l-24 96h127l15 141h-107l-22 95h140l16 148h25l-16 -148h149l16 148h25l-16 -148h92l23 -95h-126l-15 -141h105l24 -96h-139l-17 -152h-25l17 152h-149z" />
    <glyph glyph-name="dollar" unicode="$" horiz-adv-x="539" 
d="M268 396l33 235h-8q-74 0 -112 -32t-38 -79q0 -48 30 -74t95 -50zM248 0q80 0 119 31.5t39 83.5t-33.5 79.5t-102.5 51.5l-35 -246h13zM495 180q0 -89 -70 -142.5t-176 -53.5h-16l-15 -105h-24l15 107q-89 7 -138.5 46.5t-49.5 100.5q0 34 20.5 56.5t52.5 22.5
q28 0 46 -17t18 -44q0 -19 -7 -32t-15.5 -19t-15.5 -13.5t-7 -16.5q0 -23 26 -42.5t73 -25.5l36 252l-2 1q-98 35 -144.5 80t-46.5 119q0 89 66.5 140.5t172.5 51.5h10l8 59h23l-9 -60q79 -7 126.5 -45t47.5 -89q0 -34 -20 -56t-52 -22q-28 0 -46 17t-18 45q0 31 22 50.5
t22 30.5q0 16 -23 32t-61 21l-34 -242q7 -2 23 -8q46 -17 72.5 -30.5t55 -36t41.5 -55t13 -77.5z" />
    <glyph glyph-name="percent" unicode="%" horiz-adv-x="675" 
d="M353 497q0 -71 -45 -112t-115 -41q-71 0 -116.5 40.5t-45.5 111.5q0 70 45.5 111t115.5 41q71 0 116 -40.5t45 -110.5zM115 496q0 -136 78 -136q77 0 77 137q0 135 -78 135q-77 0 -77 -136zM43 0l281 323l257 309h41l-279 -323l-258 -309h-42zM483 -11q-72 0 -117 40.5
t-45 111.5q0 70 45 111t116 41t116.5 -40.5t45.5 -111.5q0 -70 -45.5 -111t-115.5 -41zM483 5q77 0 77 136t-78 136q-77 0 -77 -136t78 -136z" />
    <glyph glyph-name="ampersand" unicode="&#x26;" horiz-adv-x="760" 
d="M745 161q-11 -98 -52 -137t-112 -39q-95 0 -164 65q-62 -65 -172 -65q-101 0 -165 51t-64 141q0 154 198 214q-24 75 -24 126q0 85 50.5 132t121.5 47q61 0 104.5 -30.5t43.5 -87.5q0 -103 -179 -161q20 -53 56 -120q45 -83 76 -131q5 17 10 39q11 45 20 75t24.5 64.5
t34 55t47 34.5t64.5 14q43 0 67.5 -23t24.5 -58q0 -34 -19 -54t-48 -20t-47 16.5t-18 43.5q0 7 1.5 18t1.5 14q0 15 -17 15q-70 0 -118 -199q-7 -29 -15 -54q81 -116 149 -116q41 0 67.5 28.5t38.5 102.5zM326 428l6 2q98 43 98 150q0 99 -68 99q-75 0 -75 -92
q0 -55 39 -159zM294 17q70 0 111 46q-52 53 -119 171q-41 73 -67 143q-78 -34 -78 -167q0 -84 42.5 -138.5t110.5 -54.5z" />
    <glyph glyph-name="quotesingle" unicode="'" horiz-adv-x="266" 
d="M141 488h-16q-5 41 -14.5 93.5t-16 88t-6.5 48.5q0 22 11.5 35t33.5 13t33.5 -13t11.5 -35q0 -16 -6 -51.5t-16 -87t-15 -91.5z" />
    <glyph glyph-name="parenleft" unicode="(" horiz-adv-x="390" 
d="M361 -175l-7 -9q-47 32 -88.5 72.5t-85.5 99.5t-70 137.5t-26 165.5v4q0 86 26 165t70 138t85.5 99.5t88.5 73.5l7 -10q-159 -156 -159 -466v-4q0 -309 159 -466z" />
    <glyph glyph-name="parenright" unicode=")" horiz-adv-x="390" 
d="M36 -184l-7 9q159 157 159 466v4q0 310 -159 466l7 10q47 -33 88.5 -73.5t85.5 -99.5t70 -138t26 -165v-4q0 -87 -26 -165.5t-70 -137.5t-85.5 -99.5t-88.5 -72.5z" />
    <glyph glyph-name="asterisk" unicode="*" horiz-adv-x="423" 
d="M215 423q-4 -17 -17 -24t-30 -3q-38 10 -28 47q4 14 27.5 40t38.5 70q-42 -13 -68.5 -38t-40.5 -29q-17 -5 -31 2.5t-18 24.5q-5 17 3 30t25 17q12 3 49.5 -3t79.5 4q-32 29 -67 42.5t-45 22.5q-27 28 0 55q12 12 27.5 11t27.5 -13q10 -10 21 -45t41 -68q8 48 0.5 81
t-3.5 47q12 38 48 28q17 -5 24 -18t3 -30q-4 -14 -15 -25.5t-25 -31t-25 -53.5q41 14 68 39t41 29q17 5 31 -3t18 -24q5 -17 -3 -30.5t-25 -17.5q-13 -3 -49.5 3.5t-79.5 -4.5q31 -29 66.5 -41.5t45.5 -22.5q12 -11 12.5 -27.5t-12.5 -28.5q-26 -26 -55 2q-11 11 -15.5 27
t-14 38.5t-32.5 47.5q-8 -47 -1 -80t3 -48z" />
    <glyph glyph-name="plus" unicode="+" horiz-adv-x="550" 
d="M292 228v-202h-34v202h-202v34h202v200h34v-200h202v-34h-202z" />
    <glyph glyph-name="comma" unicode="," horiz-adv-x="276" 
d="M74 -192l-10 19q53 28 85.5 75t32.5 92q0 15 -12 15q-6 0 -20 -8t-31 -8q-30 0 -49.5 20t-19.5 54q0 35 23 57t56 22q43 0 68 -30.5t25 -88.5q0 -72 -41.5 -129.5t-106.5 -89.5z" />
    <glyph glyph-name="hyphen" unicode="-" horiz-adv-x="299" 
d="M25 226v36h249v-36h-249z" />
    <glyph glyph-name="period" unicode="." horiz-adv-x="265" 
d="M211 67q0 -34 -22.5 -55.5t-55.5 -21.5t-56 21.5t-23 55.5q0 35 23 57t56 22t55.5 -22t22.5 -57z" />
    <glyph glyph-name="slash" unicode="/" horiz-adv-x="319" 
d="M15 -50l258 779h31l-258 -779h-31z" />
    <glyph glyph-name="zero" unicode="0" horiz-adv-x="635" 
d="M590 263q0 -126 -80 -202t-193 -76q-112 0 -192.5 76t-80.5 202q0 127 80.5 202.5t192.5 75.5q113 0 193 -75.5t80 -202.5zM187 263q0 -262 130 -262q131 0 131 262t-131 262q-130 0 -130 -262z" />
    <glyph glyph-name="one" unicode="1" horiz-adv-x="484" 
d="M79 0v16l43 7q42 7 55 22.5t13 53.5v288q0 43 -13.5 59.5t-53.5 19.5l-54 4v18l56 4q158 10 176 35h19q-4 -63 -4 -135v-293q0 -39 12.5 -54.5t54.5 -21.5l44 -7v-16q-33 0 -89.5 0.5t-82.5 0.5q-27 0 -85.5 -0.5t-90.5 -0.5z" />
    <glyph glyph-name="two" unicode="2" horiz-adv-x="568" 
d="M483 -72h-16v23q0 26 -11 37.5t-38 11.5h-369v35q160 102 209 145q117 100 117 216q0 129 -97 129q-57 0 -92 -42t-35 -97q0 -77 50 -77q45 0 57 74l13 -2q-8 -60 -41 -93.5t-81 -33.5q-47 0 -75 29.5t-28 76.5q0 77 66.5 129t168.5 52q101 0 164 -44t63 -118
q0 -27 -9.5 -50t-22 -39t-38 -35t-43.5 -29.5t-53.5 -30.5t-54.5 -31q-15 -8 -58.5 -33t-67.5 -39q66 11 134 11h219z" />
    <glyph glyph-name="three" unicode="3" horiz-adv-x="561" 
d="M533 62q0 -73 -50.5 -127t-119 -78.5t-139.5 -24.5q-96 0 -148 37.5t-52 95.5q0 36 22.5 62t60.5 26q33 0 52.5 -18.5t19.5 -48.5q0 -22 -9 -37t-20 -21t-20 -13.5t-9 -15.5q0 -19 27.5 -35t73.5 -16q77 0 126 56.5t49 152.5q0 84 -22.5 119t-74.5 35q-29 0 -54.5 -15
t-46 -30t-37.5 -15q-39 0 -39 41q15 8 73.5 22.5t85.5 30.5q91 54 91 164q0 116 -97 116q-60 0 -90.5 -37t-30.5 -89q0 -66 50 -66q44 0 57 71l12 -2q-8 -60 -38 -91.5t-78 -31.5t-76 27t-28 73q0 71 66 116.5t160 45.5q97 0 159 -33t62 -103q0 -19 -5.5 -35t-13 -28.5
t-24 -25.5t-30 -21.5t-39.5 -20.5t-44.5 -19.5t-53 -22t-56.5 -23.5q49 22 114 22q79 0 131.5 -41t52.5 -128z" />
    <glyph glyph-name="four" unicode="4" horiz-adv-x="571" 
d="M39 86h245v166v14q0 119 8 198zM499 -138v-15q-26 0 -76 0.5t-77 0.5q-26 0 -80 -0.5t-81 -0.5v15l43 6q33 5 44.5 18.5t11.5 46.5v127h-259l-9 26l293 440h99v-440h25q38 0 56 16.5t35 65.5l16 45h14l-23 -155q-66 2 -101 2h-22v-130q0 -33 9.5 -45t42.5 -17z" />
    <glyph glyph-name="five" unicode="5" horiz-adv-x="554" 
d="M219 -168q-91 0 -141.5 36.5t-50.5 97.5q0 38 23 63t61 25q31 0 50.5 -18.5t19.5 -48.5q0 -28 -14.5 -44t-28.5 -25t-14 -20q0 -19 26 -34.5t70 -15.5q74 0 117 56t43 153q0 101 -30 147t-94 46q-84 0 -129 -85l-46 4l34 361h22q73 -22 182 -22q135 0 179 30l7 -2
q-32 -94 -142 -125t-240 -10l-19 -196q69 64 172 64q66 0 118 -20t87 -68t35 -119q0 -75 -47.5 -129t-113 -77.5t-136.5 -23.5z" />
    <glyph glyph-name="six" unicode="6" 
d="M172 212q0 100 44 155t126 55q96 0 157 -56.5t61 -154.5q0 -101 -76 -163.5t-178 -62.5q-116 0 -189 81t-73 242q0 183 93.5 284.5t219.5 101.5q90 0 138.5 -34.5t48.5 -86.5q0 -38 -22 -61.5t-59 -23.5q-32 0 -52 18t-20 49q0 20 8 34.5t17 21t17 14.5t8 17q0 14 -21 25
t-61 11q-99 0 -143 -109t-44 -357zM187 212q0 -211 120 -211q117 0 117 201q0 191 -111 191q-59 0 -92.5 -51t-33.5 -130z" />
    <glyph glyph-name="seven" unicode="7" horiz-adv-x="533" 
d="M245 -170q-40 0 -60 22t-20 59q0 134 144 338q20 28 45 59.5t52 65t39 48.5h-285q-39 0 -58 -13t-32 -48l-16 -43h-18l33 228h16q0 -11 5 -15.5t19 -4.5h401v-39q-41 -54 -64 -88t-49.5 -84.5t-42.5 -99.5q-31 -95 -31 -300q0 -39 -21 -62t-57 -23z" />
    <glyph glyph-name="eight" unicode="8" horiz-adv-x="624" 
d="M312 -15q-119 0 -196.5 50t-77.5 142q0 76 61.5 124t158.5 60q-80 11 -131.5 53t-51.5 108q0 83 66.5 127.5t170.5 44.5q105 0 171 -44.5t66 -127.5q0 -66 -51.5 -108t-131.5 -53q97 -12 158.5 -60t61.5 -124q0 -92 -77.5 -142t-196.5 -50zM204 524q0 -154 108 -154
t108 154q0 76 -28.5 115t-79.5 39q-50 0 -79 -39.5t-29 -114.5zM181 176q0 -83 35 -128t96 -45t96 45t35 128q0 84 -34 128.5t-97 44.5t-97 -44.5t-34 -128.5z" />
    <glyph glyph-name="nine" unicode="9" horiz-adv-x="603" 
d="M418 314q0 211 -121 211q-117 0 -117 -201q0 -191 111 -191q59 0 93 51t34 130zM432 314q0 -101 -44 -155.5t-126 -54.5q-96 0 -157 56t-61 154q0 102 76 164.5t178 62.5q115 0 188.5 -81.5t73.5 -242.5q0 -94 -27 -169t-72 -121t-100 -70.5t-114 -24.5q-89 0 -138 34.5
t-49 85.5q0 38 22 61.5t59 23.5q32 0 52 -18t20 -48q0 -25 -12.5 -41t-25 -26t-12.5 -20q0 -15 21 -25.5t61 -10.5q99 0 143 109t44 357z" />
    <glyph glyph-name="colon" unicode=":" horiz-adv-x="288" 
d="M222 419q0 -34 -22.5 -55.5t-55.5 -21.5t-56 21.5t-23 55.5q0 35 23 57t56 22t55.5 -22t22.5 -57zM222 67q0 -34 -22.5 -55.5t-55.5 -21.5t-56 21.5t-23 55.5q0 35 23 57t56 22t55.5 -22t22.5 -57z" />
    <glyph glyph-name="semicolon" unicode=";" horiz-adv-x="302" 
d="M226 419q0 -34 -22.5 -55.5t-55.5 -21.5t-56 21.5t-23 55.5q0 35 23 57t56 22t55.5 -22t22.5 -57zM89 -192l-10 19q53 28 85.5 75t32.5 92q0 15 -12 15q-6 0 -20 -8t-31 -8q-30 0 -49.5 20t-19.5 54q0 35 23 57t56 22q43 0 68 -30.5t25 -88.5q0 -72 -41.5 -129.5
t-106.5 -89.5z" />
    <glyph glyph-name="less" unicode="&#x3c;" horiz-adv-x="550" 
d="M462 24l-400 204v32l400 204l14 -28l-382 -192l382 -192z" />
    <glyph glyph-name="equal" unicode="=" horiz-adv-x="550" 
d="M56 322v34h438v-34h-438zM494 132h-438v34h438v-34z" />
    <glyph glyph-name="greater" unicode="&#x3e;" horiz-adv-x="550" 
d="M488 228l-400 -204l-14 28l382 192l-382 192l14 28l400 -204v-32z" />
    <glyph glyph-name="question" unicode="?" horiz-adv-x="556" 
d="M528 508q0 -49 -23.5 -87.5t-60.5 -59t-77.5 -31t-80.5 -10.5q-13 0 -37 2l-17 -118h-13l-21 143l13 5q32 -15 67 -15q50 0 82 42.5t32 132.5q0 80 -31 122.5t-86 42.5q-65 0 -96.5 -40t-31.5 -93q0 -33 13.5 -51t36.5 -18q21 0 35.5 17t25.5 57l12 -2q-11 -63 -43 -95.5
t-80 -32.5q-47 0 -76 28.5t-29 75.5q0 71 64.5 121t170.5 50t178.5 -48t72.5 -138zM306 66q0 -34 -22 -55t-54 -21q-33 0 -55 21t-22 55t22 55t55 21t54.5 -21.5t21.5 -54.5z" />
    <glyph glyph-name="at" unicode="@" horiz-adv-x="908" 
d="M464 -241q-183 0 -299 111t-116 283q0 128 64.5 239t173 176.5t232.5 65.5q149 0 246 -80.5t97 -220.5q0 -131 -83 -223t-178 -92q-55 0 -84.5 22.5t-29.5 65.5q0 27 14 62q-29 -81 -57 -113.5t-73 -32.5q-52 0 -82 35.5t-30 92.5q0 106 73 192.5t180 86.5q71 0 107 -42
l61 42h11l-38 -88l-65 -193q-11 -33 -11 -50q0 -55 56 -55q60 0 112.5 66.5t52.5 184.5q0 135 -88.5 218.5t-228.5 83.5q-165 0 -261 -102t-96 -271q0 -164 110.5 -267.5t284.5 -103.5q162 0 220 61l8 -6q-45 -72 -119.5 -110t-163.5 -38zM402 55q23 0 42 24t41 88l76 219
q-14 27 -45 27q-41 0 -78 -52.5t-56 -118.5t-19 -117q0 -70 39 -70z" />
    <glyph glyph-name="A" unicode="A" horiz-adv-x="720" 
d="M725 0q-29 0 -84.5 0.5t-85.5 0.5t-86 -0.5t-86 -0.5v16l51 7q37 5 43.5 25.5t-9.5 59.5l-39 107h-248l-15 -39q-29 -76 -22.5 -107.5t58.5 -43.5l47 -9v-16q-22 0 -62.5 0.5t-62.5 0.5t-64.5 -0.5t-64.5 -0.5v15l32 9q39 11 63 42.5t56 116.5l141 372l44 128h69
l210 -552q25 -65 40 -85.5t44 -24.5l31 -5v-16zM307 549l-118 -313h232z" />
    <glyph glyph-name="B" unicode="B" horiz-adv-x="677" 
d="M19 0v16l47 7q40 6 51 19.5t11 49.5v495q0 36 -11 49.5t-51 19.5l-47 7v16h330q114 0 186.5 -37.5t72.5 -119.5q0 -135 -207 -162v-4q239 -15 239 -168q0 -92 -72.5 -140t-207.5 -48h-341zM266 365h62q72 0 104.5 39t32.5 117q0 77 -32 108.5t-102 31.5h-65v-296z
M266 347v-272q0 -30 14 -43.5t45 -13.5h24q69 0 103 41t34 132q0 82 -40 119t-117 37h-63z" />
    <glyph glyph-name="C" unicode="C" horiz-adv-x="698" 
d="M612 -10l-43 67q-73 -73 -190 -73q-141 0 -241.5 95t-100.5 259t101 260.5t240 96.5q120 0 191 -73l43 67h9v-281h-18q-49 148 -100 209.5t-123 61.5q-92 0 -141 -85.5t-49 -254.5q0 -164 48 -251.5t143 -87.5q73 0 124.5 61.5t97.5 197.5h18v-269h-9z" />
    <glyph glyph-name="D" unicode="D" horiz-adv-x="748" 
d="M19 0v16l47 7q40 6 51 19.5t11 49.5v495q0 36 -11 49.5t-51 19.5l-47 7v16h325q76 0 140.5 -19t116.5 -58.5t81 -106.5t29 -156q0 -88 -29.5 -155t-81.5 -106.5t-116 -58.5t-140 -19h-325zM325 18h20q106 0 159.5 77.5t53.5 243.5q0 167 -54 244.5t-160 77.5h-78v-586
q0 -30 14 -43.5t45 -13.5z" />
    <glyph glyph-name="E" unicode="E" horiz-adv-x="654" 
d="M613 241l-9 -241h-585v16l47 7q40 6 51 19.5t11 49.5v495q0 36 -11 49.5t-51 19.5l-47 7v16h557l8 -225h-20q-48 120 -87.5 163.5t-107.5 43.5h-103v-302h56q45 0 70 33t53 120h16q-1 -55 -1 -163q0 -109 1 -163h-16q-30 91 -54 123t-69 32h-56v-266q0 -30 14 -43.5
t45 -13.5h48q81 0 124.5 45t95.5 178h20z" />
    <glyph glyph-name="F" unicode="F" horiz-adv-x="622" 
d="M382 16v-16q-31 0 -91.5 0.5t-92.5 0.5q-31 0 -89.5 -0.5t-89.5 -0.5v16l47 7q40 6 51 19.5t11 48.5v496q0 36 -11 49.5t-51 19.5l-47 7v16h559l8 -237h-20q-51 126 -90 172.5t-106 46.5h-104v-304h56q45 0 70 33t53 120h16q-1 -55 -1 -163q0 -109 1 -163h-16
q-30 91 -54 123t-69 32h-56v-241q0 -37 13.5 -53t54.5 -22z" />
    <glyph glyph-name="G" unicode="G" horiz-adv-x="732" 
d="M622 -13l-57 80q-69 -83 -197 -83q-136 0 -233.5 95t-97.5 259q0 110 50 193.5t127 123.5t167 40q119 0 191 -72l43 66h9v-279h-18q-49 147 -100 208t-123 61q-94 0 -143.5 -86t-49.5 -254q0 -339 183 -339q64 0 96.5 38.5t32.5 102.5v82q0 31 -12 45.5t-48 20.5l-55 8
v16q58 -1 168 -1q117 0 176 1v-16l-52 -8q-32 -6 -42.5 -20.5t-10.5 -45.5v-97l5 -139h-9z" />
    <glyph glyph-name="H" unicode="H" horiz-adv-x="819" 
d="M800 0q-30 0 -88 0.5t-89 0.5q-30 0 -87.5 -0.5t-88.5 -0.5v16l46 7q39 6 49.5 19.5t10.5 49.5v245h-287v-245q0 -35 11 -48.5t49 -20.5l46 -7v-16q-30 0 -88 0.5t-88 0.5q-31 0 -89 -0.5t-88 -0.5v16l47 7q40 6 51 19.5t11 49.5v495q0 36 -11 49.5t-51 19.5l-47 7v16
q30 0 88 -0.5t89 -0.5q30 0 88 0.5t88 0.5v-16l-46 -7q-38 -7 -49 -20.5t-11 -48.5v-229h287v228q0 36 -10.5 50t-49.5 20l-46 7v16q31 0 88.5 -0.5t87.5 -0.5q31 0 89 0.5t88 0.5v-16l-47 -7q-40 -6 -51 -19.5t-11 -49.5v-495q0 -36 11 -49.5t51 -19.5l47 -7v-16z" />
    <glyph glyph-name="I" unicode="I" horiz-adv-x="394" 
d="M375 16v-16q-31 0 -89 0.5t-89 0.5t-89 -0.5t-89 -0.5v16l47 7q40 6 51 19.5t11 49.5v495q0 36 -11 49.5t-51 19.5l-47 7v16q31 0 89 -0.5t89 -0.5t89 0.5t89 0.5v-16l-47 -7q-39 -6 -50 -19.5t-11 -49.5v-495q0 -36 11 -49.5t50 -19.5z" />
    <glyph glyph-name="J" unicode="J" horiz-adv-x="545" 
d="M172 -15q-78 0 -127 38.5t-49 102.5q0 42 24.5 69.5t63.5 27.5q33 0 53.5 -20t20.5 -52t-17.5 -50t-46.5 -21q-22 -3 -22 -20q0 -22 26.5 -40.5t68.5 -18.5q129 0 129 175v405q0 37 -13.5 53t-54.5 22l-48 7v16q31 0 89.5 -0.5t89.5 -0.5t89.5 0.5t90.5 0.5v-16l-48 -7
q-39 -6 -50 -19.5t-11 -49.5v-334q0 -129 -75 -198.5t-183 -69.5z" />
    <glyph glyph-name="K" unicode="K" horiz-adv-x="774" 
d="M780 16v-16q-30 0 -88 0.5t-88 0.5t-91 -0.5t-92 -0.5v16l30 5q45 7 45 28q0 16 -34 56l-194 236l195 194q60 60 60 85q0 14 -11 22t-40 14l-37 7v16q51 -1 152 -1q104 0 155 1v-16l-31 -6q-66 -13 -116.5 -42t-117.5 -95l-102 -98l247 -297q50 -58 73.5 -76.5
t60.5 -27.5zM372 16v-16q-31 0 -88.5 0.5t-88.5 0.5t-88 -0.5t-88 -0.5v16l47 7q40 6 51 19.5t11 49.5v495q0 36 -11 49.5t-51 19.5l-47 7v16q31 0 89 -0.5t89 -0.5t89 0.5t89 0.5v-16l-47 -7q-40 -6 -51 -19.5t-11 -49.5v-495q0 -35 11 -49t48 -20z" />
    <glyph glyph-name="L" unicode="L" horiz-adv-x="649" 
d="M607 0h-588v16l47 7q40 6 51 19.5t11 49.5v495q0 36 -11 49.5t-51 19.5l-47 7v16q31 0 89.5 -0.5t89.5 -0.5q32 0 90.5 0.5t89.5 0.5v-16l-49 -7q-40 -6 -51.5 -20t-11.5 -51v-510q0 -30 14 -43.5t45 -13.5h57q69 0 116.5 52.5t97.5 191.5h18z" />
    <glyph glyph-name="M" unicode="M" horiz-adv-x="948" 
d="M682 623l-242 -625h-45l-243 617v-471q0 -62 15.5 -87t57.5 -34l37 -7v-16q-22 0 -61 0.5t-61 0.5t-61 -0.5t-60 -0.5v16l36 7q42 10 57.5 34.5t15.5 86.5v443q0 36 -11 49.5t-51 19.5l-47 7v16h261l200 -516l199 516h250v-16l-47 -7q-40 -6 -51 -19.5t-11 -49.5v-495
q0 -36 11 -49.5t51 -19.5l47 -7v-16q-31 0 -89 0.5t-89 0.5t-89 -0.5t-89 -0.5v16l47 7q40 6 51 19.5t11 49.5v531z" />
    <glyph glyph-name="N" unicode="N" horiz-adv-x="749" 
d="M625 -2h-89l-384 593v-447q0 -62 15.5 -87t57.5 -34l37 -7v-16q-22 0 -61 0.5t-61 0.5t-61 -0.5t-60 -0.5v16l36 7q42 10 57.5 34.5t15.5 86.5v441q0 35 -12 50t-50 21l-47 7v16h244l338 -518v374q0 62 -15.5 87t-57.5 34l-36 7v16q22 0 61 -0.5t60 -0.5q22 0 61 0.5
t60 0.5v-16l-36 -7q-42 -10 -57.5 -34.5t-15.5 -86.5v-537z" />
    <glyph glyph-name="O" unicode="O" horiz-adv-x="756" 
d="M719 339q0 -160 -99.5 -257.5t-241.5 -97.5t-241.5 97.5t-99.5 257.5q0 162 99.5 259t241.5 97t241.5 -97t99.5 -259zM189 339q0 -154 45 -246.5t144 -92.5q51 0 88.5 26t59 73.5t31.5 107t10 132.5q0 100 -17.5 173.5t-61 120t-110.5 46.5q-68 0 -111.5 -47t-60.5 -120
t-17 -173z" />
    <glyph glyph-name="P" unicode="P" horiz-adv-x="656" 
d="M266 661v-338q51 -3 71 -3q70 0 109.5 42t39.5 127q0 91 -38.5 131.5t-118.5 40.5h-63zM382 16v-16q-31 0 -91.5 0.5t-92.5 0.5q-31 0 -89.5 -0.5t-89.5 -0.5v16l47 7q40 6 51 19.5t11 48.5v496q0 36 -11 49.5t-51 19.5l-47 7v16h310q302 0 302 -190q0 -92 -81.5 -139.5
t-212.5 -47.5q-50 0 -71 3v-207q0 -37 13.5 -53t54.5 -22z" />
    <glyph glyph-name="Q" unicode="Q" horiz-adv-x="756" 
d="M746 -269q-49 0 -91.5 19.5t-73.5 46.5t-61.5 54.5t-68.5 47t-81 19.5q-41 0 -75.5 -15t-53.5 -33t-41 -33t-41 -15q-36 0 -51 34q54 48 157 64q64 32 202 88q-58 -21 -102 -21q-132 0 -230 96.5t-98 255.5q0 157 95.5 256.5t245.5 99.5t245.5 -99.5t95.5 -256.5
q0 -120 -57 -202.5t-142 -119.5q-33 -15 -81 -34.5t-85.5 -35.5t-73.5 -35q58 24 123 24q62 0 120.5 -12.5t96 -28t84.5 -28t87 -12.5q64 0 95.5 19.5t41.5 62.5h13q-10 -95 -57.5 -150.5t-137.5 -55.5zM189 339q0 -99 17 -172t60.5 -119.5t111.5 -46.5q99 0 144 92.5
t45 245.5q0 100 -17.5 173.5t-61 120t-110.5 46.5q-68 0 -111.5 -47t-60.5 -120t-17 -173z" />
    <glyph glyph-name="R" unicode="R" horiz-adv-x="715" 
d="M722 0h-147q-49 0 -67 12.5t-36 53.5l-121 256q-7 -1 -18 -1q-31 0 -67 2v-231q0 -36 11 -49.5t51 -19.5l47 -7v-16q-31 0 -89 0.5t-89 0.5t-89 -0.5t-89 -0.5v16l47 7q40 6 51 19.5t11 49.5v495q0 36 -11 49.5t-51 19.5l-47 7v16h314q293 0 293 -177q0 -66 -46.5 -106
t-115.5 -54q29 -20 58 -76l85 -162q22 -42 38 -58.5t46 -22.5l31 -7v-16zM266 662v-321q25 -1 67 -1q73 0 110.5 37.5t37.5 121.5q0 91 -37 127t-116 36h-62z" />
    <glyph glyph-name="S" unicode="S" horiz-adv-x="588" 
d="M536 190q0 -98 -68 -152t-162 -54q-127 0 -193 67l-37 -62h-10v279h20q37 -145 89.5 -206.5t130.5 -61.5q62 0 97.5 33.5t35.5 92.5t-41.5 91.5t-126.5 62.5q-100 35 -150 87.5t-50 128.5q0 90 65 144.5t159 54.5q104 0 165 -64l34 59h10v-263h-19q-37 134 -79 193
t-112 59q-62 0 -94 -33.5t-32 -83.5q0 -57 42.5 -91t130.5 -65q96 -36 145.5 -82.5t49.5 -133.5z" />
    <glyph glyph-name="T" unicode="T" horiz-adv-x="679" 
d="M521 16v-16q-31 0 -90.5 0.5t-90.5 0.5q-32 0 -92 -0.5t-91 -0.5v16l48 7q41 6 53 20.5t12 50.5v567h-50q-57 0 -93.5 -45t-86.5 -175h-16l5 238h621l5 -238h-16q-50 130 -86.5 175t-93.5 45h-50v-567q0 -36 12 -50.5t53 -20.5z" />
    <glyph glyph-name="U" unicode="U" horiz-adv-x="765" 
d="M388 -15q-133 0 -200.5 60t-67.5 196v346q0 36 -11 49.5t-50 19.5l-48 7v16q31 0 89.5 -0.5t89.5 -0.5t89 0.5t89 0.5v-16l-48 -7q-39 -6 -50 -19.5t-11 -49.5v-349q0 -114 45 -163t133 -49q187 0 187 215v294q0 62 -15 87t-57 34l-37 7v16q21 0 60 -0.5t61 -0.5t61 0.5
t61 0.5v-16l-37 -7q-41 -10 -56.5 -34.5t-15.5 -86.5v-294q0 -256 -261 -256z" />
    <glyph glyph-name="V" unicode="V" horiz-adv-x="730" 
d="M326 -2l-205 550q-22 61 -41 83t-52 27l-34 5v16q60 -1 181 -1q120 0 181 1v-16l-51 -7q-38 -5 -47.5 -26t5.5 -59l154 -440l136 371q29 77 20 109t-62 43l-47 9v16q46 -1 136 -1t136 1v-15l-34 -9q-44 -11 -70.5 -44t-57.5 -116l-139 -369l-44 -128h-65z" />
    <glyph glyph-name="W" unicode="W" horiz-adv-x="1038" 
d="M296 -4l-180 554q-19 59 -37.5 81t-51.5 27l-33 5v16q60 -1 182 -1q120 0 181 1v-16l-51 -7q-70 -9 -47 -85l123 -415l149 526h67l167 -526l104 345q20 55 16.5 87.5t-19 45.5t-52.5 21l-41 8v16q46 -1 136 -1q91 0 135 1v-15l-31 -8q-45 -11 -71.5 -45t-51.5 -116
l-108 -356l-40 -143h-66l-170 517l-106 -372l-38 -145h-66z" />
    <glyph glyph-name="X" unicode="X" horiz-adv-x="787" 
d="M786 0q-33 0 -96.5 0.5t-95.5 0.5t-96 -0.5t-97 -0.5v16l48 7q73 9 27 80l-126 193l-110 -143q-45 -57 -45 -87t63 -42l44 -8v-16q-25 0 -75 0.5t-76 0.5q-25 0 -75.5 -0.5t-75.5 -0.5v15l30 7q58 13 93.5 39.5t99.5 105.5l116 146l-161 236q-44 63 -67.5 83.5
t-55.5 25.5l-33 5v16q62 -1 185 -1q122 0 184 1v-16l-43 -6q-66 -8 -21 -80l112 -174l95 123q49 63 49 89q0 31 -59 41l-43 7v16q48 -1 143 -1q96 0 144 1v-15l-33 -7q-51 -11 -86 -38.5t-98 -106.5l-101 -126l172 -249q47 -67 72.5 -89t61.5 -28l30 -4v-16z" />
    <glyph glyph-name="Y" unicode="Y" horiz-adv-x="719" 
d="M538 16v-16q-31 0 -90.5 0.5t-90.5 0.5t-91 -0.5t-92 -0.5v16l48 7q41 6 53 20.5t12 50.5v172l-169 311q-23 42 -42 59t-47 22l-34 5v16q61 -1 184 -1q121 0 182 1v-16l-52 -7q-67 -9 -31 -81l139 -268l107 198q37 68 37 103q0 37 -60 48l-38 7v16q44 -1 131 -1
q88 0 132 1v-15l-29 -7q-39 -10 -71.5 -42.5t-80.5 -117.5l-119 -214v-189q0 -36 12 -50.5t53 -20.5z" />
    <glyph glyph-name="Z" unicode="Z" horiz-adv-x="648" 
d="M596 0h-561v18l405 643h-150q-77 0 -122.5 -44.5t-94.5 -175.5h-19l7 238h542v-18l-404 -643h158q79 0 128.5 48t98.5 185h20z" />
    <glyph glyph-name="bracketleft" unicode="[" horiz-adv-x="418" 
d="M120 -190v965l279 -10v-17l-171 -11v-889l171 -11v-17z" />
    <glyph glyph-name="backslash" unicode="\" horiz-adv-x="319" 
d="M46 729l258 -779h-31l-258 779h31z" />
    <glyph glyph-name="bracketright" unicode="]" horiz-adv-x="418" 
d="M298 775v-965l-279 10v17l171 11v889l-171 11v17z" />
    <glyph glyph-name="asciicircum" unicode="^" horiz-adv-x="560" 
d="M280 727l-196 -280h-25l180 318h83l180 -318h-26z" />
    <glyph glyph-name="underscore" unicode="_" horiz-adv-x="518" 
d="M0 -57v32h518v-32h-518z" />
    <glyph glyph-name="grave" unicode="`" horiz-adv-x="537" 
d="M325 578h-6q-125 76 -174 169v3h102q19 -70 78 -172z" />
    <glyph glyph-name="a" unicode="a" horiz-adv-x="524" 
d="M225 23q38 0 62.5 28t24.5 83v114q-84 -13 -121 -42t-37 -96q0 -41 18.5 -64t52.5 -23zM523 128q-2 -77 -24.5 -108.5t-73.5 -31.5q-46 0 -69.5 24t-28.5 82q-13 -51 -54.5 -80t-101.5 -29q-68 0 -104.5 31t-36.5 84q0 40 22.5 70t64.5 48t88.5 28t107.5 16v101
q0 68 -17.5 95t-67.5 27q-37 0 -59.5 -13.5t-22.5 -30.5q0 -13 12.5 -23t25 -23.5t12.5 -36.5q0 -29 -19.5 -46t-50.5 -17q-33 0 -52.5 21.5t-19.5 57.5q0 54 50.5 90t128.5 36q95 0 146 -41.5t51 -124.5q0 -6 -0.5 -131t-0.5 -128q0 -52 33 -52q20 0 31 23t14 82h16z" />
    <glyph glyph-name="b" unicode="b" horiz-adv-x="556" 
d="M530 248q0 -121 -73.5 -192t-176.5 -71t-155 64l-56 -61h-11l8 147v526q0 31 -10 42t-43 15l-41 5v12l206 40l17 -7q-7 -52 -7 -124v-79q0 -52 -7 -138t-7 -148q0 106 37 164t109 58q94 0 152 -69.5t58 -183.5zM279 1q64 0 91.5 63.5t27.5 182.5q0 110 -22.5 168.5
t-77.5 58.5q-51 0 -80.5 -52t-29.5 -143v-225q30 -53 91 -53z" />
    <glyph glyph-name="c" unicode="c" horiz-adv-x="504" 
d="M458 115q-68 -129 -199 -129q-97 0 -165 67t-68 187q0 121 76.5 191.5t182.5 70.5q77 0 123 -35t46 -89q0 -34 -21.5 -57.5t-56.5 -23.5q-32 0 -52 17.5t-20 47.5q0 21 9 35.5t19 21t19 14.5t9 16q0 14 -19.5 25.5t-51.5 11.5q-131 0 -131 -244q0 -105 36 -160.5
t104 -55.5q91 0 146 97z" />
    <glyph glyph-name="d" unicode="d" horiz-adv-x="581" 
d="M262 12q47 0 76.5 48t29.5 148v227q-30 51 -94 51q-116 0 -116 -247q0 -117 24.5 -172t79.5 -55zM383 208q0 -117 -38 -170t-113 -53q-84 0 -145 66.5t-61 187.5q0 54 15.5 99t40.5 74.5t58 50t66.5 29.5t66.5 9q53 0 95 -18v174q0 32 -13 44.5t-49 16.5l-42 5v12l216 40
l17 -7q-7 -50 -7 -124v-565q0 -31 9 -42.5t38 -15.5l32 -6v-15h-173l-13 10v198z" />
    <glyph glyph-name="e" unicode="e" horiz-adv-x="495" 
d="M336 300l2 17q2 41 1.5 78.5t-19 64t-54.5 26.5q-97 0 -107 -198zM458 115q-69 -129 -198 -129q-98 0 -166 67.5t-68 187.5q0 121 71 190.5t168 69.5q89 0 141 -47t52 -132q0 -32 -4 -51l-296 1v-30q0 -105 36 -160.5t104 -55.5q91 0 146 97z" />
    <glyph glyph-name="f" unicode="f" horiz-adv-x="370" 
d="M309 15v-15q-25 0 -74 0.5t-74 0.5t-70 -0.5t-70 -0.5v15l32 6q30 4 38.5 15t8.5 42v366l-94 15v18l94 13v56q0 119 60 175.5t148 56.5q71 0 109.5 -30.5t38.5 -76.5q0 -35 -21 -56.5t-55 -21.5q-30 0 -49.5 18t-19.5 46q0 26 13 41t26 23.5t13 16.5q0 10 -13.5 17.5
t-39.5 7.5q-47 0 -68.5 -34.5t-21.5 -108.5q0 -22 0.5 -68t0.5 -65h129v-29l-129 -6v-370q0 -32 10.5 -44t40.5 -17z" />
    <glyph glyph-name="g" unicode="g" horiz-adv-x="533" 
d="M147 331q0 -154 77 -154t77 154q0 155 -78 155q-76 0 -76 -155zM255 -243q-112 0 -180.5 33t-68.5 95q0 37 21.5 58t55.5 21q23 0 34.5 -10.5t9.5 -29.5q-23 -1 -36.5 -15t-13.5 -37q0 -46 44 -73t133 -27t140 30.5t51 80.5q0 38 -39.5 52t-137.5 18q-215 10 -215 119
q0 97 158 97h6q-82 0 -135 46.5t-53 119.5q0 75 52.5 120.5t136.5 45.5q80 0 134 -43q51 48 110 48q36 0 56.5 -18.5t20.5 -48.5q0 -28 -17 -44t-43 -16q-24 0 -38.5 14t-14.5 36q0 8 2.5 19.5t2.5 15.5q0 9 -12 9q-22 0 -53 -28q49 -46 49 -119q0 -77 -54.5 -123
t-147.5 -46q-95 0 -95 -36q0 -23 34.5 -32t128.5 -13q117 -6 173 -38.5t56 -110.5q0 -83 -70 -126.5t-185 -43.5z" />
    <glyph glyph-name="h" unicode="h" horiz-adv-x="617" 
d="M608 0q-24 0 -68 0.5t-69 0.5q-24 0 -68.5 -0.5t-69.5 -0.5v15l32 6q27 4 35 15t8 42v276q0 60 -16.5 85t-55.5 25q-48 0 -82 -59t-34 -159v-168q0 -31 8 -42t36 -15l31 -6v-15q-24 0 -68.5 0.5t-68.5 0.5t-69 -0.5t-69 -0.5v15l33 6q29 4 37.5 15.5t8.5 42.5v583
q0 31 -10 41.5t-43 14.5l-41 5v12l206 40l17 -7q-8 -59 -8 -124v-79q0 -60 -7 -157.5t-7 -161.5q0 119 44.5 187t127.5 68q70 0 110.5 -39.5t40.5 -117.5v-265q0 -31 9 -42.5t38 -15.5l32 -6v-15z" />
    <glyph glyph-name="i" unicode="i" horiz-adv-x="311" 
d="M232 674q0 -36 -23 -57t-60 -21q-34 0 -57.5 21.5t-23.5 56.5q0 36 23 57t58 21q37 0 60 -21t23 -57zM21 0v15l33 6q29 4 37.5 15.5t8.5 42.5v300q0 36 -12 48t-49 14l-32 3v14l201 41l20 -6q-6 -48 -6 -120v-295q0 -30 8.5 -41.5t37.5 -15.5l32 -6v-15q-24 0 -69 0.5
t-70 0.5q-24 0 -69.5 -0.5t-70.5 -0.5z" />
    <glyph glyph-name="j" unicode="j" horiz-adv-x="335" 
d="M261 674q0 -36 -23.5 -57t-59.5 -21q-34 0 -57.5 21.5t-23.5 56.5q0 36 23 57t59 21t59 -21t23 -57zM251 -24q0 -58 -18.5 -102.5t-49.5 -69t-66 -36.5t-73 -12q-65 0 -100.5 27.5t-35.5 69.5q0 35 21.5 57t55.5 22q32 0 51 -18t19 -47q0 -19 -7 -32t-15 -19t-15 -12.5
t-7 -13.5q0 -19 37 -19q83 0 83 152v454q0 36 -14 49t-52 15l-34 3v14l207 41l19 -6q-6 -60 -6 -120v-397z" />
    <glyph glyph-name="k" unicode="k" 
d="M599 0q-24 0 -68.5 0.5t-68.5 0.5q-23 0 -69 -0.5t-70 -0.5v15l17 3q31 5 31 20q0 11 -21 39l-129 170v-169q0 -31 8 -42t36 -16l28 -5v-15q-23 0 -65.5 0.5t-67.5 0.5q-24 0 -69.5 -0.5t-70.5 -0.5v15l33 6q29 4 37.5 15.5t8.5 42.5v582q0 31 -10 42t-43 15l-41 5v12
l206 40l17 -7q-7 -52 -7 -124v-395l125 124q36 36 36 58q0 26 -52 35l-29 4v17q47 -1 136 -1q91 0 138 1v-16l-30 -5q-101 -21 -180 -98l-54 -51l173 -218q36 -45 53 -59.5t41 -19.5l21 -5v-15z" />
    <glyph glyph-name="l" unicode="l" horiz-adv-x="312" 
d="M20 0v15l33 6q29 4 37.5 15.5t8.5 42.5v582q0 31 -10 42t-43 15l-41 5v12l206 40l17 -7q-8 -59 -8 -124v-565q0 -31 9 -42.5t38 -15.5l32 -6v-15q-24 0 -69 0.5t-70 0.5q-24 0 -69.5 -0.5t-70.5 -0.5z" />
    <glyph glyph-name="m" unicode="m" horiz-adv-x="912" 
d="M903 0q-25 0 -68 0.5t-68 0.5t-70 -0.5t-69 -0.5v15l31 6q27 4 35 15t8 42v275q0 111 -68 111q-48 0 -80 -59t-32 -159v-168q0 -31 8 -42t35 -15l31 -6v-15q-23 0 -67 0.5t-68 0.5q-23 0 -67 -0.5t-68 -0.5v15l31 6q27 4 35 15t8 42v275q0 111 -66 111q-48 0 -81 -58.5
t-33 -159.5v-168q0 -31 8 -42t35 -15l31 -6v-15q-24 0 -68.5 0.5t-69.5 0.5q-24 0 -67.5 -0.5t-68.5 -0.5v15l32 6q29 4 38 15.5t9 42.5v300q0 35 -12.5 47t-48.5 15l-33 2v14l188 41l19 -7q-6 -101 -6 -245q0 119 42.5 187t122.5 68q139 0 139 -156q0 -25 -1 -56.5
t-1 -42.5q0 120 43 187.5t124 67.5q69 0 109 -39.5t40 -118.5v-264q0 -31 8.5 -42.5t37.5 -15.5l32 -6z" />
    <glyph glyph-name="n" unicode="n" horiz-adv-x="617" 
d="M608 0q-24 0 -68 0.5t-69 0.5q-24 0 -69 -0.5t-69 -0.5v15l31 6q27 4 35 15t8 42v275q0 60 -16.5 85.5t-54.5 25.5q-49 0 -82.5 -59t-33.5 -159v-168q0 -31 8 -42t35 -15l32 -6v-15q-25 0 -69 0.5t-69 0.5q-24 0 -68.5 -0.5t-68.5 -0.5v15l32 6q29 4 38 15.5t9 42.5v300
q0 35 -12.5 47t-48.5 15l-33 2v14l188 41l19 -7q-6 -101 -6 -245q0 118 43.5 186.5t127.5 68.5q70 0 111 -40t41 -118v-264q0 -31 8.5 -42.5t37.5 -15.5l33 -6v-15z" />
    <glyph glyph-name="o" unicode="o" horiz-adv-x="530" 
d="M504 243q0 -118 -69 -188t-170 -70q-100 0 -169.5 70t-69.5 188t69.5 188t169.5 70q101 0 170 -70t69 -188zM157 243q0 -77 9 -128t33.5 -82.5t65.5 -31.5q60 0 84 62t24 180t-24 180.5t-84 62.5q-41 0 -65.5 -31.5t-33.5 -83t-9 -128.5z" />
    <glyph glyph-name="p" unicode="p" horiz-adv-x="577" 
d="M305 1q115 0 115 246q0 113 -23.5 170t-77.5 57q-55 0 -82.5 -51.5t-27.5 -140.5v-231q31 -50 96 -50zM289 -215v-15q-25 0 -70.5 0.5t-69.5 0.5q-25 0 -70.5 -0.5t-69.5 -0.5v15l32 5q29 5 37.5 16.5t8.5 42.5v530q0 35 -12 47t-48 15l-33 2v14l188 41l19 -7
q-6 -79 -6 -209q0 219 146 219q90 0 150.5 -67t60.5 -186q0 -125 -75.5 -194t-168.5 -69q-56 0 -99 18v-153q0 -32 8.5 -43.5t38.5 -16.5z" />
    <glyph glyph-name="q" unicode="q" horiz-adv-x="563" 
d="M570 -230q-25 0 -70.5 0.5t-69.5 0.5q-25 0 -70.5 -0.5t-70.5 -0.5v15l33 5q29 5 37.5 16.5t8.5 42.5v72q0 49 7 144.5t7 140.5q0 -116 -37.5 -168.5t-111.5 -52.5q-82 0 -144.5 66.5t-62.5 186.5q0 125 75 194t172 69q109 0 164 -63l53 63h11l-11 -153v-499
q0 -31 8.5 -42.5t38.5 -16.5l33 -5v-15zM263 12q46 0 75.5 48t29.5 146v225q-31 55 -94 55q-116 0 -116 -245q0 -117 25.5 -173t79.5 -56z" />
    <glyph glyph-name="r" unicode="r" horiz-adv-x="456" 
d="M306 0q-24 0 -73 0.5t-74 0.5t-69.5 -0.5t-69.5 -0.5v15l32 6q29 4 38 15.5t9 42.5v300q0 35 -12.5 47t-48.5 15l-33 2v14l188 41l19 -7q-7 -94 -7 -301q0 75 10 141q27 173 142 173q41 0 64.5 -22.5t23.5 -59.5t-22 -58.5t-55 -21.5q-29 0 -46 15t-19 41q-1 5 -1 14v12
q0 12 -10 12q-18 0 -35.5 -28.5t-27.5 -80.5q-11 -61 -11 -137v-108q0 -32 10.5 -44t40.5 -17l37 -6v-15z" />
    <glyph glyph-name="s" unicode="s" horiz-adv-x="442" 
d="M405 140q0 -72 -51 -113.5t-130 -41.5q-94 0 -146 47l-30 -46h-8v208h18q30 -102 70.5 -147.5t94.5 -45.5q43 0 69.5 20.5t26.5 60.5q0 39 -28.5 62.5t-100.5 49.5q-66 24 -104 60t-38 100t49.5 105.5t126.5 41.5q76 0 121 -42l27 41h8v-185h-18q-27 88 -60 129.5
t-78 41.5q-44 0 -66.5 -21.5t-22.5 -54.5q0 -38 27.5 -60t99.5 -49q143 -50 143 -161z" />
    <glyph glyph-name="t" unicode="t" horiz-adv-x="386" 
d="M363 128q-15 -75 -47.5 -108t-96.5 -33q-61 0 -96.5 32.5t-35.5 97.5v329l-94 15v17l72 11q32 5 48.5 21.5t24.5 53.5l16 75h59l-5 -152h156v-28l-156 -7v-343q0 -47 14 -65t43 -18q56 0 81 105z" />
    <glyph glyph-name="u" unicode="u" horiz-adv-x="571" 
d="M376 207q0 -222 -161 -222q-67 0 -107 39.5t-40 116.5v266q0 30 -7.5 42.5t-33.5 16.5l-38 6v15h204l-4 -84v-274q0 -60 18 -84t53 -24q43 0 72 48t29 138v200q0 30 -7.5 42.5t-32.5 16.5l-39 6v15h205l-4 -89v-319q0 -30 7.5 -42t33.5 -16l38 -6v-15h-173l-13 10v197z
" />
    <glyph glyph-name="v" unicode="v" horiz-adv-x="546" 
d="M240 -4l-152 393q-15 40 -29.5 57.5t-40.5 21.5l-25 4v15q48 -1 145 -1q96 0 144 1v-15l-29 -4q-33 -4 -40 -25.5t7 -61.5l96 -277l93 244q18 50 18 74q0 19 -13 28.5t-41 14.5l-32 6v16q37 -1 107 -1t106 1v-15l-20 -5q-39 -9 -60 -34t-49 -95l-134 -342h-51z" />
    <glyph glyph-name="w" unicode="w" horiz-adv-x="760" 
d="M221 -4l-134 393q-14 42 -29 58.5t-39 20.5l-26 4v15q48 -1 144 -1q95 0 143 1v-15l-33 -5q-30 -4 -36 -25.5t6 -58.5l75 -250l103 357h53l110 -358l67 208q14 46 14 74q0 43 -59 52l-29 5v16q37 -1 109 -1t108 1v-15l-26 -6q-34 -8 -54.5 -35.5t-44.5 -98.5l-110 -336
h-51l-110 344l-100 -344h-51z" />
    <glyph glyph-name="x" unicode="x" horiz-adv-x="566" 
d="M565 15v-15q-25 0 -75 0.5t-75 0.5t-75 -0.5t-75 -0.5v15l26 3q34 4 37.5 24t-20.5 59l-65 113l-75 -105q-24 -32 -24 -56t45 -33l27 -5v-15q-18 0 -54 0.5t-54 0.5t-54 -0.5t-54 -0.5v15l23 5q36 7 64.5 29t63.5 69l82 111l-102 160q-27 43 -44.5 58.5t-43.5 20.5l-23 4
v15q48 -1 144 -1t144 1v-15l-22 -3q-21 -3 -28.5 -14t-3 -27.5t18.5 -41.5l55 -95l62 86q26 38 26 59q0 23 -41 31l-28 5v15q35 -1 105 -1t105 1v-15l-22 -5q-38 -7 -66.5 -29.5t-64.5 -71.5l-66 -90l113 -178q27 -42 46 -58t45 -21z" />
    <glyph glyph-name="y" unicode="y" horiz-adv-x="538" 
d="M296 14q-41 -107 -75.5 -164t-62.5 -74.5t-68 -17.5q-44 0 -70 24t-26 63q0 33 21 55t57 22q30 0 47 -16t19 -41q1 -20 -9.5 -36t-10.5 -21q1 -10 13 -10q61 0 127 180l6 15l-173 395q-19 43 -32.5 59t-36.5 20l-28 5v15q49 -1 144 -1q91 0 140 1v-15l-33 -4
q-29 -4 -33.5 -25.5t10.5 -56.5l101 -255l80 217q17 47 17 72q0 20 -12.5 30.5t-41.5 15.5l-30 5v16q35 -1 105 -1q69 0 105 1v-15l-21 -5q-38 -9 -58 -34t-46 -92z" />
    <glyph glyph-name="z" unicode="z" horiz-adv-x="494" 
d="M33 0v18l279 450h-82q-60 0 -95.5 -38.5t-70.5 -148.5h-16l6 206h397v-19l-278 -450h88q67 0 99.5 36.5t77.5 155.5h16l-6 -210h-415z" />
    <glyph glyph-name="braceleft" unicode="{" horiz-adv-x="422" 
d="M403 -181h-84q-179 -3 -179 139q0 28 15.5 97t15.5 93q0 73 -27 99t-120 29v33q93 3 120 29t27 99q0 24 -15.5 93t-15.5 97q0 142 179 139h84v-18l-79 -5q-43 -4 -58 -26t-15 -74q0 -25 9 -96t9 -97q0 -130 -168 -150v-15q168 -20 168 -150q0 -26 -9 -97t-9 -96
q0 -52 15 -74t58 -26l79 -5v-18z" />
    <glyph glyph-name="bar" unicode="|" horiz-adv-x="262" 
d="M112 -100v829h37v-829h-37z" />
    <glyph glyph-name="braceright" unicode="}" horiz-adv-x="422" 
d="M103 -181h-84v18l79 5q43 4 58 26t15 74q0 25 -9 96t-9 97q0 130 168 150v15q-168 20 -168 150q0 26 9 97t9 96q0 52 -15 74t-58 26l-79 5v18h84q179 3 179 -139q0 -28 -15.5 -97t-15.5 -93q0 -73 27 -99t120 -29v-33q-93 -3 -120 -29t-27 -99q0 -24 15.5 -93t15.5 -97
q0 -142 -179 -139z" />
    <glyph glyph-name="asciitilde" unicode="~" horiz-adv-x="531" 
d="M88 178h-21q-2 20 -2 30q0 46 25 76t72 30t122 -39t100 -39q31 0 45.5 15.5t14.5 49.5h22q0 -124 -98 -124q-49 0 -122 39t-99 39q-30 1 -44.5 -18.5t-14.5 -58.5z" />
    <glyph glyph-name="nbspace" unicode="&#xa0;" horiz-adv-x="429" 
 />
    <glyph glyph-name="exclamdown" unicode="&#xa1;" horiz-adv-x="328" 
d="M164 500q33 0 55 -21t22 -55q0 -33 -22 -54.5t-55 -21.5q-32 0 -54 21t-22 55t22 55t54 21zM158 289h12q5 -140 33 -236q8 -32 20 -65t18.5 -55t6.5 -46q0 -42 -23.5 -66t-60.5 -24q-36 0 -60 24t-24 66q0 31 18.5 83t26.5 83q28 96 33 236z" />
    <glyph glyph-name="cent" unicode="&#xa2;" horiz-adv-x="537" 
d="M215 95l91 393q-70 -5 -112.5 -67.5t-42.5 -154.5q0 -109 64 -171zM486 104q-70 -118 -203 -118q-37 0 -68 10l-34 -147h-23l36 154q-65 26 -105.5 86t-40.5 145q0 122 79.5 195.5t182.5 73.5l26 112h22l-26 -112q74 -4 117.5 -38t43.5 -84q0 -34 -20 -56t-54 -22
q-30 0 -49 17t-19 45q0 25 12.5 40t25 24t12.5 18q0 16 -22 28.5t-51 11.5l-94 -408q44 -30 93 -30q50 0 83.5 12.5t63.5 49.5z" />
    <glyph glyph-name="sterling" unicode="&#xa3;" horiz-adv-x="605" 
d="M112 -1q87 0 119 89q-64 57 -119 57q-36 0 -58 -21t-22 -55q0 -33 23 -51.5t57 -18.5zM515 214q20 -57 17.5 -108t-35 -86t-84.5 -35q-34 0 -66.5 14.5t-49.5 28.5t-48 43q-48 -88 -137 -88q-45 0 -73 25t-28 66q0 48 36.5 80t103.5 32q45 0 94 -17q1 11 1 31
q0 36 -19 104l-142 13v14l131 10q-18 65 -18 119q0 94 59 141.5t152 47.5q65 0 105.5 -31t40.5 -79q0 -34 -19.5 -58t-53.5 -24q-30 0 -49 18t-19 46q0 29 23.5 52t23.5 32q0 28 -46 28q-41 0 -60.5 -41t-27.5 -135q-7 -89 -11 -119h137v-22l-140 -5q-8 -56 -18 -107
q-10 -43 -12 -49q11 -5 40 -17t43 -17.5t36 -11t41 -5.5q43 0 58 31.5t-1 78.5h15z" />
    <glyph glyph-name="currency" unicode="&#xa4;" horiz-adv-x="535" 
d="M468 26l-75 76q-54 -49 -126 -49q-74 0 -125 49l-75 -76l-21 21l76 76q-41 52 -41 121t41 121l-76 76l21 21l75 -75q51 48 125 48q72 0 126 -49l75 76l21 -21l-77 -76q41 -52 41 -121q0 -70 -41 -120l77 -77zM141 244q0 -56 35.5 -95t90.5 -39t90.5 39t35.5 95t-35.5 95
t-90.5 39t-90.5 -39t-35.5 -95z" />
    <glyph glyph-name="yen" unicode="&#xa5;" horiz-adv-x="719" 
d="M541 16v-16q-32 0 -91.5 0.5t-90.5 0.5q-32 0 -91.5 -0.5t-90.5 -0.5v16l47 7q41 6 53 20.5t12 50.5v73h-171v27h171v49l-11 20h-160v27h144l-137 240q-24 43 -42.5 59.5t-46.5 21.5l-30 5v16q61 -1 179 -1q122 0 183 1v-16l-53 -7q-70 -10 -30 -81l130 -238h2l99 172
q39 68 39 99q0 36 -63 48l-37 7v16q43 -1 131 -1q84 0 128 1v-15l-25 -7q-40 -11 -72.5 -43t-79.5 -115l-95 -162h132v-27h-146v-69h146v-27h-146v-73q0 -36 12 -50.5t53 -20.5z" />
    <glyph glyph-name="brokenbar" unicode="&#xa6;" horiz-adv-x="262" 
d="M112 385v344h37v-344h-37zM112 -100v345h37v-345h-37z" />
    <glyph glyph-name="section" unicode="&#xa7;" horiz-adv-x="548" 
d="M399 117l-8 8q37 32 37 75q0 37 -34.5 67.5t-83 54.5t-97.5 50t-83.5 66t-34.5 91q0 77 58 121t144 44q78 0 130.5 -33t52.5 -89q0 -33 -19 -55t-52 -22q-30 0 -50 16.5t-20 44.5q0 19 8 33t17.5 20.5t17.5 14t8 15.5q0 16 -28 28t-64 12q-62 0 -93.5 -26.5t-31.5 -70.5
q0 -41 32 -72t77.5 -53t91.5 -45.5t78 -62t32 -89.5q0 -47 -23.5 -80t-61.5 -63zM453 -31q0 -77 -58.5 -121.5t-143.5 -44.5q-78 0 -131 33.5t-53 88.5q0 34 19.5 56t52.5 22q30 0 49.5 -17t19.5 -45q0 -24 -13 -39t-25.5 -24.5t-12.5 -19.5q0 -15 28 -27t65 -12
q61 0 93 26.5t32 69.5q0 41 -32 72.5t-77.5 53.5t-91.5 46t-78 62t-32 89q0 77 85 144l8 -9q-37 -29 -37 -74q0 -37 34.5 -68t83 -55t97.5 -50t83.5 -66.5t34.5 -90.5z" />
    <glyph glyph-name="dieresis" unicode="&#xa8;" horiz-adv-x="537" 
d="M435 672q0 -26 -17.5 -43t-42.5 -17q-26 0 -43.5 17t-17.5 43q0 25 17.5 42.5t43.5 17.5q25 0 42.5 -17.5t17.5 -42.5zM227 672q0 -26 -17.5 -43t-43.5 -17t-43 17t-17 43q0 25 17.5 42.5t42.5 17.5q26 0 43.5 -17.5t17.5 -42.5z" />
    <glyph glyph-name="copyright" unicode="&#xa9;" horiz-adv-x="832" 
d="M763 260q0 -145 -101.5 -245t-245.5 -100t-245.5 100t-101.5 245t101.5 245t245.5 100t245.5 -100t101.5 -245zM97 260q0 -136 92.5 -228t226.5 -92t226.5 92t92.5 228t-92.5 228t-226.5 92t-226.5 -92t-92.5 -228zM553 63l-17 45q-44 -47 -115 -47q-85 0 -141 51.5
t-56 147.5t56 150t140 54q75 0 117 -45l16 42h14v-154h-21l-14 39q-16 45 -39.5 70t-67.5 25q-47 0 -73 -50.5t-26 -129.5q0 -78 26 -128t73 -50q42 0 65.5 24t41.5 69l14 39h21v-152h-14z" />
    <glyph glyph-name="ordfeminine" unicode="&#xaa;" horiz-adv-x="382" 
d="M237 529q-59 -7 -85.5 -31.5t-26.5 -74.5q0 -64 52 -64q27 0 43.5 23.5t16.5 57.5v89zM401 431q-5 -49 -23 -72.5t-56 -23.5q-57 0 -70 57q-15 -29 -46.5 -45t-68.5 -16q-48 0 -77 23t-29 61q0 42 29.5 70.5t72 40.5t104.5 19v60q0 74 -64 74q-47 0 -73 -35l5 1
q17 0 28 -12t11 -30q0 -20 -14 -32.5t-36 -12.5q-19 0 -32 12.5t-13 35.5q0 38 36.5 64t97.5 26q143 0 143 -118v-168q0 -41 23 -41q26 0 34 63zM54 230v27h304v-27h-304z" />
    <glyph glyph-name="guillemotleft" unicode="&#xab;" horiz-adv-x="509" 
d="M425 50l-196 182v24l196 182h15l-106 -194l106 -194h-15zM246 50l-196 182v24l196 182h15l-106 -194l106 -194h-15z" />
    <glyph glyph-name="logicalnot" unicode="&#xac;" horiz-adv-x="550" 
d="M461 299h-405v34h438v-193h-33v159z" />
    <glyph glyph-name="registered" unicode="&#xae;" horiz-adv-x="832" 
d="M763 260q0 -145 -101.5 -245t-245.5 -100t-245.5 100t-101.5 245t101.5 245t245.5 100t245.5 -100t101.5 -245zM97 260q0 -136 92.5 -228t226.5 -92t226.5 92t92.5 228t-92.5 228t-226.5 92t-226.5 -92t-92.5 -228zM412 263q71 0 71 87q0 41 -17.5 63t-48.5 22
q-12 0 -38 -2v-169q14 -1 33 -1zM435 82v-12h-199v12l42 11q10 1 10 13v311q0 11 -10 14l-42 10v13h27q32 0 84.5 1t68.5 1q73 0 114.5 -26.5t41.5 -76.5q0 -71 -82 -94q17 -16 29 -39l49 -106q9 -19 23 -25l21 -7v-12h-121l-69 173h-14h-29v-137q0 -12 9 -13z" />
    <glyph glyph-name="macron" unicode="&#xaf;" horiz-adv-x="537" 
d="M132 651v38q72 -4 139 -4q70 0 140 4v-38q-70 4 -139 4q-68 0 -140 -4z" />
    <glyph glyph-name="degree" unicode="&#xb0;" horiz-adv-x="339" 
d="M169 468q-50 0 -83.5 32.5t-33.5 82.5q0 51 33.5 84t83.5 32q50 0 83 -32.5t34 -83.5q0 -50 -33.5 -82.5t-83.5 -32.5zM169 499q35 0 59 24t23 60q0 37 -23 61t-59 25q-35 0 -58.5 -24.5t-23.5 -61.5q0 -36 23.5 -60t58.5 -24z" />
    <glyph glyph-name="plusminus" unicode="&#xb1;" horiz-adv-x="550" 
d="M494 0h-438v33h202v195h-202v34h202v200h34v-200h202v-34h-202v-195h202v-33z" />
    <glyph glyph-name="two.sups" unicode="&#xb2;" horiz-adv-x="362" 
d="M305 500h-263l-3 37q96 72 133 117q45 56 45 118q0 42 -15 60.5t-48 18.5q-26 0 -49 -14t-31 -35q6 5 18 5q17 0 28.5 -11.5t11.5 -28.5q0 -19 -13 -31.5t-33 -12.5t-33 13t-13 36q0 40 34.5 67t96.5 27q60 0 101 -25t41 -75q0 -42 -30 -71.5t-89 -65.5q-54 -34 -88 -56
h146q17 0 24.5 4t12.5 17l13 32h16z" />
    <glyph glyph-name="three.sups" unicode="&#xb3;" horiz-adv-x="366" 
d="M151 490q-55 0 -85.5 21t-30.5 52q0 22 13.5 35.5t34.5 13.5t33 -12t12 -31q0 -18 -12.5 -29.5t-27.5 -11.5q20 -22 55 -22q41 0 66.5 28t24.5 76q0 77 -49 77q-16 0 -36.5 -12t-32.5 -12q-24 0 -24 26q25 11 83 15q50 29 50 86q0 61 -58 61q-42 0 -66 -29l5 1
q16 0 27.5 -11t11.5 -29t-12.5 -31t-32.5 -13q-19 0 -32 13.5t-13 33.5q0 35 34 57.5t89 22.5q62 0 98.5 -21.5t36.5 -57.5t-28.5 -52.5t-88.5 -32.5q-6 -1 -9 -2l5 -1l-3 -1q9 1 29 1q50 0 82 -22.5t32 -64.5q0 -59 -56 -90.5t-125 -31.5z" />
    <glyph glyph-name="acute" unicode="&#xb4;" horiz-adv-x="537" 
d="M230 578h-6q60 105 79 172h101v-3q-50 -94 -174 -169z" />
    <glyph glyph-name="mu" unicode="&#xb5;" horiz-adv-x="619" 
d="M190 -193v-37h-122v639q0 30 -7.5 42.5t-32.5 16.5l-39 5v15h204l-3 -84v-274q0 -61 17.5 -85t52.5 -24q44 0 73.5 48t29.5 138v202q0 30 -7.5 42.5t-33.5 16.5l-39 5v15h205l-4 -89v-320q0 -29 7.5 -41.5t33.5 -16.5l38 -6v-15h-173l-13 10v197q0 -105 -37 -163
t-109 -58q-43 0 -69 35q1 -7 7 -36.5t8.5 -43t6 -38.5t5 -48t1.5 -48z" />
    <glyph glyph-name="paragraph" unicode="&#xb6;" horiz-adv-x="649" 
d="M368 -181h-32v459q-34 -10 -76 -10q-102 0 -161 52t-59 145q0 95 58.5 155t174.5 60q44 0 95 -1v-860zM454 -181v860h166v-16l-59 -9q-45 -7 -60.5 -23t-15.5 -53v-759h-31z" />
    <glyph glyph-name="periodcentered" unicode="&#xb7;" horiz-adv-x="318" 
d="M237 244q0 -34 -22.5 -55.5t-55.5 -21.5t-56 21.5t-23 55.5q0 35 23 57t56 22t55.5 -22t22.5 -57z" />
    <glyph glyph-name="cedilla" unicode="&#xb8;" horiz-adv-x="512" 
d="M273 -244q-53 0 -98 28l9 12q30 -15 61 -15q30 0 47.5 19.5t17.5 55.5q0 58 -44 58q-16 0 -34 -8l-11 7l26 84h16l-16 -73q32 10 56 10q40 0 67 -21t27 -61q0 -45 -37 -70.5t-87 -25.5z" />
    <glyph glyph-name="one.sups" unicode="&#xb9;" horiz-adv-x="329" 
d="M55 500v16l62 10q10 1 10 10v257q0 18 -22 21l-51 6v13l53 6q64 7 89 22h25q-3 -42 -3 -84v-241q0 -9 10 -10l59 -10v-16h-232z" />
    <glyph glyph-name="ordmasculine" unicode="&#xba;" horiz-adv-x="397" 
d="M370 514q0 -87 -47 -135t-120 -48q-72 0 -119.5 48t-47.5 135q0 86 47.5 134t119.5 48q73 0 120 -48t47 -134zM138 514q0 -86 15 -125.5t50 -39.5q36 0 51.5 40t15.5 126t-15.5 125t-51.5 39q-35 0 -50.5 -39.5t-14.5 -125.5zM55 230v27h299v-27h-299z" />
    <glyph glyph-name="guillemotright" unicode="&#xbb;" horiz-adv-x="509" 
d="M459 232l-196 -182h-15l106 194l-106 194h15l196 -182v-24zM280 232l-196 -182h-15l106 194l-106 194h15l196 -182v-24z" />
    <glyph glyph-name="onequarter" unicode="&#xbc;" horiz-adv-x="863" 
d="M199 -15l-31 19l251 342l235 348l31 -19l-251 -341zM84 323v16l62 10q10 1 10 10v257q0 18 -22 21l-51 6v13l53 6q64 7 89 22h25q-3 -42 -3 -84v-241q0 -9 10 -10l59 -10v-16h-232zM769 0h-263l-3 37q96 72 133 117q45 56 45 118q0 42 -15 60.5t-48 18.5q-26 0 -49 -14
t-31 -35q6 5 18 5q17 0 28.5 -11.5t11.5 -28.5q0 -19 -13 -31.5t-33 -12.5t-33 13t-13 36q0 40 34.5 67t96.5 27q60 0 101 -25t41 -75q0 -42 -30 -71.5t-89 -65.5q-54 -34 -88 -56h146q17 0 24.5 4t12.5 17l13 32h16z" />
    <glyph glyph-name="onehalf" unicode="&#xbd;" horiz-adv-x="862" 
d="M201 -15l-31 19l251 342l235 348l31 -19l-251 -341zM84 323v16l62 10q10 1 10 10v257q0 18 -22 21l-51 6v13l53 6q64 7 89 22h25q-3 -42 -3 -84v-241q0 -9 10 -10l59 -10v-16h-232zM615 127v116l3 67l-126 -182zM763 16v-16h-210v15l53 10q9 3 9 11v70h-146l-4 18
l161 232h79v-230h15q13 0 19.5 5.5t12.5 20.5l13 36h15l-11 -82h-64v-70q0 -10 9 -11z" />
    <glyph glyph-name="threequarters" unicode="&#xbe;" horiz-adv-x="903" 
d="M239 -15l-31 19l251 342l235 348l31 -19l-251 -341zM201 313q-55 0 -85.5 21t-30.5 52q0 22 13.5 35.5t34.5 13.5t33 -12.5t12 -30.5t-12.5 -29.5t-27.5 -11.5q20 -22 55 -22q41 0 66.5 28t24.5 76q0 77 -49 77q-16 0 -36.5 -12t-32.5 -12q-24 0 -24 26q25 11 83 15
q50 29 50 86q0 61 -58 61q-42 0 -66 -29l5 1q16 0 27.5 -11t11.5 -29t-12.5 -31t-32.5 -13q-19 0 -32 13.5t-13 33.5q0 35 34 57.5t89 22.5q62 0 98.5 -21.5t36.5 -57.5t-28.5 -52.5t-88.5 -32.5q-6 -1 -9 -2l5 -1l-3 -1q9 1 29 1q50 0 82 -22.5t32 -64.5q0 -59 -56 -90.5
t-125 -31.5zM657 127v116l3 67l-126 -182zM805 16v-16h-210v15l53 10q9 3 9 11v70h-146l-4 18l161 232h79v-230h15q13 0 19.5 5.5t12.5 20.5l13 36h15l-11 -82h-64v-70q0 -10 9 -11z" />
    <glyph glyph-name="questiondown" unicode="&#xbf;" horiz-adv-x="562" 
d="M256 426q0 34 22 55t54 21q33 0 55 -21t22 -55t-22 -55t-55 -21t-54.5 21.5t-21.5 54.5zM520 -31q0 -71 -64.5 -121t-170.5 -50t-178.5 48t-72.5 138q0 49 23.5 87.5t60.5 59t77.5 31t80.5 10.5q13 0 37 -2l17 118h13l21 -143l-13 -5q-32 15 -67 15q-50 0 -82 -42.5
t-32 -132.5q0 -80 31 -122.5t86 -42.5q65 0 96.5 40t31.5 93q0 33 -13.5 51t-36.5 18q-21 0 -35.5 -17t-25.5 -57l-12 2q11 63 43 95.5t80 32.5q47 0 76 -28.5t29 -75.5z" />
    <glyph glyph-name="Agrave" unicode="&#xc0;" horiz-adv-x="720" 
d="M431 747h-7q-54 21 -110.5 56t-83.5 66v3h120q27 -60 81 -125zM725 0q-29 0 -84.5 0.5t-85.5 0.5t-86 -0.5t-86 -0.5v16l51 7q37 5 43.5 25.5t-9.5 59.5l-39 107h-248l-15 -39q-29 -76 -22.5 -107.5t58.5 -43.5l47 -9v-16q-22 0 -62.5 0.5t-62.5 0.5t-64.5 -0.5
t-64.5 -0.5v15l32 9q39 11 63 42.5t56 116.5l141 372l44 128h69l210 -552q25 -65 40 -85.5t44 -24.5l31 -5v-16zM307 549l-118 -313h232z" />
    <glyph glyph-name="Aacute" unicode="&#xc1;" horiz-adv-x="720" 
d="M303 747h-7q54 67 80 125h120v-3q-26 -30 -83 -65.5t-110 -56.5zM725 0q-29 0 -84.5 0.5t-85.5 0.5t-86 -0.5t-86 -0.5v16l51 7q37 5 43.5 25.5t-9.5 59.5l-39 107h-248l-15 -39q-29 -76 -22.5 -107.5t58.5 -43.5l47 -9v-16q-22 0 -62.5 0.5t-62.5 0.5t-64.5 -0.5
t-64.5 -0.5v15l32 9q39 11 63 42.5t56 116.5l141 372l44 128h69l210 -552q25 -65 40 -85.5t44 -24.5l31 -5v-16zM307 549l-118 -313h232z" />
    <glyph glyph-name="Acircumflex" unicode="&#xc2;" horiz-adv-x="720" 
d="M348 819l-126 -72h-7l110 125h78l106 -125h-9zM725 0q-29 0 -84.5 0.5t-85.5 0.5t-86 -0.5t-86 -0.5v16l51 7q37 5 43.5 25.5t-9.5 59.5l-39 107h-248l-15 -39q-29 -76 -22.5 -107.5t58.5 -43.5l47 -9v-16q-22 0 -62.5 0.5t-62.5 0.5t-64.5 -0.5t-64.5 -0.5v15l32 9
q39 11 63 42.5t56 116.5l141 372l44 128h69l210 -552q25 -65 40 -85.5t44 -24.5l31 -5v-16zM307 549l-118 -313h232z" />
    <glyph glyph-name="Atilde" unicode="&#xc3;" horiz-adv-x="720" 
d="M261 750l-4 -2q-17 24 -17 56q0 29 19 48.5t50 19.5t77.5 -29.5t64.5 -29.5q19 0 29 10t14 36h4q0 -111 -75 -111q-28 0 -74 29.5t-63 29.5q-29 0 -29 -30q0 -15 4 -27zM725 0q-29 0 -84.5 0.5t-85.5 0.5t-86 -0.5t-86 -0.5v16l51 7q37 5 43.5 25.5t-9.5 59.5l-39 107
h-248l-15 -39q-29 -76 -22.5 -107.5t58.5 -43.5l47 -9v-16q-22 0 -62.5 0.5t-62.5 0.5t-64.5 -0.5t-64.5 -0.5v15l32 9q39 11 63 42.5t56 116.5l141 372l44 128h69l210 -552q25 -65 40 -85.5t44 -24.5l31 -5v-16zM307 549l-118 -313h232z" />
    <glyph glyph-name="Adieresis" unicode="&#xc4;" horiz-adv-x="720" 
d="M529 807q0 -25 -17.5 -42.5t-42.5 -17.5q-26 0 -43.5 17t-17.5 43q0 25 17.5 42.5t43.5 17.5q25 0 42.5 -17.5t17.5 -42.5zM321 807q0 -26 -17.5 -43t-43.5 -17t-43 17.5t-17 42.5t17.5 42.5t42.5 17.5q26 0 43.5 -17.5t17.5 -42.5zM725 0q-29 0 -84.5 0.5t-85.5 0.5
t-86 -0.5t-86 -0.5v16l51 7q37 5 43.5 25.5t-9.5 59.5l-39 107h-248l-15 -39q-29 -76 -22.5 -107.5t58.5 -43.5l47 -9v-16q-22 0 -62.5 0.5t-62.5 0.5t-64.5 -0.5t-64.5 -0.5v15l32 9q39 11 63 42.5t56 116.5l141 372l44 128h69l210 -552q25 -65 40 -85.5t44 -24.5l31 -5
v-16zM307 549l-118 -313h232z" />
    <glyph glyph-name="Aring" unicode="&#xc5;" horiz-adv-x="720" 
d="M463 822q0 -40 -28 -67t-71 -28q-43 0 -71 27.5t-28 67.5t28 67t71 27t71 -27t28 -67zM296 822q0 -34 17.5 -57.5t50.5 -23.5t50.5 23.5t17.5 57.5t-17.5 57t-50.5 23t-50.5 -23t-17.5 -57zM725 0q-29 0 -84.5 0.5t-85.5 0.5t-86 -0.5t-86 -0.5v16l51 7q37 5 43.5 25.5
t-9.5 59.5l-39 107h-248l-15 -39q-29 -76 -22.5 -107.5t58.5 -43.5l47 -9v-16q-22 0 -62.5 0.5t-62.5 0.5t-64.5 -0.5t-64.5 -0.5v15l32 9q39 11 63 42.5t56 116.5l141 372l44 128h69l210 -552q25 -65 40 -85.5t44 -24.5l31 -5v-16zM307 549l-118 -313h232z" />
    <glyph glyph-name="AE" unicode="&#xc6;" horiz-adv-x="988" 
d="M462 275v382l-212 -382h212zM947 241l-9 -241h-593v16l58 9q35 5 47 19.5t12 46.5v163h-224l-68 -123q-31 -56 -24.5 -78.5t56.5 -30.5l43 -6v-16q-22 0 -65.5 0.5t-65.5 0.5t-66 -0.5t-66 -0.5v15l31 6q41 8 72.5 34t64.5 85l214 388q33 57 33 84q0 35 -53 43l-58 8v16
h624l8 -225h-20q-48 120 -87.5 163.5t-108.5 43.5h-102v-302h56q45 0 70 33t53 120h16q-1 -55 -1 -163q0 -109 1 -163h-16q-30 91 -54 123t-70 32h-55v-266q0 -30 14 -43.5t45 -13.5h48q81 0 124.5 45t95.5 178h20z" />
    <glyph glyph-name="Ccedilla" unicode="&#xc7;" horiz-adv-x="698" 
d="M333 -244q-53 0 -98 28l9 12q30 -15 61 -15q30 0 47.5 19.5t17.5 55.5q0 58 -44 58q-16 0 -34 -8l-11 7l24 78q-116 24 -192 115t-76 232q0 164 101 260.5t240 96.5q120 0 191 -73l43 67h9v-281h-18q-49 148 -100 209.5t-123 61.5q-92 0 -141 -85.5t-49 -254.5
q0 -164 48 -251.5t143 -87.5q73 0 124.5 61.5t97.5 197.5h18v-269h-9l-43 67q-73 -73 -190 -73q-26 0 -58 5l-14 -65q32 10 56 10q40 0 67 -21t27 -61q0 -45 -37 -70.5t-87 -25.5z" />
    <glyph glyph-name="Egrave" unicode="&#xc8;" horiz-adv-x="654" 
d="M393 747h-7q-54 21 -110.5 56t-83.5 66v3h120q27 -60 81 -125zM613 241l-9 -241h-585v16l47 7q40 6 51 19.5t11 49.5v495q0 36 -11 49.5t-51 19.5l-47 7v16h557l8 -225h-20q-48 120 -87.5 163.5t-107.5 43.5h-103v-302h56q45 0 70 33t53 120h16q-1 -55 -1 -163
q0 -109 1 -163h-16q-30 91 -54 123t-69 32h-56v-266q0 -30 14 -43.5t45 -13.5h48q81 0 124.5 45t95.5 178h20z" />
    <glyph glyph-name="Eacute" unicode="&#xc9;" horiz-adv-x="654" 
d="M309 747h-7q54 67 80 125h120v-3q-26 -30 -83 -65.5t-110 -56.5zM613 241l-9 -241h-585v16l47 7q40 6 51 19.5t11 49.5v495q0 36 -11 49.5t-51 19.5l-47 7v16h557l8 -225h-20q-48 120 -87.5 163.5t-107.5 43.5h-103v-302h56q45 0 70 33t53 120h16q-1 -55 -1 -163
q0 -109 1 -163h-16q-30 91 -54 123t-69 32h-56v-266q0 -30 14 -43.5t45 -13.5h48q81 0 124.5 45t95.5 178h20z" />
    <glyph glyph-name="Ecircumflex" unicode="&#xca;" horiz-adv-x="654" 
d="M318 819l-126 -72h-7l110 125h78l106 -125h-9zM613 241l-9 -241h-585v16l47 7q40 6 51 19.5t11 49.5v495q0 36 -11 49.5t-51 19.5l-47 7v16h557l8 -225h-20q-48 120 -87.5 163.5t-107.5 43.5h-103v-302h56q45 0 70 33t53 120h16q-1 -55 -1 -163q0 -109 1 -163h-16
q-30 91 -54 123t-69 32h-56v-266q0 -30 14 -43.5t45 -13.5h48q81 0 124.5 45t95.5 178h20z" />
    <glyph glyph-name="Edieresis" unicode="&#xcb;" horiz-adv-x="654" 
d="M299 807q0 -26 -17.5 -43t-43.5 -17t-43 17.5t-17 42.5t17.5 42.5t42.5 17.5q26 0 43.5 -17.5t17.5 -42.5zM507 807q0 -25 -17.5 -42.5t-42.5 -17.5q-26 0 -43.5 17t-17.5 43q0 25 17.5 42.5t43.5 17.5q25 0 42.5 -17.5t17.5 -42.5zM613 241l-9 -241h-585v16l47 7
q40 6 51 19.5t11 49.5v495q0 36 -11 49.5t-51 19.5l-47 7v16h557l8 -225h-20q-48 120 -87.5 163.5t-107.5 43.5h-103v-302h56q45 0 70 33t53 120h16q-1 -55 -1 -163q0 -109 1 -163h-16q-30 91 -54 123t-69 32h-56v-266q0 -30 14 -43.5t45 -13.5h48q81 0 124.5 45t95.5 178
h20z" />
    <glyph glyph-name="Igrave" unicode="&#xcc;" horiz-adv-x="394" 
d="M267 747h-7q-54 21 -110.5 56t-83.5 66v3h120q27 -60 81 -125zM375 16v-16q-31 0 -89 0.5t-89 0.5t-89 -0.5t-89 -0.5v16l47 7q40 6 51 19.5t11 49.5v495q0 36 -11 49.5t-51 19.5l-47 7v16q31 0 89 -0.5t89 -0.5t89 0.5t89 0.5v-16l-47 -7q-39 -6 -50 -19.5t-11 -49.5
v-495q0 -36 11 -49.5t50 -19.5z" />
    <glyph glyph-name="Iacute" unicode="&#xcd;" horiz-adv-x="394" 
d="M135 747h-7q54 67 80 125h120v-3q-26 -30 -83 -65.5t-110 -56.5zM375 16v-16q-31 0 -89 0.5t-89 0.5t-89 -0.5t-89 -0.5v16l47 7q40 6 51 19.5t11 49.5v495q0 36 -11 49.5t-51 19.5l-47 7v16q31 0 89 -0.5t89 -0.5t89 0.5t89 0.5v-16l-47 -7q-39 -6 -50 -19.5t-11 -49.5
v-495q0 -36 11 -49.5t50 -19.5z" />
    <glyph glyph-name="Icircumflex" unicode="&#xce;" horiz-adv-x="394" 
d="M335 747l-152 72l-126 -72h-7l110 125h78l106 -125h-9zM375 16v-16q-31 0 -89 0.5t-89 0.5t-89 -0.5t-89 -0.5v16l47 7q40 6 51 19.5t11 49.5v495q0 36 -11 49.5t-51 19.5l-47 7v16q31 0 89 -0.5t89 -0.5t89 0.5t89 0.5v-16l-47 -7q-39 -6 -50 -19.5t-11 -49.5v-495
q0 -36 11 -49.5t50 -19.5z" />
    <glyph glyph-name="Idieresis" unicode="&#xcf;" horiz-adv-x="394" 
d="M362 807q0 -25 -17 -42.5t-43 -17.5t-43.5 17t-17.5 43q0 25 17.5 42.5t43.5 17.5q25 0 42.5 -17.5t17.5 -42.5zM154 807q0 -26 -17.5 -43t-43.5 -17q-25 0 -42.5 17.5t-17.5 42.5t17.5 42.5t42.5 17.5q26 0 43.5 -17.5t17.5 -42.5zM375 16v-16q-31 0 -89 0.5t-89 0.5
t-89 -0.5t-89 -0.5v16l47 7q40 6 51 19.5t11 49.5v495q0 36 -11 49.5t-51 19.5l-47 7v16q31 0 89 -0.5t89 -0.5t89 0.5t89 0.5v-16l-47 -7q-39 -6 -50 -19.5t-11 -49.5v-495q0 -36 11 -49.5t50 -19.5z" />
    <glyph glyph-name="Eth" unicode="&#xd0;" horiz-adv-x="748" 
d="M128 353v234q0 36 -11 49.5t-51 19.5l-47 7v16h325q76 0 140.5 -19t116.5 -58.5t81 -106.5t29 -156q0 -88 -29.5 -155t-81.5 -106.5t-116 -58.5t-140 -19h-325v16l47 7q40 6 51 19.5t11 49.5v235h-89v26h89zM325 18h20q106 0 159.5 77.5t53.5 243.5q0 167 -54 244.5
t-160 77.5h-78v-310h153v-22h-153v-254q0 -30 14 -43.5t45 -13.5z" />
    <glyph glyph-name="Ntilde" unicode="&#xd1;" horiz-adv-x="749" 
d="M290 750l-4 -2q-17 24 -17 56q0 29 19 48.5t50 19.5t77.5 -29.5t64.5 -29.5q19 0 29 10t14 36h4q0 -111 -75 -111q-28 0 -74 29.5t-63 29.5q-29 0 -29 -30q0 -15 4 -27zM625 -2h-89l-384 593v-447q0 -62 15.5 -87t57.5 -34l37 -7v-16q-22 0 -61 0.5t-61 0.5t-61 -0.5
t-60 -0.5v16l36 7q42 10 57.5 34.5t15.5 86.5v441q0 35 -12 50t-50 21l-47 7v16h244l338 -518v374q0 62 -15.5 87t-57.5 34l-36 7v16q22 0 61 -0.5t60 -0.5q22 0 61 0.5t60 0.5v-16l-36 -7q-42 -10 -57.5 -34.5t-15.5 -86.5v-537z" />
    <glyph glyph-name="Ograve" unicode="&#xd2;" horiz-adv-x="756" 
d="M458 747h-7q-54 21 -110.5 56t-83.5 66v3h120q27 -60 81 -125zM378 -16q-142 0 -241.5 97.5t-99.5 257.5q0 162 99.5 259t241.5 97t241.5 -97t99.5 -259q0 -160 -99.5 -257.5t-241.5 -97.5zM378 0q51 0 88.5 26t59 73.5t31.5 107t10 132.5q0 100 -17.5 173.5t-61 120
t-110.5 46.5q-68 0 -111.5 -47t-60.5 -120t-17 -173q0 -154 45 -246.5t144 -92.5z" />
    <glyph glyph-name="Oacute" unicode="&#xd3;" horiz-adv-x="756" 
d="M317 747h-7q54 67 80 125h120v-3q-26 -30 -83 -65.5t-110 -56.5zM378 -16q-142 0 -241.5 97.5t-99.5 257.5q0 162 99.5 259t241.5 97t241.5 -97t99.5 -259q0 -160 -99.5 -257.5t-241.5 -97.5zM378 0q51 0 88.5 26t59 73.5t31.5 107t10 132.5q0 100 -17.5 173.5t-61 120
t-110.5 46.5q-68 0 -111.5 -47t-60.5 -120t-17 -173q0 -154 45 -246.5t144 -92.5z" />
    <glyph glyph-name="Ocircumflex" unicode="&#xd4;" horiz-adv-x="756" 
d="M365 819l-126 -72h-7l110 125h78l106 -125h-9zM378 -16q-142 0 -241.5 97.5t-99.5 257.5q0 162 99.5 259t241.5 97t241.5 -97t99.5 -259q0 -160 -99.5 -257.5t-241.5 -97.5zM378 0q51 0 88.5 26t59 73.5t31.5 107t10 132.5q0 100 -17.5 173.5t-61 120t-110.5 46.5
q-68 0 -111.5 -47t-60.5 -120t-17 -173q0 -154 45 -246.5t144 -92.5z" />
    <glyph glyph-name="Otilde" unicode="&#xd5;" horiz-adv-x="756" 
d="M283 750l-4 -2q-17 24 -17 56q0 29 19 48.5t50 19.5t77.5 -29.5t64.5 -29.5q19 0 29 10t14 36h4q0 -111 -75 -111q-28 0 -74 29.5t-63 29.5q-29 0 -29 -30q0 -15 4 -27zM719 339q0 -160 -99.5 -257.5t-241.5 -97.5t-241.5 97.5t-99.5 257.5q0 162 99.5 259t241.5 97
t241.5 -97t99.5 -259zM189 339q0 -154 45 -246.5t144 -92.5q51 0 88.5 26t59 73.5t31.5 107t10 132.5q0 100 -17.5 173.5t-61 120t-110.5 46.5q-68 0 -111.5 -47t-60.5 -120t-17 -173z" />
    <glyph glyph-name="Odieresis" unicode="&#xd6;" horiz-adv-x="756" 
d="M544 807q0 -25 -17 -42.5t-43 -17.5t-43.5 17t-17.5 43q0 25 17.5 42.5t43.5 17.5q25 0 42.5 -17.5t17.5 -42.5zM336 807q0 -26 -17.5 -43t-43.5 -17q-25 0 -42.5 17.5t-17.5 42.5t17.5 42.5t42.5 17.5q26 0 43.5 -17.5t17.5 -42.5zM719 339q0 -160 -99.5 -257.5
t-241.5 -97.5t-241.5 97.5t-99.5 257.5q0 162 99.5 259t241.5 97t241.5 -97t99.5 -259zM189 339q0 -154 45 -246.5t144 -92.5q51 0 88.5 26t59 73.5t31.5 107t10 132.5q0 100 -17.5 173.5t-61 120t-110.5 46.5q-68 0 -111.5 -47t-60.5 -120t-17 -173z" />
    <glyph glyph-name="multiply" unicode="&#xd7;" horiz-adv-x="550" 
d="M418 78l-143 143l-143 -143l-23 23l143 143l-143 142l23 24l143 -143l143 143l23 -24l-143 -142l143 -143z" />
    <glyph glyph-name="Oslash" unicode="&#xd8;" horiz-adv-x="756" 
d="M719 339q0 -160 -99.5 -257.5t-241.5 -97.5q-128 0 -220 78l-61 -72l-19 15l61 74q-102 100 -102 260q0 162 99.5 259t241.5 97q125 0 217 -75l57 69l19 -15l-58 -70q106 -99 106 -265zM378 679q-68 0 -111.5 -47t-60.5 -120t-17 -173q0 -109 21 -183l326 398
q-47 125 -158 125zM378 0q51 0 88.5 26t59 73.5t31.5 107t10 132.5q0 112 -23 190l-326 -399q46 -130 160 -130z" />
    <glyph glyph-name="Ugrave" unicode="&#xd9;" horiz-adv-x="765" 
d="M462 747h-7q-54 21 -110.5 56t-83.5 66v3h120q27 -60 81 -125zM388 -15q-133 0 -200.5 60t-67.5 196v346q0 36 -11 49.5t-50 19.5l-48 7v16q31 0 89.5 -0.5t89.5 -0.5t89 0.5t89 0.5v-16l-48 -7q-39 -6 -50 -19.5t-11 -49.5v-349q0 -114 45 -163t133 -49q187 0 187 215
v294q0 62 -15 87t-57 34l-37 7v16q21 0 60 -0.5t61 -0.5t61 0.5t61 0.5v-16l-37 -7q-41 -10 -56.5 -34.5t-15.5 -86.5v-294q0 -256 -261 -256z" />
    <glyph glyph-name="Uacute" unicode="&#xda;" horiz-adv-x="765" 
d="M381 747h-7q54 67 80 125h120v-3q-26 -30 -83 -65.5t-110 -56.5zM388 -15q-133 0 -200.5 60t-67.5 196v346q0 36 -11 49.5t-50 19.5l-48 7v16q31 0 89.5 -0.5t89.5 -0.5t89 0.5t89 0.5v-16l-48 -7q-39 -6 -50 -19.5t-11 -49.5v-349q0 -114 45 -163t133 -49q187 0 187 215
v294q0 62 -15 87t-57 34l-37 7v16q21 0 60 -0.5t61 -0.5t61 0.5t61 0.5v-16l-37 -7q-41 -10 -56.5 -34.5t-15.5 -86.5v-294q0 -256 -261 -256z" />
    <glyph glyph-name="Ucircumflex" unicode="&#xdb;" horiz-adv-x="765" 
d="M384 819l-126 -72h-7l110 125h78l106 -125h-9zM388 -15q-133 0 -200.5 60t-67.5 196v346q0 36 -11 49.5t-50 19.5l-48 7v16q31 0 89.5 -0.5t89.5 -0.5t89 0.5t89 0.5v-16l-48 -7q-39 -6 -50 -19.5t-11 -49.5v-349q0 -114 45 -163t133 -49q187 0 187 215v294q0 62 -15 87
t-57 34l-37 7v16q21 0 60 -0.5t61 -0.5t61 0.5t61 0.5v-16l-37 -7q-41 -10 -56.5 -34.5t-15.5 -86.5v-294q0 -256 -261 -256z" />
    <glyph glyph-name="Udieresis" unicode="&#xdc;" horiz-adv-x="765" 
d="M363 807q0 -26 -17.5 -43t-43.5 -17t-43 17.5t-17 42.5t17.5 42.5t42.5 17.5q26 0 43.5 -17.5t17.5 -42.5zM571 807q0 -25 -17.5 -42.5t-42.5 -17.5q-26 0 -43.5 17t-17.5 43q0 25 17.5 42.5t43.5 17.5q25 0 42.5 -17.5t17.5 -42.5zM388 -15q-133 0 -200.5 60t-67.5 196
v346q0 36 -11 49.5t-50 19.5l-48 7v16q31 0 89.5 -0.5t89.5 -0.5t89 0.5t89 0.5v-16l-48 -7q-39 -6 -50 -19.5t-11 -49.5v-349q0 -114 45 -163t133 -49q187 0 187 215v294q0 62 -15 87t-57 34l-37 7v16q21 0 60 -0.5t61 -0.5t61 0.5t61 0.5v-16l-37 -7q-41 -10 -56.5 -34.5
t-15.5 -86.5v-294q0 -256 -261 -256z" />
    <glyph glyph-name="Yacute" unicode="&#xdd;" horiz-adv-x="719" 
d="M338 747h-7q54 67 80 125h120v-3q-26 -30 -83 -65.5t-110 -56.5zM538 16v-16q-31 0 -90.5 0.5t-90.5 0.5t-91 -0.5t-92 -0.5v16l48 7q41 6 53 20.5t12 50.5v172l-169 311q-23 42 -42 59t-47 22l-34 5v16q61 -1 184 -1q121 0 182 1v-16l-52 -7q-67 -9 -31 -81l139 -268
l107 198q37 68 37 103q0 37 -60 48l-38 7v16q44 -1 131 -1q88 0 132 1v-15l-29 -7q-39 -10 -71.5 -42.5t-80.5 -117.5l-119 -214v-189q0 -36 12 -50.5t53 -20.5z" />
    <glyph glyph-name="Thorn" unicode="&#xde;" horiz-adv-x="656" 
d="M266 516v-338q34 -2 70 -2q71 0 110.5 42t39.5 126q0 91 -38.5 131.5t-118.5 40.5h-63zM375 16v-16q-31 0 -89 0.5t-89 0.5t-89 -0.5t-89 -0.5v16l47 7q40 6 51 19.5t11 49.5v495q0 36 -11 49.5t-51 19.5l-47 7v16q31 0 89 -0.5t89 -0.5t89 0.5t89 0.5v-16l-47 -7
q-40 -6 -51 -19.5t-11 -49.5v-52h63q302 0 302 -190q0 -92 -82 -140t-213 -48q-12 0 -40 1.5t-30 1.5v-68q0 -36 11 -49.5t51 -19.5z" />
    <glyph glyph-name="germandbls" unicode="&#xdf;" horiz-adv-x="613" 
d="M416 -14q-68 0 -106 30.5t-38 74.5q0 34 18.5 55t51.5 21q27 0 44 -16t17 -41q0 -29 -20 -48.5t-20 -28.5q0 -13 14.5 -22t40.5 -9q40 0 66 23.5t26 68.5q0 40 -20.5 66t-77.5 70q-58 45 -85.5 78.5t-27.5 77.5q0 27 11.5 50t24 35.5t42.5 38.5q39 35 52.5 64t13.5 74
q0 53 -27.5 83.5t-72.5 30.5q-122 0 -122 -194v-568h-201v15l33 6q30 4 38.5 15.5t8.5 42.5v365l-94 15v18l94 14v8q0 74 22 130.5t58 87.5t77 46t86 15q75 1 124 -33.5t49 -90.5q0 -35 -18 -59t-60 -58q-61 -50 -61 -84q0 -27 20.5 -50t83.5 -72q63 -50 87.5 -87.5
t24.5 -91.5q0 -78 -54.5 -122t-122.5 -44z" />
    <glyph glyph-name="agrave" unicode="&#xe0;" horiz-adv-x="524" 
d="M307 578h-6q-125 76 -174 169v3h102q19 -70 78 -172zM225 23q38 0 62.5 28t24.5 83v114q-84 -13 -121 -42t-37 -96q0 -41 18.5 -64t52.5 -23zM327 94q-13 -51 -54.5 -80t-101.5 -29q-68 0 -104.5 31t-36.5 84q0 40 22.5 70t64.5 48t88.5 28t107.5 16v101q0 68 -17.5 95
t-67.5 27q-37 0 -59.5 -13.5t-22.5 -30.5q0 -13 12.5 -23t25 -23.5t12.5 -36.5q0 -29 -19.5 -46t-50.5 -17q-33 0 -52.5 21.5t-19.5 57.5q0 54 50.5 90t128.5 36q95 0 146 -41.5t51 -124.5q0 -6 -0.5 -131t-0.5 -128q0 -52 33 -52q20 0 31 23t14 82h16q-2 -77 -24.5 -108.5
t-73.5 -31.5q-46 0 -69.5 24t-28.5 82z" />
    <glyph glyph-name="aacute" unicode="&#xe1;" horiz-adv-x="524" 
d="M197 578h-6q60 105 79 172h101v-3q-50 -94 -174 -169zM225 23q38 0 62.5 28t24.5 83v114q-84 -13 -121 -42t-37 -96q0 -41 18.5 -64t52.5 -23zM327 94q-13 -51 -54.5 -80t-101.5 -29q-68 0 -104.5 31t-36.5 84q0 40 22.5 70t64.5 48t88.5 28t107.5 16v101q0 68 -17.5 95
t-67.5 27q-37 0 -59.5 -13.5t-22.5 -30.5q0 -13 12.5 -23t25 -23.5t12.5 -36.5q0 -29 -19.5 -46t-50.5 -17q-33 0 -52.5 21.5t-19.5 57.5q0 54 50.5 90t128.5 36q95 0 146 -41.5t51 -124.5q0 -6 -0.5 -131t-0.5 -128q0 -52 33 -52q20 0 31 23t14 82h16q-2 -77 -24.5 -108.5
t-73.5 -31.5q-46 0 -69.5 24t-28.5 82z" />
    <glyph glyph-name="acircumflex" unicode="&#xe2;" horiz-adv-x="524" 
d="M383 578l-145 107l-126 -107h-6l113 172h64l109 -172h-9zM225 23q38 0 62.5 28t24.5 83v114q-84 -13 -121 -42t-37 -96q0 -41 18.5 -64t52.5 -23zM523 128q-2 -77 -24.5 -108.5t-73.5 -31.5q-46 0 -69.5 24t-28.5 82q-13 -51 -54.5 -80t-101.5 -29q-68 0 -104.5 31
t-36.5 84q0 40 22.5 70t64.5 48t88.5 28t107.5 16v101q0 68 -17.5 95t-67.5 27q-37 0 -59.5 -13.5t-22.5 -30.5q0 -13 12.5 -23t25 -23.5t12.5 -36.5q0 -29 -19.5 -46t-50.5 -17q-33 0 -52.5 21.5t-19.5 57.5q0 54 50.5 90t128.5 36q95 0 146 -41.5t51 -124.5
q0 -6 -0.5 -131t-0.5 -128q0 -52 33 -52q20 0 31 23t14 82h16z" />
    <glyph glyph-name="atilde" unicode="&#xe3;" horiz-adv-x="524" 
d="M137 612l-3 -2q-17 24 -17 56q0 29 18.5 48.5t50.5 19.5q31 0 77.5 -29.5t64.5 -29.5q19 0 29 10t14 36h4q0 -111 -75 -111q-28 0 -74 29.5t-63 29.5q-29 0 -29 -30q0 -13 3 -27zM225 23q38 0 62.5 28t24.5 83v114q-84 -13 -121 -42t-37 -96q0 -41 18.5 -64t52.5 -23z
M327 94q-13 -51 -54.5 -80t-101.5 -29q-68 0 -104.5 31t-36.5 84q0 40 22.5 70t64.5 48t88.5 28t107.5 16v101q0 68 -17.5 95t-67.5 27q-37 0 -59.5 -13.5t-22.5 -30.5q0 -13 12.5 -23t25 -23.5t12.5 -36.5q0 -29 -19.5 -46t-50.5 -17q-33 0 -52.5 21.5t-19.5 57.5
q0 54 50.5 90t128.5 36q95 0 146 -41.5t51 -124.5q0 -6 -0.5 -131t-0.5 -128q0 -52 33 -52q20 0 31 23t14 82h16q-2 -77 -24.5 -108.5t-73.5 -31.5q-46 0 -69.5 24t-28.5 82z" />
    <glyph glyph-name="adieresis" unicode="&#xe4;" horiz-adv-x="524" 
d="M423 672q0 -26 -17.5 -43t-42.5 -17q-26 0 -43.5 17t-17.5 43q0 25 17.5 42.5t43.5 17.5q25 0 42.5 -17.5t17.5 -42.5zM215 672q0 -26 -17.5 -43t-43.5 -17t-43 17t-17 43q0 25 17.5 42.5t42.5 17.5q26 0 43.5 -17.5t17.5 -42.5zM225 23q38 0 62.5 28t24.5 83v114
q-84 -13 -121 -42t-37 -96q0 -41 18.5 -64t52.5 -23zM327 94q-13 -51 -54.5 -80t-101.5 -29q-68 0 -104.5 31t-36.5 84q0 40 22.5 70t64.5 48t88.5 28t107.5 16v101q0 68 -17.5 95t-67.5 27q-37 0 -59.5 -13.5t-22.5 -30.5q0 -13 12.5 -23t25 -23.5t12.5 -36.5
q0 -29 -19.5 -46t-50.5 -17q-33 0 -52.5 21.5t-19.5 57.5q0 54 50.5 90t128.5 36q95 0 146 -41.5t51 -124.5q0 -6 -0.5 -131t-0.5 -128q0 -52 33 -52q20 0 31 23t14 82h16q-2 -77 -24.5 -108.5t-73.5 -31.5q-46 0 -69.5 24t-28.5 82z" />
    <glyph glyph-name="aring" unicode="&#xe5;" horiz-adv-x="524" 
d="M339 653q0 -41 -28 -67.5t-72 -27.5q-43 0 -71 27t-28 68q0 40 28 67t71 27q44 0 72 -27t28 -67zM171 653q0 -34 17.5 -57t50.5 -23t51 23t18 57q0 33 -18 56t-51 23t-50.5 -22.5t-17.5 -56.5zM225 23q38 0 62.5 28t24.5 83v114q-84 -13 -121 -42t-37 -96q0 -41 18.5 -64
t52.5 -23zM523 128q-2 -77 -24.5 -108.5t-73.5 -31.5q-46 0 -69.5 24t-28.5 82q-13 -51 -54.5 -80t-101.5 -29q-68 0 -104.5 31t-36.5 84q0 40 22.5 70t64.5 48t88.5 28t107.5 16v101q0 68 -17.5 95t-67.5 27q-37 0 -59.5 -13.5t-22.5 -30.5q0 -13 12.5 -23t25 -23.5
t12.5 -36.5q0 -29 -19.5 -46t-50.5 -17q-33 0 -52.5 21.5t-19.5 57.5q0 54 50.5 90t128.5 36q95 0 146 -41.5t51 -124.5q0 -6 -0.5 -131t-0.5 -128q0 -52 33 -52q20 0 31 23t14 82h16z" />
    <glyph glyph-name="ae" unicode="&#xe6;" horiz-adv-x="777" 
d="M618 300l2 16q2 41 1.5 79t-19 64.5t-54.5 26.5q-97 0 -107 -198zM225 23q38 0 62.5 28t24.5 83v114q-84 -13 -121 -42t-37 -96q0 -41 18.5 -64t52.5 -23zM741 115q-69 -129 -199 -129q-62 0 -113.5 29t-81.5 84q-25 -51 -70 -82.5t-106 -31.5q-68 0 -104.5 31t-36.5 84
q0 40 22.5 70t64.5 48t88.5 28t107.5 16v101q0 68 -17.5 95t-67.5 27q-37 0 -59.5 -13.5t-22.5 -30.5q0 -13 12.5 -22t25 -23t12.5 -38q0 -29 -19.5 -46t-50.5 -17q-33 0 -52.5 21t-19.5 57q0 54 50.5 90.5t128.5 36.5q115 0 158 -75q61 76 157 76q88 0 140.5 -47.5
t52.5 -131.5q0 -23 -4 -51l-297 1v-30q0 -105 36.5 -160.5t104.5 -55.5q90 0 145 97z" />
    <glyph glyph-name="ccedilla" unicode="&#xe7;" horiz-adv-x="504" 
d="M226 -244q-53 0 -98 28l9 12q30 -15 61 -15q30 0 47.5 19.5t17.5 55.5q0 58 -44 58q-16 0 -34 -8l-11 7l25 80q-76 19 -124.5 83t-48.5 164q0 121 76.5 191.5t182.5 70.5q77 0 123 -35t46 -89q0 -34 -21.5 -57.5t-56.5 -23.5q-32 0 -52 17.5t-20 47.5q0 21 9 35.5t19 21
t19 14.5t9 16q0 14 -19.5 25.5t-51.5 11.5q-131 0 -131 -244q0 -105 36 -160.5t104 -55.5q91 0 146 97l14 -8q-68 -129 -199 -129q-25 0 -44 4l-15 -66q32 10 56 10q40 0 67 -21t27 -61q0 -45 -37 -70.5t-87 -25.5z" />
    <glyph glyph-name="egrave" unicode="&#xe8;" horiz-adv-x="495" 
d="M322 578h-6q-125 76 -174 169v3h102q19 -70 78 -172zM336 300l2 17q2 41 1.5 78.5t-19 64t-54.5 26.5q-97 0 -107 -198zM458 115q-69 -129 -198 -129q-98 0 -166 67.5t-68 187.5q0 121 71 190.5t168 69.5q89 0 141 -47t52 -132q0 -32 -4 -51l-296 1v-30q0 -105 36 -160.5
t104 -55.5q91 0 146 97z" />
    <glyph glyph-name="eacute" unicode="&#xe9;" horiz-adv-x="495" 
d="M216 578h-6q60 105 79 172h101v-3q-50 -94 -174 -169zM159 288l177 12l2 17q2 41 1.5 78.5t-19 64t-54.5 26.5q-97 0 -107 -198zM458 115q-69 -129 -198 -129q-98 0 -166 67.5t-68 187.5q0 121 71 190.5t168 69.5q89 0 141 -47t52 -132q0 -32 -4 -51l-296 1v-30
q0 -105 36 -160.5t104 -55.5q91 0 146 97z" />
    <glyph glyph-name="ecircumflex" unicode="&#xea;" horiz-adv-x="495" 
d="M388 578l-145 107l-126 -107h-6l113 172h64l109 -172h-9zM336 300l2 17q2 41 1.5 78.5t-19 64t-54.5 26.5q-97 0 -107 -198zM458 115q-69 -129 -198 -129q-98 0 -166 67.5t-68 187.5q0 121 71 190.5t168 69.5q89 0 141 -47t52 -132q0 -32 -4 -51l-296 1v-30
q0 -105 36 -160.5t104 -55.5q91 0 146 97z" />
    <glyph glyph-name="edieresis" unicode="&#xeb;" horiz-adv-x="495" 
d="M426 672q0 -26 -17 -43t-43 -17t-43.5 17t-17.5 43q0 25 17.5 42.5t43.5 17.5q25 0 42.5 -17.5t17.5 -42.5zM218 672q0 -26 -17.5 -43t-43.5 -17q-25 0 -42.5 17t-17.5 43q0 25 17.5 42.5t42.5 17.5q26 0 43.5 -17.5t17.5 -42.5zM336 300l2 17q2 41 1.5 78.5t-19 64
t-54.5 26.5q-97 0 -107 -198zM458 115q-69 -129 -198 -129q-98 0 -166 67.5t-68 187.5q0 121 71 190.5t168 69.5q89 0 141 -47t52 -132q0 -32 -4 -51l-296 1v-30q0 -105 36 -160.5t104 -55.5q91 0 146 97z" />
    <glyph glyph-name="igrave" unicode="&#xec;" horiz-adv-x="311" 
d="M213 578h-6q-125 76 -174 169v3h102q19 -70 78 -172zM21 0v15l33 6q29 4 37.5 15.5t8.5 42.5v300q0 36 -12 48t-49 14l-32 3v14l201 41l20 -6q-6 -48 -6 -120v-295q0 -30 8.5 -41.5t37.5 -15.5l32 -6v-15q-24 0 -69 0.5t-70 0.5q-24 0 -69.5 -0.5t-70.5 -0.5z" />
    <glyph glyph-name="iacute" unicode="&#xed;" horiz-adv-x="311" 
d="M89 578h-6q60 105 79 172h101v-3q-50 -94 -174 -169zM300 0q-24 0 -69 0.5t-70 0.5q-24 0 -69.5 -0.5t-70.5 -0.5v15l33 6q29 4 37.5 15.5t8.5 42.5v300q0 36 -12 48t-49 14l-32 3v14l201 41l20 -6q-6 -48 -6 -120v-295q0 -30 8.5 -41.5t37.5 -15.5l32 -6v-15z" />
    <glyph glyph-name="icircumflex" unicode="&#xee;" horiz-adv-x="311" 
d="M135 685l-126 -107h-6l113 172h64l109 -172h-9zM300 0q-24 0 -69 0.5t-70 0.5q-24 0 -69.5 -0.5t-70.5 -0.5v15l33 6q29 4 37.5 15.5t8.5 42.5v300q0 36 -12 48t-49 14l-32 3v14l201 41l20 -6q-6 -48 -6 -120v-295q0 -30 8.5 -41.5t37.5 -15.5l32 -6v-15z" />
    <glyph glyph-name="idieresis" unicode="&#xef;" horiz-adv-x="311" 
d="M310 672q0 -26 -17 -43t-43 -17t-43.5 17t-17.5 43q0 25 17.5 42.5t43.5 17.5q25 0 42.5 -17.5t17.5 -42.5zM102 672q0 -26 -17.5 -43t-43.5 -17q-25 0 -42.5 17t-17.5 43q0 25 17.5 42.5t42.5 17.5q26 0 43.5 -17.5t17.5 -42.5zM300 0q-24 0 -69 0.5t-70 0.5
q-24 0 -69.5 -0.5t-70.5 -0.5v15l33 6q29 4 37.5 15.5t8.5 42.5v300q0 36 -12 48t-49 14l-32 3v14l201 41l20 -6q-6 -48 -6 -120v-295q0 -30 8.5 -41.5t37.5 -15.5l32 -6v-15z" />
    <glyph glyph-name="eth" unicode="&#xf0;" horiz-adv-x="543" 
d="M267 -15q-107 0 -173 73.5t-66 193.5q0 112 63.5 182t150.5 70q100 0 130 -106q-30 133 -114 236l-139 -58l-11 24l131 55q-58 64 -144 113l6 11q120 -43 199 -99l126 53l12 -24l-114 -47q181 -142 181 -371q0 -76 -22 -136.5t-57.5 -96.5t-76 -54.5t-82.5 -18.5z
M159 246q0 -245 107 -245q53 0 78.5 66.5t25.5 178.5q0 236 -111 236q-38 0 -61 -31.5t-31 -81t-8 -123.5z" />
    <glyph glyph-name="ntilde" unicode="&#xf1;" horiz-adv-x="617" 
d="M215 612l-3 -2q-17 24 -17 56q0 29 18.5 48.5t50.5 19.5q31 0 77.5 -29.5t64.5 -29.5q19 0 29 10t14 36h4q0 -111 -75 -111q-28 0 -74 29.5t-63 29.5q-29 0 -29 -30q0 -13 3 -27zM608 0q-24 0 -68 0.5t-69 0.5q-24 0 -69 -0.5t-69 -0.5v15l31 6q27 4 35 15t8 42v275
q0 60 -16.5 85.5t-54.5 25.5q-49 0 -82.5 -59t-33.5 -159v-168q0 -31 8 -42t35 -15l32 -6v-15q-25 0 -69 0.5t-69 0.5q-24 0 -68.5 -0.5t-68.5 -0.5v15l32 6q29 4 38 15.5t9 42.5v300q0 35 -12.5 47t-48.5 15l-33 2v14l188 41l19 -7q-6 -101 -6 -245q0 118 43.5 186.5
t127.5 68.5q70 0 111 -40t41 -118v-264q0 -31 8.5 -42.5t37.5 -15.5l33 -6v-15z" />
    <glyph glyph-name="ograve" unicode="&#xf2;" horiz-adv-x="530" 
d="M326 578h-6q-125 76 -174 169v3h102q19 -70 78 -172zM504 243q0 -118 -69 -188t-170 -70q-100 0 -169.5 70t-69.5 188t69.5 188t169.5 70q101 0 170 -70t69 -188zM265 1q60 0 84 62t24 180t-24 180.5t-84 62.5q-41 0 -65.5 -31.5t-33.5 -83t-9 -128.5t9 -128t33.5 -82.5
t65.5 -31.5z" />
    <glyph glyph-name="oacute" unicode="&#xf3;" horiz-adv-x="530" 
d="M207 578h-6q60 105 79 172h101v-3q-50 -94 -174 -169zM265 -15q-100 0 -169.5 70t-69.5 188t69.5 188t169.5 70q101 0 170 -70t69 -188t-69 -188t-170 -70zM265 1q60 0 84 62t24 180t-24 180.5t-84 62.5q-41 0 -65.5 -31.5t-33.5 -83t-9 -128.5t9 -128t33.5 -82.5
t65.5 -31.5z" />
    <glyph glyph-name="ocircumflex" unicode="&#xf4;" horiz-adv-x="530" 
d="M251 685l-126 -107h-6l113 172h64l109 -172h-9zM504 243q0 -118 -69 -188t-170 -70q-100 0 -169.5 70t-69.5 188t69.5 188t169.5 70q101 0 170 -70t69 -188zM157 243q0 -77 9 -128t33.5 -82.5t65.5 -31.5q60 0 84 62t24 180t-24 180.5t-84 62.5q-41 0 -65.5 -31.5
t-33.5 -83t-9 -128.5z" />
    <glyph glyph-name="otilde" unicode="&#xf5;" horiz-adv-x="530" 
d="M157 612l-3 -2q-17 24 -17 56q0 29 18.5 48.5t50.5 19.5q31 0 77.5 -29.5t64.5 -29.5q19 0 29 10t14 36h4q0 -111 -75 -111q-28 0 -74 29.5t-63 29.5q-29 0 -29 -30q0 -13 3 -27zM504 243q0 -118 -69 -188t-170 -70q-100 0 -169.5 70t-69.5 188t69.5 188t169.5 70
q101 0 170 -70t69 -188zM265 1q60 0 84 62t24 180t-24 180.5t-84 62.5q-41 0 -65.5 -31.5t-33.5 -83t-9 -128.5t9 -128t33.5 -82.5t65.5 -31.5z" />
    <glyph glyph-name="odieresis" unicode="&#xf6;" horiz-adv-x="530" 
d="M429 672q0 -26 -17.5 -43t-42.5 -17q-26 0 -43.5 17t-17.5 43q0 25 17.5 42.5t43.5 17.5q25 0 42.5 -17.5t17.5 -42.5zM221 672q0 -26 -17.5 -43t-43.5 -17t-43 17t-17 43q0 25 17.5 42.5t42.5 17.5q26 0 43.5 -17.5t17.5 -42.5zM265 -15q-100 0 -169.5 70t-69.5 188
t69.5 188t169.5 70q101 0 170 -70t69 -188t-69 -188t-170 -70zM265 1q60 0 84 62t24 180t-24 180.5t-84 62.5q-41 0 -65.5 -31.5t-33.5 -83t-9 -128.5t9 -128t33.5 -82.5t65.5 -31.5z" />
    <glyph glyph-name="divide" unicode="&#xf7;" horiz-adv-x="550" 
d="M312 403q0 -16 -11 -26t-26 -10q-14 0 -25.5 10t-11.5 26q0 17 11 27t26 10t26 -10t11 -27zM56 227v34h438v-34h-438zM312 86q0 -17 -11 -27t-26 -10q-14 0 -25.5 10.5t-11.5 26.5t11 26t26 10t26 -10t11 -26z" />
    <glyph glyph-name="oslash" unicode="&#xf8;" horiz-adv-x="530" 
d="M504 243q0 -118 -69 -188t-170 -70q-91 0 -157 58l-45 -53l-20 15l48 55q-65 72 -65 183q0 118 69.5 188t169.5 70q91 0 156 -57l45 52l19 -15l-47 -54q66 -71 66 -184zM265 486q-41 0 -65.5 -31.5t-33.5 -83t-9 -128.5q0 -57 6 -102l200 235q-23 110 -98 110zM265 1
q60 0 84 62t24 180q0 52 -5 102l-201 -233q23 -111 98 -111z" />
    <glyph glyph-name="ugrave" unicode="&#xf9;" horiz-adv-x="571" 
d="M311 578h-6q-125 76 -174 169v3h102q19 -70 78 -172zM376 207q0 -222 -161 -222q-67 0 -107 39.5t-40 116.5v266q0 30 -7.5 42.5t-33.5 16.5l-38 6v15h204l-4 -84v-274q0 -60 18 -84t53 -24q43 0 72 48t29 138v200q0 30 -7.5 42.5t-32.5 16.5l-39 6v15h205l-4 -89v-319
q0 -30 7.5 -42t33.5 -16l38 -6v-15h-173l-13 10v197z" />
    <glyph glyph-name="uacute" unicode="&#xfa;" horiz-adv-x="571" 
d="M225 576h-6q60 105 79 172h101v-3q-50 -94 -174 -169zM376 207q0 -222 -161 -222q-67 0 -107 39.5t-40 116.5v266q0 30 -7.5 42.5t-33.5 16.5l-38 6v15h204l-4 -84v-274q0 -60 18 -84t53 -24q43 0 72 48t29 138v200q0 30 -7.5 42.5t-32.5 16.5l-39 6v15h205l-4 -89v-319
q0 -30 7.5 -42t33.5 -16l38 -6v-15h-173l-13 10v197z" />
    <glyph glyph-name="ucircumflex" unicode="&#xfb;" horiz-adv-x="571" 
d="M252 685l-126 -107h-6l113 172h64l109 -172h-9zM376 207q0 -222 -161 -222q-67 0 -107 39.5t-40 116.5v266q0 30 -7.5 42.5t-33.5 16.5l-38 6v15h204l-4 -84v-274q0 -60 18 -84t53 -24q43 0 72 48t29 138v200q0 30 -7.5 42.5t-32.5 16.5l-39 6v15h205l-4 -89v-319
q0 -30 7.5 -42t33.5 -16l38 -6v-15h-173l-13 10v197z" />
    <glyph glyph-name="udieresis" unicode="&#xfc;" horiz-adv-x="571" 
d="M434 672q0 -26 -17 -43t-43 -17t-43.5 17t-17.5 43q0 25 17.5 42.5t43.5 17.5q25 0 42.5 -17.5t17.5 -42.5zM226 672q0 -26 -17.5 -43t-43.5 -17q-25 0 -42.5 17t-17.5 43q0 25 17.5 42.5t42.5 17.5q26 0 43.5 -17.5t17.5 -42.5zM376 207q0 -222 -161 -222
q-67 0 -107 39.5t-40 116.5v266q0 30 -7.5 42.5t-33.5 16.5l-38 6v15h204l-4 -84v-274q0 -60 18 -84t53 -24q43 0 72 48t29 138v200q0 30 -7.5 42.5t-32.5 16.5l-39 6v15h205l-4 -89v-319q0 -30 7.5 -42t33.5 -16l38 -6v-15h-173l-13 10v197z" />
    <glyph glyph-name="yacute" unicode="&#xfd;" horiz-adv-x="538" 
d="M248 578h-6q60 105 79 172h101v-3q-50 -94 -174 -169zM296 14q-41 -107 -75.5 -164t-62.5 -74.5t-68 -17.5q-44 0 -70 24t-26 63q0 33 21 55t57 22q30 0 47 -16t19 -41q1 -20 -9.5 -36t-10.5 -21q1 -10 13 -10q61 0 127 180l6 15l-173 395q-19 43 -32.5 59t-36.5 20
l-28 5v15q49 -1 144 -1q91 0 140 1v-15l-33 -4q-29 -4 -33.5 -25.5t10.5 -56.5l101 -255l80 217q17 47 17 72q0 20 -12.5 30.5t-41.5 15.5l-30 5v16q35 -1 105 -1q69 0 105 1v-15l-21 -5q-38 -9 -58 -34t-46 -92z" />
    <glyph glyph-name="thorn" unicode="&#xfe;" horiz-adv-x="561" 
d="M290 1q114 0 114 246q0 113 -23.5 170t-77.5 57q-55 0 -82.5 -51.5t-27.5 -140.5v-231q31 -50 97 -50zM273 -215v-15q-25 0 -70.5 0.5t-69.5 0.5q-25 0 -70.5 -0.5t-69.5 -0.5v15l32 5q29 5 37.5 16.5t8.5 42.5v812q0 32 -10 42.5t-43 14.5l-41 5v12l206 40l17 -7
q-7 -52 -7 -124v-76q0 -50 -7 -138t-7 -148q0 219 146 219q90 0 150 -67t60 -186q0 -125 -74.5 -194t-167.5 -69q-56 0 -100 19v-154q0 -32 8.5 -43.5t38.5 -16.5z" />
    <glyph glyph-name="ydieresis" unicode="&#xff;" horiz-adv-x="538" 
d="M450 672q0 -26 -17 -43t-43 -17t-43.5 17t-17.5 43q0 25 17.5 42.5t43.5 17.5q25 0 42.5 -17.5t17.5 -42.5zM242 672q0 -26 -17.5 -43t-43.5 -17q-25 0 -42.5 17t-17.5 43q0 25 17.5 42.5t42.5 17.5q26 0 43.5 -17.5t17.5 -42.5zM296 14q-41 -107 -75.5 -164t-62.5 -74.5
t-68 -17.5q-44 0 -70 24t-26 63q0 33 21 55t57 22q30 0 47 -16t19 -41q1 -20 -9.5 -36t-10.5 -21q1 -10 13 -10q61 0 127 180l6 15l-173 395q-19 43 -32.5 59t-36.5 20l-28 5v15q49 -1 144 -1q91 0 140 1v-15l-33 -4q-29 -4 -33.5 -25.5t10.5 -56.5l101 -255l80 217
q17 47 17 72q0 20 -12.5 30.5t-41.5 15.5l-30 5v16q35 -1 105 -1q69 0 105 1v-15l-21 -5q-38 -9 -58 -34t-46 -92z" />
    <glyph glyph-name="Amacron" unicode="&#x100;" horiz-adv-x="720" 
d="M223 763v39q72 -4 139 -4q70 0 140 4v-39q-70 4 -139 4q-68 0 -140 -4zM725 0q-29 0 -84.5 0.5t-85.5 0.5t-86 -0.5t-86 -0.5v16l51 7q37 5 43.5 25.5t-9.5 59.5l-39 107h-248l-15 -39q-29 -76 -22.5 -107.5t58.5 -43.5l47 -9v-16q-22 0 -62.5 0.5t-62.5 0.5t-64.5 -0.5
t-64.5 -0.5v15l32 9q39 11 63 42.5t56 116.5l141 372l44 128h69l210 -552q25 -65 40 -85.5t44 -24.5l31 -5v-16zM307 549l-118 -313h232z" />
    <glyph glyph-name="amacron" unicode="&#x101;" horiz-adv-x="524" 
d="M104 651v38q72 -4 139 -4q70 0 140 4v-38q-70 4 -139 4q-68 0 -140 -4zM225 23q38 0 62.5 28t24.5 83v114q-84 -13 -121 -42t-37 -96q0 -41 18.5 -64t52.5 -23zM523 128q-2 -77 -24.5 -108.5t-73.5 -31.5q-46 0 -69.5 24t-28.5 82q-13 -51 -54.5 -80t-101.5 -29
q-68 0 -104.5 31t-36.5 84q0 40 22.5 70t64.5 48t88.5 28t107.5 16v101q0 68 -17.5 95t-67.5 27q-37 0 -59.5 -13.5t-22.5 -30.5q0 -13 12.5 -23t25 -23.5t12.5 -36.5q0 -29 -19.5 -46t-50.5 -17q-33 0 -52.5 21.5t-19.5 57.5q0 54 50.5 90t128.5 36q95 0 146 -41.5
t51 -124.5q0 -6 -0.5 -131t-0.5 -128q0 -52 33 -52q20 0 31 23t14 82h16z" />
    <glyph glyph-name="Abreve" unicode="&#x102;" horiz-adv-x="720" 
d="M493 874q-16 -127 -129 -127q-114 0 -130 127h5q22 -55 125 -55q102 0 124 55h5zM725 0q-29 0 -84.5 0.5t-85.5 0.5t-86 -0.5t-86 -0.5v16l51 7q37 5 43.5 25.5t-9.5 59.5l-39 107h-248l-15 -39q-29 -76 -22.5 -107.5t58.5 -43.5l47 -9v-16q-22 0 -62.5 0.5t-62.5 0.5
t-64.5 -0.5t-64.5 -0.5v15l32 9q39 11 63 42.5t56 116.5l141 372l44 128h69l210 -552q25 -65 40 -85.5t44 -24.5l31 -5v-16zM307 549l-118 -313h232z" />
    <glyph glyph-name="abreve" unicode="&#x103;" horiz-adv-x="524" 
d="M378 738q-16 -137 -129 -137t-129 137h5q19 -63 124 -63q104 0 125 63h4zM225 23q38 0 62.5 28t24.5 83v114q-84 -13 -121 -42t-37 -96q0 -41 18.5 -64t52.5 -23zM327 94q-13 -51 -54.5 -80t-101.5 -29q-68 0 -104.5 31t-36.5 84q0 40 22.5 70t64.5 48t88.5 28t107.5 16
v101q0 68 -17.5 95t-67.5 27q-37 0 -59.5 -13.5t-22.5 -30.5q0 -13 12.5 -23t25 -23.5t12.5 -36.5q0 -29 -19.5 -46t-50.5 -17q-33 0 -52.5 21.5t-19.5 57.5q0 54 50.5 90t128.5 36q95 0 146 -41.5t51 -124.5q0 -6 -0.5 -131t-0.5 -128q0 -52 33 -52q20 0 31 23t14 82h16
q-2 -77 -24.5 -108.5t-73.5 -31.5q-46 0 -69.5 24t-28.5 82z" />
    <glyph glyph-name="Aogonek" unicode="&#x104;" horiz-adv-x="720" 
d="M307 549l-118 -313h232zM539 -140q-25 -50 -56.5 -76t-80.5 -26q-48 0 -77.5 22.5t-29.5 63.5q0 74 95 125q56 30 73.5 45t17.5 38q0 20 -12 52l-40 111h-248l-15 -39q-29 -75 -22 -107t58 -44l47 -9v-16q-22 0 -62.5 0.5t-62.5 0.5t-64.5 -0.5t-64.5 -0.5v15l32 9
q39 11 63 42.5t56 116.5l141 372l44 128h69l210 -552q24 -64 39.5 -85t44.5 -25l31 -5v-16q-29 0 -88 0.5t-88 0.5q-80 0 -127.5 -40t-47.5 -104q0 -31 16 -48t42 -17q27 0 48.5 18t44.5 57z" />
    <glyph glyph-name="aogonek" unicode="&#x105;" horiz-adv-x="524" 
d="M384 -242q-49 0 -78 22.5t-29 62.5q0 85 155 152l-12 -2q-44 0 -66 22t-27 78q-13 -50 -54.5 -79t-101.5 -29q-68 0 -104.5 31t-36.5 84q0 40 22.5 70t64.5 48t88.5 28t107.5 16v101q0 68 -17.5 95t-67.5 27q-37 0 -59.5 -13.5t-22.5 -30.5q0 -13 12.5 -22t25 -23
t12.5 -38q0 -29 -19.5 -46t-50.5 -17q-33 0 -52.5 21t-19.5 57q0 54 50.5 90.5t128.5 36.5q95 0 146 -41.5t51 -124.5q0 -6 -0.5 -131t-0.5 -128q0 -52 33 -52q20 0 31 23t14 82h16q-3 -87 -32 -116q-9 -10 -42 -24.5t-54 -35.5q-39 -39 -39 -95q0 -29 15.5 -47t41.5 -18
q28 0 49.5 18t43.5 57l15 -7q-26 -50 -57 -76t-80 -26zM225 23q38 0 62.5 28t24.5 83v114q-84 -13 -121 -42t-37 -96q0 -41 18.5 -64t52.5 -23z" />
    <glyph glyph-name="Cacute" unicode="&#x106;" horiz-adv-x="698" 
d="M311 747h-7q54 67 80 125h120v-3q-26 -30 -83 -65.5t-110 -56.5zM612 -10l-43 67q-73 -73 -190 -73q-141 0 -241.5 95t-100.5 259t101 260.5t240 96.5q120 0 191 -73l43 67h9v-281h-18q-49 148 -100 209.5t-123 61.5q-92 0 -141 -85.5t-49 -254.5q0 -164 48 -251.5
t143 -87.5q73 0 124.5 61.5t97.5 197.5h18v-269h-9z" />
    <glyph glyph-name="cacute" unicode="&#x107;" horiz-adv-x="504" 
d="M228 578h-6q60 105 79 172h101v-3q-50 -94 -174 -169zM458 115q-68 -129 -199 -129q-97 0 -165 67t-68 187q0 121 76.5 191.5t182.5 70.5q77 0 123 -35t46 -89q0 -34 -21.5 -57.5t-56.5 -23.5q-32 0 -52 17.5t-20 47.5q0 21 9 35.5t19 21t19 14.5t9 16q0 14 -19.5 25.5
t-51.5 11.5q-131 0 -131 -244q0 -105 36 -160.5t104 -55.5q91 0 146 97z" />
    <glyph glyph-name="Ccircumflex" unicode="&#x108;" horiz-adv-x="698" 
d="M354 819l-126 -72h-7l110 125h78l106 -125h-9zM612 -10l-43 67q-73 -73 -190 -73q-141 0 -241.5 95t-100.5 259t101 260.5t240 96.5q120 0 191 -73l43 67h9v-281h-18q-49 148 -100 209.5t-123 61.5q-92 0 -141 -85.5t-49 -254.5q0 -164 48 -251.5t143 -87.5
q73 0 124.5 61.5t97.5 197.5h18v-269h-9z" />
    <glyph glyph-name="ccircumflex" unicode="&#x109;" horiz-adv-x="504" 
d="M248 685l-126 -107h-6l113 172h64l109 -172h-9zM458 115q-68 -129 -199 -129q-97 0 -165 67t-68 187q0 121 76.5 191.5t182.5 70.5q77 0 123 -35t46 -89q0 -34 -21.5 -57.5t-56.5 -23.5q-32 0 -52 17.5t-20 47.5q0 21 9 35.5t19 21t19 14.5t9 16q0 14 -19.5 25.5
t-51.5 11.5q-131 0 -131 -244q0 -105 36 -160.5t104 -55.5q91 0 146 97z" />
    <glyph glyph-name="Cdotaccent" unicode="&#x10a;" horiz-adv-x="698" 
d="M437 807q0 -25 -17.5 -42.5t-43.5 -17.5t-43 17.5t-17 42.5t17.5 42.5t42.5 17.5t43 -17.5t18 -42.5zM612 -10l-43 67q-73 -73 -190 -73q-141 0 -241.5 95t-100.5 259t101 260.5t240 96.5q120 0 191 -73l43 67h9v-281h-18q-49 148 -100 209.5t-123 61.5q-92 0 -141 -85.5
t-49 -254.5q0 -164 48 -251.5t143 -87.5q73 0 124.5 61.5t97.5 197.5h18v-269h-9z" />
    <glyph glyph-name="cdotaccent" unicode="&#x10b;" horiz-adv-x="504" 
d="M334 672q0 -26 -17 -43t-43 -17t-43.5 17.5t-17.5 42.5t18 42.5t43 17.5t42.5 -17.5t17.5 -42.5zM458 115q-68 -129 -199 -129q-97 0 -165 67t-68 187q0 121 76.5 191.5t182.5 70.5q77 0 123 -35t46 -89q0 -34 -21.5 -57.5t-56.5 -23.5q-32 0 -52 17.5t-20 47.5
q0 21 9 35.5t19 21t19 14.5t9 16q0 14 -19.5 25.5t-51.5 11.5q-131 0 -131 -244q0 -105 36 -160.5t104 -55.5q91 0 146 97z" />
    <glyph glyph-name="Ccaron" unicode="&#x10c;" horiz-adv-x="698" 
d="M413 747h-78l-106 125h9l152 -72l126 72h7zM612 -10l-43 67q-73 -73 -190 -73q-141 0 -241.5 95t-100.5 259t101 260.5t240 96.5q120 0 191 -73l43 67h9v-281h-18q-49 148 -100 209.5t-123 61.5q-92 0 -141 -85.5t-49 -254.5q0 -164 48 -251.5t143 -87.5q73 0 124.5 61.5
t97.5 197.5h18v-269h-9z" />
    <glyph glyph-name="ccaron" unicode="&#x10d;" horiz-adv-x="504" 
d="M302 578h-64l-108 172h8l145 -107l126 107h7zM458 115q-68 -129 -199 -129q-97 0 -165 67t-68 187q0 121 76.5 191.5t182.5 70.5q77 0 123 -35t46 -89q0 -34 -21.5 -57.5t-56.5 -23.5q-32 0 -52 17.5t-20 47.5q0 21 9 35.5t19 21t19 14.5t9 16q0 14 -19.5 25.5
t-51.5 11.5q-131 0 -131 -244q0 -105 36 -160.5t104 -55.5q91 0 146 97z" />
    <glyph glyph-name="Dcaron" unicode="&#x10e;" horiz-adv-x="748" 
d="M419 747h-78l-106 125h9l152 -72l126 72h7zM19 0v16l47 7q40 6 51 19.5t11 49.5v495q0 36 -11 49.5t-51 19.5l-47 7v16h325q76 0 140.5 -19t116.5 -58.5t81 -106.5t29 -156q0 -88 -29.5 -155t-81.5 -106.5t-116 -58.5t-140 -19h-325zM325 18h20q106 0 159.5 77.5
t53.5 243.5q0 167 -54 244.5t-160 77.5h-78v-586q0 -30 14 -43.5t45 -13.5z" />
    <glyph glyph-name="dcaron" unicode="&#x10f;" horiz-adv-x="601" 
d="M556 468l-9 15q74 43 74 103q-12 -23 -41 -23q-22 0 -36.5 15t-14.5 38q0 25 17 42t42 17q29 0 45 -18.5t16 -47.5q0 -90 -93 -141zM262 12q47 0 76.5 48t29.5 148v227q-30 51 -94 51q-116 0 -116 -247q0 -117 24.5 -172t79.5 -55zM383 208q0 -117 -38 -170t-113 -53
q-84 0 -145 66.5t-61 187.5q0 54 15.5 99t40.5 74.5t58 50t66.5 29.5t66.5 9q53 0 95 -18v174q0 32 -13 44.5t-49 16.5l-42 5v12l216 40l17 -7q-7 -50 -7 -124v-565q0 -31 9 -42.5t38 -15.5l32 -6v-15h-173l-13 10v198z" />
    <glyph glyph-name="Dcroat" unicode="&#x110;" horiz-adv-x="748" 
d="M128 353v234q0 36 -11 49.5t-51 19.5l-47 7v16h325q76 0 140.5 -19t116.5 -58.5t81 -106.5t29 -156q0 -88 -29.5 -155t-81.5 -106.5t-116 -58.5t-140 -19h-325v16l47 7q40 6 51 19.5t11 49.5v235h-89v26h89zM325 18h20q106 0 159.5 77.5t53.5 243.5q0 167 -54 244.5
t-160 77.5h-78v-310h153v-22h-153v-254q0 -30 14 -43.5t45 -13.5z" />
    <glyph glyph-name="dcroat" unicode="&#x111;" horiz-adv-x="581" 
d="M490 621h74v-25h-74v-517q0 -31 9 -42.5t38 -15.5l32 -6v-15h-173l-13 10v198q0 -117 -38 -170t-113 -53q-84 0 -145 66.5t-61 187.5q0 54 15.5 99t40.5 74.5t58 50t66.5 29.5t66.5 9q53 0 95 -18v113h-140v25h140v36q0 32 -13 44.5t-49 16.5l-42 5v12l216 40l17 -7
q-7 -50 -7 -124v-23zM262 12q47 0 76.5 48t29.5 148v227q-30 51 -94 51q-116 0 -116 -247q0 -117 24.5 -172t79.5 -55z" />
    <glyph glyph-name="Emacron" unicode="&#x112;" horiz-adv-x="654" 
d="M198 763v39q72 -4 139 -4q70 0 140 4v-39q-70 4 -139 4q-68 0 -140 -4zM613 241l-9 -241h-585v16l47 7q40 6 51 19.5t11 49.5v495q0 36 -11 49.5t-51 19.5l-47 7v16h557l8 -225h-20q-48 120 -87.5 163.5t-107.5 43.5h-103v-302h56q45 0 70 33t53 120h16q-1 -55 -1 -163
q0 -109 1 -163h-16q-30 91 -54 123t-69 32h-56v-266q0 -30 14 -43.5t45 -13.5h48q81 0 124.5 45t95.5 178h20z" />
    <glyph glyph-name="emacron" unicode="&#x113;" horiz-adv-x="495" 
d="M126 651v38q72 -4 139 -4q70 0 140 4v-38q-70 4 -139 4q-68 0 -140 -4zM336 300l2 17q2 41 1.5 78.5t-19 64t-54.5 26.5q-97 0 -107 -198zM458 115q-69 -129 -198 -129q-98 0 -166 67.5t-68 187.5q0 121 71 190.5t168 69.5q89 0 141 -47t52 -132q0 -32 -4 -51l-296 1v-30
q0 -105 36 -160.5t104 -55.5q91 0 146 97z" />
    <glyph glyph-name="Ebreve" unicode="&#x114;" horiz-adv-x="654" 
d="M468 874q-16 -127 -129 -127q-114 0 -130 127h5q22 -55 125 -55q102 0 124 55h5zM613 241l-9 -241h-585v16l47 7q40 6 51 19.5t11 49.5v495q0 36 -11 49.5t-51 19.5l-47 7v16h557l8 -225h-20q-48 120 -87.5 163.5t-107.5 43.5h-103v-302h56q45 0 70 33t53 120h16
q-1 -55 -1 -163q0 -109 1 -163h-16q-30 91 -54 123t-69 32h-56v-266q0 -30 14 -43.5t45 -13.5h48q81 0 124.5 45t95.5 178h20z" />
    <glyph glyph-name="ebreve" unicode="&#x115;" horiz-adv-x="495" 
d="M389 738q-16 -137 -129 -137t-129 137h5q19 -63 124 -63q104 0 125 63h4zM336 300l2 17q2 41 1.5 78.5t-19 64t-54.5 26.5q-97 0 -107 -198zM458 115q-69 -129 -198 -129q-98 0 -166 67.5t-68 187.5q0 121 71 190.5t168 69.5q89 0 141 -47t52 -132q0 -32 -4 -51l-296 1
v-30q0 -105 36 -160.5t104 -55.5q91 0 146 97z" />
    <glyph glyph-name="Edotaccent" unicode="&#x116;" horiz-adv-x="654" 
d="M410 807q0 -25 -17.5 -42.5t-43.5 -17.5q-25 0 -42.5 17.5t-17.5 42.5t17.5 42.5t42.5 17.5t43 -17.5t18 -42.5zM613 241l-9 -241h-585v16l47 7q40 6 51 19.5t11 49.5v495q0 36 -11 49.5t-51 19.5l-47 7v16h557l8 -225h-20q-48 120 -87.5 163.5t-107.5 43.5h-103v-302h56
q45 0 70 33t53 120h16q-1 -55 -1 -163q0 -109 1 -163h-16q-30 91 -54 123t-69 32h-56v-266q0 -30 14 -43.5t45 -13.5h48q81 0 124.5 45t95.5 178h20z" />
    <glyph glyph-name="edotaccent" unicode="&#x117;" horiz-adv-x="495" 
d="M325 672q0 -26 -17.5 -43t-42.5 -17q-26 0 -43.5 17.5t-17.5 42.5t18 42.5t43 17.5t42.5 -17.5t17.5 -42.5zM336 300l2 17q2 41 1.5 78.5t-19 64t-54.5 26.5q-97 0 -107 -198zM458 115q-69 -129 -198 -129q-98 0 -166 67.5t-68 187.5q0 121 71 190.5t168 69.5
q89 0 141 -47t52 -132q0 -32 -4 -51l-296 1v-30q0 -105 36 -160.5t104 -55.5q91 0 146 97z" />
    <glyph glyph-name="Eogonek" unicode="&#x118;" horiz-adv-x="654" 
d="M607 -140q-26 -50 -57 -76t-80 -26t-78 22.5t-29 62.5q0 77 89 125q58 31 118 39q-105 -7 -159 -7h-392v16l47 7q40 6 51 19.5t11 49.5v495q0 36 -11 49.5t-51 19.5l-47 7v16h557l8 -225h-20q-48 120 -87.5 163.5t-107.5 43.5h-103v-302h56q45 0 70 33t53 120h16
q-1 -55 -1 -163q0 -109 1 -163h-16q-30 91 -54 123t-69 32h-56v-266q0 -30 14 -43.5t45 -13.5h48q81 0 124.5 45t95.5 178h20l-9 -241q-70 0 -116 -41t-46 -104q0 -30 15.5 -46.5t41.5 -16.5q28 0 49.5 18t43.5 57z" />
    <glyph glyph-name="eogonek" unicode="&#x119;" horiz-adv-x="495" 
d="M336 300l2 17q2 41 1.5 78.5t-19 64t-54.5 26.5q-97 0 -107 -198zM450 -140q-26 -51 -56.5 -76.5t-79.5 -25.5t-78.5 22.5t-29.5 62.5q0 25 15 49t31 38t50 41q32 24 75 62q-54 -45 -120 -45q-96 0 -163.5 67t-67.5 186q0 121 71 190.5t168 69.5q89 0 141 -47t52 -132
q0 -32 -4 -51l-296 1v-30q0 -105 36 -160.5t104 -55.5q91 0 146 97l14 -8q-22 -40 -49 -69q-12 -13 -41.5 -39.5t-43 -42t-26.5 -44.5t-13 -63q0 -30 15.5 -47.5t41.5 -17.5q28 0 49.5 18t43.5 57z" />
    <glyph glyph-name="Ecaron" unicode="&#x11a;" horiz-adv-x="654" 
d="M381 747h-78l-106 125h9l152 -72l126 72h7zM613 241l-9 -241h-585v16l47 7q40 6 51 19.5t11 49.5v495q0 36 -11 49.5t-51 19.5l-47 7v16h557l8 -225h-20q-48 120 -87.5 163.5t-107.5 43.5h-103v-302h56q45 0 70 33t53 120h16q-1 -55 -1 -163q0 -109 1 -163h-16
q-30 91 -54 123t-69 32h-56v-266q0 -30 14 -43.5t45 -13.5h48q81 0 124.5 45t95.5 178h20z" />
    <glyph glyph-name="ecaron" unicode="&#x11b;" horiz-adv-x="495" 
d="M287 578h-64l-108 172h8l145 -107l126 107h7zM336 300l2 17q2 41 1.5 78.5t-19 64t-54.5 26.5q-97 0 -107 -198zM458 115q-69 -129 -198 -129q-98 0 -166 67.5t-68 187.5q0 121 71 190.5t168 69.5q89 0 141 -47t52 -132q0 -32 -4 -51l-296 1v-30q0 -105 36 -160.5
t104 -55.5q91 0 146 97z" />
    <glyph glyph-name="Gcircumflex" unicode="&#x11c;" horiz-adv-x="732" 
d="M352 819l-126 -72h-7l110 125h78l106 -125h-9zM565 67q-69 -83 -197 -83q-136 0 -233.5 95t-97.5 259q0 110 50 193.5t127 123.5t167 40q119 0 191 -72l43 66h9v-279h-18q-49 147 -100 208t-123 61q-94 0 -143.5 -86t-49.5 -254q0 -339 183 -339q64 0 96.5 38.5
t32.5 102.5v82q0 31 -12 45.5t-48 20.5l-55 8v16q58 -1 168 -1q117 0 176 1v-16l-52 -8q-32 -6 -42.5 -20.5t-10.5 -45.5v-97l5 -139h-9z" />
    <glyph glyph-name="gcircumflex" unicode="&#x11d;" horiz-adv-x="533" 
d="M381 578l-145 107l-126 -107h-6l113 172h64l109 -172h-9zM147 331q0 -154 77 -154t77 154q0 155 -78 155q-76 0 -76 -155zM255 -243q-112 0 -180.5 33t-68.5 95q0 37 21.5 58t55.5 21q23 0 34.5 -10.5t9.5 -29.5q-23 -1 -36.5 -15t-13.5 -37q0 -46 44 -73t133 -27
t140 30.5t51 80.5q0 38 -39.5 52t-137.5 18q-215 10 -215 119q0 97 158 97h6q-82 0 -135 46.5t-53 119.5q0 75 52.5 120.5t136.5 45.5q80 0 134 -43q51 48 110 48q36 0 56.5 -18.5t20.5 -48.5q0 -28 -17 -44t-43 -16q-24 0 -38.5 14t-14.5 36q0 8 2.5 19.5t2.5 15.5
q0 9 -12 9q-22 0 -53 -28q49 -46 49 -119q0 -77 -54.5 -123t-147.5 -46q-95 0 -95 -36q0 -23 34.5 -32t128.5 -13q117 -6 173 -38.5t56 -110.5q0 -83 -70 -126.5t-185 -43.5z" />
    <glyph glyph-name="Gbreve" unicode="&#x11e;" horiz-adv-x="732" 
d="M495 874q-16 -127 -129 -127q-114 0 -130 127h5q22 -55 125 -55q102 0 124 55h5zM622 -13l-57 80q-69 -83 -197 -83q-136 0 -233.5 95t-97.5 259q0 110 50 193.5t127 123.5t167 40q119 0 191 -72l43 66h9v-279h-18q-49 147 -100 208t-123 61q-94 0 -143.5 -86t-49.5 -254
q0 -339 183 -339q64 0 96.5 38.5t32.5 102.5v82q0 31 -12 45.5t-48 20.5l-55 8v16q58 -1 168 -1q117 0 176 1v-16l-52 -8q-32 -6 -42.5 -20.5t-10.5 -45.5v-97l5 -139h-9z" />
    <glyph glyph-name="gbreve" unicode="&#x11f;" horiz-adv-x="533" 
d="M376 738q-16 -137 -129 -137t-129 137h5q19 -63 124 -63q104 0 125 63h4zM147 331q0 -154 77 -154t77 154q0 155 -78 155q-76 0 -76 -155zM255 -243q-112 0 -180.5 33t-68.5 95q0 37 21.5 58t55.5 21q23 0 34.5 -10.5t9.5 -29.5q-23 -1 -36.5 -15t-13.5 -37q0 -46 44 -73
t133 -27t140 30.5t51 80.5q0 38 -39.5 52t-137.5 18q-215 10 -215 119q0 97 158 97h6q-82 0 -135 46.5t-53 119.5q0 75 52.5 120.5t136.5 45.5q80 0 134 -43q51 48 110 48q36 0 56.5 -18.5t20.5 -48.5q0 -28 -17 -44t-43 -16q-24 0 -38.5 14t-14.5 36q0 8 2.5 19.5t2.5 15.5
q0 9 -12 9q-22 0 -53 -28q49 -46 49 -119q0 -77 -54.5 -123t-147.5 -46q-95 0 -95 -36q0 -23 34.5 -32t128.5 -13q117 -6 173 -38.5t56 -110.5q0 -83 -70 -126.5t-185 -43.5z" />
    <glyph glyph-name="Gdotaccent" unicode="&#x120;" horiz-adv-x="732" 
d="M437 807q0 -25 -17.5 -42.5t-43.5 -17.5t-43 17.5t-17 42.5t17.5 42.5t42.5 17.5t43 -17.5t18 -42.5zM565 67q-69 -83 -197 -83q-136 0 -233.5 95t-97.5 259q0 110 50 193.5t127 123.5t167 40q119 0 191 -72l43 66h9v-279h-18q-49 147 -100 208t-123 61q-94 0 -143.5 -86
t-49.5 -254q0 -339 183 -339q64 0 96.5 38.5t32.5 102.5v82q0 31 -12 45.5t-48 20.5l-55 8v16q58 -1 168 -1q117 0 176 1v-16l-52 -8q-32 -6 -42.5 -20.5t-10.5 -45.5v-97l5 -139h-9z" />
    <glyph glyph-name="gdotaccent" unicode="&#x121;" horiz-adv-x="533" 
d="M308 672q0 -26 -17 -43t-43 -17t-43.5 17.5t-17.5 42.5t18 42.5t43 17.5t42.5 -17.5t17.5 -42.5zM147 331q0 -154 77 -154t77 154q0 155 -78 155q-76 0 -76 -155zM255 -243q-112 0 -180.5 33t-68.5 95q0 37 21.5 58t55.5 21q23 0 34.5 -10.5t9.5 -29.5q-23 -1 -36.5 -15
t-13.5 -37q0 -46 44 -73t133 -27t140 30.5t51 80.5q0 38 -39.5 52t-137.5 18q-215 10 -215 119q0 97 158 97h6q-82 0 -135 46.5t-53 119.5q0 75 52.5 120.5t136.5 45.5q80 0 134 -43q51 48 110 48q36 0 56.5 -18.5t20.5 -48.5q0 -28 -17 -44t-43 -16q-24 0 -38.5 14
t-14.5 36q0 8 2.5 19.5t2.5 15.5q0 9 -12 9q-22 0 -53 -28q49 -46 49 -119q0 -77 -54.5 -123t-147.5 -46q-95 0 -95 -36q0 -23 34.5 -32t128.5 -13q117 -6 173 -38.5t56 -110.5q0 -83 -70 -126.5t-185 -43.5z" />
    <glyph glyph-name="Gcommaaccent" unicode="&#x122;" horiz-adv-x="732" 
d="M622 -13l-57 80q-69 -83 -197 -83q-136 0 -233.5 95t-97.5 259q0 110 50 193.5t127 123.5t167 40q119 0 191 -72l43 66h9v-279h-18q-49 147 -100 208t-123 61q-94 0 -143.5 -86t-49.5 -254q0 -339 183 -339q64 0 96.5 38.5t32.5 102.5v82q0 31 -12 45.5t-48 20.5l-55 8
v16q58 -1 168 -1q117 0 176 1v-16l-52 -8q-32 -6 -42.5 -20.5t-10.5 -45.5v-97l5 -139h-9zM332 -259l-9 15q75 43 75 103q-12 -23 -41 -23q-23 0 -37.5 15t-14.5 38q0 25 16.5 42t43.5 17q28 0 44.5 -18.5t16.5 -47.5q0 -91 -94 -141z" />
    <glyph glyph-name="gcommaaccent" unicode="&#x123;" horiz-adv-x="533" 
d="M280 778l9 -15q-75 -43 -75 -103q12 23 41 23q23 0 37.5 -15t14.5 -38q0 -25 -17 -42t-43 -17q-29 0 -45.5 18.5t-16.5 47.5q0 90 95 141zM224 177q77 0 77 154q0 155 -78 155q-76 0 -76 -155q0 -154 77 -154zM255 -243q-112 0 -180.5 33t-68.5 95q0 37 21.5 58t55.5 21
q23 0 34.5 -10.5t9.5 -29.5q-23 -1 -36.5 -15t-13.5 -37q0 -46 44 -73t133 -27t140 30.5t51 80.5q0 38 -39.5 52t-137.5 18q-215 10 -215 119q0 97 158 97h6q-82 0 -135 46.5t-53 119.5q0 75 52.5 120.5t136.5 45.5q80 0 134 -43q51 48 110 48q36 0 56.5 -18.5t20.5 -48.5
q0 -28 -17 -44t-43 -16q-24 0 -38.5 14t-14.5 36q0 8 2.5 19.5t2.5 15.5q0 9 -12 9q-22 0 -53 -28q49 -46 49 -119q0 -77 -54.5 -123t-147.5 -46q-95 0 -95 -36q0 -23 34.5 -32t128.5 -13q117 -6 173 -38.5t56 -110.5q0 -83 -70 -126.5t-185 -43.5z" />
    <glyph glyph-name="Hcircumflex" unicode="&#x124;" horiz-adv-x="819" 
d="M548 747l-152 72l-126 -72h-7l110 125h78l106 -125h-9zM800 0q-30 0 -88 0.5t-89 0.5q-30 0 -87.5 -0.5t-88.5 -0.5v16l46 7q39 6 49.5 19.5t10.5 49.5v245h-287v-245q0 -35 11 -48.5t49 -20.5l46 -7v-16q-30 0 -88 0.5t-88 0.5q-31 0 -89 -0.5t-88 -0.5v16l47 7
q40 6 51 19.5t11 49.5v495q0 36 -11 49.5t-51 19.5l-47 7v16q30 0 88 -0.5t89 -0.5q30 0 88 0.5t88 0.5v-16l-46 -7q-38 -7 -49 -20.5t-11 -48.5v-229h287v228q0 36 -10.5 50t-49.5 20l-46 7v16q31 0 88.5 -0.5t87.5 -0.5q31 0 89 0.5t88 0.5v-16l-47 -7q-40 -6 -51 -19.5
t-11 -49.5v-495q0 -36 11 -49.5t51 -19.5l47 -7v-16z" />
    <glyph glyph-name="hcircumflex" unicode="&#x125;" horiz-adv-x="617" 
d="M152 869l-126 -72h-7l110 125h78l106 -125h-9zM608 0q-24 0 -68 0.5t-69 0.5q-24 0 -68.5 -0.5t-69.5 -0.5v15l32 6q27 4 35 15t8 42v276q0 60 -16.5 85t-55.5 25q-48 0 -82 -59t-34 -159v-168q0 -31 8 -42t36 -15l31 -6v-15q-24 0 -68.5 0.5t-68.5 0.5t-69 -0.5
t-69 -0.5v15l33 6q29 4 37.5 15.5t8.5 42.5v583q0 31 -10 41.5t-43 14.5l-41 5v12l206 40l17 -7q-8 -59 -8 -124v-79q0 -60 -7 -157.5t-7 -161.5q0 119 44.5 187t127.5 68q70 0 110.5 -39.5t40.5 -117.5v-265q0 -31 9 -42.5t38 -15.5l32 -6v-15z" />
    <glyph glyph-name="Hbar" unicode="&#x126;" horiz-adv-x="819" 
d="M553 358v130h-287v-130h287zM800 16v-16q-30 0 -88 0.5t-89 0.5q-30 0 -87.5 -0.5t-88.5 -0.5v16l46 7q39 6 49.5 19.5t10.5 49.5v245h-287v-245q0 -35 11 -48.5t49 -20.5l46 -7v-16q-30 0 -88 0.5t-88 0.5q-31 0 -89 -0.5t-88 -0.5v16l47 7q40 6 51 19.5t11 49.5v395
h-89v26h89v74q0 36 -11 49.5t-51 19.5l-47 7v16q30 0 88 -0.5t89 -0.5q30 0 88 0.5t88 0.5v-16l-46 -7q-38 -7 -49 -20.5t-11 -48.5v-76h287v75q0 36 -10.5 50t-49.5 20l-46 7v16q31 0 88.5 -0.5t87.5 -0.5q31 0 89 0.5t88 0.5v-16l-47 -7q-40 -6 -51 -19.5t-11 -49.5v-74
h88v-26h-88v-395q0 -36 11 -49.5t51 -19.5z" />
    <glyph glyph-name="hbar" unicode="&#x127;" horiz-adv-x="617" 
d="M99 621v41q0 31 -10 41.5t-43 14.5l-41 5v12l206 40l17 -7q-8 -59 -8 -124v-23h141v-25h-141v-31q0 -60 -7 -157.5t-7 -161.5q0 119 44.5 187t127.5 68q70 0 110.5 -39.5t40.5 -117.5v-265q0 -31 9 -42.5t38 -15.5l32 -6v-15q-24 0 -68 0.5t-69 0.5q-24 0 -68.5 -0.5
t-69.5 -0.5v15l32 6q27 4 35 15t8 42v276q0 60 -16.5 85t-55.5 25q-48 0 -82 -59t-34 -159v-168q0 -31 8 -42t36 -15l31 -6v-15q-24 0 -68.5 0.5t-68.5 0.5t-69 -0.5t-69 -0.5v15l33 6q29 4 37.5 15.5t8.5 42.5v517h-74v25h74z" />
    <glyph glyph-name="Itilde" unicode="&#x128;" horiz-adv-x="394" 
d="M94 750l-4 -2q-17 24 -17 56q0 29 19 48.5t50 19.5t77.5 -29.5t64.5 -29.5q19 0 29 10t14 36h4q0 -111 -75 -111q-28 0 -74 29.5t-63 29.5q-29 0 -29 -30q0 -15 4 -27zM375 16v-16q-31 0 -89 0.5t-89 0.5t-89 -0.5t-89 -0.5v16l47 7q40 6 51 19.5t11 49.5v495
q0 36 -11 49.5t-51 19.5l-47 7v16q31 0 89 -0.5t89 -0.5t89 0.5t89 0.5v-16l-47 -7q-39 -6 -50 -19.5t-11 -49.5v-495q0 -36 11 -49.5t50 -19.5z" />
    <glyph glyph-name="itilde" unicode="&#x129;" horiz-adv-x="311" 
d="M45 612l-3 -2q-17 24 -17 56q0 29 18.5 48.5t50.5 19.5q31 0 77.5 -29.5t64.5 -29.5q19 0 29 10t14 36h4q0 -111 -75 -111q-28 0 -74 29.5t-63 29.5q-29 0 -29 -30q0 -13 3 -27zM21 0v15l33 6q29 4 37.5 15.5t8.5 42.5v300q0 36 -12 48t-49 14l-32 3v14l201 41l20 -6
q-6 -48 -6 -120v-295q0 -30 8.5 -41.5t37.5 -15.5l32 -6v-15q-24 0 -69 0.5t-70 0.5q-24 0 -69.5 -0.5t-70.5 -0.5z" />
    <glyph glyph-name="Imacron" unicode="&#x12a;" horiz-adv-x="394" 
d="M58 763v39q72 -4 139 -4q70 0 140 4v-39q-70 4 -139 4q-68 0 -140 -4zM375 16v-16q-31 0 -89 0.5t-89 0.5t-89 -0.5t-89 -0.5v16l47 7q40 6 51 19.5t11 49.5v495q0 36 -11 49.5t-51 19.5l-47 7v16q31 0 89 -0.5t89 -0.5t89 0.5t89 0.5v-16l-47 -7q-39 -6 -50 -19.5
t-11 -49.5v-495q0 -36 11 -49.5t50 -19.5z" />
    <glyph glyph-name="imacron" unicode="&#x12b;" horiz-adv-x="311" 
d="M9 651v38q72 -4 139 -4q70 0 140 4v-38q-70 4 -139 4q-68 0 -140 -4zM21 0v15l33 6q29 4 37.5 15.5t8.5 42.5v300q0 36 -12 48t-49 14l-32 3v14l201 41l20 -6q-6 -48 -6 -120v-295q0 -30 8.5 -41.5t37.5 -15.5l32 -6v-15q-24 0 -69 0.5t-70 0.5q-24 0 -69.5 -0.5
t-70.5 -0.5z" />
    <glyph glyph-name="Ibreve" unicode="&#x12c;" horiz-adv-x="394" 
d="M329 874q-16 -127 -129 -127q-114 0 -130 127h5q22 -55 125 -55q102 0 124 55h5zM375 16v-16q-31 0 -89 0.5t-89 0.5t-89 -0.5t-89 -0.5v16l47 7q40 6 51 19.5t11 49.5v495q0 36 -11 49.5t-51 19.5l-47 7v16q31 0 89 -0.5t89 -0.5t89 0.5t89 0.5v-16l-47 -7
q-39 -6 -50 -19.5t-11 -49.5v-495q0 -36 11 -49.5t50 -19.5z" />
    <glyph glyph-name="ibreve" unicode="&#x12d;" horiz-adv-x="311" 
d="M277 738q-16 -137 -129 -137t-129 137h5q19 -63 124 -63q104 0 125 63h4zM21 0v15l33 6q29 4 37.5 15.5t8.5 42.5v300q0 36 -12 48t-49 14l-32 3v14l201 41l20 -6q-6 -48 -6 -120v-295q0 -30 8.5 -41.5t37.5 -15.5l32 -6v-15q-24 0 -69 0.5t-70 0.5q-24 0 -69.5 -0.5
t-70.5 -0.5z" />
    <glyph glyph-name="Iogonek" unicode="&#x12e;" horiz-adv-x="394" 
d="M241 -242q-49 0 -78 22.5t-29 62.5q0 77 89 125q56 30 114 38q-73 -5 -147 -5q-31 0 -85.5 -0.5t-85.5 -0.5v16l47 7q40 6 51 19.5t11 49.5v495q0 36 -11 49.5t-51 19.5l-47 7v16q31 0 89 -0.5t89 -0.5t89 0.5t89 0.5v-16l-47 -7q-39 -6 -50 -19.5t-11 -49.5v-495
q0 -36 11 -49.5t50 -19.5l47 -7v-16q-70 -1 -116 -41.5t-46 -103.5q0 -30 15.5 -46.5t41.5 -16.5q28 0 49.5 18t43.5 57l15 -7q-26 -50 -57 -76t-80 -26z" />
    <glyph glyph-name="iogonek" unicode="&#x12f;" horiz-adv-x="311" 
d="M232 674q0 -36 -23 -57t-60 -21q-34 0 -57.5 21.5t-23.5 56.5q0 36 23 57t58 21q37 0 60 -21t23 -57zM169 -242q-49 0 -78 22.5t-29 62.5q0 78 89 125q61 34 121 40q-7 0 -48 -3.5t-66 -3.5q-23 0 -67.5 -0.5t-69.5 -0.5v15l33 6q29 4 37.5 15.5t8.5 42.5v300
q0 36 -12 48t-49 14l-32 3v14l201 41l20 -6q-6 -48 -6 -120v-295q0 -30 8.5 -41.5t37.5 -15.5l32 -6v-15q-69 0 -114.5 -41t-45.5 -104q0 -30 15.5 -46.5t42.5 -16.5t48.5 18t44.5 57l14 -7q-26 -51 -56.5 -76.5t-79.5 -25.5z" />
    <glyph glyph-name="Idotaccent" unicode="&#x130;" horiz-adv-x="394" 
d="M259 807q0 -25 -17.5 -42.5t-43.5 -17.5t-43 17.5t-17 42.5t17.5 42.5t42.5 17.5t43 -17.5t18 -42.5zM375 16v-16q-31 0 -89 0.5t-89 0.5t-89 -0.5t-89 -0.5v16l47 7q40 6 51 19.5t11 49.5v495q0 36 -11 49.5t-51 19.5l-47 7v16q31 0 89 -0.5t89 -0.5t89 0.5t89 0.5v-16
l-47 -7q-39 -6 -50 -19.5t-11 -49.5v-495q0 -36 11 -49.5t50 -19.5z" />
    <glyph glyph-name="dotlessi" unicode="&#x131;" horiz-adv-x="311" 
d="M21 0v15l33 6q29 4 37.5 15.5t8.5 42.5v300q0 36 -12 48t-49 14l-32 3v14l201 41l20 -6q-6 -48 -6 -120v-295q0 -30 8.5 -41.5t37.5 -15.5l32 -6v-15q-24 0 -69 0.5t-70 0.5q-24 0 -69.5 -0.5t-70.5 -0.5z" />
    <glyph glyph-name="Jcircumflex" unicode="&#x134;" horiz-adv-x="545" 
d="M341 819l-126 -72h-7l110 125h78l106 -125h-9zM172 -15q-78 0 -127 38.5t-49 102.5q0 42 24.5 69.5t63.5 27.5q33 0 53.5 -20t20.5 -52t-17.5 -50t-46.5 -21q-22 -3 -22 -20q0 -22 26.5 -40.5t68.5 -18.5q129 0 129 175v405q0 37 -13.5 53t-54.5 22l-48 7v16
q31 0 89.5 -0.5t89.5 -0.5t89.5 0.5t90.5 0.5v-16l-48 -7q-39 -6 -50 -19.5t-11 -49.5v-334q0 -129 -75 -198.5t-183 -69.5z" />
    <glyph glyph-name="jcircumflex" unicode="&#x135;" horiz-adv-x="335" 
d="M161 685l-126 -107h-6l113 172h64l109 -172h-9zM251 -24q0 -58 -18.5 -102.5t-49.5 -69t-66 -36.5t-73 -12q-65 0 -100.5 27.5t-35.5 69.5q0 35 21.5 57t55.5 22q32 0 51 -18t19 -47q0 -24 -11 -38.5t-22 -22.5t-11 -16q0 -19 37 -19q83 0 83 152v454q0 36 -14 49t-52 15
l-34 3v14l207 41l19 -6q-6 -60 -6 -120v-397z" />
    <glyph glyph-name="Kcommaaccent" unicode="&#x136;" horiz-adv-x="774" 
d="M780 16v-16q-30 0 -88 0.5t-88 0.5t-91 -0.5t-92 -0.5v16l30 5q45 7 45 28q0 16 -34 56l-194 236l195 194q60 60 60 85q0 14 -11 22t-40 14l-37 7v16q51 -1 152 -1q104 0 155 1v-16l-31 -6q-66 -13 -116.5 -42t-117.5 -95l-102 -98l247 -297q50 -58 73.5 -76.5
t60.5 -27.5zM372 16v-16q-31 0 -88.5 0.5t-88.5 0.5t-88 -0.5t-88 -0.5v16l47 7q40 6 51 19.5t11 49.5v495q0 36 -11 49.5t-51 19.5l-47 7v16q31 0 89 -0.5t89 -0.5t89 0.5t89 0.5v-16l-47 -7q-40 -6 -51 -19.5t-11 -49.5v-495q0 -35 11 -49t48 -20zM358 -259l-9 15
q75 43 75 103q-12 -23 -41 -23q-23 0 -37.5 15t-14.5 38q0 25 16.5 42t43.5 17q28 0 44.5 -18.5t16.5 -47.5q0 -91 -94 -141z" />
    <glyph glyph-name="kcommaaccent" unicode="&#x137;" 
d="M599 0q-24 0 -68.5 0.5t-68.5 0.5q-23 0 -69 -0.5t-70 -0.5v15l17 3q31 5 31 20q0 11 -21 39l-129 170v-169q0 -31 8 -42t36 -16l28 -5v-15q-23 0 -65.5 0.5t-67.5 0.5q-24 0 -69.5 -0.5t-70.5 -0.5v15l33 6q29 4 37.5 15.5t8.5 42.5v582q0 31 -10 42t-43 15l-41 5v12
l206 40l17 -7q-7 -52 -7 -124v-395l125 124q36 36 36 58q0 26 -52 35l-29 4v17q47 -1 136 -1q91 0 138 1v-16l-30 -5q-101 -21 -180 -98l-54 -51l173 -218q36 -45 53 -59.5t41 -19.5l21 -5v-15zM257 -259l-9 15q75 43 75 103q-12 -23 -41 -23q-23 0 -37.5 15t-14.5 38
q0 25 17 42t43 17q29 0 45.5 -18.5t16.5 -47.5q0 -90 -95 -141z" />
    <glyph glyph-name="Lacute" unicode="&#x139;" horiz-adv-x="649" 
d="M151 747h-7q54 67 80 125h120v-3q-26 -30 -83 -65.5t-110 -56.5zM607 0h-588v16l47 7q40 6 51 19.5t11 49.5v495q0 36 -11 49.5t-51 19.5l-47 7v16q31 0 89.5 -0.5t89.5 -0.5q32 0 90.5 0.5t89.5 0.5v-16l-49 -7q-40 -6 -51.5 -20t-11.5 -51v-510q0 -30 14 -43.5
t45 -13.5h57q69 0 116.5 52.5t97.5 191.5h18z" />
    <glyph glyph-name="lacute" unicode="&#x13a;" horiz-adv-x="312" 
d="M86 797h-7q54 67 80 125h120v-3q-26 -30 -83 -65.5t-110 -56.5zM302 0q-24 0 -69 0.5t-70 0.5q-24 0 -69.5 -0.5t-70.5 -0.5v15l33 6q29 4 37.5 15.5t8.5 42.5v582q0 31 -10 42t-43 15l-41 5v12l206 40l17 -7q-8 -59 -8 -124v-565q0 -31 9 -42.5t38 -15.5l32 -6v-15z" />
    <glyph glyph-name="Lcommaaccent" unicode="&#x13b;" horiz-adv-x="649" 
d="M607 0h-588v16l47 7q40 6 51 19.5t11 49.5v495q0 36 -11 49.5t-51 19.5l-47 7v16q31 0 89.5 -0.5t89.5 -0.5q32 0 90.5 0.5t89.5 0.5v-16l-49 -7q-40 -6 -51.5 -20t-11.5 -51v-510q0 -30 14 -43.5t45 -13.5h57q69 0 116.5 52.5t97.5 191.5h18zM305 -259l-9 15
q75 43 75 103q-12 -23 -41 -23q-23 0 -37.5 15t-14.5 38q0 25 16.5 42t43.5 17q28 0 44.5 -18.5t16.5 -47.5q0 -91 -94 -141z" />
    <glyph glyph-name="lcommaaccent" unicode="&#x13c;" horiz-adv-x="312" 
d="M20 0v15l33 6q29 4 37.5 15.5t8.5 42.5v582q0 31 -10 42t-43 15l-41 5v12l206 40l17 -7q-8 -59 -8 -124v-565q0 -31 9 -42.5t38 -15.5l32 -6v-15q-24 0 -69 0.5t-70 0.5q-24 0 -69.5 -0.5t-70.5 -0.5zM122 -259l-9 15q75 43 75 103q-12 -23 -41 -23q-23 0 -37.5 15
t-14.5 38q0 25 17 42t43 17q29 0 45.5 -18.5t16.5 -47.5q0 -90 -95 -141z" />
    <glyph glyph-name="Ldot" unicode="&#x13f;" horiz-adv-x="649" 
d="M607 0h-588v16l47 7q40 6 51 19.5t11 49.5v495q0 36 -11 49.5t-51 19.5l-47 7v16q31 0 89.5 -0.5t89.5 -0.5q32 0 90.5 0.5t89.5 0.5v-16l-49 -7q-40 -6 -51.5 -20t-11.5 -51v-510q0 -30 14 -43.5t45 -13.5h57q69 0 116.5 52.5t97.5 191.5h18zM580 384q0 -25 -17.5 -42.5
t-43.5 -17.5q-25 0 -42.5 17t-17.5 43q0 25 17.5 42.5t42.5 17.5t43 -17.5t18 -42.5z" />
    <glyph glyph-name="ldot" unicode="&#x140;" horiz-adv-x="325" 
d="M20 0v15l33 6q29 4 37.5 15.5t8.5 42.5v582q0 31 -10 42t-43 15l-41 5v12l206 40l17 -7q-8 -59 -8 -124v-565q0 -31 9 -42.5t38 -15.5l32 -6v-15q-24 0 -69 0.5t-70 0.5q-24 0 -69.5 -0.5t-70.5 -0.5zM322 337q-26 0 -43.5 17.5t-17.5 42.5t18 42.5t43 17.5t42 -17.5
t17 -42.5t-17 -42.5t-42 -17.5z" />
    <glyph glyph-name="Lslash" unicode="&#x141;" horiz-adv-x="649" 
d="M607 0h-588v16l47 7q40 6 51 19.5t11 49.5v179l-109 -63v31l109 63v285q0 36 -11 49.5t-51 19.5l-47 7v16q31 0 89.5 -0.5t89.5 -0.5q32 0 90.5 0.5t89.5 0.5v-16l-49 -7q-40 -6 -51.5 -20t-11.5 -51v-211l195 117v-31l-195 -117v-268q0 -30 14 -43.5t45 -13.5h57
q69 0 116.5 52.5t97.5 191.5h18z" />
    <glyph glyph-name="lslash" unicode="&#x142;" horiz-adv-x="312" 
d="M299 0q-24 0 -69 0.5t-70 0.5q-24 0 -69.5 -0.5t-70.5 -0.5v15l33 6q29 4 37.5 15.5t8.5 42.5v271l-100 -59v30l100 59v281q0 31 -10 42t-43 15l-41 5v12l206 40l17 -7q-8 -59 -8 -124v-196l94 55v-30l-94 -56v-338q0 -31 9 -42.5t38 -15.5l32 -6v-15z" />
    <glyph glyph-name="Nacute" unicode="&#x143;" horiz-adv-x="749" 
d="M362 747h-7q54 67 80 125h120v-3q-26 -30 -83 -65.5t-110 -56.5zM625 -2h-89l-384 593v-447q0 -62 15.5 -87t57.5 -34l37 -7v-16q-22 0 -61 0.5t-61 0.5t-61 -0.5t-60 -0.5v16l36 7q42 10 57.5 34.5t15.5 86.5v441q0 35 -12 50t-50 21l-47 7v16h244l338 -518v374
q0 62 -15.5 87t-57.5 34l-36 7v16q22 0 61 -0.5t60 -0.5q22 0 61 0.5t60 0.5v-16l-36 -7q-42 -10 -57.5 -34.5t-15.5 -86.5v-537z" />
    <glyph glyph-name="nacute" unicode="&#x144;" horiz-adv-x="617" 
d="M278 578h-6q60 105 79 172h101v-3q-50 -94 -174 -169zM608 0q-24 0 -68 0.5t-69 0.5q-24 0 -69 -0.5t-69 -0.5v15l31 6q27 4 35 15t8 42v275q0 60 -16.5 85.5t-54.5 25.5q-49 0 -82.5 -59t-33.5 -159v-168q0 -31 8 -42t35 -15l32 -6v-15q-25 0 -69 0.5t-69 0.5
q-24 0 -68.5 -0.5t-68.5 -0.5v15l32 6q29 4 38 15.5t9 42.5v300q0 35 -12.5 47t-48.5 15l-33 2v14l188 41l19 -7q-6 -101 -6 -245q0 118 43.5 186.5t127.5 68.5q70 0 111 -40t41 -118v-264q0 -31 8.5 -42.5t37.5 -15.5l33 -6v-15z" />
    <glyph glyph-name="Ncommaaccent" unicode="&#x145;" horiz-adv-x="749" 
d="M625 -2h-89l-384 593v-447q0 -62 15.5 -87t57.5 -34l37 -7v-16q-22 0 -61 0.5t-61 0.5t-61 -0.5t-60 -0.5v16l36 7q42 10 57.5 34.5t15.5 86.5v441q0 35 -12 50t-50 21l-47 7v16h244l338 -518v374q0 62 -15.5 87t-57.5 34l-36 7v16q22 0 61 -0.5t60 -0.5q22 0 61 0.5
t60 0.5v-16l-36 -7q-42 -10 -57.5 -34.5t-15.5 -86.5v-537zM329 -260l-9 15q75 43 75 103q-12 -23 -41 -23q-23 0 -37.5 15t-14.5 38q0 25 16.5 42t43.5 17q28 0 44.5 -18.5t16.5 -47.5q0 -91 -94 -141z" />
    <glyph glyph-name="ncommaaccent" unicode="&#x146;" horiz-adv-x="617" 
d="M608 0q-24 0 -68 0.5t-69 0.5q-24 0 -69 -0.5t-69 -0.5v15l31 6q27 4 35 15t8 42v275q0 60 -16.5 85.5t-54.5 25.5q-49 0 -82.5 -59t-33.5 -159v-168q0 -31 8 -42t35 -15l32 -6v-15q-25 0 -69 0.5t-69 0.5q-24 0 -68.5 -0.5t-68.5 -0.5v15l32 6q29 4 38 15.5t9 42.5v300
q0 35 -12.5 47t-48.5 15l-33 2v14l188 41l19 -7q-6 -101 -6 -245q0 118 43.5 186.5t127.5 68.5q70 0 111 -40t41 -118v-264q0 -31 8.5 -42.5t37.5 -15.5l33 -6v-15zM273 -259l-9 15q75 43 75 103q-12 -23 -41 -23q-23 0 -37.5 15t-14.5 38q0 25 17 42t43 17q29 0 45.5 -18.5
t16.5 -47.5q0 -90 -95 -141z" />
    <glyph glyph-name="Ncaron" unicode="&#x147;" horiz-adv-x="749" 
d="M432 747h-78l-106 125h9l152 -72l126 72h7zM625 -2h-89l-384 593v-447q0 -62 15.5 -87t57.5 -34l37 -7v-16q-22 0 -61 0.5t-61 0.5t-61 -0.5t-60 -0.5v16l36 7q42 10 57.5 34.5t15.5 86.5v441q0 35 -12 50t-50 21l-47 7v16h244l338 -518v374q0 62 -15.5 87t-57.5 34
l-36 7v16q22 0 61 -0.5t60 -0.5q22 0 61 0.5t60 0.5v-16l-36 -7q-42 -10 -57.5 -34.5t-15.5 -86.5v-537z" />
    <glyph glyph-name="ncaron" unicode="&#x148;" horiz-adv-x="617" 
d="M355 578h-64l-108 172h8l145 -107l126 107h7zM608 0q-24 0 -68 0.5t-69 0.5q-24 0 -69 -0.5t-69 -0.5v15l31 6q27 4 35 15t8 42v275q0 60 -16.5 85.5t-54.5 25.5q-49 0 -82.5 -59t-33.5 -159v-168q0 -31 8 -42t35 -15l32 -6v-15q-25 0 -69 0.5t-69 0.5q-24 0 -68.5 -0.5
t-68.5 -0.5v15l32 6q29 4 38 15.5t9 42.5v300q0 35 -12.5 47t-48.5 15l-33 2v14l188 41l19 -7q-6 -101 -6 -245q0 118 43.5 186.5t127.5 68.5q70 0 111 -40t41 -118v-264q0 -31 8.5 -42.5t37.5 -15.5l33 -6v-15z" />
    <glyph glyph-name="Omacron" unicode="&#x14c;" horiz-adv-x="756" 
d="M238 763v39q72 -4 139 -4q70 0 140 4v-39q-70 4 -139 4q-68 0 -140 -4zM719 339q0 -160 -99.5 -257.5t-241.5 -97.5t-241.5 97.5t-99.5 257.5q0 162 99.5 259t241.5 97t241.5 -97t99.5 -259zM378 0q51 0 88.5 26t59 73.5t31.5 107t10 132.5q0 100 -17.5 173.5t-61 120
t-110.5 46.5q-68 0 -111.5 -47t-60.5 -120t-17 -173q0 -154 45 -246.5t144 -92.5z" />
    <glyph glyph-name="omacron" unicode="&#x14d;" horiz-adv-x="530" 
d="M128 651v38q72 -4 139 -4q70 0 140 4v-38q-70 4 -139 4q-68 0 -140 -4zM265 -15q-100 0 -169.5 70t-69.5 188t69.5 188t169.5 70q101 0 170 -70t69 -188t-69 -188t-170 -70zM265 1q60 0 84 62t24 180t-24 180.5t-84 62.5q-41 0 -65.5 -31.5t-33.5 -83t-9 -128.5t9 -128
t33.5 -82.5t65.5 -31.5z" />
    <glyph glyph-name="Obreve" unicode="&#x14e;" horiz-adv-x="756" 
d="M509 874q-16 -127 -129 -127q-114 0 -130 127h5q22 -55 125 -55q102 0 124 55h5zM719 339q0 -160 -99.5 -257.5t-241.5 -97.5t-241.5 97.5t-99.5 257.5q0 162 99.5 259t241.5 97t241.5 -97t99.5 -259zM189 339q0 -154 45 -246.5t144 -92.5q51 0 88.5 26t59 73.5t31.5 107
t10 132.5q0 100 -17.5 173.5t-61 120t-110.5 46.5q-68 0 -111.5 -47t-60.5 -120t-17 -173z" />
    <glyph glyph-name="obreve" unicode="&#x14f;" horiz-adv-x="530" 
d="M394 738q-16 -137 -129 -137t-129 137h5q19 -63 124 -63q104 0 125 63h4zM504 243q0 -118 -69 -188t-170 -70q-100 0 -169.5 70t-69.5 188t69.5 188t169.5 70q101 0 170 -70t69 -188zM157 243q0 -77 9 -128t33.5 -82.5t65.5 -31.5q60 0 84 62t24 180t-24 180.5t-84 62.5
q-41 0 -65.5 -31.5t-33.5 -83t-9 -128.5z" />
    <glyph glyph-name="Ohungarumlaut" unicode="&#x150;" horiz-adv-x="756" 
d="M253 747h-7q54 67 80 125h120v-3q-26 -31 -82.5 -66t-110.5 -56zM420 746h-7q54 67 80 125h120v-3q-26 -30 -83 -65.5t-110 -56.5zM378 -16q-142 0 -241.5 97.5t-99.5 257.5q0 162 99.5 259t241.5 97t241.5 -97t99.5 -259q0 -160 -99.5 -257.5t-241.5 -97.5zM378 0
q51 0 88.5 26t59 73.5t31.5 107t10 132.5q0 100 -17.5 173.5t-61 120t-110.5 46.5q-68 0 -111.5 -47t-60.5 -120t-17 -173q0 -154 45 -246.5t144 -92.5z" />
    <glyph glyph-name="ohungarumlaut" unicode="&#x151;" horiz-adv-x="530" 
d="M316 578h-6q61 106 78 172h102v-3q-50 -94 -174 -169zM155 578h-6q60 105 79 172h102v-3q-51 -95 -175 -169zM265 -15q-100 0 -169.5 70t-69.5 188t69.5 188t169.5 70q101 0 170 -70t69 -188t-69 -188t-170 -70zM265 1q60 0 84 62t24 180t-24 180.5t-84 62.5
q-41 0 -65.5 -31.5t-33.5 -83t-9 -128.5t9 -128t33.5 -82.5t65.5 -31.5z" />
    <glyph glyph-name="OE" unicode="&#x152;" horiz-adv-x="1039" 
d="M189 339q0 -154 45 -247t144 -93q135 0 135 157v367q0 156 -135 156q-68 0 -111.5 -47t-60.5 -120t-17 -173zM485 0q-48 -17 -107 -17q-142 0 -241.5 97.5t-99.5 258.5t99.5 259t241.5 98q55 0 106 -17h477l9 -225h-20q-48 120 -87.5 163.5t-108.5 43.5h-102v-302h55
q45 0 70 32.5t54 120.5h16q-1 -55 -1 -163q0 -109 1 -163h-16q-31 92 -54.5 123.5t-69.5 31.5h-55v-266q0 -57 58 -57h49q81 0 124 45t95 178h20l-8 -241h-505z" />
    <glyph glyph-name="oe" unicode="&#x153;" horiz-adv-x="842" 
d="M157 243q0 -77 9 -128t33.5 -82.5t65.5 -31.5q60 0 84 62t24 180t-24 180.5t-84 62.5q-41 0 -65.5 -31.5t-33.5 -83t-9 -128.5zM683 300l1 16q2 41 2 79t-18.5 64.5t-54.5 26.5q-97 0 -107 -198zM805 116q-67 -130 -198 -130q-109 0 -169 89q-64 -90 -173 -90
q-100 0 -169.5 70t-69.5 188t69.5 188t169.5 70q111 0 174 -91q31 45 76.5 68.5t96.5 23.5q89 0 141.5 -47.5t52.5 -132.5q0 -23 -4 -51l-297 1v-29q0 -105 36.5 -160.5t104.5 -55.5q90 0 145 96z" />
    <glyph glyph-name="Racute" unicode="&#x154;" horiz-adv-x="715" 
d="M316 747h-7q54 67 80 125h120v-3q-26 -30 -83 -65.5t-110 -56.5zM722 0h-147q-49 0 -67 12.5t-36 53.5l-121 256q-7 -1 -18 -1q-31 0 -67 2v-231q0 -36 11 -49.5t51 -19.5l47 -7v-16q-31 0 -89 0.5t-89 0.5t-89 -0.5t-89 -0.5v16l47 7q40 6 51 19.5t11 49.5v495
q0 36 -11 49.5t-51 19.5l-47 7v16h314q293 0 293 -177q0 -66 -46.5 -106t-115.5 -54q29 -20 58 -76l85 -162q22 -42 38 -58.5t46 -22.5l31 -7v-16zM266 662v-321q25 -1 67 -1q73 0 110.5 37.5t37.5 121.5q0 91 -37 127t-116 36h-62z" />
    <glyph glyph-name="racute" unicode="&#x155;" horiz-adv-x="456" 
d="M229 578h-6q60 105 79 172h101v-3q-50 -94 -174 -169zM306 0q-24 0 -73 0.5t-74 0.5t-69.5 -0.5t-69.5 -0.5v15l32 6q29 4 38 15.5t9 42.5v300q0 35 -12.5 47t-48.5 15l-33 2v14l188 41l19 -7q-7 -94 -7 -301q0 75 10 141q27 173 142 173q41 0 64.5 -22.5t23.5 -59.5
t-22 -58.5t-55 -21.5q-29 0 -46 15t-19 41q-1 5 -1 14v12q0 12 -10 12q-18 0 -35.5 -28.5t-27.5 -80.5q-11 -61 -11 -137v-108q0 -32 10.5 -44t40.5 -17l37 -6v-15z" />
    <glyph glyph-name="Rcommaaccent" unicode="&#x156;" horiz-adv-x="715" 
d="M722 0h-147q-49 0 -67 12.5t-36 53.5l-121 256q-7 -1 -18 -1q-31 0 -67 2v-231q0 -36 11 -49.5t51 -19.5l47 -7v-16q-31 0 -89 0.5t-89 0.5t-89 -0.5t-89 -0.5v16l47 7q40 6 51 19.5t11 49.5v495q0 36 -11 49.5t-51 19.5l-47 7v16h314q293 0 293 -177q0 -66 -46.5 -106
t-115.5 -54q29 -20 58 -76l85 -162q22 -42 38 -58.5t46 -22.5l31 -7v-16zM266 662v-321q25 -1 67 -1q73 0 110.5 37.5t37.5 121.5q0 91 -37 127t-116 36h-62zM347 -259l-9 15q75 43 75 103q-12 -23 -41 -23q-23 0 -37.5 15t-14.5 38q0 25 16.5 42t43.5 17q28 0 44.5 -18.5
t16.5 -47.5q0 -91 -94 -141z" />
    <glyph glyph-name="rcommaaccent" unicode="&#x157;" horiz-adv-x="456" 
d="M306 0q-24 0 -73 0.5t-74 0.5t-69.5 -0.5t-69.5 -0.5v15l32 6q29 4 38 15.5t9 42.5v300q0 35 -12.5 47t-48.5 15l-33 2v14l188 41l19 -7q-7 -94 -7 -301q0 75 10 141q27 173 142 173q41 0 64.5 -22.5t23.5 -59.5t-22 -58.5t-55 -21.5q-29 0 -46 15t-19 41q-1 5 -1 14v12
q0 12 -10 12q-18 0 -35.5 -28.5t-27.5 -80.5q-11 -61 -11 -137v-108q0 -32 10.5 -44t40.5 -17l37 -6v-15zM121 -259l-9 15q75 43 75 103q-12 -23 -41 -23q-23 0 -37.5 15t-14.5 38q0 25 17 42t43 17q29 0 45.5 -18.5t16.5 -47.5q0 -90 -95 -141z" />
    <glyph glyph-name="Rcaron" unicode="&#x158;" horiz-adv-x="715" 
d="M404 747h-78l-106 125h9l152 -72l126 72h7zM722 0h-147q-49 0 -67 12.5t-36 53.5l-121 256q-7 -1 -18 -1q-31 0 -67 2v-231q0 -36 11 -49.5t51 -19.5l47 -7v-16q-31 0 -89 0.5t-89 0.5t-89 -0.5t-89 -0.5v16l47 7q40 6 51 19.5t11 49.5v495q0 36 -11 49.5t-51 19.5l-47 7
v16h314q293 0 293 -177q0 -66 -46.5 -106t-115.5 -54q29 -20 58 -76l85 -162q22 -42 38 -58.5t46 -22.5l31 -7v-16zM266 662v-321q25 -1 67 -1q73 0 110.5 37.5t37.5 121.5q0 91 -37 127t-116 36h-62z" />
    <glyph glyph-name="rcaron" unicode="&#x159;" horiz-adv-x="456" 
d="M277 578h-64l-108 172h8l145 -107l126 107h7zM306 0q-24 0 -73 0.5t-74 0.5t-69.5 -0.5t-69.5 -0.5v15l32 6q29 4 38 15.5t9 42.5v300q0 35 -12.5 47t-48.5 15l-33 2v14l188 41l19 -7q-7 -94 -7 -301q0 75 10 141q27 173 142 173q41 0 64.5 -22.5t23.5 -59.5t-22 -58.5
t-55 -21.5q-29 0 -46 15t-19 41q-1 5 -1 14v12q0 12 -10 12q-18 0 -35.5 -28.5t-27.5 -80.5q-11 -61 -11 -137v-108q0 -32 10.5 -44t40.5 -17l37 -6v-15z" />
    <glyph glyph-name="Sacute" unicode="&#x15a;" horiz-adv-x="588" 
d="M248 747h-7q54 67 80 125h120v-3q-26 -30 -83 -65.5t-110 -56.5zM536 190q0 -98 -68 -152t-162 -54q-127 0 -193 67l-37 -62h-10v279h20q37 -145 89.5 -206.5t130.5 -61.5q62 0 97.5 33.5t35.5 92.5t-41.5 91.5t-126.5 62.5q-100 35 -150 87.5t-50 128.5q0 90 65 144.5
t159 54.5q104 0 165 -64l34 59h10v-263h-19q-37 134 -79 193t-112 59q-62 0 -94 -33.5t-32 -83.5q0 -57 42.5 -91t130.5 -65q96 -36 145.5 -82.5t49.5 -133.5z" />
    <glyph glyph-name="sacute" unicode="&#x15b;" horiz-adv-x="442" 
d="M197 578h-6q60 105 79 172h101v-3q-50 -94 -174 -169zM405 140q0 -72 -51 -113.5t-130 -41.5q-94 0 -146 47l-30 -46h-8v208h18q30 -102 70.5 -147.5t94.5 -45.5q43 0 69.5 20.5t26.5 60.5q0 39 -28.5 62.5t-100.5 49.5q-66 24 -104 60t-38 100t49.5 105.5t126.5 41.5
q76 0 121 -42l27 41h8v-185h-18q-27 88 -60 129.5t-78 41.5q-44 0 -66.5 -21.5t-22.5 -54.5q0 -38 27.5 -60t99.5 -49q143 -50 143 -161z" />
    <glyph glyph-name="Scircumflex" unicode="&#x15c;" horiz-adv-x="588" 
d="M290 819l-126 -72h-7l110 125h78l106 -125h-9zM536 190q0 -98 -68 -152t-162 -54q-127 0 -193 67l-37 -62h-10v279h20q37 -145 89.5 -206.5t130.5 -61.5q62 0 97.5 33.5t35.5 92.5t-41.5 91.5t-126.5 62.5q-100 35 -150 87.5t-50 128.5q0 90 65 144.5t159 54.5
q104 0 165 -64l34 59h10v-263h-19q-37 134 -79 193t-112 59q-62 0 -94 -33.5t-32 -83.5q0 -57 42.5 -91t130.5 -65q96 -36 145.5 -82.5t49.5 -133.5z" />
    <glyph glyph-name="scircumflex" unicode="&#x15d;" horiz-adv-x="436" 
d="M216 685l-126 -107h-6l113 172h64l109 -172h-9zM224 -15q-94 0 -146 47l-30 -46h-8v208h18q30 -102 70.5 -147.5t94.5 -45.5q43 0 69.5 20.5t26.5 60.5q0 39 -28.5 62.5t-100.5 49.5q-66 24 -104 60t-38 100t49.5 105.5t126.5 41.5q76 0 121 -42l27 41h8v-185h-18
q-27 88 -60 129.5t-78 41.5q-44 0 -66.5 -21.5t-22.5 -54.5q0 -38 27.5 -60t99.5 -49q143 -50 143 -161q0 -72 -51 -113.5t-130 -41.5z" />
    <glyph glyph-name="Scedilla" unicode="&#x15e;" horiz-adv-x="588" 
d="M254 -244q-53 0 -98 28l9 12q30 -15 61 -15q30 0 47.5 19.5t17.5 55.5q0 58 -44 58q-16 0 -34 -8l-11 7l24 79q-71 15 -113 59l-37 -62h-10v279h20q37 -145 89.5 -206.5t130.5 -61.5q62 0 97.5 33.5t35.5 92.5t-41.5 91.5t-126.5 62.5q-100 35 -150 87.5t-50 128.5
q0 90 65 144.5t159 54.5q104 0 165 -64l34 59h10v-263h-19q-37 134 -79 193t-112 59q-62 0 -94 -33.5t-32 -83.5q0 -57 42.5 -91t130.5 -65q96 -36 145.5 -82.5t49.5 -133.5q0 -98 -68 -152t-162 -54q-31 0 -64 5l-14 -65q32 10 56 10q40 0 67 -21t27 -61q0 -45 -37 -70.5
t-87 -25.5z" />
    <glyph glyph-name="scedilla" unicode="&#x15f;" horiz-adv-x="442" 
d="M186 -244q-53 0 -98 28l9 12q30 -15 61 -15q30 0 47.5 19.5t17.5 55.5q0 58 -44 58q-16 0 -34 -8l-11 7l24 79q-49 12 -80 40l-30 -46h-8v208h18q30 -102 70.5 -147.5t94.5 -45.5q43 0 69.5 20.5t26.5 60.5q0 39 -28.5 62.5t-100.5 49.5q-66 24 -104 60t-38 100
t49.5 105.5t126.5 41.5q76 0 121 -42l27 41h8v-185h-18q-27 88 -60 129.5t-78 41.5q-44 0 -66.5 -21.5t-22.5 -54.5q0 -38 27.5 -60t99.5 -49q143 -50 143 -161q0 -72 -51 -113.5t-130 -41.5q-29 0 -50 4l-14 -65q32 10 56 10q40 0 67 -21t27 -61q0 -45 -37 -70.5t-87 -25.5
z" />
    <glyph glyph-name="Scaron" unicode="&#x160;" horiz-adv-x="588" 
d="M346 747h-78l-106 125h9l152 -72l126 72h7zM536 190q0 -98 -68 -152t-162 -54q-127 0 -193 67l-37 -62h-10v279h20q37 -145 89.5 -206.5t130.5 -61.5q62 0 97.5 33.5t35.5 92.5t-41.5 91.5t-126.5 62.5q-100 35 -150 87.5t-50 128.5q0 90 65 144.5t159 54.5
q104 0 165 -64l34 59h10v-263h-19q-37 134 -79 193t-112 59q-62 0 -94 -33.5t-32 -83.5q0 -57 42.5 -91t130.5 -65q96 -36 145.5 -82.5t49.5 -133.5z" />
    <glyph glyph-name="scaron" unicode="&#x161;" horiz-adv-x="442" 
d="M258 578h-64l-108 172h8l145 -107l126 107h7zM405 140q0 -72 -51 -113.5t-130 -41.5q-94 0 -146 47l-30 -46h-8v208h18q30 -102 70.5 -147.5t94.5 -45.5q43 0 69.5 20.5t26.5 60.5q0 39 -28.5 62.5t-100.5 49.5q-66 24 -104 60t-38 100t49.5 105.5t126.5 41.5
q76 0 121 -42l27 41h8v-185h-18q-27 88 -60 129.5t-78 41.5q-44 0 -66.5 -21.5t-22.5 -54.5q0 -38 27.5 -60t99.5 -49q143 -50 143 -161z" />
    <glyph glyph-name="Tcommaaccent" unicode="&#x162;" horiz-adv-x="679" 
d="M521 16v-16q-31 0 -90.5 0.5t-90.5 0.5q-32 0 -92 -0.5t-91 -0.5v16l48 7q41 6 53 20.5t12 50.5v567h-50q-57 0 -93.5 -45t-86.5 -175h-16l5 238h621l5 -238h-16q-50 130 -86.5 175t-93.5 45h-50v-567q0 -36 12 -50.5t53 -20.5zM306 -259l-9 15q75 43 75 103
q-12 -23 -41 -23q-23 0 -37.5 15t-14.5 38q0 25 16.5 42t43.5 17q28 0 44.5 -18.5t16.5 -47.5q0 -91 -94 -141z" />
    <glyph glyph-name="tcommaaccent" unicode="&#x163;" horiz-adv-x="386" 
d="M363 128q-15 -75 -47.5 -108t-96.5 -33q-61 0 -96.5 32.5t-35.5 97.5v329l-94 15v17l72 11q32 5 48.5 21.5t24.5 53.5l16 75h59l-5 -152h156v-28l-156 -7v-343q0 -47 14 -65t43 -18q56 0 81 105zM173 -259l-9 15q75 43 75 103q-12 -23 -41 -23q-23 0 -37.5 15t-14.5 38
q0 25 17 42t43 17q29 0 45.5 -18.5t16.5 -47.5q0 -90 -95 -141z" />
    <glyph glyph-name="Tcaron" unicode="&#x164;" horiz-adv-x="679" 
d="M378 747h-78l-106 125h9l152 -72l126 72h7zM521 16v-16q-31 0 -90.5 0.5t-90.5 0.5q-32 0 -92 -0.5t-91 -0.5v16l48 7q41 6 53 20.5t12 50.5v567h-50q-57 0 -93.5 -45t-86.5 -175h-16l5 238h621l5 -238h-16q-50 130 -86.5 175t-93.5 45h-50v-567q0 -36 12 -50.5t53 -20.5
z" />
    <glyph glyph-name="tcaron" unicode="&#x165;" horiz-adv-x="386" 
d="M301 549l-9 15q75 43 75 103q-12 -23 -41 -23q-23 0 -37.5 15t-14.5 38q0 25 17 42t43 17q29 0 45.5 -18.5t16.5 -47.5q0 -90 -95 -141zM219 -13q-61 0 -96.5 32.5t-35.5 97.5v329l-94 15v17l72 11q32 5 48.5 21.5t24.5 53.5l16 75h59l-5 -152h156v-28l-156 -7v-343
q0 -47 14 -65t43 -18q56 0 81 105l17 -3q-15 -75 -47.5 -108t-96.5 -33z" />
    <glyph glyph-name="Tbar" unicode="&#x166;" horiz-adv-x="679" 
d="M521 16v-16q-31 0 -90.5 0.5t-90.5 0.5q-32 0 -92 -0.5t-91 -0.5v16l48 7q41 6 53 20.5t12 50.5v229h-121v29h121v309h-50q-57 0 -93.5 -45t-86.5 -175h-16l5 238h621l5 -238h-16q-50 130 -86.5 175t-93.5 45h-50v-309h120v-29h-120v-229q0 -36 12 -50.5t53 -20.5z" />
    <glyph glyph-name="tbar" unicode="&#x167;" horiz-adv-x="386" 
d="M87 283v163l-94 15v17l72 11q32 5 48.5 21.5t24.5 53.5l16 75h59l-5 -152h156v-28l-156 -7v-169h130v-23h-130v-151q0 -47 14 -65t43 -18q56 0 81 105l17 -3q-15 -75 -47.5 -108t-96.5 -33q-61 0 -96.5 32.5t-35.5 97.5v143h-71v23h71z" />
    <glyph glyph-name="Utilde" unicode="&#x168;" horiz-adv-x="765" 
d="M297 749l-4 -2q-17 24 -17 56q0 29 19 48.5t50 19.5t77.5 -29.5t64.5 -29.5q19 0 29 10t14 36h4q0 -111 -75 -111q-28 0 -74 29.5t-63 29.5q-29 0 -29 -30q0 -15 4 -27zM388 -15q-133 0 -200.5 60t-67.5 196v346q0 36 -11 49.5t-50 19.5l-48 7v16q31 0 89.5 -0.5
t89.5 -0.5t89 0.5t89 0.5v-16l-48 -7q-39 -6 -50 -19.5t-11 -49.5v-349q0 -114 45 -163t133 -49q187 0 187 215v294q0 62 -15 87t-57 34l-37 7v16q21 0 60 -0.5t61 -0.5t61 0.5t61 0.5v-16l-37 -7q-41 -10 -56.5 -34.5t-15.5 -86.5v-294q0 -256 -261 -256z" />
    <glyph glyph-name="utilde" unicode="&#x169;" horiz-adv-x="571" 
d="M156 612l-3 -2q-17 24 -17 56q0 29 18.5 48.5t50.5 19.5q31 0 77.5 -29.5t64.5 -29.5q19 0 29 10t14 36h4q0 -111 -75 -111q-28 0 -74 29.5t-63 29.5q-29 0 -29 -30q0 -13 3 -27zM376 207q0 -222 -161 -222q-67 0 -107 39.5t-40 116.5v266q0 30 -7.5 42.5t-33.5 16.5
l-38 6v15h204l-4 -84v-274q0 -60 18 -84t53 -24q43 0 72 48t29 138v200q0 30 -7.5 42.5t-32.5 16.5l-39 6v15h205l-4 -89v-319q0 -30 7.5 -42t33.5 -16l38 -6v-15h-173l-13 10v197z" />
    <glyph glyph-name="Umacron" unicode="&#x16a;" horiz-adv-x="765" 
d="M264 763v39q72 -4 139 -4q70 0 140 4v-39q-70 4 -139 4q-68 0 -140 -4zM388 -15q-133 0 -200.5 60t-67.5 196v346q0 36 -11 49.5t-50 19.5l-48 7v16q31 0 89.5 -0.5t89.5 -0.5t89 0.5t89 0.5v-16l-48 -7q-39 -6 -50 -19.5t-11 -49.5v-349q0 -114 45 -163t133 -49
q187 0 187 215v294q0 62 -15 87t-57 34l-37 7v16q21 0 60 -0.5t61 -0.5t61 0.5t61 0.5v-16l-37 -7q-41 -10 -56.5 -34.5t-15.5 -86.5v-294q0 -256 -261 -256z" />
    <glyph glyph-name="umacron" unicode="&#x16b;" horiz-adv-x="571" 
d="M128 651v38q72 -4 139 -4q70 0 140 4v-38q-70 4 -139 4q-68 0 -140 -4zM376 207q0 -222 -161 -222q-67 0 -107 39.5t-40 116.5v266q0 30 -7.5 42.5t-33.5 16.5l-38 6v15h204l-4 -84v-274q0 -60 18 -84t53 -24q43 0 72 48t29 138v200q0 30 -7.5 42.5t-32.5 16.5l-39 6v15
h205l-4 -89v-319q0 -30 7.5 -42t33.5 -16l38 -6v-15h-173l-13 10v197z" />
    <glyph glyph-name="Ubreve" unicode="&#x16c;" horiz-adv-x="765" 
d="M537 874q-16 -127 -129 -127q-114 0 -130 127h5q22 -55 125 -55q102 0 124 55h5zM388 -15q-133 0 -200.5 60t-67.5 196v346q0 36 -11 49.5t-50 19.5l-48 7v16q31 0 89.5 -0.5t89.5 -0.5t89 0.5t89 0.5v-16l-48 -7q-39 -6 -50 -19.5t-11 -49.5v-349q0 -114 45 -163
t133 -49q187 0 187 215v294q0 62 -15 87t-57 34l-37 7v16q21 0 60 -0.5t61 -0.5t61 0.5t61 0.5v-16l-37 -7q-41 -10 -56.5 -34.5t-15.5 -86.5v-294q0 -256 -261 -256z" />
    <glyph glyph-name="ubreve" unicode="&#x16d;" horiz-adv-x="571" 
d="M399 738q-16 -137 -129 -137t-129 137h5q19 -63 124 -63q104 0 125 63h4zM376 207q0 -222 -161 -222q-67 0 -107 39.5t-40 116.5v266q0 30 -7.5 42.5t-33.5 16.5l-38 6v15h204l-4 -84v-274q0 -60 18 -84t53 -24q43 0 72 48t29 138v200q0 30 -7.5 42.5t-32.5 16.5l-39 6
v15h205l-4 -89v-319q0 -30 7.5 -42t33.5 -16l38 -6v-15h-173l-13 10v197z" />
    <glyph glyph-name="Uring" unicode="&#x16e;" horiz-adv-x="765" 
d="M506 822q0 -40 -28 -67t-71 -28q-43 0 -71 27.5t-28 67.5t28 67t71 27t71 -27t28 -67zM407 741q33 0 50.5 23.5t17.5 57.5t-17.5 57t-50.5 23t-50.5 -23t-17.5 -57t17.5 -57.5t50.5 -23.5zM388 -15q-133 0 -200.5 60t-67.5 196v346q0 36 -11 49.5t-50 19.5l-48 7v16
q31 0 89.5 -0.5t89.5 -0.5t89 0.5t89 0.5v-16l-48 -7q-39 -6 -50 -19.5t-11 -49.5v-349q0 -114 45 -163t133 -49q187 0 187 215v294q0 62 -15 87t-57 34l-37 7v16q21 0 60 -0.5t61 -0.5t61 0.5t61 0.5v-16l-37 -7q-41 -10 -56.5 -34.5t-15.5 -86.5v-294q0 -256 -261 -256z
" />
    <glyph glyph-name="uring" unicode="&#x16f;" horiz-adv-x="571" 
d="M366 654q0 -41 -28 -67.5t-72 -27.5q-43 0 -71 27t-28 68q0 40 28 67t71 27q44 0 72 -27t28 -67zM266 574q33 0 51 23t18 57t-18 56.5t-51 22.5t-50.5 -22.5t-17.5 -56.5t17.5 -57t50.5 -23zM376 207q0 -222 -161 -222q-67 0 -107 39.5t-40 116.5v266q0 30 -7.5 42.5
t-33.5 16.5l-38 6v15h204l-4 -84v-274q0 -60 18 -84t53 -24q43 0 72 48t29 138v200q0 30 -7.5 42.5t-32.5 16.5l-39 6v15h205l-4 -89v-319q0 -30 7.5 -42t33.5 -16l38 -6v-15h-173l-13 10v197z" />
    <glyph glyph-name="Uhungarumlaut" unicode="&#x170;" horiz-adv-x="765" 
d="M290 747h-7q54 67 80 125h120v-3q-26 -31 -82.5 -66t-110.5 -56zM457 746h-7q54 67 80 125h120v-3q-26 -30 -83 -65.5t-110 -56.5zM388 -15q-133 0 -200.5 60t-67.5 196v346q0 36 -11 49.5t-50 19.5l-48 7v16q31 0 89.5 -0.5t89.5 -0.5t89 0.5t89 0.5v-16l-48 -7
q-39 -6 -50 -19.5t-11 -49.5v-349q0 -114 45 -163t133 -49q187 0 187 215v294q0 62 -15 87t-57 34l-37 7v16q21 0 60 -0.5t61 -0.5t61 0.5t61 0.5v-16l-37 -7q-41 -10 -56.5 -34.5t-15.5 -86.5v-294q0 -256 -261 -256z" />
    <glyph glyph-name="uhungarumlaut" unicode="&#x171;" horiz-adv-x="571" 
d="M317 578h-6q61 106 78 172h102v-3q-50 -94 -174 -169zM156 578h-6q60 105 79 172h102v-3q-51 -95 -175 -169zM376 207q0 -222 -161 -222q-67 0 -107 39.5t-40 116.5v266q0 30 -7.5 42.5t-33.5 16.5l-38 6v15h204l-4 -84v-274q0 -60 18 -84t53 -24q43 0 72 48t29 138v200
q0 30 -7.5 42.5t-32.5 16.5l-39 6v15h205l-4 -89v-319q0 -30 7.5 -42t33.5 -16l38 -6v-15h-173l-13 10v197z" />
    <glyph glyph-name="Uogonek" unicode="&#x172;" horiz-adv-x="765" 
d="M487 -242q-49 0 -78 22.5t-29 62.5q0 37 22 63.5t70 64.5q44 35 77 64q-62 -49 -162 -49q-131 0 -199 60t-68 195v346q0 36 -11 49.5t-50 19.5l-48 7v16q31 0 89.5 -0.5t89.5 -0.5t89 0.5t89 0.5v-16l-48 -7q-39 -6 -50 -19.5t-11 -49.5v-349q0 -114 45 -163t133 -49
q187 0 187 215v294q0 62 -15 87t-57 34l-37 7v16q21 0 60 -0.5t61 -0.5t61 0.5t61 0.5v-16l-37 -7q-41 -10 -56.5 -34.5t-15.5 -86.5v-294q0 -126 -67 -193q-10 -9 -34 -31t-35 -34t-26.5 -33t-22 -44t-6.5 -51q0 -29 16 -46t42 -17q27 0 48.5 18t44.5 57l14 -7
q-25 -50 -56 -76t-80 -26z" />
    <glyph glyph-name="uogonek" unicode="&#x173;" horiz-adv-x="571" 
d="M429 -242q-49 0 -78 22.5t-29 62.5q0 77 89 125q54 29 111 38q-111 -6 -120 -6h-13l-13 10v197q0 -222 -161 -222q-67 0 -107 39.5t-40 116.5v266q0 30 -7.5 42.5t-33.5 16.5l-38 6v15h204l-4 -84v-274q0 -60 18 -84t53 -24q43 0 72 48t29 138v200q0 30 -7.5 42.5
t-32.5 16.5l-39 6v15h205l-4 -89v-319q0 -30 7.5 -42t33.5 -16l38 -6v-15q-69 0 -115 -41t-46 -104q0 -30 15.5 -46.5t41.5 -16.5q27 0 48.5 18t44.5 57l15 -7q-26 -50 -57 -76t-80 -26z" />
    <glyph glyph-name="Wcircumflex" unicode="&#x174;" horiz-adv-x="1038" 
d="M542 819l-126 -72h-7l110 125h78l106 -125h-9zM400 141l-38 -145h-66l-180 554q-19 59 -37.5 81t-51.5 27l-33 5v16q60 -1 182 -1q120 0 181 1v-16l-51 -7q-70 -9 -47 -85l123 -415l149 526h67l167 -526l104 345q20 55 16.5 87.5t-19 45.5t-52.5 21l-41 8v16
q46 -1 136 -1q91 0 135 1v-15l-31 -8q-45 -11 -71.5 -45t-51.5 -116l-108 -356l-40 -143h-66l-170 517z" />
    <glyph glyph-name="wcircumflex" unicode="&#x175;" horiz-adv-x="760" 
d="M387 685l-126 -107h-6l113 172h64l109 -172h-9zM372 340l-100 -344h-51l-134 393q-14 42 -29 58.5t-39 20.5l-26 4v15q48 -1 144 -1q95 0 143 1v-15l-33 -5q-30 -4 -36 -25.5t6 -58.5l75 -250l103 357h53l110 -358l67 208q14 46 14 74q0 43 -59 52l-29 5v16q37 -1 109 -1
t108 1v-15l-26 -6q-34 -8 -54.5 -35.5t-44.5 -98.5l-110 -336h-51z" />
    <glyph glyph-name="Ycircumflex" unicode="&#x176;" horiz-adv-x="719" 
d="M365 819l-126 -72h-7l110 125h78l106 -125h-9zM538 16v-16q-31 0 -90.5 0.5t-90.5 0.5t-91 -0.5t-92 -0.5v16l48 7q41 6 53 20.5t12 50.5v172l-169 311q-23 42 -42 59t-47 22l-34 5v16q61 -1 184 -1q121 0 182 1v-16l-52 -7q-67 -9 -31 -81l139 -268l107 198
q37 68 37 103q0 37 -60 48l-38 7v16q44 -1 131 -1q88 0 132 1v-15l-29 -7q-39 -10 -71.5 -42.5t-80.5 -117.5l-119 -214v-189q0 -36 12 -50.5t53 -20.5z" />
    <glyph glyph-name="ycircumflex" unicode="&#x177;" horiz-adv-x="538" 
d="M267 685l-126 -107h-6l113 172h64l109 -172h-9zM296 14q-41 -107 -75.5 -164t-62.5 -74.5t-68 -17.5q-44 0 -70 24t-26 63q0 33 21 55t57 22q30 0 47 -16t19 -41q1 -20 -9.5 -36t-10.5 -21q1 -10 13 -10q61 0 127 180l6 15l-173 395q-19 43 -32.5 59t-36.5 20l-28 5v15
q49 -1 144 -1q91 0 140 1v-15l-33 -4q-29 -4 -33.5 -25.5t10.5 -56.5l101 -255l80 217q17 47 17 72q0 20 -12.5 30.5t-41.5 15.5l-30 5v16q35 -1 105 -1q69 0 105 1v-15l-21 -5q-38 -9 -58 -34t-46 -92z" />
    <glyph glyph-name="Ydieresis" unicode="&#x178;" horiz-adv-x="719" 
d="M563 807q0 -25 -17.5 -42.5t-42.5 -17.5q-26 0 -43.5 17t-17.5 43q0 25 17.5 42.5t43.5 17.5q25 0 42.5 -17.5t17.5 -42.5zM355 807q0 -26 -17.5 -43t-43.5 -17t-43 17.5t-17 42.5t17.5 42.5t42.5 17.5q26 0 43.5 -17.5t17.5 -42.5zM538 16v-16q-31 0 -90.5 0.5
t-90.5 0.5t-91 -0.5t-92 -0.5v16l48 7q41 6 53 20.5t12 50.5v172l-169 311q-23 42 -42 59t-47 22l-34 5v16q61 -1 184 -1q121 0 182 1v-16l-52 -7q-67 -9 -31 -81l139 -268l107 198q37 68 37 103q0 37 -60 48l-38 7v16q44 -1 131 -1q88 0 132 1v-15l-29 -7
q-39 -10 -71.5 -42.5t-80.5 -117.5l-119 -214v-189q0 -36 12 -50.5t53 -20.5z" />
    <glyph glyph-name="Zacute" unicode="&#x179;" horiz-adv-x="648" 
d="M292 747h-7q54 67 80 125h120v-3q-26 -30 -83 -65.5t-110 -56.5zM596 0h-561v18l405 643h-150q-77 0 -122.5 -44.5t-94.5 -175.5h-19l7 238h542v-18l-404 -643h158q79 0 128.5 48t98.5 185h20z" />
    <glyph glyph-name="zacute" unicode="&#x17a;" horiz-adv-x="494" 
d="M208 578h-6q60 105 79 172h101v-3q-50 -94 -174 -169zM448 0h-415v18l279 450h-82q-60 0 -95.5 -38.5t-70.5 -148.5h-16l6 206h397v-19l-278 -450h88q67 0 99.5 36.5t77.5 155.5h16z" />
    <glyph glyph-name="Zdotaccent" unicode="&#x17b;" horiz-adv-x="648" 
d="M397 807q0 -25 -17.5 -42.5t-43.5 -17.5t-43 17.5t-17 42.5t17.5 42.5t42.5 17.5t43 -17.5t18 -42.5zM596 0h-561v18l405 643h-150q-77 0 -122.5 -44.5t-94.5 -175.5h-19l7 238h542v-18l-404 -643h158q79 0 128.5 48t98.5 185h20z" />
    <glyph glyph-name="zdotaccent" unicode="&#x17c;" horiz-adv-x="494" 
d="M312 672q0 -26 -17 -43t-43 -17t-43.5 17.5t-17.5 42.5t18 42.5t43 17.5t42.5 -17.5t17.5 -42.5zM33 0v18l279 450h-82q-60 0 -95.5 -38.5t-70.5 -148.5h-16l6 206h397v-19l-278 -450h88q67 0 99.5 36.5t77.5 155.5h16l-6 -210h-415z" />
    <glyph glyph-name="Zcaron" unicode="&#x17d;" horiz-adv-x="648" 
d="M371 747h-78l-106 125h9l152 -72l126 72h7zM596 0h-561v18l405 643h-150q-77 0 -122.5 -44.5t-94.5 -175.5h-19l7 238h542v-18l-404 -643h158q79 0 128.5 48t98.5 185h20z" />
    <glyph glyph-name="zcaron" unicode="&#x17e;" horiz-adv-x="494" 
d="M285 578h-64l-108 172h8l145 -107l126 107h7zM33 0v18l279 450h-82q-60 0 -95.5 -38.5t-70.5 -148.5h-16l6 206h397v-19l-278 -450h88q67 0 99.5 36.5t77.5 155.5h16l-6 -210h-415z" />
    <glyph glyph-name="florin" unicode="&#x192;" horiz-adv-x="462" 
d="M29 -244q-66 0 -100.5 28t-34.5 71q0 34 20.5 55.5t53.5 21.5q31 0 49.5 -18t18.5 -46q0 -18 -7.5 -31.5t-16 -19.5t-16 -13t-7.5 -13q0 -20 40 -20q41 0 61 34.5t20 117.5v29.5v72.5t-0.5 94t-0.5 104.5v94.5l-97 15v17l97 13v55q0 119 60 175.5t149 56.5
q71 0 109.5 -31t38.5 -76q0 -35 -21 -57t-55 -22q-30 0 -49.5 18.5t-19.5 46.5q0 20 8 34t18 20t18 13t8 14q0 24 -53 24q-47 0 -68.5 -34t-21.5 -108q0 -21 0.5 -68t0.5 -66h129v-27l-129 -6v-334q0 -121 -60 -178t-142 -57z" />
    <glyph glyph-name="Gcaron" unicode="&#x1e6;" horiz-adv-x="732" 
d="M414 747h-78l-106 125h9l152 -72l126 72h7zM622 -13l-57 80q-69 -83 -197 -83q-136 0 -233.5 95t-97.5 259q0 110 50 193.5t127 123.5t167 40q119 0 191 -72l43 66h9v-279h-18q-49 147 -100 208t-123 61q-94 0 -143.5 -86t-49.5 -254q0 -339 183 -339q64 0 96.5 38.5
t32.5 102.5v82q0 31 -12 45.5t-48 20.5l-55 8v16q58 -1 168 -1q117 0 176 1v-16l-52 -8q-32 -6 -42.5 -20.5t-10.5 -45.5v-97l5 -139h-9z" />
    <glyph glyph-name="gcaron" unicode="&#x1e7;" horiz-adv-x="533" 
d="M273 578h-64l-108 172h8l145 -107l126 107h7zM147 331q0 -154 77 -154t77 154q0 155 -78 155q-76 0 -76 -155zM255 -243q-112 0 -180.5 33t-68.5 95q0 37 21.5 58t55.5 21q23 0 34.5 -10.5t9.5 -29.5q-23 -1 -36.5 -15t-13.5 -37q0 -46 44 -73t133 -27t140 30.5t51 80.5
q0 38 -39.5 52t-137.5 18q-215 10 -215 119q0 97 158 97h6q-82 0 -135 46.5t-53 119.5q0 75 52.5 120.5t136.5 45.5q80 0 134 -43q51 48 110 48q36 0 56.5 -18.5t20.5 -48.5q0 -28 -17 -44t-43 -16q-24 0 -38.5 14t-14.5 36q0 8 2.5 19.5t2.5 15.5q0 9 -12 9q-22 0 -53 -28
q49 -46 49 -119q0 -77 -54.5 -123t-147.5 -46q-95 0 -95 -36q0 -23 34.5 -32t128.5 -13q117 -6 173 -38.5t56 -110.5q0 -83 -70 -126.5t-185 -43.5z" />
    <glyph glyph-name="Aringacute" unicode="&#x1fa;" horiz-adv-x="720" 
d="M297 922h-7q54 59 80 111h120v-3q-26 -27 -83 -58t-110 -50zM459 810q0 -38 -26.5 -63.5t-67.5 -26.5q-41 0 -67.5 26t-26.5 64q0 37 26.5 63t67.5 26t67.5 -26t26.5 -63zM365 733q31 0 48 22t17 55q0 32 -17 54t-48 22t-48 -22t-17 -54q0 -33 17 -55t48 -22zM725 0
q-29 0 -84.5 0.5t-85.5 0.5t-86 -0.5t-86 -0.5v16l51 7q37 5 43.5 25.5t-9.5 59.5l-39 107h-248l-15 -39q-29 -76 -22.5 -107.5t58.5 -43.5l47 -9v-16q-22 0 -62.5 0.5t-62.5 0.5t-64.5 -0.5t-64.5 -0.5v15l32 9q39 11 63 42.5t56 116.5l141 372l44 128h69l210 -552
q25 -65 40 -85.5t44 -24.5l31 -5v-16zM307 549l-118 -313h232z" />
    <glyph glyph-name="aringacute" unicode="&#x1fb;" horiz-adv-x="524" 
d="M176 762h-7q53 64 80 122h120v-3q-26 -29 -82.5 -63t-110.5 -56zM333 641q0 -38 -26.5 -63.5t-68.5 -26.5q-41 0 -67.5 25.5t-26.5 64.5t26.5 64.5t67.5 25.5q42 0 68.5 -25.5t26.5 -64.5zM238 565q31 0 48 22t17 54t-17 53.5t-48 21.5t-48 -21.5t-17 -53.5
q0 -33 17 -54.5t48 -21.5zM225 23q38 0 62.5 28t24.5 83v114q-84 -13 -121 -42t-37 -96q0 -41 18.5 -64t52.5 -23zM327 94q-13 -51 -54.5 -80t-101.5 -29q-68 0 -104.5 31t-36.5 84q0 40 22.5 70t64.5 48t88.5 28t107.5 16v101q0 68 -17.5 95t-67.5 27q-37 0 -59.5 -13.5
t-22.5 -30.5q0 -13 12.5 -23t25 -23.5t12.5 -36.5q0 -29 -19.5 -46t-50.5 -17q-33 0 -52.5 21.5t-19.5 57.5q0 54 50.5 90t128.5 36q95 0 146 -41.5t51 -124.5q0 -6 -0.5 -131t-0.5 -128q0 -52 33 -52q20 0 31 23t14 82h16q-2 -77 -24.5 -108.5t-73.5 -31.5q-46 0 -69.5 24
t-28.5 82z" />
    <glyph glyph-name="AEacute" unicode="&#x1fc;" horiz-adv-x="988" 
d="M453 747h-7q54 67 80 125h120v-3q-26 -30 -83 -65.5t-110 -56.5zM462 275v382l-212 -382h212zM947 241l-9 -241h-593v16l58 9q35 5 47 19.5t12 46.5v163h-224l-68 -123q-31 -56 -24.5 -78.5t56.5 -30.5l43 -6v-16q-22 0 -65.5 0.5t-65.5 0.5t-66 -0.5t-66 -0.5v15l31 6
q41 8 72.5 34t64.5 85l214 388q33 57 33 84q0 35 -53 43l-58 8v16h624l8 -225h-20q-48 120 -87.5 163.5t-108.5 43.5h-102v-302h56q45 0 70 33t53 120h16q-1 -55 -1 -163q0 -109 1 -163h-16q-30 91 -54 123t-70 32h-55v-266q0 -30 14 -43.5t45 -13.5h48q81 0 124.5 45
t95.5 178h20z" />
    <glyph glyph-name="aeacute" unicode="&#x1fd;" horiz-adv-x="777" 
d="M343 578h-6q60 105 79 172h101v-3q-50 -94 -174 -169zM618 300l2 16q2 41 1.5 79t-19 64.5t-54.5 26.5q-97 0 -107 -198zM225 23q38 0 62.5 28t24.5 83v114q-84 -13 -121 -42t-37 -96q0 -41 18.5 -64t52.5 -23zM741 115q-69 -129 -199 -129q-62 0 -113.5 29t-81.5 84
q-25 -51 -70 -82.5t-106 -31.5q-68 0 -104.5 31t-36.5 84q0 40 22.5 70t64.5 48t88.5 28t107.5 16v101q0 68 -17.5 95t-67.5 27q-37 0 -59.5 -13.5t-22.5 -30.5q0 -13 12.5 -22t25 -23t12.5 -38q0 -29 -19.5 -46t-50.5 -17q-33 0 -52.5 21t-19.5 57q0 54 50.5 90.5
t128.5 36.5q115 0 158 -75q61 76 157 76q88 0 140.5 -47.5t52.5 -131.5q0 -23 -4 -51l-297 1v-30q0 -105 36.5 -160.5t104.5 -55.5q90 0 145 97z" />
    <glyph glyph-name="Oslashacute" unicode="&#x1fe;" horiz-adv-x="756" 
d="M317 747h-7q54 67 80 125h120v-3q-26 -30 -83 -65.5t-110 -56.5zM719 339q0 -160 -99.5 -257.5t-241.5 -97.5q-128 0 -220 78l-61 -72l-19 15l61 74q-102 100 -102 260q0 162 99.5 259t241.5 97q125 0 217 -75l57 69l19 -15l-58 -70q106 -99 106 -265zM378 679
q-68 0 -111.5 -47t-60.5 -120t-17 -173q0 -109 21 -183l326 398q-47 125 -158 125zM378 0q51 0 88.5 26t59 73.5t31.5 107t10 132.5q0 112 -23 190l-326 -399q46 -130 160 -130z" />
    <glyph glyph-name="oslashacute" unicode="&#x1ff;" horiz-adv-x="530" 
d="M207 578h-6q60 105 79 172h101v-3q-50 -94 -174 -169zM504 243q0 -118 -69 -188t-170 -70q-91 0 -157 58l-45 -53l-20 15l48 55q-65 72 -65 183q0 118 69.5 188t169.5 70q91 0 156 -57l45 52l19 -15l-47 -54q66 -71 66 -184zM163 141l200 235q-23 110 -98 110
q-41 0 -65.5 -31.5t-33.5 -83t-9 -128.5q0 -57 6 -102zM265 1q60 0 84 62t24 180q0 52 -5 102l-201 -233q23 -111 98 -111z" />
    <glyph glyph-name="Scommaaccent" unicode="&#x218;" horiz-adv-x="588" 
d="M536 190q0 -98 -68 -152t-162 -54q-127 0 -193 67l-37 -62h-10v279h20q37 -145 89.5 -206.5t130.5 -61.5q62 0 97.5 33.5t35.5 92.5t-41.5 91.5t-126.5 62.5q-100 35 -150 87.5t-50 128.5q0 90 65 144.5t159 54.5q104 0 165 -64l34 59h10v-263h-19q-37 134 -79 193
t-112 59q-62 0 -94 -33.5t-32 -83.5q0 -57 42.5 -91t130.5 -65q96 -36 145.5 -82.5t49.5 -133.5zM259 -259l-9 15q75 43 75 103q-12 -23 -41 -23q-23 0 -37.5 15t-14.5 38q0 25 16.5 42t43.5 17q28 0 44.5 -18.5t16.5 -47.5q0 -91 -94 -141z" />
    <glyph glyph-name="scommaaccent" unicode="&#x219;" horiz-adv-x="442" 
d="M405 140q0 -72 -51 -113.5t-130 -41.5q-94 0 -146 47l-30 -46h-8v208h18q30 -102 70.5 -147.5t94.5 -45.5q43 0 69.5 20.5t26.5 60.5q0 39 -28.5 62.5t-100.5 49.5q-66 24 -104 60t-38 100t49.5 105.5t126.5 41.5q76 0 121 -42l27 41h8v-185h-18q-27 88 -60 129.5
t-78 41.5q-44 0 -66.5 -21.5t-22.5 -54.5q0 -38 27.5 -60t99.5 -49q143 -50 143 -161zM176 -259l-9 15q75 43 75 103q-12 -23 -41 -23q-23 0 -37.5 15t-14.5 38q0 25 17 42t43 17q29 0 45.5 -18.5t16.5 -47.5q0 -90 -95 -141z" />
    <glyph glyph-name="dotlessj" unicode="&#x237;" horiz-adv-x="335" 
d="M251 -24q0 -58 -18.5 -102.5t-49.5 -69t-66 -36.5t-73 -12q-65 0 -100.5 27.5t-35.5 69.5q0 35 21.5 57t55.5 22q32 0 51 -18t19 -47q0 -24 -11 -38.5t-22 -22.5t-11 -16q0 -19 37 -19q83 0 83 152v454q0 36 -14 49t-52 15l-34 3v14l207 41l19 -6q-6 -60 -6 -120v-397z
" />
    <glyph glyph-name="circumflex" unicode="&#x2c6;" horiz-adv-x="537" 
d="M260 685l-126 -107h-6l113 172h64l109 -172h-9z" />
    <glyph glyph-name="caron" unicode="&#x2c7;" horiz-adv-x="537" 
d="M300 578h-64l-108 172h8l145 -107l126 107h7z" />
    <glyph glyph-name="breve" unicode="&#x2d8;" horiz-adv-x="531" 
d="M397 738q-16 -137 -129 -137t-129 137h5q19 -63 124 -63q104 0 125 63h4z" />
    <glyph glyph-name="dotaccent" unicode="&#x2d9;" horiz-adv-x="564" 
d="M337 672q0 -26 -17.5 -43t-42.5 -17q-26 0 -43.5 17.5t-17.5 42.5t18 42.5t43 17.5t42.5 -17.5t17.5 -42.5z" />
    <glyph glyph-name="ring" unicode="&#x2da;" horiz-adv-x="537" 
d="M368 654q0 -41 -28 -67.5t-72 -27.5q-43 0 -71 27t-28 68q0 40 28 67t71 27q44 0 72 -27t28 -67zM200 654q0 -34 17.5 -57t50.5 -23t51 23t18 57t-18 56.5t-51 22.5t-50.5 -22.5t-17.5 -56.5z" />
    <glyph glyph-name="ogonek" unicode="&#x2db;" horiz-adv-x="508" 
d="M454 -140q-26 -50 -57 -76t-80 -26t-78 22.5t-29 62.5q0 37 22 63.5t71 64.5q49 37 101 84l8 -7q-8 -8 -41 -39t-44 -44.5t-24.5 -44.5t-13.5 -65q0 -30 15.5 -46.5t41.5 -16.5q28 0 49.5 18t43.5 57z" />
    <glyph glyph-name="tilde" unicode="&#x2dc;" horiz-adv-x="537" 
d="M164 612l-3 -2q-17 24 -17 56q0 29 18.5 48.5t50.5 19.5q31 0 77.5 -29.5t64.5 -29.5q19 0 29 10t14 36h4q0 -111 -75 -111q-28 0 -74 29.5t-63 29.5q-29 0 -29 -30q0 -13 3 -27z" />
    <glyph glyph-name="hungarumlaut" unicode="&#x2dd;" horiz-adv-x="521" 
d="M313 578h-6q61 106 78 172h102v-3q-50 -94 -174 -169zM152 578h-6q60 105 79 172h102v-3q-51 -95 -175 -169z" />
    <glyph glyph-name="pi" unicode="&#x3c0;" horiz-adv-x="662" 
d="M572 -1q-20 -3 -46 -3q-53 0 -81 28t-28 100v243h-168q0 -191 -37 -367h-43q49 163 49 367h-146l31 119h474v-119h-129v-242q0 -58 19 -80t62 -22q22 0 40 3z" />
    <glyph glyph-name="Wgrave" unicode="&#x1e80;" horiz-adv-x="1038" 
d="M628 747h-7q-54 21 -110.5 56t-83.5 66v3h120q27 -60 81 -125zM400 141l-38 -145h-66l-180 554q-19 59 -37.5 81t-51.5 27l-33 5v16q60 -1 182 -1q120 0 181 1v-16l-51 -7q-70 -9 -47 -85l123 -415l149 526h67l167 -526l104 345q20 55 16.5 87.5t-19 45.5t-52.5 21l-41 8
v16q46 -1 136 -1q91 0 135 1v-15l-31 -8q-45 -11 -71.5 -45t-51.5 -116l-108 -356l-40 -143h-66l-170 517z" />
    <glyph glyph-name="wgrave" unicode="&#x1e81;" horiz-adv-x="760" 
d="M485 578h-6q-125 76 -174 169v3h102q19 -70 78 -172zM221 -4l-134 393q-14 42 -29 58.5t-39 20.5l-26 4v15q48 -1 144 -1q95 0 143 1v-15l-33 -5q-30 -4 -36 -25.5t6 -58.5l75 -250l103 357h53l110 -358l67 208q14 46 14 74q0 43 -59 52l-29 5v16q37 -1 109 -1t108 1v-15
l-26 -6q-34 -8 -54.5 -35.5t-44.5 -98.5l-110 -336h-51l-110 344l-100 -344h-51z" />
    <glyph glyph-name="Wacute" unicode="&#x1e82;" horiz-adv-x="1038" 
d="M496 747h-7q54 67 80 125h120v-3q-26 -30 -83 -65.5t-110 -56.5zM400 141l-38 -145h-66l-180 554q-19 59 -37.5 81t-51.5 27l-33 5v16q60 -1 182 -1q120 0 181 1v-16l-51 -7q-70 -9 -47 -85l123 -415l149 526h67l167 -526l104 345q20 55 16.5 87.5t-19 45.5t-52.5 21
l-41 8v16q46 -1 136 -1q91 0 135 1v-15l-31 -8q-45 -11 -71.5 -45t-51.5 -116l-108 -356l-40 -143h-66l-170 517z" />
    <glyph glyph-name="wacute" unicode="&#x1e83;" horiz-adv-x="760" 
d="M363 578h-6q60 105 79 172h101v-3q-50 -94 -174 -169zM372 340l-100 -344h-51l-134 393q-14 42 -29 58.5t-39 20.5l-26 4v15q48 -1 144 -1q95 0 143 1v-15l-33 -5q-30 -4 -36 -25.5t6 -58.5l75 -250l103 357h53l110 -358l67 208q14 46 14 74q0 43 -59 52l-29 5v16
q37 -1 109 -1t108 1v-15l-26 -6q-34 -8 -54.5 -35.5t-44.5 -98.5l-110 -336h-51z" />
    <glyph glyph-name="Wdieresis" unicode="&#x1e84;" horiz-adv-x="1038" 
d="M511 807q0 -26 -17.5 -43t-43.5 -17t-43 17.5t-17 42.5t17.5 42.5t42.5 17.5q26 0 43.5 -17.5t17.5 -42.5zM719 807q0 -25 -17.5 -42.5t-42.5 -17.5q-26 0 -43.5 17t-17.5 43q0 25 17.5 42.5t43.5 17.5q25 0 42.5 -17.5t17.5 -42.5zM296 -4l-180 554q-19 59 -37.5 81
t-51.5 27l-33 5v16q60 -1 182 -1q120 0 181 1v-16l-51 -7q-70 -9 -47 -85l123 -415l149 526h67l167 -526l104 345q20 55 16.5 87.5t-19 45.5t-52.5 21l-41 8v16q46 -1 136 -1q91 0 135 1v-15l-31 -8q-45 -11 -71.5 -45t-51.5 -116l-108 -356l-40 -143h-66l-170 517
l-106 -372l-38 -145h-66z" />
    <glyph glyph-name="wdieresis" unicode="&#x1e85;" horiz-adv-x="760" 
d="M365 672q0 -26 -17.5 -43t-43.5 -17t-43 17t-17 43q0 25 17.5 42.5t42.5 17.5q26 0 43.5 -17.5t17.5 -42.5zM573 672q0 -26 -17.5 -43t-42.5 -17q-26 0 -43.5 17t-17.5 43q0 25 17.5 42.5t43.5 17.5q25 0 42.5 -17.5t17.5 -42.5zM372 340l-100 -344h-51l-134 393
q-14 42 -29 58.5t-39 20.5l-26 4v15q48 -1 144 -1q95 0 143 1v-15l-33 -5q-30 -4 -36 -25.5t6 -58.5l75 -250l103 357h53l110 -358l67 208q14 46 14 74q0 43 -59 52l-29 5v16q37 -1 109 -1t108 1v-15l-26 -6q-34 -8 -54.5 -35.5t-44.5 -98.5l-110 -336h-51z" />
    <glyph glyph-name="Ygrave" unicode="&#x1ef2;" horiz-adv-x="719" 
d="M447 747h-7q-54 21 -110.5 56t-83.5 66v3h120q27 -60 81 -125zM538 16v-16q-31 0 -90.5 0.5t-90.5 0.5t-91 -0.5t-92 -0.5v16l48 7q41 6 53 20.5t12 50.5v172l-169 311q-23 42 -42 59t-47 22l-34 5v16q61 -1 184 -1q121 0 182 1v-16l-52 -7q-67 -9 -31 -81l139 -268
l107 198q37 68 37 103q0 37 -60 48l-38 7v16q44 -1 131 -1q88 0 132 1v-15l-29 -7q-39 -10 -71.5 -42.5t-80.5 -117.5l-119 -214v-189q0 -36 12 -50.5t53 -20.5z" />
    <glyph glyph-name="ygrave" unicode="&#x1ef3;" horiz-adv-x="538" 
d="M343 578h-6q-125 76 -174 169v3h102q19 -70 78 -172zM296 14q-41 -107 -75.5 -164t-62.5 -74.5t-68 -17.5q-44 0 -70 24t-26 63q0 33 21 55t57 22q30 0 47 -16t19 -41q1 -20 -9.5 -36t-10.5 -21q1 -10 13 -10q61 0 127 180l6 15l-173 395q-19 43 -32.5 59t-36.5 20l-28 5
v15q49 -1 144 -1q91 0 140 1v-15l-33 -4q-29 -4 -33.5 -25.5t10.5 -56.5l101 -255l80 217q17 47 17 72q0 20 -12.5 30.5t-41.5 15.5l-30 5v16q35 -1 105 -1q69 0 105 1v-15l-21 -5q-38 -9 -58 -34t-46 -92z" />
    <glyph glyph-name="endash" unicode="&#x2013;" horiz-adv-x="499" 
d="M25 227v34h449v-34h-449z" />
    <glyph glyph-name="emdash" unicode="&#x2014;" horiz-adv-x="917" 
d="M25 227v34h867v-34h-867z" />
    <glyph glyph-name="quoteleft" unicode="&#x2018;" horiz-adv-x="273" 
d="M199 750l10 -17q-48 -28 -77 -68.5t-29 -78.5q0 -15 11 -15q5 0 19 7.5t30 7.5q26 0 43 -17t17 -45q0 -30 -21 -50t-53 -20q-39 0 -61 28t-22 76q0 58 38.5 110.5t94.5 81.5z" />
    <glyph glyph-name="quoteright" unicode="&#x2019;" horiz-adv-x="283" 
d="M78 444l-10 17q48 28 77 68.5t29 78.5q0 15 -11 15q-5 0 -19 -7.5t-30 -7.5q-26 0 -43 17t-17 45q0 30 21 50t53 20q39 0 61 -28t22 -76q0 -58 -38.5 -110.5t-94.5 -81.5z" />
    <glyph glyph-name="quotesinglbase" unicode="&#x201a;" horiz-adv-x="279" 
d="M78 -165l-10 17q48 28 77 68.5t29 78.5q0 15 -11 15q-5 0 -19 -7.5t-30 -7.5q-26 0 -43 17t-17 45q0 30 21 50t53 20q39 0 61 -28t22 -76q0 -58 -38.5 -110.5t-94.5 -81.5z" />
    <glyph glyph-name="quotedblleft" unicode="&#x201c;" horiz-adv-x="470" 
d="M398 750l10 -17q-48 -28 -77 -68.5t-29 -78.5q0 -15 11 -15q5 0 19 7.5t30 7.5q26 0 43 -17t17 -45q0 -30 -21 -50t-53 -20q-39 0 -61 28t-22 76q0 58 38.5 110.5t94.5 81.5zM201 750l10 -17q-48 -28 -77 -68.5t-29 -78.5q0 -15 11 -15q5 0 19 7.5t30 7.5q26 0 43 -17
t17 -45q0 -30 -21 -50t-53 -20q-39 0 -61 28t-22 76q0 58 38.5 110.5t94.5 81.5z" />
    <glyph glyph-name="quotedblright" unicode="&#x201d;" horiz-adv-x="480" 
d="M275 444l-10 17q48 28 77 68.5t29 78.5q0 15 -11 15q-5 0 -19 -7.5t-30 -7.5q-26 0 -43 17t-17 45q0 30 21 50t53 20q39 0 61 -28t22 -76q0 -58 -38.5 -110.5t-94.5 -81.5zM78 444l-10 17q48 28 77 68.5t29 78.5q0 15 -11 15q-5 0 -19 -7.5t-30 -7.5q-26 0 -43 17t-17 45
q0 30 21 50t53 20q39 0 61 -28t22 -76q0 -58 -38.5 -110.5t-94.5 -81.5z" />
    <glyph glyph-name="quotedblbase" unicode="&#x201e;" horiz-adv-x="476" 
d="M275 -165l-10 17q48 28 77 68.5t29 78.5q0 15 -11 15q-5 0 -19 -7.5t-30 -7.5q-26 0 -43 17t-17 45q0 30 21 50t53 20q39 0 61 -28t22 -76q0 -58 -38.5 -110.5t-94.5 -81.5zM78 -165l-10 17q48 28 77 68.5t29 78.5q0 15 -11 15q-5 0 -19 -7.5t-30 -7.5q-26 0 -43 17
t-17 45q0 30 21 50t53 20q39 0 61 -28t22 -76q0 -58 -38.5 -110.5t-94.5 -81.5z" />
    <glyph glyph-name="dagger" unicode="&#x2020;" horiz-adv-x="478" 
d="M242 133h-6q-5 100 -23 178t-18 97q0 30 19.5 67.5t19.5 63.5q-30 -1 -67 -24t-60 -23q-25 0 -38.5 15t-13.5 37t13.5 37t38.5 15q23 0 60 -22.5t67 -23.5q-1 30 -24.5 67.5t-23.5 60.5q0 24 15.5 38t37.5 14t37 -14t15 -38q0 -23 -22.5 -60.5t-23.5 -67.5q30 1 66.5 24
t59.5 23q25 0 38.5 -15t13.5 -37t-13.5 -37t-38.5 -15q-23 0 -59.5 22.5t-66.5 23.5q0 -26 18.5 -63.5t18.5 -67.5q0 -19 -17.5 -97t-22.5 -178z" />
    <glyph glyph-name="daggerdbl" unicode="&#x2021;" horiz-adv-x="478" 
d="M242 0h-6q-5 99 -23 171t-18 91q0 27 19 60t20 55q-30 -2 -67 -24t-60 -22q-25 0 -38.5 15t-13.5 37t13.5 37t38.5 15q23 0 60 -22.5t67 -24.5q-1 18 -16 42t-15 43q0 18 15 41.5t16 41.5q-30 -2 -67 -24.5t-60 -22.5q-25 0 -38.5 15t-13.5 37t13.5 37t38.5 15
q23 0 60 -22t67 -24q-1 25 -24.5 58.5t-23.5 53.5q0 25 15 38t38 13q22 0 37 -13t15 -38q0 -20 -22.5 -53.5t-23.5 -58.5q30 1 66.5 24t59.5 23q25 0 38.5 -15t13.5 -37t-13.5 -37t-38.5 -15q-23 0 -59.5 22.5t-66.5 23.5q0 -18 15 -41.5t15 -41.5q0 -19 -15 -43t-15 -42
q30 1 66.5 23.5t59.5 22.5q25 0 38.5 -15t13.5 -37t-13.5 -37t-38.5 -15q-23 0 -59.5 23t-66.5 24q0 -22 18.5 -55.5t18.5 -59.5q0 -19 -17.5 -91t-22.5 -171z" />
    <glyph glyph-name="bullet" unicode="&#x2022;" horiz-adv-x="414" 
d="M338 245q0 -55 -38.5 -93t-93.5 -38t-92.5 38t-37.5 93t37.5 93.5t92.5 38.5t93.5 -38.5t38.5 -93.5z" />
    <glyph glyph-name="ellipsis" unicode="&#x2026;" horiz-adv-x="734" 
d="M211 67q0 -34 -22.5 -55.5t-55.5 -21.5t-56 21.5t-23 55.5q0 35 23 57t56 22t55.5 -22t22.5 -57zM445 67q0 -34 -22.5 -55.5t-55.5 -21.5t-56 21.5t-23 55.5q0 35 23 57t56 22t55.5 -22t22.5 -57zM680 67q0 -34 -22.5 -55.5t-55.5 -21.5t-56 21.5t-23 55.5q0 35 23 57
t56 22t55.5 -22t22.5 -57z" />
    <glyph glyph-name="perthousand" unicode="&#x2030;" horiz-adv-x="1033" 
d="M353 497q0 -71 -45 -112t-115 -41q-71 0 -116.5 40.5t-45.5 111.5q0 70 45.5 111t115.5 41q71 0 116 -40.5t45 -110.5zM115 496q0 -136 78 -136q77 0 77 137q0 135 -78 135q-77 0 -77 -136zM43 0l281 323l257 309h41l-279 -323l-258 -309h-42zM840 -11q-72 0 -116.5 40.5
t-44.5 111.5q0 70 44.5 111t115.5 41t116.5 -40.5t45.5 -111.5q0 -70 -45.5 -111t-115.5 -41zM483 -11q-72 0 -117 40.5t-45 111.5q0 70 45 111t116 41t116.5 -40.5t45.5 -111.5q0 -70 -45.5 -111t-115.5 -41zM840 5q77 0 77 136t-78 136q-77 0 -77 -136t78 -136zM483 5
q77 0 77 136t-78 136q-77 0 -77 -136t78 -136z" />
    <glyph glyph-name="guilsinglleft" unicode="&#x2039;" horiz-adv-x="330" 
d="M246 50l-196 182v24l196 182h15l-106 -194l106 -194h-15z" />
    <glyph glyph-name="guilsinglright" unicode="&#x203a;" horiz-adv-x="330" 
d="M280 232l-196 -182h-15l106 194l-106 194h15l196 -182v-24z" />
    <glyph glyph-name="asterism" unicode="&#x2042;" horiz-adv-x="758" 
d="M307 423q-4 -17 -17 -24t-30 -3q-38 10 -28 47q4 14 27.5 40t38.5 70q-42 -13 -68.5 -38t-40.5 -29q-17 -5 -31 2.5t-18 24.5q-5 17 3 30t25 17q12 3 49.5 -3t79.5 4q-32 29 -67 42.5t-45 22.5q-27 28 0 55q12 12 27.5 11t27.5 -13q10 -10 21 -45t41 -68q8 48 0.5 81
t-3.5 47q12 38 48 28q17 -5 24 -18t3 -30q-4 -14 -15 -25.5t-25 -31t-25 -53.5q41 14 68 39t41 29q17 5 31 -3t18 -24q5 -17 -3 -30.5t-25 -17.5q-13 -3 -49.5 3.5t-79.5 -4.5q31 -29 66.5 -41.5t45.5 -22.5q12 -11 12.5 -27.5t-12.5 -28.5q-26 -26 -55 2q-11 11 -15.5 27
t-14 38.5t-32.5 47.5q-8 -47 -1 -80t3 -48zM590 127q-4 -17 -17 -24t-30 -3q-38 10 -28 47q4 14 27.5 40t38.5 70q-42 -13 -68.5 -38t-40.5 -29q-17 -5 -31 2.5t-18 24.5q-5 17 3 30t25 17q12 3 49.5 -3t79.5 4q-32 29 -67 42.5t-45 22.5q-12 12 -12.5 27t12.5 28
q12 12 27.5 11t27.5 -13q10 -10 21 -45t41 -68q8 48 0.5 81t-3.5 47q12 38 48 28q17 -5 24 -18t3 -30q-4 -14 -15 -25.5t-25 -31t-25 -53.5q41 14 68 39t41 29q17 5 31 -3t18 -24q5 -17 -3 -30.5t-25 -17.5q-13 -3 -49.5 3.5t-79.5 -4.5q31 -29 66.5 -41.5t45.5 -22.5
q12 -11 12.5 -27.5t-12.5 -28.5q-27 -26 -55 2q-11 11 -15.5 27t-14 38.5t-32.5 47.5q-8 -47 -1 -80t3 -48zM191 21q-4 -17 -17 -24t-30 -3q-38 10 -28 47q4 14 27.5 40t38.5 70q-42 -13 -68.5 -38t-40.5 -29q-17 -5 -31 2.5t-18 24.5q-5 17 3 30t25 17q12 3 49.5 -3t79.5 4
q-32 29 -67 42.5t-45 22.5q-27 28 0 55q12 12 27.5 11t27.5 -13q10 -10 21 -45t41 -68q8 48 0.5 81t-3.5 47q12 38 48 28q17 -5 24 -18t3 -30q-4 -14 -15 -25.5t-25 -31t-25 -53.5q41 14 68 39t41 29q17 5 31 -3t18 -24q5 -17 -3 -30.5t-25 -17.5q-13 -3 -49.5 3.5
t-79.5 -4.5q31 -29 66.5 -41.5t45.5 -22.5q12 -11 12.5 -27.5t-12.5 -28.5q-26 -26 -55 2q-11 11 -15.5 27t-14 38.5t-32.5 47.5q-8 -47 -1 -80t3 -48z" />
    <glyph glyph-name="fraction" unicode="&#x2044;" horiz-adv-x="668" 
d="M107 -15l-31 19l251 342l235 348l31 -19l-251 -341z" />
    <glyph glyph-name="zero.sups" unicode="&#x2070;" horiz-adv-x="406" 
d="M372 677q0 -85 -49 -136t-120 -51q-72 0 -120.5 51t-48.5 136q0 86 48.5 137.5t120.5 51.5q71 0 120 -52t49 -137zM132 677q0 -86 16.5 -128.5t54.5 -42.5q71 0 71 171q0 174 -71 174q-38 0 -54.5 -43.5t-16.5 -130.5z" />
    <glyph glyph-name="four.sups" unicode="&#x2074;" horiz-adv-x="362" 
d="M175 627v116l3 67l-126 -182zM323 516v-16h-210v15l53 10q9 3 9 11v70h-146l-4 18l161 232h79v-230h15q13 0 19.5 5.5t12.5 20.5l13 36h15l-11 -82h-64v-70q0 -10 9 -11z" />
    <glyph glyph-name="five.sups" unicode="&#x2075;" horiz-adv-x="354" 
d="M143 490q-49 0 -78 21t-29 51q0 22 13 35t34 13t32.5 -12t11.5 -30q0 -19 -11.5 -29.5t-28.5 -10.5q18 -22 51 -22q39 0 60 26t21 76q0 88 -57 88q-37 0 -65 -38l-36 5l26 193h20q37 -15 99 -15q67 0 91 18l10 -5q-13 -43 -40 -63.5t-78 -20.5t-92 9l-14 -93q38 28 94 28
q62 0 101 -25t39 -78q0 -60 -51.5 -90.5t-122.5 -30.5z" />
    <glyph glyph-name="six.sups" unicode="&#x2076;" horiz-adv-x="381" 
d="M344 614q0 -59 -44.5 -91.5t-107.5 -32.5q-67 0 -108.5 41.5t-41.5 126.5q0 95 53.5 151.5t133.5 56.5q50 0 78.5 -19t28.5 -48q0 -22 -12.5 -33.5t-31.5 -11.5t-31.5 11.5t-12.5 28.5t11 29t27 12q-18 16 -49 16q-100 0 -106 -214q14 84 94 84q51 0 85 -27.5t34 -79.5z
M142 601q0 -95 53 -95q55 0 55 102q0 86 -49 86q-59 0 -59 -93z" />
    <glyph glyph-name="seven.sups" unicode="&#x2077;" horiz-adv-x="325" 
d="M157 493q-49 0 -49 47q0 65 87 168q23 28 70 77h-156q-17 0 -24 -5t-14 -21l-10 -26h-18l22 138h15q0 -15 17 -15h215v-28q-7 -10 -25.5 -34.5t-30 -41.5t-19.5 -34q-6 -13 -10.5 -28t-6.5 -25t-4 -29t-2.5 -25t-1 -30t-0.5 -28q-1 -29 -12.5 -44.5t-42.5 -15.5z" />
    <glyph glyph-name="eight.sups" unicode="&#x2078;" horiz-adv-x="371" 
d="M184 490q-65 0 -105 22t-40 66q0 32 23 53.5t60 28.5q-70 38 -70 103q0 47 37.5 75t98.5 28q58 0 93 -20.5t35 -61.5q0 -27 -21.5 -43.5t-53.5 -23.5q91 -37 91 -112q0 -55 -41 -85t-107 -30zM227 722l4 4q23 28 23 64q0 28 -17.5 44.5t-48.5 16.5q-32 0 -49.5 -14.5
t-17.5 -36.5q0 -25 22 -39.5t73 -33.5q7 -3 10 -4zM184 506q37 0 57 16t20 41q0 27 -24.5 44t-71.5 35l-9 3l-16 7q-33 -31 -33 -76q0 -33 19.5 -51.5t57.5 -18.5z" />
    <glyph glyph-name="nine.sups" unicode="&#x2079;" horiz-adv-x="377" 
d="M239 755q0 96 -52 96q-54 0 -54 -102q0 -87 48 -87q58 0 58 93zM153 490q-50 0 -78.5 19t-28.5 49q0 21 13 33t31 12q19 0 31.5 -11.5t12.5 -29.5q0 -17 -11 -28.5t-27 -11.5q16 -16 49 -16q99 0 105 214q-12 -84 -93 -84q-51 0 -84.5 27.5t-33.5 79.5q0 59 44 91t107 32
q67 0 108 -41.5t41 -125.5q0 -95 -53 -152t-133 -57z" />
    <glyph glyph-name="plus.sups" unicode="&#x207a;" horiz-adv-x="375" 
d="M203 663v-122h-31v122h-122v32h122v121h31v-121h123v-32h-123z" />
    <glyph glyph-name="minus.sups" unicode="&#x207b;" horiz-adv-x="375" 
d="M50 663v32h276v-32h-276z" />
    <glyph glyph-name="equal.sups" unicode="&#x207c;" horiz-adv-x="375" 
d="M50 722v32h276v-32h-276zM50 603v31h276v-31h-276z" />
    <glyph glyph-name="parenleft.sups" unicode="&#x207d;" horiz-adv-x="264" 
d="M238 414l-9 -10q-164 111 -164 273v4q0 162 164 273l9 -10q-38 -31 -63.5 -100t-25.5 -163v-4q0 -94 25.5 -163t63.5 -100z" />
    <glyph glyph-name="parenright.sups" unicode="&#x207e;" horiz-adv-x="264" 
d="M35 404l-9 10q38 31 63.5 100t25.5 163v4q0 94 -25.5 163t-63.5 100l9 10q164 -111 164 -273v-4q0 -162 -164 -273z" />
    <glyph glyph-name="n.sups" unicode="&#x207f;" horiz-adv-x="481" 
d="M228 517v-17h-191v17l42 11q12 2 12 15v245q0 16 -16 17l-45 4v15l120 27l24 -6l-3 -117q9 57 40 91t84 34q106 0 106 -111v-199q0 -13 12 -15l42 -11v-17h-192v17l34 10q12 4 12 16v209q0 39 -11.5 55t-36.5 16q-33 0 -55.5 -39.5t-22.5 -104.5v-136q0 -12 12 -16z" />
    <glyph glyph-name="zero.sinf" unicode="&#x2080;" horiz-adv-x="406" 
d="M372 13q0 -85 -49 -136t-120 -51q-72 0 -120.5 51t-48.5 136q0 86 48.5 137.5t120.5 51.5q71 0 120 -52t49 -137zM132 13q0 -86 16.5 -128.5t54.5 -42.5q71 0 71 171q0 174 -71 174q-38 0 -54.5 -43.5t-16.5 -130.5z" />
    <glyph glyph-name="one.sinf" unicode="&#x2081;" horiz-adv-x="329" 
d="M55 -164v16l62 10q10 1 10 10v257q0 18 -22 21l-51 6v13l53 6q64 7 89 22h25q-3 -42 -3 -84v-241q0 -9 10 -10l59 -10v-16h-232z" />
    <glyph glyph-name="two.sinf" unicode="&#x2082;" horiz-adv-x="362" 
d="M305 -164h-263l-3 37q96 72 133 117q45 56 45 118q0 42 -15 60.5t-48 18.5q-26 0 -49 -14t-31 -35q6 5 18 5q17 0 28.5 -11.5t11.5 -28.5q0 -19 -13 -31.5t-33 -12.5t-33 13t-13 36q0 40 34.5 67t96.5 27q60 0 101 -25t41 -75q0 -42 -30 -71.5t-89 -65.5q-54 -34 -88 -56
h146q17 0 24.5 4t12.5 17l13 32h16z" />
    <glyph glyph-name="three.sinf" unicode="&#x2083;" horiz-adv-x="366" 
d="M151 -174q-55 0 -85.5 21t-30.5 52q0 22 13.5 35.5t34.5 13.5t33 -12t12 -31q0 -18 -12.5 -29.5t-27.5 -11.5q20 -22 55 -22q41 0 66.5 28t24.5 76q0 77 -49 77q-16 0 -36.5 -12t-32.5 -12q-24 0 -24 26q25 11 83 15q50 29 50 86q0 61 -58 61q-42 0 -66 -29l5 1
q16 0 27.5 -11t11.5 -29t-12.5 -31t-32.5 -13q-19 0 -32 13.5t-13 33.5q0 35 34 57.5t89 22.5q62 0 98.5 -21.5t36.5 -57.5t-28.5 -52.5t-88.5 -32.5q-6 -1 -9 -2l5 -1l-3 -1q9 1 29 1q50 0 82 -22.5t32 -64.5q0 -59 -56 -90.5t-125 -31.5z" />
    <glyph glyph-name="four.sinf" unicode="&#x2084;" horiz-adv-x="361" 
d="M175 -37v116l3 67l-126 -182zM323 -148v-16h-210v15l53 10q9 3 9 11v70h-146l-4 18l161 232h79v-230h15q13 0 19.5 5.5t12.5 20.5l13 36h15l-11 -82h-64v-70q0 -10 9 -11z" />
    <glyph glyph-name="five.sinf" unicode="&#x2085;" horiz-adv-x="354" 
d="M143 -174q-49 0 -78 21t-29 51q0 22 13 35t34 13t32.5 -12t11.5 -30q0 -19 -11.5 -29.5t-28.5 -10.5q18 -22 51 -22q39 0 60 26t21 76q0 88 -57 88q-37 0 -65 -38l-36 5l26 193h20q37 -15 99 -15q67 0 91 18l10 -5q-13 -43 -40 -63.5t-78 -20.5t-92 9l-14 -93
q38 28 94 28q62 0 101 -25t39 -78q0 -60 -51.5 -90.5t-122.5 -30.5z" />
    <glyph glyph-name="six.sinf" unicode="&#x2086;" horiz-adv-x="381" 
d="M344 -50q0 -59 -44.5 -91.5t-107.5 -32.5q-67 0 -108.5 41.5t-41.5 126.5q0 95 53.5 151.5t133.5 56.5q50 0 78.5 -19t28.5 -48q0 -22 -12.5 -33.5t-31.5 -11.5t-31.5 11.5t-12.5 28.5t11 29t27 12q-18 16 -49 16q-100 0 -106 -214q14 84 94 84q51 0 85 -27.5t34 -79.5z
M142 -63q0 -95 53 -95q55 0 55 102q0 86 -49 86q-59 0 -59 -93z" />
    <glyph glyph-name="seven.sinf" unicode="&#x2087;" horiz-adv-x="325" 
d="M157 -171q-49 0 -49 47q0 65 87 168q23 28 70 77h-156q-17 0 -24 -5t-14 -21l-10 -26h-18l22 138h15q0 -15 17 -15h215v-28q-7 -10 -25.5 -34.5t-30 -41.5t-19.5 -34q-6 -13 -10.5 -28t-6.5 -25t-4 -29t-2.5 -25t-1 -30t-0.5 -28q-1 -29 -12.5 -44.5t-42.5 -15.5z" />
    <glyph glyph-name="eight.sinf" unicode="&#x2088;" horiz-adv-x="371" 
d="M184 -174q-65 0 -105 22t-40 66q0 32 23 53.5t60 28.5q-70 38 -70 103q0 47 37.5 75t98.5 28q58 0 93 -20.5t35 -61.5q0 -27 -21.5 -43.5t-53.5 -23.5q91 -37 91 -112q0 -55 -41 -85t-107 -30zM227 58l4 4q23 28 23 64q0 28 -17.5 44.5t-48.5 16.5q-32 0 -49.5 -14.5
t-17.5 -36.5q0 -25 22 -39.5t73 -33.5q7 -3 10 -4zM184 -158q37 0 57 16t20 41q0 27 -24.5 44t-71.5 35l-9 3l-16 7q-33 -31 -33 -76q0 -33 19.5 -51.5t57.5 -18.5z" />
    <glyph glyph-name="nine.sinf" unicode="&#x2089;" horiz-adv-x="377" 
d="M239 91q0 96 -52 96q-54 0 -54 -102q0 -87 48 -87q58 0 58 93zM153 -174q-50 0 -78.5 19t-28.5 49q0 21 13 33t31 12q19 0 31.5 -11.5t12.5 -29.5q0 -17 -11 -28.5t-27 -11.5q16 -16 49 -16q99 0 105 214q-12 -84 -93 -84q-51 0 -84.5 27.5t-33.5 79.5q0 59 44 91t107 32
q67 0 108 -41.5t41 -125.5q0 -95 -53 -152t-133 -57z" />
    <glyph glyph-name="parenleft.sinf" unicode="&#x208d;" horiz-adv-x="264" 
d="M238 -250l-9 -10q-164 111 -164 273v4q0 162 164 273l9 -10q-38 -31 -63.5 -100t-25.5 -163v-4q0 -94 25.5 -163t63.5 -100z" />
    <glyph glyph-name="parenright.sinf" unicode="&#x208e;" horiz-adv-x="264" 
d="M35 -260l-9 10q38 31 63.5 100t25.5 163v4q0 94 -25.5 163t-63.5 100l9 10q164 -111 164 -273v-4q0 -162 -164 -273z" />
    <glyph glyph-name="franc" unicode="&#x20a3;" horiz-adv-x="613" 
d="M380 16v-16q-31 0 -91.5 0.5t-92.5 0.5q-31 0 -89.5 -0.5t-89.5 -0.5v16l47 7q40 6 51 19.5t11 48.5v448q0 36 -11 50t-51 20l-47 7v16h550l8 -238h-20q-52 127 -90.5 173t-105.5 46h-95v-283h48q45 0 69 32.5t53 119.5h16q-1 -54 -1 -163q0 -108 1 -163h-16
q-31 93 -54 124t-68 31h-48v-213q0 -37 13.5 -53t54.5 -22z" />
    <glyph glyph-name="Euro" unicode="&#x20ac;" horiz-adv-x="596" 
d="M529 -11l-31 56q-56 -61 -151 -61q-94 0 -165.5 59.5t-93.5 172.5l-72 15v14l65 13q-2 32 -2 51q0 16 2 44l-65 14v14l69 15q20 127 92.5 190t167.5 63t153 -61l31 55h9v-254h-15q-37 136 -78.5 190t-97.5 54q-60 0 -89.5 -58t-35.5 -184h175l-7 -27l-169 -6
q-1 -16 -1 -49q0 -38 1 -54h149l-7 -27l-140 -7q7 -115 37 -168t89 -53q55 0 95 54t79 180h15v-245h-9z" />
    <glyph glyph-name="litre" unicode="&#x2113;" horiz-adv-x="457" 
d="M250 -13q-62 0 -100 33t-38 99v86q-41 -24 -88 -47l-9 19q54 26 97 52v314q0 68 38.5 108t103.5 40q62 0 96 -33.5t34 -98.5q0 -137 -145 -264v-186q0 -47 14 -65t43 -18q56 0 81 105l18 -3q-15 -75 -48 -108t-97 -33zM239 322l2 1q118 112 118 232q0 92 -67 92
q-53 0 -53 -82v-243z" />
    <glyph glyph-name="servicemark" unicode="&#x2120;" horiz-adv-x="842" 
d="M526 365l-83 198l-22 61h-2v-220q0 -12 12 -16l40 -9v-13h-126v13l41 9q12 4 12 16v243q0 9 -9 11l-44 8v13h114l76 -182l24 -70h2l105 252h109v-8l-37 -8q-9 -1 -9 -11v-254q0 -10 9 -11l37 -8v-13h-155v13l40 8q9 1 9 11v233h-2l-112 -266h-29zM298 453q0 -47 -32 -72
t-81 -25q-63 0 -94 38l-11 -35h-13l1 125h15l13 -36q24 -75 91 -75q33 0 52.5 15.5t19.5 41.5q0 28 -18.5 41.5t-67.5 28.5q-50 15 -74.5 37t-24.5 58q0 44 30 69t77 25q54 0 84 -32l11 29h12l-1 -110h-15l-9 28q-22 68 -80 68q-33 0 -51 -15.5t-18 -37.5q0 -27 19.5 -40.5
t69.5 -28.5q51 -15 73 -37.5t22 -59.5z" />
    <glyph glyph-name="trademark" unicode="&#x2122;" horiz-adv-x="896" 
d="M295 379v-13h-167v13l43 8q10 1 10 11v264h-46q-17 0 -25 -6t-13 -23l-16 -61h-16l1 107h290l1 -107h-16l-16 61q-8 29 -39 29h-45v-264q0 -10 10 -11zM579 365l-82 198l-22 61h-2v-220q0 -12 12 -16l40 -9v-13h-127v13l41 9q12 4 12 16v243q0 9 -9 11l-44 8v13h115
l76 -182l24 -70h2l105 252h109v-8l-37 -8q-9 -1 -9 -11v-254q0 -10 9 -11l37 -8v-13h-155v13l40 8q9 1 9 11v233h-2l-112 -266h-30z" />
    <glyph glyph-name="ohm" unicode="&#x2126;" horiz-adv-x="742" 
d="M71 0v32h228q-230 147 -230 347q0 78 26 140t70 99.5t96.5 56.5t109.5 19t109.5 -19t96.5 -56.5t70 -99.5t26 -140q0 -199 -230 -347h228v-32h-255v38q52 60 87 150.5t35 191.5q0 147 -45.5 222t-121.5 75t-121.5 -75t-45.5 -222q0 -101 35 -191.5t86 -150.5v-38h-254z
" />
    <glyph glyph-name="estimated" unicode="&#x212e;" horiz-adv-x="755" 
d="M567 351v268q-74 53 -184 53q-111 0 -193 -65v-256h377zM665 145q-97 -159 -291 -159q-147 0 -240.5 97t-93.5 257q0 155 98.5 253.5t244.5 98.5q148 0 239 -88t91 -243q0 -21 -1 -31h-522v-265q78 -59 187 -59q82 0 152.5 39t115.5 112z" />
    <glyph glyph-name="arrowleft" unicode="&#x2190;" horiz-adv-x="900" 
d="M439 17l-7 -7q-129 126 -319 221q-13 7 -13 13t13 13q190 95 319 221l7 -6q-41 -64 -101.5 -125t-115.5 -89q37 0 578 17v-62q-48 2 -177.5 7t-233 8t-167.5 3q55 -28 115.5 -89t101.5 -125z" />
    <glyph glyph-name="arrowup" unicode="&#x2191;" horiz-adv-x="900" 
d="M481 -103h-62q2 48 7 178t8 233.5t3 166.5q-28 -55 -89 -115.5t-125 -101.5l-7 7q126 129 221 319q7 13 13 13t13 -13q95 -190 221 -319l-7 -7q-64 41 -125 101.5t-89 115.5q0 -63 3 -166.5t8 -233.5t7 -178z" />
    <glyph glyph-name="arrowright" unicode="&#x2192;" horiz-adv-x="900" 
d="M468 10l-7 7q41 64 101.5 125t115.5 89q-64 0 -167.5 -3t-233 -8t-177.5 -7v62q541 -17 578 -17q-55 28 -115.5 89t-101.5 125l7 6q129 -126 319 -221q13 -7 13 -13t-13 -13q-190 -95 -319 -221z" />
    <glyph glyph-name="arrowdown" unicode="&#x2193;" horiz-adv-x="900" 
d="M463 -96q-7 -13 -13 -13t-13 13q-95 190 -221 319l7 7q64 -41 125 -101.5t89 -115.5q0 64 -3 167.5t-8 233t-7 177.5h62q-2 -48 -7 -177.5t-8 -233t-3 -167.5q28 55 89 115.5t125 101.5l7 -7q-126 -129 -221 -319z" />
    <glyph glyph-name="arrownorthwest" unicode="&#x2196;" horiz-adv-x="900" 
d="M709 20l-44 -44q-16 17 -116.5 126t-167.5 180t-112 116q19 -60 19 -146.5t-17 -159.5l-9 1q-3 181 -70 381q-3 15 0 19q5 5 19 0q206 -68 382 -69v-10q-69 -16 -157.5 -16t-147.5 19q45 -45 119 -115t173 -162t129 -120z" />
    <glyph glyph-name="arrownortheast" unicode="&#x2197;" horiz-adv-x="900" 
d="M235 -24l-44 44q35 33 130.5 121t170.5 159t120 116q-64 -19 -147.5 -18.5t-157.5 16.5l1 10q180 1 381 69q14 5 19 0q4 -5 0 -19q-68 -201 -69 -381l-10 -1q-17 73 -17 159.5t19 145.5q-45 -45 -116 -120t-159 -170.5t-121 -130.5z" />
    <glyph glyph-name="arrowsoutheast" unicode="&#x2198;" horiz-adv-x="900" 
d="M708 -26q-5 -4 -19 0q-200 67 -381 70l-1 10q69 16 157.5 16t147.5 -19q-58 58 -421 396l44 44q33 -35 121 -130.5t159 -170.5t116 -120q-19 59 -19 145.5t17 159.5h9q3 -182 70 -382q4 -14 0 -19z" />
    <glyph glyph-name="arrowsouthwest" unicode="&#x2199;" horiz-adv-x="900" 
d="M211 -26q-14 -4 -19 0q-4 5 0 19q67 200 70 381l9 1q17 -73 17 -159.5t-19 -145.5q58 58 396 421l44 -44q-35 -33 -130.5 -121t-170.5 -159t-120 -116q59 19 145.5 19t159.5 -17v-9q-182 -3 -382 -70z" />
    <glyph glyph-name="partialdiff" unicode="&#x2202;" horiz-adv-x="607" 
d="M317 -15q-100 0 -165 66.5t-65 172.5t63.5 173.5t156.5 67.5q65 0 112 -26q-13 103 -53 162t-117 58q-49 0 -117 -26l-9 17q89 40 160 40q133 0 203.5 -101.5t70.5 -270.5q0 -166 -71 -249.5t-169 -83.5zM314 3q59 0 85.5 74.5t26.5 237.5q0 45 -3 87q-41 41 -94 41
q-112 0 -112 -222q0 -218 97 -218z" />
    <glyph glyph-name="increment" unicode="&#x2206;" horiz-adv-x="724" 
d="M21 0l310 679h63l310 -679h-683zM73 33h479l-238 530z" />
    <glyph glyph-name="product" unicode="&#x220f;" horiz-adv-x="771" 
d="M225 -115v675h-165v119h651v-119h-164v-675h-32v675h-259v-675h-31z" />
    <glyph glyph-name="summation" unicode="&#x2211;" horiz-adv-x="549" 
d="M501 -84v-31h-468v28l283 343l-261 395v28h446v-31h-297l210 -326l-340 -406h427z" />
    <glyph glyph-name="minus" unicode="&#x2212;" horiz-adv-x="550" 
d="M56 227v34h438v-34h-438z" />
    <glyph glyph-name="radical" unicode="&#x221a;" horiz-adv-x="618" 
d="M317 -12h-41l-144 486l-95 -43l-13 28l213 96l112 -390l212 600h32z" />
    <glyph glyph-name="infinity" unicode="&#x221e;" horiz-adv-x="583" 
d="M573 249q0 -67 -42 -111.5t-109 -44.5q-95 0 -141 76q-51 -76 -128 -76q-62 0 -103 40t-41 108q0 66 42 110.5t109 44.5q96 0 141 -75q50 74 128 74q61 0 102.5 -39.5t41.5 -106.5zM442 122q41 0 73 35.5t32 91.5q0 57 -33.5 90t-84.5 33q-69 0 -117 -70q10 -22 15 -35
q33 -89 51 -113q25 -32 64 -32zM153 117q69 0 117 70q-8 17 -15 36q-12 34 -17 47.5t-16.5 37t-21.5 33t-25.5 18t-34.5 8.5q-41 0 -73 -35.5t-32 -90.5q0 -58 33.5 -91t84.5 -33z" />
    <glyph glyph-name="integral" unicode="&#x222b;" horiz-adv-x="440" 
d="M45 -235v24q53 0 75.5 25.5t22.5 89.5v713q0 157 177 157q47 0 87 -14l-9 -22q-32 10 -61 10q-40 0 -55.5 -30.5t-15.5 -95.5v-693q0 -91 -53 -127.5t-168 -36.5z" />
    <glyph glyph-name="approxequal" unicode="&#x2248;" horiz-adv-x="512" 
d="M89 281h-27q0 48 25 75.5t73 27.5q43 0 118.5 -33.5t111.5 -33.5q70 0 71 71h27q0 -48 -25 -75t-73 -27q-44 0 -119 34t-111 34q-70 0 -71 -73zM89 100h-27q0 48 25 75.5t73 27.5q43 0 118.5 -33.5t111.5 -33.5q70 0 71 71h27q0 -48 -25 -75t-73 -27q-44 0 -119 34
t-111 34q-70 0 -71 -73z" />
    <glyph glyph-name="notequal" unicode="&#x2260;" horiz-adv-x="550" 
d="M219 132l-87 -129l-28 18l75 111h-123v34h146l106 156h-252v34h275l87 129l28 -18l-75 -111h123v-34h-146l-106 -156h252v-34h-275z" />
    <glyph glyph-name="lessequal" unicode="&#x2264;" horiz-adv-x="550" 
d="M476 0h-416v32h388l-386 196v32l400 204l14 -28l-382 -192l382 -194v-50z" />
    <glyph glyph-name="greaterequal" unicode="&#x2265;" horiz-adv-x="550" 
d="M490 0h-416v50l382 194l-382 192l14 28l400 -204v-32l-386 -196h388v-32z" />
    <glyph glyph-name="blackuppointingtriangle" unicode="&#x25b2;" 
d="M57 53l243 422l243 -422h-486z" />
    <glyph glyph-name="blackrightpointingtriangle" unicode="&#x25b6;" 
d="M114 0v487l422 -243z" />
    <glyph glyph-name="blackdownpointingtriangle" unicode="&#x25bc;" 
d="M300 14l-243 423h486z" />
    <glyph glyph-name="blackleftpointingtriangle" unicode="&#x25c0;" 
d="M486 0l-422 244l422 243v-487z" />
    <glyph glyph-name="lozenge" unicode="&#x25ca;" horiz-adv-x="631" 
d="M298 0l-244 340l244 339h34l244 -339l-244 -340h-34zM315 31l222 310l-222 310l-222 -311z" />
    <glyph glyph-name="blacklowerrighttriangle" unicode="&#x25e2;" 
d="M191 9l-126 471l471 -127z" />
    <glyph glyph-name="blacklowerlefttriangle" unicode="&#x25e3;" 
d="M65 9l126 471l345 -344z" />
    <glyph glyph-name="blackupperlefttriangle" unicode="&#x25e4;" 
d="M536 9l-471 127l344 344z" />
    <glyph glyph-name="blackupperrighttriangle" unicode="&#x25e5;" 
d="M409 9l-344 344l471 127z" />
    <glyph glyph-name="heart" unicode="&#x2665;" horiz-adv-x="793" 
d="M396 509q26 185 167 185q81 0 127 -52t46 -136q0 -56 -38 -122t-88 -120.5t-114 -132t-100 -141.5q-36 64 -99.5 141.5t-113.5 132t-88 120.5t-38 122q0 84 46 136t127 52q144 0 166 -185z" />
    <glyph glyph-name="Rcedilla" unicode="&#xe001;" horiz-adv-x="715" 
d="M722 0h-147q-49 0 -67 12.5t-36 53.5l-121 256q-7 -1 -18 -1q-31 0 -67 2v-231q0 -36 11 -49.5t51 -19.5l47 -7v-16q-31 0 -89 0.5t-89 0.5t-89 -0.5t-89 -0.5v16l47 7q40 6 51 19.5t11 49.5v495q0 36 -11 49.5t-51 19.5l-47 7v16h314q293 0 293 -177q0 -66 -46.5 -106
t-115.5 -54q29 -20 58 -76l85 -162q22 -42 38 -58.5t46 -22.5l31 -7v-16zM266 662v-321q25 -1 67 -1q73 0 110.5 37.5t37.5 121.5q0 91 -37 127t-116 36h-62zM481 -148q0 -45 -37 -70.5t-87 -25.5q-53 0 -98 28l9 12q30 -15 61 -15q30 0 47.5 19.5t17.5 55.5q0 58 -44 58
q-17 0 -35 -8l-5 9q38 19 76 19q40 0 67.5 -21t27.5 -61z" />
    <glyph glyph-name="rcedilla" unicode="&#xe002;" horiz-adv-x="456" 
d="M306 0q-24 0 -73 0.5t-74 0.5t-69.5 -0.5t-69.5 -0.5v15l32 6q29 4 38 15.5t9 42.5v300q0 35 -12.5 47t-48.5 15l-33 2v14l188 41l19 -7q-7 -94 -7 -301q0 75 10 141q27 173 142 173q41 0 64.5 -22.5t23.5 -59.5t-22 -58.5t-55 -21.5q-29 0 -46 15t-19 41q-1 5 -1 14v12
q0 12 -10 12q-18 0 -35.5 -28.5t-27.5 -80.5q-11 -61 -11 -137v-108q0 -32 10.5 -44t40.5 -17l37 -6v-15zM253 -148q0 -45 -37 -70.5t-87 -25.5q-53 0 -98 28l9 12q30 -15 61 -15q30 0 47.5 19.5t17.5 55.5q0 58 -44 58q-17 0 -35 -8l-5 9q38 19 76 19q40 0 67.5 -21
t27.5 -61z" />
    <glyph glyph-name="Tcedilla" unicode="&#xe003;" horiz-adv-x="679" 
d="M521 16v-16q-31 0 -90.5 0.5t-90.5 0.5q-32 0 -92 -0.5t-91 -0.5v16l48 7q41 6 53 20.5t12 50.5v567h-50q-57 0 -93.5 -45t-86.5 -175h-16l5 238h621l5 -238h-16q-50 130 -86.5 175t-93.5 45h-50v-567q0 -36 12 -50.5t53 -20.5zM438 -148q0 -45 -37 -70.5t-87 -25.5
q-53 0 -98 28l9 12q30 -15 61 -15q30 0 47.5 19.5t17.5 55.5q0 58 -44 58q-17 0 -35 -8l-5 9q38 19 76 19q40 0 67.5 -21t27.5 -61z" />
    <glyph glyph-name="tcedilla" unicode="&#xe004;" horiz-adv-x="386" 
d="M363 128q-15 -75 -47.5 -108t-96.5 -33q-61 0 -96.5 32.5t-35.5 97.5v329l-94 15v17l72 11q32 5 48.5 21.5t24.5 53.5l16 75h59l-5 -152h156v-28l-156 -7v-343q0 -47 14 -65t43 -18q56 0 81 105zM295 -148q0 -45 -37 -70.5t-87 -25.5q-53 0 -98 28l9 12q30 -15 61 -15
q30 0 47.5 19.5t17.5 55.5q0 58 -44 58q-17 0 -35 -8l-5 9q38 19 76 19q40 0 67.5 -21t27.5 -61z" />
    <glyph glyph-name="commaaccent" unicode="&#xf6c3;" horiz-adv-x="450" 
d="M211 -259l-9 15q75 43 75 103q-12 -23 -41 -23q-23 0 -37.5 15t-14.5 38q0 25 17 42t43 17q29 0 45.5 -18.5t16.5 -47.5q0 -90 -95 -141z" />
    <glyph glyph-name="s_t" unicode="&#xfb06;" horiz-adv-x="832" 
d="M405 140q0 -72 -51 -113.5t-130 -41.5q-94 0 -146 47l-30 -46h-8v208h18q30 -102 70.5 -147.5t94.5 -45.5q43 0 69.5 20.5t26.5 60.5q0 39 -28.5 62.5t-100.5 49.5q-66 24 -104 60t-38 100q0 62 48.5 104.5t113.5 42.5q62 0 101 -39q-35 55 -35 135q0 72 55 130.5
t147 58.5q81 0 130.5 -51t49.5 -133q0 -50 -4 -115h156v-28l-156 -7v-343q0 -47 14 -65t43 -18q56 0 81 105l17 -3q-15 -75 -47.5 -108t-96.5 -33q-61 0 -96.5 32.5t-35.5 97.5v329l-94 15v17l71 11q33 5 54 30q33 38 33 101q0 64 -33 105.5t-94 41.5q-80 0 -128 -53
t-48 -120q0 -68 27 -115.5t83 -94.5q-5 -31 -33 -31q-16 0 -27 14.5t-26 47.5q-30 71 -100 71q-37 0 -60 -21t-23 -55q0 -38 27.5 -60t99.5 -49q143 -50 143 -161z" />
    <glyph glyph-name="A.small" horiz-adv-x="593" 
d="M591 16v-16q-25 0 -70.5 0.5t-70.5 0.5t-72.5 -0.5t-71.5 -0.5v16l37 5q29 4 34.5 18.5t-7.5 48.5l-26 71h-195l-6 -15q-16 -42 -18.5 -64.5t8.5 -35.5t39 -20l36 -8v-16q-18 0 -51 0.5t-51 0.5t-52.5 -0.5t-51.5 -0.5v16l25 7q31 8 50 33t46 93l107 271l37 108h68
l164 -423q20 -51 33 -66t37 -19zM249 415l-92 -235h179z" />
    <glyph glyph-name="B.small" horiz-adv-x="565" 
d="M20 0v16l35 6q32 5 40.5 14.5t8.5 38.5v376q0 29 -8.5 38.5t-40.5 14.5l-35 6v16h276q93 0 151 -29t58 -92q0 -106 -170 -126v-3q196 -11 196 -132q0 -70 -57.5 -107t-167.5 -37h-286zM230 285h45q101 0 101 117q0 57 -23.5 81.5t-75.5 24.5h-47v-223zM230 267v-210
q0 -22 10 -30.5t34 -8.5h18q50 0 75 31t25 100q0 118 -115 118h-47z" />
    <glyph glyph-name="C.small" horiz-adv-x="568" 
d="M494 -10l-35 51q-58 -55 -147 -55q-116 0 -197.5 75t-81.5 201t82 202t195 76q91 0 149 -55l35 51h8v-223h-14q-39 110 -79 160t-97 50q-142 0 -142 -260t144 -260q56 0 95.5 48.5t78.5 152.5h14v-214h-8z" />
    <glyph glyph-name="D.small" horiz-adv-x="615" 
d="M20 0v16l35 6q32 5 40.5 14.5t8.5 38.5v376q0 29 -8.5 38.5t-40.5 14.5l-35 6v16h267q131 0 213 -65t82 -198t-82.5 -198t-211.5 -65h-268zM274 18h15q156 0 156 245t-158 245h-57v-451q0 -22 10 -30.5t34 -8.5z" />
    <glyph glyph-name="E.small" horiz-adv-x="541" 
d="M501 190l-5 -190h-476v16l35 6q32 5 40.5 14.5t8.5 38.5v376q0 29 -8.5 38.5t-40.5 14.5l-35 6v16h454l6 -180h-16q-37 93 -72 127.5t-89 34.5h-73v-228h35q36 0 57 25t44 93h13q-1 -42 -1 -128t1 -129h-13q-25 72 -44.5 96.5t-56.5 24.5h-35v-205q0 -22 10 -30t34 -8h32
q64 0 101.5 35t78.5 136h15z" />
    <glyph glyph-name="F.small" horiz-adv-x="516" 
d="M322 16v-16q-26 0 -76.5 0.5t-76.5 0.5q-25 0 -74.5 -0.5t-74.5 -0.5v16l35 6q32 5 40.5 14.5t8.5 37.5v377q0 29 -8.5 38.5t-40.5 14.5l-35 6v16h456l5 -191h-16q-40 97 -74.5 135t-87.5 38h-73v-230h35q36 0 57 25.5t44 93.5h13q-1 -43 -1 -128q0 -87 1 -130h-13
q-24 72 -44 96.5t-57 24.5h-35v-181q0 -29 10.5 -40.5t43.5 -16.5z" />
    <glyph glyph-name="G.small" horiz-adv-x="598" 
d="M505 -12l-50 61q-55 -63 -155 -63q-110 0 -188.5 75.5t-78.5 200.5q0 126 83 202t198 76q93 0 149 -56l36 50h7v-217h-14q-40 108 -80 157t-97 49q-70 0 -107.5 -66t-37.5 -194q0 -260 134 -260q93 0 93 93v75q0 26 -9.5 36.5t-39.5 15.5l-41 6v16q48 -1 139 -1
q95 0 143 1v-16l-38 -6q-26 -5 -34.5 -15.5t-8.5 -36.5v-76l4 -107h-7z" />
    <glyph glyph-name="H.small" horiz-adv-x="680" 
d="M660 16v-16q-25 0 -73 0.5t-73 0.5t-72.5 -0.5t-72.5 -0.5v16l34 6q30 5 38.5 15t8.5 38v184h-220v-184q0 -28 8 -38t38 -15l34 -6v-16q-25 0 -72 0.5t-72 0.5q-26 0 -73.5 -0.5t-72.5 -0.5v16l35 6q32 5 40.5 14.5t8.5 38.5v376q0 29 -8.5 38.5t-40.5 14.5l-35 6v16
q25 0 72.5 -0.5t73.5 -0.5q25 0 72 0.5t72 0.5v-16l-34 -6q-30 -5 -38 -15t-8 -38v-172h220v172q0 28 -8.5 37.5t-38.5 15.5l-34 6v16q25 0 72.5 -0.5t72.5 -0.5t73 0.5t73 0.5v-16l-36 -6q-32 -5 -40.5 -15t-8.5 -38v-376q0 -28 8.5 -38t40.5 -15z" />
    <glyph glyph-name="I.small" horiz-adv-x="335" 
d="M315 0q-26 0 -74 0.5t-73 0.5q-26 0 -74 -0.5t-74 -0.5v16l36 6q31 5 39.5 14.5t8.5 38.5v376q0 29 -8.5 38.5t-39.5 14.5l-36 6v16q26 0 74 -0.5t74 -0.5q25 0 73 0.5t74 0.5v-16l-36 -6q-32 -5 -40.5 -15t-8.5 -38v-376q0 -28 8.5 -38t40.5 -15l36 -6v-16z" />
    <glyph glyph-name="J.small" horiz-adv-x="469" 
d="M153 -13q-66 0 -107 31.5t-41 83.5q0 36 21.5 60t56.5 24q30 0 48.5 -18.5t18.5 -47.5q0 -55 -55 -64q-18 -1 -18 -15t20.5 -25.5t52.5 -11.5q48 0 76 32t28 96v314q0 29 -10.5 41t-43.5 17l-37 6v16q25 0 74 -0.5t75 -0.5t74.5 0.5t74.5 0.5v-16l-36 -6
q-32 -5 -40.5 -15t-8.5 -38v-246q0 -103 -66 -160.5t-157 -57.5z" />
    <glyph glyph-name="K.small" horiz-adv-x="643" 
d="M645 17v-17q-25 0 -72 0.5t-73 0.5q-25 0 -75.5 -0.5t-75.5 -0.5v16l23 4q32 6 32 19q0 12 -23 39l-148 184l-1 -1l1 1l153 151q46 45 46 64t-43 28l-28 5v16q42 -1 125 -1t126 1v-16l-26 -5q-56 -11 -95 -33t-91 -71l-71 -67l198 -242q34 -40 52 -52.5t47 -18.5zM309 0
q-25 0 -72.5 0.5t-71.5 0.5q-25 0 -72.5 -0.5t-72.5 -0.5v16l35 6q33 5 41 14t8 37v378q0 29 -8.5 38.5t-40.5 14.5l-35 6v16q25 0 73.5 -0.5t74.5 -0.5q25 0 73 0.5t73 0.5v-16l-35 -6q-32 -5 -40.5 -15t-8.5 -38v-378q0 -28 8 -37t38 -14l33 -6v-16z" />
    <glyph glyph-name="L.small" horiz-adv-x="536" 
d="M498 0h-478v16l35 6q32 5 40.5 14.5t8.5 38.5v376q0 29 -8.5 38.5t-40.5 14.5l-35 6v16q25 0 74.5 -0.5t74.5 -0.5q26 0 75 0.5t75 0.5v-16l-38 -6q-33 -5 -42 -15.5t-9 -39.5v-392q0 -22 10 -30.5t33 -8.5h39q56 0 95 39.5t81 148.5h15z" />
    <glyph glyph-name="M.small" horiz-adv-x="770" 
d="M540 471l-183 -472h-45l-187 465v-352q0 -46 12 -64t46 -26l27 -6v-16q-16 0 -47 0.5t-48 0.5t-48 -0.5t-47 -0.5v16l26 6q34 9 45 26.5t11 63.5v339q0 29 -7.5 38.5t-39.5 14.5l-35 6v16h219l151 -380l148 380h212v-16l-36 -6q-31 -5 -39.5 -14.5t-8.5 -38.5v-376
q0 -29 8.5 -38.5t39.5 -14.5l36 -6v-16q-25 0 -73 0.5t-74 0.5q-25 0 -73.5 -0.5t-73.5 -0.5v16l36 6q31 5 39.5 14.5t8.5 38.5v396z" />
    <glyph glyph-name="N.small" horiz-adv-x="610" 
d="M424 0l-299 452v-339q0 -47 12 -65t46 -26l27 -6v-16q-16 0 -47 0.5t-48 0.5t-48 -0.5t-47 -0.5v16l26 6q34 9 45 26.5t11 64.5v336q0 28 -9 39t-39 16l-34 6v16h207l260 -387v276q0 46 -11.5 63.5t-45.5 25.5l-27 6v16q17 0 48 -0.5t47 -0.5q17 0 48 0.5t47 0.5v-16
l-26 -6q-33 -8 -45 -26t-12 -63v-415h-86z" />
    <glyph glyph-name="O.small" horiz-adv-x="614" 
d="M581 263q0 -127 -80 -202t-193 -75q-114 0 -194.5 75t-80.5 202q0 128 80.5 202.5t194.5 74.5q113 0 193 -74.5t80 -202.5zM169 263q0 -260 139 -260q138 0 138 260t-138 260q-139 0 -139 -260z" />
    <glyph glyph-name="P.small" horiz-adv-x="548" 
d="M230 511v-265q28 -2 50 -2q112 0 112 133q0 70 -28.5 102t-86.5 32h-47zM322 13v-13q-26 0 -76.5 0.5t-76.5 0.5q-25 0 -74.5 -0.5t-74.5 -0.5v13l35 6q32 5 40.5 15t8.5 39v380q0 28 -8.5 38.5t-40.5 15.5l-35 6v13h257q245 0 245 -149q0 -73 -66.5 -110.5t-175.5 -37.5
q-36 0 -50 2v-153q0 -30 10 -42t44 -17z" />
    <glyph glyph-name="Q.small" horiz-adv-x="614" 
d="M594 -222q-39 0 -73 15.5t-59 38t-49 44.5t-54.5 37.5t-63.5 15.5q-40 0 -73 -18.5t-57 -37t-43 -18.5q-33 0 -42 32q47 36 131 47q76 37 165 71q-43 -15 -77 -15q-109 0 -187.5 74t-78.5 199q0 128 80.5 202.5t194.5 74.5q113 0 193 -74.5t80 -202.5q0 -95 -45 -160
t-115 -93q-184 -78 -205 -88q52 24 108 24q80 0 174 -29t136 -29q50 0 73 14t31 45h11q-17 -169 -155 -169zM169 263q0 -259 139 -259q138 0 138 259q0 260 -138 260q-139 0 -139 -260z" />
    <glyph glyph-name="R.small" horiz-adv-x="594" 
d="M597 0h-126q-41 0 -56 10.5t-31 45.5l-89 192h-15q-24 0 -50 2v-175q0 -28 8.5 -38t40.5 -15l35 -6v-16q-25 0 -73 0.5t-73 0.5q-26 0 -74.5 -0.5t-73.5 -0.5v16l35 6q32 5 40.5 14.5t8.5 38.5v376q0 29 -8.5 38.5t-40.5 14.5l-35 6v16h264q236 0 236 -136q0 -51 -36 -82
t-90 -42q24 -14 51 -64l66 -125q16 -30 28 -41.5t38 -15.5l20 -4v-16zM230 509v-241q40 -2 51 -2q53 0 80.5 28t27.5 93q0 70 -27 96t-85 26h-47z" />
    <glyph glyph-name="S.small" horiz-adv-x="485" 
d="M440 151q0 -79 -55.5 -122t-133.5 -43q-100 0 -155 52l-32 -47h-7v221h14q35 -114 77 -161.5t103 -47.5q47 0 75 23.5t28 65.5q0 44 -32.5 68.5t-101.5 47.5q-160 54 -160 171q0 73 53 117t133 44t130 -48l30 43h6v-204h-14q-31 104 -65 148t-88 44q-49 0 -73.5 -23.5
t-24.5 -60.5q0 -42 33.5 -67.5t101.5 -49.5q78 -27 118 -65t40 -106z" />
    <glyph glyph-name="T.small" horiz-adv-x="557" 
d="M430 16v-16q-26 0 -76 0.5t-75 0.5q-26 0 -76 -0.5t-76 -0.5v16l36 6q33 5 42.5 15t9.5 38v433h-31q-43 0 -74 -35.5t-73 -138.5h-13l3 192h503l3 -192h-12q-43 103 -74 138.5t-75 35.5h-31v-433q0 -28 9.5 -38t43.5 -15z" />
    <glyph glyph-name="U.small" horiz-adv-x="620" 
d="M315 -11q-110 0 -164 49.5t-54 151.5v261q0 28 -8.5 38t-40.5 15l-35 6v16q25 0 73.5 -0.5t73.5 -0.5q26 0 74 0.5t73 0.5v-16l-35 -6q-32 -5 -40.5 -15t-8.5 -38v-266q0 -85 35 -122.5t103 -37.5q142 0 142 165v225q0 46 -11 63.5t-46 25.5l-26 6v16q16 0 47 -0.5
t48 -0.5t48 0.5t47 0.5v-16l-26 -6q-34 -8 -46 -26t-12 -63v-225q0 -96 -49 -148.5t-162 -52.5z" />
    <glyph glyph-name="V.small" horiz-adv-x="597" 
d="M259 -1l-159 421q-17 48 -32.5 64.5t-42.5 21.5l-25 4v16q50 -1 149 -1t149 1v-16l-36 -5q-31 -4 -37.5 -18.5t4.5 -48.5l114 -324l103 270q24 62 17.5 86.5t-50.5 32.5l-35 7v16q36 -1 109 -1t110 1v-16l-24 -5q-36 -9 -58.5 -36t-48.5 -93l-106 -270l-37 -107h-64z" />
    <glyph glyph-name="W.small" horiz-adv-x="845" 
d="M238 -2l-141 423q-17 48 -31 64t-42 21l-24 4v16q50 -1 150 -1t149 1v-16l-37 -5q-30 -4 -37.5 -20t2.5 -47l92 -301l113 390h65l125 -390l77 244q20 69 11.5 91t-54.5 32l-31 6v16q37 -1 110 -1t110 1v-16l-23 -5q-37 -8 -59 -36t-43 -93l-83 -258l-36 -120h-63
l-126 380l-78 -258l-33 -122h-63z" />
    <glyph glyph-name="X.small" horiz-adv-x="649" 
d="M642 0q-27 0 -80 0.5t-80 0.5q-26 0 -79.5 -0.5t-80.5 -0.5v16l35 5q58 8 22 60l-95 142l-82 -100q-37 -46 -37 -68q0 -13 12 -19.5t42 -13.5l33 -6v-16q-20 0 -61 0.5t-62 0.5t-62 -0.5t-61 -0.5v16l22 5q46 11 77.5 33.5t80.5 81.5l87 103l-129 187q-31 46 -49.5 60.5
t-46.5 19.5l-25 4v16q51 -1 154 -1t155 1v-16l-33 -5q-28 -4 -31 -19t15 -41l84 -128l70 86q41 51 41 71q0 13 -11 19t-37 11l-33 6v16q38 -1 116 -1q77 0 116 1v-16l-25 -5q-42 -9 -71.5 -31t-80.5 -83l-75 -90l138 -198q34 -47 53.5 -62t49.5 -21l24 -4v-16z" />
    <glyph glyph-name="Y.small" horiz-adv-x="591" 
d="M444 0q-25 0 -75 0.5t-76 0.5t-76 -0.5t-76 -0.5v16l36 6q34 5 43.5 15t9.5 38v129l-131 239q-18 34 -33.5 46.5t-39.5 16.5l-25 4v16q50 -1 152 -1q101 0 152 1v-16l-39 -5q-29 -4 -33 -19.5t11 -43.5l103 -199l79 145q31 58 31 81q0 15 -12 22.5t-39 13.5l-28 5v16
q35 -1 106 -1t107 1v-16l-22 -5q-33 -8 -59.5 -33.5t-63.5 -93.5l-90 -164v-139q0 -28 9.5 -38t43.5 -15l35 -6v-16z" />
    <glyph glyph-name="Z.small" horiz-adv-x="537" 
d="M491 0h-457v14l312 494h-97q-68 0 -106 -34.5t-80 -138.5h-15l6 191h442v-14l-313 -494h107q68 0 109 37t82 145h15z" />
    <glyph glyph-name="zero.lp" horiz-adv-x="647" 
d="M603 340q0 -164 -76 -259.5t-204 -95.5q-127 0 -203 95.5t-76 259.5t76 259t203 95q128 0 204 -95t76 -259zM184 340q0 -168 30.5 -253.5t107.5 -85.5q78 0 110 85.5t32 253.5q0 167 -32 252.5t-110 85.5q-52 0 -83.5 -42.5t-43 -114t-11.5 -181.5z" />
    <glyph glyph-name="one.lp" horiz-adv-x="484" 
d="M74 0v16l43 7q42 7 55 22.5t13 53.5v440q0 43 -13.5 59.5t-53.5 19.5l-53 4v18l56 4q157 10 175 35h19q-4 -63 -4 -135v-445q0 -39 12.5 -54.5t55.5 -21.5l43 -7v-16q-32 0 -88.5 0.5t-83.5 0.5t-85.5 -0.5t-90.5 -0.5z" />
    <glyph glyph-name="two.lp" horiz-adv-x="563" 
d="M480 0h-433v34q94 82 209 214q121 140 121 279q0 75 -23.5 112.5t-77.5 37.5q-60 0 -94 -46t-34 -112q0 -88 53 -88q45 0 63 78l13 -1q-19 -132 -123 -132q-48 0 -80 33.5t-32 87.5q0 87 70 141.5t167 54.5q101 0 167 -47t66 -136q0 -38 -12.5 -70t-39.5 -61.5t-51 -50.5
t-67 -54.5t-68 -55.5q-19 -16 -67 -58t-75 -65q72 13 159 13h114q34 0 51 12t32 48l15 37h17z" />
    <glyph glyph-name="three.lp" horiz-adv-x="562" 
d="M533 215q0 -73 -50.5 -127t-119 -78.5t-139.5 -24.5q-96 0 -148 37.5t-52 95.5q0 36 22.5 62t60.5 26q33 0 52.5 -18.5t19.5 -48.5q0 -22 -9 -37t-20 -21t-20 -13.5t-9 -15.5q0 -19 27.5 -35t73.5 -16q77 0 126 56.5t49 152.5q0 84 -22.5 119t-74.5 35q-29 0 -54.5 -15
t-46 -30t-37.5 -15q-39 0 -39 41q15 8 73.5 22.5t85.5 30.5q91 54 91 164q0 116 -97 116q-60 0 -90.5 -37t-30.5 -89q0 -66 50 -66q44 0 57 71l12 -2q-8 -60 -38 -91.5t-78 -31.5t-76 27t-28 73q0 71 66 116.5t160 45.5q97 0 159 -33t62 -103q0 -19 -5.5 -35t-13 -28.5
t-24 -25.5t-30 -21.5t-39.5 -20.5t-44.5 -19.5t-53 -22t-56.5 -23.5q49 22 114 22q79 0 131.5 -41t52.5 -128z" />
    <glyph glyph-name="four.lp" horiz-adv-x="574" 
d="M41 239h245v180q0 119 8 198zM501 15v-15q-26 0 -76 0.5t-77 0.5q-26 0 -80 -0.5t-81 -0.5v15l43 6q33 5 44.5 18.5t11.5 46.5v127h-259l-9 26l293 440h99v-440h25q38 0 56 16.5t35 65.5l16 45h14l-23 -155q-66 2 -101 2h-22v-130q0 -33 9.5 -45t42.5 -17z" />
    <glyph glyph-name="five.lp" horiz-adv-x="554" 
d="M219 -15q-91 0 -141.5 36.5t-50.5 97.5q0 38 23 63t61 25q31 0 50.5 -18.5t19.5 -48.5q0 -28 -14.5 -44t-28.5 -25t-14 -20q0 -19 26 -34.5t70 -15.5q74 0 117 56t43 153q0 101 -30 147t-94 46q-84 0 -129 -85l-46 4l34 361h22q73 -22 182 -22q135 0 179 30l7 -2
q-32 -94 -142 -125t-240 -10l-19 -196q69 64 172 64q66 0 118 -20t87 -68t35 -119q0 -75 -47.5 -129t-113 -77.5t-136.5 -23.5z" />
    <glyph glyph-name="six.lp" 
d="M172 212q0 100 44 155t126 55q96 0 157 -56.5t61 -154.5q0 -101 -76 -163.5t-178 -62.5q-116 0 -189 81t-73 242q0 183 93.5 284.5t219.5 101.5q90 0 138.5 -34.5t48.5 -86.5q0 -38 -22 -61.5t-59 -23.5q-32 0 -52 18t-20 49q0 20 8 34.5t17 21t17 14.5t8 17q0 14 -21 25
t-61 11q-99 0 -143 -109t-44 -357zM307 1q117 0 117 201q0 191 -111 191q-59 0 -92.5 -51t-33.5 -130q0 -211 120 -211z" />
    <glyph glyph-name="seven.lp" horiz-adv-x="536" 
d="M256 -17q-40 0 -60 22t-20 59q0 134 144 338q20 28 45 59.5t52 65t39 48.5h-285q-39 0 -58 -13t-32 -48l-16 -43h-18l33 228h16q0 -11 5 -15.5t19 -4.5h401v-39q-41 -54 -64 -88t-49.5 -84.5t-42.5 -99.5q-31 -95 -31 -300q0 -39 -21 -62t-57 -23z" />
    <glyph glyph-name="eight.lp" horiz-adv-x="624" 
d="M312 -15q-119 0 -196.5 50t-77.5 142q0 76 61.5 124t158.5 60q-80 11 -131.5 53t-51.5 108q0 83 66.5 127.5t170.5 44.5q105 0 171 -44.5t66 -127.5q0 -66 -51.5 -108t-131.5 -53q97 -12 158.5 -60t61.5 -124q0 -92 -77.5 -142t-196.5 -50zM204 524q0 -154 108 -154
t108 154q0 76 -28.5 115t-79.5 39q-50 0 -79 -39.5t-29 -114.5zM181 176q0 -83 35 -128t96 -45t96 45t35 128q0 84 -34 128.5t-97 44.5t-97 -44.5t-34 -128.5z" />
    <glyph glyph-name="nine.lp" 
d="M415 467q0 211 -121 211q-117 0 -117 -201q0 -191 111 -191q59 0 93 51t34 130zM244 -15q-89 0 -138 34.5t-49 85.5q0 38 22 61.5t59 23.5q32 0 52 -18t20 -48q0 -25 -12.5 -41t-25 -26t-12.5 -20q0 -15 21 -25.5t61 -10.5q99 0 143 109t44 357q0 -101 -44 -155.5
t-126 -54.5q-96 0 -157 56t-61 154q0 102 76 164.5t178 62.5q115 0 188.5 -81.5t73.5 -242.5q0 -94 -27 -169t-72 -121t-100 -70.5t-114 -24.5z" />
    <glyph glyph-name="zero.ot" 
d="M549 263q0 -127 -73.5 -202.5t-175.5 -75.5t-175.5 75.5t-73.5 202.5q0 128 73.5 203t175.5 75t175.5 -75t73.5 -203zM190 263q0 -262 110 -262t110 262t-110 262t-110 -262z" />
    <glyph glyph-name="one.ot" 
d="M105 0v16l64 7q52 6 69.5 22t17.5 54v288q0 43 -17.5 59t-73.5 20l-67 4v18l68 4q175 9 199 35h21q-5 -78 -5 -135v-293q0 -38 16 -53.5t70 -22.5l63 -7v-16q-38 0 -107.5 0.5t-102.5 0.5t-104.5 -0.5t-110.5 -0.5z" />
    <glyph glyph-name="two.ot" 
d="M499 -72h-16v23q0 27 -10.5 38t-36.5 11h-364v36q151 98 204 144q116 103 116 218q0 127 -96 127q-56 0 -90 -41.5t-34 -95.5q0 -77 50 -77q41 0 55 71l12 -1q-7 -60 -39 -92.5t-80 -32.5q-47 0 -74 29.5t-27 76.5q0 75 66 127t164 52q99 0 161 -43t62 -116
q0 -27 -9.5 -50.5t-21 -39.5t-37.5 -36t-43 -30t-54 -31.5t-54 -31.5q-20 -12 -61.5 -35.5t-60.5 -35.5q64 11 132 11h217z" />
    <glyph glyph-name="three.ot" 
d="M540 64q0 -73 -50 -128t-117 -79.5t-135 -24.5q-88 0 -140 37t-52 95q0 36 22.5 62.5t59.5 26.5q32 0 51.5 -18.5t19.5 -48.5q0 -27 -14.5 -43.5t-28.5 -26.5t-14 -21q0 -19 24.5 -33t70.5 -14q73 0 119.5 57t46.5 154q0 84 -21.5 118.5t-70.5 34.5q-36 0 -75 -29.5
t-56 -29.5q-37 0 -37 41q14 7 69.5 21t80.5 29q87 55 87 167q0 114 -92 114q-55 0 -84 -37t-29 -89q0 -65 46 -65q41 0 54 69l12 -2q-16 -120 -112 -120q-46 0 -73.5 26t-27.5 72q0 72 62 117t155 45q95 0 155.5 -33t60.5 -103q0 -16 -3 -30.5t-11.5 -27t-16 -22.5
t-24.5 -21t-28.5 -18t-36 -18t-39 -17.5t-46 -19.5t-49.5 -21q49 22 104 22q80 0 131.5 -40t51.5 -128z" />
    <glyph glyph-name="four.ot" 
d="M33 86l286 440h99v-440h20q37 0 55.5 16.5t34.5 65.5l16 45h13l-23 -155q-64 2 -98 2h-18v-130q0 -32 10 -44t42 -18l37 -6v-15q-26 0 -75.5 0.5t-74.5 0.5q-26 0 -79.5 -0.5t-79.5 -0.5v15l42 6q33 6 44 19t11 46v127h-252zM60 88l235 -1v162q0 126 7 210z" />
    <glyph glyph-name="five.ot" 
d="M247 -168q-89 0 -140.5 37t-51.5 95q0 36 22.5 62.5t59.5 26.5q32 0 51.5 -18t19.5 -48q0 -22 -9 -37.5t-19.5 -22t-19.5 -15t-9 -17.5q0 -19 25 -33t71 -14q71 0 112 56t41 153q0 101 -29.5 147t-90.5 46q-80 0 -125 -85l-44 4l32 361h23q70 -22 176 -22q131 0 175 30
l6 -2q-30 -94 -134 -124t-236 -10l-18 -196q66 63 168 63q100 0 166.5 -51t66.5 -156q0 -75 -46.5 -129t-110 -77.5t-132.5 -23.5z" />
    <glyph glyph-name="six.ot" 
d="M182 211q0 100 44.5 154.5t124.5 54.5q91 0 150 -54.5t59 -154.5q0 -102 -75 -164t-174 -62q-112 0 -183 81t-71 242q0 94 26.5 169.5t71.5 121.5t99.5 70.5t114.5 24.5q85 0 131.5 -34t46.5 -86q0 -38 -21.5 -61t-57.5 -23q-31 0 -50.5 17.5t-19.5 46.5q0 25 12 41
t24 26.5t12 20.5q0 15 -18 25.5t-56 10.5q-96 0 -143 -111t-47 -356zM197 210q0 -209 116 -209q113 0 113 203q0 186 -107 186q-56 0 -89 -50.5t-33 -129.5z" />
    <glyph glyph-name="seven.ot" 
d="M268 -170q-38 0 -57.5 21.5t-19.5 57.5q0 78 48 168t133 203q22 31 63 80.5t50 61.5h-293q-40 0 -59 -12.5t-32 -48.5l-16 -43h-19l36 228h15q0 -11 5 -15.5t19 -4.5h408v-42q-5 -6 -32 -40.5t-36 -47t-28 -39.5t-31.5 -49t-22.5 -46q-28 -65 -39 -141t-11 -200
q0 -43 -22 -67t-59 -24z" />
    <glyph glyph-name="eight.ot" 
d="M302 -15q-114 0 -188.5 50t-74.5 142q0 76 58.5 124t151.5 60q-77 11 -126.5 52.5t-49.5 107.5q0 84 64.5 128.5t164.5 44.5q99 0 163 -44.5t64 -128.5q0 -66 -49 -107.5t-126 -52.5q93 -12 152 -60t59 -124q0 -92 -75 -142t-188 -50zM200 524q0 -154 102 -154t102 154
q0 75 -27 114.5t-75 39.5t-75 -39.5t-27 -114.5zM180 176q0 -83 32 -128t90 -45t90 45t32 128q0 84 -31.5 128.5t-90.5 44.5q-60 0 -91 -44.5t-31 -128.5z" />
    <glyph glyph-name="nine.ot" 
d="M405 317q0 208 -113 208q-110 0 -110 -203q-2 -185 104 -185q56 0 87.5 50.5t31.5 129.5zM236 -168q-85 0 -131.5 34t-46.5 86q0 38 21.5 61t57.5 23q31 0 50.5 -17.5t19.5 -47.5q0 -24 -12 -40t-24 -26.5t-12 -20.5q0 -15 18 -25.5t56 -10.5q96 0 141.5 111t45.5 357
q0 -101 -43 -155t-123 -54q-90 0 -148 54t-58 154q0 102 74 164t173 62q112 0 181.5 -80.5t69.5 -242.5q0 -94 -26.5 -169.5t-70.5 -121.5t-99 -70.5t-114 -24.5z" />
    <glyph glyph-name="zero.lt" 
d="M559 340q0 -167 -70.5 -261t-188.5 -94q-117 0 -187.5 94t-70.5 261t70.5 260.5t187.5 93.5q118 0 188.5 -93.5t70.5 -260.5zM177 340q0 -170 27 -254.5t95 -84.5q70 0 97.5 84.5t27.5 254.5q0 169 -27.5 253.5t-97.5 84.5q-68 0 -95 -84t-27 -254z" />
    <glyph glyph-name="one.lt" 
d="M93 0v16l64 7q55 7 73.5 22.5t18.5 53.5v440q0 43 -18 59t-77 20l-70 4v18l69 4q182 9 204 35h22q-5 -59 -5 -135v-445q0 -38 17 -53.5t73 -22.5l64 -7v-16q-41 0 -111 0.5t-104 0.5q-35 0 -107.5 -0.5t-112.5 -0.5z" />
    <glyph glyph-name="two.lt" 
d="M491 0h-421v36q102 94 201 208q121 143 121 289q0 144 -100 144q-57 0 -89.5 -46.5t-32.5 -112.5q0 -85 50 -85q21 0 36 15.5t25 59.5l13 -1q-19 -128 -121 -128q-47 0 -77 32t-30 86q0 88 67 142t162 54q99 0 164 -45.5t65 -133.5q0 -37 -12 -69.5t-39.5 -63.5t-51 -52
t-67 -56.5t-66.5 -55.5q-29 -26 -79.5 -71t-56.5 -50q74 12 158 12h108q33 0 49.5 12t30.5 48l14 37h18z" />
    <glyph glyph-name="three.lt" 
d="M240 -15q-89 0 -140.5 37t-51.5 95q0 37 22 63t59 26q32 0 52 -18.5t20 -48.5q0 -27 -14.5 -43.5t-28.5 -26.5t-14 -21q0 -19 24 -33t70 -14q73 0 120 57t47 154q0 84 -22 118.5t-71 34.5q-36 0 -75 -29.5t-56 -29.5q-37 0 -37 40q15 8 70 22t80 29q88 55 88 167
q0 55 -24 84.5t-69 29.5q-55 0 -83.5 -37t-28.5 -89q0 -65 46 -65q41 0 54 69l12 -2q-18 -120 -113 -120q-45 0 -72.5 26t-27.5 72q0 72 62 117t155 45q94 0 155 -33t61 -103q0 -18 -5 -34.5t-12 -28.5t-22.5 -25t-26.5 -21t-36.5 -20t-40 -18.5t-47.5 -20.5t-50 -21
q38 16 90 16q79 0 130.5 -40t51.5 -128q0 -73 -50 -128t-117 -79.5t-134 -24.5z" />
    <glyph glyph-name="four.lt" 
d="M41 240l286 439h99v-439h20q37 0 55 16t35 65l15 45h14l-23 -154q-16 0 -48.5 0.5t-49.5 0.5h-18v-130q0 -33 9.5 -44.5t41.5 -17.5l38 -6v-15q-26 0 -75.5 0.5t-75.5 0.5t-79.5 -0.5t-78.5 -0.5v15l41 6q33 6 44 19t11 46v127h-252zM67 241l235 -1v163q0 125 7 209z" />
    <glyph glyph-name="five.lt" 
d="M247 -15q-89 0 -140.5 37t-51.5 95q0 36 22.5 62.5t59.5 26.5q32 0 51.5 -18t19.5 -49q0 -21 -9 -36.5t-19.5 -22t-19.5 -15t-9 -17.5q0 -19 25 -33t71 -14q71 0 112 56t41 153q0 101 -29.5 147t-90.5 46q-80 0 -125 -85l-44 4l32 361h23q70 -22 176 -22q131 0 175 30
l6 -2q-30 -94 -134 -124t-236 -10l-18 -196q66 63 168 63q100 0 166.5 -51t66.5 -156q0 -75 -46.5 -129t-110 -77.5t-132.5 -23.5z" />
    <glyph glyph-name="six.lt" 
d="M182 211q0 100 44.5 154.5t124.5 54.5q91 0 150 -54.5t59 -154.5q0 -102 -75 -164t-174 -62q-112 0 -183 81t-71 242q0 94 26.5 169.5t71.5 121.5t99.5 70.5t114.5 24.5q85 0 131.5 -34t46.5 -86q0 -38 -21.5 -61t-57.5 -23q-31 0 -50.5 17.5t-19.5 46.5q0 25 12 41
t24 26.5t12 20.5q0 15 -18 25.5t-56 10.5q-96 0 -143 -111t-47 -356zM197 210q0 -209 116 -209q113 0 113 203q0 186 -107 186q-56 0 -89 -50.5t-33 -129.5z" />
    <glyph glyph-name="seven.lt" 
d="M276 -17q-38 0 -57.5 21t-19.5 58q0 78 47.5 167.5t132.5 203.5q17 23 37.5 48.5t43.5 53t33 40.5h-294q-39 0 -58.5 -12.5t-32.5 -48.5l-16 -43h-19l36 228h16q0 -11 5 -15.5t19 -4.5h407v-42q-10 -13 -32.5 -41.5t-34.5 -45t-29.5 -41t-30.5 -47.5t-23 -47
q-28 -65 -38.5 -140.5t-10.5 -199.5q0 -44 -22 -68t-59 -24z" />
    <glyph glyph-name="eight.lt" 
d="M302 -15q-114 0 -188.5 50t-74.5 142q0 76 58.5 124t151.5 60q-77 11 -126.5 52.5t-49.5 107.5q0 84 64.5 128.5t164.5 44.5q99 0 163 -44.5t64 -128.5q0 -66 -49 -107.5t-126 -52.5q93 -12 152 -60t59 -124q0 -92 -75 -142t-188 -50zM200 524q0 -154 102 -154t102 154
q0 75 -27 114.5t-75 39.5t-75 -39.5t-27 -114.5zM180 176q0 -83 32 -128t90 -45t90 45t32 128q0 84 -31.5 128.5t-90.5 44.5q-60 0 -91 -44.5t-31 -128.5z" />
    <glyph glyph-name="nine.lt" 
d="M405 470q0 208 -113 208q-110 0 -110 -203q-2 -185 104 -185q56 0 87.5 50.5t31.5 129.5zM236 -15q-85 0 -131.5 34t-46.5 86q0 38 21.5 61t57.5 23q31 0 50.5 -17.5t19.5 -46.5q0 -25 -12 -41t-24 -26.5t-12 -20.5q0 -15 18 -25.5t56 -10.5q96 0 141.5 111t45.5 357
q0 -101 -43 -155t-123 -54q-90 0 -148 54t-58 154q0 102 74 164t173 62q112 0 181.5 -80.5t69.5 -242.5q0 -94 -26.5 -169.5t-70.5 -121.5t-99 -70.5t-114 -24.5z" />
    <glyph glyph-name="dollar.lp" horiz-adv-x="539" 
d="M270 420l35 251h-8q-78 0 -117.5 -33.5t-39.5 -81.5q0 -50 32 -79.5t98 -56.5zM249 5q82 0 123.5 33t41.5 86q0 54 -36 86t-106 58l-37 -263h14zM506 188q0 -90 -73 -144.5t-184 -54.5h-16l-16 -110h-25l16 112q-93 7 -144.5 48t-51.5 103q0 35 21.5 58.5t54.5 23.5
q29 0 48 -18t19 -47q0 -19 -7.5 -32.5t-16 -19.5t-16 -14t-7.5 -17q0 -23 27.5 -42.5t74.5 -25.5l39 268l-3 1q-99 34 -149 84t-50 129q0 90 71 143.5t179 53.5h11l8 57h24l-8 -59q82 -7 130.5 -46t48.5 -93q0 -34 -21 -57t-54 -23q-29 0 -48 18t-19 46q0 19 7.5 33t16 19.5
t16 13.5t7.5 17q0 18 -23.5 34t-63.5 22l-36 -258q16 -5 20 -7q44 -16 74 -32t59.5 -41t44.5 -61t15 -82z" />
    <glyph glyph-name="cent.lp" horiz-adv-x="538" 
d="M215 183l91 393q-70 -5 -112.5 -67.5t-42.5 -154.5q0 -109 64 -171zM215 84l-34 -147h-23l36 154q-65 26 -105.5 86t-40.5 145q0 122 79.5 195.5t182.5 73.5l26 112h22l-26 -112q74 -4 117.5 -38t43.5 -84q0 -34 -20 -56t-54 -22q-30 0 -49 17t-19 45q0 25 12.5 40t25 24
t12.5 18q0 16 -22 28.5t-51 11.5l-94 -408q44 -30 93 -30q50 0 83.5 12.5t63.5 49.5l12 -7q-70 -118 -203 -118q-37 0 -68 10z" />
    <glyph glyph-name="sterling.lp" horiz-adv-x="605" 
d="M107 0q92 0 126 96q-67 60 -126 60q-38 0 -62 -21.5t-24 -57.5q0 -35 25 -56t61 -21zM534 221q39 -87 8.5 -161.5t-115.5 -74.5q-36 0 -71 16t-53 31t-50 46q-51 -94 -145 -94q-47 0 -77 25.5t-30 69.5q0 48 39 83t109 35q47 0 100 -17q2 14 2 41q0 42 -20 107l-151 13
v13l140 10q-21 73 -21 128q0 99 64.5 150.5t159.5 51.5q69 0 111.5 -32.5t42.5 -83.5q0 -35 -20.5 -58t-56.5 -23q-33 0 -52.5 18.5t-19.5 47.5q0 24 12.5 40t25 25.5t12.5 19.5q0 30 -49 30q-43 0 -64.5 -44t-29.5 -144q-5 -64 -12 -129h147v-20l-151 -7q-9 -69 -19 -116
q-7 -32 -13 -52q13 -5 43 -18t45.5 -19t39 -11.5t43.5 -5.5q47 0 63.5 31t-1.5 78h14z" />
    <glyph glyph-name="yen.lp" horiz-adv-x="719" 
d="M539 16v-16q-31 0 -91 0.5t-91 0.5t-90.5 -0.5t-91.5 -0.5v16l48 7q40 7 52.5 21.5t12.5 49.5v84h-167v27h167v62l-7 13h-160v27h145l-147 270q-23 43 -43 59.5t-48 21.5l-34 5v16q61 -1 184 -1t184 1v-16l-53 -7q-67 -9 -30 -81l139 -268l107 198q37 68 37 103
q0 37 -61 48l-37 7v16q43 -1 131 -1q87 0 131 1v-15l-28 -7q-39 -10 -72 -42.5t-80 -117.5l-105 -190h136v-27h-151v-75h151v-27h-151v-84q0 -35 12.5 -49.5t52.5 -21.5z" />
    <glyph glyph-name="euro.lp" horiz-adv-x="601" 
d="M536 -10l-32 58q-56 -64 -148 -64q-102 0 -175 67t-93 194l-71 16v13l66 14q-2 32 -2 50q0 8 0.5 22.5t0.5 21.5l-65 15v13l70 16q20 130 93 199.5t176 69.5q91 0 148 -64l32 58h9v-261h-15q-47 149 -81 200t-89 51q-64 0 -96 -63t-39 -196h178l-7 -27l-172 -7
q-1 -15 -1 -47q0 -38 1 -55h152l-7 -27l-144 -7q7 -125 39 -187.5t96 -62.5q57 0 92 52.5t78 188.5h15v-251h-9z" />
    <glyph glyph-name="numbersign.lp" horiz-adv-x="525" 
d="M330 262l17 162h-149l-17 -162h149zM170 166l-18 -166h-25l18 166h-94l-24 96h129l17 162h-107l-22 95h140l17 160h25l-17 -160h149l17 160h25l-17 -160h92l22 -95h-125l-17 -162h103l24 -96h-138l-18 -166h-25l18 166h-149z" />
    <glyph glyph-name="florin.lp" horiz-adv-x="462" 
d="M34 -244q-66 0 -100.5 28t-34.5 71q0 34 20.5 55.5t53.5 21.5q32 0 50 -18t18 -46q0 -18 -7.5 -31.5t-16 -19.5t-16 -13t-7.5 -13q0 -20 40 -20q41 0 61 34.5t20 117.5v442l-97 14v17l97 13v55q0 119 59.5 175.5t148.5 56.5q71 0 109.5 -31t38.5 -76q0 -35 -21 -56.5
t-55 -21.5q-30 0 -49.5 18t-19.5 46q0 26 13 41t26 23.5t13 16.5q0 10 -13.5 17.5t-39.5 7.5q-47 0 -68.5 -34.5t-21.5 -108.5q0 -22 0.5 -68t0.5 -65h129v-27l-129 -7v-380q0 -121 -60 -178t-142 -57z" />
    <glyph glyph-name="franc.lp" horiz-adv-x="622" 
d="M384 16v-16q-31 0 -91.5 0.5t-92.5 0.5q-31 0 -89.5 -0.5t-89.5 -0.5v16l47 7q40 6 50.5 19t10.5 49v496q0 36 -11 49.5t-50 19.5l-47 7v16h559l8 -237h-20q-52 127 -90.5 173t-105.5 46h-104v-304h56q45 0 70 33t53 120h16q-1 -55 -1 -163q0 -109 1 -163h-16
q-31 92 -54.5 123.5t-69.5 31.5h-55v-241q0 -37 13.5 -53t54.5 -22z" />
    <glyph glyph-name="currency.lp" horiz-adv-x="535" 
d="M468 102l-75 76q-54 -49 -126 -49q-74 0 -125 49l-75 -76l-21 21l76 76q-41 52 -41 121t41 121l-76 76l21 21l75 -75q51 48 125 48q72 0 126 -49l75 76l21 -21l-77 -76q41 -52 41 -121q0 -70 -41 -120l77 -77zM141 320q0 -56 35.5 -95t90.5 -39t90.5 39t35.5 95t-35.5 95
t-90.5 39t-90.5 -39t-35.5 -95z" />
    <glyph glyph-name="plus.lp" horiz-adv-x="550" 
d="M292 304v-202h-34v202h-202v34h202v200h34v-200h202v-34h-202z" />
    <glyph glyph-name="minus.lp" horiz-adv-x="550" 
d="M56 303v34h438v-34h-438z" />
    <glyph glyph-name="plusminus.lp" horiz-adv-x="550" 
d="M494 76h-438v33h202v195h-202v34h202v200h34v-200h202v-34h-202v-195h202v-33z" />
    <glyph glyph-name="multiply.lp" horiz-adv-x="550" 
d="M418 154l-143 143l-143 -143l-23 23l143 143l-143 142l23 24l143 -143l143 143l23 -24l-143 -142l143 -143z" />
    <glyph glyph-name="divide.lp" horiz-adv-x="550" 
d="M312 479q0 -16 -11 -26t-26 -10q-14 0 -25.5 10t-11.5 26q0 17 11 27t26 10t26 -10t11 -27zM494 303h-438v34h438v-34zM275 125q-14 0 -25.5 10.5t-11.5 26.5t11 26t26 10t26 -10t11 -26q0 -17 -11 -27t-26 -10z" />
    <glyph glyph-name="logicalnot.lp" horiz-adv-x="550" 
d="M461 373h-405v34h438v-193h-33v159z" />
    <glyph glyph-name="equal.lp" horiz-adv-x="550" 
d="M56 398v34h438v-34h-438zM494 208h-438v34h438v-34z" />
    <glyph glyph-name="notequal.lp" horiz-adv-x="550" 
d="M219 208l-85 -124l-29 20l72 104h-121v34h144l107 156h-251v34h275l85 124l29 -20l-72 -104h121v-34h-144l-107 -156h251v-34h-275z" />
    <glyph glyph-name="approxequal.lp" horiz-adv-x="500" 
d="M89 357h-27q0 48 25 75.5t73 27.5q43 0 118.5 -33.5t111.5 -33.5q70 0 71 71h27q0 -48 -25 -75t-73 -27q-44 0 -119 34t-111 34q-70 0 -71 -73zM89 176h-27q0 48 25 75.5t73 27.5q43 0 118.5 -33.5t111.5 -33.5q70 0 71 71h27q0 -48 -25 -75t-73 -27q-44 0 -119 34
t-111 34q-70 0 -71 -73z" />
    <glyph glyph-name="less.lp" horiz-adv-x="550" 
d="M462 100l-400 204v32l400 204l14 -28l-382 -192l382 -192z" />
    <glyph glyph-name="greater.lp" horiz-adv-x="550" 
d="M488 304l-400 -204l-14 28l382 192l-382 192l14 28l400 -204v-32z" />
    <glyph glyph-name="lessequal.lp" horiz-adv-x="550" 
d="M476 76h-416v32h388l-386 196v32l400 204l14 -28l-382 -192l382 -194v-50z" />
    <glyph glyph-name="greaterequal.lp" horiz-adv-x="550" 
d="M490 76h-416v50l382 194l-382 192l14 28l400 -204v-32l-386 -196h388v-32z" />
    </font>
</defs>
</svg>
