<?xml version="1.0" standalone="no"?>
<!DOCTYPE svg PUBLIC "-//W3C//DTD SVG 20010904//EN"
 "http://www.w3.org/TR/2001/REC-SVG-20010904/DTD/svg10.dtd">
<svg version="1.0" xmlns="http://www.w3.org/2000/svg"
 width="1062.000000pt" height="796.000000pt" viewBox="0 0 1062.000000 796.000000"
 preserveAspectRatio="xMidYMid meet">

<g transform="translate(0.000000,796.000000) scale(0.100000,-0.100000)"
fill="#000000" stroke="none">
<path d="M4640 7753 c-459 -45 -752 -113 -1133 -264 -661 -263 -1249 -729
-1683 -1335 -149 -209 -328 -542 -427 -794 -63 -161 -120 -347 -111 -362 4 -7
3 -9 -1 -5 -10 9 -66 -218 -91 -368 l-17 -105 -22 55 c-47 114 -126 209 -204
243 -28 13 -79 17 -228 20 -223 4 -284 -5 -346 -51 -86 -66 -170 -227 -197
-381 -6 -39 -10 -436 -10 -1133 l0 -1073 175 0 175 0 0 585 0 585 170 0 170 0
0 -585 0 -585 175 0 175 0 1 508 0 507 44 -165 c24 -91 63 -219 87 -285 l42
-120 4 -222 3 -223 97 0 97 -1 45 -82 c69 -125 234 -368 344 -507 127 -159
415 -448 571 -572 448 -356 919 -590 1464 -727 872 -219 1827 -110 2626 299
663 340 1216 870 1583 1515 43 77 57 93 88 104 50 18 113 84 147 153 30 63 62
189 73 285 l6 61 89 56 89 55 0 -320 0 -319 175 0 175 0 0 433 0 432 168 117
167 117 3 -550 2 -549 175 0 175 0 0 688 0 688 97 84 c551 479 813 908 765
1251 -36 252 -217 463 -552 642 -378 203 -1038 366 -1758 433 l-184 18 -51 75
c-301 448 -725 856 -1177 1130 -550 334 -1165 522 -1787 547 l-163 7 0 -470 0
-470 138 -7 c587 -29 1153 -244 1622 -616 140 -111 364 -338 475 -482 144
-187 292 -438 376 -640 l32 -78 488 0 c325 0 489 3 489 10 0 21 -74 239 -122
360 -27 69 -78 185 -114 259 -35 74 -64 135 -64 137 0 2 60 -17 133 -43 385
-134 682 -299 873 -488 101 -100 159 -181 210 -291 47 -100 46 -104 -21 -104
l-55 0 0 -381 0 -381 -54 -91 c-30 -51 -91 -143 -135 -205 -77 -105 -84 -112
-116 -112 l-35 0 0 585 0 585 -175 0 -175 0 0 -808 0 -809 -51 -43 c-36 -30
-50 -37 -46 -24 12 38 56 292 69 399 17 147 18 691 0 840 -17 141 -47 311 -79
448 l-25 107 -488 0 -489 0 20 -57 c10 -31 24 -75 30 -96 l10 -39 22 20 c60
55 75 57 332 57 l240 0 58 -29 c69 -33 125 -99 157 -183 27 -71 56 -214 63
-305 l5 -68 -92 0 -92 0 -11 75 c-12 86 -46 160 -86 189 -25 19 -43 21 -155
21 -148 0 -169 -9 -214 -92 -48 -89 -49 -113 -46 -964 l3 -796 35 -68 c53
-104 66 -110 220 -110 114 0 132 2 157 21 40 29 74 103 86 189 l11 75 79 0
c71 0 78 -2 72 -17 -3 -10 -27 -72 -51 -138 -73 -195 -175 -407 -204 -422 -18
-9 -87 -13 -240 -13 -205 0 -217 1 -265 24 -124 58 -229 243 -250 440 l-8 68
-49 -94 c-27 -51 -64 -115 -81 -143 -30 -47 -32 -56 -37 -170 l-5 -120 -82 -3
-81 -3 -91 -104 c-78 -89 -90 -108 -81 -124 8 -17 2 -24 -53 -59 -106 -66
-111 -66 -36 5 66 64 71 71 60 92 -12 21 -15 20 -103 -61 -166 -153 -360 -299
-375 -284 -3 3 4 25 16 49 11 24 21 47 21 52 0 5 14 39 32 77 17 37 28 71 25
74 -20 20 -93 -55 -170 -174 -15 -24 -32 -40 -37 -37 -6 4 -19 23 -30 43 -11
20 -32 55 -45 77 -14 22 -32 55 -42 74 -16 32 -18 33 -61 28 -24 -2 -47 -9
-52 -13 -5 -5 -10 -67 -12 -138 -3 -137 -9 -155 -51 -157 -12 0 -29 -2 -37 -4
-169 -38 -247 -52 -253 -46 -5 5 -4 12 2 15 6 4 11 23 11 42 0 19 4 34 8 34 5
0 17 18 27 39 13 29 25 42 46 46 32 7 38 20 14 29 -12 4 -6 22 32 95 39 74 52
90 75 95 29 6 39 26 13 26 -20 0 -19 9 4 44 22 33 19 48 -7 39 -16 -6 -16 -5
-1 13 9 10 29 44 44 74 30 60 62 104 76 106 5 1 11 2 14 3 3 0 -2 12 -11 25
-10 16 -21 23 -32 19 -40 -15 -112 -90 -214 -224 -48 -63 -97 -125 -108 -139
-11 -14 -71 -88 -133 -166 -177 -223 -159 -206 -237 -219 -19 -3 -40 -11 -47
-17 -7 -6 -13 -8 -13 -4 0 3 -22 -5 -49 -18 -33 -17 -52 -34 -59 -54 -9 -27
-16 -30 -123 -52 -63 -12 -126 -24 -141 -27 l-28 -4 0 394 0 394 118 7 c64 4
145 14 178 21 45 10 71 11 98 4 22 -6 127 -9 254 -7 200 3 220 5 257 25 86 46
159 146 205 277 35 100 36 102 128 190 l92 90 0 -292 0 -292 175 0 174 0 3
143 3 144 154 -225 155 -226 74 80 74 79 -61 3 -61 3 0 584 0 585 -170 0 -170
0 -2 -437 -3 -437 -29 45 c-16 24 -92 136 -170 249 l-141 205 -3 -60 c-2 -46
-9 -68 -30 -95 -36 -48 -133 -150 -143 -150 -4 0 -7 126 -7 280 0 154 4 278 8
275 4 -2 43 -57 86 -120 l79 -117 5 709 5 708 29 85 c33 101 71 170 127 233
l40 47 -47 80 -48 80 -717 0 c-593 0 -721 2 -744 14 l-26 14 1 377 1 377 -75
-7 c-70 -7 -74 -6 -81 15 -4 12 -4 24 0 28 3 4 40 8 81 10 l74 4 0 495 0 495
-97 -7 c-140 -9 -333 -34 -443 -56 -314 -64 -657 -204 -923 -375 -47 -31 -78
-44 -103 -44 -22 0 -34 4 -32 11 6 17 205 140 338 208 349 180 740 286 1133
307 l127 7 0 468 0 469 -107 -2 c-60 0 -124 -3 -143 -5z m573 -163 c57 0 57 0
57 -30 0 -27 -3 -30 -33 -30 l-34 0 -12 -202 c-7 -112 -15 -211 -17 -220 -4
-12 -15 -18 -35 -18 -28 0 -29 1 -28 48 0 26 6 124 13 217 7 94 11 173 9 178
-2 4 -17 7 -34 7 -24 0 -29 4 -29 23 0 33 10 40 50 33 19 -3 61 -6 93 -6z
m186 -20 c35 -5 65 -11 68 -13 2 -3 1 -15 -2 -28 -5 -22 -10 -24 -54 -21 l-48
4 -7 -59 c-4 -32 -10 -68 -13 -80 -4 -20 -1 -23 25 -23 36 0 43 -8 35 -38 -4
-17 -13 -22 -38 -22 -31 0 -32 -1 -39 -52 -11 -94 -9 -108 17 -108 48 0 68
-12 65 -37 -4 -28 1 -27 -93 -18 -46 4 -75 11 -75 18 0 7 14 115 30 241 17
126 30 233 30 238 0 10 19 10 99 -2z m289 -66 c30 -35 28 -73 -17 -294 l-37
-185 -33 2 c-18 0 -34 3 -36 5 -2 1 5 44 15 93 11 50 19 97 20 106 0 15 -38
34 -48 24 -2 -2 -14 -50 -26 -107 l-21 -103 -30 3 c-16 2 -32 6 -35 8 -6 6 70
394 83 419 5 11 19 30 31 43 18 20 27 23 66 17 30 -4 53 -14 68 -31z m169
-143 c18 -68 34 -125 35 -127 2 -2 48 37 102 86 54 50 102 90 107 90 5 0 12
-6 15 -14 5 -14 -121 -454 -134 -468 -11 -11 -62 3 -62 17 0 8 18 71 39 142
22 70 39 129 38 130 -1 1 -37 -30 -80 -69 -43 -39 -79 -69 -81 -67 -2 2 -14
49 -28 104 l-25 100 -32 -105 c-18 -58 -37 -120 -42 -137 -7 -23 -17 -33 -30
-33 -15 0 -19 5 -15 18 79 270 142 462 150 459 6 -2 25 -59 43 -126z m487 -51
c73 -32 91 -58 80 -114 -8 -48 -45 -108 -79 -131 -26 -17 -29 -24 -22 -45 17
-48 -27 -152 -78 -186 -25 -16 -29 -16 -96 11 -38 16 -72 31 -74 35 -2 3 32
89 76 190 115 266 117 270 123 270 2 0 34 -13 70 -30z m207 -95 l30 -16 -29
-52 c-82 -147 -162 -307 -162 -325 0 -30 19 -37 40 -16 11 11 59 95 109 189
49 93 93 171 98 172 4 1 18 -6 31 -15 l24 -18 -92 -175 c-93 -176 -139 -239
-172 -239 -33 0 -99 40 -108 66 -6 14 -7 37 -3 52 6 25 194 392 201 392 2 0
16 -7 33 -15z m277 -170 c-8 -28 -251 -415 -261 -415 -7 0 -21 8 -33 18 -21
17 -21 17 109 229 l130 212 29 -17 c16 -9 27 -21 26 -27z m121 -64 l24 -18
-127 -183 c-70 -100 -126 -183 -124 -184 2 -2 19 -13 38 -26 19 -13 36 -25 38
-26 6 -4 -22 -44 -31 -44 -18 0 -136 86 -132 97 7 21 276 403 283 403 4 0 18
-9 31 -19z m274 -224 c13 -35 -8 -73 -119 -212 -97 -121 -145 -165 -182 -165
-15 0 -127 91 -124 101 1 5 70 95 154 199 l151 189 56 -46 c31 -25 60 -55 64
-66z m142 -107 c17 -19 16 -21 -35 -77 -29 -32 -105 -115 -169 -185 l-116
-128 -24 24 -24 25 134 147 c74 80 147 162 162 180 33 39 47 42 72 14z m105
-94 c0 -3 -16 -73 -35 -156 -19 -83 -35 -154 -35 -157 0 -3 43 36 95 86 81 79
98 91 111 80 17 -14 29 -1 -214 -233 -73 -70 -136 -125 -141 -122 -5 3 7 70
25 148 18 79 33 150 34 158 0 8 -42 -27 -93 -78 -83 -83 -95 -91 -107 -77 -11
14 -10 19 11 39 282 272 349 332 349 312z m264 -293 c26 -33 34 -52 30 -67 -9
-28 -43 -76 -54 -76 -17 0 -22 22 -10 46 11 19 10 27 -4 49 -18 28 -28 30 -59
13 -31 -16 -240 -188 -250 -205 -12 -21 -1 -43 22 -43 31 0 118 74 117 100 -1
12 7 27 17 34 15 9 22 5 45 -24 15 -19 27 -38 27 -41 0 -10 -133 -117 -166
-134 -43 -23 -59 -19 -101 25 -44 47 -49 83 -18 123 11 14 67 64 123 110 195
161 220 169 281 90z m-5231 -117 c53 -49 71 -102 75 -222 5 -132 -13 -211 -57
-255 -27 -27 -27 -28 -8 -31 12 -2 32 -18 44 -37 22 -33 23 -41 23 -272 l0
-239 -69 0 -69 0 -4 203 c-5 253 -14 277 -104 277 l-34 0 0 -240 0 -240 -75 0
-75 0 0 540 0 540 164 0 c158 0 164 -1 189 -24z m500 0 c14 -13 36 -43 49 -67
l23 -44 3 -472 3 -473 -71 0 -70 0 0 240 0 240 -70 0 -70 0 0 -240 0 -241 -72
3 -73 3 0 460 0 460 24 53 c13 29 37 64 53 77 27 23 37 25 137 25 100 0 110
-2 134 -24z m497 -2 c17 -15 41 -45 53 -68 21 -40 22 -51 25 -427 3 -371 2
-388 -18 -442 -13 -34 -35 -68 -56 -86 l-35 -31 -159 0 -160 0 0 540 0 540
159 0 c158 0 160 0 191 -26z m507 -6 c71 -75 68 -52 71 -575 l3 -473 -71 0
-70 0 0 240 0 240 -70 0 -70 0 0 -240 0 -241 -72 3 -73 3 0 460 0 460 24 53
c13 29 37 64 53 77 27 23 37 25 137 25 l107 0 31 -32z m496 8 c53 -49 71 -102
75 -222 5 -132 -13 -211 -58 -255 -23 -23 -25 -29 -11 -29 10 0 28 -12 42 -26
24 -25 24 -27 27 -275 l3 -249 -69 0 -70 0 -4 203 c-5 253 -14 277 -104 277
l-34 0 0 -240 0 -241 -72 3 -73 3 -3 538 -2 537 163 0 c159 0 165 -1 190 -24z
m3399 -118 c26 -22 58 -75 58 -97 0 -30 -59 -91 -108 -113 -30 -13 -80 -22
-163 -27 -65 -4 -124 -12 -130 -18 -8 -8 -1 -26 25 -64 32 -48 34 -53 18 -65
-9 -8 -21 -13 -27 -13 -5 -1 -34 36 -63 80 -50 76 -52 82 -35 95 47 35 90 47
202 53 120 7 158 19 195 60 18 20 18 22 1 47 -14 21 -22 25 -45 20 -18 -3 -33
0 -40 9 -10 12 -7 18 21 30 42 18 71 19 91 3z m140 -230 c25 -20 57 -88 51
-107 -13 -36 -64 -76 -191 -148 -73 -41 -147 -79 -163 -83 -41 -12 -75 3 -99
42 -30 50 -26 90 13 125 28 24 165 106 282 167 37 19 86 20 107 4z m156 -285
c6 -9 8 -21 4 -25 -10 -10 -429 -208 -440 -208 -11 0 -34 49 -28 59 3 3 81 42
174 85 133 62 168 83 165 96 -3 10 4 20 19 27 27 12 85 -6 106 -34z m64 -184
c11 -6 29 -30 39 -55 18 -40 18 -46 5 -72 -20 -39 -41 -51 -183 -105 -132 -51
-188 -58 -249 -32 -24 10 -39 25 -50 51 -8 20 -14 37 -12 39 7 6 47 25 52 25
3 0 6 -6 6 -14 0 -29 30 -46 80 -46 27 0 52 5 55 10 3 6 2 10 -3 10 -6 0 -15
14 -21 30 -20 60 15 97 140 144 70 28 110 32 141 15z m-6036 -443 c-12 -36
-23 -67 -26 -69 -3 -3 -30 1 -60 9 -42 11 -134 14 -402 14 l-348 0 -2 -1027
-3 -1028 -38 130 c-51 169 -82 307 -109 485 -21 135 -23 177 -23 595 1 420 2
459 23 580 23 132 70 354 79 368 2 4 212 7 467 7 l462 0 -20 -64z m1144 12
l-30 -53 -365 -3 -365 -2 -2 -1213 -3 -1212 -58 93 c-59 95 -159 289 -195 377
-73 182 -152 432 -152 484 0 15 19 42 55 77 64 64 133 198 160 313 24 100 25
568 1 677 -27 126 -73 226 -138 300 l-32 36 30 89 29 89 548 0 547 0 -30 -52z
m1520 -1308 c0 -748 -4 -1360 -8 -1360 -5 0 -10 248 -11 552 -3 603 -2 598
-62 685 -36 52 -98 78 -167 70 l-47 -6 43 16 c64 22 117 78 157 166 69 150 84
255 75 527 -7 171 -11 205 -33 275 -46 142 -128 254 -217 298 -44 21 -55 22
-417 25 l-373 3 -2 -1113 -3 -1112 -80 70 c-80 71 -170 175 -271 314 -54 75
-168 291 -180 343 -6 24 -4 27 21 27 52 0 107 24 155 67 63 57 143 215 165
328 18 91 24 317 14 535 -6 125 -11 156 -36 227 -48 134 -115 227 -202 283
l-24 16 39 62 39 62 712 0 713 0 0 -1360z m151 1200 c52 -76 96 -139 99 -139
3 0 21 23 40 51 48 71 107 114 176 128 37 8 126 11 253 8 176 -3 200 -6 236
-25 84 -45 166 -159 213 -298 l27 -80 3 -585 3 -585 -53 76 c-29 42 -107 155
-173 252 l-120 176 -5 -542 c-6 -607 -5 -599 -79 -677 -74 -78 -143 -63 -211
46 -49 78 -50 96 -48 908 l3 758 46 -68 c25 -38 52 -79 60 -90 13 -19 82 -119
191 -274 l39 -55 -3 290 -3 290 -28 60 c-34 72 -52 94 -94 111 -44 19 -86 8
-127 -34 -36 -35 -76 -123 -76 -165 -1 -63 -19 -46 -141 132 -68 100 -126 181
-130 181 -12 0 -49 -97 -69 -182 -19 -80 -20 -118 -20 -923 1 -663 4 -856 14
-915 24 -130 85 -268 147 -329 l28 -28 -72 -12 c-40 -7 -107 -13 -149 -15
l-78 -3 0 1348 c0 742 2 1349 3 1349 2 0 46 -63 98 -140z m-4279 -282 c15 -10
42 -49 60 -86 l33 -67 3 -342 3 -343 -171 0 -171 0 3 338 c3 321 4 340 25 392
50 122 134 165 215 108z m1215 6 c40 -29 80 -108 94 -184 7 -41 10 -144 7
-275 -3 -194 -5 -214 -27 -262 -13 -29 -41 -69 -62 -88 l-39 -35 -105 0 -105
0 0 436 0 436 104 -4 c87 -2 109 -7 133 -24z m1186 15 c30 -8 37 -14 32 -27
-18 -45 -56 -238 -66 -332 -11 -101 -7 -350 7 -452 l7 -48 -92 0 -91 0 0 435
0 435 83 0 c45 0 99 -5 120 -11z m1254 -15 c37 -27 69 -86 88 -163 13 -50 16
-103 13 -274 -5 -251 -15 -297 -83 -364 l-42 -43 -107 0 -106 0 0 436 0 436
105 -4 c86 -3 109 -7 132 -24z m-1119 -368 c5 -279 -12 -370 -81 -434 l-24
-23 -6 58 c-16 153 -18 287 -8 389 12 107 47 299 59 319 3 5 17 -15 31 -45 25
-53 26 -64 29 -264z m-1152 -803 c8 -35 23 -87 69 -238 65 -212 175 -444 320
-675 70 -112 75 -124 75 -175 l0 -55 44 0 c43 0 46 -2 129 -97 337 -387 770
-673 1257 -833 63 -21 141 -44 173 -50 31 -7 57 -17 57 -21 0 -4 -20 -22 -45
-39 -24 -17 -57 -47 -72 -67 -15 -21 -44 -52 -64 -70 -74 -67 -74 -131 -2
-154 21 -6 79 -13 128 -14 111 -3 231 20 545 100 30 8 72 19 92 24 l37 9 1
-370 0 -370 -122 7 c-68 4 -184 13 -258 21 -694 74 -1368 352 -1920 793 -232
186 -472 432 -637 655 -126 169 -143 194 -178 256 -20 36 -42 72 -50 80 -15
18 -75 124 -75 133 0 4 20 7 45 7 l45 0 0 585 0 585 200 0 200 0 6 -27z m1125
-87 c120 -264 291 -491 497 -658 l62 -51 0 -174 0 -173 175 0 175 0 0 69 0 70
56 -25 c30 -13 105 -39 166 -58 60 -18 113 -38 117 -43 3 -6 51 -13 106 -16
55 -4 137 -10 183 -13 l82 -7 0 -402 0 -402 -62 -11 c-102 -18 -337 -78 -420
-108 -44 -15 -52 -15 -125 1 -217 47 -577 192 -776 311 -99 60 -272 183 -371
264 -95 78 -281 261 -336 330 l-32 40 96 0 96 0 0 585 0 586 130 -3 131 -3 50
-109z m1170 65 c72 -80 73 -90 77 -593 2 -251 -1 -448 -6 -448 -18 0 -171 49
-249 80 l-83 33 0 489 0 490 111 -4 111 -3 39 -44z m2811 -1747 l217 -316 -72
-65 c-409 -368 -936 -655 -1482 -804 -285 -79 -531 -117 -852 -135 l-123 -6 0
195 0 194 43 6 c40 6 124 28 158 42 14 5 18 -2 23 -42 4 -26 8 -70 9 -97 1
-26 6 -50 12 -51 5 -2 39 -6 73 -8 62 -5 64 -5 58 18 -3 12 0 43 8 69 8 25 12
46 10 46 -3 0 0 9 6 20 6 10 30 28 55 39 44 19 60 41 30 41 -11 0 -13 8 -8 33
14 69 20 81 43 87 30 7 37 26 11 33 -17 4 -18 9 -10 43 4 22 9 42 9 46 0 3 17
12 38 19 53 17 57 21 38 35 -34 24 29 92 141 151 49 25 95 51 103 58 17 13 91
36 133 41 15 2 45 13 67 24 21 11 47 20 57 20 10 0 32 9 48 20 17 11 49 29 71
39 23 11 51 28 63 40 30 30 40 26 47 -20 6 -38 9 -40 33 -34 34 8 46 25 71
101 14 41 30 68 46 79 27 18 29 19 123 97 42 34 136 89 265 155 111 56 206
102 211 103 6 0 108 -142 227 -316z m-2132 -573 c0 -11 -20 -31 -52 -51 -57
-36 -53 -51 7 -26 46 20 55 20 55 1 0 -18 -66 -52 -135 -68 -5 -2 -20 -9 -32
-15 l-23 -13 0 86 c0 49 4 86 10 86 6 1 14 2 19 3 5 0 13 4 17 9 4 4 36 7 71
7 55 0 63 -2 63 -19z"/>
<path d="M5594 7458 c-7 -11 -34 -131 -31 -135 1 -1 14 -4 28 -8 26 -6 27 -5
39 59 7 36 10 73 6 81 -6 18 -32 20 -42 3z"/>
<path d="M6301 7238 c-5 -13 -19 -45 -30 -71 -22 -52 -21 -67 8 -67 21 0 42
23 59 63 18 42 15 75 -8 87 -17 9 -22 7 -29 -12z"/>
<path d="M6196 6996 c-38 -86 -39 -93 -16 -99 28 -7 53 18 76 78 17 46 17 48
-1 61 -29 21 -33 18 -59 -40z"/>
<path d="M7006 6633 c-60 -75 -109 -143 -110 -152 -1 -17 32 -26 50 -14 6 5
54 63 108 130 71 89 97 128 94 145 -7 48 -34 27 -142 -109z"/>
<path d="M2300 5870 l0 -180 34 0 c81 0 100 34 100 180 0 145 -19 180 -100
180 l-34 0 0 -180z"/>
<path d="M2846 6038 c-35 -20 -46 -70 -46 -213 l0 -135 71 0 72 0 -5 144 c-3
113 -8 149 -21 169 -23 36 -48 48 -71 35z"/>
<path d="M3300 5630 l0 -420 30 0 c47 0 78 20 92 59 19 54 18 683 -1 729 -16
39 -37 52 -85 52 l-36 0 0 -420z"/>
<path d="M3845 6038 c-34 -20 -45 -71 -45 -213 l0 -135 71 0 72 0 -5 143 c-4
103 -9 150 -21 173 -18 35 -45 47 -72 32z"/>
<path d="M4300 5870 l0 -180 34 0 c81 0 100 34 100 180 0 145 -19 180 -100
180 l-34 0 0 -180z"/>
<path d="M7903 5698 c-40 -23 -71 -44 -69 -46 2 -2 43 4 90 14 65 13 87 21 91
35 8 24 -1 39 -23 39 -9 0 -50 -19 -89 -42z"/>
<path d="M7790 5603 c-41 -8 -83 -21 -92 -30 -20 -18 -13 -43 14 -43 18 0 168
77 168 86 0 5 0 5 -90 -13z"/>
<path d="M8145 5246 c-90 -35 -93 -36 -99 -53 -16 -40 17 -42 110 -7 76 28
101 49 83 71 -15 17 -23 16 -94 -11z"/>
<path d="M4940 6276 l0 -496 53 0 c29 0 91 -5 137 -11 343 -42 667 -180 932
-396 87 -71 246 -236 299 -313 l43 -60 559 0 558 0 -6 23 c-16 59 -183 376
-253 482 -213 320 -489 596 -807 807 -135 89 -411 229 -556 282 -267 97 -538
152 -851 172 l-108 6 0 -496z"/>
<path d="M4940 5365 l0 -365 695 0 c382 0 695 3 695 7 0 22 -142 180 -248 276
-219 198 -513 347 -798 405 -87 18 -271 42 -325 42 -18 0 -19 -13 -19 -365z"/>
<path d="M6465 4908 c14 -24 31 -54 38 -66 9 -21 15 -23 41 -15 17 4 132 8
256 8 211 0 227 -1 265 -22 98 -52 192 -201 231 -363 17 -69 19 -145 21 -905
1 -456 2 -870 3 -920 l0 -90 26 45 c15 25 51 94 81 154 l55 108 -1 698 c-1
427 3 735 9 796 13 124 41 219 91 312 l39 73 -37 114 -37 115 -553 0 -554 0
26 -42z"/>
<path d="M6708 4490 c-46 -45 -45 -34 -12 -205 19 -99 25 -412 11 -542 l-8
-73 131 0 131 0 -3 343 -3 342 -33 68 c-39 78 -76 107 -136 107 -32 0 -45 -7
-78 -40z"/>
<path d="M6627 4307 c-10 -27 -9 -637 2 -637 13 0 20 34 33 177 9 103 9 163
-1 270 -15 166 -24 216 -34 190z"/>
</g>
</svg>
