<?xml version="1.0" standalone="no"?>
<!DOCTYPE svg PUBLIC "-//W3C//DTD SVG 20010904//EN"
 "http://www.w3.org/TR/2001/REC-SVG-20010904/DTD/svg10.dtd">
<svg version="1.0" xmlns="http://www.w3.org/2000/svg"
 width="3125.000000pt" height="543.000000pt" viewBox="0 0 3125.000000 543.000000"
 preserveAspectRatio="xMidYMid meet">
<metadata>
Created by potrace 1.16, written by Peter Selinger 2001-2019
</metadata>
<g transform="translate(0.000000,543.000000) scale(0.100000,-0.100000)"
fill="#000000" stroke="none">
<path d="M24030 5400 c0 -6 -37 -10 -90 -10 -49 0 -90 -3 -90 -7 0 -5 -30 -6
-66 -5 -46 3 -64 0 -60 -7 5 -7 -9 -11 -43 -11 -27 0 -53 -4 -56 -10 -3 -5
-22 -10 -41 -10 -19 0 -34 -4 -34 -10 0 -5 -16 -10 -35 -10 -19 0 -35 -4 -35
-9 0 -5 -25 -13 -55 -16 -30 -4 -55 -11 -55 -16 0 -5 -11 -9 -25 -9 -14 0 -25
-4 -25 -10 0 -5 -11 -10 -25 -10 -14 0 -25 -4 -25 -9 0 -5 -17 -12 -37 -16
-21 -4 -40 -10 -43 -13 -3 -4 -41 -25 -85 -47 -44 -22 -81 -43 -83 -47 -2 -5
-12 -8 -23 -8 -10 0 -19 -4 -19 -8 0 -5 -22 -21 -50 -36 -27 -15 -50 -31 -50
-37 0 -5 -7 -9 -16 -9 -9 0 -25 -9 -35 -21 -9 -11 -20 -20 -24 -19 -3 1 -22
-12 -40 -28 -19 -16 -46 -37 -61 -48 -15 -10 -32 -25 -38 -32 -6 -7 -22 -23
-35 -35 -25 -23 -113 -113 -168 -172 -18 -19 -33 -39 -33 -44 0 -6 -11 -21
-25 -35 -14 -14 -25 -28 -25 -32 0 -4 -8 -14 -17 -23 -10 -9 -26 -33 -37 -53
-10 -20 -27 -46 -37 -57 -10 -10 -21 -31 -25 -45 -3 -14 -10 -26 -15 -26 -5 0
-9 -7 -9 -15 0 -8 -4 -15 -10 -15 -5 0 -10 -7 -10 -15 0 -8 -4 -15 -10 -15 -5
0 -10 -9 -10 -20 0 -11 -4 -20 -9 -20 -5 0 -13 -15 -16 -32 -4 -18 -10 -35
-14 -38 -12 -9 -31 -50 -31 -65 0 -8 -4 -15 -10 -15 -5 0 -10 -8 -10 -17 0
-10 -7 -31 -15 -47 -8 -15 -15 -35 -15 -42 0 -8 -4 -14 -10 -14 -5 0 -10 -11
-10 -25 0 -14 -4 -25 -10 -25 -5 0 -10 -12 -10 -26 0 -14 -4 -23 -9 -20 -5 3
-12 -16 -16 -44 -4 -27 -11 -50 -16 -50 -5 0 -9 -11 -9 -25 0 -14 -4 -25 -10
-25 -5 0 -10 -14 -10 -31 0 -16 -4 -28 -9 -25 -5 3 -12 -21 -16 -54 -4 -33
-11 -63 -16 -66 -5 -3 -9 -18 -9 -34 0 -16 -4 -32 -10 -35 -5 -3 -10 -22 -10
-41 0 -19 -4 -34 -10 -34 -5 0 -10 -24 -10 -54 0 -30 -5 -56 -11 -58 -7 -2
-13 -89 -16 -256 -3 -139 -10 -255 -15 -258 -11 -7 -11 -441 0 -448 5 -3 12
-76 16 -163 4 -87 11 -159 16 -161 6 -2 10 -28 10 -58 0 -30 5 -54 10 -54 6 0
10 -18 10 -39 0 -22 5 -43 10 -46 6 -3 10 -19 10 -36 0 -16 4 -29 9 -29 5 0
12 -27 16 -60 4 -33 11 -60 16 -60 5 0 9 -11 9 -25 0 -14 5 -25 10 -25 6 0 10
-13 10 -30 0 -16 4 -30 9 -30 6 0 13 -20 17 -45 3 -25 10 -45 15 -45 5 0 9
-11 9 -25 0 -14 5 -25 10 -25 6 0 10 -9 10 -20 0 -11 5 -20 10 -20 6 0 10 -6
10 -14 0 -7 7 -27 15 -42 8 -16 15 -37 15 -46 0 -10 5 -18 10 -18 6 0 10 -9
10 -20 0 -11 5 -20 10 -20 6 0 10 -9 10 -20 0 -11 4 -20 9 -20 5 0 12 -14 16
-30 4 -17 11 -30 16 -30 5 0 9 -7 9 -16 0 -9 8 -24 18 -33 9 -9 26 -34 37 -56
11 -22 23 -41 28 -43 4 -2 7 -8 7 -13 0 -6 11 -21 25 -35 14 -14 25 -30 25
-36 0 -6 8 -18 18 -27 9 -9 31 -34 47 -56 16 -22 42 -53 57 -70 92 -101 138
-148 138 -142 0 4 22 -14 48 -40 60 -59 79 -75 122 -99 19 -10 42 -26 51 -34
39 -33 49 -40 59 -40 5 0 10 -5 10 -11 0 -5 5 -7 10 -4 6 3 10 1 10 -4 0 -6 9
-11 20 -11 11 0 20 -4 20 -10 0 -5 7 -10 15 -10 8 0 15 -4 15 -10 0 -5 9 -10
20 -10 11 0 20 -4 20 -10 0 -5 16 -12 35 -16 19 -3 35 -10 35 -15 0 -5 9 -9
20 -9 11 0 20 -4 20 -10 0 -5 7 -10 15 -10 8 0 15 -4 15 -10 0 -5 11 -10 24
-10 14 0 27 -4 31 -10 3 -5 12 -7 20 -3 8 3 15 0 15 -6 0 -6 11 -11 25 -11 14
0 25 -4 25 -10 0 -5 14 -10 30 -10 17 0 30 -4 30 -10 0 -5 11 -10 25 -10 14 0
25 -4 25 -9 0 -5 25 -13 55 -16 30 -4 58 -11 61 -16 3 -5 21 -9 40 -9 19 0 34
-4 34 -10 0 -5 20 -10 45 -10 25 0 45 -4 45 -10 0 -5 24 -10 54 -10 30 0 58
-4 61 -10 8 -13 802 -13 810 0 3 6 28 10 56 10 27 0 49 5 49 10 0 6 20 10 45
10 25 0 45 5 45 10 0 6 13 10 29 10 17 0 32 4 35 9 3 5 31 12 61 16 30 3 55
11 55 16 0 5 11 9 25 9 14 0 25 5 25 10 0 6 8 10 18 10 10 0 36 9 58 19 21 11
42 17 46 14 5 -2 8 1 8 6 0 6 11 11 25 11 14 0 25 5 25 10 0 6 7 10 15 10 8 0
15 5 15 10 0 6 9 10 20 10 11 0 20 5 20 10 0 6 9 10 19 10 11 0 26 7 35 15 8
8 19 15 25 15 6 0 11 5 11 10 0 6 7 10 15 10 8 0 15 3 15 8 0 4 19 16 43 27
23 11 51 28 62 38 49 43 84 67 97 67 7 0 20 10 28 21 8 12 20 27 27 33 24 22
42 36 47 36 4 0 68 57 91 81 6 6 25 26 43 45 17 18 32 37 32 41 0 14 57 73 64
66 3 -3 6 1 6 10 0 10 4 17 9 17 5 0 11 8 15 18 7 22 27 52 46 72 8 8 24 32
34 53 11 20 23 37 28 37 4 0 8 7 8 15 0 8 3 15 8 15 4 0 16 20 27 45 11 25 23
45 28 45 4 0 7 9 7 20 0 11 5 20 10 20 6 0 10 7 10 15 0 8 4 15 9 15 5 0 12
12 15 27 10 40 30 83 38 83 5 0 8 12 8 26 0 14 4 23 10 19 6 -3 10 4 10 15 0
20 18 68 41 112 5 10 9 27 9 38 0 11 5 20 10 20 6 0 10 14 10 31 0 16 4 28 9
25 5 -3 12 23 16 59 3 36 11 67 16 70 5 4 9 22 9 41 0 19 5 34 10 34 6 0 10
18 10 40 0 22 5 40 10 40 6 0 10 16 10 35 l0 35 -560 0 -560 0 0 -40 c0 -22
-4 -40 -10 -40 -5 0 -10 -13 -10 -30 0 -16 -4 -30 -9 -30 -4 0 -11 -17 -13
-38 -3 -21 -15 -58 -27 -82 -11 -24 -21 -50 -21 -57 0 -7 -4 -13 -10 -13 -5 0
-10 -9 -10 -21 0 -11 -4 -17 -10 -14 -5 3 -10 -1 -10 -10 0 -18 -30 -78 -42
-83 -5 -2 -8 -10 -8 -18 0 -8 -4 -14 -10 -14 -5 0 -10 -6 -10 -13 0 -7 -11
-24 -25 -39 -14 -15 -25 -32 -25 -37 0 -5 -9 -13 -20 -16 -11 -3 -20 -12 -20
-19 0 -7 -12 -22 -26 -32 -27 -20 -33 -25 -62 -60 -9 -12 -32 -29 -49 -38 -18
-9 -33 -21 -33 -26 0 -6 -9 -10 -20 -10 -11 0 -20 -5 -20 -11 0 -5 -4 -7 -10
-4 -5 3 -10 1 -10 -4 0 -6 -7 -11 -15 -11 -8 0 -15 -4 -15 -10 0 -5 -9 -10
-20 -10 -11 0 -20 -4 -20 -10 0 -5 -9 -10 -19 -10 -11 0 -22 -4 -26 -9 -3 -6
-26 -13 -50 -17 -25 -3 -45 -10 -45 -15 0 -5 -16 -9 -35 -9 -19 0 -35 -4 -35
-10 0 -5 -20 -10 -45 -10 -25 0 -45 -4 -45 -10 0 -6 -30 -10 -70 -10 -38 0
-70 -3 -70 -8 0 -10 -302 6 -322 18 -10 5 -34 10 -53 10 -19 0 -35 5 -35 10 0
6 -11 10 -25 10 -14 0 -25 4 -25 9 0 5 -20 12 -45 15 -25 4 -45 11 -45 17 0 5
-9 9 -20 9 -11 0 -20 5 -20 10 0 6 -7 10 -15 10 -8 0 -15 5 -15 10 0 6 -5 10
-12 10 -15 0 -86 48 -115 77 -12 13 -27 23 -33 23 -12 0 -112 100 -162 162
-15 18 -37 44 -48 57 -11 13 -20 30 -20 38 0 7 -4 13 -10 13 -5 0 -10 5 -10
10 0 6 -9 21 -21 33 -11 12 -23 34 -26 50 -3 15 -9 27 -14 27 -5 0 -9 9 -9 20
0 11 -4 20 -10 20 -5 0 -10 7 -10 15 0 8 -4 15 -9 15 -5 0 -12 18 -16 40 -4
22 -11 42 -16 46 -5 3 -9 16 -9 30 0 14 -4 22 -10 19 -6 -4 -10 7 -10 24 0 17
-4 31 -10 31 -5 0 -10 11 -10 24 0 14 -4 27 -10 31 -5 3 -12 32 -16 65 -4 33
-10 57 -15 54 -5 -3 -9 13 -9 35 0 23 -4 41 -10 41 -5 0 -10 17 -10 38 0 21
-5 43 -10 48 -6 6 -13 81 -17 167 -3 86 -10 157 -15 157 -11 0 -11 417 1 424
4 3 11 63 15 133 4 70 11 130 17 131 5 2 9 24 9 48 0 24 5 44 10 44 6 0 10 16
10 35 0 19 4 35 9 35 4 0 11 27 15 60 4 33 11 62 16 65 6 4 10 17 10 31 0 13
5 24 10 24 6 0 10 14 10 30 0 17 5 30 10 30 6 0 10 9 10 19 0 11 5 23 10 26 6
3 10 13 10 21 0 20 33 94 42 94 5 0 8 9 8 21 0 11 4 18 9 15 5 -3 12 10 15 29
4 19 11 35 16 35 6 0 10 7 10 15 0 8 5 15 10 15 6 0 10 7 10 15 0 8 4 15 9 15
5 0 11 10 15 23 3 12 19 36 36 54 16 18 30 37 30 43 0 6 5 8 10 5 6 -3 10 -1
10 5 0 14 114 128 155 154 33 21 47 32 75 58 11 10 31 20 45 24 14 3 25 10 25
15 0 5 7 9 15 9 8 0 15 5 15 10 0 6 9 10 20 10 11 0 20 4 20 8 0 5 6 9 13 10
43 5 77 16 77 23 0 5 11 9 25 9 14 0 25 5 25 10 0 6 16 10 35 10 19 0 35 4 35
9 0 11 45 18 198 32 137 12 413 -8 428 -32 3 -5 18 -9 35 -9 16 0 29 -4 29
-10 0 -5 14 -10 30 -10 17 0 30 -4 30 -10 0 -5 9 -10 21 -10 19 0 107 -45 119
-61 3 -3 15 -9 28 -13 12 -4 22 -12 22 -17 0 -5 7 -9 16 -9 19 0 214 -194 214
-213 0 -7 9 -19 20 -27 11 -8 20 -20 20 -27 0 -7 4 -13 10 -13 5 0 12 -16 16
-35 3 -19 10 -32 15 -29 5 3 9 -4 9 -15 0 -12 3 -21 8 -21 8 0 32 -49 32 -67
0 -7 4 -13 10 -13 5 0 12 -22 16 -50 4 -27 10 -50 15 -50 5 0 9 -11 9 -24 0
-14 5 -28 10 -31 6 -3 10 -22 10 -41 l0 -34 560 0 560 0 0 40 c0 22 -4 40 -10
40 -5 0 -10 22 -10 49 0 28 -4 53 -10 56 -5 3 -10 21 -10 40 0 19 -4 36 -9 39
-5 3 -12 35 -16 71 -3 36 -11 65 -16 65 -5 0 -9 14 -9 30 0 17 -4 30 -10 30
-5 0 -10 11 -10 25 0 14 -4 25 -10 25 -5 0 -10 11 -10 25 0 14 -4 25 -9 25 -5
0 -12 18 -16 40 -4 22 -11 40 -16 40 -5 0 -9 9 -9 20 0 11 -3 20 -8 20 -9 0
-42 74 -42 95 0 8 -4 15 -10 15 -5 0 -10 7 -10 15 0 8 -4 15 -10 15 -5 0 -10
7 -10 15 0 8 -4 15 -10 15 -5 0 -10 7 -10 15 0 8 -4 15 -9 15 -5 0 -13 10 -17
23 -4 12 -14 29 -23 37 -9 8 -25 32 -36 53 -11 20 -23 37 -27 37 -5 0 -8 4 -8
10 0 5 -16 24 -35 43 -19 19 -35 37 -35 41 0 8 -58 70 -114 123 -14 13 -26 28
-26 33 0 5 -8 11 -18 14 -10 4 -42 29 -72 56 -30 28 -57 50 -60 50 -4 0 -20
11 -36 25 -16 14 -34 25 -39 25 -6 0 -16 9 -23 21 -8 12 -19 18 -28 15 -8 -3
-14 -1 -14 4 0 6 -6 10 -13 10 -7 0 -19 9 -27 20 -8 11 -22 20 -32 20 -10 0
-18 4 -18 10 0 5 -16 12 -35 16 -19 3 -35 10 -35 15 0 5 -7 9 -15 9 -8 0 -15
5 -15 10 0 6 -9 10 -20 10 -11 0 -20 3 -20 8 0 10 -51 32 -61 26 -5 -3 -9 0
-9 5 0 6 -11 11 -25 11 -14 0 -25 5 -25 10 0 6 -9 10 -20 10 -11 0 -20 5 -20
10 0 6 -11 10 -25 10 -14 0 -25 4 -25 9 0 5 -25 12 -55 16 -30 3 -55 11 -55
16 0 5 -16 9 -35 9 -19 0 -35 5 -35 10 0 6 -16 10 -35 10 -19 0 -35 5 -35 10
0 6 -15 10 -33 10 -18 0 -37 4 -43 10 -5 5 -67 13 -137 16 -70 4 -127 11 -127
16 0 4 -103 8 -230 8 -147 0 -230 -4 -230 -10z"/>
<path d="M5285 5344 c-38 -7 -99 -18 -135 -24 -749 -135 -1428 -659 -1789
-1380 -43 -85 -83 -168 -89 -185 -6 -16 -21 -55 -32 -85 -71 -186 -139 -450
-143 -552 -1 -27 -5 -48 -9 -48 -5 0 -8 -9 -8 -20 0 -11 4 -20 9 -20 5 0 15
33 21 73 137 809 657 1480 1391 1794 586 251 1200 259 1793 23 393 -156 738
-424 1011 -785 101 -133 246 -397 299 -545 38 -105 76 -220 82 -249 3 -14 7
-28 10 -32 9 -16 49 -233 59 -327 7 -65 -8 -117 -50 -167 -9 -11 -14 -14 -10
-7 11 21 -4 13 -16 -9 -8 -15 -8 -19 0 -15 16 10 14 1 -8 -34 -10 -17 -22 -31
-27 -30 -5 1 -10 -4 -13 -11 -2 -6 1 -9 7 -5 7 4 -5 -24 -26 -63 -20 -38 -41
-67 -46 -64 -5 4 -7 2 -4 -3 9 -14 -11 -56 -23 -49 -5 4 -10 1 -8 -6 3 -28 -1
-38 -16 -33 -8 4 -15 2 -16 -2 -2 -27 -10 -46 -33 -86 -49 -84 -26 -79 -378
-84 -172 -2 -343 -1 -380 2 l-68 7 0 38 c0 37 -2 39 -30 39 -27 0 -30 -4 -36
-40 -8 -50 -32 -55 -26 -5 3 25 0 36 -12 41 -9 3 -16 16 -16 28 0 12 -9 32
-20 44 -14 15 -18 29 -14 51 6 30 8 30 53 25 25 -3 65 -13 89 -21 23 -9 45
-13 48 -10 3 3 -6 30 -20 60 -14 29 -26 59 -26 65 0 6 -8 18 -17 28 -15 15
-18 33 -16 103 3 82 2 86 -25 108 -15 12 -21 22 -14 23 16 0 16 20 -1 20 -7 0
-23 9 -35 20 -23 22 -67 26 -120 11 -17 -5 -57 -7 -88 -4 l-56 6 5 55 c8 78 0
112 -28 112 -14 0 -26 9 -33 25 -7 15 -20 25 -32 25 -12 0 -28 7 -36 15 -14
13 -13 15 9 15 14 0 32 3 41 6 10 4 16 1 16 -9 0 -26 85 -38 108 -15 7 7 12
33 12 58 0 54 -29 90 -73 90 -24 0 -27 -4 -27 -35 0 -24 -5 -35 -15 -35 -8 0
-15 4 -15 9 0 13 -69 43 -85 37 -7 -2 -21 2 -32 9 -22 18 -55 19 -71 3 -9 -9
-12 -8 -12 4 0 9 -8 19 -19 23 -10 3 -26 14 -36 25 -14 16 -31 20 -76 20 -32
0 -60 -4 -64 -10 -3 -5 -32 -12 -65 -16 -33 -4 -60 -11 -60 -17 0 -18 -13 2
-26 38 -6 20 -8 38 -3 41 14 8 10 60 -5 73 -8 7 -17 29 -21 51 -3 21 -14 46
-24 56 -15 16 -16 22 -3 46 7 15 17 30 23 33 5 4 9 27 9 53 0 42 3 50 30 65
17 10 30 13 30 8 0 -6 10 -11 22 -11 31 0 68 46 68 85 0 17 9 41 20 53 11 12
20 28 20 36 0 8 5 16 10 18 6 2 13 26 16 53 7 65 -13 129 -43 133 -42 6 -47
125 -7 177 24 31 33 75 15 75 -5 0 -11 9 -14 20 -8 31 -48 25 -78 -11 -25 -31
-27 -32 -57 -18 -18 8 -32 17 -32 21 0 3 -13 9 -29 13 -16 3 -39 17 -51 30
-20 21 -31 24 -84 23 -34 -1 -70 -6 -81 -11 -11 -6 -27 -13 -35 -17 -15 -7
-18 -20 -40 -145 -6 -33 -15 -61 -21 -63 -12 -5 -12 -79 1 -87 15 -9 13 -122
-2 -127 -8 -3 -13 -38 -14 -109 -1 -57 -5 -103 -10 -103 -5 1 -18 20 -29 42
-18 37 -24 41 -57 42 l-38 0 0 -44 c0 -25 -4 -48 -10 -51 -5 -3 -10 -19 -10
-36 0 -22 5 -29 19 -29 16 0 20 -12 29 -72 6 -40 15 -91 21 -113 6 -22 13 -57
16 -77 5 -29 11 -39 30 -44 14 -3 23 -10 20 -14 -3 -5 4 -11 15 -15 11 -3 20
-15 20 -25 0 -12 8 -20 23 -22 20 -3 22 -9 25 -80 l3 -78 29 0 c15 0 31 6 33
13 3 6 6 -3 6 -22 l1 -34 -56 6 c-75 8 -84 3 -84 -44 0 -32 3 -39 20 -39 11 0
20 -4 20 -8 0 -4 14 -16 30 -25 17 -10 30 -24 30 -32 0 -7 5 -15 11 -17 6 -2
11 -17 11 -33 0 -17 6 -37 13 -45 18 -20 36 -66 44 -110 5 -29 11 -36 34 -38
15 -2 27 0 27 5 0 5 20 17 45 28 33 15 45 26 45 42 0 12 4 24 9 27 11 7 10
196 -2 196 -5 0 -21 13 -35 28 -15 16 -33 31 -40 33 -8 3 2 11 22 19 20 7 36
20 36 28 0 7 6 20 14 28 17 16 66 19 66 4 0 -5 8 -10 18 -10 11 0 27 -9 36
-19 18 -19 17 -19 -18 -9 -32 10 -38 9 -51 -8 -18 -24 -19 -48 -2 -76 20 -36
34 -48 58 -48 29 0 48 27 49 68 0 17 4 32 8 32 15 0 52 -46 52 -64 0 -36 58
-63 75 -35 18 28 11 95 -13 127 -13 18 -22 35 -20 37 6 6 34 -19 47 -43 6 -12
27 -28 45 -36 33 -14 66 -62 66 -95 0 -10 -5 -7 -13 9 -9 18 -21 25 -42 25
-47 0 -46 -38 2 -80 21 -19 45 -34 54 -35 18 0 33 26 23 41 -10 16 11 9 48
-16 20 -14 41 -25 47 -25 5 0 12 -4 15 -8 2 -4 -11 -6 -30 -4 -30 4 -34 2 -34
-19 0 -18 -3 -20 -12 -11 -7 7 -22 12 -35 12 -19 0 -23 -5 -23 -29 0 -16 -4
-31 -9 -33 -5 -1 -12 -31 -16 -65 -7 -63 -7 -63 19 -63 14 0 26 4 26 10 0 11
40 50 52 50 5 0 12 -8 15 -17 9 -25 29 -43 46 -43 8 0 23 -11 33 -25 11 -14
29 -25 43 -25 22 0 23 3 19 45 -3 25 -2 45 3 45 5 0 8 -3 8 -7 -6 -36 2 -43
46 -43 36 0 45 3 45 18 1 16 1 16 14 0 7 -10 17 -18 22 -18 13 0 34 -49 23
-56 -5 -3 -9 -15 -10 -27 -1 -19 -2 -18 -9 5 -4 15 -15 34 -23 43 -20 19 -77
20 -77 1 0 -8 -7 -16 -15 -20 -17 -6 -21 -56 -4 -56 5 0 7 -4 4 -10 -3 -5 2
-21 11 -35 16 -25 16 -25 -15 -25 -26 0 -31 4 -31 24 0 13 -7 27 -16 30 -24 9
-54 7 -54 -4 0 -5 -11 -10 -25 -10 -17 0 -25 -5 -25 -18 0 -24 19 -42 44 -42
17 0 16 -4 -12 -33 -21 -22 -32 -43 -32 -62 0 -17 -12 -52 -25 -80 -24 -49
-25 -49 -25 -17 0 17 4 32 8 32 11 0 32 61 32 93 0 33 -33 57 -80 57 -61 0
-80 -10 -80 -39 0 -15 -7 -37 -16 -49 -8 -12 -18 -46 -21 -75 l-5 -52 -177 2
c-276 2 -273 2 -266 13 11 18 -27 11 -41 -8 -7 -9 -14 -12 -14 -6 0 7 -11 9
-25 6 l-25 -4 15 36 c17 40 20 103 6 140 -7 17 -7 26 2 30 7 2 5 5 -4 5 -9 1
-23 11 -32 24 -16 25 -84 63 -128 71 -18 4 -28 14 -31 31 -4 21 -1 25 18 25
21 0 24 5 24 35 0 19 5 35 10 35 6 0 10 -7 10 -16 0 -10 7 -14 23 -12 19 3 22
10 25 51 3 40 0 47 -15 47 -10 0 -30 11 -44 24 -15 13 -37 26 -50 28 -21 3
-24 -2 -29 -37 -3 -22 -9 -45 -13 -51 -4 -7 0 -25 8 -40 24 -46 19 -60 -24
-72 -21 -7 -46 -12 -55 -12 -10 0 -19 -11 -22 -30 -4 -16 -13 -30 -20 -30 -9
0 -14 -12 -14 -35 0 -19 -4 -35 -10 -35 -5 0 -10 -20 -10 -43 0 -35 -7 -51
-33 -82 l-33 -38 -145 2 c-79 1 -223 6 -319 11 -96 5 -231 11 -299 12 l-124 3
-23 -95 c-13 -52 -28 -103 -34 -112 -20 -35 -12 -53 24 -55 18 -2 140 -25 271
-53 132 -27 247 -50 256 -50 28 0 32 -17 9 -40 -11 -11 -20 -24 -20 -29 0 -5
-9 -11 -20 -14 -11 -3 -20 -9 -19 -14 1 -4 -1 -16 -5 -25 -5 -10 -6 -36 -4
-57 3 -36 1 -40 -25 -45 -26 -5 -28 -9 -25 -48 3 -38 6 -43 28 -43 21 0 25 5
28 35 4 38 15 50 50 50 21 0 23 4 20 38 -3 32 0 37 20 40 14 2 22 10 22 23 0
14 7 19 28 19 16 0 37 9 47 20 10 11 22 17 28 13 5 -3 7 -1 4 4 -4 6 -1 15 6
21 8 7 55 2 152 -17 191 -38 186 -36 173 -69 -13 -36 -26 -142 -17 -142 12 0
78 73 85 93 7 21 26 21 85 3 24 -8 77 -24 116 -36 70 -21 72 -23 61 -43 -7
-12 -15 -42 -19 -67 -3 -25 -10 -53 -14 -62 -5 -12 -3 -18 6 -17 15 0 73 74
91 115 6 13 16 24 22 24 26 -1 261 -79 259 -87 -1 -4 -12 -34 -23 -65 -12 -32
-20 -72 -18 -90 3 -32 4 -33 56 -36 42 -2 52 0 52 13 0 15 3 23 33 81 9 17 14
34 10 38 -3 3 1 6 10 6 10 0 17 4 17 10 0 6 15 4 38 -4 20 -7 70 -24 110 -37
l74 -24 -6 -40 -6 -40 29 31 c27 30 31 31 65 20 34 -10 36 -14 36 -51 0 -23 4
-45 10 -51 5 -5 10 -32 11 -60 2 -45 6 -52 38 -76 20 -14 60 -34 89 -44 28
-10 52 -21 52 -24 0 -11 -118 -75 -224 -121 -75 -32 -359 -115 -466 -136 -69
-13 -240 -19 -432 -15 -65 2 -68 3 -68 27 0 19 4 23 17 18 12 -5 15 -2 10 10
-5 14 0 17 32 17 21 0 44 6 51 14 17 22 8 60 -17 71 -13 5 -23 15 -23 22 0 7
-4 13 -10 13 -5 0 -10 -7 -10 -15 0 -8 -5 -15 -12 -15 -6 0 -26 -11 -44 -25
-18 -14 -36 -25 -39 -25 -4 0 -13 -6 -21 -14 -16 -17 -19 -56 -4 -56 6 0 10
-7 10 -15 0 -24 -28 -17 -32 8 -4 27 -58 39 -58 13 0 -9 -4 -16 -9 -16 -23 0
-124 25 -216 52 -104 32 -127 40 -235 90 -36 17 -76 35 -90 42 -14 6 -27 13
-30 16 -3 3 -25 16 -50 29 -183 99 -403 282 -551 459 -38 46 -69 86 -69 90 0
4 -10 18 -23 32 -13 14 -34 44 -47 67 -13 24 -26 43 -29 43 -3 0 -28 44 -56
98 -27 53 -52 99 -55 102 -9 8 -78 165 -85 193 -4 15 -12 27 -17 27 -22 0 13
-120 82 -278 145 -330 396 -658 668 -871 59 -47 79 -67 70 -74 -9 -6 -8 -7 5
-3 11 3 49 -15 105 -51 341 -221 780 -342 1152 -318 165 11 246 10 295 -3 22
-6 55 -15 74 -19 l34 -8 -49 -12 c-27 -7 -77 -18 -112 -24 -52 -10 -62 -15
-56 -28 4 -9 9 -31 12 -49 4 -28 8 -33 26 -29 11 3 57 13 101 22 44 10 89 21
100 25 11 4 50 16 86 27 65 20 68 20 135 3 38 -10 82 -23 97 -29 16 -6 39 -11
52 -11 12 0 38 -6 56 -14 l34 -14 -78 -37 c-158 -74 -375 -137 -603 -175 -151
-26 -484 -31 -619 -11 -316 49 -543 118 -772 237 -315 164 -536 344 -778 635
-12 13 -36 47 -55 74 -19 28 -38 55 -42 60 -47 57 -177 286 -212 375 -10 25
-24 59 -31 75 -30 69 -57 145 -76 215 -34 119 -41 152 -63 275 -13 69 -22 140
-40 320 -2 22 -3 -39 -1 -135 2 -96 8 -197 13 -225 6 -27 15 -81 22 -120 7
-38 21 -104 32 -145 11 -41 24 -88 28 -105 64 -247 215 -568 374 -795 289
-411 653 -716 1081 -904 195 -85 335 -126 619 -181 116 -22 618 -21 736 1 383
74 700 196 950 364 41 28 60 35 75 29 11 -4 70 -27 130 -49 187 -71 205 -78
395 -153 l185 -74 9 48 c16 87 14 89 -204 226 -63 40 -120 77 -127 83 -7 5
-15 10 -18 10 -3 0 -39 22 -79 48 l-73 48 104 100 c99 94 106 99 119 80 14
-21 8 -25 158 106 17 15 38 27 46 28 8 0 63 -16 122 -35 92 -30 114 -34 146
-26 20 5 58 12 83 15 l46 7 -5 -33 -4 -33 33 31 c31 28 38 30 74 23 63 -13 77
-17 132 -37 28 -11 54 -17 57 -14 9 8 7 -9 -3 -46 -9 -29 -8 -31 9 -22 9 5 20
16 24 25 8 22 30 19 131 -19 85 -33 102 -47 83 -72 -13 -17 -22 -104 -11 -104
13 0 58 51 77 89 l16 30 63 -24 c34 -13 79 -30 99 -39 l37 -16 -13 -37 c-28
-82 -35 -107 -32 -111 6 -5 78 75 94 104 l12 23 53 -21 c28 -11 61 -24 72 -28
11 -5 27 -11 36 -13 14 -5 15 -13 9 -49 -5 -24 -11 -50 -15 -59 -3 -10 -1 -20
6 -25 15 -9 71 52 100 109 11 21 23 36 27 34 14 -7 198 -96 297 -142 55 -26
160 -76 233 -111 73 -35 139 -64 145 -63 11 0 137 140 137 152 0 3 -55 52
-122 108 -68 57 -150 126 -184 155 l-61 51 33 27 c19 15 43 45 54 66 l20 40
-25 0 c-25 0 -25 0 -25 94 l0 94 -37 23 c-23 15 -58 25 -93 27 -66 5 -99 -9
-175 -74 l-50 -42 -141 119 -141 120 34 37 c59 64 86 118 86 175 1 103 -72
185 -172 195 -67 6 -107 -10 -187 -73 l-68 -55 -35 38 c-19 20 -59 64 -89 97
-31 33 -90 96 -131 140 -42 44 -125 133 -185 198 -60 65 -119 120 -133 123
-14 4 -22 12 -19 20 3 7 0 14 -6 16 -12 4 29 108 42 108 4 0 17 20 30 45 13
25 26 45 30 45 4 0 10 14 14 31 4 20 10 28 17 23 8 -4 9 -3 5 4 -4 6 2 20 14
32 11 11 18 20 15 20 -6 0 1 9 35 49 8 10 16 24 18 32 2 7 7 16 11 19 9 6 35
51 36 62 0 4 8 16 17 27 9 11 14 22 11 25 -4 3 -2 6 4 6 8 0 30 35 38 60 1 3
16 35 33 72 18 37 32 72 32 77 0 5 7 12 16 15 9 3 14 13 10 21 -3 8 0 20 7 27
7 7 13 27 15 43 2 17 12 57 22 90 21 66 40 203 34 250 -9 72 -36 179 -52 201
-18 26 -82 54 -122 54 -74 0 -215 -56 -326 -129 l-101 -66 -15 65 c-44 178
-87 295 -186 500 -172 357 -427 679 -727 920 -305 244 -721 437 -1075 499 -36
6 -103 18 -149 26 -108 19 -533 19 -636 -1z m2809 -2199 c78 -473 43 -912
-109 -1371 -76 -227 -163 -404 -320 -649 -28 -43 -157 -212 -199 -260 -28 -32
-37 -37 -48 -27 -16 13 -31 1 -163 -116 -51 -45 -61 -59 -65 -95 -5 -38 -11
-46 -100 -114 -53 -40 -105 -72 -118 -73 -24 0 -63 17 -73 32 -6 10 -72 -15
-111 -43 -14 -11 -28 -19 -31 -19 -2 0 -10 19 -16 43 -7 23 -18 49 -24 58 -12
16 -133 55 -205 66 l-33 5 44 22 c592 300 1073 937 1207 1601 6 33 14 69 16
80 20 94 34 267 34 428 l0 190 47 81 c25 45 65 105 87 135 23 30 50 66 60 80
25 34 89 101 92 98 2 -2 14 -70 28 -152z m-2964 -545 c0 -5 -7 -10 -15 -10 -8
0 -15 -7 -15 -15 0 -8 7 -15 15 -15 8 0 15 -4 15 -10 0 -5 -13 -10 -30 -10
-36 0 -37 -11 -10 -65 11 -22 20 -52 20 -67 0 -26 -3 -28 -40 -28 -37 0 -40
-2 -51 -40 -11 -36 -15 -40 -56 -46 -24 -3 -50 -12 -57 -20 -8 -7 -16 -10 -20
-7 -10 10 -7 -16 4 -36 7 -14 0 -29 -35 -70 -25 -29 -48 -58 -52 -64 -5 -7
-29 -23 -55 -36 -27 -13 -48 -27 -48 -32 0 -10 -72 0 -84 12 -6 6 -5 9 3 9 7
0 22 11 33 25 11 14 30 25 44 25 13 0 24 4 24 9 0 5 30 39 66 77 36 37 69 75
72 84 11 27 90 92 103 85 15 -10 29 13 29 48 0 22 4 27 25 27 27 0 35 24 11
33 -31 12 13 95 68 128 36 22 36 22 36 9z m1080 -159 l0 -99 -35 -6 c-21 -4
-35 -13 -35 -21 0 -8 -7 -15 -15 -15 -8 0 -15 -9 -15 -20 0 -31 -39 -122 -61
-140 -10 -10 -19 -27 -19 -39 0 -11 -4 -21 -9 -21 -5 0 -11 -9 -14 -21 -4 -16
-12 -20 -38 -17 -28 2 -35 8 -43 36 -5 17 -15 32 -22 32 -8 0 -14 5 -14 10 0
6 -9 10 -20 10 -13 0 -20 7 -20 19 0 11 -4 21 -9 23 -6 2 -14 22 -19 45 -10
44 -4 53 37 53 22 0 71 23 71 33 0 4 24 7 53 7 28 0 47 -4 42 -8 -25 -18 -50
-107 -39 -137 4 -8 16 -15 29 -15 18 0 24 7 29 35 4 20 4 40 1 45 -3 6 -1 10
4 10 6 0 11 12 11 28 0 15 9 35 20 45 11 9 20 26 20 37 0 11 6 23 13 26 7 2
14 14 14 26 1 12 6 24 10 27 4 3 10 17 11 31 2 14 8 27 13 28 5 2 9 8 9 13 0
12 22 38 33 39 4 0 7 -44 7 -99z m83 -126 c15 -8 33 -12 40 -10 8 4 13 -10 14
-42 2 -46 0 -49 -33 -65 -44 -22 -110 -24 -118 -3 -3 8 -15 15 -26 15 -28 0
-27 38 3 49 29 11 67 45 67 60 0 15 19 14 53 -4z m308 -101 c13 -14 38 -34 56
-45 22 -14 30 -25 26 -36 -4 -11 -3 -14 5 -9 7 4 15 1 18 -8 3 -9 15 -16 26
-16 15 0 18 -5 13 -20 -5 -14 0 -26 16 -39 30 -24 31 -68 2 -91 -30 -23 -29
-40 1 -40 19 0 22 -4 18 -25 -3 -18 2 -31 19 -45 22 -20 22 -21 6 -56 -19 -39
-21 -48 -8 -40 17 11 40 -31 50 -89 8 -49 6 -67 -7 -97 -9 -21 -23 -38 -29
-38 -26 0 -53 -35 -53 -66 0 -45 -11 -94 -21 -94 -5 0 -9 27 -9 60 0 33 -4 60
-10 60 -5 0 -10 6 -10 13 0 23 -25 67 -37 67 -8 0 -13 -13 -13 -30 0 -20 -5
-30 -15 -30 -8 0 -15 9 -15 20 0 20 -15 25 -43 14 -8 -3 -13 -13 -10 -24 3
-10 0 -21 -6 -24 -19 -12 -12 -48 14 -72 14 -13 25 -30 25 -38 0 -11 -21 -4
-80 25 -44 21 -84 39 -87 39 -4 0 -15 -8 -25 -17 -18 -16 -19 -16 -9 9 9 25 8
28 -26 39 -21 6 -60 25 -89 40 -29 16 -60 29 -70 29 -16 0 -15 2 4 20 46 44
21 100 -64 140 -78 38 -98 39 -92 5 3 -14 2 -25 -2 -25 -13 0 -19 -39 -6 -44
6 -2 3 -5 -6 -5 -9 -1 -20 4 -23 9 -3 6 -15 10 -26 10 -10 0 -19 7 -19 15 0 8
-7 15 -15 15 -8 0 -15 -7 -15 -15 0 -10 -10 -15 -30 -15 -27 0 -30 3 -31 33
-1 17 -1 35 -1 38 2 14 -44 -5 -64 -27 -15 -15 -29 -21 -43 -17 -15 4 -23 -1
-30 -18 -10 -28 -71 -106 -71 -92 0 5 11 33 25 62 16 31 23 61 20 72 -8 23 12
52 28 42 7 -4 8 0 4 11 -5 14 -3 17 8 12 8 -3 14 0 12 6 -2 11 26 19 116 33
34 5 38 10 49 50 11 42 15 45 45 45 22 0 36 6 43 20 8 14 21 20 48 20 48 0 82
-37 82 -92 0 -38 7 -46 26 -29 5 5 20 11 34 13 20 2 28 12 38 46 16 48 55 68
77 38 26 -35 42 -19 50 49 6 55 10 65 26 65 10 0 27 -8 37 -18 24 -24 42 -17
43 16 0 15 3 21 6 15 2 -8 22 -13 44 -13 36 0 39 2 39 28 0 15 3 44 6 65 5 30
4 37 -10 37 -9 0 -16 7 -16 15 0 8 -5 15 -11 15 -8 0 -8 4 1 15 6 8 9 19 5 25
-12 20 12 10 36 -16z m210 -981 c15 4 19 0 19 -19 0 -30 -22 -114 -30 -114 -4
0 -15 -8 -26 -18 -27 -25 -95 -69 -144 -94 -14 -7 -27 -15 -30 -18 -11 -11
-70 -50 -76 -50 -3 0 -44 -19 -90 -41 l-85 -42 -111 13 -111 13 59 22 c160 61
367 190 523 327 48 42 55 45 69 32 8 -9 23 -13 33 -11z m-41 -250 c-4 -21 -18
-70 -31 -110 -24 -71 -42 -90 -70 -72 -8 5 -32 9 -55 9 -23 0 -62 3 -87 6
l-46 7 64 39 c84 50 189 123 205 143 21 25 28 17 20 -22z"/>
<path d="M10570 2715 l0 -2575 545 0 545 0 0 924 0 924 802 4 c630 2 802 6
806 16 2 7 21 12 48 12 24 0 44 5 44 10 0 6 20 10 45 10 25 0 45 4 45 9 0 4
27 11 60 15 33 4 60 11 60 16 0 6 14 10 30 10 17 0 30 5 30 10 0 6 9 10 19 10
11 0 23 5 26 10 3 6 15 10 26 10 10 0 19 4 19 10 0 5 16 12 35 16 19 3 35 10
35 15 0 5 7 9 15 9 8 0 15 4 15 9 0 5 14 14 30 21 17 7 30 17 30 22 0 5 5 6
10 3 6 -4 23 7 39 24 16 17 32 31 35 31 6 0 37 27 68 58 59 59 98 103 98 109
0 5 11 20 25 35 14 15 25 33 25 39 0 7 3 9 6 6 4 -4 16 11 26 33 11 22 24 40
29 40 5 0 9 7 9 15 0 8 4 15 9 15 5 0 12 12 16 27 3 15 15 39 26 54 10 15 19
34 19 43 0 9 5 16 10 16 6 0 10 9 10 20 0 11 4 20 9 20 5 0 12 18 16 40 4 22
11 42 16 46 5 3 9 16 9 30 0 13 5 24 10 24 6 0 10 14 10 31 0 16 4 28 9 25 5
-3 12 23 16 59 3 36 11 67 16 70 5 4 9 26 9 50 0 24 5 47 10 50 6 3 10 35 10
71 0 36 4 64 10 64 6 0 10 93 10 260 0 167 -4 260 -10 260 -6 0 -10 27 -10 60
0 33 -4 60 -10 60 -5 0 -10 20 -10 44 0 25 -4 47 -9 50 -5 3 -12 33 -16 66 -4
33 -11 60 -16 60 -5 0 -9 11 -9 25 0 14 -4 25 -10 25 -5 0 -10 11 -10 24 0 14
-4 27 -9 31 -6 3 -13 26 -17 50 -3 25 -10 42 -15 39 -5 -3 -9 4 -9 15 0 12 -4
21 -10 21 -5 0 -10 9 -10 20 0 11 -3 20 -7 20 -5 0 -17 20 -28 45 -11 25 -23
45 -27 45 -5 0 -8 7 -8 15 0 8 -4 15 -8 15 -4 0 -16 14 -26 31 -26 44 -138
170 -220 246 -14 13 -26 28 -26 32 0 4 -18 16 -40 26 -22 10 -42 26 -45 36 -4
11 -15 19 -26 19 -10 0 -19 5 -19 10 0 6 -7 10 -16 10 -9 0 -12 5 -8 12 5 8 2
9 -9 5 -10 -3 -17 -2 -17 3 0 6 -9 10 -20 10 -11 0 -20 5 -20 10 0 6 -7 10
-15 10 -8 0 -15 5 -15 10 0 6 -9 10 -20 10 -11 0 -20 4 -20 9 0 5 -20 12 -45
15 -25 4 -45 11 -45 16 0 4 -20 14 -45 21 -25 7 -45 17 -45 21 0 4 -11 8 -25
8 -14 0 -25 4 -25 9 0 5 -31 12 -70 16 -38 4 -70 11 -70 16 0 5 -25 9 -55 9
-30 0 -55 5 -55 10 0 6 -45 10 -115 10 -70 0 -115 4 -115 10 0 7 -407 10
-1200 10 l-1200 0 0 -2575z m2287 1627 c12 -6 38 -12 57 -12 20 0 36 -4 36
-10 0 -5 14 -10 30 -10 17 0 30 -4 30 -9 0 -5 20 -12 44 -15 23 -4 53 -16 64
-26 12 -11 26 -20 33 -20 18 0 119 -106 119 -125 0 -9 5 -13 10 -10 6 3 10 -1
10 -9 0 -9 3 -16 8 -16 10 0 42 -75 42 -100 0 -11 5 -20 10 -20 6 0 10 -13 10
-30 0 -16 5 -30 10 -30 6 0 10 -18 10 -39 0 -22 5 -43 10 -46 6 -4 10 -78 10
-191 0 -116 -4 -184 -10 -184 -5 0 -10 -25 -10 -55 0 -30 -4 -55 -10 -55 -5 0
-10 -20 -10 -45 0 -25 -4 -45 -10 -45 -5 0 -10 -10 -10 -23 0 -21 -37 -85 -67
-115 -7 -7 -13 -18 -13 -23 0 -5 -6 -9 -13 -9 -7 0 -30 -16 -51 -35 -21 -19
-44 -35 -51 -35 -8 0 -15 -4 -17 -8 -7 -17 -99 -52 -153 -58 -30 -4 -55 -11
-55 -15 0 -5 -29 -9 -65 -9 -37 0 -65 -4 -65 -10 0 -7 -195 -10 -565 -10
l-565 0 0 738 0 737 587 -5 c439 -4 594 -9 610 -18z"/>
<path d="M15650 5259 c0 -16 -4 -28 -9 -25 -4 3 -11 -15 -14 -39 -4 -25 -11
-54 -17 -65 -5 -11 -14 -29 -20 -40 -5 -11 -10 -29 -10 -40 0 -11 -4 -20 -10
-20 -5 0 -10 -10 -10 -22 0 -13 -7 -36 -15 -52 -8 -15 -15 -37 -15 -47 0 -10
-4 -21 -10 -24 -5 -3 -10 -17 -10 -31 0 -13 -4 -24 -10 -24 -5 0 -10 -12 -10
-26 0 -14 -4 -23 -9 -20 -4 3 -11 -15 -14 -39 -6 -43 -10 -52 -35 -102 -7 -13
-12 -32 -12 -43 0 -12 -4 -19 -9 -16 -4 3 -11 -15 -14 -39 -6 -43 -10 -52 -35
-102 -7 -13 -12 -30 -12 -38 0 -8 -4 -15 -10 -15 -5 0 -10 -13 -10 -30 0 -16
-4 -30 -9 -30 -5 0 -12 -20 -15 -45 -4 -24 -11 -47 -17 -50 -5 -4 -9 -17 -9
-31 0 -13 -4 -24 -10 -24 -5 0 -10 -11 -10 -25 0 -14 -4 -25 -9 -25 -5 0 -12
-20 -15 -45 -4 -24 -11 -47 -17 -50 -5 -4 -9 -17 -9 -31 0 -13 -4 -24 -10 -24
-5 0 -10 -11 -10 -25 0 -14 -4 -25 -10 -25 -5 0 -10 -11 -10 -25 0 -14 -4 -25
-9 -25 -5 0 -12 -20 -15 -45 -4 -24 -11 -47 -17 -50 -5 -4 -9 -17 -9 -31 0
-13 -4 -24 -10 -24 -5 0 -10 -12 -10 -26 0 -14 -4 -23 -9 -20 -4 3 -11 -15
-14 -39 -4 -25 -11 -54 -17 -65 -5 -11 -14 -29 -20 -40 -5 -11 -10 -29 -10
-40 0 -12 -4 -19 -9 -16 -4 3 -11 -15 -14 -39 -4 -25 -11 -54 -17 -65 -5 -11
-14 -29 -20 -40 -5 -11 -10 -29 -10 -40 0 -11 -4 -20 -10 -20 -5 0 -10 -12
-10 -26 0 -14 -4 -23 -9 -20 -5 3 -11 -17 -15 -44 -4 -27 -11 -52 -16 -55 -6
-3 -10 -17 -10 -31 0 -13 -4 -24 -10 -24 -5 0 -10 -11 -10 -25 0 -14 -4 -25
-9 -25 -5 0 -12 -20 -15 -45 -4 -24 -11 -47 -17 -50 -5 -4 -9 -17 -9 -31 0
-13 -4 -24 -10 -24 -5 0 -10 -11 -10 -25 0 -14 -4 -25 -10 -25 -5 0 -10 -12
-10 -26 0 -14 -4 -23 -9 -20 -5 3 -11 -17 -15 -44 -4 -27 -11 -52 -16 -55 -6
-3 -10 -17 -10 -31 0 -13 -4 -24 -10 -24 -5 0 -10 -11 -10 -25 0 -14 -4 -25
-9 -25 -5 0 -11 -18 -15 -40 -3 -23 -11 -50 -16 -60 -6 -11 -14 -29 -20 -40
-5 -11 -10 -29 -10 -40 0 -11 -4 -20 -10 -20 -5 0 -10 -11 -10 -25 0 -14 -4
-25 -9 -25 -5 0 -12 -20 -15 -45 -4 -24 -11 -47 -17 -50 -5 -4 -9 -17 -9 -31
0 -13 -4 -24 -10 -24 -5 0 -10 -11 -10 -25 0 -14 -4 -25 -9 -25 -5 0 -12 -20
-15 -45 -4 -24 -11 -47 -17 -50 -5 -4 -9 -17 -9 -31 0 -13 -4 -24 -10 -24 -5
0 -10 -11 -10 -25 0 -14 -4 -25 -10 -25 -5 0 -10 -11 -10 -25 0 -14 -4 -25 -9
-25 -5 0 -12 -22 -16 -50 -4 -27 -11 -50 -16 -50 -5 0 -9 -11 -9 -25 0 -14 -4
-25 -10 -25 -5 0 -10 -11 -10 -25 0 -14 -4 -25 -9 -25 -5 0 -12 -20 -15 -45
-4 -24 -11 -47 -17 -50 -5 -4 -9 -17 -9 -31 0 -13 -4 -24 -10 -24 -5 0 -10
-11 -10 -25 0 -14 -4 -25 -10 -25 -5 0 -10 -8 -10 -18 0 -20 -33 -118 -43
-129 -4 -3 -7 -17 -7 -30 0 -13 -4 -23 -10 -23 -5 0 -10 -11 -10 -25 0 -14 -4
-25 -9 -25 -5 0 -12 -22 -16 -50 -4 -27 -11 -50 -16 -50 -5 0 -9 -11 -9 -25 0
-14 -4 -25 -10 -25 -5 0 -10 -11 -10 -25 0 -14 -4 -25 -9 -25 -5 0 -12 -20
-15 -45 -4 -24 -11 -47 -17 -50 -5 -4 -9 -17 -9 -31 0 -13 -4 -24 -10 -24 -5
0 -10 -11 -10 -25 0 -14 -4 -25 -10 -25 -5 0 -10 -11 -10 -25 0 -14 -4 -25 -9
-25 -5 0 -12 -20 -15 -45 -4 -24 -11 -47 -17 -50 -5 -4 -9 -17 -9 -31 0 -13
-4 -24 -10 -24 -5 0 -10 -11 -10 -25 0 -14 -4 -25 -9 -25 -5 0 -12 -20 -15
-45 -4 -24 -11 -47 -17 -50 -5 -4 -9 -17 -9 -31 0 -13 -4 -24 -10 -24 -5 0
-10 -11 -10 -25 0 -14 -4 -25 -10 -25 -5 0 -10 -11 -10 -25 0 -14 -4 -25 -9
-25 -5 0 -12 -23 -16 -50 -4 -28 -11 -50 -16 -50 -5 0 -9 -11 -9 -25 0 -14 -4
-25 -10 -25 -5 0 -10 -9 -10 -20 0 -20 7 -20 580 -20 l581 0 6 30 c3 17 10 33
14 36 5 3 9 16 9 30 0 13 5 24 10 24 6 0 10 11 10 25 0 14 4 25 9 25 5 0 12
22 16 50 4 27 11 52 16 56 5 3 9 14 9 25 0 10 5 19 10 19 6 0 10 14 10 30 0
17 3 30 8 30 7 0 25 58 39 122 3 16 9 28 14 28 5 0 9 14 9 31 0 17 4 28 10 24
6 -4 10 5 10 19 0 14 4 26 9 26 5 0 11 22 15 50 4 27 11 52 16 55 6 3 10 17
10 31 0 13 5 24 10 24 6 0 10 11 10 25 0 14 4 25 9 25 5 0 12 22 16 50 4 27
11 52 16 56 5 3 9 14 9 25 0 10 5 19 10 19 6 0 10 14 10 30 l0 30 930 0 930 0
0 -21 c0 -11 5 -17 10 -14 6 4 10 -7 10 -24 0 -17 5 -31 10 -31 6 0 10 -13 10
-30 0 -16 5 -30 10 -30 6 0 10 -13 10 -29 0 -17 4 -32 9 -36 5 -3 13 -30 16
-60 4 -30 11 -55 16 -55 5 0 9 -11 9 -24 0 -14 5 -28 10 -31 6 -3 10 -17 10
-30 0 -13 4 -26 9 -30 5 -3 13 -30 16 -60 4 -30 11 -55 16 -55 5 0 9 -13 9
-30 0 -16 5 -30 10 -30 6 0 10 -13 10 -30 0 -16 4 -30 9 -30 5 0 13 -25 16
-55 4 -30 11 -55 16 -55 5 0 9 -13 9 -30 0 -16 5 -30 10 -30 6 0 10 -13 10
-30 0 -16 5 -30 10 -30 6 0 10 -11 10 -25 0 -14 4 -33 9 -43 6 -9 12 -29 16
-44 l5 -28 595 0 595 0 0 29 c0 17 -4 32 -9 36 -6 3 -13 26 -17 50 -3 25 -10
45 -15 45 -5 0 -9 14 -9 30 0 17 -4 30 -10 30 -5 0 -10 9 -10 19 0 11 -4 23
-10 26 -5 3 -12 28 -16 55 -4 28 -10 50 -15 50 -5 0 -9 11 -9 25 0 14 -4 25
-10 25 -5 0 -10 9 -10 19 0 11 -4 22 -9 25 -5 4 -12 29 -16 56 -4 28 -11 50
-16 50 -5 0 -9 12 -9 26 0 14 -4 23 -10 19 -6 -4 -10 7 -10 24 0 17 -4 31 -10
31 -5 0 -10 11 -10 25 0 14 -4 25 -9 25 -5 0 -12 23 -16 50 -4 28 -11 50 -16
50 -5 0 -9 11 -9 25 0 14 -4 25 -10 25 -5 0 -10 11 -10 25 0 14 -4 25 -9 25
-5 0 -12 22 -16 50 -4 27 -11 50 -16 50 -5 0 -9 11 -9 25 0 14 -4 25 -10 25
-5 0 -10 9 -10 20 0 11 -4 29 -10 40 -5 11 -14 29 -20 40 -5 10 -13 37 -16 60
-4 22 -10 40 -15 40 -5 0 -9 11 -9 25 0 14 -4 25 -10 25 -5 0 -10 11 -10 24 0
14 -4 27 -9 31 -6 3 -13 26 -17 50 -3 25 -10 45 -15 45 -5 0 -9 11 -9 25 0 14
-4 25 -10 25 -5 0 -10 11 -10 25 0 14 -4 25 -10 25 -5 0 -10 11 -10 24 0 14
-4 27 -9 31 -6 3 -13 26 -17 50 -3 25 -10 45 -15 45 -5 0 -9 9 -9 20 0 20 -4
29 -29 78 -6 12 -14 42 -18 67 -3 24 -10 42 -14 39 -5 -3 -9 6 -9 20 0 14 -4
26 -10 26 -5 0 -10 11 -10 25 0 14 -4 25 -9 25 -5 0 -11 12 -14 28 -14 64 -32
122 -39 122 -5 0 -8 14 -8 30 0 17 -4 30 -10 30 -5 0 -10 9 -10 19 0 11 -4 23
-10 26 -5 3 -12 28 -16 55 -4 28 -10 50 -15 50 -5 0 -9 11 -9 25 0 14 -4 25
-10 25 -5 0 -10 9 -10 19 0 11 -4 22 -9 25 -5 4 -12 29 -16 56 -4 28 -11 50
-16 50 -5 0 -9 11 -9 25 0 14 -4 25 -10 25 -5 0 -10 11 -10 25 0 14 -4 25 -10
25 -5 0 -10 11 -10 25 0 14 -4 25 -9 25 -5 0 -12 23 -16 50 -4 28 -11 50 -16
50 -5 0 -9 11 -9 25 0 14 -4 25 -10 25 -5 0 -10 11 -10 25 0 14 -4 25 -9 25
-5 0 -12 23 -16 50 -4 28 -11 50 -16 50 -5 0 -9 11 -9 25 0 14 -4 25 -10 25
-5 0 -10 11 -10 25 0 14 -4 25 -10 25 -5 0 -10 11 -10 24 0 14 -4 27 -9 31 -6
3 -13 26 -17 50 -3 25 -10 45 -15 45 -5 0 -9 11 -9 25 0 14 -4 25 -10 25 -5 0
-10 11 -10 24 0 14 -4 28 -10 31 -5 3 -12 28 -16 55 -4 27 -10 47 -15 44 -5
-3 -9 6 -9 20 0 14 -4 26 -10 26 -5 0 -10 11 -10 25 0 14 -4 25 -10 25 -5 0
-10 11 -10 24 0 14 -4 27 -9 31 -6 3 -13 26 -17 50 -3 25 -10 45 -15 45 -5 0
-9 9 -9 20 0 11 -5 30 -12 43 -25 50 -29 59 -35 102 -3 24 -10 42 -14 39 -5
-3 -9 6 -9 20 0 14 -4 26 -10 26 -5 0 -10 11 -10 24 0 14 -4 28 -10 31 -5 3
-10 14 -10 24 0 10 -7 32 -15 47 -8 16 -15 39 -15 52 0 12 -4 22 -10 22 -5 0
-10 14 -10 30 0 17 -4 30 -10 30 -5 0 -10 9 -10 19 0 11 -4 23 -10 26 -5 3
-12 28 -16 55 -4 28 -10 50 -15 50 -5 0 -9 11 -9 25 0 14 -4 25 -10 25 -5 0
-10 9 -10 19 0 11 -4 22 -9 25 -5 4 -12 29 -16 56 -4 28 -11 50 -16 50 -5 0
-9 11 -9 25 0 14 -4 25 -10 25 -5 0 -10 9 -10 19 0 11 -4 23 -10 26 -5 3 -10
17 -10 31 0 13 -4 24 -9 24 -5 0 -12 23 -16 50 -4 28 -11 50 -16 50 -5 0 -9
11 -9 25 0 14 -4 25 -10 25 -5 0 -10 11 -10 25 0 14 -4 25 -9 25 -5 0 -12 23
-16 50 -4 28 -11 50 -16 50 -5 0 -9 11 -9 25 0 14 -4 25 -10 25 -5 0 -10 14
-10 30 l0 30 -640 0 -640 0 0 -31z m651 -1269 c5 0 9 -11 9 -24 0 -14 4 -27 9
-31 5 -3 13 -30 16 -60 4 -30 11 -55 16 -55 5 0 9 -11 9 -25 0 -14 5 -25 10
-25 6 0 10 -13 10 -30 0 -16 4 -30 9 -30 5 0 11 -12 15 -27 3 -16 11 -54 18
-85 7 -32 16 -58 20 -58 4 0 8 -11 8 -24 0 -14 5 -28 10 -31 6 -3 10 -17 10
-31 0 -13 4 -24 9 -24 5 0 13 -25 16 -55 4 -30 11 -55 16 -55 5 0 9 -13 9 -30
0 -16 5 -30 10 -30 6 0 10 -11 10 -24 0 -14 5 -28 10 -31 6 -3 10 -17 10 -30
0 -13 4 -26 9 -30 5 -3 13 -30 16 -60 4 -30 11 -55 16 -55 5 0 9 -11 9 -25 0
-14 5 -25 10 -25 6 0 10 -13 10 -29 0 -17 4 -33 10 -36 5 -3 12 -28 16 -55 4
-28 10 -50 15 -50 5 0 9 -13 9 -30 0 -16 5 -30 10 -30 6 0 10 -11 10 -24 0
-14 4 -27 9 -30 5 -4 12 -29 16 -56 4 -28 11 -50 16 -50 5 0 9 -13 9 -30 0
-16 5 -30 10 -30 6 0 10 -13 10 -30 0 -16 5 -30 10 -30 6 0 10 -11 10 -24 0
-14 4 -27 9 -31 5 -3 13 -30 16 -60 4 -30 11 -55 16 -55 5 0 9 -13 9 -30 0
-16 5 -30 10 -30 6 0 10 -10 10 -23 0 -13 4 -27 9 -33 5 -5 12 -28 16 -51 l7
-43 -621 0 c-608 0 -621 0 -621 19 0 11 5 23 10 26 6 3 10 17 10 31 0 13 5 24
10 24 6 0 10 11 10 24 0 14 4 27 9 30 5 4 12 29 16 56 4 28 11 50 16 50 5 0 9
14 9 30 0 17 5 30 10 30 6 0 10 14 10 31 0 16 4 28 9 25 5 -3 12 19 16 49 3
30 11 55 16 55 5 0 9 14 9 30 0 17 5 30 10 30 6 0 10 11 10 25 0 14 4 25 9 25
5 0 11 22 15 50 4 27 11 52 16 55 6 3 10 17 10 30 0 13 5 27 10 30 6 3 10 17
10 31 0 13 5 24 10 24 6 0 10 11 10 25 0 14 4 25 9 25 5 0 12 25 16 55 3 30
11 55 16 55 5 0 9 14 9 30 0 17 5 30 10 30 6 0 10 14 10 31 0 16 4 28 9 25 5
-3 11 17 15 44 4 27 11 52 16 55 6 3 10 17 10 30 0 13 5 27 10 30 6 3 10 17
10 31 0 13 5 24 10 24 6 0 10 14 10 31 0 16 4 28 9 25 5 -3 12 19 16 49 3 30
11 57 16 60 5 4 9 17 9 31 0 13 5 24 10 24 6 0 10 11 10 25 0 14 5 25 10 25 6
0 10 11 10 25 0 26 24 108 40 137 6 10 10 27 10 38 0 11 5 20 10 20 6 0 10 14
10 30 0 17 4 30 9 30 5 0 12 21 16 48 9 61 19 76 23 35 2 -18 7 -33 13 -33z"/>
<path d="M17710 4820 l0 -470 765 0 765 0 0 -2105 0 -2105 560 0 560 0 0 2105
0 2105 760 0 760 0 0 470 0 470 -2085 0 -2085 0 0 -470z"/>
<path d="M28180 5264 c-6 -14 -10 -31 -10 -39 0 -8 -4 -17 -10 -20 -5 -3 -10
-17 -10 -31 0 -13 -4 -24 -10 -24 -5 0 -10 -11 -10 -25 0 -14 -4 -25 -9 -25
-5 0 -12 -22 -16 -50 -4 -27 -11 -50 -16 -50 -5 0 -9 -11 -9 -25 0 -14 -4 -25
-10 -25 -5 0 -10 -11 -10 -25 0 -14 -4 -25 -10 -25 -5 0 -10 -11 -10 -25 0
-14 -4 -25 -9 -25 -5 0 -12 -22 -16 -50 -4 -27 -11 -50 -16 -50 -5 0 -9 -11
-9 -25 0 -14 -4 -25 -10 -25 -5 0 -10 -11 -10 -25 0 -14 -4 -25 -9 -25 -5 0
-12 -20 -15 -45 -4 -24 -11 -47 -17 -50 -5 -4 -9 -17 -9 -31 0 -13 -4 -24 -10
-24 -5 0 -10 -11 -10 -25 0 -14 -4 -25 -10 -25 -5 0 -10 -11 -10 -25 0 -14 -4
-25 -9 -25 -5 0 -12 -20 -15 -45 -4 -24 -11 -47 -17 -50 -5 -4 -9 -17 -9 -31
0 -13 -4 -24 -10 -24 -5 0 -10 -11 -10 -25 0 -14 -4 -25 -9 -25 -5 0 -12 -22
-16 -50 -4 -27 -11 -50 -16 -50 -5 0 -9 -11 -9 -25 0 -14 -4 -25 -10 -25 -5 0
-10 -11 -10 -25 0 -14 -4 -25 -10 -25 -5 0 -10 -11 -10 -24 0 -14 -4 -27 -9
-31 -6 -3 -13 -26 -17 -50 -3 -25 -10 -45 -15 -45 -5 0 -9 -11 -9 -25 0 -14
-4 -25 -10 -25 -5 0 -10 -11 -10 -25 0 -14 -4 -25 -9 -25 -5 0 -12 -22 -16
-50 -4 -27 -11 -50 -16 -50 -5 0 -9 -11 -9 -25 0 -14 -4 -25 -10 -25 -5 0 -10
-11 -10 -25 0 -14 -4 -25 -9 -25 -5 0 -12 -20 -15 -45 -4 -24 -11 -47 -17 -50
-5 -4 -9 -17 -9 -31 0 -13 -4 -24 -10 -24 -5 0 -10 -11 -10 -25 0 -14 -4 -25
-10 -25 -5 0 -10 -11 -10 -25 0 -14 -4 -25 -9 -25 -5 0 -12 -22 -16 -50 -4
-27 -11 -50 -16 -50 -5 0 -9 -11 -9 -25 0 -14 -4 -25 -10 -25 -5 0 -10 -11
-10 -25 0 -14 -4 -25 -9 -25 -5 0 -12 -20 -15 -45 -4 -24 -11 -47 -17 -50 -5
-4 -9 -17 -9 -31 0 -13 -4 -24 -10 -24 -5 0 -10 -11 -10 -25 0 -14 -4 -25 -10
-25 -5 0 -10 -11 -10 -25 0 -14 -4 -25 -9 -25 -5 0 -12 -22 -16 -50 -4 -27
-11 -50 -16 -50 -5 0 -9 -11 -9 -25 0 -14 -4 -25 -10 -25 -5 0 -10 -11 -10
-25 0 -14 -4 -25 -9 -25 -5 0 -12 -22 -16 -50 -4 -28 -11 -50 -16 -50 -5 0 -9
-11 -9 -25 0 -14 -4 -25 -10 -25 -5 0 -10 -11 -10 -25 0 -14 -4 -25 -10 -25
-5 0 -10 -11 -10 -25 0 -14 -4 -25 -9 -25 -5 0 -12 -22 -16 -50 -4 -27 -11
-50 -16 -50 -5 0 -9 -11 -9 -25 0 -14 -4 -25 -10 -25 -5 0 -10 -11 -10 -25 0
-14 -4 -25 -10 -25 -5 0 -10 -8 -10 -17 0 -27 -34 -133 -42 -133 -4 0 -8 -11
-8 -25 0 -14 -4 -25 -10 -25 -5 0 -10 -13 -10 -30 0 -16 -4 -30 -9 -30 -5 0
-12 -20 -15 -45 -4 -25 -11 -45 -17 -45 -5 0 -9 -11 -9 -25 0 -14 -4 -25 -10
-25 -5 0 -10 -11 -10 -25 0 -14 -4 -25 -9 -25 -5 0 -11 -22 -15 -50 -4 -28
-11 -50 -16 -50 -6 0 -10 -11 -10 -25 0 -14 -4 -25 -10 -25 -5 0 -10 -11 -10
-25 0 -14 -4 -25 -9 -25 -5 0 -12 -22 -16 -50 -4 -28 -11 -50 -16 -50 -5 0 -9
-11 -9 -24 0 -14 -4 -28 -10 -31 -5 -3 -10 -15 -10 -26 0 -10 -4 -19 -10 -19
-5 0 -10 -11 -10 -25 0 -14 -4 -25 -9 -25 -5 0 -12 -22 -16 -50 -4 -27 -11
-52 -16 -56 -5 -3 -9 -14 -9 -25 0 -10 -4 -19 -10 -19 -5 0 -10 -11 -10 -25 0
-14 -4 -25 -10 -25 -5 0 -10 -10 -10 -22 0 -27 -32 -122 -42 -126 -5 -2 -8
-15 -8 -28 0 -13 -4 -24 -10 -24 -5 0 -10 -14 -10 -31 0 -16 -4 -28 -9 -25 -5
3 -11 -17 -15 -44 -4 -28 -11 -50 -16 -50 -6 0 -10 -11 -10 -25 0 -14 -4 -25
-10 -25 -5 0 -10 -14 -10 -31 0 -16 -4 -28 -9 -25 -5 3 -11 -17 -15 -44 -4
-28 -11 -50 -16 -50 -6 0 -10 -11 -10 -24 0 -14 -4 -28 -10 -31 -5 -3 -10 -15
-10 -26 0 -10 -4 -19 -10 -19 -5 0 -10 -14 -10 -31 0 -16 -4 -28 -9 -25 -5 3
-12 -16 -16 -44 -4 -27 -11 -52 -16 -56 -5 -3 -9 -14 -9 -25 0 -10 -4 -19 -10
-19 -5 0 -10 -11 -10 -25 0 -14 -4 -25 -10 -25 -5 0 -10 -13 -10 -30 l0 -30
580 0 c573 0 580 0 580 20 0 11 4 20 9 20 6 0 13 20 17 45 3 25 10 48 15 51 5
3 9 16 9 30 0 13 5 24 10 24 6 0 10 11 10 25 0 14 4 25 9 25 5 0 12 23 16 50
4 28 11 50 16 50 5 0 9 11 9 24 0 14 5 28 10 31 6 3 10 15 10 26 0 10 5 19 10
19 6 0 10 10 10 23 0 24 32 122 43 134 4 3 7 17 7 30 0 12 5 23 10 23 6 0 10
11 10 25 0 14 4 25 9 25 5 0 11 22 15 50 4 27 11 52 16 55 6 3 10 17 10 31 0
13 5 24 10 24 6 0 10 11 10 25 0 14 4 25 9 25 5 0 12 20 15 45 4 24 11 47 17
50 5 4 9 15 9 26 0 19 16 19 934 19 l935 0 6 -55 c4 -30 11 -55 16 -55 5 0 9
-13 9 -30 0 -16 5 -30 10 -30 6 0 10 -13 10 -30 0 -16 5 -30 10 -30 6 0 10
-13 10 -29 0 -17 4 -33 10 -36 5 -3 12 -28 16 -55 4 -28 10 -50 15 -50 5 0 9
-13 9 -30 0 -16 5 -30 10 -30 6 0 10 -13 10 -30 0 -16 4 -30 9 -30 5 0 12 -27
16 -60 4 -33 11 -60 16 -60 5 0 9 -13 9 -30 0 -16 5 -30 10 -30 6 0 10 -11 10
-24 0 -14 4 -27 9 -31 5 -3 13 -30 16 -60 4 -30 11 -55 16 -55 5 0 9 -13 9
-30 0 -16 5 -30 10 -30 6 0 10 -13 10 -30 0 -16 5 -30 10 -30 6 0 10 -13 10
-30 l0 -30 601 0 601 0 -7 48 c-4 26 -11 48 -16 50 -5 2 -9 15 -9 28 0 13 -4
24 -10 24 -5 0 -10 11 -10 24 0 14 -4 27 -9 31 -6 3 -13 26 -17 50 -3 25 -10
45 -15 45 -5 0 -9 11 -9 25 0 14 -4 25 -10 25 -5 0 -10 11 -10 25 0 14 -4 25
-9 25 -5 0 -12 22 -16 50 -4 27 -11 50 -16 50 -5 0 -9 11 -9 25 0 14 -4 25
-10 25 -5 0 -10 11 -10 25 0 14 -4 25 -10 25 -5 0 -10 11 -10 25 0 14 -4 25
-9 25 -5 0 -13 25 -16 55 -4 30 -11 52 -16 49 -5 -3 -9 6 -9 20 0 14 -4 26
-10 26 -5 0 -10 11 -10 25 0 14 -4 25 -9 25 -5 0 -12 22 -16 50 -4 27 -11 50
-16 50 -5 0 -9 11 -9 25 0 14 -4 25 -10 25 -5 0 -10 10 -10 23 0 13 -3 27 -7
30 -11 12 -43 110 -43 134 0 13 -4 23 -10 23 -5 0 -10 7 -10 15 0 8 -5 25 -12
38 -23 46 -26 55 -33 101 -4 25 -11 46 -16 46 -5 0 -9 9 -9 20 0 11 -4 20 -10
20 -5 0 -10 14 -10 30 0 17 -4 30 -10 30 -5 0 -10 9 -10 19 0 11 -4 23 -10 26
-5 3 -12 28 -16 55 -4 27 -10 47 -15 44 -5 -3 -9 9 -9 25 0 17 -4 31 -10 31
-5 0 -10 11 -10 25 0 14 -4 25 -10 25 -5 0 -12 23 -16 50 -4 28 -10 50 -15 50
-5 0 -9 11 -9 25 0 14 -4 25 -10 25 -5 0 -10 9 -10 19 0 11 -4 23 -10 26 -5 3
-10 17 -10 30 0 13 -4 26 -9 30 -6 3 -13 26 -17 50 -3 25 -10 45 -15 45 -5 0
-9 11 -9 25 0 14 -4 25 -10 25 -5 0 -10 11 -10 24 0 14 -4 27 -9 31 -6 3 -13
26 -17 50 -3 25 -10 45 -15 45 -5 0 -9 11 -9 25 0 14 -4 25 -10 25 -5 0 -10
11 -10 25 0 14 -4 25 -9 25 -5 0 -12 23 -16 50 -4 28 -11 50 -16 50 -5 0 -9
11 -9 25 0 14 -4 25 -10 25 -5 0 -10 9 -10 20 0 11 -4 29 -10 40 -5 11 -14 29
-20 40 -5 10 -13 37 -16 60 -4 22 -10 40 -15 40 -5 0 -9 11 -9 25 0 14 -4 25
-10 25 -5 0 -10 11 -10 24 0 14 -4 27 -9 31 -6 3 -13 26 -17 50 -3 25 -10 45
-15 45 -5 0 -9 11 -9 25 0 14 -4 25 -10 25 -5 0 -10 9 -10 20 0 11 -5 30 -12
43 -24 47 -28 57 -34 97 -4 22 -10 40 -15 40 -5 0 -9 9 -9 20 0 11 -4 29 -10
40 -5 11 -15 29 -20 40 -6 11 -13 40 -17 65 -3 24 -10 42 -14 39 -5 -3 -9 9
-9 25 0 17 -4 31 -10 31 -5 0 -10 9 -10 19 0 11 -4 23 -10 26 -5 3 -10 14 -10
24 0 10 -7 32 -15 47 -8 16 -15 41 -15 57 0 15 -4 27 -10 27 -5 0 -10 11 -10
25 0 14 -4 25 -10 25 -5 0 -10 11 -10 25 0 14 -4 25 -10 25 -5 0 -12 23 -16
50 -4 28 -10 50 -15 50 -5 0 -9 11 -9 25 0 14 -4 25 -10 25 -5 0 -10 11 -10
25 0 14 -4 25 -10 25 -5 0 -10 11 -10 24 0 14 -4 27 -9 31 -6 3 -13 26 -17 50
-3 25 -10 45 -15 45 -5 0 -9 11 -9 25 0 14 -4 25 -10 25 -5 0 -10 11 -10 25 0
14 -4 25 -9 25 -5 0 -12 23 -16 50 -4 28 -11 50 -16 50 -5 0 -9 11 -9 25 0 14
-4 25 -10 25 -5 0 -10 11 -10 25 0 14 -4 25 -9 25 -5 0 -12 23 -16 50 -4 28
-11 50 -16 50 -5 0 -9 11 -9 25 0 14 -4 25 -10 25 -5 0 -10 9 -10 20 0 11 -5
30 -12 43 -24 47 -28 57 -34 97 -4 22 -10 40 -15 40 -5 0 -9 11 -9 25 0 14 -4
25 -10 25 -5 0 -10 11 -10 24 0 14 -4 27 -9 31 -6 3 -13 26 -17 50 -3 25 -10
45 -15 45 -5 0 -9 11 -9 25 0 14 -4 25 -10 25 -5 0 -10 11 -10 25 0 14 -4 25
-10 25 -5 0 -10 12 -10 26 0 56 24 54 -650 54 l-620 0 -10 -26z m651 -1294 c5
0 9 -11 9 -25 0 -14 5 -25 10 -25 6 0 10 -13 10 -30 0 -16 4 -30 9 -30 5 0 13
-25 16 -55 4 -30 11 -55 16 -55 5 0 9 -13 9 -30 0 -16 5 -30 10 -30 6 0 10
-11 10 -24 0 -14 5 -28 10 -31 6 -3 10 -17 10 -30 0 -13 4 -27 10 -30 5 -3 12
-28 16 -55 4 -28 10 -50 15 -50 5 0 9 -13 9 -30 0 -16 5 -30 10 -30 6 0 10
-11 10 -24 0 -14 4 -27 9 -31 5 -3 13 -30 16 -60 4 -30 11 -55 16 -55 5 0 9
-13 9 -30 0 -16 5 -30 10 -30 6 0 10 -11 10 -25 0 -14 5 -25 10 -25 6 0 10
-13 10 -30 0 -16 4 -30 9 -30 5 0 13 -25 16 -55 4 -30 11 -55 16 -55 5 0 9
-13 9 -30 0 -16 5 -30 10 -30 6 0 10 -11 10 -24 0 -14 4 -27 9 -31 5 -3 13
-30 16 -60 4 -30 11 -52 16 -49 5 3 9 -9 9 -25 0 -17 5 -31 10 -31 6 0 10 -13
10 -29 0 -17 4 -33 10 -36 5 -3 12 -28 16 -55 4 -28 10 -50 15 -50 5 0 9 -13
9 -30 0 -16 5 -30 10 -30 6 0 10 -11 10 -25 0 -14 5 -25 10 -25 6 0 10 -13 10
-29 0 -17 4 -32 9 -36 5 -3 13 -30 16 -60 4 -30 11 -52 16 -49 5 3 9 -9 9 -25
0 -17 5 -31 10 -31 6 0 10 -11 10 -24 0 -14 5 -28 10 -31 6 -3 10 -10 10 -16
0 -5 -242 -9 -628 -9 l-629 0 5 30 c2 17 8 33 13 36 5 3 9 16 9 30 0 13 5 24
10 24 6 0 10 11 10 25 0 14 5 25 10 25 6 0 10 13 10 29 0 17 4 32 9 36 6 3 13
26 17 50 3 25 10 48 15 51 5 3 9 16 9 30 0 13 5 24 10 24 6 0 10 14 10 31 0
16 4 28 9 25 5 -3 12 19 16 49 3 30 11 55 16 55 5 0 9 14 9 30 0 17 5 30 10
30 6 0 10 11 10 25 0 14 4 25 9 25 5 0 11 23 15 51 4 28 11 59 16 70 6 10 15
28 20 39 6 11 10 29 10 40 0 11 5 20 10 20 6 0 10 14 10 31 0 16 4 28 9 25 5
-3 12 19 16 49 3 30 11 57 16 60 5 4 9 17 9 31 0 13 5 24 10 24 6 0 10 14 10
31 0 16 4 28 9 25 5 -3 11 17 15 44 4 27 11 52 16 55 6 3 10 19 10 36 0 16 5
29 10 29 6 0 10 11 10 25 0 14 5 25 10 25 6 0 10 14 10 30 0 17 4 30 9 30 5 0
11 22 15 50 4 27 11 52 16 55 6 3 10 17 10 31 0 13 5 24 10 24 6 0 10 11 10
25 0 14 5 25 10 25 6 0 10 11 10 25 0 26 24 108 40 137 6 10 10 29 10 43 0 14
5 25 10 25 6 0 10 11 10 25 0 14 5 25 10 25 6 0 11 8 12 18 1 9 3 0 5 -20 2
-21 8 -38 14 -38z"/>
<path d="M5648 3579 c-22 -12 -23 -52 -3 -73 8 -8 15 -26 15 -40 0 -22 4 -26
30 -26 17 0 33 6 36 14 6 15 34 11 45 -7 4 -5 19 -7 33 -3 19 5 26 13 26 31 0
20 -5 25 -26 25 -14 0 -23 4 -19 10 4 6 -7 13 -24 16 -23 5 -31 12 -33 33 -2
21 -9 26 -33 28 -16 2 -38 -2 -47 -8z"/>
<path d="M5663 2783 c-29 -11 -6 -83 26 -83 16 0 17 -6 9 -62 -5 -35 -13 -88
-18 -119 -15 -83 -13 -149 4 -149 8 0 22 -3 31 -6 12 -5 16 -2 13 12 -2 14 9
25 42 42 l45 23 3 -36 c3 -29 7 -35 26 -35 31 0 46 18 46 56 0 68 10 88 53
109 45 22 54 41 56 113 1 38 -1 42 -23 42 -13 0 -27 -6 -29 -12 -3 -7 -6 -3
-6 8 -1 19 -5 21 -38 15 -42 -8 -85 -1 -83 13 2 10 -55 46 -74 46 -8 0 -16 7
-20 15 -5 14 -38 19 -63 8z"/>
<path d="M3656 1615 c-10 -7 -15 -19 -11 -25 4 -6 1 -24 -5 -40 -10 -25 -15
-28 -31 -20 -40 22 -109 -24 -109 -73 0 -31 57 -114 95 -137 104 -64 175 42
95 142 -26 32 -30 42 -19 49 20 13 20 13 68 -46 24 -30 46 -55 50 -55 3 0 15
7 26 16 14 10 17 18 10 28 -23 33 -138 171 -144 173 -3 1 -14 -4 -25 -12z"/>
<path d="M5675 1471 c-3 -5 -19 -12 -35 -16 -17 -4 -30 -9 -30 -11 0 -3 14
-23 32 -45 28 -35 36 -39 76 -39 35 0 45 4 49 20 3 11 9 20 14 20 5 0 9 10 9
23 0 36 -97 76 -115 48z"/>
<path d="M3867 1412 c-23 -25 -21 -41 6 -71 12 -14 14 -19 4 -12 -9 8 -20 11
-23 9 -7 -8 103 -113 119 -113 6 0 16 -10 22 -22 5 -13 15 -23 22 -23 7 0 13
-6 13 -13 0 -7 28 -31 63 -54 74 -49 113 -82 110 -94 -2 -4 3 -6 10 -3 7 2 22
-4 32 -14 11 -10 60 -42 109 -72 50 -29 84 -56 78 -58 -13 -4 -112 52 -222
127 -105 71 -206 157 -315 269 -34 34 -64 62 -68 62 -3 0 -18 -11 -33 -25
l-26 -24 48 -57 c107 -125 328 -309 492 -409 34 -21 62 -42 62 -46 0 -11 -30
0 -59 23 -13 10 -30 18 -37 18 -8 0 -14 4 -14 9 0 5 -13 14 -30 21 -16 7 -30
16 -30 21 0 5 -5 9 -10 9 -35 0 -244 173 -386 320 l-43 44 -26 -24 c-14 -13
-25 -30 -25 -37 0 -18 221 -238 294 -293 31 -23 53 -47 49 -53 -3 -6 -1 -7 5
-3 6 4 35 -10 64 -32 29 -21 81 -56 116 -77 34 -21 62 -42 62 -46 0 -5 7 -9
15 -9 9 0 15 10 15 26 0 15 12 36 28 52 16 15 34 41 41 59 7 18 24 39 37 48
13 8 24 25 24 36 0 11 13 34 30 50 l29 30 -27 10 c-39 15 -236 138 -282 177
-14 12 -53 44 -87 72 -35 28 -98 86 -142 130 -44 44 -84 80 -89 80 -5 0 -16
-8 -25 -18z"/>
<path d="M5419 1298 c-20 -16 -35 -83 -16 -72 6 4 5 -1 -4 -12 -8 -10 -16 -34
-18 -51 -2 -30 0 -33 27 -33 27 0 30 4 36 42 5 29 3 44 -6 50 -8 6 6 8 38 4
65 -6 94 1 94 25 0 13 5 17 16 12 11 -4 15 -2 13 6 -3 7 -8 12 -13 11 -5 -1
-12 3 -15 9 -11 17 -133 25 -152 9z"/>
<path d="M4580 823 c0 -8 -7 -30 -16 -49 -19 -39 -17 -43 29 -60 323 -124 530
-164 835 -164 l152 0 0 39 c0 22 5 43 10 46 28 17 -8 23 -197 28 -165 5 -234
11 -333 31 -139 28 -322 80 -417 118 -51 21 -63 23 -63 11z"/>
</g>
</svg>
