<?xml version="1.0" encoding="utf-8"?>
<!-- Generator: Adobe Illustrator 24.0.3, SVG Export Plug-In . SVG Version: 6.00 Build 0)  -->
<svg version="1.1" id="Layer_1" xmlns="http://www.w3.org/2000/svg" xmlns:xlink="http://www.w3.org/1999/xlink" x="0px" y="0px"
	 viewBox="0 0 859 154" style="enable-background:new 0 0 859 154;" xml:space="preserve">
<style type="text/css">
	.st0{fill:none;}
	.st1{font-family:'Nunito-Black';}
	.st2{font-size:200px;}
</style>
<rect x="194" y="7" class="st0" width="665" height="147"/>
<text transform="matrix(1 0 0 1 194 148.998)" class="st1 st2">PATC</text>
<g>
	<path d="M71.89,2c0,0.06,0.01,0.11,0.03,0.16c-0.19,0.24-0.47,0.3-0.75,0.31c-1.02,0.04-2.05,0.04-3.07,0
		c-0.28-0.01-0.56-0.06-0.75-0.31c0.02-0.05,0.03-0.11,0.03-0.16C68.88,2,70.39,2,71.89,2z"/>
	<path d="M78.31,86.51c-0.26,0.62-0.83,1-1.4,1.09c-1.67,0.27-2.02,0.68-1.65,2.25c0.18,0.75,0.78,1.28,1.02,2.01
		c0.01,0.03,0.04,0.06,0.06,0.06c1.38,0.12,1.65,1.33,2.24,2.24c0.45,0.7,1.22,0.47,1.81,0.37c0.68-0.12,1.16-0.87,1.15-1.42
		c-0.01-0.88,0.65-1.22,1.02-1.76c0.71-1.04,1.16-2.17,1.37-3.39c0.06-0.35,0.09-0.53,0.46-0.66c0.52-0.18,0.54-1.04,1.15-1.04
		c1.56,0,1.18-1.1,1.19-1.97c0.02-1.22,0.02-2.45,0-3.67c-0.01-0.49,0.08-0.76,0.67-0.73c0.78,0.04,1.72-0.22,1.45,1.15
		c-0.06,0.29,0.22,0.55,0.54,0.54c0.31-0.01,0.69,0.2,0.93-0.19c0.06-0.1-0.04-0.35,0.24-0.26c0.26,0.08,0.96,1.65,0.81,1.9
		c-0.46,0.81-0.79,1.61-0.11,2.48c0.06,0.08,0.02,0.24,0.02,0.37c0.06,1.42,0.32,1.66,1.76,1.75c0.58,0.03,1.24-0.28,1.66,0.54
		c0.18,0.37,0.86-0.01,0.78-0.54c-0.09-0.66,0.08-0.89,0.74-0.77c0.51,0.09,0.62-0.25,0.53-0.63c-0.13-0.58,0.22-1,0.41-1.47
		c0.11-0.3,0.39-0.4,0.7-0.32c0.32,0.07,0.19,0.35,0.2,0.54c0.11,1.91,0.11,1.91,2.02,1.92c4.23,0.03,8.46,0.3,12.69,0.11
		c1.78-0.08,3.57-0.18,5.35-0.15c1.47,0.02,2.39-0.63,3.23-1.8c2.4-3.35,4.15-7.07,6.13-10.66c0.63-1.14,1.55-2.11,1.89-3.41
		c0.04-0.14,0.26-0.24,0.42-0.38c1.91,20.66-7.69,49.43-36.1,64.13c1.4,0.42,2.69,0.82,3.98,1.2c0.66,0.19,1.32,0.41,1.99,0.53
		c0.38,0.07,0.51,0.26,0.65,0.56c0.38,0.79,0.7,1.61,0.88,2.47c0.12,0.56,0.27,0.68,0.76,0.29c0.79-0.62,1.66-1.13,2.6-1.49
		c0.34-0.13,0.57-0.31,1,0.1c0.45,0.43,1.25,0.48,1.9,0.7c0.02,0.47-0.37,0.51-0.6,0.66c-7.39,4.88-15.45,8.18-24.12,9.96
		c-5.91,1.21-11.91,1.61-17.92,1.13c-12.92-1.02-24.69-5.31-35.13-12.98C15.03,127.07,5.81,112.63,1.33,95.09
		c-0.51-2.01-0.98-4.05-1.18-6.13c-0.08-0.19,0.01-0.22,0.17-0.18c1.53,7.38,4.17,14.34,8.04,20.81c2.01,3.36,4.29,6.53,6.86,9.49
		c4.48,5.18,9.63,9.57,15.47,13.12c5.94,3.61,12.31,6.24,19.11,7.8c5.83,1.34,11.73,1.92,17.7,1.63c7.91-0.38,15.51-2.11,22.79-5.24
		c1.13-0.48,2.25-0.96,3.42-1.71c-1.38-0.61-2.73-0.79-4.03-1.14c-1.64-0.44-3.24-1.03-4.91-1.32c-0.35-0.06-0.65-0.03-0.98,0.08
		c-2.92,0.99-5.9,1.77-8.95,2.29c-0.39,0.07-0.64,0.07-0.64-0.37c0-0.62-0.28-1.13-0.64-1.75c2.41-0.14,4.64-0.83,7.08-1.19
		c-0.75-0.55-1.55-0.5-2.25-0.74c-0.99-0.34-2.05-0.44-3.02-0.88c-1.1-0.49-2.27-0.19-3.4-0.05c-3.59,0.45-7.19,0.49-10.79,0.15
		c-5.21-0.5-10.25-1.72-15.12-3.68c-6.44-2.59-12.19-6.24-17.36-10.88c-4.67-4.19-8.55-8.99-11.81-14.33
		c-2.13-3.49-3.85-7.17-5.32-10.97c-0.08-0.21-0.15-0.41-0.05-0.7c1.25,3.07,2.82,5.91,4.54,8.67c2.51,4.04,5.53,7.67,8.95,10.96
		c2.88,2.77,6.07,5.18,9.45,7.33c3.08,1.95,6.38,3.48,9.74,4.84c2,0.81,4.08,1.45,6.18,1.94c0.98,0.23,1.99,0.46,3,0.61
		c0.37,0.06,0.8,0.15,0.82-0.44c0.01-0.25,0.03-0.41,0.34-0.44c0.32-0.02,0.56,0.22,0.58,0.38c0.12,1.28,1.1,0.99,1.87,1.07
		c0.32-0.16,0.54,0.08,0.78,0.2c3.14,0.02,6.27,0.29,9.42,0.16c3.82-0.16,7.47-1.08,11.1-2.12c2.03-0.58,4.12-0.96,6.06-1.8
		c2.48-1.07,4.9-2.27,7.18-3.74c0.38-0.24,0.51-0.33-0.03-0.65c-0.86-0.51-1.84-0.68-2.7-1.17c-0.7-0.4-1.34-0.65-1.8-1.53
		c-0.44-0.85-0.47-1.59-0.52-2.42c-0.01-0.15-0.01-0.38-0.1-0.44c-1.06-0.68-0.43-1.62-0.39-2.46L86,108.15
		c1.8,0.44,3.37,1.47,5.11,2.04c0.68,0.23,0.92,0.5,0.58,1.19c-0.11,0.22-0.02,0.53,0.21,0.98c0.03-0.13,0.05-0.26,0.11-0.38
		c0.42-0.92,1.01-0.86,1.81-0.44c1.23,0.64,2.51,1.17,3.77,1.74c0.19,0.09,0.39,0.31,0.57,0.05c0.13-0.19-0.12-0.32-0.16-0.47
		c-0.19-0.86-0.46-1.63-1.39-1.98c-0.23-0.09-0.34-0.34-0.24-0.54c0.26-0.56,0.56-1.1,0.85-1.64c0.1-0.19,0.29-0.24,0.49-0.17
		c0.2,0.06,0.15,0.25,0.15,0.39c0.02,0.36-0.1,0.8,0.53,0.73c0.53-0.06,0.75-0.35,0.76-0.88c0-0.26-0.2-0.54,0.05-0.79
		c1.11,1.37,1.54,2.92,1.34,4.66c-0.07,0.6,0.21,0.96,0.85,0.96c0.2,0,0.41-0.02,0.41-0.27c-0.02-0.83,0.53-1.56,0.37-2.44
		c-0.18-0.97,0.22-1.64,1.25-1.85c0.45-0.09,0.38-0.59,0.59-0.87c0.59-0.79,1.18-1.48,0.49-2.58c-0.34-0.53,0.18-1.26-0.17-1.97
		c-0.21-0.41-0.38-0.86-0.73-1.11c-0.55-0.4-0.41-0.84-0.19-1.26c0.35-0.68,0.6-1.26-0.31-1.71c-0.25-0.12-0.34-0.4-0.36-0.71
		c-0.07-1.22-0.09-1.22-1.2-1.29c0.06-0.35,0.37-0.47,0.58-0.68c0.91-0.9,0.92-1.91,0.01-2.8c-0.27-0.27-0.78-0.44-0.34-1.01
		c0.14-0.18,0.11-0.72-0.37-0.65c-0.55,0.08-0.77-0.24-0.99-0.62c-0.8-1.44-2.49-1.89-3.49-3.13c-0.28-0.34-0.74-0.42-0.98,0.35
		c-0.21,0.68-0.13,1.23,0.04,1.85c0.07,0.25,0.14,0.43,0.41,0.39c0.78-0.13,0.63,0.53,0.46,0.74c-0.41,0.49-0.2,1.01-0.27,1.51
		c-0.03,0.24,0.11,0.6-0.17,0.67c-0.35,0.09-0.95,0.15-1.07-0.02c-0.26-0.4-0.54-0.66-0.94-0.45c-0.48,0.25-0.01,0.74-0.14,1.11
		c-0.03,0.08-0.03,0.17-0.07,0.43c-0.71-0.94-1.7-1.02-2.78-1.18c0.31,1.1-0.33,2.11-0.17,3.19c0.03,0.18,0.12,0.46-0.19,0.55
		c-0.26,0.08-0.43-0.09-0.56-0.25c-0.41-0.49-0.89-0.86-1.53-0.58c-0.69,0.3-1.08,0.8-1.13,1.65c-0.03,0.67-0.32,1.42-1.29,1.3
		c-0.39-0.05-0.71,0.1-1.05,0.39c-0.22-1.05,0.18-2.08-0.56-2.98c-0.31-0.38-0.62-0.58-1-0.64c-0.55-0.09-1.13-0.01-1.69-0.03
		c-0.29-0.01-0.57,0.14-0.62,0.34c-0.22,0.87-0.85,0.87-1.53,0.82c-1.14-0.09-1.09,0.91-1.21,1.52c-0.18,0.89-0.81,1.11-1.46,1.25
		c-0.68,0.14-1.38,0.08-2.09,0.22c-1.35,0.26-2.67,1.77-2.43,3.08c0.07,0.37-0.28,0.52-0.21,0.88c0.17-1-0.4-1.3-1.19-1.45
		c-0.39-0.07-0.76-0.27-1.15-0.36c-0.44-0.1-0.83-0.19-0.41-0.99c-1.29,0.96-2.19-0.06-3.2-0.16c-0.33-0.03-0.64-0.23-0.96-0.35
		c-0.69-0.26-1.17-0.13-1.44,0.65c-0.33,0.95-1.06,1.64-1.85,2.46c-0.11-1.17,0.13-2.14,0.54-3.07c0.29-0.66,0.15-0.92-0.56-1.1
		c-2.1-0.56-4.18-1.19-6.26-1.81c-0.39-0.12-0.62-0.21-0.85,0.28c-0.48,0.99-1.21,1.82-2.12,2.77c-0.05-1.3,0.28-2.36,0.64-3.42
		c0.04-0.12,0.11-0.23,0.16-0.34c0.32-0.66,0.28-0.97-0.6-1.12c-2.66-0.47-5.3-1.06-7.95-1.62c-0.26-0.05-0.64-0.02-0.69-0.34
		c-0.05-0.3,0.3-0.46,0.51-0.62c0.33-0.25,0.73-0.47,1.13-0.57c0.88-0.22,1.26-0.89,1.71-1.58c0.52-0.79,1.32-1.37,1.82-2.2
		c0.16-0.26,0.29-0.48,0.23-0.76c-0.17-0.83,0.12-1.41,0.94-1.42c0.61-0.01,1.11-0.32,1.71-0.35c0.65-0.03,0.53-0.84,0.63-1.25
		c0.17-0.7,0.45-0.9,1.12-0.89c1.42,0.02,2.11-0.86,1.59-2.18c-0.21-0.53-0.4-1.15-0.85-1.59c-0.14-0.14-0.39-0.26-0.28-0.54
		c0.11-0.27,0.37-0.16,0.57-0.21c0.32-0.07,0.82,0.25,0.93-0.33c0.09-0.49,0.06-0.96-0.62-1.08c0.19-0.07,0.52-0.11,0.53-0.2
		c0.23-1.76,1.6-1.07,2.38-0.93c3.13,0.54,4.85,3.69,3.82,6.71c-0.06,0.18-0.15,0.34-0.19,0.52c-0.26,1.12-0.24,1.13,0.92,1.15
		c4.26,0.05,8.51,0.11,12.77,0.11c0.71,0,1.43-0.12,2.15-0.09L78.31,86.51z"/>
	<path d="M141.37,94.67c0.25-0.18-0.17-0.43,0.1-0.49c0.26-0.07,0.56,0,0.77,0.22c0.46,0.47,0.93,0.94,1.38,1.42
		c4.49,4.82,8.98,9.63,13.45,14.46c0.37,0.4,0.61,0.49,1.06,0.1c0.87-0.76,1.84-1.39,2.73-2.14c1.97-1.68,4.91-1.48,6.76,0.36
		c1.83,1.82,1.99,4.77,0.31,6.76c-0.67,0.79-1.18,1.71-1.99,2.37c-0.43,0.34-0.11,0.52,0.12,0.71c2.04,1.76,4.06,3.55,6.13,5.27
		c1.95,1.61,1.99,1.6,3.89-0.24c1.75-1.69,3.77-2.05,5.98-1.17c3.46,1.39,3.71,6.32,0.93,8.53c-1.23,0.98-1.25,0.99-0.01,2.04
		c2.89,2.45,5.79,4.9,8.7,7.33c0.34,0.29,0.5,0.44,0.13,0.84c-0.94,1.01-1.84,2.05-2.72,3.11c-0.35,0.42-0.62,0.41-1.1,0.18
		c-5.81-2.79-11.65-5.53-17.45-8.34c-0.89-0.43-1.3-0.31-1.66,0.57c-0.46,1.14-1.17,2.13-2.16,2.99c-0.37-0.95,0.19-1.77,0.31-2.61
		c0.06-0.45,0.11-0.62-0.38-0.8c-1.45-0.55-2.87-1.17-4.3-1.76c-0.57-0.24-0.89,0.07-1.07,0.57c-0.29,0.83-0.94,1.35-1.62,2.05
		c-0.03-0.89,0.2-1.58,0.54-2.2c0.42-0.75,0.02-1.13-0.54-1.41c-0.64-0.32-1.32-0.55-1.99-0.8c-0.65-0.24-1.12-0.71-1.95-0.78
		c-1.3-0.1-1.28-0.32-1.95,0.9c-0.19,0.35-0.45,0.67-0.72,0.97c-0.27,0.3-0.59,0.55-0.95,0.89c0.16-0.67,0.27-1.33,0.48-1.94
		c0.45-1.25,0.22-1.8-0.99-2.21c-1.38-0.47-2.75-0.96-4.12-1.45c-0.52-0.19-0.97-0.2-1.42,0.51c0.18-0.94-0.2-1.12-0.88-1.3
		c-0.93-0.25-1.85-0.7-2.75-1.02c-1.02-0.36-2.19-0.47-3.28-0.73c-0.35-0.09-0.38,0.25-0.54,0.41c-0.24,0.24-0.46,0.5-0.7,0.77
		c-0.05-0.09-0.1-0.14-0.09-0.18c0.2-1.12,0.21-1.09-0.92-0.88c-1.29,0.24-2.58,0.5-3.88,0.59c-1.14,0.08-2.15-0.58-3.23-0.86
		c-0.9-0.23-1.81-0.5-2.67-0.85c-0.59-0.24-1-0.1-1.44,0.27c-1.26,1.08-2.54,2.14-3.81,3.2c-0.26,0.22-0.48,0.74-0.92,0.15
		c-0.31-0.41-0.5-0.67-0.04-1.17c3.46-3.79,6.44-7.93,9.01-12.36c4.79-8.28,7.9-17.15,9.42-26.59c0.89-5.5,1.11-11.04,0.87-16.58
		c-0.18-4.29-0.78-8.54-1.74-12.73c-0.12-0.53-0.06-0.83,0.37-1.2c2.96-2.49,6.25-4.3,10.04-5.15c1.52-0.34,2.9-0.02,4.13,0.94
		c0.21,0.16,0.31,0.38,0.41,0.61c1.26,2.94,1.63,6.07,1.05,9.12c-0.61,3.22-1.65,6.36-3.07,9.37c-1.82,3.85-4.14,7.37-6.36,10.98
		c-1.15,1.87-2.45,3.63-3.56,5.52c-0.54,0.92-0.9,1.96-0.99,3.03C140.41,93.57,140.92,94.13,141.37,94.67z"/>
	<path d="M67.35,2.16c1.52,0,3.05,0,4.57,0C84.16,2.5,95.44,6.04,105.71,12.6c16.62,10.62,27.03,25.78,32.1,44.74
		c0.3,1.12,0.03,1.72-0.75,2.52c-2.19,2.24-4.03,4.78-5.58,7.51c-0.44,0.78-0.93,1.53-1.52,2.49c-0.27-1.97-0.48-3.71-0.76-5.44
		c-1.65-10.12-5.49-19.35-11.37-27.73c-2.88-4.1-6.22-7.83-9.99-11.13c-9.49-8.33-20.46-13.6-32.95-15.63
		c-10.6-1.72-21.01-0.83-31.18,2.6c-7.15,2.41-13.7,5.97-19.61,10.7c-8.43,6.73-14.86,15-19.28,24.83
		c-0.04,0.08-0.09,0.16-0.14,0.24c-0.17,0.04-0.26,0.01-0.19-0.19c2.15-5.69,5.01-11.01,8.54-15.95
		C22.58,18.78,35.08,9.48,50.89,4.77c3.61-1.08,7.29-1.82,11.04-2.23C63.73,2.34,65.53,2.15,67.35,2.16z"/>
	<path d="M71.89,59.04c-0.31-1.28-0.3-1.29,0.9-1c0.06,0.01,0.16,0.06,0.17,0.05c0.53-0.85,1.66-0.24,2.28-0.93
		c0.32-0.36,2.66-0.3,3.05,0.01c0.55,0.43,0.93,1.02,1.58,1.38c0.33,0.19,0.04,0.94,0.11,1.43c0.04,0.3-0.2,0.74,0.31,0.86
		c0.23,0.05,0.58,0.12,0.7-0.11c0.18-0.32,0.24-0.67-0.12-1c-0.21-0.19-0.18-0.46,0.05-0.73c0.28-0.32,0.73-0.38,0.91-0.23
		c0.7,0.56,1.45,0.63,2.3,0.77c0.81,0.13,1.64,0.73,2.24,1.43c0.09,0.11,0.19,0.18,0.31,0.09c0.19-0.15,0.44-0.26,0.45-0.56
		c0-0.38,0-0.75,0.01-1.13c0.01-0.59,0.46-0.87,0.93-0.51c0.53,0.4,1.12,0.82,0.96,1.66c-0.05,0.24-0.01,0.5-0.01,0.75
		c0,0.52,0.13,1.17-0.64,1.2c-0.72,0.03-1.63,0.27-1.87-0.84c-0.1-0.46-0.54-0.45-0.73-0.32c-0.57,0.39-1.18,0.27-1.78,0.3
		c-0.19,0.01-0.41,0.03-0.4,0.28c0,0.26-0.17,0.7,0.19,0.72c0.61,0.02,0.35,1.41,1.31,0.76c0.37-0.25,0.57-0.12,0.69,0.36
		c0.14,0.55,0.49,0.94,1.18,0.79c0.26-0.06,0.59-0.09,0.56,0.38c-0.02,0.39-0.29,0.32-0.53,0.34c-0.3,0.02-0.63-0.09-0.94,0.16
		c0.31,0.54,0.83,0.26,1.23,0.28c0.45,0.02,0.78,0.22,0.52,0.58c-0.44,0.59-0.33,1.22-0.25,1.8c0.1,0.77-0.34,1.28-0.64,1.85
		c-0.17,0.34-0.84,0.22-0.89,0.1c-0.2-0.54-0.93-0.8-0.93-1.21c-0.01-0.95-0.43-1.06-1.24-1.24c-0.8-0.18-1.36-1.06-2.29-1.14
		c-0.07-0.01-0.19-0.12-0.18-0.17c0.1-0.75-0.39-1.31-0.56-1.95c-0.24-0.93-0.92-1.23-1.59-1.44c-0.57-0.17-0.91-0.4-1.14-0.92
		c-0.42-0.95-1.22-1.43-2.18-1.76c0.1,0.87,0.21,1.61,0.89,2.25c0.73,0.68,0.53,1.71,0.46,2.62c-0.02,0.27-0.31,0.57-0.68,0.51
		c-0.47-0.08-0.85-0.48-0.87-0.86c-0.09-1.24-0.88-1.75-1.87-2.2c-0.31-0.14-0.58-0.52-0.74-0.85c-0.48-0.99-1.49-0.95-2.31-1.27
		c-0.74-0.29-1.37-0.08-1.99,0.34c-0.14,0.09-0.31,0.14-0.26,0.31c0.21,0.77-0.49,0.9-0.85,1.29c-0.18,0.19-0.41,0.31-0.56,0.19
		c-0.62-0.47-1.32-0.24-1.98-0.27c-0.95-0.05-1.27-0.37-0.86-1.22c0.22-0.46,0.11-0.65-0.2-0.81c-0.27-0.15-0.57-0.2-0.69,0.29
		c-0.11,0.43-0.53,0.21-0.81,0.2c-0.32-0.01-0.25-0.33-0.22-0.52c0.13-0.9-0.22-1.82,0.2-2.74c0.2-0.42-0.4-0.87-0.74-0.9
		c-0.7-0.06-0.95-0.19-1.07-0.97c-0.05-0.36-0.7-1.03-1.21-1.17c-0.9-0.24-1.07-0.88-1.09-1.57c-0.03-0.94-0.04-1.83-0.61-2.65
		c-0.18-0.26-0.4-0.62-0.3-1.03c0.25-1-0.39-1.91-0.31-2.89c0.02-0.21-0.08-0.37-0.32-0.36c-1.01,0.04-0.68-0.89-0.54-1.09
		c0.45-0.62,0.31-1.27,0.26-1.88c-0.06-0.74,0.41-0.88,0.9-1.03c0.55-0.16,0.68,0.15,0.83,0.66c0.17,0.59,0.58,1.12,0.93,1.65
		c0.19,0.29,0.55,0.58,0.85,0.28c0.25-0.25,0.82-0.36,0.55-1c-0.33-0.81-0.63-1.69-0.41-2.57c0.23-0.93,0.05-1.97,0.79-2.79
		c0.31-0.34,0.13-0.91,0.1-1.37c-0.07-0.92,0.3-1.89-0.5-2.75c-0.22-0.23-0.42-1.04,0.3-1.58c0.41-0.3,0.44-1.22,0.49-1.87
		c0.06-0.83,0.15-1.61,0.71-2.25c0.24-0.28,0-0.43-0.06-0.65c-0.21-0.74,0.06-1.11,0.84-1.16c0.28-0.02,0.54,0.01,0.73-0.29
		c0.25-0.37,0.59-0.4,0.97-0.14c0.25,0.17,0.59,0.17,0.82,0.06c0.95-0.49,1.67-0.21,2.25,0.59c0.61,0.84,1.64,0.85,2.47,1.26
		c0.18,0.09,0.39,0.12,0.57,0.25c0.79,0.6,1.68,0.49,2.08-0.39c0.3-0.66,0.66-0.97,1.32-0.69c0.51,0.22,0.8,1.4,0.53,1.9
		c-0.06,0.1-0.08,0.26-0.16,0.31c-1.11,0.7-0.79,1.96-1.12,2.95c-0.18,0.55,0.18,1.14,0.4,1.7c0.21,0.54,0.16,1.26,1.08,1.21
		c0.33-0.02,0.45,0.51,0.5,0.69c0.33,1.36,0.57,2.62-0.32,4.03c-0.54,0.86-1.34,1.84-1.17,3.16c0.1,0.76-0.8,1.27-1.31,1.85
		c-0.1,0.11-0.46,0.13-0.5-0.04c-0.34-1.28-0.94-0.14-1.37-0.11c-0.23,0.01-0.48,0.39-0.78,0.56c-0.21,0.12-0.63,0.49-0.34,1.11
		c0.27,0.57,0.43,1.36-0.37,1.9c-0.53,0.36-0.4,1.16-0.93,1.63c-0.27,0.23,0.36,0.47,0.54,0.74c0.45,0.72,0.75,1.51,0.86,2.32
		c0.09,0.63,0.99,0.94,0.64,1.63c-0.56,1.11,0.16,2.06,0.3,3.07C70.7,58.32,71.27,58.68,71.89,59.04z"/>
	<path d="M50.72,85.37c-0.6,0.57-0.92,1.15-1.6,1.37c-0.23,0.08-0.33,0.33-0.46,0.56c-0.44,0.83-0.62,1.83-1.81,2.15
		c-0.49,0.13-0.84,0.91-1.18,1.44c-0.13,0.21-0.29,0.4-0.44,0.59c-0.43,0.53-0.77,1.09-1.67,0.98c-0.37-0.04-0.81,0.53-1.21,0.84
		c-0.06,0.04-0.02,0.23-0.07,0.25c-0.35,0.17-0.94,0.24-0.82,0.7c0.14,0.57,0.81,0.26,1.23,0.41c0.52,0.18,1.08,0.25,1.8,0.4
		c-0.88,0.87-1.37,2.03-2.83,1.79c-0.39-0.07-0.7,0.03-0.63,0.53c0.06,0.48-0.06,0.67-0.62,0.76c-0.48,0.08-1.41,0.23-0.59,1.16
		c0.14,0.16,0.13,0.56-0.04,0.8c-0.12,0.17-0.42,0.16-0.51,0.07c-0.23-0.26-0.75-0.19-0.75-0.71c-0.01-0.83-0.01-1.66,0.28-2.46
		c0.03-0.08,0.09-0.22,0.13-0.22c1.12,0.07,0.94-1.32,1.79-1.58c0.29-0.09,0.15-0.59,0.59-0.82c-1.37-0.49-2.65-0.65-3.91-0.91
		c-4.08-0.85-8.17-1.65-12.26-2.48c-0.36-0.07-0.73-0.13-0.5-0.72c0.68-1.74,0.98-3.59,1.51-5.38c0.11-0.37,0.13-0.74,0.68-0.66
		c2.64,0.36,5.3,0.32,7.96,0.42c4.91,0.19,9.82,0.37,14.73,0.55C49.86,85.24,50.19,85.3,50.72,85.37z"/>
	<path d="M108.17,139.08c1.95-1.38,3.76-2.72,5.47-4.18c0.3-0.26,0.64-0.34,0.94-0.15c2.31,1.45,4.59,2.94,6.91,4.38
		c1.41,0.87,2.74,1.87,4.25,2.56c2.5,1.14,3.1,2.45,2.32,5.1C121.47,144.23,114.87,141.67,108.17,139.08z"/>
	<path d="M93.91,78.75c0.04,1.04-0.18,1.97-0.35,2.91c-0.12,0.65,0.65,0.8,0.9,1.29c0.14,0.27,0.34,0.47,0.31,0.82
		c-0.02,0.36-0.18,0.82,0.46,0.94c0.3,0.06,0.15,0.44,0.15,0.67c0.01,0.86-1.06,1.57-1.89,1.29c-0.28-0.09-0.19-0.25-0.18-0.42
		c0.02-0.41,0.04-0.81,0.04-1.22c0.01-2.74-1.32-4.46-3.96-5.11c-0.22-0.05-0.46-0.06-0.48-0.34c-0.04-0.9-0.58-1.62-0.88-2.43
		c-0.24-0.65,0.49-0.84,0.55-1.19c0.16-1.09,0.89-0.62,1.31-0.49c0.34,0.11,0.52,0.63,0.76,0.98c0.37,0.55,0.22,0.65-0.26,0.95
		c-0.27,0.17,0.17,0.5,0.44,0.62c0.11,0.05,0.3-0.04,0.43-0.11c1.17-0.7,1.04-2.7,0.13-3.69c-1.02-1.12-2.82-1.41-3.24-3.17
		c-0.12-0.5-0.06-0.97-0.14-1.45c-0.05-0.34,0.25-0.29,0.46-0.27c0.57,0.05,1.13,0,1.72,0.22c0.76,0.28,1.57-0.15,2.31-0.39
		c1.16-0.37,2.21-0.31,2.6,0.76c0.32,0.9,1.02,1.15,1.53,1.71c0.53,0.59,0.35,1.36,0.13,2.01c-0.38,1.14-0.16,2.67,0.66,3.7
		c0.61,0.76,1.14,1.82,1.26,2.9c0.07,0.65-0.49,0.44-0.65,0.24c-0.5-0.63-1.17-0.57-1.8-0.48c-0.63,0.09-1.12-0.29-1.7-0.34
		C94.1,79.62,94.55,78.99,93.91,78.75z"/>
	<path d="M68.99,132.82c-0.31,0.7-0.39,1.4-0.31,2.12c0.06,0.48-0.16,0.67-0.65,0.67c-2.35-0.02-4.73,0.22-7.05-0.06
		c-6.75-0.82-13.43-2.04-19.71-4.84c-0.61-0.27-1-0.48-0.38-1.11c0.08-0.08,0.11-0.22,0.16-0.33c0.5-1.18,0.6-1.31,1.71-0.74
		c2.16,1.1,4.51,1.65,6.77,2.46c1.24,0.45,2.64,0.42,3.93,0.73c4.91,1.19,9.91,1.1,14.91,1.08
		C68.57,132.79,68.76,132.81,68.99,132.82z"/>
	<path d="M76.61,82.35c0.92,0.19,0.63,0.84,0.67,1.34c0.05,0.57-0.38,0.85-0.77,1.05c-0.39,0.21-0.59,0.01-0.61-0.48
		c-0.08-1.74-0.18-1.79-1.74-1.05c-0.7,0.33-1.51,0.53-1.75,1.44c-0.06,0.22-0.31,0.14-0.49,0.13c-0.22-0.01-0.24-0.19-0.21-0.34
		c0.07-0.34-0.19-0.75,0.22-1.03c0.08-0.05,0.14-0.25,0.11-0.33c-0.6-1.4,0.5-2.63,0.41-3.92c-0.08-1.12,0.32-2.1,0.44-3.16
		c0.04-0.39-0.11-0.61-0.53-0.56c-0.33,0.03-0.61-0.03-0.85-0.28c-0.32-0.33-0.62-0.69-0.21-1.12c0.37-0.39,1.14-0.36,1.27-0.12
		c0.46,0.83,1.41,0.57,1.99,1.08c0.14,0.12,0.37,0.19,0.48,0.38c0.57,0.98,1.14,1.15,2.3,0.88c0.44-0.11,1.07-0.28,1.25,0.52
		c0.04,0.19,0.28,0.5,0.57,0.26c0.31-0.25,0.63-0.76,0.99-0.42c0.35,0.33,0.2,0.96,0.09,1.42c-0.3,1.34-1,2.35-2.48,2.59
		c-0.2,0.03-0.25,0.19-0.22,0.35C77.67,81.69,77.32,82.08,76.61,82.35z"/>
	<path d="M69.43,65.7c-0.24,0.5-0.46,1.02-0.35,1.62c0.07,0.41-0.03,0.8,0.26,1.22c0.22,0.32,0.32,0.96-0.21,1.33
		c-0.07,0.05-0.16,0.14-0.17,0.22c-0.11,1.46-1.33,1.66-2.35,2.09c-0.07,0.03-0.17,0.12-0.17,0.18c-0.01,0.43-0.3,0.46-0.58,0.36
		c-0.33-0.12-0.5-0.38-0.51-0.79c-0.05-1.24-0.53-2.35-1.28-3.3c-0.38-0.47-0.24-0.99-0.39-1.46c-0.3-0.92-0.62-1.64-1.54-2.06
		c-0.27-0.12-0.62-0.38-0.67-0.74c-0.05-0.35-0.24-0.37-0.51-0.4c-0.24-0.03-0.65,0.17-0.69-0.23c-0.03-0.35-0.23-0.86,0.13-1.04
		c0.31-0.15,0.62-0.42,1.11-0.28c0.96,0.27,1.94,0.52,2.98,0.25c0.42-0.11,0.95-0.17,1.27,0.33c0.05,0.08,0.11,0.2,0.18,0.21
		c1.26,0.05,2.14,0.64,2.7,1.79C68.77,65.25,69.66,64.83,69.43,65.7z"/>
	<path d="M22.05,111.59c0.25,0.21,0.54,0.4,0.76,0.65c1.06,1.21,2.14,2.39,3.36,3.42c2.05,1.71,4.03,3.49,6.27,4.98
		c1.86,1.23,3.72,2.42,5.68,3.48c0.08,0.04,0.24,0.1,0.23,0.12c-0.14,0.67-0.7,1.13-0.92,1.77c-0.13,0.36-0.44-0.01-0.6-0.11
		c-2.56-1.51-5.03-3.15-7.37-5c-2.88-2.28-5.5-4.83-7.94-7.57c-0.63-0.7-0.51-1.3,0.32-1.69C21.91,111.62,21.96,111.61,22.05,111.59
		z"/>
	<path d="M19.02,115.37c1.19-1,1.21-1.02,2.26,0.12c2.04,2.19,4.27,4.16,6.62,6.02c1.31,1.04,2.72,1.91,4.06,2.88
		c1.36,0.98,2.84,1.74,4.29,2.56c0.08,0.04,0.23,0.11,0.23,0.13c-0.19,0.65-0.69,1.14-0.94,1.78c-0.13,0.33-0.43-0.03-0.61-0.13
		c-2.57-1.49-5.03-3.16-7.37-5.01c-2.85-2.26-5.44-4.8-7.88-7.5C19.46,115.95,19.26,115.67,19.02,115.37z"/>
	<path d="M17.14,118.19c1.2-1,1.21-1,2.21,0.06c2.04,2.19,4.27,4.15,6.61,6.02c2.62,2.08,5.4,3.88,8.34,5.45
		c0.35,0.19,0.46,0.31,0.15,0.58c-0.46,0.4-0.44,1.34-0.92,1.4c-0.47,0.06-1.02-0.5-1.53-0.81c-4.45-2.68-8.48-5.88-12.07-9.63
		C18.98,120.28,18,119.31,17.14,118.19z"/>
	<path d="M78.33,86.52c-0.47-0.44-0.38-1.06-0.23-1.5c0.23-0.66,0.13-1.44,0.74-2.02c0.25-0.23,0.55-0.68,0.41-1.16
		c-0.19-0.7,0.35-1.02,0.8-1.03c0.74-0.02,1.49-0.15,2.26,0.19c0.73,0.32,0.86,0.9,0.63,1.31c-0.36,0.64-0.24,1.48-0.99,1.98
		c-0.39,0.27-0.17,0.95-0.14,1.43c0.04,0.63-0.18,0.81-0.79,0.78c-0.91-0.05-1.82-0.01-2.73,0C78.31,86.51,78.33,86.52,78.33,86.52z
		"/>
	<path d="M86.02,108.13c-0.39-0.18-0.87-0.24-1.21-0.43c-1.03-0.56-1.76-0.55-2.11,0.79c-0.14-0.15-0.2-0.19-0.19-0.22
		c0.26-1.42,0.26-1.42-1.16-1.8c-0.91-0.24-1.84-0.46-2.92-0.94c0.81-0.08,1.58,0.09,1.45-0.99c0.12,0.63,0.27,1.09,1,0.94
		c0.32-0.07,0.47,0.26,0.69,0.42c0.36,0.26,0.83,0.28,1.13,0.03c0.25-0.21,0.2-0.63-0.1-0.91c-0.12-0.11-0.23-0.35-0.08-0.38
		c0.94-0.15,0.55-0.59,0.31-1.09c-0.12-0.25-0.01-0.66,0.4-0.48c1.06,0.48,2.16,0.94,3.11,1.6c0.49,0.34,0.7,1.09,0.98,1.68
		c0.12,0.25-0.05,0.51-0.29,0.62c-0.53,0.23-0.74,0.73-1.02,1.17C86,108.15,86.02,108.13,86.02,108.13z"/>
	<path d="M83.93,70.76c-0.1-0.51-0.22-0.94-0.55-1.26c-0.21-0.2-0.27-0.47-0.13-0.68c0.18-0.26,0.53-0.18,0.78-0.09
		c0.69,0.25,0.9,1.4,0.46,1.99c-0.27,0.37,0.01,0.98,0.33,0.93c0.87-0.14,1.07,0.57,1.36,0.99c0.38,0.54,0.54,1.25,0.75,1.9
		c0.06,0.18,0.12,0.48-0.12,0.59c-0.22,0.11-0.45,0.09-0.66-0.16c-0.76-0.94-2.04-1.27-2.72-2.37c-0.4-0.64-1.48-0.31-1.94,0.45
		c-0.21,0.34-0.21,1.14-0.82,0.84c-0.58-0.29-0.08-0.83,0.09-1.25c0.13-0.31,0.29-0.51,0.07-0.96c-0.33-0.68,0.42-1.4,0.31-2.2
		c-0.03-0.22,0.68-0.26,0.79-0.07C82.39,70.18,83.49,69.95,83.93,70.76z"/>
	<path d="M11.46,110.46c-0.01-1.43,1.47-2.4,2.72-1.73c1.42,0.77,2.4,1.98,2.87,3.52c0.39,1.29-1.02,2.59-2.38,2.26
		C13.39,114.21,11.47,111.79,11.46,110.46z"/>
	<path d="M113.95,132.94c-0.05-0.26,0.15-0.46,0.36-0.65c1.65-1.44,3.29-2.87,4.94-4.31c0.21-0.18,0.39-0.37,0.68-0.02
		c0.31,0.37,0.19,0.56-0.09,0.84c-1.66,1.65-3.27,3.36-5.06,4.87c-0.18,0.15-0.3,0.48-0.59,0.37c-0.28-0.11-0.12-0.44-0.18-0.67
		C113.98,133.26,113.98,133.14,113.95,132.94z"/>
	<path d="M57.8,73.03c-0.25-0.44-0.76-0.77-0.58-1.38c0.05-0.19-0.1-0.48,0.22-0.53c0.24-0.04,0.58-0.08,0.72,0.05
		c0.65,0.59,1.13,1.38,2.13,1.49c0.18,0.02,0.16,1.79-0.03,1.86c-0.23,0.09-0.55,0.17-0.58-0.2c-0.03-0.41-0.4-0.33-0.6-0.49
		c-0.39-0.32-0.54-0.13-0.54,0.3c0,0.37-0.02,0.75,0.01,1.12c0.03,0.43-0.17,0.51-0.55,0.51c-0.39,0-0.52-0.16-0.44-0.51
		c0.08-0.34-0.11-0.55-0.28-0.82C56.67,73.45,56.71,73.37,57.8,73.03z"/>
	<path d="M75.83,104.72c-0.44,0.73-0.96,1.41-1.33,2.2c-0.22,0.47-0.47,1.03-0.48,1.42c-0.05,1.69-1.26,0.79-1.89,0.86
		c-0.88,0.11-0.72-0.72-0.73-1.29c0-0.2-0.09-0.44,0.14-0.6c0.36,0.09,0.05,0.46,0.34,0.64c0.95-0.69,1.62-1.68,2.12-2.71
		c0.37-0.77,0.68-0.95,1.39-0.54c0.12,0.07,0.3,0.03,0.45,0.05L75.83,104.72z"/>
	<path d="M57.78,124.32c-0.29,0.04-0.54-0.06-0.78-0.2c-0.32-0.85-0.9-1.64-0.38-2.66c0.27-0.54,0.85-0.23,1.21-0.68
		c0.5-0.6,1.29-0.97,2.21-0.81c0.5,0.09,0.93,0.11,0.93,0.77c0,0.63-0.3,0.9-0.91,0.89c-0.13,0-0.25,0-0.38,0
		C57.82,121.64,57.26,122.42,57.78,124.32z"/>
	<path d="M16.3,108.16c-0.14,0.11-0.23,0.2-0.35,0.25c-0.28,0.13-0.46,0.65-0.85,0.36c-0.5-0.36,0.03-0.64,0.18-0.92
		c0.2-0.37,0.2-0.75,0.07-1.08c-0.15-0.41,0.17-0.5,0.35-0.64c0.3-0.25,0.42,0.08,0.57,0.26c1.12,1.34,2.23,2.69,3.39,4
		c0.37,0.42,0.09,0.54-0.16,0.79c-0.32,0.31-0.49,0.31-0.77-0.06C17.95,110.11,17.12,109.14,16.3,108.16z"/>
	<path d="M70.8,52.5c-0.28-0.68,0.35-0.75,0.67-0.91c0.34-0.18,0.79-0.22,1.11,0.15c0.31,0.36,0.27,0.75,0.04,1.11
		c-0.15,0.23-0.29,0.49-0.06,0.66c0.22,0.16,0.37-0.15,0.52-0.29c0.48-0.45,0.95-0.25,1.13,0.22c0.16,0.41,0.31,0.53,0.72,0.51
		c0.22-0.02,0.51-0.11,0.55,0.3c0.04,0.37-0.22,0.51-0.44,0.64c-0.21,0.13-0.44,0.11-0.63-0.15c-0.54-0.71-1.21-0.74-1.76-0.09
		c-0.29,0.34-0.66,0.36-1.02,0.27c-0.39-0.09-0.19-0.47-0.23-0.72c-0.07-0.41,0.22-0.95-0.49-1.12
		C70.67,53.02,70.85,52.68,70.8,52.5z"/>
	<path d="M72.82,112.85c-1.15,0-1.77-0.42-2-1.38c-0.09-0.37-0.24-0.95,0.54-0.85c0.03,0,0.07,0.01,0.09-0.01
		c1.08-1.13,1.86-0.01,2.77,0.33c0.28,0.1,0.32,0.23,0.31,0.46c-0.01,0.19-0.18,0.21-0.28,0.3
		C73.77,112.15,73.83,113.31,72.82,112.85z"/>
	<path d="M73.36,63.5c0,0.75-0.63,1.72-1.12,1.72c-0.59,0-1.45-1.15-1.45-1.92c0.01-0.57,0.17-1.18,0.76-1.21
		C72.45,62.02,73.36,62.84,73.36,63.5z"/>
	<path d="M65.4,116.45c-0.36-0.14-1.08,0.45-1.21-0.41c-0.14-0.92,0.7-0.99,1.26-1.16c0.86-0.25,1.67,0.3,2.55,0.3
		c0.44,0,0.29,0.82,0.17,1.04c-0.21,0.36-0.74,0.8-1.19,0.49C66.47,116.37,65.96,116.56,65.4,116.45z"/>
	<path d="M53.26,80.67c0.01-0.4,0.02-0.81,0.02-1.21c0-0.42-0.13-0.92,0.6-0.84c0.39,0.04,0.34-0.31,0.31-0.54
		c-0.05-0.47,0.12-0.82,0.55-0.94c0.56-0.15,0.46,0.31,0.49,0.63c0.01,0.13,0.11,0.24,0.25,0.22c0.2-0.03,0.23-0.21,0.2-0.36
		c-0.19-1.1,0.84-0.77,1.3-1.08c0.21-0.14,0.39,0.11,0.36,0.37c-0.03,0.25,0.11,0.51-0.27,0.69c-1.49,0.74-2.94,1.55-3.84,3.04
		L53.26,80.67z"/>
	<path d="M73.36,70.19c0,0.25-0.02,0.5,0.01,0.75c0.05,0.39-0.09,0.7-0.45,0.82c-0.35,0.12-0.83,0.2-1.08-0.03
		c-0.29-0.27-0.26-0.85-0.04-1.12c0.27-0.32,0.24-0.6,0.22-0.93c-0.03-0.55,0.08-0.97,0.77-1.02c0.88-0.06,0.49,0.58,0.56,0.96
		C73.39,69.81,73.36,70.01,73.36,70.19z"/>
	<path d="M77.29,70.75c0.01,0.39,0.14,0.89-0.65,0.83c-0.69-0.06-1.67-0.67-1.59-1.17c0.12-0.76,0.86-0.71,1.37-0.79
		C77.19,69.48,77.32,70.07,77.29,70.75z"/>
	<path d="M79.36,65.05c0.15-0.04,0.26,0.13,0.41,0.24c0.57,0.44,0.76,1.18,1.31,1.64c0.17,0.14,0.21,0.49-0.03,0.67
		c-0.18,0.12-0.4,0.06-0.59-0.11c-0.5-0.45-0.91-1-1.57-1.27c-0.29-0.12-0.28-0.43-0.2-0.65C78.79,65.31,78.97,65.08,79.36,65.05z"
		/>
	<path d="M38.23,107.75c-0.46,0.12-0.63-0.11-0.61-0.64c0.03-0.72,0.63-1.37,1.31-1.31c0.46,0.04,0.59,0.36,0.59,0.78
		C39.52,107.29,39.06,107.75,38.23,107.75z"/>
	<path d="M82.04,86.67c-0.3,0.79-0.16,1.63-0.47,2.39c-0.15,0.36-0.09,0.83-0.24,1.25c-0.09,0.24,0.03,0.69-0.39,0.53
		c-0.2-0.08-0.65-0.41-0.37-0.81c0.24-0.36,0.1-0.72,0.14-1.08C80.83,87.99,81.47,87.34,82.04,86.67z"/>
	<path d="M85.67,80.25c-0.17-0.38,0.26-0.53,0.2-0.83c-0.04-0.23,0.09-0.54-0.27-0.6c-0.31-0.06-0.47,0.1-0.48,0.41
		c0,0.27-0.02,0.5-0.39,0.48c-0.38-0.02-0.51-0.3-0.64-0.58c-0.03-0.08-0.03-0.25,0.01-0.27c0.61-0.27,1.22-0.66,1.86-0.72
		c0.47-0.04,0.94,1.3,0.61,1.73C86.41,80.11,85.97,80.13,85.67,80.25z"/>
	<path d="M44.69,117.12c-1.17,0.08-0.78-0.9-1.02-1.39c-0.2-0.4,0.12-0.6,0.61-0.61c1.09-0.01,0.77,0.94,1,1.46
		C45.49,117.09,45.02,117.16,44.69,117.12z"/>
	<path d="M40.68,111.96c-0.55,0.02-1.14-0.12-1.25-0.62c-0.12-0.54,0.58-0.83,0.84-1.29c0.09-0.16,0.5,0.02,0.62,0.24
		c0.22,0.38,0.3,0.83,0.45,1.25C41.53,112.08,40.96,111.91,40.68,111.96z"/>
	<path d="M59.82,61.63c-0.61-0.08-0.99-0.47-1.08-1.04c-0.08-0.52,0.4-0.37,0.66-0.36c0.53,0.03,1.15,0.08,1.24,0.72
		C60.7,61.38,60.33,61.66,59.82,61.63z"/>
	<path d="M75.84,104.74c0.03-0.65,0.61-0.9,0.99-1.28c0.26-0.25,0.56-0.02,0.68,0.24c0.19,0.41,0.19,0.91,0.02,1.27
		c-0.19,0.4-0.59,0.03-0.9-0.02c-0.28-0.04-0.56-0.07-0.8-0.23C75.83,104.72,75.84,104.74,75.84,104.74z"/>
	<path d="M38.06,101.58c-0.23,0.34,0.37,1.06-0.58,1.07c-0.66,0.01-0.47-0.42-0.48-0.75c-0.01-0.52-0.1-1.17,0.62-1.23
		C38.34,100.61,37.86,101.27,38.06,101.58z"/>
	<path d="M64.07,119.22c-0.17-0.03-0.37,0.07-0.49-0.16c-0.17-0.34,0.42-1.73,0.79-1.81c0.14-0.03,0.34-0.01,0.44,0.07
		c0.18,0.16,0.12,0.4,0.04,0.61C64.41,119.02,64.28,119.22,64.07,119.22z"/>
	<path d="M62.78,113.34c0.05,0.48,0.04,0.78-0.54,0.78c-0.54-0.01-0.52-0.29-0.5-0.65c0.02-0.34-0.16-0.76,0.49-0.75
		C62.79,112.71,62.87,112.96,62.78,113.34z"/>
	<path d="M88.82,74.27c-0.28-0.13-0.85,0.27-0.83-0.41c0.01-0.59,0.51-0.33,0.79-0.33c0.3,0.01,0.85-0.28,0.84,0.37
		C89.61,74.49,89.1,74.16,88.82,74.27z"/>
	<path d="M97.67,82.24c0.02-0.33-0.04-0.63,0.36-0.6c0.44,0.03,0.67,0.31,0.71,0.72c0.05,0.46-0.32,0.34-0.58,0.37
		C97.69,82.78,97.64,82.51,97.67,82.24z"/>
	<path d="M4.49,48.1c0.06,0.06,0.12,0.12,0.19,0.19c-0.45,1.16-0.9,2.31-1.34,3.47C3.55,50.47,3.88,49.24,4.49,48.1z"/>
	<path d="M71.36,23.8c0.03-0.31-0.13-0.71,0.39-0.7c0.51,0.01,0.39,0.4,0.38,0.68c-0.01,0.27,0.17,0.69-0.34,0.72
		C71.22,24.54,71.41,24.08,71.36,23.8z"/>
	<path d="M68.39,20.27c0.47,0.06,0.64,0.37,0.7,0.76c0.04,0.28-0.03,0.47-0.4,0.45c-0.33-0.02-0.67,0.03-0.58-0.46
		C68.16,20.75,67.92,20.37,68.39,20.27z"/>
	<path d="M52.23,83.43c0.2,0.64-0.19,1.09-0.19,1.62c0,0.33-0.68,0.06-1.1,0.14C51.26,84.49,52.04,84.25,52.23,83.43z"/>
	<path d="M84.81,81.2c-0.16,0.67-0.24,1.37-0.79,2.04C83.7,82.25,84.37,81.76,84.81,81.2z"/>
	<path d="M67.95,24.77c-0.25,0-0.51,0.02-0.52-0.35c0-0.43,0.29-0.39,0.58-0.39c0.26,0,0.49-0.01,0.51,0.36
		C68.53,24.85,68.22,24.77,67.95,24.77z"/>
	<path d="M42.09,115.14c0.28-0.03,0.46,0.05,0.45,0.4c-0.01,0.4-0.3,0.31-0.53,0.33c-0.28,0.01-0.5-0.03-0.47-0.4
		C41.56,115.08,41.82,115.14,42.09,115.14z"/>
	<path d="M36.27,109.5c0.01,0.3-0.18,0.35-0.42,0.35c-0.25,0-0.41-0.08-0.41-0.37c-0.01-0.34,0.18-0.41,0.47-0.4
		C36.2,109.09,36.28,109.25,36.27,109.5z"/>
	<path d="M0.33,88.78c-0.06,0.06-0.12,0.12-0.17,0.18c-0.29-0.88-0.47-1.77-0.23-2.71C0.06,87.09,0.19,87.93,0.33,88.78z"/>
	<path d="M62.81,119.42c0.02,0.27-0.11,0.38-0.37,0.39c-0.26,0-0.39-0.09-0.39-0.37c0-0.26,0.09-0.39,0.37-0.39
		C62.68,119.06,62.82,119.14,62.81,119.42z"/>
	<path d="M53.25,80.66c-0.14,0.46-0.27,0.92-0.41,1.37c0.05-0.48-0.64-1.23,0.42-1.36C53.26,80.67,53.25,80.66,53.25,80.66z"/>
	<path d="M53.54,83.07c-0.43,0.01-0.76,0.21-0.99-0.13c-0.05-0.07,0.1-0.42,0.21-0.45C53.1,82.4,53.28,82.68,53.54,83.07z"/>
	<path d="M83.12,127.03c2.21-0.79,4.32-1.7,6.36-2.76c4.34-2.23,8.27-5.03,11.85-8.34c0.36-0.34,0.69-0.88,0.97,0.12
		c0.1,0.37,0.64,0.44,1.08,0.31c0.58-0.17,0.77,0.16,0.69,0.64c-0.17,1.02-0.32,2.05-0.62,3.03c-0.25,0.81-1.14,1.06-1.76,1.52
		c-2.26,1.7-4.78,3-7.22,4.43c-0.81,0.47-1.67,0.81-2.49,1.26c-1.86,1.03-3.85,0.49-5.77,0.22
		C85.2,127.33,84.16,127.43,83.12,127.03z"/>
	<path d="M93.23,128.18c3.45-1.94,6.63-4.09,9.72-6.65c-0.73,2.2-1.02,4.31-1.84,6.28c-0.48,1.16-0.76,1.39-1.98,1.22
		C97.21,128.75,95.29,128.47,93.23,128.18z"/>
	<path d="M87.52,90.64c-0.88-0.04-1.65,0.22-1.97-0.7c-0.05-0.14-0.19-0.26-0.37-0.24c-0.42,0.04-0.63-0.1-0.62-0.57
		c0.01-0.45-0.02-1.1,0.44-1.1c1.08-0.01,1.21-1.09,1.92-1.5c0.22-0.12,0.33-0.74,0.7-0.72c0.49,0.02,1.02,0.19,1.44,0.45
		c0.34,0.2,0.51,0.49,0.97,0.16c0.25-0.18,0.76,0.05,0.59,0.42c-0.29,0.62-0.1,1.14,0.03,1.71c0.17,0.76-0.27,0.97-0.87,1.36
		C88.98,90.41,88.24,90.76,87.52,90.64z"/>
	<path d="M88.11,83.07c-0.15-0.7,0.32-0.78,0.83-0.67c0.42,0.09,1.21-0.46,1.18,0.52c-0.03,0.92-0.94,0.64-1.44,0.87
		C88.24,83.99,88.07,83.53,88.11,83.07z"/>
	<path d="M56.6,83.95c-0.04-0.64,0.05-1.21,0.7-1.13c0.37,0.04,1.12,0.11,1,0.78c-0.09,0.53-0.46,0.98-1.14,1.02
		C56.52,84.66,56.53,84.3,56.6,83.95z"/>
	<path d="M12.44,110.22c0.01-0.53,0.58-0.91,1.06-0.62c1.16,0.68,1.99,1.69,2.47,2.94c0.22,0.56-0.2,1.07-0.71,1.01
		C14.49,113.45,12.43,111.02,12.44,110.22z"/>
</g>
</svg>
